<?xml version="1.0" encoding="UTF-8" standalone="no"?>
<svg
   xmlns:dc="http://purl.org/dc/elements/1.1/"
   xmlns:cc="http://creativecommons.org/ns#"
   xmlns:rdf="http://www.w3.org/1999/02/22-rdf-syntax-ns#"
   xmlns:svg="http://www.w3.org/2000/svg"
   xmlns="http://www.w3.org/2000/svg"
   xmlns:sodipodi="http://sodipodi.sourceforge.net/DTD/sodipodi-0.dtd"
   xmlns:inkscape="http://www.inkscape.org/namespaces/inkscape"
   viewBox="0 0 169.48764 82.014984"
   version="1.1"
   id="svg10"
   sodipodi:docname="key.svg"
   inkscape:version="0.92.2 (5c3e80d, 2017-08-06)">
  <metadata
     id="metadata16">
    <rdf:RDF>
      <cc:Work
         rdf:about="">
        <dc:format>image/svg+xml</dc:format>
        <dc:type
           rdf:resource="http://purl.org/dc/dcmitype/StillImage" />
      </cc:Work>
    </rdf:RDF>
  </metadata>
  <defs
     id="defs14" />
  <sodipodi:namedview
     pagecolor="#ffffff"
     bordercolor="#666666"
     borderopacity="1"
     objecttolerance="10"
     gridtolerance="10"
     guidetolerance="10"
     inkscape:pageopacity="0"
     inkscape:pageshadow="2"
     inkscape:window-width="1366"
     inkscape:window-height="706"
     id="namedview12"
     showgrid="false"
     inkscape:zoom="2.2007504"
     inkscape:cx="24.309889"
     inkscape:cy="41.007492"
     inkscape:window-x="-8"
     inkscape:window-y="-8"
     inkscape:window-maximized="1"
     inkscape:current-layer="svg10" />
  <path
     style="fill:#ffffff;stroke:#000000;stroke-width:3;stroke-linecap:round;stroke-linejoin:round;stroke-dashoffset:3.00300002;stroke-miterlimit:4;stroke-dasharray:none"
     inkscape:connector-curvature="0"
     id="path2"
     d="M 38.58,1 C 28.8543,1.0685 19.133,5.2067 12.294,12.375 0.043,24.65 -2.387,45.263 5.7149,60.563 c 6.9142,13.842 22.598,22.249 37.617,20.125 13.315,-1.5991 24.544,-11.487 29.697,-23.938 l 9.5336,5.4688 c 2.7914,1.7417 4.3561,-0.44379 4.3556,-3 l -0.18276,-10.219 10.843,0.25 7.371,6.9375 9.5945,-9.715 8.7721,8.3712 h 6.4877 l 8.9854,-9 6.505,5.4986 8.2782,-0.34752 7.1817,-6.9025 7.7325,-7.1236 c -1.3116,-4.3685 -5.0487,-7.0697 -11.909,-10.086 l -70.36,0.55495 -0.42642,-7.7812 c -0.0335,-2.7765 -3.3696,-3.9446 -5.5435,-2.5 l -7.9193,6.4688 c -4.169,-9.0407 -11.571,-16.515 -20.742,-20.125 -4.1536,-1.7429 -8.5851,-2.5311 -13.006,-2.5 z" />
  <path
     style="fill:#ffffff;stroke:#000000;stroke-width:3;stroke-linecap:round;stroke-linejoin:round;stroke-dashoffset:3.00300002;stroke-miterlimit:4;stroke-dasharray:none"
     inkscape:connector-curvature="0"
     id="path4"
     d="m 30.11,39.8 c 0.10517,4.0988 -3.2098,8.0808 -7.4505,8.5635 -3.4203,0.45829 -6.9957,-1.3599 -8.5704,-4.3472 -1.8452,-3.3018 -1.2898,-7.7503 1.5004,-10.399 2.2656,-2.2502 5.9189,-3.1129 8.946,-1.9092 3.1727,1.1834 5.4303,4.2873 5.5602,7.5844 0.01,0.16918 0.0145,0.33863 0.0143,0.50807 z" />
  <path
     style="fill:#ffffff;stroke:#000000;stroke-linecap:round;stroke-linejoin:round;stroke-dashoffset:3.00300002;stroke-width:1.5;stroke-miterlimit:4;stroke-dasharray:none"
     inkscape:connector-curvature="0"
     id="path6"
     d="m 69.37,39.97 97.107,-1.1968 -4.5477,3.3509 -81.859,1.1968 z" />
</svg>
