<svg xmlns="http://www.w3.org/2000/svg" xmlns:svg="http://www.w3.org/2000/svg" viewBox="0 0 169.488 82.015"><path fill="#fff" stroke="#000" stroke-dashoffset="3.003" stroke-linecap="round" stroke-linejoin="round" stroke-width="3" d="M38.58 1c-9.726.069-19.447 4.207-26.286 11.375C.043 24.65-2.387 45.263 5.714 60.563c6.915 13.842 22.599 22.249 37.618 20.125 13.315-1.6 24.544-11.487 29.697-23.938l9.533 5.469c2.792 1.742 4.357-.444 4.356-3l-.183-10.22 10.843.25 7.371 6.938 9.595-9.715 8.772 8.372h6.488l8.985-9 6.505 5.498 8.278-.347 7.182-6.903 7.732-7.124c-1.311-4.368-5.048-7.07-11.909-10.086l-70.36.555-.426-7.78c-.033-2.777-3.37-3.945-5.543-2.5l-7.92 6.468C68.16 14.585 60.758 7.11 51.586 3.5 47.433 1.757 43.001.969 38.58 1z"/><path fill="#fff" stroke="#000" stroke-dashoffset="3.003" stroke-linecap="round" stroke-linejoin="round" stroke-width="3" d="M30.11 39.8c.105 4.099-3.21 8.08-7.45 8.563-3.42.459-6.996-1.36-8.57-4.347-1.846-3.302-1.29-7.75 1.5-10.399 2.265-2.25 5.918-3.113 8.946-1.909 3.172 1.183 5.43 4.287 5.56 7.584.01.17.014.34.014.509z"/><path fill="#fff" stroke="#000" stroke-dashoffset="3.003" stroke-linecap="round" stroke-linejoin="round" stroke-width="1.5" d="M69.37 39.97l97.107-1.197-4.548 3.351-81.859 1.197z"/></svg>