<svg xmlns="http://www.w3.org/2000/svg" xmlns:svg="http://www.w3.org/2000/svg" id="svg47" width="345.6" height="345.6" fill-rule="evenodd" clip-rule="evenodd" image-rendering="optimizeQuality" shape-rendering="geometricPrecision" text-rendering="geometricPrecision" version="1.1" viewBox="0 0 9144 9144"><defs id="defs4"><style id="style2" type="text/css"></style></defs><path id="path43" fill="#011627" fill-rule="nonzero" stroke-width="1.527" d="M5689.876 7939.373h-4350.86c-73.303 0-134.389-59.56-134.389-134.39 0-859.787 82.466-1375.965 476.472-1769.97 371.098-372.626 1007.921-609.334 2112.053-908.656v-241.29c-368.044-190.895-644.459-649.04-772.74-1178.963-79.412-326.81-103.846-684.165-58.031-1021.665 45.814-343.61 164.932-668.894 369.57-928.51C3596.15 1423.01 4000.846 1204.627 4572 1204.627s975.85 218.383 1240.048 551.302c204.639 259.616 323.757 584.9 369.571 928.51 45.815 337.5 21.38 694.854-58.031 1021.665-128.281 529.922-404.696 988.068-772.74 1178.962v241.29c1104.132 299.323 1740.955 536.031 2112.053 908.657 394.006 394.005 476.472 910.183 476.472 1769.97 0 74.83-61.086 134.39-134.39 134.39zm-4214.943-268.78h6194.134c-7.636-705.544-87.048-1137.728-397.06-1446.213-339.028-340.555-968.215-565.047-2083.037-864.369-61.086-12.217-106.9-65.668-106.9-131.335v-429.13c0-53.45 32.07-105.374 85.52-125.227 323.756-126.754 575.736-540.612 694.854-1030.828 71.777-296.268 94.684-618.497 53.45-923.928-39.705-297.795-140.497-577.264-314.593-795.647-215.328-271.833-549.775-450.51-1029.301-450.51-479.526 0-813.973 178.677-1029.301 450.51-174.096 218.383-274.888 497.852-314.594 795.647-41.233 305.43-18.326 627.66 53.45 923.928 117.591 487.162 368.044 897.966 688.747 1027.774 53.45 18.326 91.629 68.722 91.629 128.28v429.13c0 59.56-39.706 114.537-99.265 129.809-1119.404 300.85-1750.118 525.34-2090.673 865.896-310.012 308.485-389.424 740.67-397.06 1446.214z"/></svg>