<svg version="1" xmlns="http://www.w3.org/2000/svg" width="1925.333" height="1925.333" viewBox="0 0 1444.000000 1444.000000"><path d="M489 134.1c-58.7 4.6-109.9 22.5-149.2 52.1-43.3 32.6-87.6 87.1-138.9 170.7-56.3 91.6-89.2 212.9-81.8 301.8 2.3 28.2 8.3 62.8 15.4 88.8 14.1 51.5 30.2 86.8 58.3 127.5 7.7 11.2 25.2 34.2 27.3 36 .3.3 2.7 3 5.3 6 2.6 3 7.3 8.4 10.4 11.9 8.4 9.4 43.6 45 49 49.5 2.6 2.1 7.2 6 10.2 8.6 30.2 26.3 60.3 45.3 100 63.2 8.8 4 37.2 14.5 55.5 20.6 8.3 2.8 17 5.9 19.5 7 2.5 1 13.3 4.9 24 8.5 30 10.1 53.3 15.6 84.5 19.9 15.8 2.1 20.2 2.3 64 2.3 47.9 0 62.9-.7 98.5-4.6 74.8-8.1 130.4-26 174.5-56.3 21.8-14.9 48.1-40.6 77.3-75.6 5.3-6.3 9.9-11.7 10.2-12 .3-.3 1.7-2.1 3-4s2.7-3.7 3-4c2.8-2.4 29-40.7 29-42.4 0-.3 1.1-2.2 2.5-4.2 3.6-5.3 15.6-30.1 20.3-41.9 25.6-64.4 34.2-142.9 25.7-235.5-2.5-27.2-4.7-40-13.6-80-12.9-57.7-24.6-89-33.1-89-10.4 0-51.1 5.3-88.8 11.5-84.3 14-152.1 29.1-225.5 50.1-38.1 11-55.5 16.9-86.2 29.5-10.9 4.5-20.9 8.2-22.2 8.3-2.2.1-3.2-1.2-7.3-8.9-4.3-8.1-17.3-39.5-22.8-55-15.4-43.6-15.2-42.8-30-131.5-6.3-37.8-11.1-63.3-12.6-68-3.5-10.5-7-16.5-10.8-18.5-3-1.7-3.7-1.6-16.1 1-8.9 1.8-16.5 2.7-24 2.8l-11 .2.1 4.5c0 2.5 1.9 11.2 4.2 19.3 2.4 8.2 5.8 21.7 7.7 30 4.5 19.5 6.4 25.8 13.8 44.7 8.8 22.7 30.1 74.9 35.7 87.5 8.7 19.8 19.6 46.5 22.5 55.5 4.6 14.2 12.8 35 16.1 40.9 1.3 2.4 2.4 4.5 2.4 4.8 0 1-15.4 7.4-27 11.1-23.8 7.7-43.9 12.9-99.3 25.8-112.3 26-142.8 35-179.7 53-10.6 5.2-25.6 14.7-31.9 20.3l-3.4 3 3.1 4.8c4.6 7.3 10.7 18.5 17.3 31.8 7.1 14.4 10.3 18.5 16.6 21.5 9.2 4.3 27.1 1.2 47.3-8.3 16.8-8 25.4-13 50.4-29.6 24.1-16.1 20.1-13.3 46.6-33.1 6.3-4.7 14.2-9.7 17.5-11.2 6-2.6 24.6-10.1 34-13.8 6.7-2.5 35.1-13.4 45-17.1 4.4-1.7 10.9-4.2 14.4-5.6 6.6-2.6 15.9-6 38.1-13.9 18.1-6.5 17.3-7 32.3 23.1 21 41.9 23.4 50 45.7 148.5 5.6 25 14.9 59.1 23 84.5 6.3 19.8 14.5 37.6 20.9 45.4l2.8 3.4 7.4-4.4c4.1-2.4 8.3-4.9 9.4-5.6 1.1-.7 2.7-1.6 3.5-2 4.8-2.4 9.9-6.7 11-9.3 4.1-9.9-4.6-64.2-19.5-121.5-10.7-41-18.4-59.7-53.5-130l-22-44 3.9-3.5c13.1-11.9 95.7-31.9 156.5-38 17.4-1.8 27.3-2 80-2 56 0 63.2-.2 105.1-3 53.3-3.5 50.2-3.5 50.9-1.3 1.6 5.2 5.8 50 6.7 71.3 3.2 72-5 142.7-23.2 199.5-10.4 32.5-26.6 67.8-42 91.5-2.7 4.1-5.3 8.2-5.9 9-3.4 5.3-13.1 18.6-17.8 24.5-9.1 11.3-10.3 12.6-25.7 29.3-3.4 3.7-24.3 22.6-30.1 27.2-29.1 23.3-67.5 45.2-101.5 57.9-14.3 5.4-43 11.1-86.4 17.3-27.5 3.9-30.5 4.1-59 4.6-33.4.5-50.4-.6-71.5-4.4-38.2-7-82.8-23.6-119-44.2-17.1-9.8-40.2-23.3-58.5-34.2-9.9-5.9-29.2-17.4-43-25.5-41.7-24.7-56.9-33.8-60-36-23-16.5-37.8-31.2-51.5-51.5-1.3-1.9-2.7-3.7-3-4-.3-.3-3.7-5.2-7.6-11-11.7-17.4-19.2-31.1-32.6-60-17.3-37.3-24.5-62.3-33.8-117.5-6-35.8-6.3-40.2-5.7-86.5.5-44 .8-48.3 6.7-77.1 7.4-35.9 26.4-98.5 39.2-128.9 7.2-17 21.1-43.3 28.4-53.6 1.6-2.3 4.9-7 7.3-10.5 2.4-3.5 7.6-10.7 11.5-15.9 3.9-5.2 7.4-10 7.8-10.5 1.3-1.6 10.2-12.9 11.3-14.2.5-.7 1.5-1.8 2-2.5 7.3-9.7 26.3-29.3 38.5-39.8 4.1-3.6 7.7-6.7 8-7 .7-.8 14.2-11.2 16.6-12.8 1.1-.7 6-4.1 10.9-7.6 24.6-17.3 58.6-34.3 88-44.1 90.4-30 172.9-18.8 316 42.8 29.7 12.8 78.5 36.6 87.5 42.6 1.4.9 3.6 2.3 5 2.9 2.6 1.3 3.8 2 11 6.6 16.3 10.2 33.2 23 41 30.8 15.3 15.3 32.2 37 52.5 67.1 6.5 9.7 12.2 17.7 12.6 17.7.5 0 7.1-2.7 14.6-6 7.6-3.4 18.7-8.2 24.7-10.7 13.7-5.8 22-11.4 26.3-17.7 2.8-4.1 3.3-5.7 3.3-10.9 0-14.1-7.8-33-19.9-48-4.1-5.1-24.7-25.7-28.4-28.5-2.3-1.7-7.3-5.6-11.2-8.7-3.8-3.1-13.7-10.1-22-15.5-8.2-5.5-15.5-10.4-16.2-11-.7-.5-1.5-1-1.8-1-.3 0-4.2-2.3-8.6-5-4.4-2.8-8.2-5-8.3-5-.2 0-5.6-3-12.2-6.6-16.5-9.2-57.7-30.1-70.4-35.7-15-6.6-41.5-16.8-56-21.7-16.5-5.5-54.8-15.2-73-18.4-34-6.1-29.7-5.9-119.5-6.1-45.6-.2-88.2.1-94.5.6zM201.5 1001.1c-28.5 8-64.2 37.9-79.5 66.6-11.1 20.8-17.5 48.2-17.4 73.8.1 24.3 6.2 39.6 20.8 52.3 30.8 26.6 73.6 19.3 113.4-19.4 6.4-6.2 11.7-11.4 11.7-11.4s-.3 8-.7 17.7c-.8 22.7-2.8 34-13 73.3-12.9 50.2-16.8 69.4-16.8 82.3 0 15.5 8.9 27.7 18.2 25.1l3.2-1 2.7-13.9c11.8-61 14.4-73.7 17.5-85.9 1.8-7.6 4.2-15.2 5.2-16.8l1.8-2.8 3 2.8c6.7 6.4 13.6 11.4 19.1 14 7.7 3.6 20.5 3.9 26.8.5 13.1-7 23.7-22.3 29.6-42.5 2.9-10.3 3.7-28.2 1.5-36.8-4.1-16.3-14.1-28.4-26.3-32-10.3-3.1-28.8 5.3-42 19-3 3.1-4.3 4-4.7 2.9-.2-.7-1.2-3.8-2.1-6.7-1.7-5.5-3-6.6-10.1-9.2l-4.2-1.5 6.3-11.3c7.5-13.5 12.4-26.7 16.1-43.4 3.5-15.7 4-38.8 1.2-47.7-3.8-11.5-9.7-19.4-17.6-23.3-1.9-1-5.1-3.7-7.1-6-9.5-11.3-16.9-16.5-27.6-19.3-8-2.1-20.4-1.8-29 .6zm25.6 35.3c3 10 9 14 23 15.6 9.2 1.1 10.1 1.7 12.1 8.3 2.4 7.9-6.1 41.2-14.7 57.6-6.5 12.4-27.6 35.4-43.7 47.9-8.3 6.3-20.4 13-28.1 15.3-9.4 2.9-22.1 2.4-29.1-1.1-19-9.5-24.9-30.5-17.2-60.8 10.1-39.8 35-71.4 65.1-82.7 9.3-3.5 23.6-6.5 29.4-6.1.9.1 2.2 2.5 3.2 6zm97.9 139.3c2.1 2.6 2.2 3.6 1.7 12.3-1.1 18.5-9.7 36.1-21.2 43.2-3.9 2.4-12.1 2.4-15.6 0-1.5-.9-4.7-4-7.3-6.8l-4.6-5.2 1.4-4c1.9-5.3 4.4-10.1 7-13.4 1.2-1.4 3.2-4.1 4.6-5.9 4.8-6.4 18.9-19.9 22.2-21.4 5.4-2.3 9.3-1.9 11.8 1.2zM997.5 1112.5c-.5.2-2.2.6-3.7.9-3.3.8-6.2 5.7-5.4 9.2.4 1.3 2.1 3.7 3.8 5.2 11.3 9.7 10.3 12.2-3.6 8.6-7.3-1.9-12.8-1.4-20.3 2.1-9.3 4.2-10.1 10.7-3.1 25.5 5.6 11.8 23 26.9 35 30.5 10.2 3 23.3 1.2 29.7-4.1 4.3-3.5 7.1-11.1 7.1-19.4 0-23.9-16.2-52.7-32.4-57.5-5.1-1.5-5.4-1.6-7.1-1zm3.3 44.1c4.2.8 8.5 2.3 9.4 3.2 2 2 2.7 10.7 1 12.4-1.9 1.9-7.7 1.2-12.5-1.6-5.8-3.5-7.6-5.5-9.2-11l-1.4-4.6h2.5c1.4 0 6 .7 10.2 1.6zM1175 1125.2c-4.9 1.4-13.4 7.3-18.1 12.6-4.8 5.3-11 18.1-13 26.2-2 8.7-1.6 19.4 1.1 27.5 3.6 11.1 9.3 18.2 20.2 25.5 13.4 8.9 25.1 8.9 33.9-.1 4.3-4.4 6.5-10.1 8.9-22.9 1.1-6.3 2.5-12.9 3.1-14.7l1-3.1 12.7 9.1c7 5.1 17.1 13.6 22.4 18.9 34.3 34.4 31 72.3-7.2 81.9-7.4 1.9-10.2 2.1-21.5 1.6-14.6-.7-34.4-3.9-35.6-5.9-.5-.7-.9-2.3-.9-3.4 0-2.5-3.3-6.9-6.2-8.5-2.4-1.3-5.3 1.1-9.7 8-5.3 8.4-5.2 14.8.2 20 7.2 7.1 21.5 9.7 49.6 8.8 34.7-1.1 47.9-4.8 59.8-16.7 17.4-17.2 21.1-45.5 9.4-70.7-6.9-14.6-17.2-26.7-36.6-42.9-3.8-3.2-7.2-6.1-7.5-6.4-.3-.3-3-2.5-6-5s-6.8-5.6-8.5-7c-1.6-1.4-7.8-7.4-13.6-13.4l-10.6-10.9-6 .7c-5.8.6-6.1.6-6.7-1.8-.7-2.9-7-8.6-9.4-8.5-.9 0-3.3.5-5.2 1.1zm11.4 23.8c.9 1.6 2.3 4.4 3.2 6.1 1.4 2.7 1.6 5.2 1.1 16.3-.4 7.2-1.1 15.1-1.7 17.6-1.5 6.7-5.1 14-6.9 14-1.8 0-12.5-11.1-14.9-15.5-2.3-4.1-2.2-18 .2-26.2 2.2-7.4 5.5-11.1 12.2-13.4 2.7-1 5-1.8 5.1-1.8.1-.1.9 1.2 1.7 2.9zM859.4 1155.9c-2.3 1.1-4.6 2.7-5.1 3.6-.7 1.2.7 7.7 4.9 22.3 12.5 43.7 16.6 61.8 23.7 103.5 5.5 32.1 7.4 41.3 9.1 43.6 2.5 3.7 8.8 8.7 12.5 10.1 5.8 2.2 7.8-.2 11.8-14.3 1.4-4.8 3.5-10.3 4.8-12.2 3-4.4 9.3-7 14.6-6.1 8.6 1.6 19.8 9.6 23.5 16.8 1.7 3.4 6.8 22.7 6.8 25.9 0 4.8 11.2 12.9 17.7 12.9 6 0 10.1-9.8 9-21.8-2.1-22.6-22-46.8-46.9-57-8.3-3.3-20.3-4.1-26.8-1.7-2.5.9-5.4 1.9-6.5 2.2-4.3 1-5.3-2.1-9.5-29.3-6.8-43.8-11.3-63.6-18-79.7-5.4-12.6-12.8-20.7-19-20.7-1.4 0-4.4.9-6.6 1.9zM1076.7 1162c-7.5 2.6-12.5 5.8-17.7 11.2-6.1 6.2-8.7 10.7-12.2 21.1-3 8.7-3.2 10-3.2 24.7-.1 13.4.2 16.6 2.3 23.5 6.8 23.4 27.5 52 42.4 58.8 9.8 4.5 22.1-1 19.8-8.8-1-3.3-3.3-5.8-10-10.7-16.6-12.2-25.8-23.7-30.4-37.9-6.4-19.6-3.2-47.1 6.7-57.4 9.9-10.4 20.6-7 31 9.9 6.7 10.7 10.2 20.3 14.6 39.5 2.4 10.4 4.7 18.2 5.8 19.4 2.2 2.4 10.5 6.7 13.1 6.7 2.8 0 4.9-2.4 6.2-7.2 1.5-5.8-.8-19-6.4-36-14.4-43.6-38-65.3-62-56.8zM380.9 1212.4c-10.6 5.7-24.2 25-30 42.8-2.4 7-3.2 11.8-3.6 19.7-1.1 19.7 4.3 33.4 19.1 48.9 7.1 7.4 11.6 10.7 20.6 14.6 5.8 2.6 7.9 3 19.9 3.4 16.2.5 24.6-1.2 28.6-6 3.5-4.1 3.3-8.8-.4-13l-3-3.3-8.8.5c-4.8.2-14.2.5-20.8.5-10.3 0-12.7-.3-16.5-2.1-10.9-5.3-19.5-18.7-20.6-32.4-.8-9.3.6-17 4.2-23.4 3.1-5.5 2-5.8 8.8 2.8 4 5.1 7.7 6.7 15.1 6.8 13.2.1 24.8-5.8 30-15.3 2.6-4.8 3-6.4 3-13.9 0-7-.4-9.3-2.4-13-5.2-10-20.1-19.2-32.1-19.7-5.4-.3-7.3.1-11.1 2.1zm24.1 21c2.8 1.8 4 3.3 4 5 0 8-16.3 15-26.5 11.3-3.3-1.2-3.9-1.9-3.7-3.8.4-3.8 5.5-10.9 9.7-13.5 5-3.1 10.8-2.8 16.5 1zM482.6 1228.1c-4.6 1.9-8.5 4.3-12.9 7.9-6.8 5.5-16.9 23.3-20.3 35.5-3.8 13.8-2.8 43.8 2.3 64.9 3.9 16.2 12.8 27.6 21.4 27.6 3.5 0 4.2-.4 5.3-3.1 1.6-3.9 1.3-5.3-5.2-22.9-11.2-30-10.8-49.7 1.2-70 8.3-14.2 18.2-21.8 27.1-20.8 6.1.7 9.8 3.7 12.8 10.6 6 13.3 6.1 34.2.2 58.2-1.9 8-3.9 16.1-4.4 18.1-1.5 6.7 5.4 20.9 10.6 21.7 12.9 1.9 23.4-60 15.3-91.1-6.4-25-21.4-38.8-42-38.6-4.1 0-8.3.7-11.4 2zM1021 1250.3c-8.5 4.5-8.6 3 .9 41.9 4.5 18.9 9 35.4 10 36.8 2.5 3.6 10.9 7.9 15.3 8 4.6 0 8.1-3.9 10.4-11.7 1.6-5.4 1.4-12-.4-13.2-2.3-1.6-4.6-8.3-9.2-27.1-5.3-21.6-9.2-31.6-13.6-34.5-4.3-2.8-8.4-2.9-13.4-.2zM701.7 1257.4c-19.3 8-40.8 27.4-45.3 41-2.7 8-1.5 20.6 2.6 29 6 12.2 15 18.6 26.2 18.6 7 0 12.3-2.1 21.9-8.7 14.7-10 24.9-16.3 26.8-16.3.4 0 2 8.9 3.6 19.7 3.2 22.8 5.3 32.1 8.9 39.1 4.2 8.3 9.7 11.4 16.6 9.3 8-2.4 10.7-11.7 4.9-16.5-1.7-1.4-3.4-2.6-3.9-2.6-2.5 0-5.3-10.4-7.6-28.5-2.8-22.2-4.4-28-9-33.4-4.8-5.6-10.8-7.7-17.1-6.1-4.2 1-16 6.5-17.3 8-1.4 1.6-18.2 13.1-23.1 15.9-7.2 4-10.9 4-14.2.2-3.2-3.8-5.1-11.9-4.3-17.6.9-5.5 6.9-14.7 12.9-19.7 6.6-5.5 17.9-12.5 22.8-14.2 2.4-.9 6.3-1.6 8.5-1.6h4.1l.6 4.6c.4 4.2 3.7 9.4 5.9 9.4 1.9 0 9-5.6 10.4-8.1 3.9-7.6-1.6-17.9-11.7-22-6.5-2.6-16.1-2.4-23.2.5zM822.2 1257.5c-6 2.8-13.1 9.7-21.1 20.5-13 17.5-23.9 38.8-26.7 52.1-7.3 34.9 31.4 66 63.1 50.9 14-6.6 26-16.5 29.5-24.3 4.4-9.7 1.4-15.7-8.3-16.5-6.5-.5-9.1.7-16.5 7.7-12.8 12.2-17.9 15.1-26 15.1-9.1 0-17-7.9-19.4-19.4-2.2-10.3 2.2-19.9 21.4-47.1 4.3-6.1 8.9-11.9 10.3-13 1.5-1.1 6.1-3.4 10.3-5.1 8.2-3.3 9.5-4.8 10.5-11.6.7-4.9-.8-6.6-7.5-8.4-12.5-3.2-14.4-3.3-19.6-.9zM609 1261.9c-7.8 1.6-15.2 6.8-28.7 20.6-12.9 13-22.1 25.2-27.4 36.1-3 6.1-3.4 8-3.7 16.7-.3 7.7 0 11.1 1.7 16.6 6.1 20 26.5 36.1 45.8 36.1 14.5 0 38.1-10.7 42.7-19.4 4.2-8 2.7-13.3-4.7-16.7-6.2-2.7-9.5-2.4-16.3 1.8-3.2 2-8.4 5.1-11.4 7-12.8 7.8-22.6 6.8-30.1-3-4.2-5.6-5.9-10.5-5.9-17.1 0-6.1 1.8-10.2 8.5-19.5 5.4-7.5 25.6-28.2 30.5-31.2 2.4-1.5 8.2-3.1 16.3-4.4 4.5-.7 6.7-3.7 7.4-9.9l.5-4.5-8.8-4.4c-10.6-5.3-11.9-5.7-16.4-4.8z"/></svg>