<?xml version="1.0" encoding="UTF-8" standalone="no"?>
<!-- Created with Inkscape (http://www.inkscape.org/) -->
<svg
   xmlns:svg="http://www.w3.org/2000/svg"
   xmlns="http://www.w3.org/2000/svg"
   version="1.0"
   width="389.76318"
   height="389.76318"
   id="svg2534"
   xml:space="preserve"><defs
     id="defs2537" /><g
     transform="scale(1.25,-1.25)"
     id="g2543"><path
       d="M 287.7158,-113.2637 L 271.7705,-107.7676 L 269.749,-107.1934 L 265.1592,-105.6855 L 280.71,-89.0693 L 282.4346,-87.3457 L 283.3096,-86.1123 L 257.3506,-83.0293 L 255.9111,-82.7402 L 250.7021,-82.3418 L 267.7334,-59.1523 L 269.4619,-56.8516 L 271.7627,-53.3799 L 241.7803,-62.314 L 240.3428,-62.8931 L 236.3213,-64.124 L 242.0713,-41.3164 L 242.9326,-37.8618 L 243.7021,-33.978 L 217.2744,-51.6743 L 215.5713,-52.8652 L 199.3994,-25.7803 L 197.2236,-22.1353 L 197.124,-21.79 L 174.8867,-44.1914 L 172.3662,-46.8506 L 163.6436,-22.0381 L 162.0146,-17.6274 L 143.4424,-53.2109 C 135.2744,-50.3174 104.6182,-39.0737 104.6182,-39.0737 L 108.6855,-77.3965 L 71.7529,-93.8945 L 74.8438,-96.8369 L 94.8643,-113.6602 L 93.5811,-114.9639 L 64.458,-140.6133 L 68.2129,-141.1426 C 68.2129,-141.1426 73.6797,-141.8232 77.4404,-142.4219 C 81.1807,-143.0195 87.5557,-149.6924 87.9473,-154.5488 C 87.9053,-154.5859 87.8564,-154.625 87.8154,-154.6611 C 87.8154,-157.373 86.7568,-160.249 85.2217,-161.2813 L 64.3535,-193.4297 L 68.5,-192.9219 L 93.2979,-189.1934 L 92.7178,-193.207 L 89.3037,-220.2871 L 113.709,-214.2695 L 114.9209,-218.5273 L 119.2441,-232.334 C 119.2578,-232.3379 119.2686,-232.3398 119.2822,-232.3428 L 124.7217,-249.0195 L 125.2549,-249.0039 L 125.5869,-248.4434 L 132.5068,-240.6777 L 138.7734,-234.3477 C 138.7998,-234.3477 138.8213,-234.3477 138.8477,-234.3477 L 142.2803,-230.6377 L 145.1943,-234.0635 L 145.2266,-234.0654 L 172.3574,-263.3252 L 180.3252,-223.9346 L 210.876,-240.3828 L 214.3896,-211.0439 L 216.7002,-211.0713 L 253.1709,-208.9473 L 240.8936,-187.9102 L 269.1768,-191.7725 L 270.0967,-191.7324 L 254.1807,-167.6055 L 250.7627,-162.6875 L 283.0107,-143.7285 L 284.4541,-142.2891 L 265.4248,-130.4941 L 261.1924,-128.0488 L 284.7432,-114.9639 L 287.7158,-113.2637 M 193.0557,-43.0459 L 196.5615,-49.0557 L 184.8564,-48.9072 L 193.0557,-43.0459 M 132.5068,-67.21 L 125.0107,-73.8242 L 122.5723,-75.8057 L 120.0889,-62.3672 L 132.5068,-67.21 M 107.4229,-92.5205 L 102.5225,-102.3066 C 102.5225,-95.4785 95.1045,-93.5449 107.4229,-92.5205 M 132.4365,-220.1758 C 131.7568,-221.1172 130.5518,-223.5234 129.9063,-223.9922 L 129.2275,-218.248 C 131.5615,-218.2891 133.8857,-218.1582 132.4365,-220.1758 M 166.9111,-236.0391 C 166.9092,-236.0469 156.333,-223.7949 156.333,-223.7949 L 168.2627,-223.9668 L 166.9111,-236.0391 M 224.415,-198.9043 L 228.1592,-194.3037 L 231.1045,-199.623 L 224.415,-198.9043 M 244.0908,-119.2754 C 244.0908,-134.4512 237.6436,-151.1836 231.9775,-161.5645 C 226.3154,-171.9473 220.335,-178.1963 211.2881,-187.3223 C 208.5166,-189.8428 205.751,-191.8965 203.0303,-193.957 C 200.0615,-196.2109 197.0264,-198.0059 193.7275,-199.9189 C 187.2842,-203.6533 180.2627,-206.9453 172.1807,-208.916 C 165.4268,-210.5703 152.4229,-212.418 144.8428,-210.5313 C 140.8193,-209.5332 136.0732,-208.916 132.7979,-207.3027 C 130.7275,-206.2813 124.3486,-203.2988 123.2822,-201.8398 C 116.6426,-198.3359 110.501,-189.5674 107.1328,-182.5684 C 104.8896,-179.9873 101.6553,-165.8828 101.6553,-160.4121 L 101.6553,-152.9346 L 102.4561,-146.5693 C 102.458,-146.5674 102.4688,-146.5576 102.4688,-146.5576 C 102.4912,-146.2803 104.6084,-135.9414 104.6768,-135.5957 C 105.4111,-131.8145 108.5791,-124.334 109.8271,-121.6729 C 112.1338,-116.7402 116.5088,-108.3701 122.6533,-100.8789 C 128.7988,-93.3877 135.3291,-86.6475 144.6143,-80.1465 C 152.1465,-74.875 166.7236,-67.7246 174.0264,-66.3418 C 181.3291,-64.958 195.1963,-64.314 202.5693,-65.1929 C 209.9424,-66.0723 218.9346,-71.0098 223.2764,-73.8809 C 226.7275,-76.1621 235.9463,-85.3516 236.8818,-89.3594 C 240.9736,-94.0576 244.0908,-108.4199 244.0908,-117.8359 L 244.0908,-119.2754 z"
       id="path2545"
       style="fill:#aaaaaa;fill-opacity:1;fill-rule:nonzero;stroke:none" /><path
       d="M 51.4883,-200.6885 C 52.9492,-201.667 56.3906,-206.0098 58.0488,-207.667 C 60.3789,-209.9941 62.6787,-212.0127 64.9639,-214.2852 C 68.5654,-217.873 76.1611,-223.2266 80.9961,-225.6182 C 87.3682,-228.7813 113.9482,-239.5254 121.8389,-239.5254 L 132.5068,-240.6777 L 150.96,-240.1016 C 155.1846,-240.1016 161.0654,-239.2305 165.0264,-238.5996 C 168.0967,-238.1162 175.6182,-235.835 177.7725,-235.7871 L 191.0381,-229.7432 C 193.0557,-227.9941 196.0205,-226.5566 198.1807,-224.5039 C 200.4092,-222.377 202.3213,-220.3359 204.5186,-218.166 C 207.7725,-214.9502 213.4404,-208.1045 215.8955,-204.208 C 219.1455,-199.0469 222.4541,-193.666 224.4502,-187.4219 C 226.1553,-182.1035 228.6631,-173.0195 228.8076,-166.459 L 229.1631,-160.9961 L 229.0986,-152.6465 C 229.0986,-144.8633 228.2158,-137.8994 226.9111,-131.2402 C 225.5889,-124.502 223.5713,-118.6318 222.1748,-112.6582 C 221.624,-111.6113 220.4814,-108.0557 219.2939,-108.0557 L 217.5654,-108.0557 C 210.4717,-108.0557 201.3916,-110.2031 194.8154,-111.252 C 187.5225,-112.418 180.3086,-114.0527 173.2842,-115.6582 C 166.4932,-117.2041 158.8164,-118.8721 152.6904,-121.0029 C 149.458,-122.125 145.9893,-123.0215 142.8496,-124.123 C 141.0908,-124.7422 134.792,-127.5215 133.6602,-127.623 C 133.1689,-128.0449 133.1553,-128.1943 132.2158,-128.1943 C 131.165,-128.1943 124.9775,-111.8184 124.4326,-109.4961 L 122.416,-101.1523 C 121.3887,-96.7422 118.499,-69.7949 114.9209,-70.3701 L 107.9971,-71.2344 L 104.6484,-71.5664 L 106.2666,-78.4248 C 107.0791,-80.1133 107.8438,-84.3779 108.4014,-86.6543 C 108.8838,-88.627 110.2607,-92.1797 111.0791,-94.0547 C 111.8809,-95.9043 116.8564,-107.6494 116.9395,-108.6318 L 119.2441,-113.8086 C 120.5508,-116.2793 121.4883,-119.1875 122.5029,-122.0664 C 123.3623,-124.5068 125.4434,-128.5977 125.876,-130.2109 C 123.9854,-130.6465 120.9121,-132.2207 118.2607,-132.9658 C 116.2119,-133.5449 112.2979,-134.9316 110.3057,-135.1016 L 104.5391,-136.5352 L 78.5898,-142.582 L 69.9414,-145.4541 C 66.0479,-147.9199 59.0684,-149.1797 56.1006,-153.2236 C 58.541,-156.8604 60.3164,-163.2686 64.1729,-165.3076 C 75.3623,-165.3076 80.4316,-158.5605 87.8154,-154.6611 C 91.1357,-151.7832 97.6338,-147.166 102.5225,-146.0303 C 105.9775,-144.207 112.3955,-142.1221 116.4482,-140.6504 C 118.7637,-139.8105 121.3701,-138.6328 123.5674,-137.9756 C 127.542,-136.7832 127.1924,-136.7764 129.0479,-140.2773 L 130.2002,-142.8662 C 131.8408,-144.0664 134.7627,-153.7715 135.707,-156.6445 C 137.3105,-161.4844 138.1016,-166.873 139.3623,-171.9844 C 140.7402,-177.5469 145.6982,-199.0957 149.5195,-200.1162 C 151.1904,-198.6641 155.8584,-197.417 155.8584,-194.6465 L 155.8584,-193.498 C 155.8584,-185.2891 151.1172,-168.7363 148.8184,-161.9736 C 147.417,-157.8379 144.7256,-152.5781 142.7881,-148.7168 C 140.5762,-144.3008 138.5166,-139.9414 136.2549,-135.6719 C 138.1221,-132.1523 164.6855,-126.7188 171.7139,-126.752 C 179.1162,-126.7871 186.5205,-126.7549 193.917,-126.7549 C 201.1396,-126.7549 208.0068,-125.6055 214.9678,-125.6055 L 216.4092,-125.6055 C 217.6963,-125.6055 217.8525,-129.416 217.8525,-130.7832 C 217.8525,-133.4561 218.4268,-135.0371 218.4268,-138.2637 C 218.4268,-141.2637 218.7158,-143.1475 218.7139,-146.0303 C 218.7139,-151.2324 218.1768,-156.6309 217.8525,-161.2773 C 217.2939,-169.1289 214.3604,-181.7949 211.5029,-187.168 C 209.7705,-194.6113 199.3896,-208.4102 194.2842,-213.1367 C 190.4561,-216.6768 187.0127,-220.0488 182.292,-222.7461 C 178.7822,-224.7539 171.6953,-229.0986 167.6807,-230.0352 L 164.2246,-230.8945 L 162.7822,-231.1826 L 145.1943,-234.0635 L 138.8477,-234.3477 C 129.9287,-234.3477 126.3193,-233.9805 119.2441,-232.334 C 114.3428,-231.1934 101.9893,-226.5322 99.0615,-223.9922 L 91.5635,-219.6787 L 89.5439,-218.5273 L 67.6348,-205.583 C 61.2559,-201.3174 58.7549,-198.3027 54.3193,-192.1123 C 51.9746,-188.8398 46.1084,-178.3594 45.1445,-174.2227 C 43.0059,-171.1504 39.0879,-151.4893 39.0879,-145.4541 L 39.0879,-132.5088 C 39.0879,-122.4229 43.5762,-109.9854 46.0664,-101.7832 C 48.9443,-92.2813 53.9326,-84.5684 59.3906,-77.3926 C 64.4473,-70.7285 71.4521,-63.3516 78.7803,-59.0498 C 84.6201,-55.6235 97.3184,-48.5107 105.9834,-48.5107 L 114.624,-47.5518 L 115.7861,-47.6426 C 128.2656,-47.6426 138.0928,-51.2637 147.4111,-54.6372 C 152.4385,-56.458 171.2217,-63.9126 174.0264,-66.3418 L 177.7725,-68.3564 C 179.1563,-68.6777 186.6807,-73.6992 187.7959,-74.7559 C 190.1924,-77.0254 193.8213,-80.4131 195.3623,-83.3154 L 202.8564,-93.9609 L 204.2998,-93.3877 C 207.1748,-91.3916 217.2744,-89.4707 217.2744,-85.042 L 217.2744,-84.1797 C 217.2744,-83.0293 216.6709,-81.5586 216.4092,-80.4404 C 215.8057,-77.8633 212.126,-73.5039 210.3877,-71.7754 C 208.7139,-70.1045 203.4385,-66.3711 202.5693,-65.1929 C 200.6631,-64.1865 198.6084,-62.7271 196.749,-61.5054 C 194.8213,-60.2324 192.6514,-59.2939 190.6904,-58.0576 C 187.6553,-56.1519 181.5303,-52.9653 178.0986,-51.6338 C 170.5752,-48.7163 158.6426,-43.2485 149.2285,-42.4653 L 136.8311,-41.3164 L 112.9014,-41.3164 C 82.1826,-41.3164 68.4668,-56.1309 55.8154,-74.1143 C 50.5088,-81.6641 42.6162,-93.4355 39.4199,-102.6348 C 37.498,-108.1699 35.1299,-112.9189 33.7285,-119.3936 C 32.5469,-124.832 30.4395,-132.375 30.4395,-138.5518 L 30.4395,-147.4668 C 30.4395,-154.5938 34.8584,-173.25 37.3076,-177.7275 C 39.6709,-182.0586 40.8457,-185.6475 43.6455,-189.8164 C 44.6426,-191.3057 51.3818,-200.3955 51.4883,-200.6885"
       id="path2547"
       style="fill:#aaaaaa;fill-opacity:1;fill-rule:nonzero;stroke:none" /><path
       d="M 213.2373,-252.7598 C 213.2373,-253.4238 213.0381,-253.6191 212.3701,-253.6191 C 210.4502,-253.6191 208.626,-252.1543 208.626,-249.8848 C 210.0381,-249.916 213.2373,-250.2559 213.2373,-251.6104 L 213.2373,-252.7598 M 208.335,-242.4033 C 208.4053,-245.417 210.0732,-244.002 210.6357,-246.2041 L 206.0303,-245.8555 C 202.999,-245.5908 202.6357,-248.2246 203.0791,-250.2354 C 203.7627,-253.3047 205.0225,-253.415 206.3174,-255.3516 C 207.8271,-256.3574 209.9971,-258.2246 212.3701,-258.2246 L 213.8135,-258.2246 C 216.4189,-258.2246 218.4268,-256.2246 218.4268,-253.6191 L 218.4268,-253.3359 C 218.4268,-251.1602 217.9795,-249.043 217.2744,-247.582 L 212.9482,-241.8291 C 212.2529,-241.4922 211.6865,-241.251 210.6416,-241.251 L 209.7783,-241.251 C 208.9561,-241.251 208.7744,-241.9043 208.335,-242.4033"
       id="path2549"
       style="fill:#aaaaaa;fill-opacity:1;fill-rule:nonzero;stroke:none" /><path
       d="M 244.665,-253.3359 C 244.665,-250.3398 245.9268,-248.3906 248.7041,-248.1582 C 248.9873,-249.207 249.8545,-249.75 249.8545,-250.4561 L 249.8545,-252.4707 C 249.8545,-255.8691 248.9639,-257.2998 248.415,-259.6641 C 247.0811,-259.3574 244.665,-256.6748 244.665,-255.6367 L 244.665,-253.3359 M 240.6299,-258.5156 C 241.7432,-259.793 241.9268,-260.6289 243.4346,-261.7617 C 245.1455,-263.0498 245.8174,-263.0703 247.2588,-263.9775 C 254.29,-263.9775 252.2393,-258.5244 254.2959,-254.3281 L 259.9502,-258.8027 L 264.2744,-263.4014 C 265.0537,-264.877 266.0029,-266.6328 266.0029,-268.8711 L 266.0029,-270.5938 C 266.0029,-273.8281 261.6221,-276.9258 258.5049,-276.9258 L 257.6396,-276.9258 C 255.6279,-276.9258 252.6826,-276.8301 250.8818,-276.4766 C 249.665,-276.2344 248.5283,-276.2627 248.1611,-275.4463 C 247.7998,-274.6348 247.6611,-273.1855 246.6846,-273.1855 C 245.6826,-273.1855 244.0908,-275.4834 244.0908,-276.6406 L 244.0908,-277.501 C 244.0908,-279.5586 245.5908,-279.4297 246.6846,-280.377 L 251.5869,-280.9531 L 253.6006,-280.9531 C 263.3252,-280.9531 270.6162,-278.6738 270.6162,-269.1563 L 270.6162,-268.8711 C 270.6162,-264.084 267.1416,-259.1543 264.6396,-256.7109 C 262.2998,-254.4277 256.2646,-250.4082 254.7549,-248.1582 C 254.3506,-247.5498 252.7041,-245.5703 251.874,-245.5703 L 249.5654,-245.5703 C 249.3682,-244.71 248.7139,-243.5547 247.8369,-243.5547 C 244.9092,-243.5547 242.1572,-246.6348 241.2041,-248.7275 C 239.4619,-252.5156 239.665,-254.3691 240.6299,-258.5156"
       id="path2551"
       style="fill:#aaaaaa;fill-opacity:1;fill-rule:nonzero;stroke:none" /><path
       d="M 66.4814,-265.707 L 65.6123,-265.707 C 65.2676,-265.1875 63.3096,-263.3438 63.3096,-263.1172 C 63.3096,-260.4961 69,-253.6191 71.3848,-253.6191 L 71.957,-253.6191 C 73.3164,-253.6191 73.4541,-256.6621 72.8223,-257.6484 C 72.8223,-261.6299 70.6006,-265.707 66.4814,-265.707 M 38.2256,-255.6367 L 35.0547,-254.2002 C 33.4326,-253.1152 32.168,-251.1426 32.168,-248.4434 L 32.168,-245.8555 C 32.168,-241.5215 35.8838,-234.2744 38.0078,-231.8291 C 39.6357,-229.9531 41.0303,-228.2988 43.3174,-227.0566 C 44.7754,-226.2666 48.668,-224.5654 50.6211,-224.5654 L 52.3535,-224.5654 L 53.5068,-227.4443 C 56.3623,-229.3525 55.3652,-228.1289 58.5469,-229.0332 C 60.1367,-229.4844 60.2393,-232.7041 59.5596,-233.7734 C 59.5596,-239.1768 55.1514,-245.2207 52.2803,-248.084 C 48.8252,-251.5342 44.9814,-255.6367 38.2256,-255.6367 M 31.3018,-257.6484 C 32.4424,-257.9551 34.0264,-259.625 35.876,-260.2813 C 37.5137,-260.8604 39.6689,-261.1035 41.9727,-261.1035 C 44.6279,-261.1035 49.0078,-258.7246 50.792,-257.5361 C 53.3936,-255.8105 55.2246,-253.2549 57.2559,-251.8965 L 56.6797,-260.8145 C 56.6797,-263.1191 54.4795,-271.5762 53.7607,-273.7285 C 52.8906,-276.3594 51.1982,-283.6602 51.1982,-286.9941 L 51.1982,-287.2832 C 51.1982,-289.3516 52.2334,-291.0342 53.5068,-291.8848 L 54.9473,-292.1729 C 57.3838,-290.0576 58.6699,-269.6328 61.2881,-267.7148 C 62.709,-268.666 65.2803,-271.459 67.3418,-271.459 L 70.2285,-271.459 C 73.8105,-271.459 78.0127,-262.8301 78.0127,-258.2246 L 78.0127,-257.0762 C 78.0127,-255.0352 77.2471,-253.8457 76.8584,-252.1855 C 76.04,-251.2461 73.8145,-248.1582 72.249,-248.1582 L 70.2285,-248.1582 C 68.915,-248.1582 67.373,-249.5449 65.9043,-249.8848 L 62.6523,-252.9932 L 62.4443,-252.7598 L 62.4443,-251.8965 C 62.4443,-250.0898 60.9404,-249.4492 59.2725,-249.3086 C 59.5596,-248.2246 61.9912,-244.3311 62.7344,-242.4082 C 63.4443,-240.5723 64.4629,-236.5645 64.4629,-234.0635 L 64.4629,-230.0352 C 64.4629,-224.7793 60.2168,-224.0996 58.4063,-221.4023 C 56.5986,-220.0801 54.9473,-217.9512 51.4883,-217.9512 L 50.332,-217.9512 C 44.4756,-217.9512 37.3711,-224.082 34.3994,-227.3672 C 30.873,-231.2715 27.5576,-238.8398 27.5576,-246.1426 L 27.5576,-247.8691 C 27.5576,-252.8574 29.3447,-254.7324 31.3018,-257.6484"
       id="path2553"
       style="fill:#aaaaaa;fill-opacity:1;fill-rule:nonzero;stroke:none" /><path
       d="M 83.4932,-268.8711 C 83.8486,-267.541 85.2295,-265.418 86.9502,-265.418 L 87.5303,-265.418 C 88.8896,-265.418 88.6807,-265.9766 89.835,-266.2813 L 89.835,-267.1445 C 89.835,-268.3301 87.3311,-269.4473 86.0869,-269.4473 C 85.3643,-269.4473 84.1895,-269.0332 83.4932,-268.8711 M 81.1826,-263.9775 L 77.4375,-271.459 L 77.1475,-276.6406 C 78.4014,-282 79.3672,-281.6992 81.7607,-285.2676 C 83.6455,-286.5244 85.8799,-288.1455 88.9717,-288.1455 L 91.2744,-288.1455 C 93.4756,-288.1455 95.001,-287.4521 95.8896,-286.1309 L 95.8896,-284.9785 C 93.876,-281.1758 89.8545,-285.0723 86.665,-283.54 C 83.5381,-283.2813 80.8975,-279.458 80.8975,-276.0625 C 80.8975,-273.9453 81.2168,-271.624 82.915,-271.1719 C 83.2002,-272.2461 84.3379,-273.7607 85.7998,-273.7607 L 88.1025,-273.7607 C 90.751,-273.7607 93.5811,-271.1777 93.5811,-268.2949 L 93.5811,-267.4307 C 93.5811,-266.1621 93.1553,-265.3799 92.7178,-264.5566 C 91.5898,-262.875 88.9297,-261.1035 86.0869,-261.1035 L 85.7998,-261.1035 C 83.7295,-261.1035 82.4189,-263.1523 81.1826,-263.9775"
       id="path2555"
       style="fill:#aaaaaa;fill-opacity:1;fill-rule:nonzero;stroke:none" /><path
       d="M 222.751,-253.3359 L 221.3115,-255.3516 C 220.4307,-259.123 219.5791,-258.3379 219.5791,-264.2705 L 221.6006,-271.749 C 223.7021,-274.1621 226.1904,-280.0908 230.5361,-280.0908 L 230.8291,-280.0908 C 231.7939,-280.0908 232.8428,-279.5781 232.8428,-278.6543 L 232.8428,-277.79 C 232.8428,-276.8672 230.0947,-275.3887 229.3838,-274.3359 C 227.7178,-273.8926 225.7627,-270.7227 225.0557,-269.1602 C 223.6865,-266.1367 224.0674,-264.8711 224.1982,-261.3945 C 224.501,-253.4736 231.3096,-253.7471 232.5557,-259.0908 L 233.4209,-260.2383 C 233.8389,-262.0469 234.876,-264.0684 235.3291,-266.3906 C 235.9092,-269.3691 235.6963,-270.2266 238.0342,-271.459 L 239.7529,-271.8145 C 240.2939,-270.9551 240.6299,-270.2051 240.6299,-268.8711 C 240.6299,-264.5254 237.3096,-258.3301 235.7275,-255.3516 C 234.5928,-254.0449 231.9111,-251.0332 229.6709,-251.0332 L 227.9404,-251.0332 C 225.6846,-251.0332 224.1416,-252.4082 222.751,-253.3359"
       id="path2557"
       style="fill:#aaaaaa;fill-opacity:1;fill-rule:nonzero;stroke:none" /><path
       d="M 219.0068,-286.707 L 221.0166,-287.0576 C 221.8701,-286.4268 222.751,-285.1572 222.751,-283.834 L 222.751,-282.6816 C 222.751,-281.9648 221.79,-281.291 221.4717,-280.2188 C 221.2119,-279.3184 221.1572,-278.3145 220.9111,-277.3271 C 220.4131,-275.3662 219.7568,-273.8789 219.5791,-271.749 C 218.915,-270.791 218.2568,-268.8711 216.7002,-268.8711 C 215.499,-268.8711 213.5283,-269.7451 213.5283,-270.8848 C 213.5283,-271.4707 215.2236,-278.3271 215.54,-279.5234 C 216.3916,-282.7666 216.3271,-285.2959 219.0068,-286.707"
       id="path2559"
       style="fill:#aaaaaa;fill-opacity:1;fill-rule:nonzero;stroke:none" /><path
       d="M 97.9092,-284.1172 L 99.3486,-289.2939 L 102.2305,-292.459 C 103.2979,-292.459 104.251,-292.7148 104.251,-291.5977 C 104.251,-288.3428 101.3662,-284.5977 101.3662,-280.0908 L 101.3662,-279.8008 L 101.6826,-276.3555 C 103.0244,-274.3066 104.417,-268.8711 107.9971,-268.8711 L 108.8662,-268.8711 C 111.1494,-268.8711 112.3262,-272.0098 112.3262,-274.3359 C 112.3262,-280.8896 111.4639,-282.3301 110.3057,-287.2832 L 112.6113,-291.0215 L 113.4766,-291.0215 C 115.4521,-288.0713 116.6484,-283.5186 116.6484,-278.6543 L 116.6484,-276.9258 C 116.6484,-273.8125 115.5166,-271.4219 114.9209,-268.8711 C 113.1162,-267.5508 112.2334,-264.2705 107.7119,-264.2705 L 107.1328,-264.2705 C 101.54,-264.2705 97.6182,-271.875 97.6182,-277.79 L 97.6182,-279.8008"
       id="path2561"
       style="fill:#aaaaaa;fill-opacity:1;fill-rule:nonzero;stroke:none" /><path
       d="M 189.5947,-286.4209 L 191.3252,-287.5723 L 192.4775,-287.5723 C 193.8545,-285.5215 193.8213,-280.6621 197.0889,-280.6621 C 199.0205,-280.6621 201.2373,-282.4053 201.9932,-283.834 L 203.4365,-287.5723 C 204.0576,-290.2314 203.6318,-290.0176 205.4541,-291.5977 C 206.46,-291.8301 206.4248,-292.1729 207.4717,-292.1729 C 208.5811,-292.1729 209.4912,-290.0684 209.4912,-289.0098 L 209.4912,-288.4346 C 209.4912,-283.9551 206.5127,-281.6621 204.8799,-279.2285 C 201.9951,-277.3047 200.5283,-275.3086 195.6494,-275.1992 C 195.2822,-275.4326 193.3389,-276.0625 192.7686,-276.0625 C 191.2041,-276.0625 190.4814,-266.1641 190.0615,-264.0898 C 189.6729,-262.1777 189.251,-259.8086 188.8037,-258.1582 C 188.3115,-256.3438 187.4229,-254.5781 187.001,-252.7598 C 186.2432,-251.8857 184.9893,-249.5986 183.54,-249.5986 C 182.0518,-249.5986 181.1846,-250.3301 180.6572,-251.3223 C 182.0537,-253.9531 184.5264,-264.8652 185.3838,-268.7559 C 186.0488,-271.7656 186.3428,-275.1035 187.0635,-278.0117 C 187.374,-279.2705 187.6162,-281.3193 187.8311,-282.7129 C 188.3389,-285.9121 188.2998,-284.4873 189.5947,-286.4209"
       id="path2563"
       style="fill:#aaaaaa;fill-opacity:1;fill-rule:nonzero;stroke:none" /><path
       d="M 165.0869,-283.834 L 164.5088,-286.4209 C 164.5088,-293.1846 166.9102,-293.2803 170.2783,-296.1992 C 171.6953,-296.3145 171.3311,-296.7764 172.583,-296.7764 L 174.6025,-296.7764 C 178.9863,-296.7764 180.9844,-293.4678 183.54,-291.5977 L 184.1182,-290.1602 L 184.1182,-289.0098 C 183.6084,-288.2451 183.0908,-287.5723 181.8096,-287.5723 L 181.2334,-287.5723 C 179.1436,-287.5723 177.3486,-291.2295 174.8867,-291.8848 C 174.2725,-292.3105 173.9404,-292.459 172.8721,-292.459 C 170.5283,-292.459 169.124,-289.3594 169.124,-286.707 C 169.124,-285.1348 172.9785,-279.5547 173.9443,-278.2881 C 176.8877,-274.4375 180.0811,-275.7646 180.0811,-271.459 C 174.4561,-270.1543 174.0088,-269.5459 170.3877,-274.4473 C 168.999,-276.3252 165.6221,-281.5527 165.0869,-283.834"
       id="path2565"
       style="fill:#aaaaaa;fill-opacity:1;fill-rule:nonzero;stroke:none" /><path
       d="M 120.1104,-281.5293 C 119.8174,-282.6133 118.3779,-284.6016 118.3779,-285.8438 L 118.3779,-287.8555 C 118.3779,-289.5957 119.2002,-290.4717 119.5332,-291.8848 L 122.416,-295.3369 C 123.7656,-296.0518 125.3447,-297.3506 127.3193,-297.3506 L 128.4697,-297.3506 C 132.4072,-297.3506 137.4102,-295.2686 137.4102,-291.3115 C 136.915,-290.375 135.9063,-289.582 134.5244,-289.582 C 132.5684,-289.582 131.0029,-292.749 127.0273,-292.749 C 124.5654,-292.6924 123.2373,-290.2705 123.043,-288.0859 C 122.8447,-285.8223 124.8125,-283.7168 125.9463,-282.4629 C 127.749,-280.4961 128.3154,-279.9434 130.2744,-278.1504 C 132.8789,-275.7646 133.6621,-277.8418 135.9697,-275.1992 L 135.9697,-273.4766 C 130.7578,-270.7246 131.0889,-270.9014 126.624,-274.2188 C 123.8926,-276.252 122.2666,-279.0518 120.1104,-281.5293"
       id="path2567"
       style="fill:#aaaaaa;fill-opacity:1;fill-rule:nonzero;stroke:none" /><path
       d="M 143.751,-288.4346 C 144.7588,-288.6641 144.7227,-289.0098 145.7725,-289.0098 L 146.9229,-289.0098 C 149.3564,-289.0098 153.7109,-284.4619 156.4355,-283.834 L 157.3008,-289.8721 C 157.5342,-292.6563 158.6211,-296.4023 160.4727,-297.6377 C 162.0225,-298.377 163.9375,-297.4268 163.9375,-295.625 L 163.9375,-295.3369 C 163.9375,-294.207 162.6982,-294.207 162.0879,-293.1504 C 161.6025,-292.3174 161.4424,-291.1318 161.2158,-290 C 160.9365,-288.6104 160.2646,-283.9023 160.1875,-282.9668 C 159.4893,-281.5195 158.9424,-279.8008 156.7275,-279.8008 L 155.8584,-279.8008 C 153.8643,-279.8008 149.624,-283.4355 147.7881,-284.4072 C 147.2607,-284.8604 146.7617,-285.2676 145.7725,-285.2676 L 145.4795,-285.2676 C 144.1338,-285.2676 143.4629,-282.9912 143.4629,-281.5293 C 143.4629,-279.002 149.2959,-274.0508 151.8213,-274.0508 L 153.5557,-274.0508 L 153.251,-274.1992 L 154.6943,-277.0752 L 154.9971,-276.9258 C 156.0537,-276.2188 157.165,-275.6816 157.3008,-274.0508 L 156.7275,-272.3203 C 155.8545,-271.0303 154.5752,-270.3105 152.4023,-270.3105 L 151.248,-270.3105 C 147.6807,-270.3105 140.0068,-277.0547 140.0068,-281.2383 L 140.0068,-281.8164 C 140.0068,-285.0488 142.3877,-286.5752 143.751,-288.4346"
       id="path2569"
       style="fill:#aaaaaa;fill-opacity:1;fill-rule:nonzero;stroke:none" /><path
       d="M 284.2549,-109.8105 L 268.3076,-104.3145 L 266.2842,-103.7393 L 261.6982,-102.2324 L 277.2432,-85.6172 L 278.9717,-83.8926 L 279.8467,-82.6582 L 253.8857,-79.5752 L 252.4502,-79.2852 L 247.2412,-78.8867 L 264.2705,-55.6982 L 265.999,-53.3984 L 268.3018,-49.9263 L 238.3193,-58.8604 L 236.8799,-59.4385 L 232.8604,-60.6714 L 238.6084,-37.8628 L 239.4717,-34.4067 L 240.2373,-30.5249 L 213.8096,-48.2207 L 212.1104,-49.4111 L 195.9365,-22.3276 L 193.7627,-18.6816 L 193.6592,-18.3369 L 171.4238,-40.7378 L 168.9033,-43.3955 L 160.1807,-18.5864 L 158.5537,-14.1733 L 139.9785,-49.7583 C 131.8115,-46.8638 101.1553,-35.6196 101.1553,-35.6196 L 105.2217,-73.9434 L 68.291,-90.4404 L 71.3809,-93.3848 L 91.4014,-110.2061 L 90.1182,-111.5098 L 60.9951,-137.1592 L 64.75,-137.6895 C 64.75,-137.6895 70.2168,-138.3691 73.9775,-138.9668 C 77.7197,-139.5664 84.0947,-146.2393 84.4854,-151.0947 C 84.4424,-151.1318 84.3955,-151.1719 84.3525,-151.209 C 84.3525,-153.9189 83.2939,-156.7949 81.7588,-157.8281 L 60.8916,-189.9766 L 65.0381,-189.4688 L 89.835,-185.7402 L 89.2559,-189.7529 L 85.8408,-216.834 L 110.2461,-210.8164 L 111.458,-215.0742 L 115.7822,-228.8809 C 115.7949,-228.8838 115.8066,-228.8867 115.8184,-228.8887 L 121.2588,-245.5664 L 121.792,-245.5518 L 122.124,-244.9883 L 129.0459,-237.2236 L 135.3115,-230.8945 C 135.3369,-230.8945 135.3594,-230.8945 135.3857,-230.8945 L 138.8164,-227.1855 L 141.7334,-230.6094 L 141.7646,-230.6113 L 168.8955,-259.8721 L 176.8633,-220.4795 L 207.415,-236.9297 L 210.9268,-207.5908 L 213.2373,-207.6191 L 249.71,-205.4941 L 237.4326,-184.4551 L 265.7119,-188.3184 L 266.6338,-188.2803 L 250.7197,-164.1533 L 247.2998,-159.2334 L 279.5479,-140.2773 L 280.9912,-138.8379 L 261.9639,-127.041 L 257.7295,-124.5957 L 281.2803,-111.5098 L 284.2549,-109.8105 M 189.5928,-39.5933 L 193.1006,-45.6021 L 181.3926,-45.4536 L 189.5928,-39.5933 M 129.0459,-63.7554 L 121.5479,-70.3701 L 119.1094,-72.3525 L 116.624,-58.9136 L 129.0459,-63.7554 M 103.9619,-89.0654 L 99.0605,-98.8535 C 99.0605,-92.0244 91.6436,-90.0918 103.9619,-89.0654 M 128.9727,-216.7227 C 128.2939,-217.665 127.0889,-220.0703 126.4443,-220.5391 L 125.7656,-214.7949 C 128.0967,-214.8359 130.4238,-214.707 128.9727,-216.7227 M 163.4492,-232.585 C 163.4443,-232.5957 152.8701,-220.3418 152.8701,-220.3418 L 164.7998,-220.5146 L 163.4492,-232.585 M 220.9502,-195.4512 L 224.6963,-190.8506 L 227.6436,-196.1709 L 220.9502,-195.4512 M 240.6279,-115.8223 C 240.6279,-130.9971 234.1807,-147.7305 228.5166,-158.1123 C 222.8506,-168.4941 216.8721,-174.7422 207.8252,-183.8691 C 205.0557,-186.3887 202.29,-188.4434 199.5654,-190.5039 C 196.5986,-192.7578 193.5635,-194.5527 190.2646,-196.4668 C 183.8213,-200.1992 176.7998,-203.4922 168.7188,-205.4629 C 161.9629,-207.1172 148.96,-208.9648 141.3799,-207.0781 C 137.3564,-206.0801 132.6104,-205.4629 129.335,-203.8486 C 127.2646,-202.8281 120.8867,-199.8467 119.8203,-198.3867 C 113.1807,-194.8828 107.0381,-186.1152 103.6709,-179.1152 C 101.4287,-176.5342 98.1924,-162.4277 98.1924,-156.959 L 98.1924,-149.4805 L 98.9922,-143.1172 C 98.9951,-143.1143 99.0068,-143.1035 99.0068,-143.1035 C 99.0303,-142.8271 101.1475,-132.4883 101.2139,-132.1426 C 101.9492,-128.3604 105.1162,-120.8809 106.3643,-118.2207 C 108.6729,-113.2861 113.0459,-104.917 119.1924,-97.4258 C 125.3369,-89.9346 131.8662,-83.1934 141.1514,-76.6934 C 148.6846,-71.4219 163.2607,-64.2705 170.5654,-62.8877 C 177.8662,-61.5044 191.7354,-60.8604 199.1084,-61.7397 C 206.4795,-62.6182 215.4717,-67.5566 219.8115,-70.4258 C 223.2646,-72.708 232.4834,-81.8984 233.4189,-85.9053 C 237.5107,-90.6025 240.6279,-104.9688 240.6279,-114.3838 L 240.6279,-115.8223 z"
       id="path2571"
       style="fill:#ecec0e;fill-opacity:1;fill-rule:evenodd;stroke:none" /><path
       d="M 48.0264,-197.2363 C 49.4863,-198.2148 52.9277,-202.5566 54.5859,-204.2148 C 56.917,-206.5391 59.2158,-208.5596 61.502,-210.8301 C 65.1035,-214.418 72.6992,-219.7725 77.5342,-222.1641 C 83.9072,-225.3281 110.4844,-236.0703 118.376,-236.0703 L 129.0459,-237.2236 L 147.498,-236.6475 C 151.7236,-236.6475 157.6025,-235.7764 161.5635,-235.1465 C 164.6348,-234.6621 172.1553,-232.3828 174.3115,-232.334 L 187.5771,-226.291 C 189.5928,-224.543 192.5576,-223.1035 194.7197,-221.0498 C 196.9463,-218.9248 198.8584,-216.8828 201.0557,-214.7139 C 204.3115,-211.498 209.9756,-204.6514 212.4307,-200.7539 C 215.6807,-195.5938 218.9912,-190.2129 220.9893,-183.9688 C 222.6924,-178.6514 225.2002,-169.5664 225.3447,-163.0049 L 225.7021,-157.542 L 225.6377,-149.1943 C 225.6377,-141.4111 224.751,-134.4453 223.4482,-127.7852 C 222.1279,-121.0488 220.1084,-115.1777 218.7139,-109.2051 C 218.1611,-108.1602 217.0186,-104.6025 215.8311,-104.6025 L 214.1006,-104.6025 C 207.0068,-104.6025 197.9287,-106.75 191.3525,-107.7998 C 184.0596,-108.9648 176.8467,-110.5986 169.8203,-112.2051 C 163.0303,-113.75 155.3545,-115.418 149.2275,-117.5498 C 145.9951,-118.6699 142.5283,-119.5684 139.3877,-120.6699 C 137.6279,-121.29 131.3311,-124.0674 130.1963,-124.168 C 129.7061,-124.5918 129.6934,-124.7402 128.7539,-124.7402 C 127.7031,-124.7402 121.5156,-108.3652 120.9697,-106.043 L 118.9541,-97.6982 C 117.9258,-93.2891 115.0361,-66.3428 111.458,-66.916 L 104.5342,-67.7803 L 101.1865,-68.1133 L 102.8057,-74.9707 C 103.6162,-76.6602 104.3818,-80.9238 104.9385,-83.2012 C 105.4229,-85.1758 106.7998,-88.7266 107.6162,-90.6016 C 108.4189,-92.4512 113.3955,-104.1953 113.4756,-105.1787 L 115.7822,-110.3555 C 117.0879,-112.8262 118.0254,-115.7344 119.041,-118.6123 C 119.8984,-121.0527 121.9814,-125.1436 122.4131,-126.7578 C 120.5225,-127.1934 117.4502,-128.7695 114.7969,-129.5117 C 112.751,-130.0918 108.8359,-131.4766 106.8428,-131.6484 L 101.0771,-133.0801 L 75.1279,-139.1279 L 66.4785,-141.999 C 62.5859,-144.4658 55.6064,-145.7256 52.6377,-149.7705 C 55.0791,-153.4063 56.8535,-159.8145 60.71,-161.8564 C 71.8994,-161.8564 76.9688,-155.1064 84.3525,-151.209 C 87.6729,-148.3311 94.1709,-143.7129 99.0605,-142.5771 C 102.5146,-140.7539 108.9326,-138.668 112.9854,-137.1973 C 115.3018,-136.3574 117.9092,-135.1797 120.1045,-134.5225 C 124.0791,-133.3301 123.7314,-133.3223 125.5859,-136.8232 L 126.7373,-139.4121 C 128.3779,-140.6133 131.2998,-150.3184 132.2451,-153.1904 C 133.8477,-158.0303 134.6396,-163.418 135.8994,-168.5293 C 137.2764,-174.0938 142.2354,-195.6426 146.0566,-196.6621 C 147.7295,-195.2109 152.3965,-193.9629 152.3965,-191.1934 L 152.3965,-190.0449 C 152.3965,-181.8359 147.6553,-165.2822 145.3564,-158.5205 C 143.9541,-154.3848 141.2637,-149.124 139.3262,-145.2617 C 137.1143,-140.8477 135.0537,-136.4873 132.792,-132.2188 C 134.6602,-128.7002 161.2227,-123.2676 168.251,-123.2988 C 175.6514,-123.334 183.0576,-123.3008 190.4541,-123.3008 C 197.6787,-123.3008 204.5439,-122.1543 211.5068,-122.1543 L 212.9443,-122.1543 C 214.2354,-122.1543 214.3877,-125.9629 214.3877,-127.3301 C 214.3877,-130.0029 214.9658,-131.584 214.9658,-134.8086 C 214.9658,-137.8096 215.2549,-139.6943 215.251,-142.5771 C 215.251,-147.7793 214.7158,-153.1777 214.3877,-157.8223 C 213.8311,-165.6758 210.8955,-178.3418 208.042,-183.7148 C 206.3096,-191.1582 195.9287,-204.9561 190.8232,-209.6836 C 186.9951,-213.2236 183.5508,-216.5957 178.8311,-219.291 C 175.3193,-221.3008 168.2334,-225.6455 164.2188,-226.582 L 160.7627,-227.4414 L 159.3193,-227.7305 L 141.7334,-230.6094 L 135.3857,-230.8945 C 126.4658,-230.8945 122.8564,-230.5254 115.7822,-228.8809 C 110.8799,-227.7402 98.5264,-223.0781 95.5996,-220.5391 L 88.1025,-216.2246 L 86.0811,-215.0742 L 64.1729,-202.1289 C 57.793,-197.8652 55.293,-194.8496 50.8564,-188.6592 C 48.5117,-185.3887 42.6465,-174.9063 41.6816,-170.7695 C 39.5439,-167.6973 35.626,-148.0352 35.626,-141.999 L 35.626,-129.0547 C 35.626,-118.9688 40.1143,-106.5313 42.6035,-98.3291 C 45.4824,-88.8281 50.4697,-81.1143 55.9277,-73.9385 C 60.9854,-67.2754 67.9902,-59.8989 75.3164,-55.5952 C 81.1572,-52.1689 93.8564,-45.0562 102.5195,-45.0562 L 111.1611,-44.0977 L 112.3232,-44.1875 C 124.8037,-44.1875 134.6299,-47.8101 143.9482,-51.1851 C 148.9766,-53.0034 167.7588,-60.459 170.5654,-62.8877 L 174.3115,-64.9028 C 175.6934,-65.2251 183.2188,-70.2461 184.333,-71.3027 C 186.7314,-73.5723 190.3584,-76.96 191.8975,-79.8623 L 199.3955,-90.5059 L 200.8389,-89.9346 C 203.7139,-87.9375 213.8096,-86.0186 213.8096,-81.5879 L 213.8096,-80.7256 C 213.8096,-79.5752 213.208,-78.1055 212.9443,-76.9873 C 212.3447,-74.4102 208.665,-70.0498 206.9268,-68.3203 C 205.2529,-66.6504 199.9756,-62.917 199.1084,-61.7397 C 197.1982,-60.7349 195.1436,-59.2725 193.2861,-58.0518 C 191.3564,-56.7793 189.1885,-55.8413 187.2295,-54.605 C 184.1934,-52.6968 178.0674,-49.5103 174.6357,-48.1797 C 167.1123,-45.2627 155.1807,-39.7944 145.7666,-39.0112 L 133.3701,-37.8628 L 109.4395,-37.8628 C 78.7188,-37.8628 65.0049,-52.6777 52.3525,-70.6602 C 47.0459,-78.2129 39.1543,-89.9805 35.957,-99.1807 C 34.0361,-104.7168 31.668,-109.4658 30.2656,-115.9395 C 29.085,-121.3789 26.9766,-128.9209 26.9766,-135.0996 L 26.9766,-144.0137 C 26.9766,-151.1406 31.3955,-169.7959 33.8457,-174.2744 C 36.208,-178.6055 37.3838,-182.1924 40.1826,-186.3633 C 41.1807,-187.8516 47.9189,-196.9434 48.0264,-197.2363"
       id="path2573"
       style="fill:#000000;fill-opacity:1;fill-rule:evenodd;stroke:none" /><path
       d="M 209.7764,-249.3057 C 209.7764,-249.9717 209.5752,-250.166 208.9072,-250.166 C 206.9893,-250.166 205.1631,-248.6992 205.1631,-246.4287 C 206.5752,-246.4629 209.7764,-246.8008 209.7764,-248.1563 L 209.7764,-249.3057 M 204.8721,-238.9512 C 204.9424,-241.9629 206.6104,-240.5488 207.1729,-242.75 L 202.5674,-242.4014 C 199.5381,-242.1367 199.1748,-244.7705 199.6162,-246.7813 C 200.3018,-249.8516 201.5596,-249.9609 202.8564,-251.8984 C 204.3662,-252.9033 206.5342,-254.7705 208.9072,-254.7705 L 210.3506,-254.7705 C 212.9561,-254.7705 214.9658,-252.7715 214.9658,-250.166 L 214.9658,-249.8848 C 214.9658,-247.7061 214.5166,-245.5879 213.8096,-244.1289 L 209.4873,-238.375 C 208.7881,-238.0391 208.2236,-237.7988 207.1787,-237.7988 L 206.3135,-237.7988 C 205.4912,-237.7988 205.3115,-238.4512 204.8721,-238.9512"
       id="path2575"
       style="fill:#000000;fill-opacity:1;fill-rule:evenodd;stroke:none" /><path
       d="M 241.2061,-249.8848 C 241.2061,-246.8848 242.4658,-244.9365 245.2412,-244.7041 C 245.5225,-245.7539 246.3916,-246.2969 246.3916,-247.002 L 246.3916,-249.0195 C 246.3916,-252.417 245.501,-253.8457 244.9541,-256.2109 C 243.6201,-255.9033 241.2061,-253.2217 241.2061,-252.1836 L 241.2061,-249.8848 M 237.1689,-255.0625 C 238.2803,-256.3379 238.4639,-257.1758 239.9717,-258.3076 C 241.6846,-259.5967 242.3564,-259.6162 243.7979,-260.5234 C 250.8271,-260.5234 248.7744,-255.0713 250.833,-250.876 L 256.4873,-255.3486 L 260.8115,-259.9482 C 261.5889,-261.4238 262.542,-263.1797 262.542,-265.418 L 262.542,-267.1416 C 262.542,-270.375 258.1611,-273.4717 255.042,-273.4717 L 254.1787,-273.4717 C 252.167,-273.4717 249.2178,-273.377 247.4189,-273.0225 C 246.2041,-272.7813 245.0654,-272.8105 244.7002,-271.9922 C 244.3389,-271.1816 244.2002,-269.7324 243.2217,-269.7324 C 242.2197,-269.7324 240.6279,-272.0293 240.6279,-273.1855 L 240.6279,-274.0479 C 240.6279,-276.1055 242.1279,-275.9766 243.2217,-276.9229 L 248.124,-277.499 L 250.1396,-277.499 C 259.8623,-277.499 267.1533,-275.2197 267.1533,-265.7031 L 267.1533,-265.418 C 267.1533,-260.6309 263.6807,-255.7012 261.1748,-253.2568 C 258.8389,-250.9746 252.8037,-246.9551 251.2939,-244.7041 C 250.8877,-244.0996 249.2412,-242.1182 248.4111,-242.1182 L 246.1025,-242.1182 C 245.9072,-241.2578 245.2529,-240.1016 244.374,-240.1016 C 241.4463,-240.1016 238.6943,-243.1807 237.7393,-245.2734 C 236.001,-249.0625 236.2002,-250.917 237.1689,-255.0625"
       id="path2577"
       style="fill:#000000;fill-opacity:1;fill-rule:evenodd;stroke:none" /><path
       d="M 63.0176,-262.2539 L 62.1504,-262.2539 C 61.8057,-261.7334 59.8467,-259.8906 59.8467,-259.6641 C 59.8467,-257.043 65.5371,-250.166 67.9219,-250.166 L 68.4941,-250.166 C 69.8535,-250.166 69.9902,-253.209 69.3594,-254.1973 C 69.3594,-258.1758 67.1377,-262.2539 63.0176,-262.2539 M 34.7637,-252.1836 L 31.5918,-250.7461 C 29.9707,-249.6602 28.7051,-247.6885 28.7051,-244.9883 L 28.7051,-242.4014 C 28.7051,-238.0664 32.4209,-230.8203 34.5439,-228.375 C 36.1729,-226.499 37.5684,-224.8457 39.8555,-223.6035 C 41.3125,-222.8145 45.2051,-221.1133 47.1582,-221.1133 L 48.8906,-221.1133 L 50.043,-223.9902 C 52.9004,-225.8984 51.9023,-224.6758 55.085,-225.5801 C 56.6758,-226.0313 56.7764,-229.251 56.0977,-230.3203 C 56.0977,-235.7227 51.6885,-241.7676 48.8174,-244.6309 C 45.3633,-248.0801 41.5195,-252.1836 34.7637,-252.1836 M 27.8389,-254.1973 C 28.9805,-254.501 30.5635,-256.1738 32.4141,-256.8281 C 34.0508,-257.4063 36.2061,-257.6484 38.5107,-257.6484 C 41.1641,-257.6484 45.5469,-255.2715 47.3301,-254.082 C 49.9316,-252.3574 51.7627,-249.8008 53.7939,-248.4434 L 53.2168,-257.3604 C 53.2168,-259.667 51.0176,-268.1221 50.2988,-270.2754 C 49.4287,-272.9063 47.7344,-280.2051 47.7344,-283.54 L 47.7344,-283.8301 C 47.7344,-285.8984 48.7725,-287.5801 50.043,-288.4326 L 51.4844,-288.7207 C 53.9209,-286.6064 55.207,-266.1797 57.8262,-264.2617 C 59.2471,-265.2119 61.8184,-268.0059 63.8799,-268.0059 L 66.7646,-268.0059 C 70.3477,-268.0059 74.5498,-259.377 74.5498,-254.7705 L 74.5498,-253.623 C 74.5498,-251.582 73.7852,-250.3926 73.3975,-248.7324 C 72.5781,-247.792 70.3535,-244.7041 68.7871,-244.7041 L 66.7646,-244.7041 C 65.4521,-244.7041 63.9092,-246.0918 62.4424,-246.4287 L 59.1895,-249.541 L 58.9814,-249.3057 L 58.9814,-248.4434 C 58.9814,-246.6367 57.4775,-245.9961 55.8105,-245.8555 C 56.0977,-244.7705 58.5293,-240.877 59.2715,-238.9551 C 59.9814,-237.1201 61,-233.1113 61,-230.6094 L 61,-226.582 C 61,-221.3262 56.7539,-220.6465 54.9443,-217.9492 C 53.1357,-216.627 51.4844,-214.4961 48.0264,-214.4961 L 46.8691,-214.4961 C 41.0137,-214.4961 33.9092,-220.627 30.9365,-223.9141 C 27.4092,-227.8184 24.0947,-235.3867 24.0947,-242.6895 L 24.0947,-244.416 C 24.0947,-249.4043 25.8818,-251.2793 27.8389,-254.1973"
       id="path2579"
       style="fill:#000000;fill-opacity:1;fill-rule:evenodd;stroke:none" /><path
       d="M 80.0313,-265.418 C 80.3877,-264.0879 81.7666,-261.9648 83.4873,-261.9648 L 84.0674,-261.9648 C 85.4277,-261.9648 85.2197,-262.5234 86.374,-262.8281 L 86.374,-263.6914 C 86.374,-264.877 83.8691,-265.9941 82.624,-265.9941 C 81.9014,-265.9941 80.7275,-265.5801 80.0313,-265.418 M 77.7217,-260.5234 L 73.9756,-268.0059 L 73.6855,-273.1855 C 74.9395,-278.5449 75.9043,-278.2461 78.2998,-281.8135 C 80.1826,-283.0713 82.4189,-284.6934 85.5088,-284.6934 L 87.8115,-284.6934 C 90.0146,-284.6934 91.5391,-283.998 92.4268,-282.6777 L 92.4268,-281.5264 C 90.4141,-277.7227 86.3916,-281.6191 83.2021,-280.0879 C 80.0752,-279.8281 77.4346,-276.0039 77.4346,-272.6094 C 77.4346,-270.4912 77.7549,-268.1699 79.4521,-267.7168 C 79.7373,-268.793 80.876,-270.3066 82.3369,-270.3066 L 84.6406,-270.3066 C 87.2881,-270.3066 90.1182,-267.7227 90.1182,-264.8408 L 90.1182,-263.9785 C 90.1182,-262.709 89.6934,-261.9268 89.2559,-261.1035 C 88.1279,-259.4209 85.4678,-257.6484 82.624,-257.6484 L 82.3369,-257.6484 C 80.2666,-257.6484 78.9561,-259.6992 77.7217,-260.5234"
       id="path2581"
       style="fill:#000000;fill-opacity:1;fill-rule:evenodd;stroke:none" /><path
       d="M 219.29,-249.8848 L 217.8467,-251.8984 C 216.9678,-255.6689 216.1182,-254.8848 216.1182,-260.8164 L 218.1377,-268.2949 C 220.2412,-270.709 222.7275,-276.6387 227.0752,-276.6387 L 227.3643,-276.6387 C 228.333,-276.6387 229.3818,-276.126 229.3818,-275.2012 L 229.3818,-274.3359 C 229.3818,-273.4131 226.6338,-271.9346 225.9209,-270.8828 C 224.2549,-270.4385 222.2998,-267.2686 221.5928,-265.707 C 220.2236,-262.6836 220.6064,-261.417 220.7373,-257.9395 C 221.0381,-250.0195 227.8447,-250.2949 229.0928,-255.6367 L 229.958,-256.7842 C 230.3779,-258.5938 231.4111,-260.6152 231.8662,-262.9355 C 232.4463,-265.915 232.2354,-266.7734 234.5713,-268.0059 L 236.2881,-268.3613 C 236.833,-267.502 237.1689,-266.75 237.1689,-265.418 C 237.1689,-261.0723 233.8486,-254.877 232.2646,-251.8984 C 231.1318,-250.5938 228.4502,-247.5801 226.208,-247.5801 L 224.4775,-247.5801 C 222.2197,-247.5801 220.6787,-248.9551 219.29,-249.8848"
       id="path2583"
       style="fill:#000000;fill-opacity:1;fill-rule:evenodd;stroke:none" /><path
       d="M 215.5439,-283.2539 L 217.5537,-283.6035 C 218.4092,-282.9736 219.29,-281.7051 219.29,-280.3789 L 219.29,-279.2266 C 219.29,-278.5127 218.3271,-277.8379 218.0107,-276.7656 C 217.749,-275.8643 217.6943,-274.8613 217.4502,-273.873 C 216.9521,-271.9141 216.2979,-270.4258 216.1182,-268.2949 C 215.4521,-267.3379 214.7939,-265.418 213.2373,-265.418 C 212.0381,-265.418 210.0635,-266.291 210.0635,-267.4307 C 210.0635,-268.0156 211.7627,-274.874 212.0791,-276.0703 C 212.9307,-279.3125 212.8662,-281.8408 215.5439,-283.2539"
       id="path2585"
       style="fill:#000000;fill-opacity:1;fill-rule:evenodd;stroke:none" /><path
       d="M 94.4453,-280.6641 L 95.8867,-285.8408 L 98.7686,-289.0049 C 99.835,-289.0049 100.7881,-289.2617 100.7881,-288.1436 C 100.7881,-284.8887 97.9033,-281.1426 97.9033,-276.6387 L 97.9033,-276.3477 L 98.2207,-272.9004 C 99.5615,-270.8545 100.9541,-265.418 104.5342,-265.418 L 105.4033,-265.418 C 107.6875,-265.418 108.8643,-268.5566 108.8643,-270.8828 C 108.8643,-277.4375 108.001,-278.876 106.8428,-283.8301 L 109.1494,-287.5664 L 110.0146,-287.5664 C 111.9893,-284.6172 113.1865,-280.0645 113.1865,-275.2012 L 113.1865,-273.4717 C 113.1865,-270.3594 112.0547,-267.9707 111.458,-265.418 C 109.6533,-264.0957 108.7725,-260.8164 104.249,-260.8164 L 103.6709,-260.8164 C 98.0771,-260.8164 94.1563,-268.4238 94.1563,-274.3359 L 94.1563,-276.3477"
       id="path2587"
       style="fill:#000000;fill-opacity:1;fill-rule:evenodd;stroke:none" /><path
       d="M 186.1318,-282.9668 L 187.8623,-284.1162 L 189.0166,-284.1162 C 190.3936,-282.0684 190.3584,-277.209 193.6279,-277.209 C 195.5576,-277.209 197.7764,-278.9531 198.5283,-280.3789 L 199.9736,-284.1162 C 200.5947,-286.7773 200.1689,-286.5645 201.9932,-288.1436 C 202.999,-288.377 202.9619,-288.7207 204.0107,-288.7207 C 205.1182,-288.7207 206.0303,-286.6113 206.0303,-285.5566 L 206.0303,-284.9785 C 206.0303,-280.502 203.0498,-278.207 201.417,-275.7754 C 198.5303,-273.8506 197.0654,-271.8545 192.1865,-271.7451 C 191.8213,-271.9785 189.874,-272.6094 189.3057,-272.6094 C 187.7412,-272.6094 187.0205,-262.7119 186.5977,-260.6367 C 186.2109,-258.7246 185.79,-256.3555 185.3428,-254.7051 C 184.8467,-252.8926 183.9619,-251.125 183.5391,-249.3057 C 182.7803,-248.4336 181.5283,-246.1445 180.0771,-246.1445 C 178.5879,-246.1445 177.7227,-246.876 177.1943,-247.8691 C 178.5908,-250.499 181.0645,-261.4102 181.9209,-265.3047 C 182.585,-268.3135 182.8809,-271.6484 183.5986,-274.5566 C 183.9102,-275.8184 184.1514,-277.8662 184.3701,-279.2598 C 184.875,-282.4561 184.8369,-281.0332 186.1318,-282.9668"
       id="path2589"
       style="fill:#000000;fill-opacity:1;fill-rule:evenodd;stroke:none" /><path
       d="M 161.624,-280.3789 L 161.0469,-282.9668 C 161.0469,-289.7324 163.4482,-289.8281 166.8154,-292.748 C 168.2334,-292.8623 167.8682,-293.3213 169.1221,-293.3213 L 171.1406,-293.3213 C 175.5234,-293.3213 177.5205,-290.0127 180.0771,-288.1436 L 180.6553,-286.7041 L 180.6553,-285.5566 C 180.1445,-284.793 179.6279,-284.1162 178.3486,-284.1162 L 177.7705,-284.1162 C 175.6826,-284.1162 173.8857,-287.7734 171.4238,-288.4326 C 170.8096,-288.8574 170.4775,-289.0049 169.4102,-289.0049 C 167.0635,-289.0049 165.6611,-285.9043 165.6611,-283.2539 C 165.6611,-281.6797 169.5156,-276.1016 170.4824,-274.834 C 173.4258,-270.9834 176.6172,-272.3125 176.6172,-268.0059 C 170.9932,-266.7012 170.5459,-266.0928 166.9248,-270.9941 C 165.5371,-272.8711 162.1602,-278.0996 161.624,-280.3789"
       id="path2591"
       style="fill:#000000;fill-opacity:1;fill-rule:evenodd;stroke:none" /><path
       d="M 116.6475,-278.0762 C 116.3555,-279.1602 114.917,-281.1494 114.917,-282.3906 L 114.917,-284.4014 C 114.917,-286.1416 115.7393,-287.0195 116.0713,-288.4326 L 118.9541,-291.8809 C 120.3037,-292.5986 121.8818,-293.8994 123.8564,-293.8994 L 125.0068,-293.8994 C 128.9443,-293.8994 133.9473,-291.8145 133.9473,-287.8574 C 133.4531,-286.9229 132.4434,-286.1289 131.0625,-286.1289 C 129.1064,-286.1289 127.54,-289.2949 123.5645,-289.2949 C 121.1025,-289.2393 119.7744,-286.8164 119.5801,-284.6328 C 119.3818,-282.3701 121.3496,-280.2646 122.4854,-279.0117 C 124.2861,-277.043 124.8525,-276.4883 126.8115,-274.6953 C 129.416,-272.3125 130.2002,-274.3877 132.5059,-271.7451 L 132.5059,-270.0225 C 127.2959,-267.2715 127.626,-267.4492 123.1611,-270.7656 C 120.4307,-272.7969 118.8037,-275.5977 116.6475,-278.0762"
       id="path2593"
       style="fill:#000000;fill-opacity:1;fill-rule:evenodd;stroke:none" /><path
       d="M 140.29,-284.9785 C 141.2969,-285.21 141.2607,-285.5566 142.3086,-285.5566 L 143.46,-285.5566 C 145.8926,-285.5566 150.249,-281.0088 152.9736,-280.3789 L 153.8379,-286.417 C 154.0713,-289.2051 155.1592,-292.9492 157.0107,-294.1846 C 158.5596,-294.9248 160.4736,-293.9717 160.4736,-292.1709 L 160.4736,-291.8809 C 160.4736,-290.7549 159.2373,-290.7549 158.626,-289.6953 C 158.1396,-288.8633 157.9805,-287.6758 157.7529,-286.5469 C 157.4756,-285.1553 156.8018,-280.4473 156.7256,-279.5127 C 156.0273,-278.0664 155.4795,-276.3477 153.2646,-276.3477 L 152.3965,-276.3477 C 150.4014,-276.3477 146.1611,-279.9824 144.3252,-280.9531 C 143.7979,-281.4063 143.3008,-281.8135 142.3086,-281.8135 L 142.0166,-281.8135 C 140.6709,-281.8135 140.001,-279.5381 140.001,-278.0762 C 140.001,-275.5488 145.833,-270.5977 148.3604,-270.5977 L 150.0928,-270.5977 L 149.7881,-270.7461 L 151.2314,-273.6221 L 151.5352,-273.4717 C 152.5918,-272.7637 153.7041,-272.2285 153.8379,-270.5977 L 153.2646,-268.8652 C 152.3916,-267.5762 151.1123,-266.8574 148.9404,-266.8574 L 147.7842,-266.8574 C 144.2188,-266.8574 136.5439,-273.6016 136.5439,-277.7852 L 136.5439,-278.3633 C 136.5439,-281.5957 138.9268,-283.1211 140.29,-284.9785"
       id="path2595"
       style="fill:#000000;fill-opacity:1;fill-rule:evenodd;stroke:none" /></g></svg>