<?xml version="1.0" encoding="UTF-8" standalone="no"?>
<!-- Created with Inkscape (http://www.inkscape.org/) -->
<svg
   xmlns:svg="http://www.w3.org/2000/svg"
   xmlns="http://www.w3.org/2000/svg"
   version="1.0"
   width="389.76318"
   height="389.76318"
   id="svg2403"
   xml:space="preserve"><defs
     id="defs2406" /><g
     transform="scale(1.25,-1.25)"
     id="g2412"><path
       d="M 297.6377,-125.7656 L 280.0684,-119.6787 L 277.8418,-119.041 L 272.7842,-117.3735 L 289.916,-98.9702 L 291.8174,-97.0591 L 292.7813,-95.6938 L 264.1816,-92.2788 L 262.5967,-91.9575 L 256.8574,-91.5166 L 275.6201,-65.833 L 277.5273,-63.2856 L 280.0605,-59.4409 L 247.0283,-69.335 L 245.4404,-69.9766 L 241.0137,-71.3408 L 247.3467,-46.0796 L 248.2979,-42.252 L 249.1416,-37.9521 L 220.0234,-57.5513 L 218.1494,-58.8701 L 200.3301,-28.873 L 197.9365,-24.8354 L 197.8242,-24.4526 L 173.3262,-49.2632 L 170.5469,-52.208 L 160.9355,-24.728 L 159.1445,-19.8423 L 138.6797,-59.2539 C 129.6802,-56.0479 95.9038,-43.5952 95.9038,-43.5952 L 100.3843,-86.04 L 59.6934,-104.313 L 63.0972,-107.5723 L 85.1567,-126.2046 L 83.7427,-127.6475 L 51.6553,-156.0576 L 55.792,-156.6426 C 55.792,-156.6426 61.8174,-157.3955 65.96,-158.0615 C 70.083,-158.7227 77.1055,-166.1133 77.5366,-171.4922 C 77.4897,-171.5332 77.4375,-171.5771 77.3916,-171.6182 C 77.3916,-174.6191 76.2236,-177.8057 74.5327,-178.9482 L 51.5405,-214.5566 L 56.1089,-213.9922 L 83.4326,-209.8623 L 82.7925,-214.3076 L 79.0303,-244.3027 L 105.9189,-237.6377 L 107.2534,-242.3535 L 112.0195,-257.6455 C 112.0332,-257.6484 112.0464,-257.6504 112.0605,-257.6533 L 118.0527,-276.125 L 118.6406,-276.1084 L 119.0059,-275.4863 L 126.6309,-266.8838 L 133.5352,-259.874 C 133.5635,-259.874 133.5894,-259.874 133.6177,-259.874 L 137.3979,-255.7646 L 140.6099,-259.5576 L 140.6455,-259.5615 L 170.5391,-291.9688 L 179.3164,-248.3398 L 212.9766,-266.5596 L 216.8496,-234.0645 L 219.3936,-234.0967 L 259.5781,-231.7422 L 246.0527,-208.4404 L 277.2109,-212.7188 L 278.2236,-212.6777 L 260.6885,-185.9531 L 256.9229,-180.5039 L 292.4531,-159.5088 L 294.0439,-157.9141 L 273.0781,-144.8501 L 268.4111,-142.1421 L 294.3623,-127.6475 L 297.6377,-125.7656 M 193.3428,-47.9951 L 197.2061,-54.6519 L 184.3105,-54.4863 L 193.3428,-47.9951 M 126.6309,-74.7578 L 118.3711,-82.0835 L 115.686,-84.2793 L 112.9468,-69.394 L 126.6309,-74.7578 M 98.9966,-102.79 L 93.5957,-113.6309 C 93.5957,-106.0684 85.4229,-103.9272 98.9966,-102.79 M 126.5527,-244.1797 C 125.8037,-245.2197 124.4771,-247.8857 123.7651,-248.4043 L 123.019,-242.0439 C 125.5879,-242.0889 128.1519,-241.9453 126.5527,-244.1797 M 164.5381,-261.748 C 164.5332,-261.7568 152.8828,-248.1855 152.8828,-248.1855 L 166.0254,-248.377 L 164.5381,-261.748 M 227.8926,-220.6201 L 232.0186,-215.5205 L 235.2656,-221.4141 L 227.8926,-220.6201 M 249.5703,-132.4253 C 249.5703,-149.2324 242.4688,-167.7637 236.2256,-179.2607 C 229.9863,-190.7617 223.4004,-197.6816 213.4307,-207.79 C 210.3789,-210.582 207.3291,-212.8564 204.334,-215.1406 C 201.0635,-217.6357 197.7188,-219.624 194.0811,-221.7441 C 186.9834,-225.877 179.2471,-229.5254 170.3438,-231.708 C 162.9004,-233.5381 148.5742,-235.585 140.2207,-233.4971 C 135.7886,-232.3916 130.561,-231.708 126.9521,-229.9199 C 124.6719,-228.7891 117.6431,-225.4873 116.4678,-223.8691 C 109.1538,-219.9902 102.3848,-210.2764 98.6753,-202.5234 C 96.2031,-199.667 92.6387,-184.043 92.6387,-177.9854 L 92.6387,-169.7031 L 93.521,-162.6553 C 93.5234,-162.6514 93.5371,-162.6416 93.5371,-162.6416 C 93.561,-162.333 95.8931,-150.8838 95.9683,-150.499 C 96.7769,-146.3115 100.2686,-138.0273 101.6426,-135.0801 C 104.186,-129.6162 109.0054,-120.3462 115.7749,-112.0488 C 122.5464,-103.752 129.7393,-96.2871 139.9702,-89.0864 C 148.2686,-83.248 164.334,-75.3281 172.3779,-73.7959 C 180.4229,-72.2637 195.7021,-71.5508 203.8232,-72.5244 C 211.9473,-73.499 221.8574,-78.9673 226.6387,-82.1455 C 230.4404,-84.6738 240.5986,-94.8521 241.6279,-99.29 C 246.1396,-104.4927 249.5703,-120.4014 249.5703,-130.8306 L 249.5703,-132.4253 z"
       id="path2414"
       style="fill:#ecec0e;fill-opacity:1;fill-rule:evenodd;stroke:none" /><path
       d="M 37.3662,-222.5947 C 38.9756,-223.6797 42.7686,-228.4883 44.5928,-230.3252 C 47.1626,-232.9004 49.6938,-235.1367 52.2139,-237.6533 C 56.1826,-241.627 64.5508,-247.5566 69.8774,-250.2061 C 76.9004,-253.71 106.1831,-265.6084 114.8774,-265.6084 L 126.6309,-266.8838 L 146.9629,-266.2461 C 151.6182,-266.2461 158.0967,-265.2822 162.459,-264.5859 C 165.8428,-264.0498 174.1299,-261.5215 176.5049,-261.4697 L 191.123,-254.7744 C 193.3428,-252.8379 196.6113,-251.2461 198.9912,-248.9717 C 201.4443,-246.6172 203.5518,-244.3545 205.9697,-241.9541 C 209.5586,-238.3916 215.8018,-230.8086 218.5059,-226.4922 C 222.0859,-220.7773 225.7344,-214.8164 227.9336,-207.9004 C 229.8096,-202.0127 232.5732,-191.9482 232.7314,-184.6826 L 233.125,-178.6318 L 233.0527,-169.3857 C 233.0527,-160.7656 232.0801,-153.0508 230.6426,-145.6748 C 229.1865,-138.2139 226.9639,-131.7104 225.4268,-125.0957 C 224.8164,-123.937 223.5586,-119.998 222.251,-119.998 L 220.3447,-119.998 C 212.5313,-119.998 202.5283,-122.3755 195.2813,-123.5386 C 187.2441,-124.8291 179.2988,-126.6396 171.5586,-128.4175 C 164.0771,-130.1313 155.6201,-131.9771 148.8701,-134.3374 C 145.3076,-135.5801 141.4883,-136.5737 138.0269,-137.7939 C 136.0884,-138.4805 129.1484,-141.5576 127.9004,-141.6689 C 127.3589,-142.1362 127.3457,-142.3032 126.3101,-142.3032 C 125.1533,-142.3032 118.3364,-124.165 117.7354,-121.5928 L 115.5137,-112.3511 C 114.3809,-107.4678 111.1973,-77.623 107.2534,-78.2598 L 99.6274,-79.2148 L 95.938,-79.584 L 97.7207,-87.1797 C 98.6157,-89.0493 99.457,-93.7725 100.0718,-96.2949 C 100.606,-98.48 102.1221,-102.415 103.0229,-104.4902 C 103.9053,-106.5396 109.3882,-119.5479 109.4775,-120.6353 L 112.0195,-126.3691 C 113.458,-129.1069 114.4902,-132.3267 115.6094,-135.5161 C 116.5542,-138.2183 118.8481,-142.749 119.3257,-144.5347 C 117.2412,-145.0205 113.8555,-146.7627 110.9336,-147.5879 C 108.6797,-148.2285 104.3662,-149.7637 102.1694,-149.9521 L 95.8174,-151.541 L 67.2275,-158.2383 L 57.6968,-161.4189 C 53.4077,-164.1494 45.7183,-165.5439 42.4478,-170.0244 C 45.1382,-174.0518 47.0933,-181.1504 51.3413,-183.4092 C 63.6689,-183.4092 69.2554,-175.9375 77.3916,-171.6182 C 81.0479,-168.4287 88.207,-163.3164 93.5957,-162.0576 C 97.4028,-160.0381 104.4717,-157.7295 108.936,-156.0986 C 111.4888,-155.1689 114.3613,-153.8652 116.7808,-153.1367 C 121.1602,-151.8174 120.7759,-151.8076 122.8193,-155.6836 L 124.0923,-158.5527 C 125.895,-159.8818 129.1167,-170.6328 130.1572,-173.8125 C 131.9229,-179.1729 132.7964,-185.1406 134.1846,-190.8018 C 135.7031,-196.9648 141.1646,-220.832 145.376,-221.96 C 147.2168,-220.3516 152.3604,-218.9707 152.3604,-215.9023 L 152.3604,-214.6309 C 152.3604,-205.5371 147.1348,-187.2031 144.6025,-179.7148 C 143.0576,-175.1338 140.0942,-169.3105 137.959,-165.0332 C 135.5225,-160.1416 133.2524,-155.3125 130.7603,-150.584 C 132.8184,-146.6875 162.083,-140.6685 169.8271,-140.7046 C 177.9854,-140.7446 186.1426,-140.707 194.292,-140.707 C 202.249,-140.707 209.8174,-139.437 217.4873,-139.437 L 219.0723,-139.437 C 220.4902,-139.437 220.6641,-143.6592 220.6641,-145.1709 C 220.6641,-148.1299 221.2988,-149.8818 221.2988,-153.4541 C 221.2988,-156.7773 221.6143,-158.8652 221.6113,-162.0576 C 221.6113,-167.8184 221.0215,-173.7988 220.6641,-178.9424 C 220.0479,-187.6396 216.8135,-201.6689 213.6689,-207.6191 C 211.7598,-215.8633 200.3203,-231.1455 194.6963,-236.3828 C 190.4795,-240.3027 186.6836,-244.0381 181.4834,-247.0244 C 177.6162,-249.248 169.8086,-254.0605 165.3848,-255.0986 L 161.5781,-256.0488 L 159.9873,-256.3701 L 140.6099,-259.5576 L 133.6177,-259.874 C 123.7896,-259.874 119.8135,-259.4668 112.0195,-257.6455 C 106.6167,-256.3818 93.0059,-251.2188 89.7813,-248.4043 L 81.5215,-243.6279 L 79.2939,-242.3535 L 55.1563,-228.0156 C 48.127,-223.29 45.3721,-219.9521 40.4849,-213.0967 C 37.9023,-209.4746 31.4404,-197.8633 30.3755,-193.2822 C 28.0205,-189.8809 23.7026,-168.1045 23.7026,-161.4189 L 23.7026,-147.0801 C 23.7026,-135.9092 28.6504,-122.1348 31.3916,-113.0508 C 34.5635,-102.5264 40.0586,-93.9829 46.0703,-86.0347 C 51.6431,-78.6558 59.3613,-70.4858 67.4355,-65.7217 C 73.8706,-61.9248 87.8594,-54.0469 97.4077,-54.0469 L 106.9287,-52.9839 L 108.207,-53.0854 C 121.959,-53.0854 132.7861,-57.0962 143.0527,-60.8335 C 148.5918,-62.8506 169.2852,-71.1069 172.3779,-73.7959 L 176.5049,-76.0283 C 178.0283,-76.3872 186.3174,-81.9458 187.5479,-83.1162 C 190.1895,-85.6299 194.1875,-89.3813 195.8818,-92.5967 L 204.1436,-104.3862 L 205.7305,-103.7529 C 208.8994,-101.54 220.0234,-99.4141 220.0234,-94.5083 L 220.0234,-93.5527 C 220.0234,-92.2788 219.3604,-90.6504 219.0723,-89.4121 C 218.4082,-86.5576 214.3545,-81.7285 212.4404,-79.8145 C 210.5967,-77.9634 204.7813,-73.8286 203.8232,-72.5244 C 201.7217,-71.4106 199.459,-69.793 197.4111,-68.4399 C 195.2871,-67.0317 192.8955,-65.9912 190.7363,-64.6226 C 187.3936,-62.5103 180.6426,-58.98 176.8633,-57.5068 C 168.5732,-54.2754 155.4258,-48.2188 145.0547,-47.3506 L 131.397,-46.0796 L 105.0293,-46.0796 C 71.1826,-46.0796 56.0728,-62.4873 42.1318,-82.4043 C 36.2852,-90.7686 27.5908,-103.8037 24.0698,-113.9941 C 21.9512,-120.1235 19.3442,-125.3833 17.7979,-132.5552 C 16.4971,-138.5781 14.1733,-146.9316 14.1733,-153.7744 L 14.1733,-163.6494 C 14.1733,-171.543 19.042,-192.2051 21.7407,-197.1631 C 24.3477,-201.9609 25.6401,-205.9355 28.7256,-210.5537 C 29.8242,-212.2012 37.2476,-222.2695 37.3662,-222.5947"
       id="path2416"
       style="fill:#000000;fill-opacity:1;fill-rule:evenodd;stroke:none" /></g></svg>