<?xml version="1.0" encoding="UTF-8" standalone="no"?>
<!-- Created with Inkscape (http://www.inkscape.org/) -->
<svg
   xmlns:svg="http://www.w3.org/2000/svg"
   xmlns="http://www.w3.org/2000/svg"
   version="1.0"
   width="389.76318"
   height="389.76318"
   id="svg2438"
   xml:space="preserve"><defs
     id="defs2441" /><g
     transform="scale(1.25,-1.25)"
     id="g2447"><path
       d="M 297.6377,-128.0693 L 280.3037,-122.0654 L 278.1055,-121.4385 L 273.1143,-119.793 L 290.0186,-101.6455 L 291.8945,-99.7607 L 292.8496,-98.4141 L 264.625,-95.0479 L 263.0605,-94.7305 L 257.4004,-94.2969 L 275.9141,-68.9678 L 277.7939,-66.457 L 280.2949,-62.6641 L 247.6992,-72.4219 L 246.1348,-73.0547 L 241.7676,-74.3984 L 248.0156,-49.4893 L 248.9521,-45.7148 L 249.7881,-41.4727 L 221.0547,-60.8008 L 219.2061,-62.1006 L 201.624,-32.5205 L 199.2588,-28.5381 L 199.1484,-28.1631 L 174.9736,-52.6289 L 172.2324,-55.5313 L 162.751,-28.4346 L 160.9795,-23.6143 L 140.7886,-62.4795 C 131.9087,-59.3174 98.5815,-47.0391 98.5815,-47.0391 L 103.0049,-88.8955 L 62.8516,-106.9131 L 66.2124,-110.1279 L 87.9771,-128.501 L 86.5815,-129.9248 L 54.9199,-157.9404 L 59.0034,-158.5166 C 59.0034,-158.5166 64.9458,-159.2617 69.0347,-159.916 C 73.103,-160.5684 80.0308,-167.8564 80.458,-173.1631 C 80.4121,-173.2021 80.3579,-173.2441 80.313,-173.2842 C 80.313,-176.2461 79.1626,-179.3877 77.4941,-180.5127 L 54.8066,-215.627 L 59.3149,-215.0723 L 86.2744,-211.0029 L 85.644,-215.3848 L 81.9326,-244.9609 L 108.4653,-238.3877 L 109.7817,-243.0381 L 114.4824,-258.1172 C 114.4966,-258.123 114.5083,-258.125 114.522,-258.1289 L 120.4346,-276.3428 L 121.0186,-276.3232 L 121.377,-275.71 L 128.9014,-267.2314 L 135.7148,-260.3154 C 135.7417,-260.3154 135.7671,-260.3154 135.7939,-260.3154 L 139.5254,-256.2646 L 142.6948,-260.0078 L 142.7295,-260.0098 L 172.2246,-291.9688 L 180.8877,-248.9453 L 214.1025,-266.9092 L 217.9219,-234.8643 L 220.4326,-234.8936 L 260.083,-232.5742 L 246.7373,-209.5977 L 277.4814,-213.8164 L 278.4844,-213.7744 L 261.1797,-187.4219 L 257.4639,-182.0479 L 292.5225,-161.3438 L 294.0947,-159.7705 L 273.4033,-146.8867 L 268.7998,-144.2188 L 294.4053,-129.9248 L 297.6377,-128.0693 M 194.7246,-51.376 L 198.541,-57.9424 L 185.8135,-57.7803 L 194.7246,-51.376 M 128.9014,-77.7686 L 120.752,-84.9922 L 118.1006,-87.1563 L 115.4004,-72.4795 L 128.9014,-77.7686 M 101.6313,-105.4121 L 96.3037,-116.1025 C 96.3037,-108.6426 88.2388,-106.5313 101.6313,-105.4121 M 128.8218,-244.8379 C 128.0845,-245.8672 126.7754,-248.4961 126.0737,-249.0068 L 125.3374,-242.7334 C 127.873,-242.7773 130.3999,-242.6377 128.8218,-244.8379 M 166.3047,-262.1631 C 166.3018,-262.1729 154.8037,-248.792 154.8037,-248.792 L 167.7715,-248.9785 L 166.3047,-262.1631 M 228.8193,-221.6055 L 232.8887,-216.5801 L 236.0938,-222.3926 L 228.8193,-221.6055 M 250.2119,-134.6338 C 250.2119,-151.208 243.2012,-169.4854 237.042,-180.8252 C 230.8848,-192.165 224.3828,-198.9893 214.5508,-208.957 C 211.5361,-211.708 208.5303,-213.9531 205.5723,-216.2031 C 202.3438,-218.665 199.043,-220.624 195.458,-222.7148 C 188.4531,-226.793 180.8174,-230.3906 172.0332,-232.542 C 164.6885,-234.3486 150.5527,-236.3672 142.3115,-234.3057 C 137.938,-233.2158 132.7778,-232.542 129.2158,-230.7793 C 126.9658,-229.6611 120.0317,-226.4082 118.8721,-224.8135 C 111.6548,-220.9844 104.9785,-211.4082 101.3145,-203.7637 C 98.8784,-200.9453 95.3599,-185.54 95.3599,-179.5654 L 95.3599,-171.3965 L 96.2314,-164.4473 C 96.2339,-164.4443 96.2441,-164.4346 96.2441,-164.4346 C 96.27,-164.1299 98.5718,-152.8369 98.646,-152.4609 C 99.4443,-148.3291 102.8862,-140.1602 104.2437,-137.252 C 106.7534,-131.8662 111.5078,-122.7246 118.189,-114.543 C 124.8696,-106.3613 131.9697,-98.999 142.063,-91.8984 C 150.2524,-86.1406 166.1025,-78.3301 174.041,-76.8223 C 181.9795,-75.3096 197.0576,-74.6055 205.0713,-75.5654 C 213.0869,-76.5264 222.8623,-81.9199 227.5811,-85.0537 C 231.335,-87.5459 241.3584,-97.583 242.374,-101.96 C 246.8203,-107.0918 250.2119,-122.7793 250.2119,-133.0625 L 250.2119,-134.6338 z"
       id="path2449"
       style="fill:#aaaaaa;fill-opacity:1;fill-rule:nonzero;stroke:none" /><path
       d="M 40.8208,-223.5547 C 42.4092,-224.623 46.1499,-229.3662 47.9521,-231.1758 C 50.4858,-233.7178 52.9868,-235.9229 55.4717,-238.4033 C 59.3862,-242.3223 67.645,-248.1699 72.9004,-250.7842 C 79.8296,-254.2373 108.7236,-265.9707 117.3037,-265.9707 L 128.9014,-267.2314 L 148.9624,-266.6025 C 153.5562,-266.6025 159.9482,-265.6494 164.2559,-264.9639 C 167.5938,-264.4316 175.7695,-261.9404 178.1123,-261.8887 L 192.5352,-255.2861 C 194.7246,-253.377 197.9512,-251.8076 200.2988,-249.5654 C 202.7236,-247.2441 204.8037,-245.0146 207.1895,-242.6455 C 210.7275,-239.1318 216.8867,-231.6533 219.5547,-227.3975 C 223.0898,-221.7607 226.6855,-215.8857 228.8594,-209.0654 C 230.7109,-203.2568 233.4365,-193.335 233.5967,-186.1689 L 233.9814,-180.2041 L 233.9102,-171.083 C 233.9102,-162.583 232.9512,-154.9756 231.5332,-147.7031 C 230.0957,-140.3447 227.8994,-133.9316 226.3857,-127.4082 C 225.7861,-126.2637 224.543,-122.3799 223.2539,-122.3799 L 221.373,-122.3799 C 213.6611,-122.3799 203.7891,-124.7266 196.6426,-125.8721 C 188.71,-127.1436 180.8711,-128.9297 173.2334,-130.6846 C 165.8467,-132.3721 157.5049,-134.1953 150.8433,-136.5215 C 147.3286,-137.7461 143.5596,-138.7275 140.1455,-139.9287 C 138.2334,-140.6064 131.3872,-143.6406 130.1558,-143.752 C 129.6211,-144.2129 129.6074,-144.376 128.5864,-144.376 C 127.4424,-144.376 120.7153,-126.4912 120.123,-123.9531 L 117.9312,-114.8418 C 116.813,-110.0244 113.6719,-80.5938 109.7817,-81.2197 L 102.2539,-82.1641 L 98.6143,-82.5254 L 100.374,-90.0166 C 101.2568,-91.8623 102.0898,-96.5186 102.6963,-99.0068 C 103.2197,-101.1611 104.7173,-105.041 105.606,-107.0889 C 106.4771,-109.1104 111.8872,-121.9375 111.9766,-123.0088 L 114.4824,-128.6631 C 115.9028,-131.3643 116.9224,-134.5381 118.0249,-137.6816 C 118.958,-140.3477 121.2217,-144.8154 121.6924,-146.5771 C 119.6362,-147.0557 116.2969,-148.7744 113.4126,-149.5879 C 111.1855,-150.2197 106.9297,-151.7324 104.7637,-151.9199 L 98.4956,-153.4844 L 70.2847,-160.0908 L 60.8818,-163.2266 C 56.6494,-165.9219 49.062,-167.2988 45.835,-171.7139 C 48.4873,-175.6855 50.4185,-182.6836 54.6104,-184.9121 C 66.7773,-184.9121 72.2871,-177.543 80.313,-173.2842 C 83.9233,-170.1416 90.9883,-165.0967 96.3037,-163.8584 C 100.0591,-161.8652 107.0361,-159.5859 111.4419,-157.9824 C 113.9609,-157.0625 116.793,-155.7773 119.1816,-155.0605 C 123.5024,-153.7568 123.123,-153.749 125.1416,-157.5723 L 126.3936,-160.3994 C 128.1758,-161.7119 131.353,-172.3115 132.3789,-175.4492 C 134.1226,-180.7373 134.9834,-186.6182 136.3535,-192.2021 C 137.8506,-198.2793 143.2432,-221.8174 147.3955,-222.9287 C 149.2153,-221.3438 154.2886,-219.9805 154.2886,-216.9541 L 154.2886,-215.7012 C 154.2886,-206.7363 149.1343,-188.6563 146.6348,-181.2705 C 145.1104,-176.7539 142.1846,-171.0068 140.0791,-166.79 C 137.6738,-161.9678 135.4346,-157.207 132.9746,-152.5439 C 135.0059,-148.6992 163.8838,-142.7656 171.5254,-142.8008 C 179.5693,-142.8408 187.623,-142.8037 195.666,-142.8037 C 203.5146,-142.8037 210.9814,-141.5498 218.5498,-141.5498 L 220.1143,-141.5498 C 221.5156,-141.5498 221.6826,-145.7119 221.6826,-147.2051 C 221.6826,-150.123 222.3105,-151.8506 222.3105,-155.3721 C 222.3105,-158.6504 222.625,-160.71 222.6221,-163.8584 C 222.6221,-169.5381 222.0381,-175.4355 221.6826,-180.5098 C 221.0762,-189.084 217.8857,-202.9199 214.7822,-208.7891 C 212.9004,-216.917 201.6123,-231.9854 196.0645,-237.1494 C 191.9033,-241.0186 188.1572,-244.6992 183.0273,-247.6475 C 179.2109,-249.8389 171.5059,-254.585 167.1416,-255.6094 L 163.3838,-256.543 L 161.8135,-256.8613 L 142.6948,-260.0078 L 135.7939,-260.3154 C 126.0986,-260.3154 122.1733,-259.918 114.4824,-258.1172 C 109.1523,-256.8721 95.7227,-251.7803 92.5405,-249.0068 L 84.3906,-244.2949 L 82.1938,-243.0381 L 58.375,-228.9014 C 51.4385,-224.2412 48.7212,-220.9492 43.897,-214.1875 C 41.3486,-210.6162 34.9722,-199.1689 33.9238,-194.6504 C 31.5996,-191.293 27.3408,-169.8193 27.3408,-163.2266 L 27.3408,-149.0889 C 27.3408,-138.0713 32.2192,-124.4893 34.9253,-115.5293 C 38.0552,-105.1504 43.478,-96.7266 49.4106,-88.8906 C 54.9092,-81.6123 62.5259,-73.5566 70.4897,-68.8555 C 76.8418,-65.1123 90.6455,-57.3447 100.064,-57.3447 L 109.4604,-56.2969 L 110.7236,-56.3975 C 124.2905,-56.3975 134.9727,-60.3516 145.1055,-64.0361 C 150.5708,-66.0254 170.9902,-74.1689 174.041,-76.8223 L 178.1123,-79.0205 C 179.6182,-79.3721 187.7969,-84.8564 189.0098,-86.0098 C 191.6162,-88.4902 195.5576,-92.1895 197.2334,-95.3594 L 205.3818,-106.9844 L 206.9502,-106.3613 C 210.0791,-104.1816 221.0547,-102.082 221.0547,-97.2441 L 221.0547,-96.3037 C 221.0547,-95.0479 220.4004,-93.4395 220.1143,-92.2197 C 219.4629,-89.4033 215.459,-84.6436 213.5723,-82.7559 C 211.75,-80.9297 206.0156,-76.8535 205.0713,-75.5654 C 202.9941,-74.4678 200.7617,-72.874 198.7412,-71.5381 C 196.6465,-70.1484 194.2861,-69.123 192.1563,-67.7744 C 188.8555,-65.6924 182.1953,-62.21 178.4678,-60.7578 C 170.2881,-57.5713 157.3145,-51.5977 147.0801,-50.7422 L 133.6025,-49.4893 L 107.5874,-49.4893 C 74.1899,-49.4893 59.2788,-65.668 45.5244,-85.3096 C 39.7549,-93.5566 31.1772,-106.4121 27.6997,-116.46 C 25.6118,-122.5059 23.0366,-127.6924 21.5127,-134.7627 C 20.228,-140.7051 17.937,-148.9424 17.937,-155.6895 L 17.937,-165.4268 C 17.937,-173.209 22.7417,-193.585 25.4038,-198.4766 C 27.9741,-203.2061 29.25,-207.125 32.2939,-211.6816 C 33.3794,-213.3076 40.7051,-223.2344 40.8208,-223.5547"
       id="path2451"
       style="fill:#aaaaaa;fill-opacity:1;fill-rule:nonzero;stroke:none" /><path
       d="M 293.875,-124.2969 L 276.54,-118.2939 L 274.3398,-117.667 L 269.3525,-116.0186 L 286.2539,-97.873 L 288.1289,-95.9893 L 289.084,-94.6416 L 260.8613,-91.2744 L 259.2979,-90.957 L 253.6357,-90.5234 L 272.1494,-65.1963 L 274.0283,-62.6846 L 276.5322,-58.8916 L 243.9346,-68.6504 L 242.3701,-69.2822 L 238.0029,-70.626 L 244.252,-45.7178 L 245.1875,-41.9414 L 246.0225,-37.7002 L 217.292,-57.0273 L 215.4424,-58.3291 L 197.8594,-28.749 L 195.4951,-24.7666 L 195.3848,-24.3906 L 171.2109,-48.8574 L 168.4688,-51.7598 L 158.9863,-24.6621 L 157.2168,-19.8428 L 137.0239,-58.707 C 128.145,-55.5449 94.8164,-43.2666 94.8164,-43.2666 L 99.2402,-85.123 L 59.0869,-103.1416 L 62.4482,-106.3555 L 84.2139,-124.7285 L 82.8184,-126.1523 L 51.1563,-154.167 L 55.2378,-154.7451 C 55.2378,-154.7451 61.1821,-155.4902 65.271,-156.1436 C 69.3374,-156.7969 76.2671,-164.084 76.6934,-169.3906 C 76.6484,-169.4297 76.5947,-169.4717 76.5498,-169.5117 C 76.5498,-172.4727 75.3994,-175.6152 73.7305,-176.7432 L 51.043,-211.8545 L 55.5513,-211.3008 L 82.5112,-207.2275 L 81.8804,-211.6123 L 78.168,-241.1895 L 104.7002,-234.6143 L 106.0186,-239.2656 L 110.7183,-254.3457 C 110.7334,-254.3506 110.7451,-254.3545 110.7573,-254.3574 L 116.6709,-272.5713 L 117.2524,-272.5508 L 117.6133,-271.9385 L 125.1377,-263.46 L 131.9502,-256.543 C 131.9775,-256.543 132.0029,-256.543 132.0303,-256.543 L 135.7622,-252.4951 L 138.9312,-256.2354 L 138.9658,-256.2383 L 168.4609,-288.1943 L 177.123,-245.1719 L 210.3379,-263.1367 L 214.1582,-231.0938 L 216.6689,-231.125 L 256.3184,-228.8037 L 242.9717,-205.8262 L 273.7188,-210.0449 L 274.7207,-210.002 L 257.417,-183.6504 L 253.7002,-178.2783 L 288.7568,-157.5723 L 290.3281,-155.999 L 269.6396,-143.1152 L 265.0371,-140.4463 L 290.6426,-126.1523 L 293.875,-124.2969 M 190.9609,-47.6064 L 194.7773,-54.1699 L 182.0479,-54.0078 L 190.9609,-47.6064 M 125.1377,-73.9951 L 116.9873,-81.2197 L 114.3369,-83.3877 L 111.6348,-68.707 L 125.1377,-73.9951 M 97.8677,-101.6406 L 92.5396,-112.3301 C 92.5396,-104.8711 84.4751,-102.7598 97.8677,-101.6406 M 125.0586,-241.0664 C 124.3208,-242.0957 123.0117,-244.7236 122.3081,-245.2363 L 121.5718,-238.9639 C 124.1079,-239.0059 126.6362,-238.8643 125.0586,-241.0664 M 162.5371,-258.3906 C 162.5342,-258.4004 151.0396,-245.0205 151.0396,-245.0205 L 164.0098,-245.209 L 162.5371,-258.3906 M 225.0527,-217.832 L 229.124,-212.8086 L 232.3291,-218.6201 L 225.0527,-217.832 M 246.4453,-130.8623 C 246.4453,-147.4385 239.4355,-165.7129 233.2783,-177.0518 C 227.1201,-188.3936 220.6182,-195.2188 210.7852,-205.1855 C 207.7715,-207.9355 204.7656,-210.1807 201.8076,-212.4287 C 198.5801,-214.8936 195.2803,-216.8535 191.6934,-218.9434 C 184.6895,-223.0215 177.0527,-226.6191 168.2686,-228.7695 C 160.9248,-230.5771 146.7891,-232.5938 138.5483,-230.5332 C 134.1733,-229.4434 129.0142,-228.7695 125.4521,-227.0068 C 123.2021,-225.8906 116.2671,-222.6357 115.1089,-221.041 C 107.8906,-217.2109 101.2119,-207.6357 97.5508,-199.9922 C 95.1152,-197.1738 91.5962,-181.7686 91.5962,-175.792 L 91.5962,-167.625 L 92.4663,-160.6758 C 92.4702,-160.6729 92.4805,-160.6621 92.4805,-160.6621 C 92.5054,-160.3574 94.8086,-149.0654 94.8804,-148.6885 C 95.6812,-144.5576 99.123,-136.3887 100.4795,-133.4834 C 102.9888,-128.0918 107.7441,-118.9521 114.4253,-110.7705 C 121.106,-102.5889 128.2051,-95.2256 138.2988,-88.127 C 146.4878,-82.3682 162.335,-74.5586 170.2783,-73.0488 C 178.2148,-71.5381 193.2939,-70.834 201.3076,-71.7939 C 209.3223,-72.7529 219.0967,-78.1484 223.8174,-81.2803 C 227.5693,-83.7734 237.5938,-93.8105 238.6084,-98.1875 C 243.0566,-103.3193 246.4453,-119.0078 246.4453,-129.292 L 246.4453,-130.8623 z"
       id="path2453"
       style="fill:#ecec0e;fill-opacity:1;fill-rule:evenodd;stroke:none" /><path
       d="M 37.0562,-219.7861 C 38.6455,-220.8516 42.3867,-225.5957 44.1885,-227.4053 C 46.7212,-229.9453 49.2227,-232.1514 51.7065,-234.6318 C 55.6226,-238.5508 63.8813,-244.3994 69.1353,-247.0117 C 76.0654,-250.4658 104.9585,-262.1992 113.5391,-262.1992 L 125.1377,-263.46 L 145.1982,-262.8311 C 149.7925,-262.8311 156.1836,-261.8789 160.4922,-261.1914 C 163.8291,-260.6602 172.0068,-258.1699 174.3496,-258.1172 L 188.7705,-251.5156 C 190.9609,-249.6074 194.1855,-248.0342 196.5352,-245.7939 C 198.959,-243.4727 201.0381,-241.2422 203.4229,-238.8721 C 206.9629,-235.3594 213.123,-227.8818 215.791,-223.625 C 219.3262,-217.9883 222.9229,-212.1133 225.0947,-205.2939 C 226.9463,-199.4844 229.6738,-189.5635 229.8281,-182.3975 L 230.2158,-176.4297 L 230.1475,-167.3145 C 230.1475,-158.8115 229.1855,-151.2031 227.7695,-143.9297 C 226.333,-136.5732 224.1377,-130.1582 222.6201,-123.6357 C 222.0225,-122.4951 220.7783,-118.6084 219.4902,-118.6084 L 217.6094,-118.6084 C 209.8975,-118.6084 200.0254,-120.9541 192.8799,-122.1006 C 184.9453,-123.375 177.1074,-125.1582 169.4688,-126.9121 C 162.084,-128.5996 153.7412,-130.4229 147.0791,-132.75 C 143.5649,-133.9746 139.7954,-134.9551 136.3818,-136.1572 C 134.4692,-136.834 127.6235,-139.8672 126.3896,-139.9805 C 125.8574,-140.4414 125.8428,-140.6035 124.8223,-140.6035 C 123.6787,-140.6035 116.9512,-122.7188 116.3589,-120.1807 L 114.1675,-111.0693 C 113.0483,-106.251 109.9082,-76.8223 106.0186,-77.4482 L 98.4902,-78.3916 L 94.8511,-78.7568 L 96.6104,-86.2451 C 97.4917,-88.0898 98.3228,-92.7471 98.9302,-95.2354 C 99.4551,-97.3906 100.9531,-101.2705 101.8413,-103.3164 C 102.7134,-105.3379 108.123,-118.166 108.2129,-119.2363 L 110.7183,-124.8916 C 112.1387,-127.5918 113.1572,-130.7676 114.2617,-133.9102 C 115.1938,-136.5762 117.458,-141.0439 117.9272,-142.8057 C 115.8721,-143.2822 112.5322,-145.0029 109.6489,-145.8154 C 107.4224,-146.4473 103.166,-147.9609 100.9995,-148.1475 L 94.731,-149.7129 L 66.5205,-156.3193 L 57.1177,-159.4541 C 52.8857,-162.1494 45.2979,-163.5234 42.0713,-167.9434 C 44.7241,-171.9141 46.6553,-178.9121 50.8467,-181.1416 C 63.0103,-181.1416 68.5205,-173.7705 76.5498,-169.5117 C 80.1592,-166.3691 87.2251,-161.3252 92.5396,-160.0859 C 96.2954,-158.0938 103.2729,-155.8145 107.6787,-154.21 C 110.1963,-153.293 113.0298,-152.0049 115.4185,-151.2881 C 119.7388,-149.9844 119.3594,-149.9766 121.377,-153.7988 L 122.6304,-156.6279 C 124.4121,-157.9404 127.5879,-168.541 128.6147,-171.6777 C 130.3589,-176.9648 131.2188,-182.8457 132.5889,-188.4316 C 134.0874,-194.5078 139.4775,-218.043 143.6313,-219.1572 C 145.4507,-217.5723 150.5249,-216.2119 150.5249,-213.1807 L 150.5249,-211.9297 C 150.5249,-202.9639 145.3706,-184.8848 142.8701,-177.499 C 141.3467,-172.9795 138.4209,-167.2354 136.3145,-163.0176 C 133.9106,-158.1953 131.6709,-153.4346 129.2109,-148.7715 C 131.2417,-144.9277 160.1191,-138.9932 167.7617,-139.0283 C 175.8066,-139.0684 183.8604,-139.0313 191.9004,-139.0313 C 199.752,-139.0313 207.2188,-137.7773 214.7871,-137.7773 L 216.3506,-137.7773 C 217.751,-137.7773 217.9189,-141.9395 217.9189,-143.4316 C 217.9189,-146.3516 218.5469,-148.0791 218.5469,-151.5996 C 218.5469,-154.8789 218.8613,-156.9375 218.8594,-160.0859 C 218.8594,-165.7666 218.2734,-171.665 217.9189,-176.7383 C 217.3135,-185.3145 214.123,-199.1484 211.0195,-205.0166 C 209.1348,-213.1455 197.8467,-228.2139 192.2988,-233.3789 C 188.1406,-237.248 184.3936,-240.9268 179.2637,-243.873 C 175.4473,-246.0674 167.7412,-250.8125 163.375,-251.8359 L 159.6172,-252.7734 L 158.0508,-253.0889 L 138.9312,-256.2354 L 132.0303,-256.543 C 122.335,-256.543 118.4102,-256.1436 110.7183,-254.3457 C 105.3882,-253.1006 91.959,-248.0078 88.7759,-245.2363 L 80.627,-240.5225 L 78.4287,-239.2656 L 54.6104,-225.127 C 47.6748,-220.4707 44.9565,-217.1768 40.1328,-210.416 C 37.584,-206.8438 31.2085,-195.3975 30.1602,-190.877 C 27.8359,-187.5215 23.5771,-166.0479 23.5771,-159.4541 L 23.5771,-145.3174 C 23.5771,-134.2988 28.4551,-120.7158 31.1611,-111.7559 C 34.2915,-101.3818 39.7129,-92.9551 45.647,-85.1172 C 51.1445,-77.8389 58.7612,-69.7842 66.7251,-65.084 C 73.0767,-61.3418 86.8809,-53.5723 96.3003,-53.5723 L 105.6958,-52.5254 L 106.9585,-52.624 C 120.5259,-52.624 131.208,-56.5801 141.3408,-60.2666 C 146.8057,-62.2529 167.2266,-70.3975 170.2783,-73.0488 L 174.3496,-75.248 C 175.8535,-75.6006 184.0322,-81.085 185.2461,-82.2393 C 187.8506,-84.7168 191.7939,-88.418 193.4678,-91.5859 L 201.6182,-103.2119 L 203.1855,-102.5889 C 206.3154,-100.4082 217.292,-98.3105 217.292,-93.4727 L 217.292,-92.5322 C 217.292,-91.2744 216.6367,-89.668 216.3506,-88.4463 C 215.6973,-85.6318 211.6963,-80.8701 209.8086,-78.9834 C 207.9863,-77.1572 202.251,-73.082 201.3076,-71.7939 C 199.2305,-70.6953 196.9961,-69.1016 194.9785,-67.7656 C 192.8838,-66.377 190.5234,-65.3525 188.3916,-64.001 C 185.0918,-61.916 178.4326,-58.4385 174.7041,-56.9844 C 166.5244,-53.7988 153.5513,-47.8252 143.3164,-46.9697 L 129.8389,-45.7178 L 103.8223,-45.7178 C 70.4268,-45.7178 55.5132,-61.8955 41.7612,-81.5371 C 35.9912,-89.7852 27.4106,-102.6406 23.9355,-112.6875 C 21.8481,-118.7324 19.2725,-123.9199 17.748,-130.9902 C 16.4634,-136.9326 14.1733,-145.1699 14.1733,-151.917 L 14.1733,-161.6514 C 14.1733,-169.4404 18.9771,-189.8135 21.6401,-194.7041 C 24.21,-199.4346 25.4863,-203.3525 28.5298,-207.9102 C 29.6157,-209.5352 36.9409,-219.4629 37.0562,-219.7861"
       id="path2455"
       style="fill:#000000;fill-opacity:1;fill-rule:evenodd;stroke:none" /></g></svg>