<?xml version="1.0" encoding="UTF-8" standalone="no"?>
<!-- Created with Inkscape (http://www.inkscape.org/) -->
<svg
   xmlns:svg="http://www.w3.org/2000/svg"
   xmlns="http://www.w3.org/2000/svg"
   version="1.0"
   width="389.76318"
   height="389.76318"
   id="svg2477"
   xml:space="preserve"><defs
     id="defs2480" /><g
     transform="scale(1.25,-1.25)"
     id="g2486"><path
       d="M 287.7168,-110.9893 L 271.5586,-105.4248 L 269.5098,-104.8428 L 264.8574,-103.3179 L 280.6152,-86.4971 L 282.3633,-84.751 L 283.25,-83.5029 L 256.9473,-80.3813 L 255.4902,-80.0874 L 250.2109,-79.6851 L 267.4668,-56.21 L 269.2207,-53.8813 L 271.5508,-50.3672 L 241.1699,-59.4106 L 239.7109,-59.9976 L 235.6387,-61.2437 L 241.4629,-38.1543 L 242.3379,-34.6558 L 243.1152,-30.7261 L 216.3359,-48.6396 L 214.6113,-49.8452 L 198.2227,-22.4282 L 196.0215,-18.7368 L 195.916,-18.3872 L 173.3867,-41.064 L 170.8301,-43.7559 L 161.9922,-18.6382 L 160.3418,-14.1733 L 141.5215,-50.1958 C 133.2451,-47.2661 102.1797,-35.8838 102.1797,-35.8838 L 106.3018,-74.6782 L 68.8774,-91.3804 L 72.0093,-94.3599 L 92.2969,-111.3892 L 90.9961,-112.7085 L 61.4854,-138.6758 L 65.2905,-139.2114 C 65.2905,-139.2114 70.8315,-139.8994 74.6401,-140.5078 C 78.4331,-141.1123 84.8911,-147.8662 85.2881,-152.7832 C 85.2456,-152.8203 85.1963,-152.8594 85.1538,-152.8975 C 85.1538,-155.6406 84.0811,-158.5557 82.5244,-159.5986 L 61.3799,-192.1445 L 65.5811,-191.6299 L 90.7109,-187.8574 L 90.1226,-191.9189 L 86.6631,-219.333 L 111.3926,-213.2393 L 112.6206,-217.5508 L 117.0015,-231.5273 C 117.0151,-231.5322 117.0264,-231.5322 117.0391,-231.5371 L 122.5518,-248.418 L 123.0933,-248.4023 L 123.4282,-247.835 L 130.4404,-239.9746 L 136.7915,-233.5654 C 136.8159,-233.5654 136.8403,-233.5654 136.8667,-233.5654 L 140.3433,-229.8115 L 143.2969,-233.2803 L 143.3296,-233.2822 L 170.8223,-262.9033 L 178.8965,-223.0215 L 209.8535,-239.6758 L 213.416,-209.9766 L 215.7559,-210.0049 L 252.7129,-207.8535 L 240.2734,-186.5576 L 268.9297,-190.4658 L 269.8633,-190.4258 L 253.7344,-166.001 L 250.2715,-161.0215 L 282.9473,-141.8311 L 284.4102,-140.3735 L 265.1289,-128.4331 L 260.8379,-125.957 L 284.7031,-112.7085 L 287.7168,-110.9893 M 191.7969,-39.9048 L 195.3477,-45.9893 L 183.4863,-45.8379 L 191.7969,-39.9048 M 130.4404,-64.3672 L 122.8442,-71.0625 L 120.374,-73.0698 L 117.856,-59.4639 L 130.4404,-64.3672 M 105.0234,-89.9888 L 100.0586,-99.8965 C 100.0586,-92.9854 92.54,-91.0278 105.0234,-89.9888 M 130.3687,-219.2197 C 129.6802,-220.1738 128.4595,-222.6074 127.8052,-223.085 L 127.1191,-217.2695 C 129.4819,-217.3096 131.8394,-217.1797 130.3687,-219.2197 M 165.3027,-235.2783 C 165.3008,-235.2881 154.5835,-222.8828 154.5835,-222.8828 L 166.6719,-223.0586 L 165.3027,-235.2783 M 223.5703,-197.6855 L 227.3652,-193.0273 L 230.3516,-198.4141 L 223.5703,-197.6855 M 243.5098,-117.0757 C 243.5098,-132.437 236.9785,-149.376 231.2363,-159.8848 C 225.498,-170.3975 219.4395,-176.7236 210.2695,-185.9609 C 207.4648,-188.5137 204.6602,-190.5928 201.9043,-192.6797 C 198.8965,-194.958 195.8203,-196.7783 192.4746,-198.7148 C 185.9492,-202.4951 178.832,-205.8271 170.6445,-207.8213 C 163.7969,-209.4971 150.6216,-211.3672 142.9399,-209.458 C 138.8633,-208.4482 134.0547,-207.8213 130.7358,-206.1895 C 128.6387,-205.1523 122.1748,-202.1367 121.0933,-200.6592 C 114.3672,-197.1113 108.1421,-188.2344 104.7295,-181.1484 C 102.4565,-178.5371 99.1782,-164.2559 99.1782,-158.7197 L 99.1782,-151.1484 L 99.9902,-144.7065 C 99.9922,-144.7036 100.0029,-144.6938 100.0029,-144.6938 C 100.0264,-144.4126 102.1714,-133.9468 102.2397,-133.5972 C 102.9844,-129.7686 106.1943,-122.1963 107.4585,-119.5024 C 109.7979,-114.5078 114.23,-106.0342 120.4565,-98.4526 C 126.6841,-90.8687 133.3003,-84.0454 142.7085,-77.4634 C 150.3413,-72.1265 165.1152,-64.8877 172.5117,-63.4878 C 179.9141,-62.0874 193.9648,-61.436 201.4355,-62.3257 C 208.9082,-63.2158 218.0215,-68.2148 222.418,-71.1196 C 225.9141,-73.4307 235.2578,-82.7334 236.2031,-86.7896 C 240.3516,-91.5449 243.5098,-106.0869 243.5098,-115.6182 L 243.5098,-117.0757 z"
       id="path2488"
       style="fill:#ecec0e;fill-opacity:1;fill-rule:evenodd;stroke:none" /><path
       d="M 48.3438,-199.4941 C 49.8228,-200.4824 53.311,-204.8789 54.9902,-206.5576 C 57.3525,-208.9121 59.6821,-210.9561 61.998,-213.2559 C 65.6494,-216.8887 73.3452,-222.3086 78.2441,-224.7295 C 84.7041,-227.9326 111.6353,-238.8086 119.6309,-238.8086 L 130.4404,-239.9746 L 149.1401,-239.3926 C 153.4214,-239.3926 159.3809,-238.5107 163.3906,-237.8721 C 166.5039,-237.3818 174.127,-235.0732 176.3105,-235.0234 L 189.752,-228.9063 C 191.7969,-227.1338 194.8008,-225.6797 196.9883,-223.6006 C 199.2461,-221.4492 201.1855,-219.3848 203.4102,-217.1855 C 206.709,-213.9277 212.4512,-206.998 214.9375,-203.0518 C 218.2305,-197.832 221.584,-192.3838 223.6094,-186.0635 C 225.3359,-180.6797 227.875,-171.4805 228.0215,-164.8398 L 228.3848,-159.3105 L 228.3184,-150.8584 C 228.3184,-142.979 227.4219,-135.9282 226.1016,-129.186 C 224.7617,-122.3667 222.7168,-116.4229 221.3027,-110.3765 C 220.7441,-109.3164 219.5859,-105.7168 218.3848,-105.7168 L 216.6309,-105.7168 C 209.4434,-105.7168 200.2441,-107.8906 193.5801,-108.9531 C 186.1875,-110.1328 178.8789,-111.7871 171.7578,-113.4126 C 164.8789,-114.978 157.1016,-116.6665 150.8931,-118.8237 C 147.6177,-119.9595 144.104,-120.8672 140.9219,-121.9829 C 139.1401,-122.6104 132.7573,-125.4229 131.6094,-125.5249 C 131.1113,-125.9517 131.0986,-126.1035 130.146,-126.1035 C 129.0811,-126.1035 122.8115,-109.5264 122.2593,-107.1743 L 120.2158,-98.7271 C 119.1743,-94.2637 116.2461,-66.9854 112.6206,-67.5664 L 105.604,-68.4414 L 102.2114,-68.7788 L 103.8516,-75.7207 C 104.6748,-77.4292 105.4492,-81.7461 106.0151,-84.0522 C 106.5044,-86.0493 107.8994,-89.645 108.728,-91.5425 C 109.5391,-93.416 114.5835,-105.3057 114.666,-106.2993 L 117.0015,-111.5405 C 118.3247,-114.043 119.2749,-116.9863 120.3042,-119.9004 C 121.1738,-122.3701 123.2832,-126.5122 123.7212,-128.144 C 121.8052,-128.5874 118.6919,-130.1807 116.0044,-130.9336 C 113.9292,-131.521 109.9624,-132.9233 107.9434,-133.0957 L 102.1016,-134.5479 L 75.8066,-140.6689 L 67.0415,-143.5762 C 63.0962,-146.0723 56.0249,-147.3477 53.0166,-151.4414 C 55.4912,-155.124 57.2891,-161.6094 61.1963,-163.6758 C 72.5352,-163.6758 77.6719,-156.8447 85.1538,-152.8975 C 88.5176,-149.9834 95.1021,-145.311 100.0586,-144.1592 C 103.5581,-142.3145 110.061,-140.2031 114.167,-138.7139 C 116.5146,-137.8638 119.1563,-136.6714 121.3818,-136.0059 C 125.4087,-134.8003 125.0552,-134.7915 126.9355,-138.3345 L 128.1045,-140.9556 C 129.7646,-142.1714 132.7261,-151.998 133.6831,-154.9043 C 135.3081,-159.8047 136.1113,-165.2598 137.3882,-170.4326 C 138.7832,-176.0654 143.8081,-197.8818 147.6802,-198.9102 C 149.3745,-197.4424 154.104,-196.1797 154.104,-193.376 L 154.104,-192.2129 C 154.104,-183.9033 149.2993,-167.1455 146.9702,-160.2998 C 145.5483,-156.1133 142.8228,-150.7891 140.8579,-146.8789 C 138.6187,-142.4087 136.5308,-137.9951 134.2373,-133.6738 C 136.1313,-130.1118 163.0469,-124.6108 170.168,-124.6431 C 177.6699,-124.6792 185.1738,-124.645 192.668,-124.645 C 199.9883,-124.645 206.9473,-123.4854 214.002,-123.4854 L 215.459,-123.4854 C 216.7617,-123.4854 216.9219,-127.3433 216.9219,-128.7261 C 216.9219,-131.4307 217.5078,-133.0317 217.5078,-136.2959 C 217.5078,-139.3345 217.7988,-141.2422 217.7969,-144.1592 C 217.7969,-149.4268 217.252,-154.8916 216.9219,-159.5938 C 216.3555,-167.5439 213.3828,-180.3652 210.4902,-185.8066 C 208.7344,-193.3398 198.2129,-207.3076 193.0391,-212.0938 C 189.1621,-215.6768 185.6719,-219.0908 180.8887,-221.8223 C 177.332,-223.8545 170.1504,-228.252 166.084,-229.2012 L 162.5801,-230.0703 L 161.1172,-230.3643 L 143.2969,-233.2803 L 136.8667,-233.5654 C 127.8286,-233.5654 124.1709,-233.1924 117.0015,-231.5273 C 112.0347,-230.374 99.5161,-225.6543 96.5498,-223.085 L 88.9546,-218.7158 L 86.9058,-217.5508 L 64.7046,-204.4463 C 58.2412,-200.1299 55.7075,-197.0781 51.2109,-190.8105 C 48.8354,-187.498 42.8931,-176.8887 41.915,-172.7002 C 39.7485,-169.5898 35.7773,-149.6865 35.7773,-143.5762 L 35.7773,-130.4712 C 35.7773,-120.2607 40.3267,-107.6699 42.8481,-99.3677 C 45.7656,-89.748 50.8193,-81.9385 56.3501,-74.6748 C 61.4741,-67.9292 68.5728,-60.4619 75.9985,-56.1084 C 81.916,-52.6367 94.7832,-45.4365 103.564,-45.4365 L 112.3208,-44.4668 L 113.4976,-44.5581 C 126.144,-44.5581 136.1006,-48.2236 145.5435,-51.6406 C 150.6392,-53.4824 169.6699,-61.0303 172.5117,-63.4878 L 176.3105,-65.5278 C 177.7109,-65.855 185.3359,-70.937 186.4629,-72.0063 C 188.8945,-74.3032 192.5723,-77.7329 194.1328,-80.6714 L 201.7285,-91.4478 L 203.1875,-90.8687 C 206.1074,-88.8462 216.3359,-86.9028 216.3359,-82.4185 L 216.3359,-81.5464 C 216.3359,-80.3813 215.7246,-78.8926 215.459,-77.7612 C 214.8496,-75.1523 211.1211,-70.7383 209.3594,-68.9883 C 207.6641,-67.2964 202.3164,-63.5176 201.4355,-62.3257 C 199.5039,-61.3066 197.4199,-59.8286 195.5371,-58.5928 C 193.584,-57.3057 191.3828,-56.3535 189.3984,-55.1021 C 186.3242,-53.1724 180.1152,-49.9453 176.6406,-48.5991 C 169.0156,-45.6455 156.9243,-40.1099 147.3853,-39.3164 L 134.8242,-38.1543 L 110.5742,-38.1543 C 79.4458,-38.1543 65.5474,-53.1514 52.7275,-71.3555 C 47.3496,-79.001 39.353,-90.915 36.1133,-100.229 C 34.1665,-105.8315 31.7676,-110.6392 30.3472,-117.1943 C 29.1494,-122.7002 27.0137,-130.3354 27.0137,-136.5889 L 27.0137,-145.6152 C 27.0137,-152.8301 31.4917,-171.7148 33.9731,-176.2471 C 36.3706,-180.6338 37.5591,-184.2646 40.3955,-188.4873 C 41.4077,-189.9922 48.2344,-199.1963 48.3438,-199.4941"
       id="path2490"
       style="fill:#000000;fill-opacity:1;fill-rule:evenodd;stroke:none" /><path
       d="M 212.248,-252.2061 C 212.248,-252.8789 212.0449,-253.0771 211.3672,-253.0771 C 209.4219,-253.0771 207.5723,-251.5918 207.5723,-249.293 C 209.0059,-249.3271 212.248,-249.6719 212.248,-251.042 L 212.248,-252.2061 M 207.2793,-241.7217 C 207.3496,-244.7715 209.0391,-243.3408 209.6094,-245.5693 L 204.9395,-245.2168 C 201.873,-244.9492 201.5039,-247.6143 201.9531,-249.6504 C 202.6465,-252.7588 203.9199,-252.8672 205.2344,-254.8311 C 206.7656,-255.8477 208.9609,-257.7383 211.3672,-257.7383 L 212.832,-257.7383 C 215.4688,-257.7383 217.5078,-255.7148 217.5078,-253.0771 L 217.5078,-252.79 C 217.5078,-250.584 217.0508,-248.4424 216.3359,-246.9658 L 211.9531,-241.1396 C 211.2461,-240.8008 210.6777,-240.5557 209.6133,-240.5557 L 208.7402,-240.5557 C 207.9082,-240.5557 207.7227,-241.2158 207.2793,-241.7217"
       id="path2492"
       style="fill:#000000;fill-opacity:1;fill-rule:evenodd;stroke:none" /><path
       d="M 244.0938,-252.79 C 244.0938,-249.7549 245.373,-247.7813 248.1836,-247.5488 C 248.4688,-248.6104 249.3496,-249.1592 249.3496,-249.873 L 249.3496,-251.9141 C 249.3496,-255.3525 248.4512,-256.8008 247.8926,-259.1953 C 246.541,-258.8848 244.0938,-256.1699 244.0938,-255.1182 L 244.0938,-252.79 M 240.0059,-258.0322 C 241.1309,-259.3262 241.3164,-260.1719 242.8438,-261.3184 C 244.5801,-262.6201 245.2617,-262.6436 246.7207,-263.5635 C 253.8457,-263.5635 251.7656,-258.041 253.8496,-253.7959 L 259.5801,-258.3242 L 263.9609,-262.9795 C 264.752,-264.4736 265.7129,-266.25 265.7129,-268.5146 L 265.7129,-270.2607 C 265.7129,-273.5342 261.2754,-276.6699 258.1152,-276.6699 L 257.2402,-276.6699 C 255.2031,-276.6699 252.2168,-276.5713 250.3926,-276.2148 C 249.1602,-275.9707 248.0078,-276 247.6367,-275.1699 C 247.2695,-274.3516 247.1289,-272.8838 246.1387,-272.8838 C 245.125,-272.8838 243.5098,-275.21 243.5098,-276.3779 L 243.5098,-277.2529 C 243.5098,-279.3359 245.0313,-279.2061 246.1387,-280.165 L 251.1055,-280.7471 L 253.1484,-280.7471 C 263,-280.7471 270.3906,-278.4395 270.3906,-268.8018 L 270.3906,-268.5146 C 270.3906,-263.6709 266.8672,-258.6777 264.3281,-256.2061 C 261.9629,-253.8945 255.8457,-249.8262 254.3184,-247.5488 C 253.9082,-246.9336 252.2422,-244.9287 251.3984,-244.9287 L 249.0586,-244.9287 C 248.8574,-244.0566 248.1973,-242.8887 247.3066,-242.8887 C 244.3398,-242.8887 241.5527,-246.0049 240.584,-248.124 C 238.8203,-251.959 239.0215,-253.8359 240.0059,-258.0322"
       id="path2494"
       style="fill:#000000;fill-opacity:1;fill-rule:evenodd;stroke:none" /><path
       d="M 63.5347,-265.3125 L 62.6567,-265.3125 C 62.3062,-264.7861 60.3213,-262.9199 60.3213,-262.6904 C 60.3213,-260.04 66.0869,-253.0771 68.5049,-253.0771 L 69.084,-253.0771 C 70.4614,-253.0771 70.6016,-256.1563 69.9614,-257.1572 C 69.9614,-261.1846 67.71,-265.3125 63.5347,-265.3125 M 34.9048,-255.1182 L 31.6904,-253.6641 C 30.0474,-252.5664 28.7651,-250.5684 28.7651,-247.835 L 28.7651,-245.2168 C 28.7651,-240.8281 32.5317,-233.4912 34.6821,-231.0156 C 36.3335,-229.1172 37.7476,-227.4424 40.063,-226.1855 C 41.5405,-225.3867 45.4854,-223.665 47.4634,-223.665 L 49.2197,-223.665 L 50.3887,-226.5781 C 53.2822,-228.5107 52.2715,-227.2715 55.4976,-228.1855 C 57.1079,-228.6436 57.2114,-231.9023 56.5225,-232.9854 C 56.5225,-238.4551 52.0552,-244.5732 49.145,-247.4736 C 45.6455,-250.9668 41.7495,-255.1182 34.9048,-255.1182 M 27.8882,-257.1572 C 29.0449,-257.4648 30.6489,-259.1572 32.5244,-259.8184 C 34.1831,-260.4053 36.3667,-260.6504 38.7017,-260.6504 C 41.3911,-260.6504 45.8311,-258.2441 47.6387,-257.042 C 50.2759,-255.2949 52.1294,-252.708 54.188,-251.332 L 53.6025,-260.3604 C 53.6025,-262.6934 51.375,-271.2539 50.6465,-273.4326 C 49.7646,-276.0977 48.0483,-283.4883 48.0483,-286.8623 L 48.0483,-287.1543 C 48.0483,-289.249 49.0991,-290.9521 50.3887,-291.8125 L 51.8491,-292.1055 C 54.3179,-289.9648 55.6201,-269.2861 58.2749,-267.3457 C 59.7134,-268.3066 62.3188,-271.1348 64.4087,-271.1348 L 67.3325,-271.1348 C 70.9619,-271.1348 75.2197,-262.4004 75.2197,-257.7383 L 75.2197,-256.5752 C 75.2197,-254.5098 74.4443,-253.3047 74.0518,-251.625 C 73.2217,-250.6738 70.9668,-247.5488 69.3809,-247.5488 L 67.3325,-247.5488 C 66.0015,-247.5488 64.439,-248.9512 62.9502,-249.293 L 59.6563,-252.4424 L 59.4453,-252.2061 L 59.4453,-251.332 C 59.4453,-249.5039 57.9214,-248.8555 56.231,-248.7119 C 56.5225,-247.6143 58.9863,-243.6748 59.7388,-241.7236 C 60.4585,-239.8691 61.4897,-235.8105 61.4897,-233.2803 L 61.4897,-229.2012 C 61.4897,-223.8799 57.1885,-223.1914 55.355,-220.4639 C 53.522,-219.124 51.8491,-216.9688 48.3438,-216.9688 L 47.1709,-216.9688 C 41.2368,-216.9688 34.0376,-223.1748 31.0278,-226.498 C 27.4526,-230.4541 24.0947,-238.1152 24.0947,-245.5068 L 24.0947,-247.2559 C 24.0947,-252.3037 25.9043,-254.2031 27.8882,-257.1572"
       id="path2496"
       style="fill:#000000;fill-opacity:1;fill-rule:evenodd;stroke:none" /><path
       d="M 80.7744,-268.5146 C 81.1348,-267.1689 82.5337,-265.0205 84.2773,-265.0205 L 84.8638,-265.0205 C 86.2427,-265.0205 86.0313,-265.5859 87.2026,-265.8945 L 87.2026,-266.7666 C 87.2026,-267.9668 84.665,-269.0986 83.4023,-269.0986 C 82.6699,-269.0986 81.481,-268.6787 80.7744,-268.5146 M 78.4341,-263.5635 L 74.6372,-271.1348 L 74.3442,-276.3779 C 75.6152,-281.8057 76.5923,-281.502 79.0205,-285.1152 C 80.9287,-286.3867 83.1938,-288.0303 86.3252,-288.0303 L 88.6597,-288.0303 C 90.8896,-288.0303 92.4365,-287.3252 93.3354,-285.9883 L 93.3354,-284.8232 C 91.2959,-280.9727 87.2212,-284.917 83.9888,-283.3662 C 80.8198,-283.1035 78.1431,-279.2314 78.1431,-275.7959 C 78.1431,-273.6523 78.4688,-271.3027 80.189,-270.8438 C 80.478,-271.9326 81.6299,-273.4658 83.1113,-273.4658 L 85.4463,-273.4658 C 88.1289,-273.4658 90.9961,-270.8486 90.9961,-267.9326 L 90.9961,-267.0596 C 90.9961,-265.7744 90.5645,-264.9805 90.1226,-264.1475 C 88.979,-262.4453 86.2842,-260.6504 83.4023,-260.6504 L 83.1113,-260.6504 C 81.0142,-260.6504 79.6855,-262.7266 78.4341,-263.5635"
       id="path2498"
       style="fill:#000000;fill-opacity:1;fill-rule:evenodd;stroke:none" /><path
       d="M 221.8848,-252.79 L 220.4258,-254.8311 C 219.5371,-258.6475 218.6719,-257.8535 218.6719,-263.8584 L 220.7207,-271.4287 C 222.8516,-273.8721 225.373,-279.875 229.7773,-279.875 L 230.0703,-279.875 C 231.0508,-279.875 232.1133,-279.3564 232.1133,-278.416 L 232.1133,-277.5449 C 232.1133,-276.6104 229.3281,-275.1133 228.6094,-274.0488 C 226.9199,-273.5996 224.9375,-270.3887 224.2227,-268.8096 C 222.834,-265.748 223.2207,-264.4648 223.3535,-260.9443 C 223.6563,-252.9287 230.5605,-253.2041 231.8242,-258.6143 L 232.6992,-259.7764 C 233.125,-261.6045 234.1719,-263.6543 234.6328,-266.0039 C 235.2188,-269.0205 235.0059,-269.8877 237.373,-271.1348 L 239.1133,-271.4951 C 239.6641,-270.626 240.0059,-269.8643 240.0059,-268.5146 C 240.0059,-264.1182 236.6387,-257.8467 235.0371,-254.8311 C 233.8848,-253.5078 231.1699,-250.4561 228.9004,-250.4561 L 227.1445,-250.4561 C 224.8574,-250.4561 223.2949,-251.8506 221.8848,-252.79"
       id="path2500"
       style="fill:#000000;fill-opacity:1;fill-rule:evenodd;stroke:none" /><path
       d="M 218.0898,-286.5713 L 220.1289,-286.9258 C 220.9922,-286.29 221.8848,-285.0049 221.8848,-283.6631 L 221.8848,-282.4941 C 221.8848,-281.7734 220.9102,-281.0879 220.5918,-280.0029 C 220.3262,-279.0908 220.2734,-278.0762 220.0215,-277.0752 C 219.5176,-275.0928 218.8535,-273.5859 218.6719,-271.4287 C 217.998,-270.46 217.332,-268.5146 215.7559,-268.5146 C 214.5371,-268.5146 212.5371,-269.4004 212.5371,-270.5547 C 212.5371,-271.1455 214.2578,-278.0889 214.5801,-279.2988 C 215.4414,-282.584 215.377,-285.1445 218.0898,-286.5713"
       id="path2502"
       style="fill:#000000;fill-opacity:1;fill-rule:evenodd;stroke:none" /><path
       d="M 95.3818,-283.9502 L 96.8413,-289.1904 L 99.7612,-292.3955 C 100.8428,-292.3955 101.8096,-292.6543 101.8096,-291.5225 C 101.8096,-288.2256 98.8857,-284.4355 98.8857,-279.875 L 98.8857,-279.582 L 99.2061,-276.0918 C 100.5649,-274.0186 101.9771,-268.5146 105.604,-268.5146 L 106.4854,-268.5146 C 108.7998,-268.5146 109.9912,-271.6934 109.9912,-274.0488 C 109.9912,-280.6836 109.1177,-282.1406 107.9434,-287.1543 L 110.2803,-290.9385 L 111.1572,-290.9385 C 113.1602,-287.9531 114.3716,-283.3438 114.3716,-278.416 L 114.3716,-276.6699 C 114.3716,-273.5186 113.2246,-271.1006 112.6206,-268.5146 C 110.791,-267.1797 109.8979,-263.8584 105.3149,-263.8584 L 104.7295,-263.8584 C 99.0615,-263.8584 95.0874,-271.5586 95.0874,-277.5449 L 95.0874,-279.582"
       id="path2504"
       style="fill:#000000;fill-opacity:1;fill-rule:evenodd;stroke:none" /><path
       d="M 188.291,-286.2822 L 190.041,-287.4463 L 191.2109,-287.4463 C 192.6074,-285.3711 192.5723,-280.4531 195.8828,-280.4531 C 197.8379,-280.4531 200.0879,-282.2178 200.8496,-283.6631 L 202.3125,-287.4463 C 202.9434,-290.1396 202.5117,-289.9238 204.3594,-291.5225 C 205.3789,-291.7598 205.3418,-292.1055 206.4043,-292.1055 C 207.5273,-292.1055 208.4512,-289.9746 208.4512,-288.9033 L 208.4512,-288.3203 C 208.4512,-283.7852 205.4336,-281.4639 203.7754,-279.001 C 200.8516,-277.0527 199.3672,-275.0322 194.4238,-274.9219 C 194.0527,-275.1563 192.0801,-275.7959 191.5039,-275.7959 C 189.918,-275.7959 189.1855,-265.7754 188.7617,-263.6748 C 188.3672,-261.7393 187.9395,-259.3408 187.4863,-257.6709 C 186.9844,-255.835 186.0898,-254.0479 185.6621,-252.2061 C 184.8926,-251.3213 183.6211,-249.0049 182.1543,-249.0049 C 180.6445,-249.0049 179.7676,-249.7471 179.2305,-250.751 C 180.6465,-253.415 183.1543,-264.459 184.0195,-268.4004 C 184.6953,-271.4463 184.9922,-274.8242 185.7246,-277.7676 C 186.041,-279.0449 186.2813,-281.1172 186.502,-282.5283 C 187.0156,-285.7656 186.9766,-284.3262 188.291,-286.2822"
       id="path2506"
       style="fill:#000000;fill-opacity:1;fill-rule:evenodd;stroke:none" /><path
       d="M 163.4531,-283.6631 L 162.8691,-286.2822 C 162.8691,-293.1279 165.3008,-293.2275 168.7148,-296.1826 C 170.1504,-296.2988 169.7813,-296.7627 171.0508,-296.7627 L 173.0977,-296.7627 C 177.5391,-296.7627 179.5625,-293.416 182.1543,-291.5225 L 182.7383,-290.0664 L 182.7383,-288.9033 C 182.2207,-288.1309 181.6992,-287.4463 180.4004,-287.4463 L 179.8164,-287.4463 C 177.6973,-287.4463 175.8809,-291.1504 173.3867,-291.8125 C 172.7598,-292.2451 172.4277,-292.3955 171.3477,-292.3955 C 168.9688,-292.3955 167.5469,-289.2539 167.5469,-286.5713 C 167.5469,-284.9775 171.4512,-279.3311 172.4316,-278.0479 C 175.4121,-274.1494 178.6465,-275.4951 178.6465,-271.1348 C 172.9473,-269.8125 172.4961,-269.1982 168.8262,-274.1611 C 167.418,-276.0605 163.9961,-281.3525 163.4531,-283.6631"
       id="path2508"
       style="fill:#000000;fill-opacity:1;fill-rule:evenodd;stroke:none" /><path
       d="M 117.8779,-281.3311 C 117.583,-282.4287 116.1265,-284.4414 116.1265,-285.6982 L 116.1265,-287.7344 C 116.1265,-289.4961 116.958,-290.3838 117.2935,-291.8125 L 120.2158,-295.3057 C 121.5835,-296.0332 123.1821,-297.3486 125.1836,-297.3486 L 126.3501,-297.3486 C 130.3398,-297.3486 135.4092,-295.2354 135.4092,-291.2324 C 134.9087,-290.2861 133.8853,-289.4814 132.4854,-289.4814 C 130.5039,-289.4814 128.9175,-292.6865 124.8877,-292.6865 C 122.3926,-292.6299 121.0469,-290.1787 120.8496,-287.9678 C 120.6499,-285.6758 122.6436,-283.5459 123.7939,-282.2783 C 125.6206,-280.2842 126.1929,-279.7246 128.1787,-277.9082 C 130.8169,-275.4951 131.6113,-277.5977 133.9487,-274.9219 L 133.9487,-273.1768 C 128.6685,-270.3916 129.0049,-270.5723 124.48,-273.9297 C 121.7124,-275.9854 120.064,-278.8213 117.8779,-281.3311"
       id="path2510"
       style="fill:#000000;fill-opacity:1;fill-rule:evenodd;stroke:none" /><path
       d="M 141.835,-288.3203 C 142.8564,-288.5547 142.8198,-288.9033 143.8813,-288.9033 L 145.0488,-288.9033 C 147.5151,-288.9033 151.9263,-284.3008 154.688,-283.6631 L 155.564,-289.7744 C 155.8032,-292.5957 156.9028,-296.3848 158.7773,-297.6377 C 160.3496,-298.3857 162.2891,-297.4229 162.2891,-295.5996 L 162.2891,-295.3057 C 162.2891,-294.166 161.0352,-294.166 160.416,-293.0947 C 159.9258,-292.249 159.7617,-291.0508 159.5313,-289.9082 C 159.252,-288.4971 158.5664,-283.7334 158.4883,-282.7852 C 157.7832,-281.3203 157.2285,-279.582 154.9829,-279.582 L 154.104,-279.582 C 152.0815,-279.582 147.7847,-283.2568 145.9263,-284.2441 C 145.3901,-284.7021 144.8853,-285.1152 143.8813,-285.1152 L 143.5859,-285.1152 C 142.2212,-285.1152 141.543,-282.8105 141.543,-281.3311 C 141.543,-278.7744 147.4526,-273.7598 150.0132,-273.7598 L 151.769,-273.7598 L 151.4604,-273.9111 L 152.9233,-276.8203 L 153.2319,-276.6699 C 154.3022,-275.9531 155.4272,-275.4111 155.564,-273.7598 L 154.9829,-272.0088 C 154.0991,-270.7002 152.8022,-269.9746 150.6021,-269.9746 L 149.4302,-269.9746 C 145.8169,-269.9746 138.041,-276.8018 138.041,-281.0361 L 138.041,-281.6201 C 138.041,-284.8936 140.4536,-286.4375 141.835,-288.3203"
       id="path2512"
       style="fill:#000000;fill-opacity:1;fill-rule:evenodd;stroke:none" /></g></svg>