<?xml version="1.0" encoding="UTF-8" standalone="no"?>
<svg xmlns="http://www.w3.org/2000/svg" version="1.1" viewBox="0 0 15 15" width="16" height="16">
    <defs>
    </defs>
    <g>
        <path
            style="fill:none;fill-opacity:1;stroke:silver;stroke-width:1;stroke-opacity:1;paint-order:normal"
            d="m 11,12.5 a 10,10 0 0 0 -8,0"
        />
        <path
            style="fill:gray;fill-opacity:1;stroke:gray;stroke-width:1;stroke-opacity:1;stroke-linecap:round;stroke-linejoin:round;stroke-miterlimit:1;paint-order:normal"
            d="m 5.5,6 a 10,10 0 0 0 3,0 l -1.5,2 z"
        />
        <path
            style="fill:none;stroke:black;stroke-width:1;stroke-opacity:1;stroke-linecap:round;stroke-linejoin:round;stroke-miterlimit:1;paint-order:normal"
            d="m 6,7.5 c 0,2 -3.5,1 -3,5 a 10,10 0 0 0 8,0 c 0.5,-4 -3,-3 -3,-5 c 0,-2 3.5,-1 3,-5 h -8 c -0.5,4 3,3 3,5 z"
        />
        <path
            style="fill:black;fill-opacity:1;stroke:black;stroke-width:1;stroke-opacity:1;paint-order:normal"
            d="m 3,2.5 a 10,10 0 0 0 8,0 z"
        />
        <path
            style="fill:black;fill-opacity:1;stroke:black;stroke-width:1;stroke-opacity:1;paint-order:normal"
            d="m 11,2.5 a 10,10 0 0 0 -8,0 z"
        />
        <path
            style="fill:gray;fill-opacity:1;stroke:gray;stroke-width:1;stroke-opacity:1;stroke-linecap:round;stroke-linejoin:round;stroke-miterlimit:1;paint-order:normal"
            d="m 4.5,11.75 a 10,10 0 0 0 5,0 l -2.5,-3 z"
        />
    </g>
</svg>
