<?xml version="1.0" encoding="UTF-8"?>
<svg viewBox="0 0 128 128" xmlns="http://www.w3.org/2000/svg">
 <g transform="matrix(.76829 0 0 .76829 -64.01 -258.4)" fill="#aaa">
  <path d="m134.94 354c-3.324 0-6 2.676-6 6v96c0 3.324 2.676 6 6 6h82c3.324 0 6-2.676 6-6v-62h-40c-3.324 0-6-2.676-6-6v-34h-42z"/>
  <path d="m113.66 374.22c-3.324 0-6 2.676-6 6v96c0 3.324 2.676 6 6 6h82c3.324 0 6-2.676 6-6v-7h-73c-3.324 0-6-2.676-6-6v-89h-9z"/>
  <path d="m180.94 354v30c0 3.324 2.676 6 6 6h36z"/>
 </g>
</svg>
