<?xml version="1.0" encoding="UTF-8" standalone="no"?>
<!-- Created with Inkscape (http://www.inkscape.org/) -->
<svg
   xmlns:dc="http://purl.org/dc/elements/1.1/"
   xmlns:cc="http://creativecommons.org/ns#"
   xmlns:rdf="http://www.w3.org/1999/02/22-rdf-syntax-ns#"
   xmlns:svg="http://www.w3.org/2000/svg"
   xmlns="http://www.w3.org/2000/svg"
   xmlns:sodipodi="http://sodipodi.sourceforge.net/DTD/sodipodi-0.dtd"
   xmlns:inkscape="http://www.inkscape.org/namespaces/inkscape"
   version="1.0"
   width="325.90076"
   height="392.87637"
   id="svg45"
   sodipodi:version="0.32"
   inkscape:version="0.46"
   sodipodi:docname="Vote_icon.svg"
   inkscape:output_extension="org.inkscape.output.svg.inkscape">
  <metadata
     id="metadata2439">
    <rdf:RDF>
      <cc:Work
         rdf:about="">
        <dc:format>image/svg+xml</dc:format>
        <dc:type
           rdf:resource="http://purl.org/dc/dcmitype/StillImage" />
      </cc:Work>
    </rdf:RDF>
  </metadata>
  <sodipodi:namedview
     inkscape:window-height="543"
     inkscape:window-width="640"
     inkscape:pageshadow="2"
     inkscape:pageopacity="0.0"
     guidetolerance="10.0"
     gridtolerance="10.0"
     objecttolerance="10.0"
     borderopacity="1.0"
     bordercolor="#666666"
     pagecolor="#ffffff"
     id="base"
     showgrid="false"
     inkscape:zoom="0.652"
     inkscape:cx="250"
     inkscape:cy="250"
     inkscape:window-x="3"
     inkscape:window-y="44"
     inkscape:current-layer="svg45" />
  <defs
     id="defs3">
    <inkscape:perspective
       sodipodi:type="inkscape:persp3d"
       inkscape:vp_x="0 : 250 : 1"
       inkscape:vp_y="0 : 1000 : 0"
       inkscape:vp_z="500 : 250 : 1"
       inkscape:persp3d-origin="250 : 166.66667 : 1"
       id="perspective2441" />
  </defs>
  <g
     id="layer1"
     transform="translate(-98.928574,-59.276097)">
    <rect
       width="297.14285"
       height="297.14285"
       x="101.42857"
       y="101.42857"
       style="opacity:1;fill:#ffffff;fill-opacity:1;fill-rule:evenodd;stroke:#000000;stroke-width:5;stroke-linecap:butt;stroke-linejoin:miter;marker:none;stroke-miterlimit:4;stroke-dasharray:none;stroke-dashoffset:0;stroke-opacity:1;visibility:visible;display:inline;overflow:visible"
       id="rect1871" />
    <path
       d="M 413.11811,376.40073 C 390.60415,376.83813 340.04273,353.66785 311.40455,329.78977 C 278.25893,302.15296 275.14781,302.5754 265.06948,336.07814 C 261.95306,346.43796 258.85274,350.61056 255.22685,349.32396 C 251.19399,347.89357 250.81372,348.59878 253.62945,352.28388 C 258.41573,358.54756 235.86697,382.44849 227.92587,379.52873 C 223.67084,377.96425 223.3443,379.27415 226.36243,385.80219 C 228.46041,390.3397 228.34911,396.14183 226.11556,398.69487 C 223.88141,401.24832 223.5195,405.20713 225.31086,407.49221 C 231.32632,415.16532 225.84294,419.75952 217.96334,413.64775 C 210.63149,407.96166 210.4828,408.12236 214.67725,417.19474 C 217.32172,422.91457 217.05686,428.84607 214.01126,432.09754 C 211.22906,435.06791 206.61763,441.17426 203.7631,445.66781 C 200.90924,450.16116 196.24433,452.98102 193.39697,451.93411 C 185.82998,449.1519 179.47037,433.16122 183.912,428.08443 C 186.01257,425.68329 185.3303,421.61767 182.39546,419.05038 C 178.10324,415.29492 179.02942,410.35724 187.13187,393.80348 C 193.92351,379.92834 195.90211,372.18478 193.20663,370.03105 C 190.48492,367.85708 195.23481,349.86467 208.08767,313.66002 C 218.47086,284.41259 227.58916,258.1486 228.34999,255.29622 C 229.11093,252.44412 225.62835,246.20118 220.61059,241.42372 C 215.59259,236.64639 197.98494,214.6421 181.48212,192.52618 C 164.97919,170.40982 147.92243,147.93746 143.5783,142.587 C 114.97153,107.35596 110.17859,100.13231 109.50884,91.242727 C 109.09736,85.781385 111.15172,77.878208 114.074,73.68046 C 119.80049,65.453989 145.12296,62.427974 160.60265,68.11951 C 177.07853,74.177323 229.84409,131.97895 240.21101,155.32575 C 253.99562,186.36967 257.71816,185.99008 270.58125,152.22658 C 287.76873,107.11057 302.95556,75.180932 310.36173,68.592332 C 321.03421,59.097845 344.0643,56.248587 356.30997,62.907583 C 362.31523,66.173078 370.03092,75.264151 373.45628,83.109584 C 379.60131,97.185386 379.50976,97.605725 366.54647,114.83292 C 358.01888,126.16542 345.72325,152.254 331.50466,189.18341 L 309.59989,246.075 L 339.1492,277.09506 C 375.86212,315.63541 391.45073,330.35167 404.74023,339.0159 C 417.42813,347.28786 423.89484,360.11055 417.79228,364.89515 C 415.08383,367.01812 415.37886,368.0086 418.52783,367.3662 C 421.4188,366.7765 424.23662,368.5127 424.78934,371.22436 C 425.34264,373.93606 420.0904,376.2654 413.11811,376.40073 z"
       style="fill:#FF0000"
       id="path12" />
  </g>
</svg>
