<?xml version="1.0" encoding="UTF-8" standalone="no"?>
<svg
   xmlns:dc="http://purl.org/dc/elements/1.1/"
   xmlns:cc="http://creativecommons.org/ns#"
   xmlns:rdf="http://www.w3.org/1999/02/22-rdf-syntax-ns#"
   xmlns:svg="http://www.w3.org/2000/svg"
   xmlns="http://www.w3.org/2000/svg"
   xmlns:sodipodi="http://sodipodi.sourceforge.net/DTD/sodipodi-0.dtd"
   xmlns:inkscape="http://www.inkscape.org/namespaces/inkscape"
   viewBox="0 0 354.33841 354.3349"
   version="1.1"
   id="svg17"
   sodipodi:docname="rss.svg"
   inkscape:version="0.92.3 (2405546, 2018-03-11)">
  <metadata
     id="metadata21">
    <rdf:RDF>
      <cc:Work
         rdf:about="">
        <dc:format>image/svg+xml</dc:format>
        <dc:type
           rdf:resource="http://purl.org/dc/dcmitype/StillImage" />
      </cc:Work>
    </rdf:RDF>
  </metadata>
  <sodipodi:namedview
     pagecolor="#ffffff"
     bordercolor="#666666"
     borderopacity="1"
     objecttolerance="10"
     gridtolerance="10"
     guidetolerance="10"
     inkscape:pageopacity="0"
     inkscape:pageshadow="2"
     inkscape:window-width="1366"
     inkscape:window-height="706"
     id="namedview19"
     showgrid="false"
     inkscape:zoom="0.66603657"
     inkscape:cx="-195.93344"
     inkscape:cy="177.16745"
     inkscape:window-x="-8"
     inkscape:window-y="-8"
     inkscape:window-maximized="1"
     inkscape:current-layer="svg17" />
  <defs
     id="defs7">
    <linearGradient
       id="a"
       x1="-390.28"
       x2="-250.68"
       y1="-45.05"
       y2="450"
       gradientUnits="userSpaceOnUse"
       gradientTransform="translate(531.5,-166.53)">
      <stop
         stop-color="#fff"
         offset="0"
         id="stop2" />
      <stop
         stop-color="#fff"
         stop-opacity="0"
         offset="1"
         id="stop4" />
    </linearGradient>
  </defs>
  <path
     id="path9"
     d="M 36.54,0.01 H 320 c 25.015,0.0578 34.424,13.205 34.326,34.325 v 282.36 c -0.0804,32.108 -17.092,37.658 -37.647,37.648 H 33.219 C 11.169,354.285 0.148,342.789 0,320.017 V 35.447 C 0.26515,13.921 9.9601,0.083 36.54,0.014 Z"
     inkscape:connector-curvature="0"
     style="fill:#0066d2;fill-opacity:1" />
  <path
     id="path11"
     d="m 35.44,35.44 v 56.703 c 125.17,-1e-5 226.73,101.6 226.76,226.76 h 56.703 c -0.0272,-156.46 -127,-283.46 -283.46,-283.46 z m 0,85.054 v 56.703 c 78.24,0 141.71,63.467 141.71,141.71 h 56.703 c 0,-109.54 -88.874,-198.41 -198.41,-198.41 z m 70.866,162.98 c 0,19.559 -15.874,35.433 -35.433,35.433 -19.559,0 -35.433,-15.874 -35.433,-35.433 0,-19.559 15.874,-35.433 35.433,-35.433 19.559,0 35.433,15.874 35.433,35.433 z"
     inkscape:connector-curvature="0"
     style="fill:#e6e6e6" />
  <path
     id="path13"
     d="M 36.55,0 C 9.97,0.0692 0.284,13.911 0.019,35.438 v 248.03 c 143.49,51.627 179.08,-247.15 354.31,-141.72 V 34.338 c 0.003,-0.66002 0.0157,-1.3245 0,-1.9688 -0.48625,-19.973 -10.079,-32.319 -34.312,-32.375 H 36.547 Z"
     style="opacity:0.7;fill:url(#a)"
     inkscape:connector-curvature="0" />
</svg>
