<?xml version="1.0" encoding="UTF-8" standalone="no"?>
<svg xmlns="http://www.w3.org/2000/svg" version="1.1" viewBox="0 0 15 15" width="16" height="16">
  <defs>
    <linearGradient id="linearGradient1" x1="0" y1="9" x2="10" y2="15" gradientUnits="userSpaceOnUse" >
        <stop style="stop-color:#f5a567;stop-opacity:1" offset="0"/>
        <stop style="stop-color:#ff7d21;stop-opacity:1" offset="1" />
    </linearGradient>
    <linearGradient id="linearGradient2" x1="0" y1="10" x2="10" y2="14" gradientUnits="userSpaceOnUse" >
        <stop style="stop-color:#ffcea9;stop-opacity:1" offset="0"/>
        <stop style="stop-color:#ffc094;stop-opacity:1" offset="1" />
    </linearGradient>
    <linearGradient id="linearGradient3" x1="0" y1="10" x2="10" y2="14" gradientUnits="userSpaceOnUse" >
        <stop style="stop-color:#ffbe8e;stop-opacity:1" offset="0"/>
        <stop style="stop-color:#ffb077;stop-opacity:1" offset="1" />
    </linearGradient>
    <linearGradient id="linearGradient4" x1="10" y1="2" x2="16" y2="6" gradientUnits="userSpaceOnUse" >
        <stop style="stop-color:#eeeeee;stop-opacity:1" offset="0"/>
        <stop style="stop-color:#c7c7c7;stop-opacity:1" offset="1" />
    </linearGradient>
  </defs>
  <g>
    <path
       style="fill:url(#linearGradient2);fill-opacity:1;fill-rule:evenodd;stroke:url(#linearGradient1);stroke-width:1;stroke-linecap:round;stroke-linejoin:round;stroke-miterlimit:4;stroke-dasharray:none;stroke-opacity:1;paint-order:normal"
       d="m 1,11.2 a 2,2 0 0,0 2.5,3.1 l 3.5,-3.5 a 1.2,1.2 0 0,0 -2.5,-3.1 z"
       />
    <path
       style="fill:url(#linearGradient2);fill-opacity:1;fill-rule:evenodd;stroke:url(#linearGradient1);stroke-width:1;stroke-linecap:round;stroke-linejoin:round;stroke-miterlimit:4;stroke-dasharray:none;stroke-opacity:1;paint-order:normal"
       d="m 7.8,8.9 a 4,4 0 0,1 -1.7,-1.6"
       />
    <path
       style="fill:none;stroke:url(#linearGradient3);stroke-width:1;stroke-linecap:round;stroke-linejoin:round;stroke-miterlimit:6;stroke-dasharray:none;stroke-opacity:0.8;paint-order:normal"
       d="m 2.3,13.1 l -0.5,-0.5 4,-4 0.5,0.5 z"
       />
    <path
       style="fill:url(#linearGradient4);stroke:#8a8a8a;stroke-width:1;stroke-linecap:round;stroke-linejoin:round;stroke-miterlimit:6;stroke-dasharray:none;stroke-opacity:1;paint-order:normal"
       d="m 6.7,6.9 l 1,-1 a 3.2,3.2 0 0,1 2.8,-5.4 a 1,1 0 0,1 0.8,1 a 2,2 0 1,0 2.4,2.4 a 1,1 0 0,1 1,0.8 a 3.2,3.2 0 0,1 -5.4,2.8 l -1,1 a 1.8,1.8 0 0,1 -1.25,-1.25 z"
       />
  </g>
</svg>
