<?xml version="1.0" encoding="UTF-8" standalone="no"?>
<svg xmlns="http://www.w3.org/2000/svg" version="1.1" viewBox="0 0 15 15" width="16" height="16">
    <defs>
        <linearGradient id="linearGradient1" x1="0%" y1="100%" x2="100%" y2="0%" gradientUnits="userSpaceOnUse" >
            <stop style="stop-color:#346abb;stop-opacity:1" offset="0"/>
            <stop style="stop-color:#3b76c4;stop-opacity:1" offset="1" />
        </linearGradient>
        <linearGradient id="linearGradient2" x1="20%" y1="80%" x2="80%" y2="20%" gradientUnits="userSpaceOnUse" >
            <stop style="stop-color:#e6f5ff;stop-opacity:1" offset="0"/>
            <stop style="stop-color:#bad6f5;stop-opacity:1" offset="1" />
        </linearGradient>
        <linearGradient id="linearGradient3" x1="50%" y1="50%" x2="50%" y2="80%" gradientUnits="userSpaceOnUse" >
            <stop style="stop-color:#55b4f8;stop-opacity:1" offset="0"/>
            <stop style="stop-color:#68bffd;stop-opacity:1" offset="1" />
        </linearGradient>
        <linearGradient id="linearGradient4" x1="20%" y1="90%" x2="50%" y2="20%" gradientUnits="userSpaceOnUse" >
            <stop style="stop-color:#000000;stop-opacity:1" offset="0"/>
            <stop style="stop-color:#574218;stop-opacity:1" offset="0.1"/>
            <stop style="stop-color:#d5b67a;stop-opacity:1" offset="0.5"/>
            <stop style="stop-color:#d6b976;stop-opacity:1" offset="1" />
        </linearGradient>
        <linearGradient id="linearGradient5" x1="40%" y1="40%" x2="60%" y2="60%" gradientUnits="userSpaceOnUse" >
            <stop style="stop-color:#fdf7c7;stop-opacity:1" offset="0"/>
            <stop style="stop-color:#f7e15a;stop-opacity:1" offset="1"/>
        </linearGradient>
        <linearGradient id="linearGradient6" x1="0%" y1="00%" x2="100%" y2="100%" gradientUnits="userSpaceOnUse" >
            <stop style="stop-color:#c0a269;stop-opacity:1" offset="0"/>
            <stop style="stop-color:#9f8450;stop-opacity:1" offset="1"/>
        </linearGradient>
    </defs>
    <g>
        <path
            style="fill:#ffffff;fill-opacity:1;fill-rule:evenodd;stroke:url(#linearGradient1);stroke-width:1;stroke-linecap:round;stroke-linejoin:round;stroke-miterlimit:1;stroke-dasharray:none;stroke-opacity:1;paint-order:normal"
            d="m 1.5,13 v -11.5 a 1,1 0 0,1 1,-1 h 8 a 3.5,3.5 0 0,0 3 3 v 10 a 1,1 0 0,1 -1,1 h -10 a 1,1 0 0,1 -1,-1 z"
        />
        <path
            style="fill:url(#linearGradient2);fill-opacity:1;fill-rule:evenodd;stroke:none;paint-order:normal"
            d="m 3,13 v -11 h 6.5 a 3.5,3.5 0 0,0 2.25 2.25 v 8.75 z"
        />
        <path
            style="fill:#94d5ff;fill-opacity:1;fill-rule:evenodd;stroke:url(#linearGradient3);stroke-width:0.5;stroke-dasharray:none;stroke-opacity:1;paint-order:normal"
            d="m 3.25,11.25 h 8.25 v 1.5 h -8.25 z"
        />
        <g transform="translate(0,-0.5)">
            <path
                style="fill:url(#linearGradient5);fill-opacity:1;fill-rule:evenodd;stroke:url(#linearGradient4);stroke-width:1;stroke-dasharray:none;stroke-opacity:1;paint-order:normal"
                d="m 11.7,2.3 a 2,2 0 0,0 2.5,2.5 l -5.8,5.8 a 2,2 0 0,1 -2.5,-2.5 z"
            />
            <path
                style="fill:#fff3e5;fill-opacity:1;fill-rule:evenodd;stroke:url(#linearGradient4);stroke-width:1;stroke-dasharray:none;stroke-opacity:1;paint-order:normal"
                d="m 11.7,2.3 a 2,2 0 0,0 2.5,2.5 a 2,2 0 0,0 -2.5,-2.5 z"
            />
            <path
                style="fill:url(#linearGradient5);fill-opacity:1;fill-rule:evenodd;stroke:url(#linearGradient4);stroke-width:1;stroke-linecap:round;stroke-linejoin:round;stroke-miterlimit:1;stroke-dasharray:none;stroke-opacity:1;paint-order:normal"
                d="m 5.7,8.3 a 2,2 0 0,0 2.5,2.5 l -3.8,1.3 l 1.3,-3.8 z"
            />
        </g>
    </g>
</svg>
