<?xml version="1.0" encoding="UTF-8" standalone="no"?>
<svg xmlns="http://www.w3.org/2000/svg" version="1.1" viewBox="0 0 15 15" width="16" height="16">
    <defs>
        <linearGradient id="linearGradient1" x1="50%" y1="8" x2="50%" y2="11" gradientUnits="userSpaceOnUse" >
            <stop style="stop-color:#e69b4c;stop-opacity:1" offset="0"/>
            <stop style="stop-color:#de9f59;stop-opacity:1" offset="1" />
        </linearGradient>
        <linearGradient id="linearGradient2" x1="50%" y1="0%" x2="50%" y2="100%" gradientUnits="userSpaceOnUse" >
            <stop style="stop-color:#5f8cbb;stop-opacity:1" offset="0"/>
            <stop style="stop-color:#5887b8;stop-opacity:1" offset="1" />
        </linearGradient>
        <radialGradient id="radialGradient1" cx="50%" cy="40%" r="100%" fx="50%" fy="50%">
            <stop offset="20%" style="stop-color:#fdd7ae;stop-opacity:1" />
            <stop offset="100%" style="stop-color:#d6a472;stop-opacity:1" />
        </radialGradient>
        <radialGradient id="radialGradient2" cx="60%" cy="50%" r="60%" fx="50%" fy="30%">
            <stop offset="0%" style="stop-color:#84d6ff;stop-opacity:1" />
            <stop offset="100%" style="stop-color:#417ed3;stop-opacity:1" />
        </radialGradient>
        <radialGradient id="radialGradient3" cx="50%" cy="20%" r="50%" fx="50%" fy="40%">
            <stop offset="0%" style="stop-color:#d0e4fd;stop-opacity:1" />
            <stop offset="100%" style="stop-color:#ffffff;stop-opacity:1" />
        </radialGradient>
    </defs>
    <g transform="translate(-5.3,4.4)">
        <path
            style="fill:url(#radialGradient2);fill-opacity:1;fill-rule:evenodd;stroke:#2c5574;stroke-width:0.5;stroke-linecap:round;stroke-linejoin:round;stroke-miterlimit:1;stroke-dasharray:none;stroke-opacity:0.8;paint-order:normal"
            d="m 7.5,10.5 l -1,-1 v -2 h -1 l 2.2,-2.5 h 4.7 l 2.2,2.5 h -1 v 2 l -1,1 z"
        />
        <path
            style="fill:url(#linearGradient1);fill-opacity:1;fill-rule:evenodd;stroke:#cd8e48;stroke-width:0.2;stroke-linecap:square;stroke-linejoin:square;stroke-miterlimit:0.5;stroke-dasharray:none;stroke-opacity:1;paint-order:normal"
            d="m 13.8,9.5 v -1.67 h 0.7 v 1.67 z"
        />
        <path
            style="fill:url(#linearGradient1);fill-opacity:1;fill-rule:evenodd;stroke:#cd8e48;stroke-width:0.2;stroke-linecap:square;stroke-linejoin:square;stroke-miterlimit:0.5;stroke-dasharray:none;stroke-opacity:1;paint-order:normal"
            d="m 5.6,9.5 v -1.67 h 0.7 v 1.67 z"
        />
        <path
            style="fill:none;stroke:#80513a;stroke-width:1;stroke-linecap:round;stroke-linejoin:round;stroke-miterlimit:4;stroke-dasharray:none;stroke-opacity:0.8;paint-order:normal"
            d="m 7.5,2 v 2 a 2,1.2 0 1,0 5,0 v -2 a 2,1.2 0 0,0 -5,0 z"
        />
        <path
            style="fill:url(#radialGradient1);fill-opacity:1;fill-rule:evenodd;stroke:none;paint-order:normal"
            d="m 7.1,2 v 2 a 2,1.3 0 1,0 5.8,0 v -2 a 2,1.3 0 0,0 -5.8,0 z"
        />
        <path
            style="fill:#905b41;fill-opacity:1;fill-rule:evenodd;stroke:none;paint-order:normal"
            d="m 7,3.6 v -1.8 a 2,1.3 0 1,1 6,0 v 1.8 l -0.25,-0.5 -0.25,0.35 -0.25,-0.5 -0.25,0.3 -0.25,-0.7 -0.25,0.25 -0.25,-0.1 -0.25,0.3 -0.25,-0.5 -0.25,-0.3 -0.25,-0.5 -0.25,0.5 -0.25,-0.2 -0.25,0.5 -0.25,-0.2 -0.25,0.2 -0.25,0.3 -0.25,0.2 -0.25,-0.2 -0.25,0.3 -0.25,0.5 z"
        />
    </g>
    <g transform="translate(5,0)">
        <path
            style="fill:url(#radialGradient3);fill-opacity:1;fill-rule:evenodd;stroke:url(#linearGradient2);stroke-width:1;stroke-linecap:round;stroke-linejoin:round;stroke-miterlimit:4;stroke-dasharray:none;stroke-opacity:1;paint-order:normal"
            d="m 0,2 a 2,2 0 0,1 2,-2 h 6 a 2,2 0 0,1 2,2 v 2 a 2,2 0 0,1 -2,2 h -1 l -4,2.5 1,-2.5 h -2 a 2,2 0 0,1 -2,-2 z"
        />
    </g>
</svg>
