<?xml version="1.0" encoding="UTF-8" standalone="no"?>
<svg xmlns="http://www.w3.org/2000/svg" version="1.1" viewBox="0 0 15 15" width="16" height="16">
  <defs>
    <linearGradient id="linearGradient1" x1="2" y1="4" x2="5" y2="12" gradientUnits="userSpaceOnUse" >
        <stop style="stop-color:#e3e3d9;stop-opacity:1" offset="0"/>
        <stop style="stop-color:#d2d2cc;stop-opacity:1" offset="1" />
    </linearGradient>
    <linearGradient id="linearGradient2" x1="6" y1="6" x2="10" y2="12" gradientUnits="userSpaceOnUse" >
        <stop style="stop-color:#c8c8c5;stop-opacity:1" offset="0"/>
        <stop style="stop-color:#d5d5ce;stop-opacity:1" offset="1" />
    </linearGradient>
    <linearGradient id="linearGradient3" x1="3" y1="3" x2="11" y2="3" gradientUnits="userSpaceOnUse" >
        <stop style="stop-color:#b0aca2;stop-opacity:1" offset="0"/>
        <stop style="stop-color:#818180;stop-opacity:1" offset="1" />
    </linearGradient>
  </defs>
  <g>
    <ellipse style="fill:#000000;fill-opacity:1;fill-rule:evenodd;stroke:none;paint-order:normal" cx="8.5" cy="13" rx="6" ry="1.5"/>
    <path
       style="fill:url(#linearGradient1);fill-opacity:1;fill-rule:evenodd;stroke:#6c6b67;stroke-width:1;stroke-linecap:round;stroke-linejoin:round;stroke-miterlimit:1;stroke-dasharray:none;stroke-opacity:1;paint-order:normal"
       d="m 1.3,2.75 c 0.5,3.5 0.5,2.5 0.5,9.5 1,1.8 8,1.5 10,0 1,-1 1,-4 1.15,-10.35 z"
       />
    <path
       style="fill:url(#linearGradient2);fill-opacity:1;fill-rule:evenodd;stroke:none;paint-order:normal"
       d="m 6.5,2.5 v 10.3 c 1,0 3,-0.5 5,-1 0.9,-9 1,-3 0.9,-9.25 z"
       />
    <path
       style="fill:url(#linearGradient3);fill-opacity:1;fill-rule:evenodd;stroke:#6c6b67;stroke-width:1;stroke-linecap:round;stroke-linejoin:round;stroke-miterlimit:1;stroke-dasharray:none;stroke-opacity:1;paint-order:normal"
       d="m 3,3.6 c -7.5,-1.35 6.1,-3.1 10.4,-1.6 c 0.9,2.4 -8,2.5 -10.9,1.5 z"
       />
  </g>
</svg>
