<?xml version="1.0" encoding="UTF-8" standalone="no"?>
<!-- Created with Inkscape (http://www.inkscape.org/) -->
<svg
   xmlns:svg="http://www.w3.org/2000/svg"
   xmlns="http://www.w3.org/2000/svg"
   version="1.0"
   width="549.99426"
   height="427.81992"
   id="svg2803">
  <defs
     id="defs2805" />
  <g
     transform="translate(-70.717147,-249.88079)"
     id="layer1">
    <path
       d="M 567.99837,285.0703 L 569.84962,286.00383 C 570.19772,281.81875 571.66922,281.13046 574.47774,282.28552 L 575.00779,279.2001 L 576.32898,279.51656 L 561.5111,255.43453 L 556.87507,255.43453 C 555.44312,256.39971 554.10611,256.66078 554.10611,259.14493 L 554.10611,260.07056 C 554.10611,262.23826 560.33231,270.01507 561.39243,272.22233 C 563.57595,276.75551 564.94461,281.5735 567.99837,285.0703"
       id="path131"
       style="fill:#e1ceb6;fill-opacity:1;fill-rule:evenodd;stroke:none" />
    <path
       d="M 436.49657,564.73511 C 433.19756,564.73511 428.16596,559.6877 428.16596,556.39659 C 428.16596,548.86502 439.7323,531.96647 442.81771,526.52348 L 474.46295,533.24019 C 468.63232,538.31134 461.17195,542.86825 454.83499,547.88402 C 450.5708,551.26215 439.5187,564.73511 436.49657,564.73511 M 221.66495,559.16555 C 215.27261,559.16555 211.47518,556.19881 211.47518,549.90932 C 211.47518,539.30816 215.02736,536.69743 222.28994,532.94747 C 226.56205,530.7323 237.2344,523.96022 241.11095,523.05833 L 241.11095,528.61207 C 241.11095,537.82084 229.73448,559.16555 221.66495,559.16555 M 410.57121,519.34793 L 436.90796,524.20547 L 423.52994,548.99161 C 423.35589,540.85087 414.02054,525.88267 410.57121,519.34793 M 282.77982,536.95059 C 282.77982,524.21338 298.26225,517.35428 307.47893,512.56793 C 312.90609,509.75942 317.85066,506.10439 322.42339,502.50475 C 325.2952,500.25002 326.26829,499.62503 328.87111,496.91145 C 330.30306,495.43204 333.57834,489.72007 334.63846,489.72007 C 340.54029,489.72007 361.15717,509.09487 362.41507,513.79419 C 353.2063,513.79419 330.86476,521.69759 322.25726,524.56939 C 313.90291,527.35417 290.23227,536.95059 282.77982,536.95059 M 282.77982,521.20708 L 284.63106,510.09169 C 294.94741,503.18512 307.08336,487.86882 323.52306,487.86882 L 327.22556,487.86882 C 326.48189,496.84025 291.34777,515.47138 282.77982,521.20708 M 206.84706,469.34845 L 205.58916,474.23764 L 202.21103,470.27407 L 204.07019,478.61259 C 201.45155,478.39107 200.35979,478.62841 200.35979,475.82781 L 200.35979,472.12532 C 200.35979,466.15228 203.2395,461.57954 207.00529,459.00836 L 207.77269,460.0843 L 207.77269,466.57158 L 206.84706,469.34845 z M 226.28515,468.42282 L 225.36744,472.12532 L 224.4339,474.9101 L 225.36744,476.76134 L 220.73141,479.5303 L 219.8137,481.38155 L 217.96245,481.38155 C 217.33746,481.94325 216.26943,483.23279 215.17767,483.23279 C 212.44827,483.23279 210.54956,481.33408 210.54956,478.61259 C 210.54956,469.47503 214.67926,454.53056 223.51619,454.53056 L 226.22186,454.5543 L 228.1364,461.93555 L 227.21869,463.79471 L 227.2978,466.61904 L 226.28515,468.42282 z M 134.6168,523.98395 L 142.94741,521.20708 C 153.10553,506.03319 172.04521,491.66625 187.40106,481.38155 C 194.94054,474.83098 193.04974,471.93544 198.10506,465.63804 L 198.50854,478.61259 C 199.47372,480.05245 199.74271,481.38155 202.21103,481.38155 C 204.52114,481.38155 205.69992,479.07145 207.77269,477.67906 C 207.86762,482.2597 209.64767,485.09195 214.25205,485.09195 L 217.02892,485.09195 C 220.46243,485.09195 224.53675,480.32143 225.36744,476.76134 C 228.78513,474.24555 230.92118,466.98296 230.92118,461.01784 L 230.92118,460.0843 C 230.92118,454.67296 227.13957,453.17773 224.4339,450.82807 C 211.11917,457.22041 218.40549,453.81854 211.08752,462.64757 L 208.79324,456.89604 L 207.77269,457.31534 C 209.57646,450.54326 225.72345,445.10819 233.50027,443.21739 C 247.51911,439.81552 255.45415,441.56392 270.7388,441.56392 C 291.67213,441.56392 326.33949,397.56122 345.43739,386.62779 C 374.03678,370.25929 404.91462,360.07743 449.4553,360.07743 L 456.87611,360.07743 C 474.2177,360.07743 493.54503,363.51885 508.02273,366.33528 C 517.25523,368.13905 549.11408,380.44905 552.25487,380.44905 L 556.87507,380.44905 C 571.43188,380.44905 576.32898,340.24377 576.32898,323.9623 C 576.32898,305.9878 570.98094,297.91826 567.99837,285.0703 C 564.94461,281.5735 563.57595,276.75551 561.39243,272.22233 C 560.33231,270.01507 554.10611,262.23826 554.10611,260.07056 L 554.10611,259.14493 C 554.10611,256.66078 555.44312,256.39971 556.87507,255.43453 L 561.5111,255.43453 C 572.15972,258.27469 588.18804,289.23956 591.96173,300.91665 C 597.46009,317.88641 601.32872,345.21208 601.32872,367.49033 C 601.32872,387.3398 598.50439,405.0374 589.28771,415.63856 L 589.28771,419.34896 C 589.28771,454.89448 588.94752,475.06832 567.06484,489.72007 C 567.99837,485.71695 571.70087,482.59989 571.70087,479.5303 C 571.70087,477.6395 569.78633,477.82937 567.99837,477.67906 L 561.5111,487.86882 C 561.0918,492.93997 558.73423,497.89245 558.73423,502.68671 C 558.73423,529.90953 588.37,534.83036 588.37,558.24784 L 588.37,559.16555 C 588.37,561.3016 587.72127,561.95033 585.58522,561.95033 L 582.80835,561.95033 C 578.92389,561.95033 575.87804,560.79528 573.55211,559.16555 C 558.84499,555.73995 538.48127,534.91738 527.06525,526.00925 C 517.1682,518.29572 497.04974,492.06973 493.90895,478.61259 C 490.49127,472.14905 486.50397,458.73938 486.50397,448.97682 L 486.50397,439.71268 C 486.50397,431.93586 490.45171,417.7667 493.90895,413.7794 C 493.81402,409.22249 493.85357,409.26204 489.28084,409.1592 C 488.22072,413.68447 485.15904,418.13853 483.36318,424.53878 C 481.93123,429.62576 480.95023,437.35511 480.95023,443.42308 L 480.47555,449.04802 L 483.7271,468.42282 C 486.71757,473.13796 491.4248,488.31186 495.44375,495.59817 C 500.26173,504.34808 507.65881,512.09325 511.50371,519.34793 C 504.95314,520.88272 487.89636,527.68645 482.80147,527.68645 L 480.0246,527.68645 C 465.62602,527.68645 454.58183,523.69915 443.7908,520.39222 C 438.77503,518.85742 412.40664,512.97141 407.84181,512.84483 L 392.97646,483.23279 L 391.06192,482.14103 L 388.34043,483.23279 C 388.34043,496.595 418.90182,538.39045 418.90182,552.6941 C 418.90182,554.77477 413.23732,560.09908 412.42246,560.09908 C 409.93039,560.09908 404.98583,554.27636 403.16622,552.6941 L 357.78695,498.05068 C 353.65725,495.29754 330.04198,466.23139 328.15118,461.01784 L 327.22556,450.82807 L 323.52306,450.82807 C 322.5658,452.64767 321.66391,453.55747 321.66391,456.38181 L 321.66391,459.16659 C 321.66391,462.52098 322.77149,462.41023 323.52306,465.64595 L 338.34095,485.09195 C 336.93274,484.75968 325.65912,482.31508 325.37431,482.31508 L 322.59744,482.31508 C 305.26376,482.31508 296.98062,494.72793 286.48231,501.75317 L 287.41585,501.82437 L 289.25918,467.4972 C 286.45067,463.07478 288.2228,448.0512 275.37483,448.0512 L 267.96193,448.0512 C 265.83379,448.0512 265.18506,448.69201 265.18506,450.82807 C 265.18506,455.93877 269.72616,452.67931 271.66443,452.67931 C 281.54565,452.67931 283.70544,462.96402 283.70544,473.05885 L 283.70544,481.38155 C 283.70544,493.95262 279.91592,504.9889 278.09632,517.44921 C 277.05994,524.51401 267.74833,545.60556 269.81318,549.90932 L 283.70544,548.99161 L 285.55669,548.99161 C 289.63892,548.99161 290.1848,554.94091 290.1848,559.16555 L 290.21645,562.25096 L 252.21843,565.65282 C 247.26595,566.14333 242.02866,561.26205 242.02866,556.39659 L 242.02866,550.84285 C 242.02866,537.10091 254.12505,523.91275 259.99524,515.09164 C 264.48096,508.35912 274.14858,483.1695 267.96193,470.27407 C 261.28479,470.42438 263.31799,473.20916 263.33382,480.46384 C 263.34173,486.65048 263.13603,489.05552 262.32117,494.26907 C 260.67562,504.80694 257.89875,507.62336 253.10449,514.49038 L 246.66469,515.64543 C 248.16784,509.18189 254.06967,503.42246 254.06967,495.27381 L 254.06967,493.42256 C 254.06967,491.90359 253.51588,490.64569 252.21843,490.64569 C 249.06972,490.64569 244.32294,509.35594 239.94798,514.49829 C 234.44171,520.95392 225.39117,524.44281 217.58271,529.16586 C 203.01008,537.99488 186.5862,549.90932 164.24466,549.90932 L 156.80803,550.11501 L 148.50115,548.99161 L 142.94741,552.6941 C 146.86351,553.6039 149.64829,555.46306 154.0628,555.46306 L 166.10381,555.46306 C 182.34573,555.46306 195.09877,546.16727 206.84706,543.42995 C 202.20312,553.09758 210.24101,564.73511 218.88016,564.73511 L 223.51619,564.73511 C 230.8658,564.73511 232.51135,558.12917 236.47492,555.46306 C 236.47492,565.17023 242.63783,571.20656 252.21843,571.20656 C 260.99207,571.20656 295.74645,569.38696 295.74645,562.88387 C 295.74645,552.44094 295.48538,544.26064 285.55669,543.42995 L 276.18178,543.39831 L 277.24981,539.67999 L 280.92857,541.57871 L 288.33356,541.57871 C 296.50594,540.89833 318.61805,531.65001 327.34423,528.72283 C 336.5609,525.64533 358.34865,518.65964 368.90234,518.43021 C 369.86752,522.06942 385.54774,540.44739 389.0208,544.60083 C 395.16789,551.96626 402.76275,565.65282 415.19933,565.65282 L 421.67869,560.09908 L 423.52994,559.16555 C 423.97297,564.42657 429.93019,570.28885 435.57095,570.28885 L 437.4222,570.28885 C 444.82718,570.28885 448.6167,560.8823 453.83817,556.14343 C 459.00425,551.47576 466.06905,546.43625 471.70191,542.52015 C 479.07525,537.3778 481.65433,534.68796 491.25075,531.50761 C 497.25544,529.51396 510.45941,526.26241 515.2062,523.98395 C 530.15858,533.99176 560.90193,567.50407 581.88272,567.50407 L 586.51875,567.50407 C 591.29718,567.50407 593.92374,563.65126 593.92374,559.16555 L 593.92374,557.3143 C 593.92374,534.76707 565.21359,522.34631 565.21359,508.24045 L 565.21359,497.12506 C 571.41606,495.47159 583.72606,481.98281 587.27032,476.58729 C 592.9902,467.88485 593.92374,454.05588 593.92374,439.71268 C 593.92374,413.12276 595.06297,421.6116 602.2939,404.56273 C 605.35558,397.35552 606.88246,376.58042 606.88246,365.63908 C 606.88246,341.36718 602.38093,314.37379 596.13099,295.82177 C 592.21489,284.18423 573.72616,249.88079 561.5111,249.88079 L 557.80861,249.88079 C 553.12511,249.88079 548.54446,253.22727 548.54446,258.21931 L 548.54446,260.07056 C 548.54446,266.02777 570.76733,294.95943 570.76733,321.18543 L 570.76733,323.9623 C 570.76733,335.9954 566.02055,374.89531 556.87507,374.89531 L 555.02382,374.89531 C 553.47321,374.89531 515.07962,362.59323 508.16513,360.63913 C 494.93742,356.9129 469.57376,354.51578 453.17362,354.51578 C 411.97151,354.51578 380.6981,362.06317 353.15883,375.82094 C 339.80454,382.49017 327.91384,391.34293 317.73199,401.51687 C 308.51531,410.73355 296.60879,423.48658 284.95543,429.84727 C 262.56642,442.07816 250.42256,431.12891 231.53035,437.55289 C 215.47039,443.01169 203.08919,448.63664 194.4263,461.5558 C 188.99124,469.65699 189.29978,473.3753 181.10366,478.79455 C 175.01986,482.82141 169.12593,487.17263 163.57219,491.82448 C 152.43307,501.12818 141.55502,510.867 134.6168,523.98395"
       id="path133"
       style="fill:#783d2c;fill-opacity:1;fill-rule:evenodd;stroke:none" />
    <path
       d="M 449.4553,374.89531 C 449.4553,377.60098 454.64512,386.00279 457.79382,386.00279 L 459.64507,386.00279 C 462.5327,386.00279 464.2811,381.42214 464.2811,378.59781 L 464.2811,373.04407 C 464.2811,370.9001 463.24471,367.49033 461.49631,367.49033 C 457.88876,367.49033 449.4553,372.5773 449.4553,374.89531"
       id="path135"
       style="fill:#7f82c6;fill-opacity:1;fill-rule:evenodd;stroke:none" />
    <path
       d="M 467.98359,390.63882 L 467.98359,394.34131 C 467.98359,399.19095 472.1212,404.53108 477.23982,404.53108 L 479.09898,404.53108 C 488.4185,404.53108 497.61936,396.51692 497.61936,386.93633 L 497.61936,383.22592 C 497.61936,377.38738 490.26975,370.25929 484.65272,370.25929 C 477.01831,370.25929 467.98359,382.25283 467.98359,390.63882"
       id="path137"
       style="fill:#7f82c6;fill-opacity:1;fill-rule:evenodd;stroke:none" />
    <path
       d="M 505.94997,396.19256 L 505.94997,397.11818 C 505.94997,400.23524 510.09549,404.53108 514.28849,404.53108 L 517.05745,404.53108 C 521.8517,404.53108 528.17284,398.89032 528.17284,394.34131 C 528.17284,390.37775 520.31691,385.08508 516.13973,385.08508 L 514.28849,385.08508 C 511.30592,385.08508 505.94997,392.66412 505.94997,396.19256"
       id="path139"
       style="fill:#7f82c6;fill-opacity:1;fill-rule:evenodd;stroke:none" />
    <path
       d="M 576.32898,279.51656 C 593.93165,304.84857 589.28771,372.54565 589.28771,415.63856 C 598.50439,405.0374 601.32872,387.3398 601.32872,367.49033 C 601.32872,345.21208 597.46009,317.88641 591.96173,300.91665 C 588.18804,289.23956 572.15972,258.27469 561.5111,255.43453"
       id="path141"
       style="fill:#a88d78;fill-opacity:1;fill-rule:evenodd;stroke:none" />
    <path
       d="M 328.15118,461.01784 C 330.04198,466.23139 353.65725,495.29754 357.78695,498.05068 L 355.01008,491.57132 C 358.60973,490.73272 365.6587,488.00331 367.63653,483.91317 L 368.90234,487.86882 L 373.17445,487.96376 L 371.6713,480.46384 L 373.89438,480.07618 L 378.15857,473.05885 L 375.28677,472.54461 L 378.23769,472.07785 L 377.28833,470.47976 L 380.16805,469.32471 L 380.94335,454.53056 C 380.99082,452.36286 380.63481,452.12552 379.54305,450.23472 L 385.56356,445.27433 C 380.35001,444.83921 378.1744,442.48955 371.6713,442.48955 L 362.41507,442.48955 C 354.70154,442.48955 346.71112,444.4832 340.53238,446.54014 C 330.74609,449.80751 328.15118,448.25689 328.15118,461.01784"
       id="path143"
       style="fill:#e9dac9;fill-opacity:1;fill-rule:evenodd;stroke:none" />
    <path
       d="M 505.94997,396.19256 C 505.94997,392.66412 511.30592,385.08508 514.28849,385.08508 L 516.13973,385.08508 C 520.31691,385.08508 528.17284,390.37775 528.17284,394.34131 C 528.17284,398.89032 521.8517,404.53108 517.05745,404.53108 L 514.28849,404.53108 C 510.09549,404.53108 505.94997,400.23524 505.94997,397.11818 L 505.94997,396.19256 z M 467.98359,390.63882 C 467.98359,382.25283 477.01831,370.25929 484.65272,370.25929 C 490.26975,370.25929 497.61936,377.38738 497.61936,383.22592 L 497.61936,386.93633 C 497.61936,396.51692 488.4185,404.53108 479.09898,404.53108 L 477.23982,404.53108 C 472.1212,404.53108 467.98359,399.19095 467.98359,394.34131 L 467.98359,390.63882 z M 449.4553,374.89531 C 449.4553,372.5773 457.88876,367.49033 461.49631,367.49033 C 463.24471,367.49033 464.2811,370.9001 464.2811,373.04407 L 464.2811,378.59781 C 464.2811,381.42214 462.5327,386.00279 459.64507,386.00279 L 457.79382,386.00279 C 454.64512,386.00279 449.4553,377.60098 449.4553,374.89531 M 567.99837,285.0703 C 570.98094,297.91826 576.32898,305.9878 576.32898,323.9623 C 576.32898,340.24377 571.43188,380.44905 556.87507,380.44905 L 552.25487,380.44905 C 549.11408,380.44905 517.25523,368.13905 508.02273,366.33528 C 493.54503,363.51885 474.2177,360.07743 456.87611,360.07743 L 449.4553,360.07743 C 404.91462,360.07743 374.03678,370.25929 345.43739,386.62779 C 326.33949,397.56122 291.67213,441.56392 270.7388,441.56392 C 255.45415,441.56392 247.51911,439.81552 233.50027,443.21739 C 225.72345,445.10819 209.57646,450.54326 207.77269,457.31534 L 208.79324,456.89604 L 211.08752,462.64757 C 218.40549,453.81854 211.11917,457.22041 224.4339,450.82807 C 227.13957,453.17773 230.92118,454.67296 230.92118,460.0843 L 230.92118,461.01784 C 230.92118,466.98296 228.78513,474.24555 225.36744,476.76134 C 224.53675,480.32143 220.46243,485.09195 217.02892,485.09195 L 214.25205,485.09195 C 209.64767,485.09195 207.86762,482.2597 207.77269,477.67906 C 205.69992,479.07145 204.52114,481.38155 202.21103,481.38155 C 199.74271,481.38155 199.47372,480.05245 198.50854,478.61259 L 187.40106,481.38155 C 172.04521,491.66625 153.10553,506.03319 142.94741,521.20708 C 145.84295,520.96974 146.23851,520.28146 149.43468,520.28146 L 151.28593,520.28146 C 158.94408,520.28146 157.70991,526.00925 160.54216,530.46332 C 180.07519,530.46332 208.69831,515.82739 218.67447,506.17559 C 225.763,499.31649 234.52083,494.34819 240.89734,487.65522 C 246.62513,481.64262 252.17096,467.4972 262.40028,467.4972 C 265.83379,467.4972 266.58537,468.39909 267.96193,470.27407 C 274.14858,483.1695 264.48096,508.35912 259.99524,515.09164 C 254.12505,523.91275 242.02866,537.10091 242.02866,550.84285 L 242.02866,556.39659 C 242.02866,561.26205 247.26595,566.14333 252.21843,565.65282 L 290.21645,562.25096 L 290.1848,559.16555 C 280.3194,559.16555 271.68025,557.9393 269.81318,549.90932 C 267.74833,545.60556 277.05994,524.51401 278.09632,517.44921 C 279.91592,504.9889 283.70544,493.95262 283.70544,481.38155 L 283.70544,473.05885 C 283.70544,462.96402 281.54565,452.67931 271.66443,452.67931 C 269.72616,452.67931 265.18506,455.93877 265.18506,450.82807 C 265.18506,448.69201 265.83379,448.0512 267.96193,448.0512 L 275.37483,448.0512 C 288.2228,448.0512 286.45067,463.07478 289.25918,467.4972 C 290.59619,466.85638 299.19579,464.72033 301.30019,464.72033 L 303.18309,464.41179 L 323.52306,465.64595 C 322.77149,462.41023 321.66391,462.52098 321.66391,459.16659 L 321.66391,456.38181 C 321.66391,453.55747 322.5658,452.64767 323.52306,450.82807 L 327.22556,450.82807 L 328.15118,461.01784 C 328.15118,448.25689 330.74609,449.80751 340.53238,446.54014 C 346.71112,444.4832 354.70154,442.48955 362.41507,442.48955 L 371.6713,442.48955 C 378.1744,442.48955 380.35001,444.83921 385.56356,445.27433 L 379.54305,450.23472 C 380.63481,452.12552 380.99082,452.36286 380.94335,454.53056 L 380.16805,469.32471 L 377.28833,470.47976 L 378.23769,472.07785 L 375.28677,472.54461 L 378.15857,473.05885 L 373.89438,480.07618 L 371.6713,480.46384 L 373.17445,487.96376 L 368.90234,487.86882 L 367.63653,483.91317 C 365.6587,488.00331 358.60973,490.73272 355.01008,491.57132 L 357.78695,498.05068 L 403.16622,552.6941 C 406.24372,547.82864 398.98114,526.73709 397.25648,521.54727 C 394.6853,513.73881 385.56356,500.91457 385.56356,494.34819 C 385.56356,493.4463 387.99233,483.78659 388.34043,483.23279 L 391.06192,482.14103 L 392.97646,483.23279 C 394.9622,480.95434 396.03022,478.61259 400.38144,478.61259 L 403.16622,478.61259 C 407.80225,478.61259 407.99212,480.98598 410.90349,482.90843 C 414.1313,485.0524 416.76577,484.6331 421.31477,485.4717 C 425.46821,486.23118 439.65319,484.72803 444.6294,483.96064 C 462.55643,481.21541 470.04053,478.44645 483.7271,471.19969 L 483.7271,468.42282 L 480.47555,449.04802 L 480.95023,443.42308 C 480.95023,437.35511 481.93123,429.62576 483.36318,424.53878 C 485.15904,418.13853 488.22072,413.68447 489.28084,409.1592 C 493.85357,409.26204 493.81402,409.22249 493.90895,413.7794 L 494.84249,411.01044 C 497.73012,410.76519 498.12568,410.08482 501.32185,410.08482 L 504.06708,410.32216 L 526.32159,412.86169 C 523.877,417.205 530.60161,415.78888 533.03038,418.24929 C 535.38004,420.6306 533.28354,420.89167 534.60473,422.29197 C 536.59838,424.42011 535.68858,421.20021 538.61577,425.57517 C 541.65371,430.12417 543.91634,442.22056 543.91634,449.90244 C 543.91634,457.9166 534.55726,467.52093 529.66016,471.7614 C 521.45613,478.8974 513.05432,477.67906 500.39623,477.67906 L 499.8899,481.4844 L 499.0513,478.47019 L 498.54498,480.46384 L 496.98645,479.75973 L 493.90895,478.61259 C 497.04974,492.06973 517.1682,518.29572 527.06525,526.00925 C 538.48127,534.91738 558.84499,555.73995 573.55211,559.16555 C 581.47925,546.6815 549.47008,530.77977 549.47008,510.09169 L 549.47008,501.75317 C 549.47008,494.44312 554.72319,488.43053 561.5111,487.86882 L 567.99837,477.67906 C 575.74355,466.10481 586.51875,442.01487 586.44755,422.99608 L 589.28771,419.34896 L 589.28771,415.63856 C 589.28771,372.54565 593.93165,304.84857 576.32898,279.51656 L 575.00779,279.2001 L 574.47774,282.28552 C 571.66922,281.13046 570.19772,281.81875 569.84962,286.00383"
       id="path145"
       style="fill:#dcc6a5;fill-opacity:1;fill-rule:evenodd;stroke:none" />
    <path
       d="M 493.90895,413.7794 C 490.45171,417.7667 486.50397,431.93586 486.50397,439.71268 L 486.50397,448.97682 C 486.50397,458.73938 490.49127,472.14905 493.90895,478.61259 L 496.98645,479.75973 L 498.54498,480.46384 L 499.0513,478.47019 L 499.8899,481.4844 L 500.39623,477.67906 C 513.05432,477.67906 521.45613,478.8974 529.66016,471.7614 C 534.55726,467.52093 543.91634,457.9166 543.91634,449.90244 C 543.91634,442.22056 541.65371,430.12417 538.61577,425.57517 C 535.68858,421.20021 536.59838,424.42011 534.60473,422.29197 C 533.28354,420.89167 535.38004,420.6306 533.03038,418.24929 C 530.60161,415.78888 523.877,417.205 526.32159,412.86169 L 504.06708,410.32216 L 501.32185,410.08482 C 498.12568,410.08482 497.73012,410.76519 494.84249,411.01044"
       id="path147"
       style="fill:#e4d1be;fill-opacity:1;fill-rule:evenodd;stroke:none" />
    <path
       d="M 567.99837,477.67906 C 569.78633,477.82937 571.70087,477.6395 571.70087,479.5303 C 571.70087,482.59989 567.99837,485.71695 567.06484,489.72007 C 588.94752,475.06832 589.28771,454.89448 589.28771,419.34896 L 586.44755,422.99608 C 586.51875,442.01487 575.74355,466.10481 567.99837,477.67906"
       id="path149"
       style="fill:#a88d78;fill-opacity:1;fill-rule:evenodd;stroke:none" />
    <path
       d="M 226.28515,468.42282 L 227.2978,466.61904 L 227.21869,463.79471 C 225.17757,463.83426 222.58266,463.5099 222.58266,465.64595 C 222.58266,468.43864 223.68233,468.20131 226.28515,468.42282"
       id="path151"
       style="fill:#faf9f8;fill-opacity:1;fill-rule:evenodd;stroke:none" />
    <path
       d="M 206.84706,469.34845 L 207.77269,466.57158 L 206.84706,465.64595 C 203.99899,467.73454 205.35182,465.0526 204.99582,469.34845"
       id="path153"
       style="fill:#faf9f8;fill-opacity:1;fill-rule:evenodd;stroke:none" />
    <path
       d="M 217.02892,466.57158 L 217.02892,469.34845 L 220.78679,469.33262 L 221.66495,472.12532 L 225.36744,472.12532 L 226.28515,468.42282 C 223.68233,468.20131 222.58266,468.43864 222.58266,465.64595 C 222.58266,463.5099 225.17757,463.83426 227.21869,463.79471 L 228.1364,461.93555 C 226.06363,461.46087 226.00826,461.01784 223.51619,461.01784 C 219.1175,461.01784 217.86752,462.97193 217.02892,466.57158"
       id="path155"
       style="fill:#7ea9b7;fill-opacity:1;fill-rule:evenodd;stroke:none" />
    <path
       d="M 202.21103,470.27407 L 205.58916,474.23764 L 206.84706,469.34845 L 204.99582,469.34845 C 205.35182,465.0526 203.99899,467.73454 206.84706,465.64595 L 207.77269,466.57158 L 207.77269,460.0843 L 207.77269,463.79471 C 203.50058,464.15071 202.57495,465.98614 202.21103,470.27407"
       id="path157"
       style="fill:#7ea9b7;fill-opacity:1;fill-rule:evenodd;stroke:none" />
    <path
       d="M 216.10329,471.19969 L 217.02892,473.97656 C 218.16024,473.34366 218.01783,473.05885 219.8137,473.05885 C 223.69024,473.05885 221.75197,472.97974 222.58266,473.97656 L 224.4339,474.9101 L 225.36744,472.12532 L 221.66495,472.12532 L 220.78679,469.33262 L 217.02892,469.34845 L 217.02892,466.57158"
       id="path159"
       style="fill:#5f7fac;fill-opacity:1;fill-rule:evenodd;stroke:none" />
    <path
       d="M 217.96245,481.38155 C 217.06847,477.58412 216.10329,478.68379 216.10329,473.97656 L 216.10329,471.19969 L 217.02892,466.57158 C 217.86752,462.97193 219.1175,461.01784 223.51619,461.01784 C 226.00826,461.01784 226.06363,461.46087 228.1364,461.93555 L 226.22186,454.5543 L 223.51619,454.53056 C 214.67926,454.53056 210.54956,469.47503 210.54956,478.61259 C 210.54956,481.33408 212.44827,483.23279 215.17767,483.23279 C 216.26943,483.23279 217.33746,481.94325 217.96245,481.38155"
       id="path161"
       style="fill:#faf9f8;fill-opacity:1;fill-rule:evenodd;stroke:none" />
    <path
       d="M 217.96245,481.38155 L 219.8137,481.38155 L 220.73141,479.5303 C 219.30738,477.40216 218.96719,477.67114 218.88016,473.97656 L 222.58266,473.97656 C 221.75197,472.97974 223.69024,473.05885 219.8137,473.05885 C 218.01783,473.05885 218.16024,473.34366 217.02892,473.97656 L 216.10329,471.19969 L 216.10329,473.97656 C 216.10329,478.68379 217.06847,477.58412 217.96245,481.38155"
       id="path163"
       style="fill:#3d5b66;fill-opacity:1;fill-rule:evenodd;stroke:none" />
    <path
       d="M 220.73141,479.5303 L 225.36744,476.76134 L 224.4339,474.9101 L 222.58266,473.97656 L 218.88016,473.97656 C 218.96719,477.67114 219.30738,477.40216 220.73141,479.5303"
       id="path165"
       style="fill:#2a3132;fill-opacity:1;fill-rule:evenodd;stroke:none" />
    <path
       d="M 187.40106,481.38155 L 198.50854,478.61259 L 198.10506,465.63804 C 193.04974,471.93544 194.94054,474.83098 187.40106,481.38155"
       id="path167"
       style="fill:#a5866d;fill-opacity:1;fill-rule:evenodd;stroke:none" />
    <path
       d="M 202.21103,470.27407 C 202.57495,465.98614 203.50058,464.15071 207.77269,463.79471 L 207.77269,460.0843 L 207.00529,459.00836 C 203.2395,461.57954 200.35979,466.15228 200.35979,472.12532 L 200.35979,475.82781 C 200.35979,478.62841 201.45155,478.39107 204.07019,478.61259"
       id="path169"
       style="fill:#f7f8f8;fill-opacity:1;fill-rule:evenodd;stroke:none" />
    <path
       d="M 289.25918,467.4972 L 287.41585,501.82437 L 286.48231,501.75317 C 296.98062,494.72793 305.26376,482.31508 322.59744,482.31508 L 325.37431,482.31508 C 325.65912,482.31508 336.93274,484.75968 338.34095,485.09195 L 323.52306,465.64595 L 303.18309,464.41179 L 301.30019,464.72033 C 299.19579,464.72033 290.59619,466.85638 289.25918,467.4972"
       id="path171"
       style="fill:#aa9078;fill-opacity:1;fill-rule:evenodd;stroke:none" />
    <path
       d="M 160.54216,530.46332 C 160.54216,542.1325 152.28275,543.35084 148.50115,548.99161 L 156.80803,550.11501 L 164.24466,549.90932 C 186.5862,549.90932 203.01008,537.99488 217.58271,529.16586 C 225.39117,524.44281 234.44171,520.95392 239.94798,514.49829 C 244.32294,509.35594 249.06972,490.64569 252.21843,490.64569 C 253.51588,490.64569 254.06967,491.90359 254.06967,493.42256 L 254.06967,495.27381 C 254.06967,503.42246 248.16784,509.18189 246.66469,515.64543 L 253.10449,514.49038 C 257.89875,507.62336 260.67562,504.80694 262.32117,494.26907 C 263.13603,489.05552 263.34173,486.65048 263.33382,480.46384 C 263.31799,473.20916 261.28479,470.42438 267.96193,470.27407 C 266.58537,468.39909 265.83379,467.4972 262.40028,467.4972 C 252.17096,467.4972 246.62513,481.64262 240.89734,487.65522 C 234.52083,494.34819 225.763,499.31649 218.67447,506.17559 C 208.69831,515.82739 180.07519,530.46332 160.54216,530.46332"
       id="path173"
       style="fill:#aa9078;fill-opacity:1;fill-rule:evenodd;stroke:none" />
    <path
       d="M 392.97646,483.23279 L 407.84181,512.84483 C 412.40664,512.97141 438.77503,518.85742 443.7908,520.39222 C 454.58183,523.69915 465.62602,527.68645 480.0246,527.68645 L 482.80147,527.68645 C 487.89636,527.68645 504.95314,520.88272 511.50371,519.34793 C 507.65881,512.09325 500.26173,504.34808 495.44375,495.59817 C 491.4248,488.31186 486.71757,473.13796 483.7271,468.42282 L 483.7271,471.19969 C 470.04053,478.44645 462.55643,481.21541 444.6294,483.96064 C 439.65319,484.72803 425.46821,486.23118 421.31477,485.4717 C 416.76577,484.6331 414.1313,485.0524 410.90349,482.90843 C 407.99212,480.98598 407.80225,478.61259 403.16622,478.61259 L 400.38144,478.61259 C 396.03022,478.61259 394.9622,480.95434 392.97646,483.23279"
       id="path175"
       style="fill:#aa9078;fill-opacity:1;fill-rule:evenodd;stroke:none" />
    <path
       d="M 282.77982,536.95059 C 290.23227,536.95059 313.90291,527.35417 322.25726,524.56939 C 330.86476,521.69759 353.2063,513.79419 362.41507,513.79419 C 361.15717,509.09487 340.54029,489.72007 334.63846,489.72007 C 333.57834,489.72007 330.30306,495.43204 328.87111,496.91145 C 326.26829,499.62503 325.2952,500.25002 322.42339,502.50475 C 317.85066,506.10439 312.90609,509.75942 307.47893,512.56793 C 298.26225,517.35428 282.77982,524.21338 282.77982,536.95059"
       id="path177"
       style="fill:#aa9078;fill-opacity:1;fill-rule:evenodd;stroke:none" />
    <path
       d="M 119.79892,539.72746 L 119.79892,541.57871 C 119.79892,543.89672 124.42703,540.69264 124.42703,545.2812 L 124.42703,548.05807 L 124.37956,549.8302 L 122.57579,550.84285 L 125.35265,555.46306 L 137.39367,550.84285 C 137.6231,548.08972 140.17054,542.52806 140.17054,542.50433 C 140.17054,537.3066 135.8747,531.38894 131.83993,531.38894 C 128.64376,531.38894 121.19131,537.63888 119.79892,539.72746"
       id="path179"
       style="fill:#252e31;fill-opacity:1;fill-rule:evenodd;stroke:none" />
    <path
       d="M 285.55669,543.42995 L 288.33356,541.57871 L 280.92857,541.57871 L 277.24981,539.67999 L 276.18178,543.39831"
       id="path181"
       style="fill:#e2d3c3;fill-opacity:1;fill-rule:evenodd;stroke:none" />
    <path
       d="M 74.427552,548.05807 C 79.095225,546.80808 79.85471,541.1515 81.25501,536.37307 C 83.4148,529.01555 84.05562,529.03137 87.75811,523.43016 C 93.40678,514.87012 103.82598,511.99832 104.05541,501.75317 C 91.85617,502.77373 74.427552,531.36521 74.427552,548.05807"
       id="path183"
       style="fill:#ee1c29;fill-opacity:1;fill-rule:evenodd;stroke:none" />
    <path
       d="M 125.35265,555.46306 C 121.6739,555.77951 123.12958,556.39659 120.72454,556.39659 C 118.03469,556.39659 112.39393,554.07067 112.39393,550.84285 C 112.39393,546.27011 116.05687,540.72429 119.79892,539.72746 C 121.19131,537.63888 128.64376,531.38894 131.83993,531.38894 C 135.8747,531.38894 140.17054,537.3066 140.17054,542.50433 C 140.17054,542.52806 137.6231,548.08972 137.39367,550.84285 L 125.35265,555.46306 z M 110.54268,549.90932 L 110.54268,550.84285 C 110.54268,553.65928 111.42875,554.57699 112.40975,556.28583 L 120.72454,557.3143 C 136.51551,559.6877 151.00112,540.36037 156.83967,538.80184 C 157.07701,535.89839 157.76529,535.50282 157.76529,532.32247 L 157.76529,529.53769 C 157.76529,525.57413 154.91722,522.13271 151.28593,522.13271 C 136.13577,522.13271 110.54268,537.67843 110.54268,549.90932"
       id="path185"
       style="fill:#0f1210;fill-opacity:1;fill-rule:evenodd;stroke:none" />
    <path
       d="M 121.65016,550.84285 L 122.57579,550.84285 L 124.37956,549.8302 L 124.42703,548.05807 L 124.42703,545.2812 C 124.42703,540.69264 119.79892,543.89672 119.79892,541.57871 L 117.94767,542.50433"
       id="path187"
       style="fill:#71797b;fill-opacity:1;fill-rule:evenodd;stroke:none" />
    <path
       d="M 93.87355,556.39659 L 98.50167,552.6941 C 98.50167,532.18007 118.87329,530.14686 118.87329,523.05833 C 118.87329,522.23555 117.84482,521.20708 117.02205,521.20708 C 113.10595,521.20708 101.99056,530.64528 99.79121,533.60411 C 94.82291,540.28125 91.33402,545.51063 93.87355,556.39659"
       id="path189"
       style="fill:#ed1a29;fill-opacity:1;fill-rule:evenodd;stroke:none" />
    <path
       d="M 121.65016,550.84285 L 117.94767,542.50433 C 116.99831,543.20053 115.16289,544.78279 115.16289,546.20682 C 115.16289,549.22103 119.29259,553.65928 121.65016,550.84285"
       id="path191"
       style="fill:#f2f1f0;fill-opacity:1;fill-rule:evenodd;stroke:none" />
    <path
       d="M 403.16622,552.6941 C 404.98583,554.27636 409.93039,560.09908 412.42246,560.09908 C 413.23732,560.09908 418.90182,554.77477 418.90182,552.6941 C 418.90182,538.39045 388.34043,496.595 388.34043,483.23279 C 387.99233,483.78659 385.56356,493.4463 385.56356,494.34819 C 385.56356,500.91457 394.6853,513.73881 397.25648,521.54727 C 398.98114,526.73709 406.24372,547.82864 403.16622,552.6941"
       id="path193"
       style="fill:#a88d78;fill-opacity:1;fill-rule:evenodd;stroke:none" />
    <path
       d="M 125.35265,555.46306 L 122.57579,550.84285 L 121.65016,550.84285 C 119.29259,553.65928 115.16289,549.22103 115.16289,546.20682 C 115.16289,544.78279 116.99831,543.20053 117.94767,542.50433 L 119.79892,541.57871 L 119.79892,539.72746 C 116.05687,540.72429 112.39393,546.27011 112.39393,550.84285 C 112.39393,554.07067 118.03469,556.39659 120.72454,556.39659 C 123.12958,556.39659 121.6739,555.77951 125.35265,555.46306"
       id="path195"
       style="fill:#526365;fill-opacity:1;fill-rule:evenodd;stroke:none" />
    <path
       d="M 221.66495,559.16555 C 229.73448,559.16555 241.11095,537.82084 241.11095,528.61207 L 241.11095,523.05833 C 237.2344,523.96022 226.56205,530.7323 222.28994,532.94747 C 215.02736,536.69743 211.47518,539.30816 211.47518,549.90932 C 211.47518,556.19881 215.27261,559.16555 221.66495,559.16555"
       id="path197"
       style="fill:#a88d78;fill-opacity:1;fill-rule:evenodd;stroke:none" />
    <path
       d="M 269.81318,549.90932 C 271.68025,557.9393 280.3194,559.16555 290.1848,559.16555 C 290.1848,554.94091 289.63892,548.99161 285.55669,548.99161 L 283.70544,548.99161"
       id="path199"
       style="fill:#aa9078;fill-opacity:1;fill-rule:evenodd;stroke:none" />
    <path
       d="M 110.54268,549.90932 C 110.54268,537.67843 136.13577,522.13271 151.28593,522.13271 C 154.91722,522.13271 157.76529,525.57413 157.76529,529.53769 L 157.76529,532.32247 C 157.76529,535.50282 157.07701,535.89839 156.83967,538.80184 C 151.00112,540.36037 136.51551,559.6877 120.72454,557.3143 L 112.40975,556.28583 C 111.42875,554.57699 110.54268,553.65928 110.54268,550.84285 L 110.54268,549.90932 z M 142.94741,521.20708 L 134.6168,523.98395 C 127.77352,527.60733 108.68353,539.48221 108.68353,548.05807 L 108.68353,551.76848 C 108.68353,556.539 112.53633,559.16555 117.02205,559.16555 L 124.42703,559.16555 C 132.06936,559.16555 136.99019,554.07858 142.94741,552.6941 L 148.50115,548.99161 C 152.28275,543.35084 160.54216,542.1325 160.54216,530.46332 C 157.70991,526.00925 158.94408,520.28146 151.28593,520.28146 L 149.43468,520.28146 C 146.23851,520.28146 145.84295,520.96974 142.94741,521.20708"
       id="path201"
       style="fill:#5c7c82;fill-opacity:1;fill-rule:evenodd;stroke:none" />
    <path
       d="M 573.55211,559.16555 C 575.87804,560.79528 578.92389,561.95033 582.80835,561.95033 L 585.58522,561.95033 C 587.72127,561.95033 588.37,561.3016 588.37,559.16555 L 588.37,558.24784 C 588.37,534.83036 558.73423,529.90953 558.73423,502.68671 C 558.73423,497.89245 561.0918,492.93997 561.5111,487.86882 C 554.72319,488.43053 549.47008,494.44312 549.47008,501.75317 L 549.47008,510.09169 C 549.47008,530.77977 581.47925,546.6815 573.55211,559.16555"
       id="path203"
       style="fill:#aa9078;fill-opacity:1;fill-rule:evenodd;stroke:none" />
    <path
       d="M 436.49657,564.73511 C 439.5187,564.73511 450.5708,551.26215 454.83499,547.88402 C 461.17195,542.86825 468.63232,538.31134 474.46295,533.24019 L 442.81771,526.52348 C 439.7323,531.96647 428.16596,548.86502 428.16596,556.39659 C 428.16596,559.6877 433.19756,564.73511 436.49657,564.73511"
       id="path205"
       style="fill:#aa9078;fill-opacity:1;fill-rule:evenodd;stroke:none" />
    <path
       d="M 415.19933,565.65282 C 419.54264,564.64809 418.65657,563.97563 421.67869,561.95033 L 421.67869,560.09908"
       id="path207"
       style="fill:#af967e;fill-opacity:1;fill-rule:evenodd;stroke:none" />
    <path
       d="M 114.24518,571.20656 L 130.9064,571.20656 L 130.9064,569.35532 L 128.90483,569.205 L 129.98868,568.43761 L 114.24518,567.50407 L 117.25147,568.74615"
       id="path209"
       style="fill:#f26d72;fill-opacity:1;fill-rule:evenodd;stroke:none" />
    <path
       d="M 127.2039,571.20656 L 131.83993,573.05781 L 135.71647,572.99452 L 134.6168,570.28885 L 131.83993,568.43761 L 129.98868,568.43761 L 128.90483,569.205 L 130.9064,569.35532 L 130.9064,571.20656"
       id="path211"
       style="fill:#ee333b;fill-opacity:1;fill-rule:evenodd;stroke:none" />
    <path
       d="M 131.83993,573.05781 L 139.11042,575.81095 L 140.17054,573.05781 L 136.46805,570.28885 L 134.6168,570.28885 L 135.71647,572.99452"
       id="path213"
       style="fill:#ee1f2c;fill-opacity:1;fill-rule:evenodd;stroke:none" />
    <path
       d="M 148.50115,592.51172 L 149.43468,592.51172 L 144.79866,577.69384 L 140.17054,573.05781 L 139.11042,575.81095 L 131.83993,573.05781 L 127.2039,571.20656 L 114.24518,571.20656 L 114.24518,572.1401 C 125.23399,572.1401 127.89219,574.18913 133.88105,578.42959 C 137.7655,581.17482 144.45847,587.77285 145.73219,592.51172"
       id="path215"
       style="fill:#ec1a29;fill-opacity:1;fill-rule:evenodd;stroke:none" />
    <path
       d="M 149.43468,592.51172 L 153.13718,591.5861 L 146.6499,578.61946 L 144.79866,577.69384"
       id="path217"
       style="fill:#d71e2a;fill-opacity:1;fill-rule:evenodd;stroke:none" />
    <path
       d="M 75.353175,596.21422 L 76.255064,598.01799 L 79.055668,597.13984 L 82.75025,592.51172 C 87.10147,584.29187 101.26272,572.1401 114.24518,572.1401 L 114.24518,571.20656 L 117.25147,568.74615 L 114.24518,567.50407 C 97.58396,568.89646 82.78981,585.09883 75.353175,596.21422"
       id="path219"
       style="fill:#f5aab0;fill-opacity:1;fill-rule:evenodd;stroke:none" />
    <path
       d="M 581.83525,603.2711 C 582.55518,600.73157 584.19282,595.28859 587.43646,595.28859 L 588.37,595.28859 C 591.42376,595.28859 594.16108,599.18887 594.8098,601.51479 L 581.83525,603.2711 z M 567.06484,626.7677 C 571.95403,628.07306 579.6992,636.03184 590.22124,636.03184 L 596.6927,636.03184 C 603.67047,636.03184 603.84452,635.10622 607.62613,632.13156 C 610.58496,629.80564 614.87289,629.67906 617.99785,627.70123 C 611.5976,618.95923 607.87138,623.0652 597.62623,623.0652 L 593.92374,623.0652 C 588.52822,623.0652 581.50298,620.65225 580.03148,616.58584 C 578.59953,613.35803 592.27818,609.51313 596.54238,608.097 C 605.69577,605.06697 608.06125,606.53056 617.10388,601.76004 L 616.14661,597.13984 C 613.44885,587.0371 597.09617,581.39633 583.73397,581.39633 C 572.05688,581.39633 559.65985,593.58766 559.65985,605.47045 L 559.65985,611.0321 C 559.65985,618.13646 563.68671,622.88324 567.06484,626.7677"
       id="path221"
       style="fill:#8184c7;fill-opacity:1;fill-rule:evenodd;stroke:none" />
    <path
       d="M 129.98868,588.80132 L 136.46805,597.13984 L 139.24492,595.28859 L 137.59145,595.09081 L 134.6168,592.51172 L 134.6168,590.66048 L 129.98868,586.02445"
       id="path223"
       style="fill:#9a262c;fill-opacity:1;fill-rule:evenodd;stroke:none" />
    <path
       d="M 134.6168,590.66048 L 134.6168,592.51172 L 137.59145,595.09081 L 139.24492,595.28859 L 142.02179,594.36297 L 142.94741,592.51172 C 138.20062,590.59719 142.31451,585.91369 130.47918,583.52447"
       id="path225"
       style="fill:#ec1b28;fill-opacity:1;fill-rule:evenodd;stroke:none" />
    <path
       d="M 89.23752,616.58584 L 93.87355,621.21396 C 93.54128,619.81365 92.0223,614.71877 92.0223,613.80897 C 92.0223,604.39451 107.5443,584.1732 116.09642,584.1732 L 120.72454,584.1732 C 124.17387,584.1732 127.61529,586.83931 129.05515,588.80132 L 129.98868,588.80132 L 129.98868,586.02445 C 127.85263,582.83619 123.23242,580.47071 117.94767,580.47071 L 117.02205,580.47071 C 112.33855,580.47071 112.10121,581.95803 107.7579,582.32196 C 106.11235,588.50069 89.23752,594.04652 89.23752,616.58584"
       id="path227"
       style="fill:#7a262c;fill-opacity:1;fill-rule:evenodd;stroke:none" />
    <path
       d="M 249.44156,615.66022 C 245.73906,616.80736 250.24851,604.71096 252.01273,602.48788 C 253.1124,601.10341 261.7832,595.28859 264.25944,595.28859 L 270.7388,595.28859 C 276.78304,595.28859 282.12318,598.33445 283.70544,602.70149 L 286.48231,610.10648 C 282.81146,617.03678 273.86377,631.40372 264.25944,631.40372 C 252.6219,631.40372 253.36557,621.84686 249.44156,615.66022 M 246.66469,641.58558 C 253.42095,641.58558 253.45259,643.43683 258.69779,643.43683 L 263.33382,643.43683 C 272.91441,643.43683 286.41111,634.6078 289.57563,628.94331 C 291.90156,624.79778 289.275,626.75187 293.38888,622.55888 C 295.05817,620.85795 296.30025,618.63487 297.2496,616.23774 C 298.87933,612.13177 299.82078,601.72049 300.37457,600.84233 C 295.15311,593.04178 286.35573,583.24758 273.52358,583.24758 L 269.81318,583.24758 C 256.06332,583.24758 230.92118,605.88975 230.92118,619.36271 L 230.92118,623.99874 C 230.92118,630.76291 241.26917,640.15363 246.66469,641.58558"
       id="path229"
       style="fill:#8184c7;fill-opacity:1;fill-rule:evenodd;stroke:none" />
    <path
       d="M 149.43468,592.51172 L 148.50115,592.51172 L 142.02179,594.36297 L 139.24492,595.28859 L 136.46805,597.13984 L 139.24492,599.91671 L 154.0628,595.28859 L 153.13718,591.5861"
       id="path231"
       style="fill:#60272a;fill-opacity:1;fill-rule:evenodd;stroke:none" />
    <path
       d="M 249.44156,615.66022 C 249.44156,605.72361 260.09018,598.06546 269.81318,598.06546 C 276.42704,598.06546 279.42542,601.55435 283.70544,602.70149 C 282.12318,598.33445 276.78304,595.28859 270.7388,595.28859 L 264.25944,595.28859 C 261.7832,595.28859 253.1124,601.10341 252.01273,602.48788 C 250.24851,604.71096 245.73906,616.80736 249.44156,615.66022"
       id="path233"
       style="fill:#7576b6;fill-opacity:1;fill-rule:evenodd;stroke:none" />
    <path
       d="M 376.30733,601.76796 L 378.15857,605.47045 C 381.14114,603.88819 386.59994,601.76796 391.12521,601.76796 C 396.23592,601.76796 397.31977,603.61129 401.31498,604.55274 L 401.31498,601.76796 C 397.15363,600.66037 396.5761,598.06546 390.19168,598.06546 L 389.27396,598.06546 C 386.39425,598.06546 380.91171,600.5417 379.06837,601.84707"
       id="path235"
       style="fill:#7478bb;fill-opacity:1;fill-rule:evenodd;stroke:none" />
    <path
       d="M 140.17054,602.70149 L 143.87303,602.70149 C 146.86351,602.70149 147.85242,601.49106 150.92992,600.48632 C 155.15456,599.11767 155.47893,600.16196 155.91405,596.21422 C 151.22264,597.30598 141.72907,598.38983 140.17054,602.70149"
       id="path237"
       style="fill:#b8ac99;fill-opacity:1;fill-rule:evenodd;stroke:none" />
    <path
       d="M 187.40106,603.6192 C 188.07352,600.73157 189.70325,595.28859 192.9548,595.28859 L 193.88042,595.28859 C 196.9421,595.28859 199.6715,599.18887 200.35979,601.76796 L 187.40106,603.6192 z M 179.99608,633.25497 L 182.82041,632.31352 L 183.69066,635.10622 C 194.10194,635.10622 196.34875,637.55872 204.96417,634.15686 C 210.76316,631.87049 218.32637,631.30088 223.51619,627.70123 C 217.10803,618.95923 213.38972,623.0652 203.13666,623.0652 L 199.43416,623.0652 C 194.03865,623.0652 187.01341,620.65225 185.54982,616.58584 C 187.40106,611.46722 190.80293,612.7805 194.82978,610.28053 L 203.88032,608.54795 L 224.4339,601.76796 C 217.5748,588.80923 209.95621,581.39633 190.17793,581.39633 C 177.55148,581.39633 165.17028,593.16045 165.17028,605.47045 L 165.17028,611.0321 C 165.17028,618.6586 174.38696,631.75973 179.99608,633.25497"
       id="path239"
       style="fill:#8184c7;fill-opacity:1;fill-rule:evenodd;stroke:none" />
    <path
       d="M 140.17054,602.70149 C 141.72907,598.38983 151.22264,597.30598 155.91405,596.21422 C 155.47893,600.16196 155.15456,599.11767 150.92992,600.48632 C 147.85242,601.49106 146.86351,602.70149 143.87303,602.70149 L 140.17054,602.70149 z M 154.0628,595.28859 L 139.24492,599.91671 L 138.31929,603.6192 C 144.14202,603.6192 156.83967,602.65402 156.83967,598.06546 C 156.83967,595.55758 156.39664,595.51011 155.66088,593.27121"
       id="path241"
       style="fill:#d8d1c3;fill-opacity:1;fill-rule:evenodd;stroke:none" />
    <path
       d="M 146.6499,578.61946 L 153.13718,591.5861 L 154.0628,595.28859 L 155.66088,593.27121 C 156.39664,595.51011 156.83967,595.55758 156.83967,598.06546 C 156.83967,602.65402 144.14202,603.6192 138.31929,603.6192 C 139.40314,605.17773 138.45378,605.47045 141.09616,605.47045 L 142.02179,605.47045 C 149.43468,605.47045 150.2179,602.70149 156.83967,602.70149 C 157.18777,601.20625 158.69092,598.0892 158.69092,598.06546 C 158.69092,589.21271 152.36187,583.45327 148.45368,577.61473"
       id="path243"
       style="fill:#edeae2;fill-opacity:1;fill-rule:evenodd;stroke:none" />
    <path
       d="M 72.568394,601.76796 L 73.87376,603.93565 L 79.055668,597.13984 L 76.255064,598.01799 L 75.353175,596.21422"
       id="path245"
       style="fill:#f28287;fill-opacity:1;fill-rule:evenodd;stroke:none" />
    <path
       d="M 324.44869,620.29624 C 324.44869,612.7093 332.09893,605.47045 339.26657,605.47045 C 346.22853,605.47045 349.05286,609.20459 353.15883,611.95772 C 354.32971,610.20141 365.19985,598.38983 365.19985,598.06546 C 365.19985,596.70472 364.05271,596.70472 363.3486,596.21422 C 361.4578,597.85186 352.77118,606.40398 351.30759,606.40398 C 349.37723,606.40398 343.63362,603.42933 342.96907,601.76796 L 335.55617,601.76796 C 330.84103,601.76796 326.67177,610.47831 322.59744,611.95772 L 322.59744,620.29624"
       id="path247"
       style="fill:#7478bb;fill-opacity:1;fill-rule:evenodd;stroke:none" />
    <path
       d="M 511.50371,643.43683 L 515.2062,639.73433 L 520.75994,639.73433 C 520.75994,633.95117 515.16664,606.40398 520.75994,606.40398 L 524.47034,606.40398 C 544.38311,606.40398 537.49236,626.94966 536.51136,638.80871 L 552.25487,640.65996 L 555.02382,622.14749 C 558.16461,602.06859 540.49866,592.51172 522.6191,592.51172 L 516.07644,592.51172 L 513.35495,555.46306 L 497.95163,555.45515 L 502.27912,644.59979"
       id="path249"
       style="fill:#8186c7;fill-opacity:1;fill-rule:evenodd;stroke:none" />
    <path
       d="M 79.055668,597.13984 L 73.87376,603.93565 L 72.568394,601.76796 L 70.717147,612.88335 L 73.850026,617.41653 L 77.204422,602.70149 L 82.75025,592.51172"
       id="path251"
       style="fill:#ee333b;fill-opacity:1;fill-rule:evenodd;stroke:none" />
    <path
       d="M 154.98842,612.88335 L 156.76847,612.84379 L 158.69092,610.10648 L 156.11183,609.22832"
       id="path253"
       style="fill:#ee1c29;fill-opacity:1;fill-rule:evenodd;stroke:none" />
    <path
       d="M 122.57579,611.95772 L 123.50141,613.80897 L 127.2039,613.80897 L 154.98842,612.88335 L 156.11183,609.22832 L 158.69092,610.10648 L 158.69092,611.95772 L 159.61654,611.95772 L 159.61654,608.25523 C 153.25585,608.25523 124.52197,607.13182 122.57579,611.95772"
       id="path255"
       style="fill:#f28287;fill-opacity:1;fill-rule:evenodd;stroke:none" />
    <path
       d="M 185.54982,616.58584 L 225.4782,605.4388 L 224.4339,601.76796 L 203.88032,608.54795 L 194.82978,610.28053 C 190.80293,612.7805 187.40106,611.46722 185.54982,616.58584"
       id="path257"
       style="fill:#8184c7;fill-opacity:1;fill-rule:evenodd;stroke:none" />
    <path
       d="M 104.98103,598.06546 L 115.16289,589.72694 L 119.79892,586.02445 L 113.31164,586.02445 C 107.37025,590.00384 93.87355,603.27902 93.87355,611.95772 L 93.87355,616.58584 L 95.7248,616.58584 C 96.20739,610.69982 101.37347,600.71575 104.98103,598.06546"
       id="path259"
       style="fill:#bfbd9e;fill-opacity:1;fill-rule:evenodd;stroke:none" />
    <path
       d="M 580.03148,616.58584 L 620.14182,605.35178 L 616.14661,597.13984 L 617.10388,601.76004 C 608.06125,606.53056 605.69577,605.06697 596.54238,608.097 C 592.27818,609.51313 578.59953,613.35803 580.03148,616.58584"
       id="path261"
       style="fill:#7576b6;fill-opacity:1;fill-rule:evenodd;stroke:none" />
    <path
       d="M 121.65016,616.58584 C 126.02512,616.4909 125.28937,617.52729 126.28619,613.80897 L 123.50141,613.80897 L 122.57579,611.95772"
       id="path263"
       style="fill:#ee333b;fill-opacity:1;fill-rule:evenodd;stroke:none" />
    <path
       d="M 394.8277,625.84998 C 394.8277,614.17289 398.3957,618.43709 407.78643,618.43709 L 408.71996,616.58584 C 405.48424,615.83427 405.60291,614.73459 402.23269,614.73459 L 399.45582,614.73459 C 396.33876,614.73459 392.97646,616.37223 392.97646,619.36271 L 392.97646,621.21396 C 392.97646,624.23608 393.45114,624.26772 394.8277,625.84998"
       id="path265"
       style="fill:#787cbe;fill-opacity:1;fill-rule:evenodd;stroke:none" />
    <path
       d="M 98.50167,631.40372 L 97.59978,627.82781 L 100.35291,626.7677 L 94.79126,621.21396 L 93.87355,621.21396 L 89.23752,616.58584 L 88.31981,606.40398 C 86.52394,608.46092 85.53503,610.83432 85.53503,614.73459 L 85.53503,616.58584 C 85.53503,620.83421 85.92269,623.10476 89.23752,623.99874 L 89.23752,626.7677 C 89.23752,630.23285 94.90993,631.32461 98.50167,631.40372"
       id="path267"
       style="fill:#ec1b28;fill-opacity:1;fill-rule:evenodd;stroke:none" />
    <path
       d="M 447.60405,620.29624 C 447.60405,612.7093 455.2622,605.47045 462.42985,605.47045 C 469.38389,605.47045 472.21614,609.20459 476.3142,611.95772 C 477.49298,610.20141 488.35521,598.38983 488.35521,598.06546 C 488.35521,596.70472 487.21598,596.70472 486.50397,596.21422 C 480.46764,600.40721 477.6433,608.25523 473.53733,608.25523 C 471.24305,608.25523 467.96777,602.70149 463.34756,602.70149 L 459.64507,602.70149 C 457.0818,602.70149 457.42199,603.41351 456.87611,605.47045 C 451.58344,605.58912 444.8351,613.3422 444.8351,616.58584 L 444.8351,620.29624"
       id="path269"
       style="fill:#7576b6;fill-opacity:1;fill-rule:evenodd;stroke:none" />
    <path
       d="M 121.65016,619.36271 L 121.65016,621.21396 L 123.50141,621.21396 L 129.98868,620.29624 C 133.75447,620.06682 130.02824,620.72345 132.75764,619.36271 L 132.75764,616.58584 L 129.05515,616.58584 C 126.16752,616.58584 123.69919,618.27886 121.65016,619.36271"
       id="path271"
       style="fill:#60272a;fill-opacity:1;fill-rule:evenodd;stroke:none" />
    <path
       d="M 93.87355,621.21396 L 94.79126,621.21396 L 96.65042,620.29624 C 96.65042,607.85966 104.49844,603.8961 104.98103,598.06546 C 101.37347,600.71575 96.20739,610.69982 95.7248,616.58584 L 93.87355,616.58584 L 93.87355,611.95772 C 93.87355,603.27902 107.37025,590.00384 113.31164,586.02445 L 119.79892,586.02445 L 115.16289,589.72694 L 129.05515,588.80132 C 127.61529,586.83931 124.17387,584.1732 120.72454,584.1732 L 116.09642,584.1732 C 107.5443,584.1732 92.0223,604.39451 92.0223,613.80897 C 92.0223,614.71877 93.54128,619.81365 93.87355,621.21396"
       id="path273"
       style="fill:#e2d3c3;fill-opacity:1;fill-rule:evenodd;stroke:none" />
    <path
       d="M 129.98868,626.7677 L 131.83993,626.7677 C 133.84149,625.71549 136.46805,625.1617 136.46805,622.14749 L 136.42058,620.36745 L 134.6168,619.36271 L 131.69753,621.62534 L 133.69118,622.14749 L 133.58042,624.68702"
       id="path275"
       style="fill:#ed4349;fill-opacity:1;fill-rule:evenodd;stroke:none" />
    <path
       d="M 70.717147,612.88335 L 71.64277,622.14749 C 75.772474,623.10476 80.63793,629.16482 82.75025,632.32935 L 85.77237,635.56507 L 91.08877,638.80871 L 95.7248,640.65996 L 98.50167,640.65996 C 93.12198,635.98437 85.80402,632.61415 82.87683,625.73131 C 77.916439,614.07004 77.204422,618.35006 77.204422,602.70149 L 73.850026,617.41653"
       id="path277"
       style="fill:#ec1a29;fill-opacity:1;fill-rule:evenodd;stroke:none" />
    <path
       d="M 123.50141,621.21396 L 125.92227,621.55414 L 128.23237,624.41013 L 106.83228,628.62685 L 104.98103,629.55248 L 104.97312,631.43537 L 113.31164,632.32935 L 121.53149,631.1743 L 129.98868,626.7677 L 133.58042,624.68702 L 133.69118,622.14749 L 131.69753,621.62534 L 134.6168,619.36271 L 132.75764,619.36271 C 130.02824,620.72345 133.75447,620.06682 129.98868,620.29624"
       id="path279"
       style="fill:#f3999b;fill-opacity:1;fill-rule:evenodd;stroke:none" />
    <path
       d="M 445.75281,646.22161 C 450.09612,646.58553 450.33346,648.07285 455.02486,648.07285 L 463.34756,648.07285 C 473.0943,648.07285 487.46915,637.56663 493.91686,633.1363 L 499.4706,634.18059 L 501.32185,633.25497 C 500.13515,631.48284 486.6701,622.14749 485.57834,622.14749 C 484.32044,622.14749 475.38858,632.32935 466.13234,632.32935 L 462.42985,632.32935 C 456.82073,632.32935 448.79075,625.35157 447.60405,620.29624 L 444.8351,620.29624 L 444.8351,616.58584 C 444.8351,613.3422 451.58344,605.58912 456.87611,605.47045 C 457.42199,603.41351 457.0818,602.70149 459.64507,602.70149 L 463.34756,602.70149 C 467.96777,602.70149 471.24305,608.25523 473.53733,608.25523 C 477.6433,608.25523 480.46764,600.40721 486.50397,596.21422 C 483.7983,592.17945 472.01045,586.02445 465.19881,586.02445 L 463.34756,586.02445 C 449.04391,586.02445 431.86846,604.81381 431.86846,619.36271 L 431.86846,623.0652 C 431.86846,630.84202 439.98546,644.6789 445.75281,646.22161"
       id="path281"
       style="fill:#8184c7;fill-opacity:1;fill-rule:evenodd;stroke:none" />
    <path
       d="M 75.353175,628.62685 L 76.484492,627.48763 L 80.90692,632.32935 L 82.75025,632.32935 C 80.63793,629.16482 75.772474,623.10476 71.64277,622.14749"
       id="path283"
       style="fill:#d71e2a;fill-opacity:1;fill-rule:evenodd;stroke:none" />
    <path
       d="M 136.46805,635.10622 L 137.39367,636.95746 L 139.24492,636.03184 L 139.24492,635.10622 C 138.93637,631.42746 136.96646,629.52083 134.6168,632.32935 L 137.56772,632.39264"
       id="path285"
       style="fill:#b6222b;fill-opacity:1;fill-rule:evenodd;stroke:none" />
    <path
       d="M 98.50167,631.40372 C 101.6029,631.65689 111.04901,635.03502 113.31164,632.32935 L 104.97312,631.43537 L 104.98103,629.55248 L 106.83228,628.62685 L 100.35291,626.7677 L 97.59978,627.82781"
       id="path287"
       style="fill:#ee333b;fill-opacity:1;fill-rule:evenodd;stroke:none" />
    <path
       d="M 83.68378,636.95746 L 91.08877,638.80871 L 85.77237,635.56507 L 82.75025,632.32935 L 80.90692,632.32935 L 76.484492,627.48763 L 75.353175,628.62685 L 81.83254,636.95746"
       id="path289"
       style="fill:#9a262c;fill-opacity:1;fill-rule:evenodd;stroke:none" />
    <path
       d="M 179.99608,633.25497 C 182.45649,636.61728 190.82666,639.73433 196.65729,639.73433 C 205.02746,639.73433 223.06525,633.02554 226.22186,628.8009 L 223.51619,627.70123 C 218.32637,631.30088 210.76316,631.87049 204.96417,634.15686 C 196.34875,637.55872 194.10194,635.10622 183.69066,635.10622 L 182.82041,632.31352"
       id="path291"
       style="fill:#8184c7;fill-opacity:1;fill-rule:evenodd;stroke:none" />
    <path
       d="M 617.99785,627.70123 C 614.87289,629.67906 610.58496,629.80564 607.62613,632.13156 C 603.84452,635.10622 603.67047,636.03184 596.6927,636.03184 L 590.22124,636.03184 C 579.6992,636.03184 571.95403,628.07306 567.06484,626.7677 C 569.68348,630.66797 579.54889,638.80871 585.58522,638.80871 L 593.92374,638.80871 C 602.19897,638.80871 617.62602,632.9227 620.71143,628.8009"
       id="path293"
       style="fill:#7478bb;fill-opacity:1;fill-rule:evenodd;stroke:none" />
    <path
       d="M 82.75025,592.51172 L 77.204422,602.70149 C 77.204422,618.35006 77.916439,614.07004 82.87683,625.73131 C 85.80402,632.61415 93.12198,635.98437 98.50167,640.65996 L 95.7248,640.65996 C 96.89567,643.57132 101.94309,643.43683 105.90666,643.43683 L 110.54268,643.43683 C 120.60587,643.43683 128.32731,636.54608 134.6168,632.32935 C 136.96646,629.52083 138.93637,631.42746 139.24492,635.10622 L 142.02179,634.18059 L 142.02179,638.80871 C 145.19422,639.96376 146.33345,645.16149 146.60243,648.85607 L 144.79866,649.9241 L 153.13718,648.07285 C 147.49641,645.7944 150.94574,620.31998 149.43468,613.80897 L 126.28619,613.80897 C 125.28937,617.52729 126.02512,616.4909 121.65016,616.58584 L 121.65016,619.36271 C 123.69919,618.27886 126.16752,616.58584 129.05515,616.58584 L 132.75764,616.58584 L 132.75764,619.36271 L 134.6168,619.36271 L 136.42058,620.36745 L 136.46805,622.14749 C 136.46805,625.1617 133.84149,625.71549 131.83993,626.7677 L 129.98868,626.7677 L 121.53149,631.1743 L 113.31164,632.32935 C 111.04901,635.03502 101.6029,631.65689 98.50167,631.40372 C 94.90993,631.32461 89.23752,630.23285 89.23752,626.7677 L 89.23752,623.99874 C 85.92269,623.10476 85.53503,620.83421 85.53503,616.58584 L 85.53503,614.73459 C 85.53503,610.83432 86.52394,608.46092 88.31981,606.40398 L 89.23752,616.58584 C 89.23752,594.04652 106.11235,588.50069 107.7579,582.32196 C 112.10121,581.95803 112.33855,580.47071 117.02205,580.47071 L 117.94767,580.47071 C 123.23242,580.47071 127.85263,582.83619 129.98868,586.02445 L 134.6168,590.66048 L 130.47918,583.52447 C 142.31451,585.91369 138.20062,590.59719 142.94741,592.51172 L 142.02179,594.36297 L 148.50115,592.51172 L 145.73219,592.51172 C 144.45847,587.77285 137.7655,581.17482 133.88105,578.42959 C 127.89219,574.18913 125.23399,572.1401 114.24518,572.1401 C 101.26272,572.1401 87.10147,584.29187 82.75025,592.51172"
       id="path295"
       style="fill:#ea1b28;fill-opacity:1;fill-rule:evenodd;stroke:none" />
    <path
       d="M 413.34808,639.73433 L 413.34808,644.37036 L 429.09159,644.37036 L 429.46342,630.42272 L 427.23243,615.66022 C 425.00935,619.18075 426.27516,628.94331 426.33054,634.20433 C 426.42548,642.7881 423.37962,640.83401 414.4082,641.54602"
       id="path297"
       style="fill:#787ebf;fill-opacity:1;fill-rule:evenodd;stroke:none" />
    <path
       d="M 246.66469,641.58558 C 249.52067,644.06973 256.05541,646.22161 261.48257,646.22161 L 264.25944,646.22161 C 278.67385,646.22161 302.22582,624.77405 302.22582,611.0321 C 302.22582,606.64132 301.18944,604.33913 300.37457,600.84233 C 299.82078,601.72049 298.87933,612.13177 297.2496,616.23774 C 296.30025,618.63487 295.05817,620.85795 293.38888,622.55888 C 289.275,626.75187 291.90156,624.79778 289.57563,628.94331 C 286.41111,634.6078 272.91441,643.43683 263.33382,643.43683 L 258.69779,643.43683 C 253.45259,643.43683 253.42095,641.58558 246.66469,641.58558"
       id="path299"
       style="fill:#7576b6;fill-opacity:1;fill-rule:evenodd;stroke:none" />
    <path
       d="M 537.42907,641.58558 L 546.56663,644.38618 L 547.61884,648.07285 L 548.39415,647.29755 L 549.47008,648.07285 L 549.47008,642.51911 L 551.32133,642.51911 L 552.25487,640.65996 L 536.51136,638.80871 L 535.62529,640.51755"
       id="path301"
       style="fill:#ece5dd;fill-opacity:1;fill-rule:evenodd;stroke:none" />
    <path
       d="M 95.7248,640.65996 L 91.08877,638.80871 L 83.68378,636.95746 L 92.0223,643.43683 C 101.37347,648.38931 112.50469,649.69467 122.57579,644.37036 L 125.35265,643.43683 L 136.46805,635.10622 L 137.56772,632.39264 L 134.6168,632.32935 C 128.32731,636.54608 120.60587,643.43683 110.54268,643.43683 L 105.90666,643.43683 C 101.94309,643.43683 96.89567,643.57132 95.7248,640.65996"
       id="path303"
       style="fill:#60272a;fill-opacity:1;fill-rule:evenodd;stroke:none" />
    <path
       d="M 394.8277,625.84998 C 393.45114,624.26772 392.97646,624.23608 392.97646,621.21396 L 392.97646,619.36271 C 392.97646,616.37223 396.33876,614.73459 399.45582,614.73459 L 402.23269,614.73459 C 405.60291,614.73459 405.48424,615.83427 408.71996,616.58584 L 407.78643,618.43709 C 410.9826,625.0905 412.48575,629.55248 403.16622,629.55248 L 400.38144,629.55248 C 398.08716,629.55248 396.90047,627.23446 394.8277,625.84998 M 322.59744,646.22161 C 328.64168,646.22161 328.48346,648.07285 333.70492,648.07285 L 337.41533,648.07285 C 348.52281,648.07285 353.29333,641.72798 359.6382,641.58558 C 360.90401,639.21219 372.32794,632.32935 375.3817,632.32935 L 379.0842,632.32935 L 379.0842,634.18059 C 382.20916,638.84827 390.56351,643.43683 398.5302,643.43683 L 401.31498,643.43683 C 406.33866,643.43683 411.65506,638.99067 413.34808,639.73433 L 414.4082,641.54602 C 423.37962,640.83401 426.42548,642.7881 426.33054,634.20433 C 426.27516,628.94331 425.00935,619.18075 427.23243,615.66022 C 424.09955,602.17143 412.12183,586.02445 396.67895,586.02445 L 390.19168,586.02445 C 385.65058,586.02445 372.60483,592.12407 372.60483,594.36297 C 372.60483,597.10028 374.90702,600.16196 376.30733,601.76796 L 379.06837,601.84707 C 380.91171,600.5417 386.39425,598.06546 389.27396,598.06546 L 390.19168,598.06546 C 396.5761,598.06546 397.15363,600.66037 401.31498,601.76796 L 401.31498,604.55274 L 403.16622,607.3217 C 389.50339,607.3217 369.95454,617.24248 376.30733,630.4781 C 373.31685,629.67906 363.28531,622.14749 362.41507,622.14749 C 361.16508,622.14749 352.21739,632.32935 342.96907,632.32935 L 339.26657,632.32935 C 333.65745,632.32935 325.62747,625.35157 324.44869,620.29624 L 322.59744,620.29624 L 322.59744,611.95772 C 326.67177,610.47831 330.84103,601.76796 335.55617,601.76796 L 342.96907,601.76796 C 343.63362,603.42933 349.37723,606.40398 351.30759,606.40398 C 352.77118,606.40398 361.4578,597.85186 363.3486,596.21422 C 360.64293,592.17945 348.84717,586.02445 342.04344,586.02445 L 340.1922,586.02445 C 325.88855,586.02445 308.70518,604.81381 308.70518,619.36271 L 308.70518,623.0652 C 308.70518,630.84202 316.82219,644.6789 322.59744,646.22161"
       id="path305"
       style="fill:#7f84c7;fill-opacity:1;fill-rule:evenodd;stroke:none" />
    <path
       d="M 153.13718,648.07285 L 154.98842,648.07285 L 154.98842,612.88335 L 127.2039,613.80897 L 149.43468,613.80897 C 150.94574,620.31998 147.49641,645.7944 153.13718,648.07285"
       id="path307"
       style="fill:#ec1a29;fill-opacity:1;fill-rule:evenodd;stroke:none" />
    <path
       d="M 154.98842,612.88335 L 154.98842,648.07285 L 153.13718,648.07285 L 144.79866,649.9241 L 141.96641,649.83708 L 136.46805,653.62659 L 142.02179,654.55222 L 157.76529,651.77535 L 158.69092,611.95772 L 158.69092,610.10648 L 156.76847,612.84379"
       id="path309"
       style="fill:#7a262c;fill-opacity:1;fill-rule:evenodd;stroke:none" />
    <path
       d="M 137.39367,636.95746 L 136.46805,646.22161 L 136.46805,648.99057 L 137.39367,650.84181 C 139.49017,650.28802 141.09616,649.95575 141.09616,647.13932 L 141.09616,638.80871 C 141.09616,636.20589 140.69269,637.09196 139.24492,636.03184"
       id="path311"
       style="fill:#ef2732;fill-opacity:1;fill-rule:evenodd;stroke:none" />
    <path
       d="M 139.24492,635.10622 L 139.24492,636.03184 C 140.69269,637.09196 141.09616,636.20589 141.09616,638.80871 L 141.09616,647.13932 C 141.09616,649.95575 139.49017,650.28802 137.39367,650.84181 L 136.46805,648.99057 L 136.46805,653.62659 L 141.96641,649.83708 L 144.79866,649.9241 L 146.60243,648.85607 C 146.33345,645.16149 145.19422,639.96376 142.02179,638.80871 L 142.02179,634.18059"
       id="path313"
       style="fill:#ec1b28;fill-opacity:1;fill-rule:evenodd;stroke:none" />
    <path
       d="M 322.59744,646.22161 C 333.2698,660.78633 371.58427,640.96059 377.28042,633.17586 L 379.0842,634.18059 L 379.0842,632.32935 L 375.3817,632.32935 C 372.32794,632.32935 360.90401,639.21219 359.6382,641.58558 C 353.29333,641.72798 348.52281,648.07285 337.41533,648.07285 L 333.70492,648.07285 C 328.48346,648.07285 328.64168,646.22161 322.59744,646.22161"
       id="path315"
       style="fill:#7576b6;fill-opacity:1;fill-rule:evenodd;stroke:none" />
    <path
       d="M 125.35265,643.43683 L 122.57579,644.37036 C 121.03308,650.15353 108.65979,648.99057 101.27854,648.99057 C 103.62029,651.0396 107.05379,651.77535 111.4604,651.77535 L 112.39393,651.77535 C 119.62487,651.77535 133.10574,647.63773 133.53295,640.31186"
       id="path317"
       style="fill:#b8ac99;fill-opacity:1;fill-rule:evenodd;stroke:none" />
    <path
       d="M 445.75281,646.22161 C 456.89984,661.42715 491.58303,641.03179 499.4706,634.18059 L 493.91686,633.1363 C 487.46915,637.56663 473.0943,648.07285 463.34756,648.07285 L 455.02486,648.07285 C 450.33346,648.07285 450.09612,646.58553 445.75281,646.22161"
       id="path319"
       style="fill:#7576b6;fill-opacity:1;fill-rule:evenodd;stroke:none" />
    <path
       d="M 125.35265,643.43683 L 133.53295,640.31186 C 133.10574,647.63773 119.62487,651.77535 112.39393,651.77535 L 111.4604,651.77535 C 107.05379,651.77535 103.62029,651.0396 101.27854,648.99057 C 108.65979,648.99057 121.03308,650.15353 122.57579,644.37036 C 112.50469,649.69467 101.37347,648.38931 92.0223,643.43683 L 90.17106,644.37036 C 92.70268,647.8276 103.99212,652.70097 110.54268,652.70097 L 111.4604,652.70097 C 123.01882,652.70097 131.07253,648.72158 136.46805,642.51911 L 136.46805,646.22161 L 137.39367,636.95746 L 136.46805,635.10622"
       id="path321"
       style="fill:#e2d3c3;fill-opacity:1;fill-rule:evenodd;stroke:none" />
    <path
       d="M 157.76529,651.77535 L 160.54216,650.84181 L 160.54216,653.62659 L 162.39341,652.70097 C 162.39341,646.15041 161.91873,637.70113 162.37759,631.3879 C 162.70986,626.87845 166.03261,614.34694 160.54216,612.88335 L 160.54216,618.43709 L 159.61654,618.43709 L 159.61654,611.95772 L 158.69092,611.95772"
       id="path323"
       style="fill:#d8d1c3;fill-opacity:1;fill-rule:evenodd;stroke:none" />
    <path
       d="M 157.76529,651.77535 L 142.02179,654.55222 L 144.86986,655.10601 L 141.09616,655.47784 L 141.09616,658.25471 C 146.48377,658.14395 158.1925,656.83067 160.54216,653.62659 L 160.54216,650.84181"
       id="path325"
       style="fill:#bfbd9e;fill-opacity:1;fill-rule:evenodd;stroke:none" />
    <path
       d="M 520.75994,658.25471 L 522.61103,658.25471 L 522.61103,648.0689 L 520.75994,648.0689 L 520.75994,658.25471 z"
       id="path327"
       style="fill:#ffffff;fill-opacity:1;fill-rule:evenodd;stroke:none" />
    <path
       d="M 538.3626,673.07259 L 540.21369,673.07259 L 540.21369,646.21739 L 538.3626,646.21739 L 538.3626,673.07259 z"
       id="path329"
       style="fill:#ffffff;fill-opacity:1;fill-rule:evenodd;stroke:none" />
    <path
       d="M 520.75994,648.07285 L 522.61119,648.07285 L 522.61119,658.25471 L 520.75994,658.25471 L 520.75994,648.07285 z M 511.50371,643.43683 L 513.35495,643.43683 L 513.35495,677.70071 L 520.75994,677.70071 L 520.75994,663.81636 C 524.93711,663.72143 530.02408,662.14708 530.02408,658.25471 L 530.02408,648.07285 C 530.02408,644.18049 524.93711,642.60614 520.75994,642.51911 L 520.75994,639.73433 L 515.2062,639.73433"
       id="path331"
       style="fill:#babddd;fill-opacity:1;fill-rule:evenodd;stroke:none" />
    <path
       d="M 538.3626,646.22161 L 540.21385,646.22161 L 540.21385,673.08051 L 538.3626,673.08051 L 538.3626,646.22161 z M 547.61884,648.07285 L 546.56663,644.38618 L 537.42907,641.58558 C 532.86424,643.78492 530.94971,643.23904 530.94971,650.84181 L 530.94971,670.29572 C 530.94971,675.3115 534.36739,677.70071 539.28823,677.70071 C 551.18684,677.70071 547.61884,660.47779 547.61884,648.07285"
       id="path333"
       style="fill:#babddd;fill-opacity:1;fill-rule:evenodd;stroke:none" />
    <path
       d="M 549.47008,648.07285 L 549.47008,677.70071 L 562.43672,677.70071 L 562.43672,672.14697 L 556.87507,672.14697 L 556.87507,642.51911 L 549.47008,642.51911"
       id="path335"
       style="fill:#babddd;fill-opacity:1;fill-rule:evenodd;stroke:none" />
    <path
       d="M 570.76733,648.99057 C 570.76733,646.43521 571.48726,646.76749 573.55211,646.22161 L 573.55211,654.55222 L 580.9571,654.55222 L 580.9571,648.99057 C 580.9571,643.98271 577.53941,641.58558 572.62649,641.58558 C 569.02684,641.58558 564.28797,643.71372 564.28797,647.13932 L 564.28797,652.70097 C 564.28797,660.43823 573.55211,660.69931 573.55211,668.43657 L 573.55211,673.07259 C 571.48726,672.52671 570.76733,672.85108 570.76733,670.29572 L 570.76733,663.81636 L 564.28797,663.81636 L 564.28797,672.14697 C 564.28797,675.58048 569.02684,677.70071 572.62649,677.70071 C 577.53941,677.70071 580.9571,675.3115 580.9571,670.29572 L 580.9571,666.58532 C 580.9571,659.7895 570.76733,656.05537 570.76733,650.84181"
       id="path337"
       style="fill:#babddd;fill-opacity:1;fill-rule:evenodd;stroke:none" />
    <path
       d="M 596.6927,657.32909 C 596.6927,654.81329 599.61197,644.18049 600.41101,642.51911 L 593.92374,642.51911 L 590.58516,656.27688 L 590.22124,656.40346 L 590.22124,642.51911 L 582.80835,642.51911 L 582.80835,677.70071 L 590.22124,677.70071 L 590.22124,661.96512 L 591.13896,661.96512 L 593.29083,677.65324 L 606.88246,677.70071 L 608.04543,668.46821 L 611.51849,668.43657 L 611.51849,671.22135 C 611.51849,674.41752 612.19886,674.80517 612.4362,677.70071 L 619.8491,677.70071 L 615.22098,642.51911 L 605.95684,642.51911 L 600.86196,676.70389 C 598.93951,675.02669 596.6927,661.75942 596.6927,657.32909"
       id="path339"
       style="fill:#babddd;fill-opacity:1;fill-rule:evenodd;stroke:none" />
  </g>
</svg>
