<?xml version="1.0" encoding="UTF-8" standalone="no"?>
<!-- Created with Inkscape (http://www.inkscape.org/) -->
<svg
   xmlns:dc="http://purl.org/dc/elements/1.1/"
   xmlns:cc="http://creativecommons.org/ns#"
   xmlns:rdf="http://www.w3.org/1999/02/22-rdf-syntax-ns#"
   xmlns:svg="http://www.w3.org/2000/svg"
   xmlns="http://www.w3.org/2000/svg"
   xmlns:xlink="http://www.w3.org/1999/xlink"
   xmlns:sodipodi="http://sodipodi.sourceforge.net/DTD/sodipodi-0.dtd"
   xmlns:inkscape="http://www.inkscape.org/namespaces/inkscape"
   id="svg2"
   sodipodi:version="0.32"
   inkscape:version="0.46"
   width="743.75"
   height="1052.5"
   xml:space="preserve"
   sodipodi:docname="Logbook-A6-_dwustronny_by_rushcore_page4_noftf.svg"
   inkscape:output_extension="org.inkscape.output.svg.inkscape"><metadata
     id="metadata7"><rdf:RDF><cc:Work
         rdf:about=""><dc:format>image/svg+xml</dc:format><dc:type
           rdf:resource="http://purl.org/dc/dcmitype/StillImage" /></cc:Work></rdf:RDF></metadata><defs
     id="defs5"><inkscape:perspective
   sodipodi:type="inkscape:persp3d"
   inkscape:vp_x="0 : 526.18109 : 1"
   inkscape:vp_y="0 : 1000 : 0"
   inkscape:vp_z="744.09448 : 526.18109 : 1"
   inkscape:persp3d-origin="372.04724 : 350.78739 : 1"
   id="perspective9" /><clipPath
   clipPathUnits="userSpaceOnUse"
   id="clipPath19"><path
     d="M 0,2.66016 L 4958,2.66016 L 4958,7014.68 L 0,7014.68 L 0,2.66016"
     id="path21" /></clipPath><clipPath
   clipPathUnits="userSpaceOnUse"
   id="clipPath355"><path
     d="M 2992.5,5003.15 L 3778.94,5003.15 L 3778.94,5853.09 L 2992.5,5853.09 L 2992.5,5003.15"
     id="path357" /></clipPath><clipPath
   clipPathUnits="userSpaceOnUse"
   id="clipPath399"><path
     d="M 0,2.66016 L 4958,2.66016 L 4958,7014.68 L 0,7014.68 L 0,2.66016"
     id="path401" /></clipPath><clipPath
   clipPathUnits="userSpaceOnUse"
   id="clipPath505"><path
     d="M 822.695,1464.98 L 2346.69,1464.98 L 2346.69,3112.03 L 822.695,3112.03 L 822.695,1464.98"
     id="path507" /></clipPath><clipPath
   clipPathUnits="userSpaceOnUse"
   id="clipPath549"><path
     d="M 0,2.66016 L 4958,2.66016 L 4958,7014.68 L 0,7014.68 L 0,2.66016"
     id="path551" /></clipPath>



























</defs><sodipodi:namedview
     inkscape:window-height="673"
     inkscape:window-width="857"
     inkscape:pageshadow="2"
     inkscape:pageopacity="1"
     guidetolerance="10.0"
     gridtolerance="10.0"
     objecttolerance="10.0"
     borderopacity="1.0"
     bordercolor="#666666"
     pagecolor="#ffffff"
     id="base"
     showgrid="false"
     inkscape:zoom="0.88642398"
     inkscape:cx="295.64985"
     inkscape:cy="190.74532"
     inkscape:window-x="0"
     inkscape:window-y="0"
     inkscape:current-layer="g11" /><g
     id="g11"
     inkscape:groupmode="layer"
     inkscape:label="Logbook-A7-_dwustronny_by_Maciuh"
     transform="matrix(1.25,0,0,-1.25,0,1052.5)"><path
   id="path23"
   style="fill:none;stroke:#231f20;stroke-width:0.49973401;stroke-linecap:butt;stroke-linejoin:miter;stroke-miterlimit:4;stroke-dasharray:2.02392, 2.02392;stroke-dashoffset:0;stroke-opacity:1"
   d="M 91.36824,85.28016 L 133.866,85.28016" /><g
   id="g25"><text
   id="text27"
   transform="matrix(1,0,0,-1,142.365,81.6352)"><tspan
     id="tspan29"
     sodipodi:role="line"
     y="0"
     x="0 5.9967999 9.3310204 16.659111 19.993332 26.661774 29.995993 35.321152 38.655373 45.323814 50.648972 53.983192"
     style="font-size:11.99359989px;font-variant:normal;font-weight:normal;writing-mode:lr-tb;fill:#231f20;fill-opacity:1;fill-rule:nonzero;stroke:none;font-family:FrutigerPl;-inkscape-font-specification:FrutigerPl-Roman">Linie cięcia</tspan></text>







</g><path
   id="path35"
   style="fill:none;stroke:#231f20;stroke-width:0.49973401;stroke-linecap:butt;stroke-linejoin:miter;stroke-miterlimit:4;stroke-dasharray:2.02392, 2.02392;stroke-dashoffset:0;stroke-opacity:1"
   d="M 24.64776,718.4868 L 67.14516,718.4868" /><path
   id="path37"
   style="fill:none;stroke:#231f20;stroke-width:0.49973401;stroke-linecap:butt;stroke-linejoin:miter;stroke-miterlimit:4;stroke-dasharray:2.02392, 2.02392;stroke-dashoffset:0;stroke-opacity:1"
   d="M 82.3824,733.752 L 82.3824,776.25" /><path
   id="path39"
   style="fill:none;stroke:#231f20;stroke-width:0.49973401;stroke-linecap:butt;stroke-linejoin:miter;stroke-miterlimit:4;stroke-dasharray:2.02392, 2.02392;stroke-dashoffset:0;stroke-opacity:1"
   d="M 512.5488,776.7204 L 512.5488,734.2224" /><path
   id="path41"
   style="fill:none;stroke:#231f20;stroke-width:0.49973401;stroke-linecap:butt;stroke-linejoin:miter;stroke-miterlimit:4;stroke-dasharray:2.02392, 2.02392;stroke-dashoffset:0;stroke-opacity:1"
   d="M 527.814,718.986 L 570.3108,718.986" /><path
   id="path43"
   style="fill:none;stroke:#231f20;stroke-width:0.49973401;stroke-linecap:butt;stroke-linejoin:miter;stroke-miterlimit:4;stroke-dasharray:2.02392, 2.02392;stroke-dashoffset:0;stroke-opacity:1"
   d="M 82.41144,66.33612 L 82.41144,108.8334" /><path
   id="path47"
   style="fill:none;stroke:#231f20;stroke-width:0.49973401;stroke-linecap:butt;stroke-linejoin:miter;stroke-miterlimit:4;stroke-dasharray:2.02392, 2.02392;stroke-dashoffset:0;stroke-opacity:1"
   d="M 570.3108,124.0464 L 527.814,124.0464" /><path
   id="path49"
   style="fill:none;stroke:#231f20;stroke-width:0.49973401;stroke-linecap:butt;stroke-linejoin:miter;stroke-miterlimit:4;stroke-dasharray:2.02392, 2.02392;stroke-dashoffset:0;stroke-opacity:1"
   d="M 512.5764,108.78144 L 512.5764,66.28404" /><path
   id="path53"
   style="fill:none;stroke:#231f20;stroke-width:0.49973401;stroke-linecap:round;stroke-linejoin:round;stroke-miterlimit:4;stroke-dasharray:none;stroke-opacity:1"
   d="M 297.48,789.0324 L 297.48,789.0324 M 297.48,816.8628 L 297.48,816.8628" /><path
   id="path57"
   style="fill:none;stroke:#231f20;stroke-width:0.49973401;stroke-linecap:round;stroke-linejoin:round;stroke-miterlimit:4;stroke-dasharray:none;stroke-opacity:1"
   d="M 297.48,25.21692 L 297.48,25.21692 M 297.48,53.04936 L 297.48,53.04936" /><path
   id="path59"
   style="fill:none;stroke:#231f20;stroke-width:0.49973401;stroke-linecap:round;stroke-linejoin:round;stroke-miterlimit:4;stroke-dasharray:0, 0.9884748;stroke-dashoffset:0;stroke-opacity:1"
   d="M 92.10708,58.86516 L 133.122,58.86516" /><path
   id="path61"
   style="fill:none;stroke:#231f20;stroke-width:0.49973401;stroke-linecap:round;stroke-linejoin:round;stroke-miterlimit:4;stroke-dasharray:none;stroke-opacity:1"
   d="M 91.1184,58.86516 L 91.1184,58.86516 M 133.6152,58.86516 L 133.6152,58.86516" /><g
   id="g63"><text
   id="text65"
   transform="matrix(1,0,0,-1,142.365,54.4833)"><tspan
     id="tspan67"
     sodipodi:role="line"
     y="0"
     x="0 8.659379 11.9936 18.662041 21.996262 28.664703 35.992794 42.661236 49.329678 56.657768 59.991985 68.651367 77.310745 81.976257 85.310478 89.97599 94.641495 99.307007"
     style="font-size:11.99359989px;font-variant:normal;font-weight:normal;writing-mode:lr-tb;fill:#ed1c24;fill-opacity:1;fill-rule:nonzero;stroke:none;font-family:FrutigerPl;-inkscape-font-specification:FrutigerPl-Roman">NIE PRZECINAJ !!!!</tspan></text>







</g><image
   y="170.56319"
   x="448.84003"
   id="image3366"
   height="253.8336"
   width="241.88"
   sodipodi:absref="/home/rush/logo2.png"
   xml:id="bglogo"
   xlink:href="logo2.png"
   transform="matrix(0,1,1,0,0,0)" /><path
   sodipodi:nodetypes="ccccc"
   id="path423"
   style="fill:none;stroke:#231f20;stroke-width:0.49973401;stroke-linecap:butt;stroke-linejoin:miter;stroke-miterlimit:4;stroke-dasharray:none;stroke-opacity:1"
   d="M 82.4112,421.29 L 512.5488,421.29 L 512.5488,718.2696 L 82.4112,718.2696 L 82.4112,421.29 z" /><image
   y="170.427"
   x="151.3604"
   id="image3370"
   height="253.8336"
   width="241.88"
   sodipodi:absref="/home/rush/logo2.png"
   xml:id="bglogo2"
   xlink:href="logo2.png"
   transform="matrix(0,1,1,0,0,0)" /><path
   sodipodi:nodetypes="ccccc"
   id="path499"
   style="fill:none;stroke:#231f20;stroke-width:0.49973401;stroke-linecap:butt;stroke-linejoin:miter;stroke-miterlimit:4;stroke-dasharray:none;stroke-opacity:1"
   d="M 82.4112,123.81 L 512.2764,123.81 L 512.2764,420.7908 L 82.4112,420.7908 L 82.4112,123.81 z" /><text
   transform="scale(1,-1)"
   id="text661"
   x="538.297"
   y="-34.8759"><tspan
     style="font-size:17.99040031px;font-variant:normal;font-weight:normal;writing-mode:lr-tb;fill:#231f20;fill-opacity:1;fill-rule:nonzero;stroke:none;font-family:TimesNewRomanPSMT;-inkscape-font-specification:TimesNewRomanPSMT"
     x="538.297"
     y="-34.8759"
     sodipodi:role="line"
     id="tspan663">N4</tspan></text>




<text
   transform="scale(1,-1)"
   id="text677"
   x="502.177"
   y="-74.929626"><tspan
     style="font-size:7.99574995px;font-variant:normal;font-weight:normal;writing-mode:lr-tb;fill:#231f20;fill-opacity:1;fill-rule:nonzero;stroke:none;font-family:Helvetica;-inkscape-font-specification:Helvetica"
     x="502.177"
     y="-74.929626"
     id="tspan679">-</tspan></text>








<path
   id="path349"
   style="fill:none;stroke:#231f20;stroke-width:0.49973401;stroke-linecap:butt;stroke-linejoin:miter;stroke-miterlimit:4;stroke-dasharray:none;stroke-opacity:1"
   d="M 82.41144,421.29 L 297.23064,421.29 L 82.41144,421.29 z"
   sodipodi:nodetypes="ccc" /><path
   id="path45"
   style="fill:none;stroke:#231f20;stroke-width:0.49973401;stroke-linecap:butt;stroke-linejoin:miter;stroke-miterlimit:4;stroke-dasharray:2.02392, 2.02392;stroke-dashoffset:0;stroke-opacity:1"
   d="M 67.14516,124.0704 L 24.64776,124.0704" /><path
   id="path14072"
   style="fill:none;stroke:#231f20;stroke-width:0.49973401;stroke-linecap:round;stroke-linejoin:round;stroke-miterlimit:4;stroke-dasharray:0, 0.9884748;stroke-dashoffset:0;stroke-opacity:1"
   d="M 7.819985,421.50587 L 48.834904,421.50587" /><path
   id="path14074"
   style="fill:none;stroke:#231f20;stroke-width:0.49973401;stroke-linecap:round;stroke-linejoin:round;stroke-miterlimit:4;stroke-dasharray:0, 0.9884748;stroke-dashoffset:0;stroke-opacity:1"
   d="M 547.36424,421.50587 L 588.37916,421.50587" />








<g
   id="g47705"
   transform="matrix(-1,0,0,-1,595.19524,1138.3806)"><g
     transform="translate(0,2.1740574)"
     id="g42875"><path
       id="path553"
       style="fill:#231f20;fill-opacity:1;fill-rule:nonzero;stroke:none"
       d="M 494.65311,705.36863 L 494.65311,428.66379 L 495.78938,428.66379 L 495.78938,705.36863 L 494.65311,705.36863 z"
       sodipodi:nodetypes="ccccc" /><path
       id="path555"
       style="fill:#231f20;fill-opacity:1;fill-rule:nonzero;stroke:none"
       d="M 419.92136,705.36863 L 419.92136,428.66379 L 421.05763,428.66379 L 421.05763,705.36863 L 419.92136,705.36863 z"
       sodipodi:nodetypes="ccccc" /><path
       id="path557"
       style="fill:#231f20;fill-opacity:1;fill-rule:nonzero;stroke:none"
       d="M 420.02886,705.36863 L 420.02886,704.23299 L 495.78922,704.23299 L 495.78922,705.36863 L 420.02886,705.36863 z" /><path
       id="path559"
       style="fill:#231f20;fill-opacity:1;fill-rule:nonzero;stroke:none"
       d="M 420.02886,429.80022 L 420.02886,428.66395 L 495.78922,428.66395 L 495.78922,429.80022 L 420.02886,429.80022 z"
       sodipodi:nodetypes="ccccc" /><path
       id="path561"
       style="fill:#231f20;fill-opacity:1;fill-rule:nonzero;stroke:none"
       d="M 467.44817,705.36863 L 467.44817,428.66379 L 468.58381,428.66379 L 468.58381,705.36863 L 467.44817,705.36863 z"
       sodipodi:nodetypes="ccccc" /><g
       id="g563"
       transform="matrix(0,-1.3370358,1.3370358,0,-45.564458,837.17731)"><text
   id="text565"
   transform="matrix(1,0,0,-1,101.734,385.667)"><tspan
     id="tspan567"
     sodipodi:role="line"
     y="0"
     x="0 3.8899317 5.4431057 8.941246 12.439385 14.384352 16.329317 20.21925 22.549011 28.376911 32.266842 33.820019"
     style="font-size:6.99628019px;font-style:oblique;font-variant:normal;writing-mode:lr-tb;fill:#231f20;fill-opacity:1;fill-rule:nonzero;stroke:none;font-family:Helvetica;-inkscape-font-specification:Helvetica-Oblique">nick, e-mail</tspan></text>





</g><path
       id="path569"
       style="fill:#231f20;fill-opacity:1;fill-rule:nonzero;stroke:none"
       d="M 467.64392,530.47198 L 467.64392,529.33635 L 495.51983,529.33635 L 495.51983,530.47198 L 467.64392,530.47198 z" /><g
       id="g571"
       transform="matrix(0,-1.3370358,1.3370358,0,-45.564458,789.17731)"><text
   id="text573"
   transform="matrix(1,0,0,-1,230.84,385.491)"><tspan
     id="tspan575"
     sodipodi:role="line"
     y="0"
     x="0 3.8899317 7.7798634 9.7248297 13.614761 15.559727 17.504692 19.449659 23.33959 27.229523 29.174488"
     style="font-size:6.99628019px;font-style:oblique;font-variant:normal;writing-mode:lr-tb;fill:#231f20;fill-opacity:1;fill-rule:nonzero;stroke:none;font-family:Helvetica;-inkscape-font-specification:Helvetica-Oblique">data / date</tspan><tspan
     y="0"
     x="0"
     id="tspan577"
     sodipodi:role="line"
     style="font-size:6.99628019px;font-style:oblique;font-variant:normal;writing-mode:lr-tb;fill:#231f20;fill-opacity:1;fill-rule:nonzero;stroke:none;font-family:Helvetica;-inkscape-font-specification:Helvetica-Oblique" /></text>





</g><g
       id="g42869"
       transform="matrix(0,-1.3370358,1.3370358,0,-92.839772,837.17731)"><text
   id="text42871"
   transform="matrix(1,0,0,-1,101.734,385.667)"><tspan
     id="tspan42873"
     sodipodi:role="line"
     style="font-size:6.99628019px;font-style:oblique;font-variant:normal;writing-mode:lr-tb;fill:#231f20;fill-opacity:1;fill-rule:nonzero;stroke:none;font-family:Helvetica;-inkscape-font-specification:Helvetica-Oblique"
     x="0"
     y="0">uwagi / notes</tspan></text>





</g></g><g
     transform="translate(-80,2.17408)"
     id="g42893"><path
       id="path42895"
       style="fill:#231f20;fill-opacity:1;fill-rule:nonzero;stroke:none"
       d="M 494.65311,705.36863 L 494.65311,428.66379 L 495.78938,428.66379 L 495.78938,705.36863 L 494.65311,705.36863 z"
       sodipodi:nodetypes="ccccc" /><path
       id="path42897"
       style="fill:#231f20;fill-opacity:1;fill-rule:nonzero;stroke:none"
       d="M 419.92136,705.36863 L 419.92136,428.66379 L 421.05763,428.66379 L 421.05763,705.36863 L 419.92136,705.36863 z"
       sodipodi:nodetypes="ccccc" /><path
       id="path42899"
       style="fill:#231f20;fill-opacity:1;fill-rule:nonzero;stroke:none"
       d="M 420.02886,705.36863 L 420.02886,704.23299 L 495.78922,704.23299 L 495.78922,705.36863 L 420.02886,705.36863 z" /><path
       id="path42901"
       style="fill:#231f20;fill-opacity:1;fill-rule:nonzero;stroke:none"
       d="M 420.02886,429.80022 L 420.02886,428.66395 L 495.78922,428.66395 L 495.78922,429.80022 L 420.02886,429.80022 z"
       sodipodi:nodetypes="ccccc" /><path
       id="path42903"
       style="fill:#231f20;fill-opacity:1;fill-rule:nonzero;stroke:none"
       d="M 467.44817,705.36863 L 467.44817,428.66379 L 468.58381,428.66379 L 468.58381,705.36863 L 467.44817,705.36863 z"
       sodipodi:nodetypes="ccccc" /><g
       id="g42905"
       transform="matrix(0,-1.3370358,1.3370358,0,-45.564458,837.17731)"><text
   id="text42907"
   transform="matrix(1,0,0,-1,101.734,385.667)"><tspan
     id="tspan42909"
     sodipodi:role="line"
     y="0"
     x="0 3.8899317 5.4431057 8.941246 12.439385 14.384352 16.329317 20.21925 22.549011 28.376911 32.266842 33.820019"
     style="font-size:6.99628019px;font-style:oblique;font-variant:normal;writing-mode:lr-tb;fill:#231f20;fill-opacity:1;fill-rule:nonzero;stroke:none;font-family:Helvetica;-inkscape-font-specification:Helvetica-Oblique">nick, e-mail</tspan></text>





</g><path
       id="path42911"
       style="fill:#231f20;fill-opacity:1;fill-rule:nonzero;stroke:none"
       d="M 467.64392,530.47198 L 467.64392,529.33635 L 495.51983,529.33635 L 495.51983,530.47198 L 467.64392,530.47198 z" /><g
       id="g42913"
       transform="matrix(0,-1.3370358,1.3370358,0,-45.564458,789.17731)"><text
   id="text42915"
   transform="matrix(1,0,0,-1,230.84,385.491)"><tspan
     id="tspan42917"
     sodipodi:role="line"
     y="0"
     x="0 3.8899317 7.7798634 9.7248297 13.614761 15.559727 17.504692 19.449659 23.33959 27.229523 29.174488"
     style="font-size:6.99628019px;font-style:oblique;font-variant:normal;writing-mode:lr-tb;fill:#231f20;fill-opacity:1;fill-rule:nonzero;stroke:none;font-family:Helvetica;-inkscape-font-specification:Helvetica-Oblique">data / date</tspan><tspan
     y="0"
     x="0"
     id="tspan42919"
     sodipodi:role="line"
     style="font-size:6.99628019px;font-style:oblique;font-variant:normal;writing-mode:lr-tb;fill:#231f20;fill-opacity:1;fill-rule:nonzero;stroke:none;font-family:Helvetica;-inkscape-font-specification:Helvetica-Oblique" /></text>





</g><g
       id="g42921"
       transform="matrix(0,-1.3370358,1.3370358,0,-92.839772,837.17731)"><text
   id="text42923"
   transform="matrix(1,0,0,-1,101.734,385.667)"><tspan
     id="tspan42925"
     sodipodi:role="line"
     style="font-size:6.99628019px;font-style:oblique;font-variant:normal;writing-mode:lr-tb;fill:#231f20;fill-opacity:1;fill-rule:nonzero;stroke:none;font-family:Helvetica;-inkscape-font-specification:Helvetica-Oblique"
     x="0"
     y="0">uwagi / notes</tspan></text>





</g></g><g
     transform="translate(-160,2.17408)"
     id="g42927"><path
       id="path42929"
       style="fill:#231f20;fill-opacity:1;fill-rule:nonzero;stroke:none"
       d="M 494.65311,705.36863 L 494.65311,428.66379 L 495.78938,428.66379 L 495.78938,705.36863 L 494.65311,705.36863 z"
       sodipodi:nodetypes="ccccc" /><path
       id="path42931"
       style="fill:#231f20;fill-opacity:1;fill-rule:nonzero;stroke:none"
       d="M 419.92136,705.36863 L 419.92136,428.66379 L 421.05763,428.66379 L 421.05763,705.36863 L 419.92136,705.36863 z"
       sodipodi:nodetypes="ccccc" /><path
       id="path42933"
       style="fill:#231f20;fill-opacity:1;fill-rule:nonzero;stroke:none"
       d="M 420.02886,705.36863 L 420.02886,704.23299 L 495.78922,704.23299 L 495.78922,705.36863 L 420.02886,705.36863 z" /><path
       id="path42935"
       style="fill:#231f20;fill-opacity:1;fill-rule:nonzero;stroke:none"
       d="M 420.02886,429.80022 L 420.02886,428.66395 L 495.78922,428.66395 L 495.78922,429.80022 L 420.02886,429.80022 z"
       sodipodi:nodetypes="ccccc" /><path
       id="path42937"
       style="fill:#231f20;fill-opacity:1;fill-rule:nonzero;stroke:none"
       d="M 467.44817,705.36863 L 467.44817,428.66379 L 468.58381,428.66379 L 468.58381,705.36863 L 467.44817,705.36863 z"
       sodipodi:nodetypes="ccccc" /><g
       id="g42939"
       transform="matrix(0,-1.3370358,1.3370358,0,-45.564458,837.17731)"><text
   id="text42941"
   transform="matrix(1,0,0,-1,101.734,385.667)"><tspan
     id="tspan42943"
     sodipodi:role="line"
     y="0"
     x="0 3.8899317 5.4431057 8.941246 12.439385 14.384352 16.329317 20.21925 22.549011 28.376911 32.266842 33.820019"
     style="font-size:6.99628019px;font-style:oblique;font-variant:normal;writing-mode:lr-tb;fill:#231f20;fill-opacity:1;fill-rule:nonzero;stroke:none;font-family:Helvetica;-inkscape-font-specification:Helvetica-Oblique">nick, e-mail</tspan></text>





</g><path
       id="path42945"
       style="fill:#231f20;fill-opacity:1;fill-rule:nonzero;stroke:none"
       d="M 467.64392,530.47198 L 467.64392,529.33635 L 495.51983,529.33635 L 495.51983,530.47198 L 467.64392,530.47198 z" /><g
       id="g42947"
       transform="matrix(0,-1.3370358,1.3370358,0,-45.564458,789.17731)"><text
   id="text42949"
   transform="matrix(1,0,0,-1,230.84,385.491)"><tspan
     id="tspan42951"
     sodipodi:role="line"
     y="0"
     x="0 3.8899317 7.7798634 9.7248297 13.614761 15.559727 17.504692 19.449659 23.33959 27.229523 29.174488"
     style="font-size:6.99628019px;font-style:oblique;font-variant:normal;writing-mode:lr-tb;fill:#231f20;fill-opacity:1;fill-rule:nonzero;stroke:none;font-family:Helvetica;-inkscape-font-specification:Helvetica-Oblique">data / date</tspan><tspan
     y="0"
     x="0"
     id="tspan42953"
     sodipodi:role="line"
     style="font-size:6.99628019px;font-style:oblique;font-variant:normal;writing-mode:lr-tb;fill:#231f20;fill-opacity:1;fill-rule:nonzero;stroke:none;font-family:Helvetica;-inkscape-font-specification:Helvetica-Oblique" /></text>





</g><g
       id="g42955"
       transform="matrix(0,-1.3370358,1.3370358,0,-92.839772,837.17731)"><text
   id="text42957"
   transform="matrix(1,0,0,-1,101.734,385.667)"><tspan
     id="tspan42959"
     sodipodi:role="line"
     style="font-size:6.99628019px;font-style:oblique;font-variant:normal;writing-mode:lr-tb;fill:#231f20;fill-opacity:1;fill-rule:nonzero;stroke:none;font-family:Helvetica;-inkscape-font-specification:Helvetica-Oblique"
     x="0"
     y="0">uwagi / notes</tspan></text>





</g></g><g
     transform="translate(-240,2.17408)"
     id="g42961"><path
       id="path42963"
       style="fill:#231f20;fill-opacity:1;fill-rule:nonzero;stroke:none"
       d="M 494.65311,705.36863 L 494.65311,428.66379 L 495.78938,428.66379 L 495.78938,705.36863 L 494.65311,705.36863 z"
       sodipodi:nodetypes="ccccc" /><path
       id="path42965"
       style="fill:#231f20;fill-opacity:1;fill-rule:nonzero;stroke:none"
       d="M 419.92136,705.36863 L 419.92136,428.66379 L 421.05763,428.66379 L 421.05763,705.36863 L 419.92136,705.36863 z"
       sodipodi:nodetypes="ccccc" /><path
       id="path42967"
       style="fill:#231f20;fill-opacity:1;fill-rule:nonzero;stroke:none"
       d="M 420.02886,705.36863 L 420.02886,704.23299 L 495.78922,704.23299 L 495.78922,705.36863 L 420.02886,705.36863 z" /><path
       id="path42969"
       style="fill:#231f20;fill-opacity:1;fill-rule:nonzero;stroke:none"
       d="M 420.02886,429.80022 L 420.02886,428.66395 L 495.78922,428.66395 L 495.78922,429.80022 L 420.02886,429.80022 z"
       sodipodi:nodetypes="ccccc" /><path
       id="path42971"
       style="fill:#231f20;fill-opacity:1;fill-rule:nonzero;stroke:none"
       d="M 467.44817,705.36863 L 467.44817,428.66379 L 468.58381,428.66379 L 468.58381,705.36863 L 467.44817,705.36863 z"
       sodipodi:nodetypes="ccccc" /><g
       id="g42973"
       transform="matrix(0,-1.3370358,1.3370358,0,-45.564458,837.17731)"><text
   id="text42975"
   transform="matrix(1,0,0,-1,101.734,385.667)"><tspan
     id="tspan42977"
     sodipodi:role="line"
     y="0"
     x="0 3.8899317 5.4431057 8.941246 12.439385 14.384352 16.329317 20.21925 22.549011 28.376911 32.266842 33.820019"
     style="font-size:6.99628019px;font-style:oblique;font-variant:normal;writing-mode:lr-tb;fill:#231f20;fill-opacity:1;fill-rule:nonzero;stroke:none;font-family:Helvetica;-inkscape-font-specification:Helvetica-Oblique">nick, e-mail</tspan></text>





</g><path
       id="path42979"
       style="fill:#231f20;fill-opacity:1;fill-rule:nonzero;stroke:none"
       d="M 467.64392,530.47198 L 467.64392,529.33635 L 495.51983,529.33635 L 495.51983,530.47198 L 467.64392,530.47198 z" /><g
       id="g42981"
       transform="matrix(0,-1.3370358,1.3370358,0,-45.564458,789.17731)"><text
   id="text42983"
   transform="matrix(1,0,0,-1,230.84,385.491)"><tspan
     id="tspan42985"
     sodipodi:role="line"
     y="0"
     x="0 3.8899317 7.7798634 9.7248297 13.614761 15.559727 17.504692 19.449659 23.33959 27.229523 29.174488"
     style="font-size:6.99628019px;font-style:oblique;font-variant:normal;writing-mode:lr-tb;fill:#231f20;fill-opacity:1;fill-rule:nonzero;stroke:none;font-family:Helvetica;-inkscape-font-specification:Helvetica-Oblique">data / date</tspan><tspan
     y="inf"
     x="0"
     id="tspan42987"
     sodipodi:role="line"
     style="font-size:6.99628019px;font-style:oblique;font-variant:normal;writing-mode:lr-tb;fill:#231f20;fill-opacity:1;fill-rule:nonzero;stroke:none;font-family:Helvetica;-inkscape-font-specification:Helvetica-Oblique" /></text>





</g><g
       id="g42989"
       transform="matrix(0,-1.3370358,1.3370358,0,-92.839772,837.17731)"><text
   id="text42991"
   transform="matrix(1,0,0,-1,101.734,385.667)"><tspan
     id="tspan42993"
     sodipodi:role="line"
     style="font-size:6.99628019px;font-style:oblique;font-variant:normal;writing-mode:lr-tb;fill:#231f20;fill-opacity:1;fill-rule:nonzero;stroke:none;font-family:Helvetica;-inkscape-font-specification:Helvetica-Oblique"
     x="0"
     y="0">uwagi / notes</tspan></text>





</g></g><g
     transform="translate(-320,2.17408)"
     id="g42995"><path
       id="path42997"
       style="fill:#231f20;fill-opacity:1;fill-rule:nonzero;stroke:none"
       d="M 494.65311,705.36863 L 494.65311,428.66379 L 495.78938,428.66379 L 495.78938,705.36863 L 494.65311,705.36863 z"
       sodipodi:nodetypes="ccccc" /><path
       id="path42999"
       style="fill:#231f20;fill-opacity:1;fill-rule:nonzero;stroke:none"
       d="M 419.92136,705.36863 L 419.92136,428.66379 L 421.05763,428.66379 L 421.05763,705.36863 L 419.92136,705.36863 z"
       sodipodi:nodetypes="ccccc" /><path
       id="path43001"
       style="fill:#231f20;fill-opacity:1;fill-rule:nonzero;stroke:none"
       d="M 420.02886,705.36863 L 420.02886,704.23299 L 495.78922,704.23299 L 495.78922,705.36863 L 420.02886,705.36863 z" /><path
       id="path43003"
       style="fill:#231f20;fill-opacity:1;fill-rule:nonzero;stroke:none"
       d="M 420.02886,429.80022 L 420.02886,428.66395 L 495.78922,428.66395 L 495.78922,429.80022 L 420.02886,429.80022 z"
       sodipodi:nodetypes="ccccc" /><path
       id="path43005"
       style="fill:#231f20;fill-opacity:1;fill-rule:nonzero;stroke:none"
       d="M 467.44817,705.36863 L 467.44817,428.66379 L 468.58381,428.66379 L 468.58381,705.36863 L 467.44817,705.36863 z"
       sodipodi:nodetypes="ccccc" /><g
       id="g43007"
       transform="matrix(0,-1.3370358,1.3370358,0,-45.564458,837.17731)"><text
   id="text43009"
   transform="matrix(1,0,0,-1,101.734,385.667)"><tspan
     id="tspan43011"
     sodipodi:role="line"
     y="0"
     x="0 3.8899317 5.4431057 8.941246 12.439385 14.384352 16.329317 20.21925 22.549011 28.376911 32.266842 33.820019"
     style="font-size:6.99628019px;font-style:oblique;font-variant:normal;writing-mode:lr-tb;fill:#231f20;fill-opacity:1;fill-rule:nonzero;stroke:none;font-family:Helvetica;-inkscape-font-specification:Helvetica-Oblique">nick, e-mail</tspan></text>





</g><path
       id="path43013"
       style="fill:#231f20;fill-opacity:1;fill-rule:nonzero;stroke:none"
       d="M 467.64392,530.47198 L 467.64392,529.33635 L 495.51983,529.33635 L 495.51983,530.47198 L 467.64392,530.47198 z" /><g
       id="g43015"
       transform="matrix(0,-1.3370358,1.3370358,0,-45.564458,789.17731)"><text
   id="text43017"
   transform="matrix(1,0,0,-1,230.84,385.491)"><tspan
     id="tspan43019"
     sodipodi:role="line"
     y="0"
     x="0 3.8899317 7.7798634 9.7248297 13.614761 15.559727 17.504692 19.449659 23.33959 27.229523 29.174488"
     style="font-size:6.99628019px;font-style:oblique;font-variant:normal;writing-mode:lr-tb;fill:#231f20;fill-opacity:1;fill-rule:nonzero;stroke:none;font-family:Helvetica;-inkscape-font-specification:Helvetica-Oblique">data / date</tspan><tspan
     y="0"
     x="0"
     id="tspan43021"
     sodipodi:role="line"
     style="font-size:6.99628019px;font-style:oblique;font-variant:normal;writing-mode:lr-tb;fill:#231f20;fill-opacity:1;fill-rule:nonzero;stroke:none;font-family:Helvetica;-inkscape-font-specification:Helvetica-Oblique" /></text>





</g><g
       id="g43023"
       transform="matrix(0,-1.3370358,1.3370358,0,-92.839772,837.17731)"><text
   id="text43025"
   transform="matrix(1,0,0,-1,101.734,385.667)"><tspan
     id="tspan43027"
     sodipodi:role="line"
     style="font-size:6.99628019px;font-style:oblique;font-variant:normal;writing-mode:lr-tb;fill:#231f20;fill-opacity:1;fill-rule:nonzero;stroke:none;font-family:Helvetica;-inkscape-font-specification:Helvetica-Oblique"
     x="0"
     y="0">uwagi / notes</tspan></text>





</g></g></g><g
   id="g47511"
   transform="matrix(-1,0,0,-1,595.19524,546.62558)"><g
     transform="translate(0,-293.70342)"
     id="g45931"><path
       id="path45933"
       style="fill:#231f20;fill-opacity:1;fill-rule:nonzero;stroke:none"
       d="M 494.65311,705.36863 L 494.65311,428.66379 L 495.78938,428.66379 L 495.78938,705.36863 L 494.65311,705.36863 z"
       sodipodi:nodetypes="ccccc" /><path
       id="path45935"
       style="fill:#231f20;fill-opacity:1;fill-rule:nonzero;stroke:none"
       d="M 419.92136,705.36863 L 419.92136,428.66379 L 421.05763,428.66379 L 421.05763,705.36863 L 419.92136,705.36863 z"
       sodipodi:nodetypes="ccccc" /><path
       id="path45937"
       style="fill:#231f20;fill-opacity:1;fill-rule:nonzero;stroke:none"
       d="M 420.02886,705.36863 L 420.02886,704.23299 L 495.78922,704.23299 L 495.78922,705.36863 L 420.02886,705.36863 z" /><path
       id="path45939"
       style="fill:#231f20;fill-opacity:1;fill-rule:nonzero;stroke:none"
       d="M 420.02886,429.80022 L 420.02886,428.66395 L 495.78922,428.66395 L 495.78922,429.80022 L 420.02886,429.80022 z"
       sodipodi:nodetypes="ccccc" /><path
       id="path45941"
       style="fill:#231f20;fill-opacity:1;fill-rule:nonzero;stroke:none"
       d="M 467.44817,705.36863 L 467.44817,428.66379 L 468.58381,428.66379 L 468.58381,705.36863 L 467.44817,705.36863 z"
       sodipodi:nodetypes="ccccc" /><g
       id="g45943"
       transform="matrix(0,-1.3370358,1.3370358,0,-45.564458,837.17731)"><text
   id="text45945"
   transform="matrix(1,0,0,-1,101.734,385.667)"><tspan
     id="tspan45947"
     sodipodi:role="line"
     y="0"
     x="0 3.8899317 5.4431057 8.941246 12.439385 14.384352 16.329317 20.21925 22.549011 28.376911 32.266842 33.820019"
     style="font-size:6.99628019px;font-style:oblique;font-variant:normal;writing-mode:lr-tb;fill:#231f20;fill-opacity:1;fill-rule:nonzero;stroke:none;font-family:Helvetica;-inkscape-font-specification:Helvetica-Oblique">nick, e-mail</tspan></text>





</g><path
       id="path45949"
       style="fill:#231f20;fill-opacity:1;fill-rule:nonzero;stroke:none"
       d="M 467.64392,530.47198 L 467.64392,529.33635 L 495.51983,529.33635 L 495.51983,530.47198 L 467.64392,530.47198 z" /><g
       id="g45951"
       transform="matrix(0,-1.3370358,1.3370358,0,-45.564458,789.17731)"><text
   id="text45953"
   transform="matrix(1,0,0,-1,230.84,385.491)"><tspan
     id="tspan45955"
     sodipodi:role="line"
     y="0"
     x="0 3.8899317 7.7798634 9.7248297 13.614761 15.559727 17.504692 19.449659 23.33959 27.229523 29.174488"
     style="font-size:6.99628019px;font-style:oblique;font-variant:normal;writing-mode:lr-tb;fill:#231f20;fill-opacity:1;fill-rule:nonzero;stroke:none;font-family:Helvetica;-inkscape-font-specification:Helvetica-Oblique">data / date</tspan><tspan
     y="0"
     x="0"
     id="tspan45957"
     sodipodi:role="line"
     style="font-size:6.99628019px;font-style:oblique;font-variant:normal;writing-mode:lr-tb;fill:#231f20;fill-opacity:1;fill-rule:nonzero;stroke:none;font-family:Helvetica;-inkscape-font-specification:Helvetica-Oblique" /></text>





</g><g
       id="g45959"
       transform="matrix(0,-1.3370358,1.3370358,0,-92.839772,837.17731)"><text
   id="text45961"
   transform="matrix(1,0,0,-1,101.734,385.667)"><tspan
     id="tspan45963"
     sodipodi:role="line"
     style="font-size:6.99628019px;font-style:oblique;font-variant:normal;writing-mode:lr-tb;fill:#231f20;fill-opacity:1;fill-rule:nonzero;stroke:none;font-family:Helvetica;-inkscape-font-specification:Helvetica-Oblique"
     x="0"
     y="0">uwagi / notes</tspan></text>





</g></g><g
     transform="translate(-80,-293.70342)"
     id="g45965"><path
       id="path45967"
       style="fill:#231f20;fill-opacity:1;fill-rule:nonzero;stroke:none"
       d="M 494.65311,705.36863 L 494.65311,428.66379 L 495.78938,428.66379 L 495.78938,705.36863 L 494.65311,705.36863 z"
       sodipodi:nodetypes="ccccc" /><path
       id="path45969"
       style="fill:#231f20;fill-opacity:1;fill-rule:nonzero;stroke:none"
       d="M 419.92136,705.36863 L 419.92136,428.66379 L 421.05763,428.66379 L 421.05763,705.36863 L 419.92136,705.36863 z"
       sodipodi:nodetypes="ccccc" /><path
       id="path45971"
       style="fill:#231f20;fill-opacity:1;fill-rule:nonzero;stroke:none"
       d="M 420.02886,705.36863 L 420.02886,704.23299 L 495.78922,704.23299 L 495.78922,705.36863 L 420.02886,705.36863 z" /><path
       id="path45973"
       style="fill:#231f20;fill-opacity:1;fill-rule:nonzero;stroke:none"
       d="M 420.02886,429.80022 L 420.02886,428.66395 L 495.78922,428.66395 L 495.78922,429.80022 L 420.02886,429.80022 z"
       sodipodi:nodetypes="ccccc" /><path
       id="path45975"
       style="fill:#231f20;fill-opacity:1;fill-rule:nonzero;stroke:none"
       d="M 467.44817,705.36863 L 467.44817,428.66379 L 468.58381,428.66379 L 468.58381,705.36863 L 467.44817,705.36863 z"
       sodipodi:nodetypes="ccccc" /><g
       id="g45977"
       transform="matrix(0,-1.3370358,1.3370358,0,-45.564458,837.17731)"><text
   id="text45979"
   transform="matrix(1,0,0,-1,101.734,385.667)"><tspan
     id="tspan45981"
     sodipodi:role="line"
     y="0"
     x="0 3.8899317 5.4431057 8.941246 12.439385 14.384352 16.329317 20.21925 22.549011 28.376911 32.266842 33.820019"
     style="font-size:6.99628019px;font-style:oblique;font-variant:normal;writing-mode:lr-tb;fill:#231f20;fill-opacity:1;fill-rule:nonzero;stroke:none;font-family:Helvetica;-inkscape-font-specification:Helvetica-Oblique">nick, e-mail</tspan></text>





</g><path
       id="path45983"
       style="fill:#231f20;fill-opacity:1;fill-rule:nonzero;stroke:none"
       d="M 467.64392,530.47198 L 467.64392,529.33635 L 495.51983,529.33635 L 495.51983,530.47198 L 467.64392,530.47198 z" /><g
       id="g45985"
       transform="matrix(0,-1.3370358,1.3370358,0,-45.564458,789.17731)"><text
   id="text45987"
   transform="matrix(1,0,0,-1,230.84,385.491)"><tspan
     id="tspan45989"
     sodipodi:role="line"
     y="0"
     x="0 3.8899317 7.7798634 9.7248297 13.614761 15.559727 17.504692 19.449659 23.33959 27.229523 29.174488"
     style="font-size:6.99628019px;font-style:oblique;font-variant:normal;writing-mode:lr-tb;fill:#231f20;fill-opacity:1;fill-rule:nonzero;stroke:none;font-family:Helvetica;-inkscape-font-specification:Helvetica-Oblique">data / date</tspan><tspan
     y="0"
     x="0"
     id="tspan45991"
     sodipodi:role="line"
     style="font-size:6.99628019px;font-style:oblique;font-variant:normal;writing-mode:lr-tb;fill:#231f20;fill-opacity:1;fill-rule:nonzero;stroke:none;font-family:Helvetica;-inkscape-font-specification:Helvetica-Oblique" /></text>





</g><g
       id="g45993"
       transform="matrix(0,-1.3370358,1.3370358,0,-92.839772,837.17731)"><text
   id="text45995"
   transform="matrix(1,0,0,-1,101.734,385.667)"><tspan
     id="tspan45997"
     sodipodi:role="line"
     style="font-size:6.99628019px;font-style:oblique;font-variant:normal;writing-mode:lr-tb;fill:#231f20;fill-opacity:1;fill-rule:nonzero;stroke:none;font-family:Helvetica;-inkscape-font-specification:Helvetica-Oblique"
     x="0"
     y="0">uwagi / notes</tspan></text>





</g></g><g
     transform="translate(-160,-293.70342)"
     id="g45999"><path
       id="path46001"
       style="fill:#231f20;fill-opacity:1;fill-rule:nonzero;stroke:none"
       d="M 494.65311,705.36863 L 494.65311,428.66379 L 495.78938,428.66379 L 495.78938,705.36863 L 494.65311,705.36863 z"
       sodipodi:nodetypes="ccccc" /><path
       id="path46003"
       style="fill:#231f20;fill-opacity:1;fill-rule:nonzero;stroke:none"
       d="M 419.92136,705.36863 L 419.92136,428.66379 L 421.05763,428.66379 L 421.05763,705.36863 L 419.92136,705.36863 z"
       sodipodi:nodetypes="ccccc" /><path
       id="path46005"
       style="fill:#231f20;fill-opacity:1;fill-rule:nonzero;stroke:none"
       d="M 420.02886,705.36863 L 420.02886,704.23299 L 495.78922,704.23299 L 495.78922,705.36863 L 420.02886,705.36863 z" /><path
       id="path46007"
       style="fill:#231f20;fill-opacity:1;fill-rule:nonzero;stroke:none"
       d="M 420.02886,429.80022 L 420.02886,428.66395 L 495.78922,428.66395 L 495.78922,429.80022 L 420.02886,429.80022 z"
       sodipodi:nodetypes="ccccc" /><path
       id="path46009"
       style="fill:#231f20;fill-opacity:1;fill-rule:nonzero;stroke:none"
       d="M 467.44817,705.36863 L 467.44817,428.66379 L 468.58381,428.66379 L 468.58381,705.36863 L 467.44817,705.36863 z"
       sodipodi:nodetypes="ccccc" /><g
       id="g46011"
       transform="matrix(0,-1.3370358,1.3370358,0,-45.564458,837.17731)"><text
   id="text46013"
   transform="matrix(1,0,0,-1,101.734,385.667)"><tspan
     id="tspan46015"
     sodipodi:role="line"
     y="0"
     x="0 3.8899317 5.4431057 8.941246 12.439385 14.384352 16.329317 20.21925 22.549011 28.376911 32.266842 33.820019"
     style="font-size:6.99628019px;font-style:oblique;font-variant:normal;writing-mode:lr-tb;fill:#231f20;fill-opacity:1;fill-rule:nonzero;stroke:none;font-family:Helvetica;-inkscape-font-specification:Helvetica-Oblique">nick, e-mail</tspan></text>





</g><path
       id="path46017"
       style="fill:#231f20;fill-opacity:1;fill-rule:nonzero;stroke:none"
       d="M 467.64392,530.47198 L 467.64392,529.33635 L 495.51983,529.33635 L 495.51983,530.47198 L 467.64392,530.47198 z" /><g
       id="g46019"
       transform="matrix(0,-1.3370358,1.3370358,0,-45.564458,789.17731)"><text
   id="text46021"
   transform="matrix(1,0,0,-1,230.84,385.491)"><tspan
     id="tspan46023"
     sodipodi:role="line"
     y="0"
     x="0 3.8899317 7.7798634 9.7248297 13.614761 15.559727 17.504692 19.449659 23.33959 27.229523 29.174488"
     style="font-size:6.99628019px;font-style:oblique;font-variant:normal;writing-mode:lr-tb;fill:#231f20;fill-opacity:1;fill-rule:nonzero;stroke:none;font-family:Helvetica;-inkscape-font-specification:Helvetica-Oblique">data / date</tspan><tspan
     y="0"
     x="0"
     id="tspan46025"
     sodipodi:role="line"
     style="font-size:6.99628019px;font-style:oblique;font-variant:normal;writing-mode:lr-tb;fill:#231f20;fill-opacity:1;fill-rule:nonzero;stroke:none;font-family:Helvetica;-inkscape-font-specification:Helvetica-Oblique" /></text>





</g><g
       id="g46027"
       transform="matrix(0,-1.3370358,1.3370358,0,-92.839772,837.17731)"><text
   id="text46029"
   transform="matrix(1,0,0,-1,101.734,385.667)"><tspan
     id="tspan46031"
     sodipodi:role="line"
     style="font-size:6.99628019px;font-style:oblique;font-variant:normal;writing-mode:lr-tb;fill:#231f20;fill-opacity:1;fill-rule:nonzero;stroke:none;font-family:Helvetica;-inkscape-font-specification:Helvetica-Oblique"
     x="0"
     y="0">uwagi / notes</tspan></text>





</g></g><g
     transform="translate(-240,-293.70342)"
     id="g46033"><path
       id="path46035"
       style="fill:#231f20;fill-opacity:1;fill-rule:nonzero;stroke:none"
       d="M 494.65311,705.36863 L 494.65311,428.66379 L 495.78938,428.66379 L 495.78938,705.36863 L 494.65311,705.36863 z"
       sodipodi:nodetypes="ccccc" /><path
       id="path46037"
       style="fill:#231f20;fill-opacity:1;fill-rule:nonzero;stroke:none"
       d="M 419.92136,705.36863 L 419.92136,428.66379 L 421.05763,428.66379 L 421.05763,705.36863 L 419.92136,705.36863 z"
       sodipodi:nodetypes="ccccc" /><path
       id="path46039"
       style="fill:#231f20;fill-opacity:1;fill-rule:nonzero;stroke:none"
       d="M 420.02886,705.36863 L 420.02886,704.23299 L 495.78922,704.23299 L 495.78922,705.36863 L 420.02886,705.36863 z" /><path
       id="path46041"
       style="fill:#231f20;fill-opacity:1;fill-rule:nonzero;stroke:none"
       d="M 420.02886,429.80022 L 420.02886,428.66395 L 495.78922,428.66395 L 495.78922,429.80022 L 420.02886,429.80022 z"
       sodipodi:nodetypes="ccccc" /><path
       id="path46043"
       style="fill:#231f20;fill-opacity:1;fill-rule:nonzero;stroke:none"
       d="M 467.44817,705.36863 L 467.44817,428.66379 L 468.58381,428.66379 L 468.58381,705.36863 L 467.44817,705.36863 z"
       sodipodi:nodetypes="ccccc" /><g
       id="g46045"
       transform="matrix(0,-1.3370358,1.3370358,0,-45.564458,837.17731)"><text
   id="text46047"
   transform="matrix(1,0,0,-1,101.734,385.667)"><tspan
     id="tspan46049"
     sodipodi:role="line"
     y="0"
     x="0 3.8899317 5.4431057 8.941246 12.439385 14.384352 16.329317 20.21925 22.549011 28.376911 32.266842 33.820019"
     style="font-size:6.99628019px;font-style:oblique;font-variant:normal;writing-mode:lr-tb;fill:#231f20;fill-opacity:1;fill-rule:nonzero;stroke:none;font-family:Helvetica;-inkscape-font-specification:Helvetica-Oblique">nick, e-mail</tspan></text>





</g><path
       id="path46051"
       style="fill:#231f20;fill-opacity:1;fill-rule:nonzero;stroke:none"
       d="M 467.64392,530.47198 L 467.64392,529.33635 L 495.51983,529.33635 L 495.51983,530.47198 L 467.64392,530.47198 z" /><g
       id="g46053"
       transform="matrix(0,-1.3370358,1.3370358,0,-45.564458,789.17731)"><text
   id="text46055"
   transform="matrix(1,0,0,-1,230.84,385.491)"><tspan
     id="tspan46057"
     sodipodi:role="line"
     y="0"
     x="0 3.8899317 7.7798634 9.7248297 13.614761 15.559727 17.504692 19.449659 23.33959 27.229523 29.174488"
     style="font-size:6.99628019px;font-style:oblique;font-variant:normal;writing-mode:lr-tb;fill:#231f20;fill-opacity:1;fill-rule:nonzero;stroke:none;font-family:Helvetica;-inkscape-font-specification:Helvetica-Oblique">data / date</tspan><tspan
     y="0"
     x="0"
     id="tspan46059"
     sodipodi:role="line"
     style="font-size:6.99628019px;font-style:oblique;font-variant:normal;writing-mode:lr-tb;fill:#231f20;fill-opacity:1;fill-rule:nonzero;stroke:none;font-family:Helvetica;-inkscape-font-specification:Helvetica-Oblique" /></text>





</g><g
       id="g46061"
       transform="matrix(0,-1.3370358,1.3370358,0,-92.839772,837.17731)"><text
   id="text46063"
   transform="matrix(1,0,0,-1,101.734,385.667)"><tspan
     id="tspan46065"
     sodipodi:role="line"
     style="font-size:6.99628019px;font-style:oblique;font-variant:normal;writing-mode:lr-tb;fill:#231f20;fill-opacity:1;fill-rule:nonzero;stroke:none;font-family:Helvetica;-inkscape-font-specification:Helvetica-Oblique"
     x="0"
     y="0">uwagi / notes</tspan></text>





</g></g><g
     transform="translate(-320,-293.70342)"
     id="g46067"><path
       id="path46069"
       style="fill:#231f20;fill-opacity:1;fill-rule:nonzero;stroke:none"
       d="M 494.65311,705.36863 L 494.65311,428.66379 L 495.78938,428.66379 L 495.78938,705.36863 L 494.65311,705.36863 z"
       sodipodi:nodetypes="ccccc" /><path
       id="path46071"
       style="fill:#231f20;fill-opacity:1;fill-rule:nonzero;stroke:none"
       d="M 419.92136,705.36863 L 419.92136,428.66379 L 421.05763,428.66379 L 421.05763,705.36863 L 419.92136,705.36863 z"
       sodipodi:nodetypes="ccccc" /><path
       id="path46073"
       style="fill:#231f20;fill-opacity:1;fill-rule:nonzero;stroke:none"
       d="M 420.02886,705.36863 L 420.02886,704.23299 L 495.78922,704.23299 L 495.78922,705.36863 L 420.02886,705.36863 z" /><path
       id="path46075"
       style="fill:#231f20;fill-opacity:1;fill-rule:nonzero;stroke:none"
       d="M 420.02886,429.80022 L 420.02886,428.66395 L 495.78922,428.66395 L 495.78922,429.80022 L 420.02886,429.80022 z"
       sodipodi:nodetypes="ccccc" /><path
       id="path46077"
       style="fill:#231f20;fill-opacity:1;fill-rule:nonzero;stroke:none"
       d="M 467.44817,705.36863 L 467.44817,428.66379 L 468.58381,428.66379 L 468.58381,705.36863 L 467.44817,705.36863 z"
       sodipodi:nodetypes="ccccc" /><g
       id="g46079"
       transform="matrix(0,-1.3370358,1.3370358,0,-45.564458,837.17731)"><text
   id="text46081"
   transform="matrix(1,0,0,-1,101.734,385.667)"><tspan
     id="tspan46083"
     sodipodi:role="line"
     y="0"
     x="0 3.8899317 5.4431057 8.941246 12.439385 14.384352 16.329317 20.21925 22.549011 28.376911 32.266842 33.820019"
     style="font-size:6.99628019px;font-style:oblique;font-variant:normal;writing-mode:lr-tb;fill:#231f20;fill-opacity:1;fill-rule:nonzero;stroke:none;font-family:Helvetica;-inkscape-font-specification:Helvetica-Oblique">nick, e-mail</tspan></text>





</g><path
       id="path46085"
       style="fill:#231f20;fill-opacity:1;fill-rule:nonzero;stroke:none"
       d="M 467.64392,530.47198 L 467.64392,529.33635 L 495.51983,529.33635 L 495.51983,530.47198 L 467.64392,530.47198 z" /><g
       id="g46087"
       transform="matrix(0,-1.3370358,1.3370358,0,-45.564458,789.17731)"><text
   id="text46089"
   transform="matrix(1,0,0,-1,230.84,385.491)"><tspan
     id="tspan46091"
     sodipodi:role="line"
     y="0"
     x="0 3.8899317 7.7798634 9.7248297 13.614761 15.559727 17.504692 19.449659 23.33959 27.229523 29.174488"
     style="font-size:6.99628019px;font-style:oblique;font-variant:normal;writing-mode:lr-tb;fill:#231f20;fill-opacity:1;fill-rule:nonzero;stroke:none;font-family:Helvetica;-inkscape-font-specification:Helvetica-Oblique">data / date</tspan><tspan
     y="0"
     x="0"
     id="tspan46093"
     sodipodi:role="line"
     style="font-size:6.99628019px;font-style:oblique;font-variant:normal;writing-mode:lr-tb;fill:#231f20;fill-opacity:1;fill-rule:nonzero;stroke:none;font-family:Helvetica;-inkscape-font-specification:Helvetica-Oblique" /></text>





</g><g
       id="g46095"
       transform="matrix(0,-1.3370358,1.3370358,0,-92.839772,837.17731)"><text
   id="text46097"
   transform="matrix(1,0,0,-1,101.734,385.667)"><tspan
     id="tspan46099"
     sodipodi:role="line"
     style="font-size:6.99628019px;font-style:oblique;font-variant:normal;writing-mode:lr-tb;fill:#231f20;fill-opacity:1;fill-rule:nonzero;stroke:none;font-family:Helvetica;-inkscape-font-specification:Helvetica-Oblique"
     x="0"
     y="0">uwagi / notes</tspan></text>





</g></g></g><text
   transform="scale(1,-1)"
   id="text693"
   x="24.649"
   y="-33.873444"><tspan
     style="font-size:7.99574995px;font-variant:normal;font-weight:normal;writing-mode:lr-tb;fill:#231f20;fill-opacity:1;fill-rule:nonzero;stroke:none;font-family:TimesNewRomanPSMT;-inkscape-font-specification:TimesNewRomanPSMT"
     sodipodi:role="line"
     id="tspan695"
     x="24.649"
     y="-33.873444">Original design by </tspan></text>


<text
   transform="scale(1,-1)"
   id="text697"
   x="107.2948"
   y="-33.873444"><tspan
     style="font-size:7.99574995px;font-variant:normal;font-weight:500;writing-mode:lr-tb;fill:#231f20;fill-opacity:1;fill-rule:nonzero;stroke:none;font-family:BankGothicBT;-inkscape-font-specification:BankGothicBT-Medium"
     x="107.2948 113.28358 118.83264 124.02988 126.35664 131.5219 137.21487 144.61893 149.34439 154.06189 159.57095 164.87213 167.1989 172.15628 174.80286 179.95212 185.66908"
     y="-33.873444"
     sodipodi:role="line"
     id="tspan699">AdrianMatusik.com</tspan></text>


<text
   transform="scale(1,-1)"
   id="text2889"
   x="24.649"
   y="-23.501656"><tspan
     style="font-size:7.99574995px;font-variant:normal;font-weight:normal;writing-mode:lr-tb;fill:#231f20;fill-opacity:1;fill-rule:nonzero;stroke:none;font-family:TimesNewRomanPSMT;-inkscape-font-specification:TimesNewRomanPSMT"
     sodipodi:role="line"
     id="tspan2891"
     x="24.649"
     y="-23.501656">Revised by</tspan></text>


<text
   transform="scale(1,-1)"
   id="text2893"
   x="107.2948"
   y="-23.501656"><tspan
     style="font-size:7.99574995px;font-variant:normal;font-weight:500;writing-mode:lr-tb;fill:#231f20;fill-opacity:1;fill-rule:nonzero;stroke:none;font-family:BankGothicBT;-inkscape-font-specification:BankGothicBT-Medium"
     sodipodi:role="line"
     id="tspan2895"
     x="107.2948"
     y="-23.501656">rush@rushbase.net / www.rushbase.net</tspan></text>


</g></svg>