<?xml version="1.0" encoding="UTF-8" standalone="no"?>
<!-- Created with Inkscape (http://www.inkscape.org/) -->
<svg
   xmlns:dc="http://purl.org/dc/elements/1.1/"
   xmlns:cc="http://creativecommons.org/ns#"
   xmlns:rdf="http://www.w3.org/1999/02/22-rdf-syntax-ns#"
   xmlns:svg="http://www.w3.org/2000/svg"
   xmlns="http://www.w3.org/2000/svg"
   xmlns:xlink="http://www.w3.org/1999/xlink"
   xmlns:sodipodi="http://sodipodi.sourceforge.net/DTD/sodipodi-0.dtd"
   xmlns:inkscape="http://www.inkscape.org/namespaces/inkscape"
   id="svg2"
   sodipodi:version="0.32"
   inkscape:version="0.46"
   width="743.75"
   height="1052.5"
   xml:space="preserve"
   sodipodi:docname="Logbook-A7-_dwustronny_by_rushcore_page2.svg"
   inkscape:output_extension="org.inkscape.output.svg.inkscape"><metadata
     id="metadata7"><rdf:RDF><cc:Work
         rdf:about=""><dc:format>image/svg+xml</dc:format><dc:type
           rdf:resource="http://purl.org/dc/dcmitype/StillImage" /></cc:Work></rdf:RDF></metadata><defs
     id="defs5"><inkscape:perspective
       sodipodi:type="inkscape:persp3d"
       inkscape:vp_x="0 : 526.18109 : 1"
       inkscape:vp_y="0 : 1000 : 0"
       inkscape:vp_z="744.09448 : 526.18109 : 1"
       inkscape:persp3d-origin="372.04724 : 350.78739 : 1"
       id="perspective9" /><clipPath
       clipPathUnits="userSpaceOnUse"
       id="clipPath19"><path
         d="M 820.57,3643.24 L 2344.42,3643.24 L 2344.42,4828.13 L 820.57,4828.13 L 820.57,3643.24"
         id="path21" /></clipPath><clipPath
       clipPathUnits="userSpaceOnUse"
       id="clipPath237"><path
         d="M 0,2.66016 L 4958,2.66016 L 4958,7014.68 L 0,7014.68 L 0,2.66016"
         id="path239" /></clipPath><clipPath
       clipPathUnits="userSpaceOnUse"
       id="clipPath247"><path
         d="M 2614.75,3943.98 L 4138.74,3943.98 L 4138.74,5591.03 L 2614.75,5591.03 L 2614.75,3943.98"
         id="path249" /></clipPath><clipPath
       clipPathUnits="userSpaceOnUse"
       id="clipPath291"><path
         d="M 0,2.66016 L 4958,2.66016 L 4958,7014.68 L 0,7014.68 L 0,2.66016"
         id="path293" /></clipPath><clipPath
       clipPathUnits="userSpaceOnUse"
       id="clipPath515"><path
         d="M 2614.75,1464.98 L 4138.74,1464.98 L 4138.74,3112.03 L 2614.75,3112.03 L 2614.75,1464.98"
         id="path517" /></clipPath><clipPath
       clipPathUnits="userSpaceOnUse"
       id="clipPath559"><path
         d="M 0,2.66016 L 4958,2.66016 L 4958,7014.68 L 0,7014.68 L 0,2.66016"
         id="path561" /></clipPath><inkscape:perspective
       id="perspective2912"
       inkscape:persp3d-origin="372.04724 : 350.78739 : 1"
       inkscape:vp_z="744.09448 : 526.18109 : 1"
       inkscape:vp_y="0 : 1000 : 0"
       inkscape:vp_x="0 : 526.18109 : 1"
       sodipodi:type="inkscape:persp3d" /></defs><sodipodi:namedview
     inkscape:window-height="673"
     inkscape:window-width="1146"
     inkscape:pageshadow="2"
     inkscape:pageopacity="1"
     guidetolerance="10.0"
     gridtolerance="10.0"
     objecttolerance="10.0"
     borderopacity="1.0"
     bordercolor="#666666"
     pagecolor="#ffffff"
     id="base"
     showgrid="false"
     inkscape:zoom="1.5326361"
     inkscape:cx="350.65747"
     inkscape:cy="346.24561"
     inkscape:window-x="124"
     inkscape:window-y="66"
     inkscape:current-layer="g11" /><g
     id="g11"
     inkscape:groupmode="layer"
     inkscape:label="Logbook-A7-_dwustronny_by_Maciuh"
     transform="matrix(1.25,0,0,-1.25,0,1052.5)"><g
   id="g15"
   transform="scale(0.12,0.12)"><g
     clip-path="url(#clipPath19)"
     id="g17"><path
       id="path23"
       style="fill:#e1ceb6;fill-opacity:1;fill-rule:evenodd;stroke:none"
       d="M 2196.2,4729.13 L 2201.31,4726.57 C 2202.27,4738.09 2206.35,4740 2214.1,4736.79 L 2215.58,4745.34 L 2219.21,4744.46 L 2178.31,4810.94 L 2165.52,4810.94 C 2161.54,4808.27 2157.85,4807.55 2157.85,4800.72 L 2157.85,4798.16 C 2157.85,4792.16 2175.05,4770.71 2177.98,4764.6 C 2183.99,4752.09 2187.8,4738.79 2196.2,4729.13" /><path
       id="path25"
       style="fill:#783d2c;fill-opacity:1;fill-rule:evenodd;stroke:none"
       d="M 1833.16,3957.02 C 1824.05,3957.02 1810.14,3970.93 1810.14,3980.03 C 1810.14,4000.82 1842.09,4047.47 1850.61,4062.5 L 1937.98,4043.95 C 1921.89,4029.96 1901.27,4017.38 1883.8,4003.53 C 1872.02,3994.2 1841.49,3957.02 1833.16,3957.02 M 1240.02,3972.36 C 1222.38,3972.36 1211.89,3980.57 1211.89,3997.93 C 1211.89,4027.22 1221.69,4034.4 1241.74,4044.78 C 1253.55,4050.89 1283,4069.57 1293.7,4072.07 L 1293.7,4056.73 C 1293.7,4031.31 1262.3,3972.36 1240.02,3972.36 M 1761.57,4082.3 L 1834.29,4068.91 L 1797.37,4000.48 C 1796.86,4022.93 1771.11,4064.28 1761.57,4082.3 M 1408.75,4033.72 C 1408.75,4068.86 1451.51,4087.8 1476.96,4101.02 C 1491.92,4108.79 1505.59,4118.86 1518.21,4128.79 C 1526.15,4135.04 1528.83,4136.77 1536,4144.24 C 1539.95,4148.35 1549.01,4164.11 1551.93,4164.11 C 1568.23,4164.11 1625.15,4110.63 1628.63,4097.63 C 1603.2,4097.63 1541.52,4075.83 1517.74,4067.9 C 1494.67,4060.2 1429.33,4033.72 1408.75,4033.72 M 1408.75,4077.18 L 1413.86,4107.86 C 1442.35,4126.93 1475.85,4169.22 1521.25,4169.22 L 1531.47,4169.22 C 1529.41,4144.45 1432.41,4093.03 1408.75,4077.18 M 1199.11,4220.35 L 1195.66,4206.84 L 1186.32,4217.79 L 1191.44,4194.79 C 1184.22,4195.39 1181.21,4194.72 1181.21,4202.46 L 1181.21,4212.69 C 1181.21,4229.16 1189.14,4241.8 1199.54,4248.9 L 1201.66,4245.92 L 1201.66,4228.02 L 1199.11,4220.35 z M 1252.8,4222.91 L 1250.24,4212.69 L 1247.69,4205.02 L 1250.24,4199.9 L 1237.46,4192.23 L 1234.9,4187.12 L 1229.79,4187.12 C 1228.08,4185.57 1225.13,4182 1222.12,4182 C 1214.6,4182 1209.33,4187.27 1209.33,4194.79 C 1209.33,4219.99 1220.74,4261.26 1245.13,4261.26 L 1252.61,4261.2 L 1257.91,4240.81 L 1255.35,4235.69 L 1255.57,4227.89 L 1252.8,4222.91 z M 999.684,4069.52 L 1022.7,4077.18 C 1050.75,4119.07 1103.03,4158.73 1145.41,4187.12 C 1166.23,4205.2 1161,4213.21 1174.98,4230.61 L 1176.1,4194.79 C 1178.77,4190.81 1179.49,4187.12 1186.32,4187.12 C 1192.68,4187.12 1195.94,4193.51 1201.66,4197.35 C 1201.95,4184.7 1206.83,4176.89 1219.56,4176.89 L 1227.23,4176.89 C 1236.7,4176.89 1247.95,4190.05 1250.24,4199.9 C 1259.7,4206.83 1265.58,4226.87 1265.58,4243.36 L 1265.58,4245.92 C 1265.58,4260.87 1255.13,4265.02 1247.69,4271.49 C 1210.91,4253.84 1231.05,4263.23 1210.82,4238.84 L 1204.49,4254.71 L 1201.66,4253.59 C 1206.66,4272.28 1251.23,4287.27 1272.7,4292.5 C 1311.41,4301.9 1333.32,4297.05 1375.52,4297.05 C 1433.31,4297.05 1529.02,4418.55 1581.76,4448.74 C 1660.73,4493.95 1745.96,4522.04 1868.95,4522.04 L 1889.4,4522.04 C 1937.29,4522.04 1990.67,4512.55 2030.64,4504.76 C 2056.13,4499.79 2144.07,4465.8 2152.74,4465.8 L 2165.52,4465.8 C 2205.71,4465.8 2219.21,4576.8 2219.21,4621.75 C 2219.21,4671.38 2204.47,4693.65 2196.2,4729.13 C 2187.8,4738.79 2183.99,4752.09 2177.98,4764.6 C 2175.05,4770.71 2157.85,4792.16 2157.85,4798.16 L 2157.85,4800.72 C 2157.85,4807.55 2161.54,4808.27 2165.52,4810.94 L 2178.31,4810.94 C 2207.71,4803.09 2251.95,4717.61 2262.39,4685.38 C 2277.56,4638.51 2288.24,4563.09 2288.24,4501.59 C 2288.24,4446.77 2280.44,4397.89 2255.01,4368.64 L 2255.01,4358.41 C 2255.01,4260.25 2254.05,4204.56 2193.64,4164.11 C 2196.21,4175.15 2206.43,4183.76 2206.43,4192.23 C 2206.43,4197.46 2201.16,4196.93 2196.2,4197.35 L 2178.31,4169.22 C 2177.14,4155.22 2170.64,4141.56 2170.64,4128.32 C 2170.64,4053.14 2252.45,4039.56 2252.45,3974.91 L 2252.45,3972.36 C 2252.45,3966.47 2250.67,3964.69 2244.78,3964.69 L 2237.11,3964.69 C 2226.37,3964.69 2217.96,3967.89 2211.54,3972.36 C 2170.94,3981.82 2114.72,4039.34 2083.22,4063.9 C 2055.89,4085.21 2000.33,4157.62 1991.66,4194.79 C 1982.24,4212.62 1971.22,4249.63 1971.22,4276.6 L 1971.22,4302.16 C 1971.22,4323.64 1982.12,4362.77 1991.66,4373.75 C 1991.39,4386.37 1991.51,4386.25 1978.89,4386.54 C 1975.97,4374.04 1967.51,4361.73 1962.55,4344.08 C 1958.59,4330.02 1955.88,4308.7 1955.88,4291.94 L 1954.58,4276.39 L 1963.55,4222.91 C 1971.81,4209.89 1984.82,4168 1995.9,4147.88 C 2009.21,4123.73 2029.64,4102.35 2040.25,4082.3 C 2022.16,4078.08 1975.06,4059.29 1960.99,4059.29 L 1953.32,4059.29 C 1913.57,4059.29 1883.07,4070.3 1853.3,4079.43 C 1839.46,4083.66 1766.65,4099.91 1754.04,4100.27 L 1713,4182 L 1707.7,4185.04 L 1700.21,4182 C 1700.21,4145.13 1784.59,4029.72 1784.59,3990.26 C 1784.59,3984.49 1768.93,3969.8 1766.69,3969.8 C 1759.81,3969.8 1746.15,3985.88 1741.12,3990.26 L 1615.84,4141.1 C 1604.45,4148.73 1539.24,4228.96 1534.03,4243.36 L 1531.47,4271.49 L 1521.25,4271.49 C 1518.59,4266.47 1516.14,4263.95 1516.14,4256.15 L 1516.14,4248.48 C 1516.14,4239.19 1519.17,4239.51 1521.25,4230.58 L 1562.15,4176.89 C 1558.28,4177.79 1527.16,4184.56 1526.36,4184.56 L 1518.69,4184.56 C 1470.84,4184.56 1447.97,4150.29 1418.98,4130.88 L 1421.55,4130.68 L 1426.65,4225.46 C 1418.89,4237.69 1423.77,4279.15 1388.3,4279.15 L 1367.85,4279.15 C 1361.96,4279.15 1360.18,4277.38 1360.18,4271.49 C 1360.18,4257.39 1372.7,4266.38 1378.07,4266.38 C 1405.36,4266.38 1411.31,4238 1411.31,4210.13 L 1411.31,4187.12 C 1411.31,4152.44 1400.86,4121.95 1395.82,4087.56 C 1392.96,4068.05 1367.26,4009.82 1372.96,3997.93 L 1411.31,4000.48 L 1416.42,4000.48 C 1427.68,4000.48 1429.21,3984.05 1429.21,3972.36 L 1429.28,3963.87 L 1324.38,3954.46 C 1310.7,3953.12 1296.26,3966.6 1296.26,3980.03 L 1296.26,3995.37 C 1296.26,4033.29 1329.65,4069.71 1345.86,4094.06 C 1358.25,4112.66 1384.92,4182.2 1367.85,4217.79 C 1349.41,4217.39 1355.01,4209.7 1355.06,4189.68 C 1355.11,4172.58 1354.51,4165.95 1352.27,4151.55 C 1347.74,4122.46 1340.06,4114.68 1326.84,4095.73 L 1309.05,4092.52 C 1313.2,4110.37 1329.5,4126.28 1329.5,4148.77 L 1329.5,4153.88 C 1329.5,4158.07 1327.97,4161.55 1324.38,4161.55 C 1315.68,4161.55 1302.59,4109.9 1290.5,4095.72 C 1275.3,4077.88 1250.31,4068.24 1228.76,4055.2 C 1188.52,4030.82 1143.18,3997.93 1081.5,3997.93 L 1060.96,3997.36 L 1038.04,4000.48 L 1022.7,3990.26 C 1033.5,3987.74 1041.2,3982.59 1053.38,3982.59 L 1086.61,3982.59 C 1131.46,3982.59 1166.68,4008.27 1199.11,4015.82 C 1186.29,3989.12 1208.48,3957.02 1232.34,3957.02 L 1245.13,3957.02 C 1265.41,3957.02 1269.96,3975.25 1280.92,3982.59 C 1280.92,3955.81 1297.93,3939.12 1324.38,3939.12 C 1348.62,3939.12 1444.55,3944.15 1444.55,3962.13 C 1444.55,3990.95 1443.82,4013.54 1416.42,4015.82 L 1390.54,4015.92 L 1393.48,4026.19 L 1403.64,4020.93 L 1424.09,4020.93 C 1446.64,4022.82 1507.71,4048.34 1531.79,4056.41 C 1557.23,4064.93 1617.41,4084.21 1646.52,4084.85 C 1649.21,4074.81 1692.49,4024.07 1702.09,4012.59 C 1719.04,3992.27 1740.02,3954.46 1774.36,3954.46 L 1792.25,3969.8 L 1797.37,3972.36 C 1798.58,3957.85 1815.03,3941.68 1830.6,3941.68 L 1835.71,3941.68 C 1856.16,3941.68 1866.61,3967.64 1881.05,3980.71 C 1895.29,3993.61 1914.81,4007.52 1930.35,4018.34 C 1950.7,4032.52 1957.83,4039.96 1984.32,4048.74 C 2000.92,4054.25 2037.35,4063.22 2050.47,4069.52 C 2091.75,4041.87 2176.62,3949.34 2234.55,3949.34 L 2247.34,3949.34 C 2260.53,3949.34 2267.79,3959.99 2267.79,3972.36 L 2267.79,3977.47 C 2267.79,4039.74 2188.53,4074.03 2188.53,4112.98 L 2188.53,4143.66 C 2205.65,4148.22 2239.64,4185.47 2249.43,4200.36 C 2265.22,4224.41 2267.79,4262.57 2267.79,4302.16 C 2267.79,4375.6 2270.93,4352.15 2290.9,4399.21 C 2299.35,4419.14 2303.58,4476.47 2303.58,4506.7 C 2303.58,4573.69 2291.15,4648.21 2273.89,4699.44 C 2263.07,4731.55 2212.02,4826.28 2178.31,4826.28 L 2168.08,4826.28 C 2155.15,4826.28 2142.51,4817.06 2142.51,4803.27 L 2142.51,4798.16 C 2142.51,4781.71 2203.87,4701.82 2203.87,4629.42 L 2203.87,4621.75 C 2203.87,4588.54 2190.78,4481.14 2165.52,4481.14 L 2160.41,4481.14 C 2156.11,4481.14 2050.13,4515.09 2031.02,4520.48 C 1994.52,4530.79 1924.47,4537.38 1879.18,4537.38 C 1765.45,4537.38 1679.12,4516.56 1603.05,4478.57 C 1566.18,4460.16 1533.36,4435.72 1505.27,4407.63 C 1479.82,4382.18 1446.94,4346.98 1414.76,4329.4 C 1352.94,4295.64 1319.43,4325.88 1267.28,4308.14 C 1222.93,4293.06 1188.74,4277.55 1164.81,4241.86 C 1149.81,4219.49 1150.68,4209.24 1128.04,4194.27 C 1111.25,4183.17 1094.98,4171.14 1079.63,4158.31 C 1048.89,4132.63 1018.84,4105.71 999.684,4069.52" /><path
       id="path27"
       style="fill:#7f82c6;fill-opacity:1;fill-rule:evenodd;stroke:none"
       d="M 1868.95,4481.14 C 1868.95,4473.67 1883.27,4450.45 1891.96,4450.45 L 1897.07,4450.45 C 1905.04,4450.45 1909.86,4463.1 1909.86,4470.91 L 1909.86,4486.24 C 1909.86,4492.16 1907,4501.59 1902.19,4501.59 C 1892.21,4501.59 1868.95,4487.54 1868.95,4481.14" /><path
       id="path29"
       style="fill:#7f82c6;fill-opacity:1;fill-rule:evenodd;stroke:none"
       d="M 1920.09,4437.67 L 1920.09,4427.44 C 1920.09,4414.07 1931.51,4399.32 1945.65,4399.32 L 1950.76,4399.32 C 1976.51,4399.32 2001.89,4421.45 2001.89,4447.9 L 2001.89,4458.13 C 2001.89,4474.26 1981.61,4493.91 1966.11,4493.91 C 1945.03,4493.91 1920.09,4460.84 1920.09,4437.67" /><path
       id="path31"
       style="fill:#7f82c6;fill-opacity:1;fill-rule:evenodd;stroke:none"
       d="M 2024.91,4422.33 L 2024.91,4419.78 C 2024.91,4411.18 2036.36,4399.32 2047.92,4399.32 L 2055.59,4399.32 C 2068.8,4399.32 2086.27,4414.87 2086.27,4427.44 C 2086.27,4438.39 2064.57,4453.01 2053.02,4453.01 L 2047.92,4453.01 C 2039.7,4453.01 2024.91,4432.07 2024.91,4422.33" /><path
       id="path33"
       style="fill:#a88d78;fill-opacity:1;fill-rule:evenodd;stroke:none"
       d="M 2219.21,4744.46 C 2267.8,4674.54 2255.01,4487.63 2255.01,4368.64 C 2280.44,4397.89 2288.24,4446.77 2288.24,4501.59 C 2288.24,4563.09 2277.56,4638.51 2262.39,4685.38 C 2251.95,4717.61 2207.71,4803.09 2178.31,4810.94" /><path
       id="path35"
       style="fill:#e9dac9;fill-opacity:1;fill-rule:evenodd;stroke:none"
       d="M 1534.03,4243.36 C 1539.24,4228.96 1604.45,4148.73 1615.84,4141.1 L 1608.17,4158.99 C 1618.11,4161.31 1637.57,4168.84 1643.03,4180.15 L 1646.52,4169.22 L 1658.33,4168.96 L 1654.19,4189.68 L 1660.32,4190.73 L 1672.09,4210.13 L 1664.15,4211.53 L 1672.3,4212.82 L 1669.68,4217.23 L 1677.63,4220.41 L 1679.76,4261.26 C 1679.91,4267.23 1678.93,4267.9 1675.92,4273.11 L 1692.54,4286.82 C 1678.13,4288.02 1672.14,4294.5 1654.19,4294.5 L 1628.63,4294.5 C 1607.34,4294.5 1585.25,4289.01 1568.21,4283.32 C 1541.18,4274.3 1534.03,4278.59 1534.03,4243.36" /><path
       id="path37"
       style="fill:#dcc6a5;fill-opacity:1;fill-rule:evenodd;stroke:none"
       d="M 2024.91,4422.33 C 2024.91,4432.07 2039.7,4453.01 2047.92,4453.01 L 2053.02,4453.01 C 2064.57,4453.01 2086.27,4438.39 2086.27,4427.44 C 2086.27,4414.87 2068.8,4399.32 2055.59,4399.32 L 2047.92,4399.32 C 2036.36,4399.32 2024.91,4411.18 2024.91,4419.78 L 2024.91,4422.33 z M 1920.09,4437.67 C 1920.09,4460.84 1945.03,4493.91 1966.11,4493.91 C 1981.61,4493.91 2001.89,4474.26 2001.89,4458.13 L 2001.89,4447.9 C 2001.89,4421.45 1976.51,4399.32 1950.76,4399.32 L 1945.65,4399.32 C 1931.51,4399.32 1920.09,4414.07 1920.09,4427.44 L 1920.09,4437.67 z M 1868.95,4481.14 C 1868.95,4487.54 1892.21,4501.59 1902.19,4501.59 C 1907,4501.59 1909.86,4492.16 1909.86,4486.24 L 1909.86,4470.91 C 1909.86,4463.1 1905.04,4450.45 1897.07,4450.45 L 1891.96,4450.45 C 1883.27,4450.45 1868.95,4473.67 1868.95,4481.14 M 2196.2,4729.13 C 2204.47,4693.65 2219.21,4671.38 2219.21,4621.75 C 2219.21,4576.8 2205.71,4465.8 2165.52,4465.8 L 2152.74,4465.8 C 2144.07,4465.8 2056.13,4499.79 2030.64,4504.76 C 1990.67,4512.55 1937.29,4522.04 1889.4,4522.04 L 1868.95,4522.04 C 1745.96,4522.04 1660.73,4493.95 1581.76,4448.74 C 1529.02,4418.55 1433.31,4297.05 1375.52,4297.05 C 1333.32,4297.05 1311.41,4301.9 1272.7,4292.5 C 1251.23,4287.27 1206.66,4272.28 1201.66,4253.59 L 1204.49,4254.71 L 1210.82,4238.84 C 1231.05,4263.23 1210.91,4253.84 1247.69,4271.49 C 1255.13,4265.02 1265.58,4260.87 1265.58,4245.92 L 1265.58,4243.36 C 1265.58,4226.87 1259.7,4206.83 1250.24,4199.9 C 1247.95,4190.05 1236.7,4176.89 1227.23,4176.89 L 1219.56,4176.89 C 1206.83,4176.89 1201.95,4184.7 1201.66,4197.35 C 1195.94,4193.51 1192.68,4187.12 1186.32,4187.12 C 1179.49,4187.12 1178.77,4190.81 1176.1,4194.79 L 1145.41,4187.12 C 1103.03,4158.73 1050.75,4119.07 1022.7,4077.18 C 1030.7,4077.85 1031.79,4079.73 1040.6,4079.73 L 1045.71,4079.73 C 1066.84,4079.73 1063.47,4063.92 1071.28,4051.62 C 1125.2,4051.62 1204.23,4092.04 1231.76,4118.67 C 1251.33,4137.6 1275.54,4151.33 1293.12,4169.8 C 1308.93,4186.41 1324.25,4225.46 1352.5,4225.46 C 1361.98,4225.46 1364.06,4222.97 1367.85,4217.79 C 1384.92,4182.2 1358.25,4112.66 1345.86,4094.06 C 1329.65,4069.71 1296.26,4033.29 1296.26,3995.37 L 1296.26,3980.03 C 1296.26,3966.6 1310.7,3953.12 1324.38,3954.46 L 1429.28,3963.87 L 1429.21,3972.36 C 1401.96,3972.36 1378.13,3975.77 1372.96,3997.93 C 1367.26,4009.82 1392.96,4068.05 1395.82,4087.56 C 1400.86,4121.95 1411.31,4152.44 1411.31,4187.12 L 1411.31,4210.13 C 1411.31,4238 1405.36,4266.38 1378.07,4266.38 C 1372.7,4266.38 1360.18,4257.39 1360.18,4271.49 C 1360.18,4277.38 1361.96,4279.15 1367.85,4279.15 L 1388.3,4279.15 C 1423.77,4279.15 1418.89,4237.69 1426.65,4225.46 C 1430.34,4227.24 1454.09,4233.14 1459.89,4233.14 L 1465.09,4233.98 L 1521.25,4230.58 C 1519.17,4239.51 1516.14,4239.19 1516.14,4248.48 L 1516.14,4256.15 C 1516.14,4263.95 1518.59,4266.47 1521.25,4271.49 L 1531.47,4271.49 L 1534.03,4243.36 C 1534.03,4278.59 1541.18,4274.3 1568.21,4283.32 C 1585.25,4289.01 1607.34,4294.5 1628.63,4294.5 L 1654.19,4294.5 C 1672.14,4294.5 1678.13,4288.02 1692.54,4286.82 L 1675.92,4273.11 C 1678.93,4267.9 1679.91,4267.23 1679.76,4261.26 L 1677.63,4220.41 L 1669.68,4217.23 L 1672.3,4212.82 L 1664.15,4211.53 L 1672.09,4210.13 L 1660.32,4190.73 L 1654.19,4189.68 L 1658.33,4168.96 L 1646.52,4169.22 L 1643.03,4180.15 C 1637.57,4168.84 1618.11,4161.31 1608.17,4158.99 L 1615.84,4141.1 L 1741.12,3990.26 C 1749.63,4003.67 1729.57,4061.91 1724.83,4076.23 C 1717.7,4097.8 1692.54,4133.21 1692.54,4151.32 C 1692.54,4153.81 1699.25,4180.49 1700.21,4182 L 1707.7,4185.04 L 1713,4182 C 1718.48,4188.31 1721.43,4194.79 1733.45,4194.79 L 1741.12,4194.79 C 1753.94,4194.79 1754.46,4188.23 1762.48,4182.91 C 1771.39,4177 1778.68,4178.15 1791.25,4175.84 C 1802.7,4173.73 1841.84,4177.9 1855.61,4180 C 1905.11,4187.58 1925.76,4195.25 1963.55,4215.24 L 1963.55,4222.91 L 1954.58,4276.39 L 1955.88,4291.94 C 1955.88,4308.7 1958.59,4330.02 1962.55,4344.08 C 1967.51,4361.73 1975.97,4374.04 1978.89,4386.54 C 1991.51,4386.25 1991.39,4386.37 1991.66,4373.75 L 1994.22,4381.42 C 2002.23,4382.09 2003.31,4383.98 2012.12,4383.98 L 2019.7,4383.33 L 2081.15,4376.31 C 2074.41,4364.32 2092.97,4368.23 2099.68,4361.43 C 2106.15,4354.86 2100.38,4354.13 2104,4350.27 C 2109.53,4344.39 2107.02,4353.3 2115.08,4341.21 C 2123.47,4328.64 2129.73,4295.26 2129.73,4274.05 C 2129.73,4251.92 2103.89,4225.41 2090.39,4213.68 C 2067.7,4193.98 2044.52,4197.35 2009.57,4197.35 L 2008.16,4186.85 L 2005.86,4195.17 L 2004.45,4189.68 L 2000.17,4191.6 L 1991.66,4194.79 C 2000.33,4157.62 2055.89,4085.21 2083.22,4063.9 C 2114.72,4039.34 2170.94,3981.82 2211.54,3972.36 C 2233.43,4006.85 2145.07,4050.76 2145.07,4107.86 L 2145.07,4130.88 C 2145.07,4151.07 2159.56,4167.66 2178.31,4169.22 L 2196.2,4197.35 C 2217.61,4229.31 2247.34,4295.82 2247.14,4348.32 L 2255.01,4358.41 L 2255.01,4368.64 C 2255.01,4487.63 2267.8,4674.54 2219.21,4744.46 L 2215.58,4745.34 L 2214.1,4736.79 C 2206.35,4740 2202.27,4738.09 2201.31,4726.57" /><path
       id="path39"
       style="fill:#e4d1be;fill-opacity:1;fill-rule:evenodd;stroke:none"
       d="M 1991.66,4373.75 C 1982.12,4362.77 1971.22,4323.64 1971.22,4302.16 L 1971.22,4276.6 C 1971.22,4249.63 1982.24,4212.62 1991.66,4194.79 L 2000.17,4191.6 L 2004.45,4189.68 L 2005.86,4195.17 L 2008.16,4186.85 L 2009.57,4197.35 C 2044.52,4197.35 2067.7,4193.98 2090.39,4213.68 C 2103.89,4225.41 2129.73,4251.92 2129.73,4274.05 C 2129.73,4295.26 2123.47,4328.64 2115.08,4341.21 C 2107.02,4353.3 2109.53,4344.39 2104,4350.27 C 2100.38,4354.13 2106.15,4354.86 2099.68,4361.43 C 2092.97,4368.23 2074.41,4364.32 2081.15,4376.31 L 2019.7,4383.33 L 2012.12,4383.98 C 2003.31,4383.98 2002.23,4382.09 1994.22,4381.42" /><path
       id="path41"
       style="fill:#a88d78;fill-opacity:1;fill-rule:evenodd;stroke:none"
       d="M 2196.2,4197.35 C 2201.16,4196.93 2206.43,4197.46 2206.43,4192.23 C 2206.43,4183.76 2196.21,4175.15 2193.64,4164.11 C 2254.05,4204.56 2255.01,4260.25 2255.01,4358.41 L 2247.14,4348.32 C 2247.34,4295.82 2217.61,4229.31 2196.2,4197.35" /><path
       id="path43"
       style="fill:#faf9f8;fill-opacity:1;fill-rule:evenodd;stroke:none"
       d="M 1252.8,4222.91 L 1255.57,4227.89 L 1255.35,4235.69 C 1249.72,4235.57 1242.57,4236.48 1242.57,4230.58 C 1242.57,4222.85 1245.58,4223.51 1252.8,4222.91" /><path
       id="path45"
       style="fill:#faf9f8;fill-opacity:1;fill-rule:evenodd;stroke:none"
       d="M 1199.11,4220.35 L 1201.66,4228.02 L 1199.11,4230.58 C 1191.25,4224.82 1194.98,4232.23 1193.99,4220.35" /><path
       id="path47"
       style="fill:#7ea9b7;fill-opacity:1;fill-rule:evenodd;stroke:none"
       d="M 1227.23,4228.02 L 1227.23,4220.35 L 1237.6,4220.41 L 1240.02,4212.69 L 1250.24,4212.69 L 1252.8,4222.91 C 1245.58,4223.51 1242.57,4222.85 1242.57,4230.58 C 1242.57,4236.48 1249.72,4235.57 1255.35,4235.69 L 1257.91,4240.81 C 1252.18,4242.14 1252.04,4243.36 1245.13,4243.36 C 1233,4243.36 1229.55,4237.96 1227.23,4228.02" /><path
       id="path49"
       style="fill:#7ea9b7;fill-opacity:1;fill-rule:evenodd;stroke:none"
       d="M 1186.32,4217.79 L 1195.66,4206.84 L 1199.11,4220.35 L 1193.99,4220.35 C 1194.98,4232.23 1191.25,4224.82 1199.11,4230.58 L 1201.66,4228.02 L 1201.66,4245.92 L 1201.66,4235.69 C 1189.86,4234.71 1187.31,4229.64 1186.32,4217.79" /><path
       id="path51"
       style="fill:#5f7fac;fill-opacity:1;fill-rule:evenodd;stroke:none"
       d="M 1224.67,4215.24 L 1227.23,4207.57 C 1230.35,4209.32 1229.96,4210.13 1234.9,4210.13 C 1245.63,4210.13 1240.28,4210.32 1242.57,4207.57 L 1247.69,4205.02 L 1250.24,4212.69 L 1240.02,4212.69 L 1237.6,4220.41 L 1227.23,4220.35 L 1227.23,4228.02" /><path
       id="path53"
       style="fill:#faf9f8;fill-opacity:1;fill-rule:evenodd;stroke:none"
       d="M 1229.79,4187.12 C 1227.35,4197.6 1224.67,4194.59 1224.67,4207.57 L 1224.67,4215.24 L 1227.23,4228.02 C 1229.55,4237.96 1233,4243.36 1245.13,4243.36 C 1252.04,4243.36 1252.18,4242.14 1257.91,4240.81 L 1252.61,4261.2 L 1245.13,4261.26 C 1220.74,4261.26 1209.33,4219.99 1209.33,4194.79 C 1209.33,4187.27 1214.6,4182 1222.12,4182 C 1225.13,4182 1228.08,4185.57 1229.79,4187.12" /><path
       id="path55"
       style="fill:#3d5b66;fill-opacity:1;fill-rule:evenodd;stroke:none"
       d="M 1229.79,4187.12 L 1234.9,4187.12 L 1237.46,4192.23 C 1233.53,4198.11 1232.57,4197.37 1232.34,4207.57 L 1242.57,4207.57 C 1240.28,4210.32 1245.63,4210.13 1234.9,4210.13 C 1229.96,4210.13 1230.35,4209.32 1227.23,4207.57 L 1224.67,4215.24 L 1224.67,4207.57 C 1224.67,4194.59 1227.35,4197.6 1229.79,4187.12" /><path
       id="path57"
       style="fill:#2a3132;fill-opacity:1;fill-rule:evenodd;stroke:none"
       d="M 1237.46,4192.23 L 1250.24,4199.9 L 1247.69,4205.02 L 1242.57,4207.57 L 1232.34,4207.57 C 1232.57,4197.37 1233.53,4198.11 1237.46,4192.23" /><path
       id="path59"
       style="fill:#a5866d;fill-opacity:1;fill-rule:evenodd;stroke:none"
       d="M 1145.41,4187.12 L 1176.1,4194.79 L 1174.98,4230.61 C 1161,4213.21 1166.23,4205.2 1145.41,4187.12" /><path
       id="path61"
       style="fill:#f7f8f8;fill-opacity:1;fill-rule:evenodd;stroke:none"
       d="M 1186.32,4217.79 C 1187.31,4229.64 1189.86,4234.71 1201.66,4235.69 L 1201.66,4245.92 L 1199.54,4248.9 C 1189.14,4241.8 1181.21,4229.16 1181.21,4212.69 L 1181.21,4202.46 C 1181.21,4194.72 1184.22,4195.39 1191.44,4194.79" /><path
       id="path63"
       style="fill:#aa9078;fill-opacity:1;fill-rule:evenodd;stroke:none"
       d="M 1426.65,4225.46 L 1421.55,4130.68 L 1418.98,4130.88 C 1447.97,4150.29 1470.84,4184.56 1518.69,4184.56 L 1526.36,4184.56 C 1527.16,4184.56 1558.28,4177.79 1562.15,4176.89 L 1521.25,4230.58 L 1465.09,4233.98 L 1459.89,4233.14 C 1454.09,4233.14 1430.34,4227.24 1426.65,4225.46" /><path
       id="path65"
       style="fill:#aa9078;fill-opacity:1;fill-rule:evenodd;stroke:none"
       d="M 1071.28,4051.62 C 1071.28,4019.41 1048.47,4016.05 1038.04,4000.48 L 1060.96,3997.36 L 1081.5,3997.93 C 1143.18,3997.93 1188.52,4030.82 1228.76,4055.2 C 1250.31,4068.24 1275.3,4077.88 1290.5,4095.72 C 1302.59,4109.9 1315.68,4161.55 1324.38,4161.55 C 1327.97,4161.55 1329.5,4158.07 1329.5,4153.88 L 1329.5,4148.77 C 1329.5,4126.28 1313.2,4110.37 1309.05,4092.52 L 1326.84,4095.73 C 1340.06,4114.68 1347.74,4122.46 1352.27,4151.55 C 1354.51,4165.95 1355.11,4172.58 1355.06,4189.68 C 1355.01,4209.7 1349.41,4217.39 1367.85,4217.79 C 1364.06,4222.97 1361.98,4225.46 1352.5,4225.46 C 1324.25,4225.46 1308.93,4186.41 1293.12,4169.8 C 1275.54,4151.33 1251.33,4137.6 1231.76,4118.67 C 1204.23,4092.04 1125.2,4051.62 1071.28,4051.62" /><path
       id="path67"
       style="fill:#aa9078;fill-opacity:1;fill-rule:evenodd;stroke:none"
       d="M 1713,4182 L 1754.04,4100.27 C 1766.65,4099.91 1839.46,4083.66 1853.3,4079.43 C 1883.07,4070.3 1913.57,4059.29 1953.32,4059.29 L 1960.99,4059.29 C 1975.06,4059.29 2022.16,4078.08 2040.25,4082.3 C 2029.64,4102.35 2009.21,4123.73 1995.9,4147.88 C 1984.82,4168 1971.81,4209.89 1963.55,4222.91 L 1963.55,4215.24 C 1925.76,4195.25 1905.11,4187.58 1855.61,4180 C 1841.84,4177.9 1802.7,4173.73 1791.25,4175.84 C 1778.68,4178.15 1771.39,4177 1762.48,4182.91 C 1754.46,4188.23 1753.94,4194.79 1741.12,4194.79 L 1733.45,4194.79 C 1721.43,4194.79 1718.48,4188.31 1713,4182" /><path
       id="path69"
       style="fill:#aa9078;fill-opacity:1;fill-rule:evenodd;stroke:none"
       d="M 1408.75,4033.72 C 1429.33,4033.72 1494.67,4060.2 1517.74,4067.9 C 1541.52,4075.83 1603.2,4097.63 1628.63,4097.63 C 1625.15,4110.63 1568.23,4164.11 1551.93,4164.11 C 1549.01,4164.11 1539.95,4148.35 1536,4144.24 C 1528.83,4136.77 1526.15,4135.04 1518.21,4128.79 C 1505.59,4118.86 1491.92,4108.79 1476.96,4101.02 C 1451.51,4087.8 1408.75,4068.86 1408.75,4033.72" /><path
       id="path71"
       style="fill:#252e31;fill-opacity:1;fill-rule:evenodd;stroke:none"
       d="M 958.781,4026.05 L 958.781,4020.93 C 958.781,4014.53 971.566,4023.37 971.566,4010.7 L 971.566,4003.04 L 971.434,3998.14 L 966.453,3995.37 L 974.125,3982.59 L 1007.36,3995.37 C 1007.99,4002.94 1015.03,4018.29 1015.03,4018.38 C 1015.03,4032.73 1003.15,4049.06 992.023,4049.06 C 983.203,4049.06 962.645,4031.83 958.781,4026.05" /><path
       id="path73"
       style="fill:#e2d3c3;fill-opacity:1;fill-rule:evenodd;stroke:none"
       d="M 1416.42,4015.82 L 1424.09,4020.93 L 1403.64,4020.93 L 1393.48,4026.19 L 1390.54,4015.92" /><path
       id="path75"
       style="fill:#ee1c29;fill-opacity:1;fill-rule:evenodd;stroke:none"
       d="M 833.508,4003.04 C 846.418,4006.49 848.516,4022.11 852.371,4035.3 C 858.32,4055.61 860.094,4055.58 870.32,4071.05 C 885.93,4094.67 914.688,4102.61 915.32,4130.88 C 881.641,4128.07 833.508,4049.14 833.508,4003.04" /><path
       id="path77"
       style="fill:#0f1210;fill-opacity:1;fill-rule:evenodd;stroke:none"
       d="M 974.125,3982.59 C 963.961,3981.75 967.969,3980.03 961.34,3980.03 C 953.918,3980.03 938.324,3986.45 938.324,3995.37 C 938.324,4007.97 948.453,4023.29 958.781,4026.05 C 962.645,4031.83 983.203,4049.06 992.023,4049.06 C 1003.15,4049.06 1015.03,4032.73 1015.03,4018.38 C 1015.03,4018.29 1007.99,4002.94 1007.36,3995.37 L 974.125,3982.59 z M 933.219,3997.93 L 933.219,3995.37 C 933.219,3987.57 935.668,3985.05 938.375,3980.34 L 961.34,3977.47 C 1004.94,3970.93 1044.93,4024.3 1061.05,4028.6 C 1061.71,4036.6 1063.61,4037.69 1063.61,4046.5 L 1063.61,4054.17 C 1063.61,4065.12 1055.72,4074.63 1045.71,4074.63 C 1003.88,4074.63 933.219,4031.71 933.219,3997.93" /><path
       id="path79"
       style="fill:#71797b;fill-opacity:1;fill-rule:evenodd;stroke:none"
       d="M 963.895,3995.37 L 966.453,3995.37 L 971.434,3998.14 L 971.566,4003.04 L 971.566,4010.7 C 971.566,4023.37 958.781,4014.53 958.781,4020.93 L 953.668,4018.38" /><path
       id="path81"
       style="fill:#ed1a29;fill-opacity:1;fill-rule:evenodd;stroke:none"
       d="M 887.195,3980.03 L 899.98,3990.26 C 899.98,4046.89 956.227,4052.5 956.227,4072.07 C 956.227,4074.34 953.383,4077.18 951.109,4077.18 C 940.309,4077.18 909.617,4051.13 903.535,4042.95 C 889.836,4024.5 880.199,4010.09 887.195,3980.03" /><path
       id="path83"
       style="fill:#f2f1f0;fill-opacity:1;fill-rule:evenodd;stroke:none"
       d="M 963.895,3995.37 L 953.668,4018.38 C 951.063,4016.47 945.996,4012.08 945.996,4008.15 C 945.996,3999.84 957.383,3987.57 963.895,3995.37" /><path
       id="path85"
       style="fill:#a88d78;fill-opacity:1;fill-rule:evenodd;stroke:none"
       d="M 1741.12,3990.26 C 1746.15,3985.88 1759.81,3969.8 1766.69,3969.8 C 1768.93,3969.8 1784.59,3984.49 1784.59,3990.26 C 1784.59,4029.72 1700.21,4145.13 1700.21,4182 C 1699.25,4180.49 1692.54,4153.81 1692.54,4151.32 C 1692.54,4133.21 1717.7,4097.8 1724.83,4076.23 C 1729.57,4061.91 1749.63,4003.67 1741.12,3990.26" /><path
       id="path87"
       style="fill:#526365;fill-opacity:1;fill-rule:evenodd;stroke:none"
       d="M 974.125,3982.59 L 966.453,3995.37 L 963.895,3995.37 C 957.383,3987.57 945.996,3999.84 945.996,4008.15 C 945.996,4012.08 951.063,4016.47 953.668,4018.38 L 958.781,4020.93 L 958.781,4026.05 C 948.453,4023.29 938.324,4007.97 938.324,3995.37 C 938.324,3986.45 953.918,3980.03 961.34,3980.03 C 967.969,3980.03 963.961,3981.75 974.125,3982.59" /><path
       id="path89"
       style="fill:#a88d78;fill-opacity:1;fill-rule:evenodd;stroke:none"
       d="M 1240.02,3972.36 C 1262.3,3972.36 1293.7,4031.31 1293.7,4056.73 L 1293.7,4072.07 C 1283,4069.57 1253.55,4050.89 1241.74,4044.78 C 1221.69,4034.4 1211.89,4027.22 1211.89,3997.93 C 1211.89,3980.57 1222.38,3972.36 1240.02,3972.36" /><path
       id="path91"
       style="fill:#aa9078;fill-opacity:1;fill-rule:evenodd;stroke:none"
       d="M 1372.96,3997.93 C 1378.13,3975.77 1401.96,3972.36 1429.21,3972.36 C 1429.21,3984.05 1427.68,4000.48 1416.42,4000.48 L 1411.31,4000.48" /><path
       id="path93"
       style="fill:#5c7c82;fill-opacity:1;fill-rule:evenodd;stroke:none"
       d="M 933.219,3997.93 C 933.219,4031.71 1003.88,4074.63 1045.71,4074.63 C 1055.72,4074.63 1063.61,4065.12 1063.61,4054.17 L 1063.61,4046.5 C 1063.61,4037.69 1061.71,4036.6 1061.05,4028.6 C 1044.93,4024.3 1004.94,3970.93 961.34,3977.47 L 938.375,3980.34 C 935.668,3985.05 933.219,3987.57 933.219,3995.37 L 933.219,3997.93 z M 1022.7,4077.18 L 999.684,4069.52 C 980.797,4059.51 928.098,4026.73 928.098,4003.04 L 928.098,3992.81 C 928.098,3979.62 938.742,3972.36 951.109,3972.36 L 971.566,3972.36 C 992.656,3972.36 1006.26,3986.43 1022.7,3990.26 L 1038.04,4000.48 C 1048.47,4016.05 1071.28,4019.41 1071.28,4051.62 C 1063.47,4063.92 1066.84,4079.73 1045.71,4079.73 L 1040.6,4079.73 C 1031.79,4079.73 1030.7,4077.85 1022.7,4077.18" /><path
       id="path95"
       style="fill:#aa9078;fill-opacity:1;fill-rule:evenodd;stroke:none"
       d="M 2211.54,3972.36 C 2217.96,3967.89 2226.37,3964.69 2237.11,3964.69 L 2244.78,3964.69 C 2250.67,3964.69 2252.45,3966.47 2252.45,3972.36 L 2252.45,3974.91 C 2252.45,4039.56 2170.64,4053.14 2170.64,4128.32 C 2170.64,4141.56 2177.14,4155.22 2178.31,4169.22 C 2159.56,4167.66 2145.07,4151.07 2145.07,4130.88 L 2145.07,4107.86 C 2145.07,4050.76 2233.43,4006.85 2211.54,3972.36" /><path
       id="path97"
       style="fill:#aa9078;fill-opacity:1;fill-rule:evenodd;stroke:none"
       d="M 1833.16,3957.02 C 1841.49,3957.02 1872.02,3994.2 1883.8,4003.53 C 1901.27,4017.38 1921.89,4029.96 1937.98,4043.95 L 1850.61,4062.5 C 1842.09,4047.47 1810.14,4000.82 1810.14,3980.03 C 1810.14,3970.93 1824.05,3957.02 1833.16,3957.02" /><path
       id="path99"
       style="fill:#af967e;fill-opacity:1;fill-rule:evenodd;stroke:none"
       d="M 1774.36,3954.46 C 1786.35,3957.26 1783.91,3959.1 1792.25,3964.69 L 1792.25,3969.8" /><path
       id="path101"
       style="fill:#f26d72;fill-opacity:1;fill-rule:evenodd;stroke:none"
       d="M 943.441,3939.12 L 989.465,3939.12 L 989.465,3944.24 L 983.926,3944.66 L 986.91,3946.79 L 943.441,3949.34 L 951.754,3945.91" /><path
       id="path103"
       style="fill:#ee333b;fill-opacity:1;fill-rule:evenodd;stroke:none"
       d="M 979.238,3939.12 L 992.023,3934.01 L 1002.73,3934.2 L 999.684,3941.68 L 992.023,3946.79 L 986.91,3946.79 L 983.926,3944.66 L 989.465,3944.24 L 989.465,3939.12" /><path
       id="path105"
       style="fill:#ee1f2c;fill-opacity:1;fill-rule:evenodd;stroke:none"
       d="M 992.023,3934.01 L 1012.11,3926.41 L 1015.03,3934.01 L 1004.8,3941.68 L 999.684,3941.68 L 1002.73,3934.2" /><path
       id="path107"
       style="fill:#ec1a29;fill-opacity:1;fill-rule:evenodd;stroke:none"
       d="M 1038.04,3880.32 L 1040.6,3880.32 L 1027.81,3921.23 L 1015.03,3934.01 L 1012.11,3926.41 L 992.023,3934.01 L 979.238,3939.12 L 943.441,3939.12 L 943.441,3936.57 C 973.789,3936.57 981.137,3930.91 997.66,3919.2 C 1008.37,3911.61 1026.88,3893.38 1030.37,3880.32" /><path
       id="path109"
       style="fill:#d71e2a;fill-opacity:1;fill-rule:evenodd;stroke:none"
       d="M 1040.6,3880.32 L 1050.82,3882.88 L 1032.93,3918.67 L 1027.81,3921.23" /><path
       id="path111"
       style="fill:#f5aab0;fill-opacity:1;fill-rule:evenodd;stroke:none"
       d="M 836.063,3870.1 L 838.563,3865.11 L 846.293,3867.54 L 856.52,3880.32 C 868.512,3903 907.609,3936.57 943.441,3936.57 L 943.441,3939.12 L 951.754,3945.91 L 943.441,3949.34 C 897.449,3945.52 856.602,3900.77 836.063,3870.1" /><path
       id="path113"
       style="fill:#8184c7;fill-opacity:1;fill-rule:evenodd;stroke:none"
       d="M 2234.42,3850.61 C 2236.41,3857.61 2240.93,3872.65 2249.89,3872.65 L 2252.45,3872.65 C 2260.91,3872.65 2268.45,3861.88 2270.25,3855.46 L 2234.42,3850.61 z M 2193.64,3785.72 C 2207.13,3782.13 2228.53,3760.15 2257.56,3760.15 L 2275.46,3760.15 C 2294.72,3760.15 2295.17,3762.73 2305.61,3770.91 C 2313.8,3777.34 2325.64,3777.7 2334.26,3783.17 C 2316.59,3807.29 2306.31,3795.95 2278.01,3795.95 L 2267.79,3795.95 C 2252.89,3795.95 2233.5,3802.63 2229.44,3813.85 C 2225.5,3822.75 2263.24,3833.38 2275.03,3837.29 C 2300.31,3845.67 2306.83,3841.59 2331.79,3854.78 L 2329.14,3867.54 C 2321.7,3895.42 2276.55,3911 2239.67,3911 C 2207.43,3911 2173.2,3877.34 2173.2,3844.53 L 2173.2,3829.18 C 2173.2,3809.57 2184.3,3796.47 2193.64,3785.72" /><path
       id="path115"
       style="fill:#9a262c;fill-opacity:1;fill-rule:evenodd;stroke:none"
       d="M 986.91,3890.54 L 1004.8,3867.54 L 1012.47,3872.65 L 1007.91,3873.2 L 999.684,3880.32 L 999.684,3885.43 L 986.91,3898.21" /><path
       id="path117"
       style="fill:#ec1b28;fill-opacity:1;fill-rule:evenodd;stroke:none"
       d="M 999.684,3885.43 L 999.684,3880.32 L 1007.91,3873.2 L 1012.47,3872.65 L 1020.14,3875.21 L 1022.7,3880.32 C 1009.59,3885.61 1020.96,3898.55 988.266,3905.14" /><path
       id="path119"
       style="fill:#7a262c;fill-opacity:1;fill-rule:evenodd;stroke:none"
       d="M 874.41,3813.85 L 887.195,3801.07 C 886.297,3804.91 882.082,3819 882.082,3821.51 C 882.082,3847.51 924.949,3903.33 948.555,3903.33 L 961.34,3903.33 C 970.859,3903.33 980.371,3895.97 984.352,3890.54 L 986.91,3890.54 L 986.91,3898.21 C 981.012,3907.02 968.27,3913.55 953.668,3913.55 L 951.109,3913.55 C 938.191,3913.55 937.535,3909.44 925.551,3908.44 C 920.992,3891.4 874.41,3876.07 874.41,3813.85" /><path
       id="path121"
       style="fill:#8184c7;fill-opacity:1;fill-rule:evenodd;stroke:none"
       d="M 1316.71,3816.41 C 1306.49,3813.23 1318.94,3846.62 1323.82,3852.76 C 1326.85,3856.59 1350.79,3872.65 1357.62,3872.65 L 1375.52,3872.65 C 1392.2,3872.65 1406.95,3864.24 1411.31,3852.2 L 1418.98,3831.74 C 1408.85,3812.59 1384.14,3772.94 1357.62,3772.94 C 1325.49,3772.94 1327.55,3799.32 1316.71,3816.41 M 1309.05,3744.82 C 1327.71,3744.82 1327.79,3739.71 1342.28,3739.71 L 1355.06,3739.71 C 1381.52,3739.71 1418.77,3764.11 1427.53,3779.73 C 1433.95,3791.16 1426.68,3785.77 1438.04,3797.35 C 1442.64,3802.05 1446.08,3808.18 1448.7,3814.8 C 1453.22,3826.16 1455.82,3854.88 1457.32,3857.31 C 1442.92,3878.84 1418.63,3905.89 1383.19,3905.89 L 1372.96,3905.89 C 1334.99,3905.89 1265.58,3843.38 1265.58,3806.18 L 1265.58,3793.39 C 1265.58,3774.71 1294.16,3748.79 1309.05,3744.82" /><path
       id="path123"
       style="fill:#60272a;fill-opacity:1;fill-rule:evenodd;stroke:none"
       d="M 1040.6,3880.32 L 1038.04,3880.32 L 1020.14,3875.21 L 1012.47,3872.65 L 1004.8,3867.54 L 1012.47,3859.87 L 1053.38,3872.65 L 1050.82,3882.88" /><path
       id="path125"
       style="fill:#7576b6;fill-opacity:1;fill-rule:evenodd;stroke:none"
       d="M 1316.71,3816.41 C 1316.71,3843.84 1346.13,3864.98 1372.96,3864.98 C 1391.22,3864.98 1399.49,3855.35 1411.31,3852.2 C 1406.95,3864.24 1392.2,3872.65 1375.52,3872.65 L 1357.62,3872.65 C 1350.79,3872.65 1326.85,3856.59 1323.82,3852.76 C 1318.94,3846.62 1306.49,3813.23 1316.71,3816.41" /><path
       id="path127"
       style="fill:#7478bb;fill-opacity:1;fill-rule:evenodd;stroke:none"
       d="M 1666.97,3854.75 L 1672.09,3844.53 C 1680.33,3848.89 1695.39,3854.75 1707.88,3854.75 C 1722,3854.75 1724.98,3849.65 1736,3847.08 L 1736,3854.75 C 1724.53,3857.82 1722.95,3864.98 1705.33,3864.98 L 1702.77,3864.98 C 1694.82,3864.98 1679.69,3858.14 1674.59,3854.54" /><path
       id="path129"
       style="fill:#b8ac99;fill-opacity:1;fill-rule:evenodd;stroke:none"
       d="M 1015.03,3852.2 L 1025.25,3852.2 C 1033.51,3852.2 1036.23,3855.51 1044.75,3858.28 C 1056.4,3862.06 1057.3,3859.2 1058.5,3870.1 C 1045.54,3867.07 1019.33,3864.09 1015.03,3852.2" /><path
       id="path131"
       style="fill:#8184c7;fill-opacity:1;fill-rule:evenodd;stroke:none"
       d="M 1145.41,3849.64 C 1147.27,3857.61 1151.79,3872.65 1160.76,3872.65 L 1163.32,3872.65 C 1171.77,3872.65 1179.3,3861.88 1181.21,3854.75 L 1145.41,3849.64 z M 1124.97,3767.82 L 1132.77,3770.43 L 1135.19,3762.71 C 1163.95,3762.71 1170.14,3755.96 1193.92,3765.34 C 1209.93,3771.65 1230.81,3773.22 1245.13,3783.17 C 1227.46,3807.29 1217.18,3795.95 1188.88,3795.95 L 1178.66,3795.95 C 1163.76,3795.95 1144.37,3802.63 1140.31,3813.85 C 1145.41,3827.97 1154.83,3824.34 1165.94,3831.27 L 1190.92,3836.03 L 1247.69,3854.75 C 1228.75,3890.54 1207.71,3911 1153.09,3911 C 1118.22,3911 1084.06,3878.52 1084.06,3844.53 L 1084.06,3829.18 C 1084.06,3808.12 1109.49,3771.96 1124.97,3767.82" /><path
       id="path133"
       style="fill:#d8d1c3;fill-opacity:1;fill-rule:evenodd;stroke:none"
       d="M 1015.03,3852.2 C 1019.33,3864.09 1045.54,3867.07 1058.5,3870.1 C 1057.3,3859.2 1056.4,3862.06 1044.75,3858.28 C 1036.23,3855.51 1033.51,3852.2 1025.25,3852.2 L 1015.03,3852.2 z M 1053.38,3872.65 L 1012.47,3859.87 L 1009.91,3849.64 C 1026,3849.64 1061.05,3852.31 1061.05,3864.98 C 1061.05,3871.89 1059.83,3872.03 1057.79,3878.2" /><path
       id="path135"
       style="fill:#edeae2;fill-opacity:1;fill-rule:evenodd;stroke:none"
       d="M 1032.93,3918.67 L 1050.82,3882.88 L 1053.38,3872.65 L 1057.79,3878.2 C 1059.83,3872.03 1061.05,3871.89 1061.05,3864.98 C 1061.05,3852.31 1026,3849.64 1009.91,3849.64 C 1012.91,3845.33 1010.28,3844.53 1017.58,3844.53 L 1020.14,3844.53 C 1040.61,3844.53 1042.76,3852.2 1061.05,3852.2 C 1062,3856.31 1066.16,3864.91 1066.16,3864.98 C 1066.16,3889.41 1048.68,3905.34 1037.91,3921.45" /><path
       id="path137"
       style="fill:#f28287;fill-opacity:1;fill-rule:evenodd;stroke:none"
       d="M 828.395,3854.75 L 831.984,3848.76 L 846.293,3867.54 L 838.563,3865.11 L 836.063,3870.1" /><path
       id="path139"
       style="fill:#7478bb;fill-opacity:1;fill-rule:evenodd;stroke:none"
       d="M 1523.8,3803.62 C 1523.8,3824.54 1544.93,3844.53 1564.71,3844.53 C 1583.93,3844.53 1591.73,3834.21 1603.05,3826.63 C 1606.3,3831.48 1636.3,3864.08 1636.3,3864.98 C 1636.3,3868.72 1633.14,3868.73 1631.18,3870.1 C 1625.99,3865.58 1601.99,3841.97 1597.95,3841.97 C 1592.63,3841.97 1576.79,3850.16 1574.94,3854.75 L 1554.48,3854.75 C 1541.44,3854.75 1529.94,3830.7 1518.69,3826.63 L 1518.69,3803.62" /><path
       id="path141"
       style="fill:#8186c7;fill-opacity:1;fill-rule:evenodd;stroke:none"
       d="M 2040.25,3739.71 L 2050.47,3749.93 L 2065.81,3749.93 C 2065.81,3765.9 2050.34,3841.97 2065.81,3841.97 L 2076.04,3841.97 C 2131.04,3841.97 2112,3785.22 2109.28,3752.49 L 2152.74,3747.38 L 2160.41,3798.51 C 2169.05,3853.93 2120.3,3880.32 2070.93,3880.32 L 2052.87,3880.31 L 2045.36,3982.59 L 2002.82,3982.64 L 2014.77,3736.5" /><path
       id="path143"
       style="fill:#ee333b;fill-opacity:1;fill-rule:evenodd;stroke:none"
       d="M 846.293,3867.54 L 831.984,3848.76 L 828.395,3854.75 L 823.277,3824.08 L 831.934,3811.55 L 841.176,3852.2 L 856.52,3880.32" /><path
       id="path145"
       style="fill:#ee1c29;fill-opacity:1;fill-rule:evenodd;stroke:none"
       d="M 1055.94,3824.08 L 1060.85,3824.18 L 1066.16,3831.74 L 1059.05,3834.16" /><path
       id="path147"
       style="fill:#f28287;fill-opacity:1;fill-rule:evenodd;stroke:none"
       d="M 966.453,3826.63 L 969.008,3821.51 L 979.238,3821.51 L 1055.94,3824.08 L 1059.05,3834.16 L 1066.16,3831.74 L 1066.16,3826.63 L 1068.71,3826.63 L 1068.71,3836.86 C 1051.16,3836.86 971.824,3839.95 966.453,3826.63" /><path
       id="path149"
       style="fill:#8184c7;fill-opacity:1;fill-rule:evenodd;stroke:none"
       d="M 1140.31,3813.85 L 1250.55,3844.63 L 1247.69,3854.75 L 1190.92,3836.03 L 1165.94,3831.27 C 1154.83,3824.34 1145.41,3827.97 1140.31,3813.85" /><path
       id="path151"
       style="fill:#bfbd9e;fill-opacity:1;fill-rule:evenodd;stroke:none"
       d="M 917.879,3864.98 L 945.996,3887.98 L 958.781,3898.21 L 940.891,3898.21 C 924.477,3887.23 887.195,3850.59 887.195,3826.63 L 887.195,3813.85 L 892.309,3813.85 C 893.668,3830.11 907.902,3857.67 917.879,3864.98" /><path
       id="path153"
       style="fill:#7576b6;fill-opacity:1;fill-rule:evenodd;stroke:none"
       d="M 2229.44,3813.85 L 2340.18,3844.86 L 2329.14,3867.54 L 2331.79,3854.78 C 2306.83,3841.59 2300.31,3845.67 2275.03,3837.29 C 2263.24,3833.38 2225.5,3822.75 2229.44,3813.85" /><path
       id="path155"
       style="fill:#ee333b;fill-opacity:1;fill-rule:evenodd;stroke:none"
       d="M 963.895,3813.85 C 975.98,3814.12 973.941,3811.24 976.68,3821.51 L 969.008,3821.51 L 966.453,3826.63" /><path
       id="path157"
       style="fill:#787cbe;fill-opacity:1;fill-rule:evenodd;stroke:none"
       d="M 1718.11,3788.28 C 1718.11,3820.52 1727.95,3808.74 1753.9,3808.74 L 1756.46,3813.85 C 1747.53,3815.93 1747.84,3818.96 1738.56,3818.96 L 1730.89,3818.96 C 1722.28,3818.96 1713,3814.44 1713,3806.18 L 1713,3801.07 C 1713,3792.72 1714.31,3792.64 1718.11,3788.28" /><path
       id="path159"
       style="fill:#ec1b28;fill-opacity:1;fill-rule:evenodd;stroke:none"
       d="M 899.98,3772.94 L 897.488,3782.8 L 905.094,3785.72 L 889.75,3801.07 L 887.195,3801.07 L 874.41,3813.85 L 871.863,3841.97 C 866.906,3836.28 864.191,3829.73 864.191,3818.96 L 864.191,3813.85 C 864.191,3802.1 865.258,3795.84 874.41,3793.39 L 874.41,3785.72 C 874.41,3776.16 890.078,3773.16 899.98,3772.94" /><path
       id="path161"
       style="fill:#7576b6;fill-opacity:1;fill-rule:evenodd;stroke:none"
       d="M 1863.83,3803.62 C 1863.83,3824.54 1884.96,3844.53 1904.75,3844.53 C 1923.96,3844.53 1931.77,3834.21 1943.09,3826.63 C 1946.34,3831.48 1976.33,3864.08 1976.33,3864.98 C 1976.33,3868.72 1973.18,3868.73 1971.22,3870.1 C 1954.55,3858.52 1946.75,3836.86 1935.42,3836.86 C 1929.08,3836.86 1920.04,3852.2 1907.3,3852.2 L 1897.07,3852.2 C 1890,3852.2 1890.93,3850.22 1889.4,3844.53 C 1874.8,3844.2 1856.17,3822.8 1856.17,3813.85 L 1856.17,3803.62" /><path
       id="path163"
       style="fill:#60272a;fill-opacity:1;fill-rule:evenodd;stroke:none"
       d="M 963.895,3806.18 L 963.895,3801.07 L 969.008,3801.07 L 986.91,3803.62 C 997.32,3804.24 987.016,3802.43 994.578,3806.18 L 994.578,3813.85 L 984.352,3813.85 C 976.371,3813.85 969.551,3809.17 963.895,3806.18" /><path
       id="path165"
       style="fill:#e2d3c3;fill-opacity:1;fill-rule:evenodd;stroke:none"
       d="M 887.195,3801.07 L 889.75,3801.07 L 894.867,3803.62 C 894.867,3837.95 916.539,3848.88 917.879,3864.98 C 907.902,3857.67 893.668,3830.11 892.309,3813.85 L 887.195,3813.85 L 887.195,3826.63 C 887.195,3850.59 924.477,3887.23 940.891,3898.21 L 958.781,3898.21 L 945.996,3887.98 L 984.352,3890.54 C 980.371,3895.97 970.859,3903.33 961.34,3903.33 L 948.555,3903.33 C 924.949,3903.33 882.082,3847.51 882.082,3821.51 C 882.082,3819 886.297,3804.91 887.195,3801.07" /><path
       id="path167"
       style="fill:#ed4349;fill-opacity:1;fill-rule:evenodd;stroke:none"
       d="M 986.91,3785.72 L 992.023,3785.72 C 997.543,3788.65 1004.8,3790.18 1004.8,3798.51 L 1004.66,3803.4 L 999.684,3806.18 L 991.641,3799.92 L 997.129,3798.51 L 996.844,3791.49" /><path
       id="path169"
       style="fill:#ec1a29;fill-opacity:1;fill-rule:evenodd;stroke:none"
       d="M 823.277,3824.08 L 825.836,3798.51 C 837.23,3795.85 850.672,3779.12 856.52,3770.38 L 864.84,3761.45 L 879.523,3752.49 L 892.309,3747.38 L 899.98,3747.38 C 885.129,3760.29 864.922,3769.59 856.844,3788.61 C 843.152,3820.79 841.176,3808.98 841.176,3852.2 L 831.934,3811.55" /><path
       id="path171"
       style="fill:#f3999b;fill-opacity:1;fill-rule:evenodd;stroke:none"
       d="M 969.008,3801.07 L 975.691,3800.14 L 982.078,3792.25 L 922.992,3780.61 L 917.879,3778.05 L 917.863,3772.85 L 940.891,3770.38 L 963.57,3773.56 L 986.91,3785.72 L 996.844,3791.49 L 997.129,3798.51 L 991.641,3799.92 L 999.684,3806.18 L 994.578,3806.18 C 987.016,3802.43 997.32,3804.24 986.91,3803.62" /><path
       id="path173"
       style="fill:#8184c7;fill-opacity:1;fill-rule:evenodd;stroke:none"
       d="M 1858.73,3732.04 C 1870.71,3731.04 1871.37,3726.92 1884.29,3726.92 L 1907.3,3726.92 C 1934.2,3726.92 1973.88,3755.91 1991.69,3768.15 L 2007.01,3765.27 L 2012.12,3767.82 C 2008.86,3772.71 1971.67,3798.51 1968.66,3798.51 C 1965.19,3798.51 1940.52,3770.38 1914.97,3770.38 L 1904.75,3770.38 C 1889.26,3770.38 1867.09,3789.65 1863.83,3803.62 L 1856.17,3803.62 L 1856.17,3813.85 C 1856.17,3822.8 1874.8,3844.2 1889.4,3844.53 C 1890.93,3850.22 1890,3852.2 1897.07,3852.2 L 1907.3,3852.2 C 1920.04,3852.2 1929.08,3836.86 1935.42,3836.86 C 1946.75,3836.86 1954.55,3858.52 1971.22,3870.1 C 1963.77,3881.22 1931.2,3898.21 1912.42,3898.21 L 1907.3,3898.21 C 1867.81,3898.21 1820.38,3846.34 1820.38,3806.18 L 1820.38,3795.95 C 1820.38,3774.49 1842.79,3736.29 1858.73,3732.04" /><path
       id="path175"
       style="fill:#d71e2a;fill-opacity:1;fill-rule:evenodd;stroke:none"
       d="M 836.063,3780.61 L 839.195,3783.75 L 851.406,3770.38 L 856.52,3770.38 C 850.672,3779.12 837.23,3795.85 825.836,3798.51" /><path
       id="path177"
       style="fill:#b6222b;fill-opacity:1;fill-rule:evenodd;stroke:none"
       d="M 1004.8,3762.71 L 1007.36,3757.6 L 1012.47,3760.15 L 1012.47,3762.71 C 1011.63,3772.87 1006.18,3778.15 999.684,3770.38 L 1007.84,3770.2" /><path
       id="path179"
       style="fill:#ee333b;fill-opacity:1;fill-rule:evenodd;stroke:none"
       d="M 899.98,3772.94 C 908.559,3772.22 934.629,3762.89 940.891,3770.38 L 917.863,3772.85 L 917.879,3778.05 L 922.992,3780.61 L 905.094,3785.72 L 897.488,3782.8" /><path
       id="path181"
       style="fill:#9a262c;fill-opacity:1;fill-rule:evenodd;stroke:none"
       d="M 859.066,3757.6 L 879.523,3752.49 L 864.84,3761.45 L 856.52,3770.38 L 851.406,3770.38 L 839.195,3783.75 L 836.063,3780.61 L 853.961,3757.6" /><path
       id="path183"
       style="fill:#8184c7;fill-opacity:1;fill-rule:evenodd;stroke:none"
       d="M 1124.97,3767.82 C 1131.77,3758.55 1154.89,3749.93 1170.98,3749.93 C 1194.08,3749.93 1243.9,3768.46 1252.62,3780.14 L 1245.13,3783.17 C 1230.81,3773.22 1209.93,3771.65 1193.92,3765.34 C 1170.14,3755.96 1163.95,3762.71 1135.19,3762.71 L 1132.77,3770.43" /><path
       id="path185"
       style="fill:#7478bb;fill-opacity:1;fill-rule:evenodd;stroke:none"
       d="M 2334.26,3783.17 C 2325.64,3777.7 2313.8,3777.34 2305.61,3770.91 C 2295.17,3762.73 2294.72,3760.15 2275.46,3760.15 L 2257.56,3760.15 C 2228.53,3760.15 2207.13,3782.13 2193.64,3785.72 C 2200.86,3774.96 2228.13,3752.49 2244.78,3752.49 L 2267.79,3752.49 C 2290.64,3752.49 2333.24,3768.75 2341.75,3780.14" /><path
       id="path187"
       style="fill:#ea1b28;fill-opacity:1;fill-rule:evenodd;stroke:none"
       d="M 856.52,3880.32 L 841.176,3852.2 C 841.176,3808.98 843.152,3820.79 856.844,3788.61 C 864.922,3769.59 885.129,3760.29 899.98,3747.38 L 892.309,3747.38 C 895.547,3739.35 909.484,3739.71 920.438,3739.71 L 933.219,3739.71 C 961.004,3739.71 982.328,3758.76 999.684,3770.38 C 1006.18,3778.15 1011.63,3772.87 1012.47,3762.71 L 1020.14,3765.27 L 1020.14,3752.49 C 1028.9,3749.32 1032.04,3734.96 1032.79,3724.75 L 1027.81,3721.81 L 1050.82,3726.92 C 1035.24,3733.21 1044.78,3803.55 1040.6,3821.51 L 976.68,3821.51 C 973.941,3811.24 975.98,3814.12 963.895,3813.85 L 963.895,3806.18 C 969.551,3809.17 976.371,3813.85 984.352,3813.85 L 994.578,3813.85 L 994.578,3806.18 L 999.684,3806.18 L 1004.66,3803.4 L 1004.8,3798.51 C 1004.8,3790.18 997.543,3788.65 992.023,3785.72 L 986.91,3785.72 L 963.57,3773.56 L 940.891,3770.38 C 934.629,3762.89 908.559,3772.22 899.98,3772.94 C 890.078,3773.16 874.41,3776.16 874.41,3785.72 L 874.41,3793.39 C 865.258,3795.84 864.191,3802.1 864.191,3813.85 L 864.191,3818.96 C 864.191,3829.73 866.906,3836.28 871.863,3841.97 L 874.41,3813.85 C 874.41,3876.07 920.992,3891.4 925.551,3908.44 C 937.535,3909.44 938.191,3913.55 951.109,3913.55 L 953.668,3913.55 C 968.27,3913.55 981.012,3907.02 986.91,3898.21 L 999.684,3885.43 L 988.266,3905.14 C 1020.96,3898.55 1009.59,3885.61 1022.7,3880.32 L 1020.14,3875.21 L 1038.04,3880.32 L 1030.37,3880.32 C 1026.88,3893.38 1008.37,3911.61 997.66,3919.2 C 981.137,3930.91 973.789,3936.57 943.441,3936.57 C 907.609,3936.57 868.512,3903 856.52,3880.32" /><path
       id="path189"
       style="fill:#787ebf;fill-opacity:1;fill-rule:evenodd;stroke:none"
       d="M 1769.24,3749.93 L 1769.24,3737.15 L 1812.7,3737.15 L 1813.73,3775.64 L 1807.59,3816.41 C 1801.43,3806.69 1804.94,3779.72 1805.1,3765.21 C 1805.35,3741.52 1796.95,3746.91 1772.18,3744.95" /><path
       id="path191"
       style="fill:#7576b6;fill-opacity:1;fill-rule:evenodd;stroke:none"
       d="M 1309.05,3744.82 C 1316.93,3737.96 1334.99,3732.04 1349.95,3732.04 L 1357.62,3732.04 C 1397.42,3732.04 1462.44,3791.24 1462.44,3829.18 C 1462.44,3841.32 1459.58,3847.65 1457.32,3857.31 C 1455.82,3854.88 1453.22,3826.16 1448.7,3814.8 C 1446.08,3808.18 1442.64,3802.05 1438.04,3797.35 C 1426.68,3785.77 1433.95,3791.16 1427.53,3779.73 C 1418.77,3764.11 1381.52,3739.71 1355.06,3739.71 L 1342.28,3739.71 C 1327.79,3739.71 1327.71,3744.82 1309.05,3744.82" /><path
       id="path193"
       style="fill:#ece5dd;fill-opacity:1;fill-rule:evenodd;stroke:none"
       d="M 2111.84,3744.82 L 2137.05,3737.1 L 2139.95,3726.92 L 2142.09,3729.05 L 2145.07,3726.92 L 2145.07,3742.27 L 2150.18,3742.27 L 2152.74,3747.38 L 2109.28,3752.49 L 2106.85,3747.76" /><path
       id="path195"
       style="fill:#60272a;fill-opacity:1;fill-rule:evenodd;stroke:none"
       d="M 892.309,3747.38 L 879.523,3752.49 L 859.066,3757.6 L 882.082,3739.71 C 907.902,3726.04 938.641,3722.43 966.453,3737.15 L 974.125,3739.71 L 1004.8,3762.71 L 1007.84,3770.2 L 999.684,3770.38 C 982.328,3758.76 961.004,3739.71 933.219,3739.71 L 920.438,3739.71 C 909.484,3739.71 895.547,3739.35 892.309,3747.38" /><path
       id="path197"
       style="fill:#7f84c7;fill-opacity:1;fill-rule:evenodd;stroke:none"
       d="M 1718.11,3788.28 C 1714.31,3792.64 1713,3792.72 1713,3801.07 L 1713,3806.18 C 1713,3814.44 1722.28,3818.96 1730.89,3818.96 L 1738.56,3818.96 C 1747.84,3818.96 1747.53,3815.93 1756.46,3813.85 L 1753.9,3808.74 C 1762.71,3790.37 1766.88,3778.05 1741.12,3778.05 L 1733.45,3778.05 C 1727.09,3778.05 1723.83,3784.45 1718.11,3788.28 M 1518.69,3732.04 C 1535.38,3732.04 1534.93,3726.92 1549.37,3726.92 L 1559.6,3726.92 C 1590.28,3726.92 1603.45,3744.43 1620.95,3744.82 C 1624.44,3751.39 1656,3770.38 1664.41,3770.38 L 1674.64,3770.38 L 1674.64,3765.27 C 1683.26,3752.39 1706.32,3739.71 1728.34,3739.71 L 1736,3739.71 C 1749.89,3739.71 1764.56,3752 1769.24,3749.93 L 1772.18,3744.95 C 1796.95,3746.91 1805.35,3741.52 1805.1,3765.21 C 1804.94,3779.72 1801.43,3806.69 1807.59,3816.41 C 1798.91,3853.64 1765.87,3898.21 1723.22,3898.21 L 1705.33,3898.21 C 1692.77,3898.21 1656.74,3881.38 1656.74,3875.21 C 1656.74,3867.65 1663.13,3859.18 1666.97,3854.75 L 1674.59,3854.54 C 1679.69,3858.14 1694.82,3864.98 1702.77,3864.98 L 1705.33,3864.98 C 1722.95,3864.98 1724.53,3857.82 1736,3854.75 L 1736,3847.08 L 1741.12,3839.41 C 1703.41,3839.41 1649.45,3812.04 1666.97,3775.5 C 1658.71,3777.7 1631.02,3798.51 1628.63,3798.51 C 1625.16,3798.51 1600.48,3770.38 1574.94,3770.38 L 1564.71,3770.38 C 1549.23,3770.38 1527.05,3789.65 1523.8,3803.62 L 1518.69,3803.62 L 1518.69,3826.63 C 1529.94,3830.7 1541.44,3854.75 1554.48,3854.75 L 1574.94,3854.75 C 1576.79,3850.16 1592.63,3841.97 1597.95,3841.97 C 1601.99,3841.97 1625.99,3865.58 1631.18,3870.1 C 1623.73,3881.22 1591.15,3898.21 1572.38,3898.21 L 1567.27,3898.21 C 1527.77,3898.21 1480.34,3846.34 1480.34,3806.18 L 1480.34,3795.95 C 1480.34,3774.49 1502.75,3736.29 1518.69,3732.04" /><path
       id="path199"
       style="fill:#ec1a29;fill-opacity:1;fill-rule:evenodd;stroke:none"
       d="M 1050.82,3726.92 L 1055.94,3726.92 L 1055.94,3824.08 L 979.238,3821.51 L 1040.6,3821.51 C 1044.78,3803.55 1035.24,3733.21 1050.82,3726.92" /><path
       id="path201"
       style="fill:#7a262c;fill-opacity:1;fill-rule:evenodd;stroke:none"
       d="M 1055.94,3824.08 L 1055.94,3726.92 L 1050.82,3726.92 L 1027.81,3721.81 L 1019.97,3722.04 L 1004.8,3711.58 L 1020.14,3709.02 L 1063.61,3716.7 L 1066.16,3826.63 L 1066.16,3831.74 L 1060.85,3824.18" /><path
       id="path203"
       style="fill:#ef2732;fill-opacity:1;fill-rule:evenodd;stroke:none"
       d="M 1007.36,3757.6 L 1004.8,3732.04 L 1004.8,3724.36 L 1007.36,3719.25 C 1013.15,3720.79 1017.58,3721.71 1017.58,3729.48 L 1017.58,3752.49 C 1017.58,3759.69 1016.48,3757.22 1012.47,3760.15" /><path
       id="path205"
       style="fill:#ec1b28;fill-opacity:1;fill-rule:evenodd;stroke:none"
       d="M 1012.47,3762.71 L 1012.47,3760.15 C 1016.48,3757.22 1017.58,3759.69 1017.58,3752.49 L 1017.58,3729.48 C 1017.58,3721.71 1013.15,3720.79 1007.36,3719.25 L 1004.8,3724.36 L 1004.8,3711.58 L 1019.97,3722.04 L 1027.81,3721.81 L 1032.79,3724.75 C 1032.04,3734.96 1028.9,3749.32 1020.14,3752.49 L 1020.14,3765.27" /><path
       id="path207"
       style="fill:#7576b6;fill-opacity:1;fill-rule:evenodd;stroke:none"
       d="M 1518.69,3732.04 C 1548.17,3691.81 1653.94,3746.54 1669.67,3768.04 L 1674.64,3765.27 L 1674.64,3770.38 L 1664.41,3770.38 C 1656,3770.38 1624.44,3751.39 1620.95,3744.82 C 1603.45,3744.43 1590.28,3726.92 1559.6,3726.92 L 1549.37,3726.92 C 1534.93,3726.92 1535.38,3732.04 1518.69,3732.04" /><path
       id="path209"
       style="fill:#b8ac99;fill-opacity:1;fill-rule:evenodd;stroke:none"
       d="M 974.125,3739.71 L 966.453,3737.15 C 962.188,3721.17 928.023,3724.36 907.652,3724.36 C 914.121,3718.73 923.602,3716.7 935.77,3716.7 L 938.324,3716.7 C 958.297,3716.7 995.527,3728.12 996.703,3748.33" /><path
       id="path211"
       style="fill:#7576b6;fill-opacity:1;fill-rule:evenodd;stroke:none"
       d="M 1858.73,3732.04 C 1889.49,3690.04 1985.25,3746.36 2007.01,3765.27 L 1991.69,3768.15 C 1973.88,3755.91 1934.2,3726.92 1907.3,3726.92 L 1884.29,3726.92 C 1871.37,3726.92 1870.71,3731.04 1858.73,3732.04" /><path
       id="path213"
       style="fill:#e2d3c3;fill-opacity:1;fill-rule:evenodd;stroke:none"
       d="M 974.125,3739.71 L 996.703,3748.33 C 995.527,3728.12 958.297,3716.7 938.324,3716.7 L 935.77,3716.7 C 923.602,3716.7 914.121,3718.73 907.652,3724.36 C 928.023,3724.36 962.188,3721.17 966.453,3737.15 C 938.641,3722.43 907.902,3726.04 882.082,3739.71 L 876.969,3737.15 C 883.973,3727.59 915.137,3714.14 933.219,3714.14 L 935.77,3714.14 C 967.676,3714.14 989.906,3725.12 1004.8,3742.27 L 1004.8,3732.04 L 1007.36,3757.6 L 1004.8,3762.71" /><path
       id="path215"
       style="fill:#d8d1c3;fill-opacity:1;fill-rule:evenodd;stroke:none"
       d="M 1063.61,3716.7 L 1071.28,3719.25 L 1071.28,3711.58 L 1076.39,3714.14 C 1076.39,3732.22 1075.08,3755.55 1076.35,3772.98 C 1077.25,3785.43 1086.44,3820.02 1071.28,3824.08 L 1071.28,3808.74 L 1068.71,3808.74 L 1068.71,3826.63 L 1066.16,3826.63" /><path
       id="path217"
       style="fill:#bfbd9e;fill-opacity:1;fill-rule:evenodd;stroke:none"
       d="M 1063.61,3716.7 L 1020.14,3709.02 L 1028.01,3707.48 L 1017.58,3706.46 L 1017.58,3698.8 C 1032.43,3699.13 1064.79,3702.73 1071.28,3711.58 L 1071.28,3719.25" /><path
       id="path219"
       style="fill:#ffffff;fill-opacity:1;fill-rule:evenodd;stroke:none"
       d="M 2065.81,3698.8 L 2070.9272,3698.8 L 2070.9272,3726.9172 L 2065.81,3726.9172 L 2065.81,3698.8 z" /><path
       id="path221"
       style="fill:#ffffff;fill-opacity:1;fill-rule:evenodd;stroke:none"
       d="M 2114.38,3657.89 L 2119.4972,3657.89 L 2119.4972,3732.0345 L 2114.38,3732.0345 L 2114.38,3657.89 z" /><path
       id="path223"
       style="fill:#babddd;fill-opacity:1;fill-rule:evenodd;stroke:none"
       d="M 2065.81,3726.92 L 2070.93,3726.92 L 2070.93,3698.8 L 2065.81,3698.8 L 2065.81,3726.92 z M 2040.25,3739.71 L 2045.36,3739.71 L 2045.36,3645.11 L 2065.81,3645.11 L 2065.81,3683.46 C 2077.34,3683.71 2091.38,3688.05 2091.38,3698.8 L 2091.38,3726.92 C 2091.38,3737.67 2077.34,3742 2065.81,3742.27 L 2065.81,3749.93 L 2050.47,3749.93" /><path
       id="path225"
       style="fill:#babddd;fill-opacity:1;fill-rule:evenodd;stroke:none"
       d="M 2114.38,3732.04 L 2119.5,3732.04 L 2119.5,3657.89 L 2114.38,3657.89 L 2114.38,3732.04 z M 2139.95,3726.92 L 2137.05,3737.1 L 2111.84,3744.82 C 2099.22,3738.77 2093.94,3740.27 2093.94,3719.25 L 2093.94,3665.56 C 2093.94,3651.71 2103.38,3645.11 2116.95,3645.11 C 2149.81,3645.11 2139.95,3692.66 2139.95,3726.92" /><path
       id="path227"
       style="fill:#babddd;fill-opacity:1;fill-rule:evenodd;stroke:none"
       d="M 2145.07,3726.92 L 2145.07,3645.11 L 2180.86,3645.11 L 2180.86,3660.45 L 2165.52,3660.45 L 2165.52,3742.27 L 2145.07,3742.27" /><path
       id="path229"
       style="fill:#babddd;fill-opacity:1;fill-rule:evenodd;stroke:none"
       d="M 2203.87,3724.36 C 2203.87,3731.44 2205.84,3730.51 2211.54,3732.04 L 2211.54,3709.02 L 2232,3709.02 L 2232,3724.36 C 2232,3738.21 2222.56,3744.82 2208.98,3744.82 C 2199.05,3744.82 2185.98,3738.93 2185.98,3729.48 L 2185.98,3714.14 C 2185.98,3692.77 2211.54,3692.04 2211.54,3670.68 L 2211.54,3657.89 C 2205.84,3659.41 2203.87,3658.49 2203.87,3665.56 L 2203.87,3683.46 L 2185.98,3683.46 L 2185.98,3660.45 C 2185.98,3650.99 2199.05,3645.11 2208.98,3645.11 C 2222.56,3645.11 2232,3651.71 2232,3665.56 L 2232,3675.79 C 2232,3694.56 2203.87,3704.87 2203.87,3719.25" /><path
       id="path231"
       style="fill:#babddd;fill-opacity:1;fill-rule:evenodd;stroke:none"
       d="M 2275.46,3701.35 C 2275.46,3708.32 2283.48,3737.68 2285.68,3742.27 L 2267.79,3742.27 L 2258.57,3704.26 L 2257.56,3703.91 L 2257.56,3742.27 L 2237.11,3742.27 L 2237.11,3645.11 L 2257.56,3645.11 L 2257.56,3688.57 L 2260.11,3688.57 L 2266.04,3645.23 L 2303.58,3645.11 L 2306.78,3670.59 L 2316.37,3670.68 L 2316.37,3663 C 2316.37,3654.2 2318.26,3653.1 2318.92,3645.11 L 2339.37,3645.11 L 2326.58,3742.27 L 2301.03,3742.27 L 2286.95,3647.87 C 2281.64,3652.5 2275.46,3689.13 2275.46,3701.35" /></g></g><g
   id="g233"
   transform="scale(0.12,0.12)"
   inkscape:label="#g233"><g
     clip-path="url(#clipPath237)"
     id="g235"><path
       id="frame1"
       xml:id="frame1"
       style="fill:none;stroke:#231f20;stroke-width:4.16445017;stroke-linecap:butt;stroke-linejoin:miter;stroke-miterlimit:4;stroke-dasharray:none;stroke-opacity:1"
       d="M 686.762,3510.75 L 2476.922,3510.75 L 2476.922,5985.58 L 686.762,5985.58 L 686.762,3510.75 z" /></g></g><path
   id="path295"
   style="fill:#231f20;fill-opacity:1;fill-rule:nonzero;stroke:none"
   d="M 313.6284,701.5212 L 496.6488,701.5212 L 496.6488,702.37057 L 313.6284,702.37057 L 313.6284,701.5212 z" /><image
   y="-670.55438"
   x="314.04721"
   id="image2914"
   height="196.96159"
   width="182.38161"
   sodipodi:absref="/home/rush/rushbase.net/public_html/test/logo2.png"
   xml:id="bglogo"
   xlink:href="logo2.png"
   transform="scale(1,-1)" /><path
   id="path297"
   style="fill:#231f20;fill-opacity:1;fill-rule:nonzero;stroke:none"
   d="M 313.6284,645.6276 L 496.6488,645.6276 L 496.6488,646.47697 L 313.6284,646.47697 L 313.6284,645.6276 z" /><path
   id="path299"
   style="fill:#231f20;fill-opacity:1;fill-rule:nonzero;stroke:none"
   d="M 313.6284,645.708 L 314.47777,645.708 L 314.47777,702.37056 L 313.6284,702.37056 L 313.6284,645.708 z" /><path
   id="path301"
   style="fill:#231f20;fill-opacity:1;fill-rule:nonzero;stroke:none"
   d="M 495.7992,645.708 L 496.64904,645.708 L 496.64904,702.37056 L 495.7992,702.37056 L 495.7992,645.708 z" /><path
   id="path303"
   style="fill:#231f20;fill-opacity:1;fill-rule:nonzero;stroke:none"
   d="M 313.6284,681.1716 L 496.6488,681.1716 L 496.6488,682.02144 L 313.6284,682.02144 L 313.6284,681.1716 z" /><g
   id="g305"><text
   id="text307"
   transform="matrix(1,0,0,-1,316.781,683.147)"><tspan
     id="tspan309"
     sodipodi:role="line"
     y="0"
     x="0 3.8899317 5.4431057 8.941246 12.439385 14.384352 16.329317 20.21925 22.549011 28.376911 32.266842 33.820019"
     style="font-size:6.99628019px;font-style:oblique;font-variant:normal;writing-mode:lr-tb;fill:#231f20;fill-opacity:1;fill-rule:nonzero;stroke:none;font-family:Helvetica;-inkscape-font-specification:Helvetica-Oblique">nick, e-mail</tspan></text>








</g><path
   id="path311"
   style="fill:#231f20;fill-opacity:1;fill-rule:nonzero;stroke:none"
   d="M 444.4392,681.3204 L 445.28857,681.3204 L 445.28857,702.16944 L 444.4392,702.16944 L 444.4392,681.3204 z" /><g
   id="g313"><text
   id="text315"
   transform="matrix(1,0,0,-1,445.886,682.97)"><tspan
     id="tspan317"
     sodipodi:role="line"
     y="0"
     x="0 3.8899317 7.7798634 9.7248297 13.614761 15.559727 17.504692 19.449659 23.33959 27.229523 29.174488"
     style="font-size:6.99628019px;font-style:oblique;font-variant:normal;writing-mode:lr-tb;fill:#231f20;fill-opacity:1;fill-rule:nonzero;stroke:none;font-family:Helvetica;-inkscape-font-specification:Helvetica-Oblique">data / date</tspan><tspan
     id="tspan319"
     sodipodi:role="line"
     y="33.762199"
     x="-130.84 -126.95007 -121.89876 -118.00882 -114.11889 -112.56572 -110.62075 -108.67578 -106.73082 -102.84089 -98.950958 -97.005989 -93.116058"
     style="font-size:6.99628019px;font-style:oblique;font-variant:normal;writing-mode:lr-tb;fill:#231f20;fill-opacity:1;fill-rule:nonzero;stroke:none;font-family:Helvetica;-inkscape-font-specification:Helvetica-Oblique">uwagi / notes</tspan></text>








</g><path
   id="path321"
   style="fill:#231f20;fill-opacity:1;fill-rule:nonzero;stroke:none"
   d="M 313.6284,562.1304 L 496.6488,562.1304 L 496.6488,562.97977 L 313.6284,562.97977 L 313.6284,562.1304 z" /><path
   id="path323"
   style="fill:#231f20;fill-opacity:1;fill-rule:nonzero;stroke:none"
   d="M 313.6284,506.2368 L 496.6488,506.2368 L 496.6488,507.08617 L 313.6284,507.08617 L 313.6284,506.2368 z" /><path
   id="path325"
   style="fill:#231f20;fill-opacity:1;fill-rule:nonzero;stroke:none"
   d="M 313.6284,506.3184 L 314.47777,506.3184 L 314.47777,562.98132 L 313.6284,562.98132 L 313.6284,506.3184 z" /><path
   id="path327"
   style="fill:#231f20;fill-opacity:1;fill-rule:nonzero;stroke:none"
   d="M 495.7992,506.3184 L 496.64904,506.3184 L 496.64904,562.98132 L 495.7992,562.98132 L 495.7992,506.3184 z" /><path
   id="path329"
   style="fill:#231f20;fill-opacity:1;fill-rule:nonzero;stroke:none"
   d="M 313.6284,541.782 L 496.6488,541.782 L 496.6488,542.63184 L 313.6284,542.63184 L 313.6284,541.782 z" /><g
   id="g331"><text
   id="text333"
   transform="matrix(1,0,0,-1,316.072,543.758)"><tspan
     id="tspan335"
     sodipodi:role="line"
     y="0"
     x="0 3.8899317 5.4431057 8.941246 12.439385 14.384352 16.329317 20.21925 22.549011 28.376911 32.266842 33.820019"
     style="font-size:6.99628019px;font-style:oblique;font-variant:normal;writing-mode:lr-tb;fill:#231f20;fill-opacity:1;fill-rule:nonzero;stroke:none;font-family:Helvetica;-inkscape-font-specification:Helvetica-Oblique">nick, e-mail</tspan></text>








</g><path
   id="path337"
   style="fill:#231f20;fill-opacity:1;fill-rule:nonzero;stroke:none"
   d="M 444.4392,541.9296 L 445.28857,541.9296 L 445.28857,562.77816 L 444.4392,562.77816 L 444.4392,541.9296 z" /><g
   id="g339"><text
   id="text341"
   transform="matrix(1,0,0,-1,445.886,543.579)"><tspan
     id="tspan343"
     sodipodi:role="line"
     y="0"
     x="0 3.8899317 7.7798634 9.7248297 13.614761 15.559727 17.504692 19.449659 23.33959 27.229523 29.174488"
     style="font-size:6.99628019px;font-style:oblique;font-variant:normal;writing-mode:lr-tb;fill:#231f20;fill-opacity:1;fill-rule:nonzero;stroke:none;font-family:Helvetica;-inkscape-font-specification:Helvetica-Oblique">data / date</tspan><tspan
     id="tspan345"
     sodipodi:role="line"
     y="33.761299"
     x="-130.84 -126.95007 -121.89876 -118.00882 -114.11889 -112.56572 -110.62075 -108.67578 -106.73082 -102.84089 -98.950958 -97.005989 -93.116058"
     style="font-size:6.99628019px;font-style:oblique;font-variant:normal;writing-mode:lr-tb;fill:#231f20;fill-opacity:1;fill-rule:nonzero;stroke:none;font-family:Helvetica;-inkscape-font-specification:Helvetica-Oblique">uwagi / notes</tspan></text>








</g><path
   id="path347"
   style="fill:#231f20;fill-opacity:1;fill-rule:nonzero;stroke:none"
   d="M 313.6284,631.26 L 496.6488,631.26 L 496.6488,632.10984 L 313.6284,632.10984 L 313.6284,631.26 z" /><path
   id="path349"
   style="fill:#231f20;fill-opacity:1;fill-rule:nonzero;stroke:none"
   d="M 313.6284,575.3652 L 496.6488,575.3652 L 496.6488,576.21504 L 313.6284,576.21504 L 313.6284,575.3652 z" /><path
   id="path351"
   style="fill:#231f20;fill-opacity:1;fill-rule:nonzero;stroke:none"
   d="M 313.6284,575.4468 L 314.47777,575.4468 L 314.47777,632.10972 L 313.6284,632.10972 L 313.6284,575.4468 z" /><path
   id="path353"
   style="fill:#231f20;fill-opacity:1;fill-rule:nonzero;stroke:none"
   d="M 495.7992,575.4468 L 496.64904,575.4468 L 496.64904,632.10972 L 495.7992,632.10972 L 495.7992,575.4468 z" /><path
   id="path355"
   style="fill:#231f20;fill-opacity:1;fill-rule:nonzero;stroke:none"
   d="M 313.6284,610.9104 L 496.6488,610.9104 L 496.6488,611.75977 L 313.6284,611.75977 L 313.6284,610.9104 z" /><g
   id="g357"><text
   id="text359"
   transform="matrix(1,0,0,-1,316.781,612.885)"><tspan
     id="tspan361"
     sodipodi:role="line"
     y="0"
     x="0 3.8899317 5.4431057 8.941246 12.439385 14.384352 16.329317 20.21925 22.549011 28.376911 32.266842 33.820019"
     style="font-size:6.99628019px;font-style:oblique;font-variant:normal;writing-mode:lr-tb;fill:#231f20;fill-opacity:1;fill-rule:nonzero;stroke:none;font-family:Helvetica;-inkscape-font-specification:Helvetica-Oblique">nick, e-mail</tspan></text>








</g><path
   id="path363"
   style="fill:#231f20;fill-opacity:1;fill-rule:nonzero;stroke:none"
   d="M 444.4392,611.058 L 445.28857,611.058 L 445.28857,631.90704 L 444.4392,631.90704 L 444.4392,611.058 z" /><g
   id="g365"><text
   id="text367"
   transform="matrix(1,0,0,-1,445.886,612.709)"><tspan
     id="tspan369"
     sodipodi:role="line"
     y="0"
     x="0 3.8899317 7.7798634 9.7248297 13.614761 15.559727 17.504692 19.449659 23.33959 27.229523 29.174488"
     style="font-size:6.99628019px;font-style:oblique;font-variant:normal;writing-mode:lr-tb;fill:#231f20;fill-opacity:1;fill-rule:nonzero;stroke:none;font-family:Helvetica;-inkscape-font-specification:Helvetica-Oblique">data / date</tspan><tspan
     id="tspan371"
     sodipodi:role="line"
     y="33.762199"
     x="-130.84 -126.95007 -121.89876 -118.00882 -114.11889 -112.56572 -110.62075 -108.67578 -106.73082 -102.84089 -98.950958 -97.005989 -93.116058"
     style="font-size:6.99628019px;font-style:oblique;font-variant:normal;writing-mode:lr-tb;fill:#231f20;fill-opacity:1;fill-rule:nonzero;stroke:none;font-family:Helvetica;-inkscape-font-specification:Helvetica-Oblique">uwagi / notes</tspan></text>








</g><path
   id="path373"
   style="fill:#231f20;fill-opacity:1;fill-rule:nonzero;stroke:none"
   d="M 313.6284,493.0836 L 496.6488,493.0836 L 496.6488,493.93297 L 313.6284,493.93297 L 313.6284,493.0836 z" /><path
   id="path375"
   style="fill:#231f20;fill-opacity:1;fill-rule:nonzero;stroke:none"
   d="M 313.6284,437.1888 L 496.6488,437.1888 L 496.6488,438.03817 L 313.6284,438.03817 L 313.6284,437.1888 z" /><path
   id="path377"
   style="fill:#231f20;fill-opacity:1;fill-rule:nonzero;stroke:none"
   d="M 313.6284,437.2692 L 314.47777,437.2692 L 314.47777,493.93212 L 313.6284,493.93212 L 313.6284,437.2692 z" /><path
   id="path379"
   style="fill:#231f20;fill-opacity:1;fill-rule:nonzero;stroke:none"
   d="M 495.7992,437.2692 L 496.64904,437.2692 L 496.64904,493.93212 L 495.7992,493.93212 L 495.7992,437.2692 z" /><path
   id="path381"
   style="fill:#231f20;fill-opacity:1;fill-rule:nonzero;stroke:none"
   d="M 313.6284,472.734 L 496.6488,472.734 L 496.6488,473.58384 L 313.6284,473.58384 L 313.6284,472.734 z" /><g
   id="g383"><text
   id="text385"
   transform="matrix(1,0,0,-1,316.072,474.709)"><tspan
     id="tspan387"
     sodipodi:role="line"
     y="0"
     x="0 3.8899317 5.4431057 8.941246 12.439385 14.384352 16.329317 20.21925 22.549011 28.376911 32.266842 33.820019"
     style="font-size:6.99628019px;font-style:oblique;font-variant:normal;writing-mode:lr-tb;fill:#231f20;fill-opacity:1;fill-rule:nonzero;stroke:none;font-family:Helvetica;-inkscape-font-specification:Helvetica-Oblique">nick, e-mail</tspan></text>








</g><path
   id="path389"
   style="fill:#231f20;fill-opacity:1;fill-rule:nonzero;stroke:none"
   d="M 444.4392,472.8816 L 445.28857,472.8816 L 445.28857,493.73064 L 444.4392,493.73064 L 444.4392,472.8816 z" /><g
   id="g391"><text
   id="text393"
   transform="matrix(1,0,0,-1,445.886,474.532)"><tspan
     id="tspan395"
     sodipodi:role="line"
     y="0"
     x="0 3.8899317 7.7798634 9.7248297 13.614761 15.559727 17.504692 19.449659 23.33959 27.229523 29.174488"
     style="font-size:6.99628019px;font-style:oblique;font-variant:normal;writing-mode:lr-tb;fill:#231f20;fill-opacity:1;fill-rule:nonzero;stroke:none;font-family:Helvetica;-inkscape-font-specification:Helvetica-Oblique">data / date</tspan><tspan
     id="tspan397"
     sodipodi:role="line"
     y="33.762199"
     x="-130.84 -126.95007 -121.89876 -118.00882 -114.11889 -112.56572 -110.62075 -108.67578 -106.73082 -102.84089 -98.950958 -97.005989 -93.116058"
     style="font-size:6.99628019px;font-style:oblique;font-variant:normal;writing-mode:lr-tb;fill:#231f20;fill-opacity:1;fill-rule:nonzero;stroke:none;font-family:Helvetica;-inkscape-font-specification:Helvetica-Oblique">uwagi / notes</tspan></text>








</g><path
   xml:id="frame2"
   id="frame2"
   style="fill:none;stroke:#231f20;stroke-width:0.49973401;stroke-linecap:butt;stroke-linejoin:miter;stroke-miterlimit:4;stroke-dasharray:none;stroke-opacity:1"
   d="M 297.7296,421.29 L 512.5488,421.29 L 512.5488,718.2696 L 297.7296,718.2696 L 297.7296,421.29 z"
   inkscape:label="#path399" /><flowRoot
   xml:space="preserve"
   id="flowRoot3274"
   style="font-size:24px;font-style:normal;font-weight:normal;text-align:center;text-anchor:middle;fill:#000000;fill-opacity:1;stroke:none;stroke-width:1px;stroke-linecap:butt;stroke-linejoin:miter;stroke-opacity:1;font-family:Bitstream Vera Sans"
   transform="matrix(1,0,0,-1,-290.4766,884.37112)"><flowRegion
     id="flowRegion3276"><rect
       id="rect3278"
       width="186.48621"
       height="156.9281"
       x="388.86407"
       y="639.55768" /></flowRegion><flowPara
     style="font-size:8px;font-style:normal;font-variant:normal;font-weight:normal;font-stretch:normal;text-align:justify;line-height:125%;writing-mode:lr-tb;text-anchor:start;font-family:Nimbus Sans L;-inkscape-font-specification:Nimbus Sans L"
     id="flowPara3280">You are of course welcome to join us. The real treasure is just finding the container and sharing your thoughts with everyone else who finds it. If you wish, go ahead and take something from the stash but please also leave something of your own for others to find (not food). Note your visit in the logbook. If possible, let us know of your find!</flowPara><flowPara
     style="font-size:8px;font-style:normal;font-variant:normal;font-weight:normal;font-stretch:normal;text-align:justify;line-height:125%;writing-mode:lr-tb;text-anchor:start;font-family:Nimbus Sans L;-inkscape-font-specification:Nimbus Sans L"
     id="flowPara3299" /><flowPara
     style="font-size:8px;font-style:normal;font-variant:normal;font-weight:normal;font-stretch:normal;text-align:justify;line-height:125%;writing-mode:lr-tb;text-anchor:start;font-family:Nimbus Sans L;-inkscape-font-specification:Nimbus Sans L"
     id="flowPara3301">More about geocaching:  <flowSpan
   style="font-weight:bold"
   id="flowSpan3303">www.opencaching.pl</flowSpan></flowPara><flowPara
     style="font-size:8px;font-style:normal;font-variant:normal;font-weight:bold;font-stretch:normal;text-align:justify;line-height:125%;writing-mode:lr-tb;text-anchor:start;font-family:Nimbus Sans L;-inkscape-font-specification:Nimbus Sans L Bold"
     id="flowPara3313">   www.geocaching.com   www.gpsgames.org</flowPara><flowPara
     id="flowPara3288"
     style="font-size:8px;font-style:normal;font-variant:normal;font-weight:normal;font-stretch:normal;text-align:justify;line-height:125%;writing-mode:lr-tb;text-anchor:start;font-family:Nimbus Sans L;-inkscape-font-specification:Nimbus Sans L" /></flowRoot><path
   xml:id="frame3"
   id="frame3"
   style="fill:none;stroke:#231f20;stroke-width:0.49973401;stroke-linecap:butt;stroke-linejoin:miter;stroke-miterlimit:4;stroke-dasharray:none;stroke-opacity:1"
   d="M 82.41144,123.81 L 297.23064,123.81 L 297.23064,420.7908 L 82.41144,420.7908 L 82.41144,123.81 z"
   inkscape:label="#path509" /><path
   id="path563"
   style="fill:#231f20;fill-opacity:1;fill-rule:nonzero;stroke:none"
   d="M 313.6284,404.0412 L 496.6488,404.0412 L 496.6488,404.89104 L 313.6284,404.89104 L 313.6284,404.0412 z" /><image
   y="-373.0744"
   x="314.04721"
   id="image2918"
   height="196.96159"
   width="182.38161"
   sodipodi:absref="/home/rush/rushbase.net/public_html/test/logo2.png"
   xml:id="bglogo2"
   xlink:href="logo2.png"
   transform="scale(1,-1)" /><path
   id="path565"
   style="fill:#231f20;fill-opacity:1;fill-rule:nonzero;stroke:none"
   d="M 313.6284,348.1476 L 496.6488,348.1476 L 496.6488,348.99744 L 313.6284,348.99744 L 313.6284,348.1476 z" /><path
   id="path567"
   style="fill:#231f20;fill-opacity:1;fill-rule:nonzero;stroke:none"
   d="M 313.6284,348.228 L 314.47777,348.228 L 314.47777,404.89092 L 313.6284,404.89092 L 313.6284,348.228 z" /><path
   id="path569"
   style="fill:#231f20;fill-opacity:1;fill-rule:nonzero;stroke:none"
   d="M 495.7992,348.228 L 496.64904,348.228 L 496.64904,404.89092 L 495.7992,404.89092 L 495.7992,348.228 z" /><path
   id="path571"
   style="fill:#231f20;fill-opacity:1;fill-rule:nonzero;stroke:none"
   d="M 313.6284,383.694 L 496.6488,383.694 L 496.6488,384.54337 L 313.6284,384.54337 L 313.6284,383.694 z" /><g
   id="g573"><text
   id="text575"
   transform="matrix(1,0,0,-1,316.781,385.667)"><tspan
     id="tspan577"
     sodipodi:role="line"
     y="0"
     x="0 3.8899317 5.4431057 8.941246 12.439385 14.384352 16.329317 20.21925 22.549011 28.376911 32.266842 33.820019"
     style="font-size:6.99628019px;font-style:oblique;font-variant:normal;writing-mode:lr-tb;fill:#231f20;fill-opacity:1;fill-rule:nonzero;stroke:none;font-family:Helvetica;-inkscape-font-specification:Helvetica-Oblique">nick, e-mail</tspan></text>








</g><path
   id="path579"
   style="fill:#231f20;fill-opacity:1;fill-rule:nonzero;stroke:none"
   d="M 444.4392,383.8404 L 445.28857,383.8404 L 445.28857,404.68944 L 444.4392,404.68944 L 444.4392,383.8404 z" /><g
   id="g581"><text
   id="text583"
   transform="matrix(1,0,0,-1,445.886,385.491)"><tspan
     id="tspan585"
     sodipodi:role="line"
     y="0"
     x="0 3.8899317 7.7798634 9.7248297 13.614761 15.559727 17.504692 19.449659 23.33959 27.229523 29.174488"
     style="font-size:6.99628019px;font-style:oblique;font-variant:normal;writing-mode:lr-tb;fill:#231f20;fill-opacity:1;fill-rule:nonzero;stroke:none;font-family:Helvetica;-inkscape-font-specification:Helvetica-Oblique">data / date</tspan><tspan
     id="tspan587"
     sodipodi:role="line"
     y="33.761299"
     x="-130.84 -126.95007 -121.89876 -118.00882 -114.11889 -112.56572 -110.62075 -108.67578 -106.73082 -102.84089 -98.950958 -97.005989 -93.116058"
     style="font-size:6.99628019px;font-style:oblique;font-variant:normal;writing-mode:lr-tb;fill:#231f20;fill-opacity:1;fill-rule:nonzero;stroke:none;font-family:Helvetica;-inkscape-font-specification:Helvetica-Oblique">uwagi / notes</tspan></text>








</g><path
   id="path589"
   style="fill:#231f20;fill-opacity:1;fill-rule:nonzero;stroke:none"
   d="M 313.6284,264.6504 L 496.6488,264.6504 L 496.6488,265.50024 L 313.6284,265.50024 L 313.6284,264.6504 z" /><path
   id="path591"
   style="fill:#231f20;fill-opacity:1;fill-rule:nonzero;stroke:none"
   d="M 313.6284,208.7568 L 496.6488,208.7568 L 496.6488,209.60664 L 313.6284,209.60664 L 313.6284,208.7568 z" /><path
   id="path593"
   style="fill:#231f20;fill-opacity:1;fill-rule:nonzero;stroke:none"
   d="M 313.6284,208.8384 L 314.47777,208.8384 L 314.47777,265.50132 L 313.6284,265.50132 L 313.6284,208.8384 z" /><path
   id="path595"
   style="fill:#231f20;fill-opacity:1;fill-rule:nonzero;stroke:none"
   d="M 495.7992,208.8384 L 496.64904,208.8384 L 496.64904,265.50132 L 495.7992,265.50132 L 495.7992,208.8384 z" /><path
   id="path597"
   style="fill:#231f20;fill-opacity:1;fill-rule:nonzero;stroke:none"
   d="M 313.6284,244.3032 L 496.6488,244.3032 L 496.6488,245.15257 L 313.6284,245.15257 L 313.6284,244.3032 z" /><g
   id="g599"><text
   id="text601"
   transform="matrix(1,0,0,-1,316.072,246.278)"><tspan
     id="tspan603"
     sodipodi:role="line"
     y="0"
     x="0 3.8899317 5.4431057 8.941246 12.439385 14.384352 16.329317 20.21925 22.549011 28.376911 32.266842 33.820019"
     style="font-size:6.99628019px;font-style:oblique;font-variant:normal;writing-mode:lr-tb;fill:#231f20;fill-opacity:1;fill-rule:nonzero;stroke:none;font-family:Helvetica;-inkscape-font-specification:Helvetica-Oblique">nick, e-mail</tspan></text>








</g><path
   id="path605"
   style="fill:#231f20;fill-opacity:1;fill-rule:nonzero;stroke:none"
   d="M 444.4392,244.4508 L 445.28857,244.4508 L 445.28857,265.29984 L 444.4392,265.29984 L 444.4392,244.4508 z" /><g
   id="g607"><text
   id="text609"
   transform="matrix(1,0,0,-1,445.886,246.101)"><tspan
     id="tspan611"
     sodipodi:role="line"
     y="0"
     x="0 3.8899317 7.7798634 9.7248297 13.614761 15.559727 17.504692 19.449659 23.33959 27.229523 29.174488"
     style="font-size:6.99628019px;font-style:oblique;font-variant:normal;writing-mode:lr-tb;fill:#231f20;fill-opacity:1;fill-rule:nonzero;stroke:none;font-family:Helvetica;-inkscape-font-specification:Helvetica-Oblique">data / date</tspan><tspan
     id="tspan613"
     sodipodi:role="line"
     y="33.762199"
     x="-130.84 -126.95007 -121.89876 -118.00882 -114.11889 -112.56572 -110.62075 -108.67578 -106.73082 -102.84089 -98.950958 -97.005989 -93.116058"
     style="font-size:6.99628019px;font-style:oblique;font-variant:normal;writing-mode:lr-tb;fill:#231f20;fill-opacity:1;fill-rule:nonzero;stroke:none;font-family:Helvetica;-inkscape-font-specification:Helvetica-Oblique">uwagi / notes</tspan></text>








</g><path
   id="path615"
   style="fill:#231f20;fill-opacity:1;fill-rule:nonzero;stroke:none"
   d="M 313.6284,333.78 L 496.6488,333.78 L 496.6488,334.62937 L 313.6284,334.62937 L 313.6284,333.78 z" /><path
   id="path617"
   style="fill:#231f20;fill-opacity:1;fill-rule:nonzero;stroke:none"
   d="M 313.6284,277.8852 L 496.6488,277.8852 L 496.6488,278.73457 L 313.6284,278.73457 L 313.6284,277.8852 z" /><path
   id="path619"
   style="fill:#231f20;fill-opacity:1;fill-rule:nonzero;stroke:none"
   d="M 313.6284,277.9668 L 314.47777,277.9668 L 314.47777,334.62936 L 313.6284,334.62936 L 313.6284,277.9668 z" /><path
   id="path621"
   style="fill:#231f20;fill-opacity:1;fill-rule:nonzero;stroke:none"
   d="M 495.7992,277.9668 L 496.64904,277.9668 L 496.64904,334.62936 L 495.7992,334.62936 L 495.7992,277.9668 z" /><path
   id="path623"
   style="fill:#231f20;fill-opacity:1;fill-rule:nonzero;stroke:none"
   d="M 313.6284,313.4304 L 496.6488,313.4304 L 496.6488,314.28024 L 313.6284,314.28024 L 313.6284,313.4304 z" /><g
   id="g625"><text
   id="text627"
   transform="matrix(1,0,0,-1,316.781,315.406)"><tspan
     id="tspan629"
     sodipodi:role="line"
     y="0"
     x="0 3.8899317 5.4431057 8.941246 12.439385 14.384352 16.329317 20.21925 22.549011 28.376911 32.266842 33.820019"
     style="font-size:6.99628019px;font-style:oblique;font-variant:normal;writing-mode:lr-tb;fill:#231f20;fill-opacity:1;fill-rule:nonzero;stroke:none;font-family:Helvetica;-inkscape-font-specification:Helvetica-Oblique">nick, e-mail</tspan></text>








</g><path
   id="path631"
   style="fill:#231f20;fill-opacity:1;fill-rule:nonzero;stroke:none"
   d="M 444.4392,313.5792 L 445.28857,313.5792 L 445.28857,334.42824 L 444.4392,334.42824 L 444.4392,313.5792 z" /><g
   id="g633"><text
   id="text635"
   transform="matrix(1,0,0,-1,445.886,315.229)"><tspan
     id="tspan637"
     sodipodi:role="line"
     y="0"
     x="0 3.8899317 7.7798634 9.7248297 13.614761 15.559727 17.504692 19.449659 23.33959 27.229523 29.174488"
     style="font-size:6.99628019px;font-style:oblique;font-variant:normal;writing-mode:lr-tb;fill:#231f20;fill-opacity:1;fill-rule:nonzero;stroke:none;font-family:Helvetica;-inkscape-font-specification:Helvetica-Oblique">data / date</tspan><tspan
     id="tspan639"
     sodipodi:role="line"
     y="33.762199"
     x="-130.84 -126.95007 -121.89876 -118.00882 -114.11889 -112.56572 -110.62075 -108.67578 -106.73082 -102.84089 -98.950958 -97.005989 -93.116058"
     style="font-size:6.99628019px;font-style:oblique;font-variant:normal;writing-mode:lr-tb;fill:#231f20;fill-opacity:1;fill-rule:nonzero;stroke:none;font-family:Helvetica;-inkscape-font-specification:Helvetica-Oblique">uwagi / notes</tspan></text>








</g><path
   id="path641"
   style="fill:#231f20;fill-opacity:1;fill-rule:nonzero;stroke:none"
   d="M 313.6284,195.6036 L 496.6488,195.6036 L 496.6488,196.45344 L 313.6284,196.45344 L 313.6284,195.6036 z" /><path
   id="path643"
   style="fill:#231f20;fill-opacity:1;fill-rule:nonzero;stroke:none"
   d="M 313.6284,139.7088 L 496.6488,139.7088 L 496.6488,140.55864 L 313.6284,140.55864 L 313.6284,139.7088 z" /><path
   id="path645"
   style="fill:#231f20;fill-opacity:1;fill-rule:nonzero;stroke:none"
   d="M 313.6284,139.7904 L 314.47777,139.7904 L 314.47777,196.45332 L 313.6284,196.45332 L 313.6284,139.7904 z" /><path
   id="path647"
   style="fill:#231f20;fill-opacity:1;fill-rule:nonzero;stroke:none"
   d="M 495.7992,139.7904 L 496.64904,139.7904 L 496.64904,196.45332 L 495.7992,196.45332 L 495.7992,139.7904 z" /><path
   id="path649"
   style="fill:#231f20;fill-opacity:1;fill-rule:nonzero;stroke:none"
   d="M 313.6284,175.2552 L 496.6488,175.2552 L 496.6488,176.10457 L 313.6284,176.10457 L 313.6284,175.2552 z" /><g
   id="g651"><text
   id="text653"
   transform="matrix(1,0,0,-1,316.072,177.229)"><tspan
     id="tspan655"
     sodipodi:role="line"
     y="0"
     x="0 3.8899317 5.4431057 8.941246 12.439385 14.384352 16.329317 20.21925 22.549011 28.376911 32.266842 33.820019"
     style="font-size:6.99628019px;font-style:oblique;font-variant:normal;writing-mode:lr-tb;fill:#231f20;fill-opacity:1;fill-rule:nonzero;stroke:none;font-family:Helvetica;-inkscape-font-specification:Helvetica-Oblique">nick, e-mail</tspan></text>








</g><path
   id="path657"
   style="fill:#231f20;fill-opacity:1;fill-rule:nonzero;stroke:none"
   d="M 444.4392,175.4016 L 445.28857,175.4016 L 445.28857,196.25064 L 444.4392,196.25064 L 444.4392,175.4016 z" /><g
   id="g659"><text
   id="text661"
   transform="matrix(1,0,0,-1,445.886,177.053)"><tspan
     id="tspan663"
     sodipodi:role="line"
     y="0"
     x="0 3.8899317 7.7798634 9.7248297 13.614761 15.559727 17.504692 19.449659 23.33959 27.229523 29.174488"
     style="font-size:6.99628019px;font-style:oblique;font-variant:normal;writing-mode:lr-tb;fill:#231f20;fill-opacity:1;fill-rule:nonzero;stroke:none;font-family:Helvetica;-inkscape-font-specification:Helvetica-Oblique">data / date</tspan><tspan
     id="tspan665"
     sodipodi:role="line"
     y="33.761299"
     x="-130.84 -126.95007 -121.89876 -118.00882 -114.11889 -112.56572 -110.62075 -108.67578 -106.73082 -102.84089 -98.950958 -97.005989 -93.116058"
     style="font-size:6.99628019px;font-style:oblique;font-variant:normal;writing-mode:lr-tb;fill:#231f20;fill-opacity:1;fill-rule:nonzero;stroke:none;font-family:Helvetica;-inkscape-font-specification:Helvetica-Oblique">uwagi / notes</tspan></text>








</g><path
   xml:id="frame4"
   id="frame4"
   style="fill:none;stroke:#231f20;stroke-width:0.49973401;stroke-linecap:butt;stroke-linejoin:miter;stroke-miterlimit:4;stroke-dasharray:none;stroke-opacity:1"
   d="M 297.7296,123.81 L 512.5488,123.81 L 512.5488,420.7908 L 297.7296,420.7908 L 297.7296,123.81 z"
   inkscape:label="#path667" /><g
   id="g669"><text
   id="text671"
   transform="matrix(1,0,0,-1,538.297,34.8759)"><tspan
     id="tspan673"
     sodipodi:role="line"
     y="0"
     x="0"
     style="font-size:17.99040031px;font-variant:normal;font-weight:normal;writing-mode:lr-tb;fill:#231f20;fill-opacity:1;fill-rule:nonzero;stroke:none;font-family:TimesNewRomanPSMT;-inkscape-font-specification:TimesNewRomanPSMT">N2</tspan></text>








</g><path
   id="path675"
   style="fill:none;stroke:#231f20;stroke-width:0.49973401;stroke-linecap:butt;stroke-linejoin:miter;stroke-miterlimit:4;stroke-dasharray:2.02392, 2.02392;stroke-dashoffset:0;stroke-opacity:1"
   d="M 527.76,421.2564 L 570.258,421.2564" /><path
   id="path677"
   style="fill:none;stroke:#231f20;stroke-width:0.49973401;stroke-linecap:butt;stroke-linejoin:miter;stroke-miterlimit:4;stroke-dasharray:2.02392, 2.02392;stroke-dashoffset:0;stroke-opacity:1"
   d="M 24.64776,421.506 L 67.14516,421.506" /><path
   id="path679"
   style="fill:none;stroke:#231f20;stroke-width:0.49973401;stroke-linecap:butt;stroke-linejoin:miter;stroke-miterlimit:4;stroke-dasharray:2.02392, 2.02392;stroke-dashoffset:0;stroke-opacity:1"
   d="M 24.64776,718.4868 L 67.14516,718.4868" /><path
   id="path681"
   style="fill:none;stroke:#231f20;stroke-width:0.49973401;stroke-linecap:butt;stroke-linejoin:miter;stroke-miterlimit:4;stroke-dasharray:2.02392, 2.02392;stroke-dashoffset:0;stroke-opacity:1"
   d="M 82.3824,733.752 L 82.3824,776.2488" /><path
   id="path683"
   style="fill:none;stroke:#231f20;stroke-width:0.49973401;stroke-linecap:butt;stroke-linejoin:miter;stroke-miterlimit:4;stroke-dasharray:2.02392, 2.02392;stroke-dashoffset:0;stroke-opacity:1"
   d="M 512.5488,776.7204 L 512.5488,734.2224" /><path
   id="path685"
   style="fill:none;stroke:#231f20;stroke-width:0.49973401;stroke-linecap:butt;stroke-linejoin:miter;stroke-miterlimit:4;stroke-dasharray:2.02392, 2.02392;stroke-dashoffset:0;stroke-opacity:1"
   d="M 527.814,718.986 L 570.3108,718.986" /><path
   id="path687"
   style="fill:none;stroke:#231f20;stroke-width:0.49973401;stroke-linecap:butt;stroke-linejoin:miter;stroke-miterlimit:4;stroke-dasharray:2.02392, 2.02392;stroke-dashoffset:0;stroke-opacity:1"
   d="M 82.41144,66.33612 L 82.41144,108.8334" /><path
   id="path691"
   style="fill:none;stroke:#231f20;stroke-width:0.49973401;stroke-linecap:butt;stroke-linejoin:miter;stroke-miterlimit:4;stroke-dasharray:2.02392, 2.02392;stroke-dashoffset:0;stroke-opacity:1"
   d="M 570.3108,124.0464 L 527.814,124.0464" /><path
   id="path693"
   style="fill:none;stroke:#231f20;stroke-width:0.49973401;stroke-linecap:butt;stroke-linejoin:miter;stroke-miterlimit:4;stroke-dasharray:2.02392, 2.02392;stroke-dashoffset:0;stroke-opacity:1"
   d="M 512.5764,108.78144 L 512.5764,66.28404" /><path
   id="path695"
   style="fill:none;stroke:#231f20;stroke-width:0.49973401;stroke-linecap:butt;stroke-linejoin:miter;stroke-miterlimit:4;stroke-dasharray:2.02392, 2.02392;stroke-dashoffset:0;stroke-opacity:1"
   d="M 118.99176,85.28016 L 161.4888,85.28016" /><g
   id="g697"><text
   id="text699"
   transform="matrix(1,0,0,-1,169.988,81.6352)"><tspan
     id="tspan701"
     sodipodi:role="line"
     y="0"
     x="0 5.9967999 9.3310204 16.659111 19.993332 26.661774 29.995993 35.321152 38.655373 45.323814 50.648972 53.983192"
     style="font-size:11.99359989px;font-variant:normal;font-weight:normal;writing-mode:lr-tb;fill:#231f20;fill-opacity:1;fill-rule:nonzero;stroke:none;font-family:FrutigerPl;-inkscape-font-specification:FrutigerPl-Roman">Linie cicia</tspan></text>








</g><path
   id="path703"
   style="fill:none;stroke:#231f20;stroke-width:0.49973401;stroke-linecap:round;stroke-linejoin:round;stroke-miterlimit:4;stroke-dasharray:0, 0.9944712;stroke-dashoffset:0;stroke-opacity:1"
   d="M 297.48,790.0248 L 297.48,816.366" /><path
   id="path705"
   style="fill:none;stroke:#231f20;stroke-width:0.49973401;stroke-linecap:round;stroke-linejoin:round;stroke-miterlimit:4;stroke-dasharray:none;stroke-opacity:1"
   d="M 297.48,789.0324 L 297.48,789.0324 M 297.48,816.8628 L 297.48,816.8628" /><path
   id="path707"
   style="fill:none;stroke:#231f20;stroke-width:0.49973401;stroke-linecap:round;stroke-linejoin:round;stroke-miterlimit:4;stroke-dasharray:0, 0.9944712;stroke-dashoffset:0;stroke-opacity:1"
   d="M 297.48,26.2116 L 297.48,52.55256" /><path
   id="path709"
   style="fill:none;stroke:#231f20;stroke-width:0.49973401;stroke-linecap:round;stroke-linejoin:round;stroke-miterlimit:4;stroke-dasharray:none;stroke-opacity:1"
   d="M 297.48,25.21692 L 297.48,25.21692 M 297.48,53.04936 L 297.48,53.04936" /><path
   id="path711"
   style="fill:none;stroke:#231f20;stroke-width:0.49973401;stroke-linecap:round;stroke-linejoin:round;stroke-miterlimit:4;stroke-dasharray:0, 0.9884748;stroke-dashoffset:0;stroke-opacity:1"
   d="M 119.73048,58.86516 L 160.7448,58.86516" /><path
   id="path713"
   style="fill:none;stroke:#231f20;stroke-width:0.49973401;stroke-linecap:round;stroke-linejoin:round;stroke-miterlimit:4;stroke-dasharray:none;stroke-opacity:1"
   d="M 118.74192,58.86516 L 118.74192,58.86516 M 161.2392,58.86516 L 161.2392,58.86516" /><g
   id="g715"><text
   id="text717"
   transform="matrix(1,0,0,-1,169.988,54.4833)"><tspan
     id="tspan719"
     sodipodi:role="line"
     y="0"
     x="0 8.659379 11.9936 18.662041 21.996262 28.664703 35.992794 42.661236 49.329678 56.657768 59.991985 68.651367 77.310745 81.976257 85.310478 89.97599 94.641495 99.307007"
     style="font-size:11.99359989px;font-variant:normal;font-weight:normal;writing-mode:lr-tb;fill:#ed1c24;fill-opacity:1;fill-rule:nonzero;stroke:none;font-family:FrutigerPl;-inkscape-font-specification:FrutigerPl-Roman">NIE PRZECINAJ !!!!</tspan></text>








</g><text
   transform="scale(1,-1)"
   id="text693"
   x="24.649199"
   y="-30.848152"><tspan
     style="font-size:7.99574995px;font-variant:normal;font-weight:normal;writing-mode:lr-tb;fill:#231f20;fill-opacity:1;fill-rule:nonzero;stroke:none;font-family:TimesNewRomanPSMT;-inkscape-font-specification:TimesNewRomanPSMT"
     sodipodi:role="line"
     id="tspan695"
     x="24.649199"
     y="-30.848152">Original design by </tspan></text>





<text
   transform="scale(1,-1)"
   id="text697"
   x="107.29499"
   y="-30.848152"><tspan
     style="font-size:7.99574995px;font-variant:normal;font-weight:500;writing-mode:lr-tb;fill:#231f20;fill-opacity:1;fill-rule:nonzero;stroke:none;font-family:BankGothicBT;-inkscape-font-specification:BankGothicBT-Medium"
     x="107.29499 113.28378 118.83284 124.03008 126.35684 131.52209 137.21507 144.61913 149.34459 154.06209 159.57115 164.87233 167.1991 172.15648 174.80305 179.95232 185.66928"
     y="-30.848152"
     sodipodi:role="line"
     id="tspan699">AdrianMatusik.com</tspan></text>





<text
   transform="scale(1,-1)"
   id="text2889"
   x="24.649199"
   y="-20.476364"><tspan
     style="font-size:7.99574995px;font-variant:normal;font-weight:normal;writing-mode:lr-tb;fill:#231f20;fill-opacity:1;fill-rule:nonzero;stroke:none;font-family:TimesNewRomanPSMT;-inkscape-font-specification:TimesNewRomanPSMT"
     sodipodi:role="line"
     id="tspan2891"
     x="24.649199"
     y="-20.476364">Revised by</tspan></text>





<text
   transform="scale(1,-1)"
   id="text2893"
   x="107.29499"
   y="-20.476364"><tspan
     style="font-size:7.99574995px;font-variant:normal;font-weight:500;writing-mode:lr-tb;fill:#231f20;fill-opacity:1;fill-rule:nonzero;stroke:none;font-family:BankGothicBT;-inkscape-font-specification:BankGothicBT-Medium"
     sodipodi:role="line"
     id="tspan2895"
     x="107.29499"
     y="-20.476364">rush@rushbase.net / www.rushbase.net</tspan></text>





<text
   style="line-height:125%"
   sodipodi:linespacing="125%"
   transform="scale(1,-1)"
   id="text3160"
   x="98.437317"
   y="-398.66193"><tspan
     y="-398.66193"
     x="98.437317"
     style="font-size:8.75px;font-style:normal;font-variant:normal;font-weight:bold;font-stretch:normal;text-align:start;line-height:125%;writing-mode:lr-tb;text-anchor:start;fill:#231f20;fill-opacity:1;fill-rule:nonzero;stroke:none;font-family:Nimbus Sans L;-inkscape-font-specification:Nimbus Sans L Bold"
     sodipodi:role="line"
     id="tspan3162">If you found this container by accident...:</tspan></text>

<flowRoot
   xml:space="preserve"
   id="flowRoot4015"
   style="font-size:24px;font-style:normal;font-weight:normal;text-align:center;text-anchor:middle;fill:#000000;fill-opacity:1;stroke:none;stroke-width:1px;stroke-linecap:butt;stroke-linejoin:miter;stroke-opacity:1;font-family:Bitstream Vera Sans"
   transform="matrix(1,0,0,-1,-290.4766,1036.7228)"><flowRegion
     id="flowRegion4017"><rect
       id="rect4019"
       width="186.48621"
       height="156.9281"
       x="388.86407"
       y="639.55768" /></flowRegion><flowPara
     id="flowPara4039"
     style="font-size:8px;font-style:normal;font-variant:normal;font-weight:normal;font-stretch:normal;text-align:justify;line-height:125%;writing-mode:lr-tb;text-anchor:start;font-family:Nimbus Sans L;-inkscape-font-specification:Nimbus Sans L">It is part of a worldwide game dedicated to GPS(and not only) users, called Geocaching. The game basically  involves a GPS user hiding treasure (this container and its contents), and publishing the exact coordinates so other GPS users can come on a &quot;treasure hunt&quot; to find it. The only rules are: if you take something from the stash, you must leave something for the stash, and you must write about your visit in the logbook. Hopefully, the person that stashed this container found a good spot that is on public property and is not easily found by uninterested parties. Sometimes a good spot turns out to be a bad spot though. </flowPara></flowRoot><g
   id="g477"
   transform="translate(-144.34582,42.705792)"><text
   id="text479"
   transform="matrix(1,0,0,-1,334.879,214.716)"
   sodipodi:linespacing="125%"
   style="line-height:125%"><tspan
     sodipodi:role="line"
     style="font-size:7.5px;font-style:normal;font-variant:normal;font-weight:bold;font-stretch:normal;text-align:center;line-height:125%;writing-mode:lr-tb;text-anchor:middle;fill:#ed1c24;fill-opacity:1;fill-rule:nonzero;stroke:none;font-family:Nimbus Mono L;-inkscape-font-specification:Nimbus Mono L Bold"
     x="0"
     y="0"
     id="tspan3268">Please do not move</tspan><tspan
     sodipodi:role="line"
     style="font-size:7.5px;font-style:normal;font-variant:normal;font-weight:bold;font-stretch:normal;text-align:center;line-height:125%;writing-mode:lr-tb;text-anchor:middle;fill:#ed1c24;fill-opacity:1;fill-rule:nonzero;stroke:none;font-family:Nimbus Mono L;-inkscape-font-specification:Nimbus Mono L Bold"
     x="0"
     y="9.375"
     id="tspan3272">or vandalize the container.</tspan></text>





















</g></g></svg>