<?xml version="1.0" encoding="UTF-8" standalone="no"?>
<!-- Created with Inkscape (http://www.inkscape.org/) -->
<svg
   xmlns:dc="http://purl.org/dc/elements/1.1/"
   xmlns:cc="http://creativecommons.org/ns#"
   xmlns:rdf="http://www.w3.org/1999/02/22-rdf-syntax-ns#"
   xmlns:svg="http://www.w3.org/2000/svg"
   xmlns="http://www.w3.org/2000/svg"
   xmlns:xlink="http://www.w3.org/1999/xlink"
   xmlns:sodipodi="http://sodipodi.sourceforge.net/DTD/sodipodi-0.dtd"
   xmlns:inkscape="http://www.inkscape.org/namespaces/inkscape"
   id="svg2"
   sodipodi:version="0.32"
   inkscape:version="0.46"
   width="743.75"
   height="1052.5"
   xml:space="preserve"
   sodipodi:docname="Logbook-A7-_dwustronny_by_rushcore_page4.svg"
   inkscape:output_extension="org.inkscape.output.svg.inkscape"><metadata
     id="metadata7"><rdf:RDF><cc:Work
         rdf:about=""><dc:format>image/svg+xml</dc:format><dc:type
           rdf:resource="http://purl.org/dc/dcmitype/StillImage" /></cc:Work></rdf:RDF></metadata><defs
     id="defs5"><inkscape:perspective
       sodipodi:type="inkscape:persp3d"
       inkscape:vp_x="0 : 526.18109 : 1"
       inkscape:vp_y="0 : 1000 : 0"
       inkscape:vp_z="744.09448 : 526.18109 : 1"
       inkscape:persp3d-origin="372.04724 : 350.78739 : 1"
       id="perspective9" /><clipPath
       clipPathUnits="userSpaceOnUse"
       id="clipPath19"><path
         d="M 820.43,3943.98 L 2344.42,3943.98 L 2344.42,5591.03 L 820.43,5591.03 L 820.43,3943.98"
         id="path21" /></clipPath><clipPath
       clipPathUnits="userSpaceOnUse"
       id="clipPath63"><path
         d="M 0,2.66016 L 4958,2.66016 L 4958,7014.68 L 0,7014.68 L 0,2.66016"
         id="path65" /></clipPath><clipPath
       clipPathUnits="userSpaceOnUse"
       id="clipPath177"><path
         d="M 2614.75,3943.98 L 4138.74,3943.98 L 4138.74,5591.03 L 2614.75,5591.03 L 2614.75,3943.98"
         id="path179" /></clipPath><clipPath
       clipPathUnits="userSpaceOnUse"
       id="clipPath221"><path
         d="M 0,2.66016 L 4958,2.66016 L 4958,7014.68 L 0,7014.68 L 0,2.66016"
         id="path223" /></clipPath><clipPath
       clipPathUnits="userSpaceOnUse"
       id="clipPath335"><path
         d="M 820.43,1464.98 L 2344.42,1464.98 L 2344.42,3112.03 L 820.43,3112.03 L 820.43,1464.98"
         id="path337" /></clipPath><clipPath
       clipPathUnits="userSpaceOnUse"
       id="clipPath379"><path
         d="M 0,2.66016 L 4958,2.66016 L 4958,7014.68 L 0,7014.68 L 0,2.66016"
         id="path381" /></clipPath><clipPath
       clipPathUnits="userSpaceOnUse"
       id="clipPath493"><path
         d="M 2614.75,1464.98 L 4138.74,1464.98 L 4138.74,3112.03 L 2614.75,3112.03 L 2614.75,1464.98"
         id="path495" /></clipPath><clipPath
       clipPathUnits="userSpaceOnUse"
       id="clipPath537"><path
         d="M 0,2.66016 L 4958,2.66016 L 4958,7014.68 L 0,7014.68 L 0,2.66016"
         id="path539" /></clipPath></defs><sodipodi:namedview
     inkscape:window-height="673"
     inkscape:window-width="1074"
     inkscape:pageshadow="2"
     inkscape:pageopacity="1"
     guidetolerance="10.0"
     gridtolerance="10.0"
     objecttolerance="10.0"
     borderopacity="1.0"
     bordercolor="#666666"
     pagecolor="#ffffff"
     id="base"
     showgrid="false"
     inkscape:zoom="1.0824912"
     inkscape:cx="435.16128"
     inkscape:cy="763.48212"
     inkscape:window-x="0"
     inkscape:window-y="0"
     inkscape:current-layer="g11" /><g
     id="g11"
     inkscape:groupmode="layer"
     inkscape:label="Logbook-A7-_dwustronny_by_Maciuh"
     transform="matrix(1.25,0,0,-1.25,0,1052.5)"><image
       y="-670.55438"
       x="98.728798"
       id="image4456"
       height="196.96159"
       width="182.38161"
       sodipodi:absref="/home/rush/rushbase.net/public_html/test/logo2.png"
       xml:id="bglogo"
       xlink:href="logo2.png"
       transform="scale(1,-1)" /><g
       id="g4843"
       transform="translate(0,-30.041684)"><path
         d="M 98.30952,701.5212 L 281.33112,701.5212 L 281.33112,702.37057 L 98.30952,702.37057 L 98.30952,701.5212 z"
         style="fill:#231f20;fill-opacity:1;fill-rule:nonzero;stroke:none"
         id="path67" /><path
         d="M 98.30952,645.6276 L 281.33112,645.6276 L 281.33112,646.47697 L 98.30952,646.47697 L 98.30952,645.6276 z"
         style="fill:#231f20;fill-opacity:1;fill-rule:nonzero;stroke:none"
         id="path69" /><path
         d="M 98.30952,645.708 L 99.159364,645.708 L 99.159364,702.37056 L 98.30952,702.37056 L 98.30952,645.708 z"
         style="fill:#231f20;fill-opacity:1;fill-rule:nonzero;stroke:none"
         id="path71" /><path
         d="M 280.4808,645.708 L 281.33064,645.708 L 281.33064,702.37056 L 280.4808,702.37056 L 280.4808,645.708 z"
         style="fill:#231f20;fill-opacity:1;fill-rule:nonzero;stroke:none"
         id="path73" /><path
         d="M 98.30952,681.174 L 281.33112,681.174 L 281.33112,682.02337 L 98.30952,682.02337 L 98.30952,681.174 z"
         style="fill:#231f20;fill-opacity:1;fill-rule:nonzero;stroke:none"
         id="path75" /><g
         id="g77"><text
   transform="matrix(1,0,0,-1,101.462,683.147)"
   id="text79"><tspan
     style="font-size:6.99628019px;font-style:oblique;font-variant:normal;writing-mode:lr-tb;fill:#231f20;fill-opacity:1;fill-rule:nonzero;stroke:none;font-family:Helvetica;-inkscape-font-specification:Helvetica-Oblique"
     x="0 3.8899317 5.4431057 8.941246 12.439385 14.384352 16.329317 20.21925 22.549011 28.376911 32.266842 33.820019"
     y="0"
     sodipodi:role="line"
     id="tspan81">nick, e-mail</tspan></text>






</g><path
         d="M 229.1208,681.3204 L 229.97017,681.3204 L 229.97017,702.16944 L 229.1208,702.16944 L 229.1208,681.3204 z"
         style="fill:#231f20;fill-opacity:1;fill-rule:nonzero;stroke:none"
         id="path83" /><g
         id="g85"><text
   transform="matrix(1,0,0,-1,230.567,682.97)"
   id="text87"><tspan
     style="font-size:6.99628019px;font-style:oblique;font-variant:normal;writing-mode:lr-tb;fill:#231f20;fill-opacity:1;fill-rule:nonzero;stroke:none;font-family:Helvetica;-inkscape-font-specification:Helvetica-Oblique"
     x="0 3.8899317 7.7798634 9.7248297 13.614761 15.559727 17.504692 19.449659 23.33959 27.229523 29.174488"
     y="0"
     sodipodi:role="line"
     id="tspan89">data / date</tspan><tspan
     style="font-size:6.99628019px;font-style:oblique;font-variant:normal;writing-mode:lr-tb;fill:#231f20;fill-opacity:1;fill-rule:nonzero;stroke:none;font-family:Helvetica;-inkscape-font-specification:Helvetica-Oblique"
     x="-130.841 -126.95107 -121.89976 -118.00982 -114.11989 -112.56672 -110.62175 -108.67679 -106.73182 -102.84189 -98.951958 -97.006989 -93.117058"
     y="33.760799"
     sodipodi:role="line"
     id="tspan91">uwagi / notes</tspan></text>






</g></g><g
       id="g4873"
       transform="translate(0,-69.048)"><path
         d="M 98.30952,562.1304 L 281.33112,562.1304 L 281.33112,562.97977 L 98.30952,562.97977 L 98.30952,562.1304 z"
         style="fill:#231f20;fill-opacity:1;fill-rule:nonzero;stroke:none"
         id="path93" /><path
         d="M 98.30952,506.2368 L 281.33112,506.2368 L 281.33112,507.08617 L 98.30952,507.08617 L 98.30952,506.2368 z"
         style="fill:#231f20;fill-opacity:1;fill-rule:nonzero;stroke:none"
         id="path95" /><path
         d="M 98.30952,506.3184 L 99.159364,506.3184 L 99.159364,562.98132 L 98.30952,562.98132 L 98.30952,506.3184 z"
         style="fill:#231f20;fill-opacity:1;fill-rule:nonzero;stroke:none"
         id="path97" /><path
         d="M 280.4808,506.3184 L 281.33064,506.3184 L 281.33064,562.98132 L 280.4808,562.98132 L 280.4808,506.3184 z"
         style="fill:#231f20;fill-opacity:1;fill-rule:nonzero;stroke:none"
         id="path99" /><path
         d="M 98.30952,541.782 L 281.33112,541.782 L 281.33112,542.63184 L 98.30952,542.63184 L 98.30952,541.782 z"
         style="fill:#231f20;fill-opacity:1;fill-rule:nonzero;stroke:none"
         id="path101" /><g
         id="g103"><text
   transform="matrix(1,0,0,-1,100.754,543.758)"
   id="text105"><tspan
     style="font-size:6.99628019px;font-style:oblique;font-variant:normal;writing-mode:lr-tb;fill:#231f20;fill-opacity:1;fill-rule:nonzero;stroke:none;font-family:Helvetica;-inkscape-font-specification:Helvetica-Oblique"
     x="0 3.8899317 5.4431057 8.941246 12.439385 14.384352 16.329317 20.21925 22.549011 28.376911 32.266842 33.820019"
     y="0"
     sodipodi:role="line"
     id="tspan107">nick, e-mail</tspan></text>






</g><path
         d="M 229.1208,541.9308 L 229.97017,541.9308 L 229.97017,562.77984 L 229.1208,562.77984 L 229.1208,541.9308 z"
         style="fill:#231f20;fill-opacity:1;fill-rule:nonzero;stroke:none"
         id="path109" /><g
         id="g111"><text
   transform="matrix(1,0,0,-1,230.567,543.58)"
   id="text113"><tspan
     style="font-size:6.99628019px;font-style:oblique;font-variant:normal;writing-mode:lr-tb;fill:#231f20;fill-opacity:1;fill-rule:nonzero;stroke:none;font-family:Helvetica;-inkscape-font-specification:Helvetica-Oblique"
     x="0 3.8899317 7.7798634 9.7248297 13.614761 15.559727 17.504692 19.449659 23.33959 27.229523 29.174488"
     y="0"
     sodipodi:role="line"
     id="tspan115">data / date</tspan><tspan
     style="font-size:6.99628019px;font-style:oblique;font-variant:normal;writing-mode:lr-tb;fill:#231f20;fill-opacity:1;fill-rule:nonzero;stroke:none;font-family:Helvetica;-inkscape-font-specification:Helvetica-Oblique"
     x="-130.841 -126.95107 -121.89976 -118.00982 -114.11989 -112.56672 -110.62175 -108.67679 -106.73182 -102.84189 -98.951958 -97.006989 -93.117058"
     y="33.762199"
     sodipodi:role="line"
     id="tspan117">uwagi / notes</tspan></text>






</g></g><g
       id="g4858"
       transform="translate(0,-49.736864)"><path
         d="M 98.30952,631.26 L 281.33112,631.26 L 281.33112,632.10984 L 98.30952,632.10984 L 98.30952,631.26 z"
         style="fill:#231f20;fill-opacity:1;fill-rule:nonzero;stroke:none"
         id="path119" /><path
         d="M 98.30952,575.3652 L 281.33112,575.3652 L 281.33112,576.21504 L 98.30952,576.21504 L 98.30952,575.3652 z"
         style="fill:#231f20;fill-opacity:1;fill-rule:nonzero;stroke:none"
         id="path121" /><path
         d="M 98.30952,575.4468 L 99.159364,575.4468 L 99.159364,632.10972 L 98.30952,632.10972 L 98.30952,575.4468 z"
         style="fill:#231f20;fill-opacity:1;fill-rule:nonzero;stroke:none"
         id="path123" /><path
         d="M 280.4808,575.4468 L 281.33064,575.4468 L 281.33064,632.10972 L 280.4808,632.10972 L 280.4808,575.4468 z"
         style="fill:#231f20;fill-opacity:1;fill-rule:nonzero;stroke:none"
         id="path125" /><path
         d="M 98.30952,610.9104 L 281.33112,610.9104 L 281.33112,611.75977 L 98.30952,611.75977 L 98.30952,610.9104 z"
         style="fill:#231f20;fill-opacity:1;fill-rule:nonzero;stroke:none"
         id="path127" /><g
         id="g129"><text
   transform="matrix(1,0,0,-1,101.462,612.885)"
   id="text131"><tspan
     style="font-size:6.99628019px;font-style:oblique;font-variant:normal;writing-mode:lr-tb;fill:#231f20;fill-opacity:1;fill-rule:nonzero;stroke:none;font-family:Helvetica;-inkscape-font-specification:Helvetica-Oblique"
     x="0 3.8899317 5.4431057 8.941246 12.439385 14.384352 16.329317 20.21925 22.549011 28.376911 32.266842 33.820019"
     y="0"
     sodipodi:role="line"
     id="tspan133">nick, e-mail</tspan></text>






</g><path
         d="M 229.1208,611.058 L 229.97017,611.058 L 229.97017,631.90704 L 229.1208,631.90704 L 229.1208,611.058 z"
         style="fill:#231f20;fill-opacity:1;fill-rule:nonzero;stroke:none"
         id="path135" /><g
         id="g137"><text
   transform="matrix(1,0,0,-1,230.567,612.709)"
   id="text139"><tspan
     style="font-size:6.99628019px;font-style:oblique;font-variant:normal;writing-mode:lr-tb;fill:#231f20;fill-opacity:1;fill-rule:nonzero;stroke:none;font-family:Helvetica;-inkscape-font-specification:Helvetica-Oblique"
     x="0 3.8899317 7.7798634 9.7248297 13.614761 15.559727 17.504692 19.449659 23.33959 27.229523 29.174488"
     y="0"
     sodipodi:role="line"
     id="tspan141">data / date</tspan><tspan
     style="font-size:6.99628019px;font-style:oblique;font-variant:normal;writing-mode:lr-tb;fill:#231f20;fill-opacity:1;fill-rule:nonzero;stroke:none;font-family:Helvetica;-inkscape-font-specification:Helvetica-Oblique"
     x="-130.841 -126.95107 -121.89976 -118.00982 -114.11989 -112.56672 -110.62175 -108.67679 -106.73182 -102.84189 -98.951958 -97.006989 -93.117058"
     y="33.762199"
     sodipodi:role="line"
     id="tspan143">uwagi / notes</tspan></text>






</g></g><path
       xml:id="frame1"
       id="frame1"
       style="fill:none;stroke:#231f20;stroke-width:0.49973401;stroke-linecap:butt;stroke-linejoin:miter;stroke-miterlimit:4;stroke-dasharray:none;stroke-opacity:1"
       d="M 82.41144,421.29 L 297.23064,421.29 L 297.23064,718.2696 L 82.41144,718.2696 L 82.41144,421.29 z"
       inkscape:label="#path171" /><path
       id="path225"
       style="fill:#231f20;fill-opacity:1;fill-rule:nonzero;stroke:none"
       d="M 313.6284,701.5212 L 496.6488,701.5212 L 496.6488,702.37057 L 313.6284,702.37057 L 313.6284,701.5212 z" /><image
       y="-670.55438"
       x="314.04721"
       id="image2914"
       height="196.96159"
       width="182.38161"
       sodipodi:absref="/home/rush/rushbase.net/public_html/test/logo2.png"
       xml:id="bglogo2"
       xlink:href="logo2.png"
       transform="scale(1,-1)" /><path
       id="path227"
       style="fill:#231f20;fill-opacity:1;fill-rule:nonzero;stroke:none"
       d="M 313.6284,645.6276 L 496.6488,645.6276 L 496.6488,646.47697 L 313.6284,646.47697 L 313.6284,645.6276 z" /><path
       id="path229"
       style="fill:#231f20;fill-opacity:1;fill-rule:nonzero;stroke:none"
       d="M 313.6284,645.708 L 314.47777,645.708 L 314.47777,702.37056 L 313.6284,702.37056 L 313.6284,645.708 z" /><path
       id="path231"
       style="fill:#231f20;fill-opacity:1;fill-rule:nonzero;stroke:none"
       d="M 495.7992,645.708 L 496.64904,645.708 L 496.64904,702.37056 L 495.7992,702.37056 L 495.7992,645.708 z" /><path
       id="path233"
       style="fill:#231f20;fill-opacity:1;fill-rule:nonzero;stroke:none"
       d="M 313.6284,681.174 L 496.6488,681.174 L 496.6488,682.02337 L 313.6284,682.02337 L 313.6284,681.174 z" /><g
       id="g235"><text
   id="text237"
   transform="matrix(1,0,0,-1,316.781,683.147)"><tspan
     id="tspan239"
     sodipodi:role="line"
     y="0"
     x="0 3.8899317 5.4431057 8.941246 12.439385 14.384352 16.329317 20.21925 22.549011 28.376911 32.266842 33.820019"
     style="font-size:6.99628019px;font-style:oblique;font-variant:normal;writing-mode:lr-tb;fill:#231f20;fill-opacity:1;fill-rule:nonzero;stroke:none;font-family:Helvetica;-inkscape-font-specification:Helvetica-Oblique">nick, e-mail</tspan></text>






</g><path
       id="path241"
       style="fill:#231f20;fill-opacity:1;fill-rule:nonzero;stroke:none"
       d="M 444.4392,681.3204 L 445.28857,681.3204 L 445.28857,702.16944 L 444.4392,702.16944 L 444.4392,681.3204 z" /><g
       id="g243"><text
   id="text245"
   transform="matrix(1,0,0,-1,445.886,682.97)"><tspan
     id="tspan247"
     sodipodi:role="line"
     y="0"
     x="0 3.8899317 7.7798634 9.7248297 13.614761 15.559727 17.504692 19.449659 23.33959 27.229523 29.174488"
     style="font-size:6.99628019px;font-style:oblique;font-variant:normal;writing-mode:lr-tb;fill:#231f20;fill-opacity:1;fill-rule:nonzero;stroke:none;font-family:Helvetica;-inkscape-font-specification:Helvetica-Oblique">data / date</tspan><tspan
     id="tspan249"
     sodipodi:role="line"
     y="33.760799"
     x="-130.84 -126.95007 -121.89876 -118.00882 -114.11889 -112.56572 -110.62075 -108.67578 -106.73082 -102.84089 -98.950958 -97.005989 -93.116058"
     style="font-size:6.99628019px;font-style:oblique;font-variant:normal;writing-mode:lr-tb;fill:#231f20;fill-opacity:1;fill-rule:nonzero;stroke:none;font-family:Helvetica;-inkscape-font-specification:Helvetica-Oblique">uwagi / notes</tspan></text>






</g><path
       id="path251"
       style="fill:#231f20;fill-opacity:1;fill-rule:nonzero;stroke:none"
       d="M 313.6284,562.1304 L 496.6488,562.1304 L 496.6488,562.97977 L 313.6284,562.97977 L 313.6284,562.1304 z" /><path
       id="path253"
       style="fill:#231f20;fill-opacity:1;fill-rule:nonzero;stroke:none"
       d="M 313.6284,506.2368 L 496.6488,506.2368 L 496.6488,507.08617 L 313.6284,507.08617 L 313.6284,506.2368 z" /><path
       id="path255"
       style="fill:#231f20;fill-opacity:1;fill-rule:nonzero;stroke:none"
       d="M 313.6284,506.3184 L 314.47777,506.3184 L 314.47777,562.98132 L 313.6284,562.98132 L 313.6284,506.3184 z" /><path
       id="path257"
       style="fill:#231f20;fill-opacity:1;fill-rule:nonzero;stroke:none"
       d="M 495.7992,506.3184 L 496.64904,506.3184 L 496.64904,562.98132 L 495.7992,562.98132 L 495.7992,506.3184 z" /><path
       id="path259"
       style="fill:#231f20;fill-opacity:1;fill-rule:nonzero;stroke:none"
       d="M 313.6284,541.782 L 496.6488,541.782 L 496.6488,542.63184 L 313.6284,542.63184 L 313.6284,541.782 z" /><g
       id="g261"><text
   id="text263"
   transform="matrix(1,0,0,-1,316.072,543.758)"><tspan
     id="tspan265"
     sodipodi:role="line"
     y="0"
     x="0 3.8899317 5.4431057 8.941246 12.439385 14.384352 16.329317 20.21925 22.549011 28.376911 32.266842 33.820019"
     style="font-size:6.99628019px;font-style:oblique;font-variant:normal;writing-mode:lr-tb;fill:#231f20;fill-opacity:1;fill-rule:nonzero;stroke:none;font-family:Helvetica;-inkscape-font-specification:Helvetica-Oblique">nick, e-mail</tspan></text>






</g><path
       id="path267"
       style="fill:#231f20;fill-opacity:1;fill-rule:nonzero;stroke:none"
       d="M 444.4392,541.9308 L 445.28857,541.9308 L 445.28857,562.77984 L 444.4392,562.77984 L 444.4392,541.9308 z" /><g
       id="g269"><text
   id="text271"
   transform="matrix(1,0,0,-1,445.886,543.58)"><tspan
     id="tspan273"
     sodipodi:role="line"
     y="0"
     x="0 3.8899317 7.7798634 9.7248297 13.614761 15.559727 17.504692 19.449659 23.33959 27.229523 29.174488"
     style="font-size:6.99628019px;font-style:oblique;font-variant:normal;writing-mode:lr-tb;fill:#231f20;fill-opacity:1;fill-rule:nonzero;stroke:none;font-family:Helvetica;-inkscape-font-specification:Helvetica-Oblique">data / date</tspan><tspan
     id="tspan275"
     sodipodi:role="line"
     y="33.762199"
     x="-130.84 -126.95007 -121.89876 -118.00882 -114.11889 -112.56572 -110.62075 -108.67578 -106.73082 -102.84089 -98.950958 -97.005989 -93.116058"
     style="font-size:6.99628019px;font-style:oblique;font-variant:normal;writing-mode:lr-tb;fill:#231f20;fill-opacity:1;fill-rule:nonzero;stroke:none;font-family:Helvetica;-inkscape-font-specification:Helvetica-Oblique">uwagi / notes</tspan></text>






</g><path
       id="path277"
       style="fill:#231f20;fill-opacity:1;fill-rule:nonzero;stroke:none"
       d="M 313.6284,631.26 L 496.6488,631.26 L 496.6488,632.10984 L 313.6284,632.10984 L 313.6284,631.26 z" /><path
       id="path279"
       style="fill:#231f20;fill-opacity:1;fill-rule:nonzero;stroke:none"
       d="M 313.6284,575.3652 L 496.6488,575.3652 L 496.6488,576.21504 L 313.6284,576.21504 L 313.6284,575.3652 z" /><path
       id="path281"
       style="fill:#231f20;fill-opacity:1;fill-rule:nonzero;stroke:none"
       d="M 313.6284,575.4468 L 314.47777,575.4468 L 314.47777,632.10972 L 313.6284,632.10972 L 313.6284,575.4468 z" /><path
       id="path283"
       style="fill:#231f20;fill-opacity:1;fill-rule:nonzero;stroke:none"
       d="M 495.7992,575.4468 L 496.64904,575.4468 L 496.64904,632.10972 L 495.7992,632.10972 L 495.7992,575.4468 z" /><path
       id="path285"
       style="fill:#231f20;fill-opacity:1;fill-rule:nonzero;stroke:none"
       d="M 313.6284,610.9104 L 496.6488,610.9104 L 496.6488,611.75977 L 313.6284,611.75977 L 313.6284,610.9104 z" /><g
       id="g287"><text
   id="text289"
   transform="matrix(1,0,0,-1,316.781,612.885)"><tspan
     id="tspan291"
     sodipodi:role="line"
     y="0"
     x="0 3.8899317 5.4431057 8.941246 12.439385 14.384352 16.329317 20.21925 22.549011 28.376911 32.266842 33.820019"
     style="font-size:6.99628019px;font-style:oblique;font-variant:normal;writing-mode:lr-tb;fill:#231f20;fill-opacity:1;fill-rule:nonzero;stroke:none;font-family:Helvetica;-inkscape-font-specification:Helvetica-Oblique">nick, e-mail</tspan></text>






</g><path
       id="path293"
       style="fill:#231f20;fill-opacity:1;fill-rule:nonzero;stroke:none"
       d="M 444.4392,611.058 L 445.28857,611.058 L 445.28857,631.90704 L 444.4392,631.90704 L 444.4392,611.058 z" /><g
       id="g295"><text
   id="text297"
   transform="matrix(1,0,0,-1,445.886,612.709)"><tspan
     id="tspan299"
     sodipodi:role="line"
     y="0"
     x="0 3.8899317 7.7798634 9.7248297 13.614761 15.559727 17.504692 19.449659 23.33959 27.229523 29.174488"
     style="font-size:6.99628019px;font-style:oblique;font-variant:normal;writing-mode:lr-tb;fill:#231f20;fill-opacity:1;fill-rule:nonzero;stroke:none;font-family:Helvetica;-inkscape-font-specification:Helvetica-Oblique">data / date</tspan><tspan
     id="tspan301"
     sodipodi:role="line"
     y="33.762199"
     x="-130.84 -126.95007 -121.89876 -118.00882 -114.11889 -112.56572 -110.62075 -108.67578 -106.73082 -102.84089 -98.950958 -97.005989 -93.116058"
     style="font-size:6.99628019px;font-style:oblique;font-variant:normal;writing-mode:lr-tb;fill:#231f20;fill-opacity:1;fill-rule:nonzero;stroke:none;font-family:Helvetica;-inkscape-font-specification:Helvetica-Oblique">uwagi / notes</tspan></text>






</g><g
       id="g5155"><path
         d="M 313.6284,493.0836 L 496.6488,493.0836 L 496.6488,493.93297 L 313.6284,493.93297 L 313.6284,493.0836 z"
         style="fill:#231f20;fill-opacity:1;fill-rule:nonzero;stroke:none"
         id="path303" /><path
         d="M 313.6284,437.1888 L 496.6488,437.1888 L 496.6488,438.03817 L 313.6284,438.03817 L 313.6284,437.1888 z"
         style="fill:#231f20;fill-opacity:1;fill-rule:nonzero;stroke:none"
         id="path305" /><path
         d="M 313.6284,437.2692 L 314.47777,437.2692 L 314.47777,493.93212 L 313.6284,493.93212 L 313.6284,437.2692 z"
         style="fill:#231f20;fill-opacity:1;fill-rule:nonzero;stroke:none"
         id="path307" /><path
         d="M 495.7992,437.2692 L 496.64904,437.2692 L 496.64904,493.93212 L 495.7992,493.93212 L 495.7992,437.2692 z"
         style="fill:#231f20;fill-opacity:1;fill-rule:nonzero;stroke:none"
         id="path309" /><path
         d="M 313.6284,472.7352 L 496.6488,472.7352 L 496.6488,473.58504 L 313.6284,473.58504 L 313.6284,472.7352 z"
         style="fill:#231f20;fill-opacity:1;fill-rule:nonzero;stroke:none"
         id="path311" /><g
         id="g313"><text
   transform="matrix(1,0,0,-1,316.072,474.709)"
   id="text315"><tspan
     style="font-size:6.99628019px;font-style:oblique;font-variant:normal;writing-mode:lr-tb;fill:#231f20;fill-opacity:1;fill-rule:nonzero;stroke:none;font-family:Helvetica;-inkscape-font-specification:Helvetica-Oblique"
     x="0 3.8899317 5.4431057 8.941246 12.439385 14.384352 16.329317 20.21925 22.549011 28.376911 32.266842 33.820019"
     y="0"
     sodipodi:role="line"
     id="tspan317">nick, e-mail</tspan></text>






</g><path
         d="M 444.4392,472.8816 L 445.28857,472.8816 L 445.28857,493.73064 L 444.4392,493.73064 L 444.4392,472.8816 z"
         style="fill:#231f20;fill-opacity:1;fill-rule:nonzero;stroke:none"
         id="path319" /><g
         id="g321"><text
   transform="matrix(1,0,0,-1,445.886,474.532)"
   id="text323"><tspan
     style="font-size:6.99628019px;font-style:oblique;font-variant:normal;writing-mode:lr-tb;fill:#231f20;fill-opacity:1;fill-rule:nonzero;stroke:none;font-family:Helvetica;-inkscape-font-specification:Helvetica-Oblique"
     x="0 3.8899317 7.7798634 9.7248297 13.614761 15.559727 17.504692 19.449659 23.33959 27.229523 29.174488"
     y="0"
     sodipodi:role="line"
     id="tspan325">data / date</tspan><tspan
     style="font-size:6.99628019px;font-style:oblique;font-variant:normal;writing-mode:lr-tb;fill:#231f20;fill-opacity:1;fill-rule:nonzero;stroke:none;font-family:Helvetica;-inkscape-font-specification:Helvetica-Oblique"
     x="-130.84 -126.95007 -121.89876 -118.00882 -114.11889 -112.56572 -110.62075 -108.67578 -106.73082 -102.84089 -98.950958 -97.005989 -93.116058"
     y="33.760799"
     sodipodi:role="line"
     id="tspan327">uwagi / notes</tspan></text>






</g></g><path
       xml:id="frame2"
       id="frame2"
       style="fill:none;stroke:#231f20;stroke-width:0.49973401;stroke-linecap:butt;stroke-linejoin:miter;stroke-miterlimit:4;stroke-dasharray:none;stroke-opacity:1"
       d="M 297.7296,421.29 L 512.5488,421.29 L 512.5488,718.2696 L 297.7296,718.2696 L 297.7296,421.29 z"
       inkscape:label="#path329" /><image
       y="-373.0744"
       x="98.728798"
       id="image4459"
       height="196.96159"
       width="182.38161"
       sodipodi:absref="/home/rush/rushbase.net/public_html/test/logo2.png"
       xml:id="bglogo3"
       xlink:href="logo2.png"
       transform="scale(1,-1)" /><path
       id="path383"
       style="fill:#231f20;fill-opacity:1;fill-rule:nonzero;stroke:none"
       d="M 98.30952,404.0412 L 281.33112,404.0412 L 281.33112,404.89104 L 98.30952,404.89104 L 98.30952,404.0412 z" /><path
       id="path385"
       style="fill:#231f20;fill-opacity:1;fill-rule:nonzero;stroke:none"
       d="M 98.30952,348.1476 L 281.33112,348.1476 L 281.33112,348.99744 L 98.30952,348.99744 L 98.30952,348.1476 z" /><path
       id="path387"
       style="fill:#231f20;fill-opacity:1;fill-rule:nonzero;stroke:none"
       d="M 98.30952,348.2292 L 99.159364,348.2292 L 99.159364,404.89212 L 98.30952,404.89212 L 98.30952,348.2292 z" /><path
       id="path389"
       style="fill:#231f20;fill-opacity:1;fill-rule:nonzero;stroke:none"
       d="M 280.4808,348.2292 L 281.33064,348.2292 L 281.33064,404.89212 L 280.4808,404.89212 L 280.4808,348.2292 z" /><path
       id="path391"
       style="fill:#231f20;fill-opacity:1;fill-rule:nonzero;stroke:none"
       d="M 98.30952,383.694 L 281.33112,383.694 L 281.33112,384.54337 L 98.30952,384.54337 L 98.30952,383.694 z" /><g
       id="g393"><text
   id="text395"
   transform="matrix(1,0,0,-1,101.462,385.668)"><tspan
     id="tspan397"
     sodipodi:role="line"
     y="0"
     x="0 3.8899317 5.4431057 8.941246 12.439385 14.384352 16.329317 20.21925 22.549011 28.376911 32.266842 33.820019"
     style="font-size:6.99628019px;font-style:oblique;font-variant:normal;writing-mode:lr-tb;fill:#231f20;fill-opacity:1;fill-rule:nonzero;stroke:none;font-family:Helvetica;-inkscape-font-specification:Helvetica-Oblique">nick, e-mail</tspan></text>






</g><path
       id="path399"
       style="fill:#231f20;fill-opacity:1;fill-rule:nonzero;stroke:none"
       d="M 229.1208,383.8404 L 229.97017,383.8404 L 229.97017,404.68944 L 229.1208,404.68944 L 229.1208,383.8404 z" /><g
       id="g401"><text
   id="text403"
   transform="matrix(1,0,0,-1,230.567,385.491)"><tspan
     id="tspan405"
     sodipodi:role="line"
     y="0"
     x="0 3.8899317 7.7798634 9.7248297 13.614761 15.559727 17.504692 19.449659 23.33959 27.229523 29.174488"
     style="font-size:6.99628019px;font-style:oblique;font-variant:normal;writing-mode:lr-tb;fill:#231f20;fill-opacity:1;fill-rule:nonzero;stroke:none;font-family:Helvetica;-inkscape-font-specification:Helvetica-Oblique">data / date</tspan><tspan
     id="tspan407"
     sodipodi:role="line"
     y="33.761299"
     x="-130.841 -126.95107 -121.89976 -118.00982 -114.11989 -112.56672 -110.62175 -108.67679 -106.73182 -102.84189 -98.951958 -97.006989 -93.117058"
     style="font-size:6.99628019px;font-style:oblique;font-variant:normal;writing-mode:lr-tb;fill:#231f20;fill-opacity:1;fill-rule:nonzero;stroke:none;font-family:Helvetica;-inkscape-font-specification:Helvetica-Oblique">uwagi / notes</tspan></text>






</g><path
       id="path409"
       style="fill:#231f20;fill-opacity:1;fill-rule:nonzero;stroke:none"
       d="M 98.30952,264.6516 L 281.33112,264.6516 L 281.33112,265.50144 L 98.30952,265.50144 L 98.30952,264.6516 z" /><path
       id="path411"
       style="fill:#231f20;fill-opacity:1;fill-rule:nonzero;stroke:none"
       d="M 98.30952,208.7568 L 281.33112,208.7568 L 281.33112,209.60664 L 98.30952,209.60664 L 98.30952,208.7568 z" /><path
       id="path413"
       style="fill:#231f20;fill-opacity:1;fill-rule:nonzero;stroke:none"
       d="M 98.30952,208.8384 L 99.159364,208.8384 L 99.159364,265.50132 L 98.30952,265.50132 L 98.30952,208.8384 z" /><path
       id="path415"
       style="fill:#231f20;fill-opacity:1;fill-rule:nonzero;stroke:none"
       d="M 280.4808,208.8384 L 281.33064,208.8384 L 281.33064,265.50132 L 280.4808,265.50132 L 280.4808,208.8384 z" /><path
       id="path417"
       style="fill:#231f20;fill-opacity:1;fill-rule:nonzero;stroke:none"
       d="M 98.30952,244.3032 L 281.33112,244.3032 L 281.33112,245.15257 L 98.30952,245.15257 L 98.30952,244.3032 z" /><g
       id="g419"><text
   id="text421"
   transform="matrix(1,0,0,-1,100.754,246.278)"><tspan
     id="tspan423"
     sodipodi:role="line"
     y="0"
     x="0 3.8899317 5.4431057 8.941246 12.439385 14.384352 16.329317 20.21925 22.549011 28.376911 32.266842 33.820019"
     style="font-size:6.99628019px;font-style:oblique;font-variant:normal;writing-mode:lr-tb;fill:#231f20;fill-opacity:1;fill-rule:nonzero;stroke:none;font-family:Helvetica;-inkscape-font-specification:Helvetica-Oblique">nick, e-mail</tspan></text>






</g><path
       id="path425"
       style="fill:#231f20;fill-opacity:1;fill-rule:nonzero;stroke:none"
       d="M 229.1208,244.4508 L 229.97017,244.4508 L 229.97017,265.29984 L 229.1208,265.29984 L 229.1208,244.4508 z" /><g
       id="g427"><text
   id="text429"
   transform="matrix(1,0,0,-1,230.567,246.101)"><tspan
     id="tspan431"
     sodipodi:role="line"
     y="0"
     x="0 3.8899317 7.7798634 9.7248297 13.614761 15.559727 17.504692 19.449659 23.33959 27.229523 29.174488"
     style="font-size:6.99628019px;font-style:oblique;font-variant:normal;writing-mode:lr-tb;fill:#231f20;fill-opacity:1;fill-rule:nonzero;stroke:none;font-family:Helvetica;-inkscape-font-specification:Helvetica-Oblique">data / date</tspan><tspan
     id="tspan433"
     sodipodi:role="line"
     y="33.762199"
     x="-130.841 -126.95107 -121.89976 -118.00982 -114.11989 -112.56672 -110.62175 -108.67679 -106.73182 -102.84189 -98.951958 -97.006989 -93.117058"
     style="font-size:6.99628019px;font-style:oblique;font-variant:normal;writing-mode:lr-tb;fill:#231f20;fill-opacity:1;fill-rule:nonzero;stroke:none;font-family:Helvetica;-inkscape-font-specification:Helvetica-Oblique">uwagi / notes</tspan></text>






</g><path
       id="path435"
       style="fill:#231f20;fill-opacity:1;fill-rule:nonzero;stroke:none"
       d="M 98.30952,333.78 L 281.33112,333.78 L 281.33112,334.62937 L 98.30952,334.62937 L 98.30952,333.78 z" /><path
       id="path437"
       style="fill:#231f20;fill-opacity:1;fill-rule:nonzero;stroke:none"
       d="M 98.30952,277.8852 L 281.33112,277.8852 L 281.33112,278.73457 L 98.30952,278.73457 L 98.30952,277.8852 z" /><path
       id="path439"
       style="fill:#231f20;fill-opacity:1;fill-rule:nonzero;stroke:none"
       d="M 98.30952,277.9668 L 99.159364,277.9668 L 99.159364,334.62936 L 98.30952,334.62936 L 98.30952,277.9668 z" /><path
       id="path441"
       style="fill:#231f20;fill-opacity:1;fill-rule:nonzero;stroke:none"
       d="M 280.4808,277.9668 L 281.33064,277.9668 L 281.33064,334.62936 L 280.4808,334.62936 L 280.4808,277.9668 z" /><path
       id="path443"
       style="fill:#231f20;fill-opacity:1;fill-rule:nonzero;stroke:none"
       d="M 98.30952,313.4316 L 281.33112,313.4316 L 281.33112,314.28144 L 98.30952,314.28144 L 98.30952,313.4316 z" /><g
       id="g445"><text
   id="text447"
   transform="matrix(1,0,0,-1,101.462,315.406)"><tspan
     id="tspan449"
     sodipodi:role="line"
     y="0"
     x="0 3.8899317 5.4431057 8.941246 12.439385 14.384352 16.329317 20.21925 22.549011 28.376911 32.266842 33.820019"
     style="font-size:6.99628019px;font-style:oblique;font-variant:normal;writing-mode:lr-tb;fill:#231f20;fill-opacity:1;fill-rule:nonzero;stroke:none;font-family:Helvetica;-inkscape-font-specification:Helvetica-Oblique">nick, e-mail</tspan></text>






</g><path
       id="path451"
       style="fill:#231f20;fill-opacity:1;fill-rule:nonzero;stroke:none"
       d="M 229.1208,313.5792 L 229.97017,313.5792 L 229.97017,334.42824 L 229.1208,334.42824 L 229.1208,313.5792 z" /><g
       id="g453"><text
   id="text455"
   transform="matrix(1,0,0,-1,230.567,315.229)"><tspan
     id="tspan457"
     sodipodi:role="line"
     y="0"
     x="0 3.8899317 7.7798634 9.7248297 13.614761 15.559727 17.504692 19.449659 23.33959 27.229523 29.174488"
     style="font-size:6.99628019px;font-style:oblique;font-variant:normal;writing-mode:lr-tb;fill:#231f20;fill-opacity:1;fill-rule:nonzero;stroke:none;font-family:Helvetica;-inkscape-font-specification:Helvetica-Oblique">data / date</tspan><tspan
     id="tspan459"
     sodipodi:role="line"
     y="33.760799"
     x="-130.841 -126.95107 -121.89976 -118.00982 -114.11989 -112.56672 -110.62175 -108.67679 -106.73182 -102.84189 -98.951958 -97.006989 -93.117058"
     style="font-size:6.99628019px;font-style:oblique;font-variant:normal;writing-mode:lr-tb;fill:#231f20;fill-opacity:1;fill-rule:nonzero;stroke:none;font-family:Helvetica;-inkscape-font-specification:Helvetica-Oblique">uwagi / notes</tspan></text>






</g><path
       id="path461"
       style="fill:#231f20;fill-opacity:1;fill-rule:nonzero;stroke:none"
       d="M 98.30952,195.6036 L 281.33112,195.6036 L 281.33112,196.45344 L 98.30952,196.45344 L 98.30952,195.6036 z" /><path
       id="path463"
       style="fill:#231f20;fill-opacity:1;fill-rule:nonzero;stroke:none"
       d="M 98.30952,139.71 L 281.33112,139.71 L 281.33112,140.55984 L 98.30952,140.55984 L 98.30952,139.71 z" /><path
       id="path465"
       style="fill:#231f20;fill-opacity:1;fill-rule:nonzero;stroke:none"
       d="M 98.30952,139.7916 L 99.159364,139.7916 L 99.159364,196.45452 L 98.30952,196.45452 L 98.30952,139.7916 z" /><path
       id="path467"
       style="fill:#231f20;fill-opacity:1;fill-rule:nonzero;stroke:none"
       d="M 280.4808,139.7916 L 281.33064,139.7916 L 281.33064,196.45452 L 280.4808,196.45452 L 280.4808,139.7916 z" /><path
       id="path469"
       style="fill:#231f20;fill-opacity:1;fill-rule:nonzero;stroke:none"
       d="M 98.30952,175.2552 L 281.33112,175.2552 L 281.33112,176.10457 L 98.30952,176.10457 L 98.30952,175.2552 z" /><g
       id="g471"><text
   id="text473"
   transform="matrix(1,0,0,-1,100.754,177.23)"><tspan
     id="tspan475"
     sodipodi:role="line"
     y="0"
     x="0 3.8899317 5.4431057 8.941246 12.439385 14.384352 16.329317 20.21925 22.549011 28.376911 32.266842 33.820019"
     style="font-size:6.99628019px;font-style:oblique;font-variant:normal;writing-mode:lr-tb;fill:#231f20;fill-opacity:1;fill-rule:nonzero;stroke:none;font-family:Helvetica;-inkscape-font-specification:Helvetica-Oblique">nick, e-mail</tspan></text>






</g><path
       id="path477"
       style="fill:#231f20;fill-opacity:1;fill-rule:nonzero;stroke:none"
       d="M 229.1208,175.4028 L 229.97017,175.4028 L 229.97017,196.25184 L 229.1208,196.25184 L 229.1208,175.4028 z" /><g
       id="g479"><text
   id="text481"
   transform="matrix(1,0,0,-1,230.567,177.053)"><tspan
     id="tspan483"
     sodipodi:role="line"
     y="0"
     x="0 3.8899317 7.7798634 9.7248297 13.614761 15.559727 17.504692 19.449659 23.33959 27.229523 29.174488"
     style="font-size:6.99628019px;font-style:oblique;font-variant:normal;writing-mode:lr-tb;fill:#231f20;fill-opacity:1;fill-rule:nonzero;stroke:none;font-family:Helvetica;-inkscape-font-specification:Helvetica-Oblique">data / date</tspan><tspan
     id="tspan485"
     sodipodi:role="line"
     y="33.761299"
     x="-130.841 -126.95107 -121.89976 -118.00982 -114.11989 -112.56672 -110.62175 -108.67679 -106.73182 -102.84189 -98.951958 -97.006989 -93.117058"
     style="font-size:6.99628019px;font-style:oblique;font-variant:normal;writing-mode:lr-tb;fill:#231f20;fill-opacity:1;fill-rule:nonzero;stroke:none;font-family:Helvetica;-inkscape-font-specification:Helvetica-Oblique">uwagi / notes</tspan></text>






</g><path
       xml:id="frame3"
       id="frame3"
       style="fill:none;stroke:#231f20;stroke-width:0.49973401;stroke-linecap:butt;stroke-linejoin:miter;stroke-miterlimit:4;stroke-dasharray:none;stroke-opacity:1"
       d="M 82.41144,123.81 L 297.23064,123.81 L 297.23064,420.7908 L 82.41144,420.7908 L 82.41144,123.81 z"
       inkscape:label="#path487" /><image
       y="-373.0744"
       x="314.04721"
       id="image2918"
       height="196.96159"
       width="182.38161"
       sodipodi:absref="/home/rush/rushbase.net/public_html/test/logo2.png"
       xml:id="bglogo4"
       xlink:href="logo2.png"
       transform="scale(1,-1)" /><path
       id="path541"
       style="fill:#231f20;fill-opacity:1;fill-rule:nonzero;stroke:none"
       d="M 313.6284,404.0412 L 496.6488,404.0412 L 496.6488,404.89104 L 313.6284,404.89104 L 313.6284,404.0412 z" /><path
       id="path543"
       style="fill:#231f20;fill-opacity:1;fill-rule:nonzero;stroke:none"
       d="M 313.6284,348.1476 L 496.6488,348.1476 L 496.6488,348.99744 L 313.6284,348.99744 L 313.6284,348.1476 z" /><path
       id="path545"
       style="fill:#231f20;fill-opacity:1;fill-rule:nonzero;stroke:none"
       d="M 313.6284,348.2292 L 314.47777,348.2292 L 314.47777,404.89212 L 313.6284,404.89212 L 313.6284,348.2292 z" /><path
       id="path547"
       style="fill:#231f20;fill-opacity:1;fill-rule:nonzero;stroke:none"
       d="M 495.7992,348.2292 L 496.64904,348.2292 L 496.64904,404.89212 L 495.7992,404.89212 L 495.7992,348.2292 z" /><path
       id="path549"
       style="fill:#231f20;fill-opacity:1;fill-rule:nonzero;stroke:none"
       d="M 313.6284,383.694 L 496.6488,383.694 L 496.6488,384.54337 L 313.6284,384.54337 L 313.6284,383.694 z" /><g
       id="g551"><text
   id="text553"
   transform="matrix(1,0,0,-1,316.781,385.668)"><tspan
     id="tspan555"
     sodipodi:role="line"
     y="0"
     x="0 3.8899317 5.4431057 8.941246 12.439385 14.384352 16.329317 20.21925 22.549011 28.376911 32.266842 33.820019"
     style="font-size:6.99628019px;font-style:oblique;font-variant:normal;writing-mode:lr-tb;fill:#231f20;fill-opacity:1;fill-rule:nonzero;stroke:none;font-family:Helvetica;-inkscape-font-specification:Helvetica-Oblique">nick, e-mail</tspan></text>






</g><path
       id="path557"
       style="fill:#231f20;fill-opacity:1;fill-rule:nonzero;stroke:none"
       d="M 444.4392,383.8404 L 445.28857,383.8404 L 445.28857,404.68944 L 444.4392,404.68944 L 444.4392,383.8404 z" /><g
       id="g559"><text
   id="text561"
   transform="matrix(1,0,0,-1,445.886,385.491)"><tspan
     id="tspan563"
     sodipodi:role="line"
     y="0"
     x="0 3.8899317 7.7798634 9.7248297 13.614761 15.559727 17.504692 19.449659 23.33959 27.229523 29.174488"
     style="font-size:6.99628019px;font-style:oblique;font-variant:normal;writing-mode:lr-tb;fill:#231f20;fill-opacity:1;fill-rule:nonzero;stroke:none;font-family:Helvetica;-inkscape-font-specification:Helvetica-Oblique">data / date</tspan><tspan
     id="tspan565"
     sodipodi:role="line"
     y="33.761299"
     x="-130.841 -126.95107 -121.89976 -118.00982 -114.11989 -112.56672 -110.62175 -108.67679 -106.73182 -102.84189 -98.951958 -97.006989 -93.117058"
     style="font-size:6.99628019px;font-style:oblique;font-variant:normal;writing-mode:lr-tb;fill:#231f20;fill-opacity:1;fill-rule:nonzero;stroke:none;font-family:Helvetica;-inkscape-font-specification:Helvetica-Oblique">uwagi / notes</tspan></text>






</g><path
       id="path567"
       style="fill:#231f20;fill-opacity:1;fill-rule:nonzero;stroke:none"
       d="M 313.6284,264.6516 L 496.6488,264.6516 L 496.6488,265.50144 L 313.6284,265.50144 L 313.6284,264.6516 z" /><path
       id="path569"
       style="fill:#231f20;fill-opacity:1;fill-rule:nonzero;stroke:none"
       d="M 313.6284,208.7568 L 496.6488,208.7568 L 496.6488,209.60664 L 313.6284,209.60664 L 313.6284,208.7568 z" /><path
       id="path571"
       style="fill:#231f20;fill-opacity:1;fill-rule:nonzero;stroke:none"
       d="M 313.6284,208.8384 L 314.47777,208.8384 L 314.47777,265.50132 L 313.6284,265.50132 L 313.6284,208.8384 z" /><path
       id="path573"
       style="fill:#231f20;fill-opacity:1;fill-rule:nonzero;stroke:none"
       d="M 495.7992,208.8384 L 496.64904,208.8384 L 496.64904,265.50132 L 495.7992,265.50132 L 495.7992,208.8384 z" /><path
       id="path575"
       style="fill:#231f20;fill-opacity:1;fill-rule:nonzero;stroke:none"
       d="M 313.6284,244.3032 L 496.6488,244.3032 L 496.6488,245.15257 L 313.6284,245.15257 L 313.6284,244.3032 z" /><g
       id="g577"><text
   id="text579"
   transform="matrix(1,0,0,-1,316.072,246.278)"><tspan
     id="tspan581"
     sodipodi:role="line"
     y="0"
     x="0 3.8899317 5.4431057 8.941246 12.439385 14.384352 16.329317 20.21925 22.549011 28.376911 32.266842 33.820019"
     style="font-size:6.99628019px;font-style:oblique;font-variant:normal;writing-mode:lr-tb;fill:#231f20;fill-opacity:1;fill-rule:nonzero;stroke:none;font-family:Helvetica;-inkscape-font-specification:Helvetica-Oblique">nick, e-mail</tspan></text>






</g><path
       id="path583"
       style="fill:#231f20;fill-opacity:1;fill-rule:nonzero;stroke:none"
       d="M 444.4392,244.4508 L 445.28857,244.4508 L 445.28857,265.29984 L 444.4392,265.29984 L 444.4392,244.4508 z" /><g
       id="g585"><text
   id="text587"
   transform="matrix(1,0,0,-1,445.886,246.101)"><tspan
     id="tspan589"
     sodipodi:role="line"
     y="0"
     x="0 3.8899317 7.7798634 9.7248297 13.614761 15.559727 17.504692 19.449659 23.33959 27.229523 29.174488"
     style="font-size:6.99628019px;font-style:oblique;font-variant:normal;writing-mode:lr-tb;fill:#231f20;fill-opacity:1;fill-rule:nonzero;stroke:none;font-family:Helvetica;-inkscape-font-specification:Helvetica-Oblique">data / date</tspan><tspan
     id="tspan591"
     sodipodi:role="line"
     y="33.762199"
     x="-130.841 -126.95107 -121.89976 -118.00982 -114.11989 -112.56672 -110.62175 -108.67679 -106.73182 -102.84189 -98.951958 -97.006989 -93.117058"
     style="font-size:6.99628019px;font-style:oblique;font-variant:normal;writing-mode:lr-tb;fill:#231f20;fill-opacity:1;fill-rule:nonzero;stroke:none;font-family:Helvetica;-inkscape-font-specification:Helvetica-Oblique">uwagi / notes</tspan></text>






</g><path
       id="path593"
       style="fill:#231f20;fill-opacity:1;fill-rule:nonzero;stroke:none"
       d="M 313.6284,333.78 L 496.6488,333.78 L 496.6488,334.62937 L 313.6284,334.62937 L 313.6284,333.78 z" /><path
       id="path595"
       style="fill:#231f20;fill-opacity:1;fill-rule:nonzero;stroke:none"
       d="M 313.6284,277.8852 L 496.6488,277.8852 L 496.6488,278.73457 L 313.6284,278.73457 L 313.6284,277.8852 z" /><path
       id="path597"
       style="fill:#231f20;fill-opacity:1;fill-rule:nonzero;stroke:none"
       d="M 313.6284,277.9668 L 314.47777,277.9668 L 314.47777,334.62936 L 313.6284,334.62936 L 313.6284,277.9668 z" /><path
       id="path599"
       style="fill:#231f20;fill-opacity:1;fill-rule:nonzero;stroke:none"
       d="M 495.7992,277.9668 L 496.64904,277.9668 L 496.64904,334.62936 L 495.7992,334.62936 L 495.7992,277.9668 z" /><path
       id="path601"
       style="fill:#231f20;fill-opacity:1;fill-rule:nonzero;stroke:none"
       d="M 313.6284,313.4316 L 496.6488,313.4316 L 496.6488,314.28144 L 313.6284,314.28144 L 313.6284,313.4316 z" /><g
       id="g603"><text
   id="text605"
   transform="matrix(1,0,0,-1,316.781,315.406)"><tspan
     id="tspan607"
     sodipodi:role="line"
     y="0"
     x="0 3.8899317 5.4431057 8.941246 12.439385 14.384352 16.329317 20.21925 22.549011 28.376911 32.266842 33.820019"
     style="font-size:6.99628019px;font-style:oblique;font-variant:normal;writing-mode:lr-tb;fill:#231f20;fill-opacity:1;fill-rule:nonzero;stroke:none;font-family:Helvetica;-inkscape-font-specification:Helvetica-Oblique">nick, e-mail</tspan></text>






</g><path
       id="path609"
       style="fill:#231f20;fill-opacity:1;fill-rule:nonzero;stroke:none"
       d="M 444.4392,313.5792 L 445.28857,313.5792 L 445.28857,334.42824 L 444.4392,334.42824 L 444.4392,313.5792 z" /><g
       id="g611"><text
   id="text613"
   transform="matrix(1,0,0,-1,445.886,315.229)"><tspan
     id="tspan615"
     sodipodi:role="line"
     y="0"
     x="0 3.8899317 7.7798634 9.7248297 13.614761 15.559727 17.504692 19.449659 23.33959 27.229523 29.174488"
     style="font-size:6.99628019px;font-style:oblique;font-variant:normal;writing-mode:lr-tb;fill:#231f20;fill-opacity:1;fill-rule:nonzero;stroke:none;font-family:Helvetica;-inkscape-font-specification:Helvetica-Oblique">data / date</tspan><tspan
     id="tspan617"
     sodipodi:role="line"
     y="33.760799"
     x="-130.841 -126.95107 -121.89976 -118.00982 -114.11989 -112.56672 -110.62175 -108.67679 -106.73182 -102.84189 -98.951958 -97.006989 -93.117058"
     style="font-size:6.99628019px;font-style:oblique;font-variant:normal;writing-mode:lr-tb;fill:#231f20;fill-opacity:1;fill-rule:nonzero;stroke:none;font-family:Helvetica;-inkscape-font-specification:Helvetica-Oblique">uwagi / notes</tspan></text>






</g><path
       id="path619"
       style="fill:#231f20;fill-opacity:1;fill-rule:nonzero;stroke:none"
       d="M 313.6284,195.6036 L 496.6488,195.6036 L 496.6488,196.45344 L 313.6284,196.45344 L 313.6284,195.6036 z" /><path
       id="path621"
       style="fill:#231f20;fill-opacity:1;fill-rule:nonzero;stroke:none"
       d="M 313.6284,139.71 L 496.6488,139.71 L 496.6488,140.55984 L 313.6284,140.55984 L 313.6284,139.71 z" /><path
       id="path623"
       style="fill:#231f20;fill-opacity:1;fill-rule:nonzero;stroke:none"
       d="M 313.6284,139.7916 L 314.47777,139.7916 L 314.47777,196.45452 L 313.6284,196.45452 L 313.6284,139.7916 z" /><path
       id="path625"
       style="fill:#231f20;fill-opacity:1;fill-rule:nonzero;stroke:none"
       d="M 495.7992,139.7916 L 496.64904,139.7916 L 496.64904,196.45452 L 495.7992,196.45452 L 495.7992,139.7916 z" /><path
       id="path627"
       style="fill:#231f20;fill-opacity:1;fill-rule:nonzero;stroke:none"
       d="M 313.6284,175.2552 L 496.6488,175.2552 L 496.6488,176.10457 L 313.6284,176.10457 L 313.6284,175.2552 z" /><g
       id="g629"><text
   id="text631"
   transform="matrix(1,0,0,-1,316.072,177.23)"><tspan
     id="tspan633"
     sodipodi:role="line"
     y="0"
     x="0 3.8899317 5.4431057 8.941246 12.439385 14.384352 16.329317 20.21925 22.549011 28.376911 32.266842 33.820019"
     style="font-size:6.99628019px;font-style:oblique;font-variant:normal;writing-mode:lr-tb;fill:#231f20;fill-opacity:1;fill-rule:nonzero;stroke:none;font-family:Helvetica;-inkscape-font-specification:Helvetica-Oblique">nick, e-mail</tspan></text>






</g><path
       id="path635"
       style="fill:#231f20;fill-opacity:1;fill-rule:nonzero;stroke:none"
       d="M 444.4392,175.4028 L 445.28857,175.4028 L 445.28857,196.25184 L 444.4392,196.25184 L 444.4392,175.4028 z" /><g
       id="g637"><text
   id="text639"
   transform="matrix(1,0,0,-1,445.886,177.053)"><tspan
     id="tspan641"
     sodipodi:role="line"
     y="0"
     x="0 3.8899317 7.7798634 9.7248297 13.614761 15.559727 17.504692 19.449659 23.33959 27.229523 29.174488"
     style="font-size:6.99628019px;font-style:oblique;font-variant:normal;writing-mode:lr-tb;fill:#231f20;fill-opacity:1;fill-rule:nonzero;stroke:none;font-family:Helvetica;-inkscape-font-specification:Helvetica-Oblique">data / date</tspan><tspan
     id="tspan643"
     sodipodi:role="line"
     y="33.761299"
     x="-130.841 -126.95107 -121.89976 -118.00982 -114.11989 -112.56672 -110.62175 -108.67679 -106.73182 -102.84189 -98.951958 -97.006989 -93.117058"
     style="font-size:6.99628019px;font-style:oblique;font-variant:normal;writing-mode:lr-tb;fill:#231f20;fill-opacity:1;fill-rule:nonzero;stroke:none;font-family:Helvetica;-inkscape-font-specification:Helvetica-Oblique">uwagi / notes</tspan></text>






</g><path
       xml:id="frame4"
       id="frame4"
       style="fill:none;stroke:#231f20;stroke-width:0.49973401;stroke-linecap:butt;stroke-linejoin:miter;stroke-miterlimit:4;stroke-dasharray:none;stroke-opacity:1"
       d="M 297.7296,123.81 L 512.5488,123.81 L 512.5488,420.7908 L 297.7296,420.7908 L 297.7296,123.81 z"
       inkscape:label="#path645" /><g
       id="g647"><text
   id="text649"
   transform="matrix(1,0,0,-1,543.018,34.8759)"><tspan
     id="tspan651"
     sodipodi:role="line"
     y="0"
     x="0 12.989069"
     style="font-size:17.99040031px;font-variant:normal;font-weight:normal;writing-mode:lr-tb;fill:#231f20;fill-opacity:1;fill-rule:nonzero;stroke:none;font-family:TimesNewRomanPSMT;-inkscape-font-specification:TimesNewRomanPSMT">N4</tspan></text>






</g><path
       id="path653"
       style="fill:none;stroke:#231f20;stroke-width:0.49973401;stroke-linecap:butt;stroke-linejoin:miter;stroke-miterlimit:4;stroke-dasharray:2.02392, 2.02392;stroke-dashoffset:0;stroke-opacity:1"
       d="M 527.76,421.0404 L 570.258,421.0404" /><path
       id="path655"
       style="fill:none;stroke:#231f20;stroke-width:0.49973401;stroke-linecap:butt;stroke-linejoin:miter;stroke-miterlimit:4;stroke-dasharray:2.02392, 2.02392;stroke-dashoffset:0;stroke-opacity:1"
       d="M 24.64776,421.29 L 67.14516,421.29" /><path
       id="path657"
       style="fill:none;stroke:#231f20;stroke-width:0.49973401;stroke-linecap:butt;stroke-linejoin:miter;stroke-miterlimit:4;stroke-dasharray:2.02392, 2.02392;stroke-dashoffset:0;stroke-opacity:1"
       d="M 24.64776,718.2708 L 67.14516,718.2708" /><path
       id="path659"
       style="fill:none;stroke:#231f20;stroke-width:0.49973401;stroke-linecap:butt;stroke-linejoin:miter;stroke-miterlimit:4;stroke-dasharray:2.02392, 2.02392;stroke-dashoffset:0;stroke-opacity:1"
       d="M 82.3824,733.536 L 82.3824,776.0328" /><path
       id="path661"
       style="fill:none;stroke:#231f20;stroke-width:0.49973401;stroke-linecap:butt;stroke-linejoin:miter;stroke-miterlimit:4;stroke-dasharray:2.02392, 2.02392;stroke-dashoffset:0;stroke-opacity:1"
       d="M 512.5488,776.5044 L 512.5488,734.0076" /><path
       id="path663"
       style="fill:none;stroke:#231f20;stroke-width:0.49973401;stroke-linecap:butt;stroke-linejoin:miter;stroke-miterlimit:4;stroke-dasharray:2.02392, 2.02392;stroke-dashoffset:0;stroke-opacity:1"
       d="M 527.814,718.77 L 570.3108,718.77" /><path
       id="path665"
       style="fill:none;stroke:#231f20;stroke-width:0.49973401;stroke-linecap:butt;stroke-linejoin:miter;stroke-miterlimit:4;stroke-dasharray:2.02392, 2.02392;stroke-dashoffset:0;stroke-opacity:1"
       d="M 82.41144,66.12048 L 82.41144,108.61692" /><path
       id="path667"
       style="fill:none;stroke:#231f20;stroke-width:0.49973401;stroke-linecap:butt;stroke-linejoin:miter;stroke-miterlimit:4;stroke-dasharray:2.02392, 2.02392;stroke-dashoffset:0;stroke-opacity:1"
       d="M 67.14516,123.8544 L 24.64776,123.8544" /><path
       id="path669"
       style="fill:none;stroke:#231f20;stroke-width:0.49973401;stroke-linecap:butt;stroke-linejoin:miter;stroke-miterlimit:4;stroke-dasharray:2.02392, 2.02392;stroke-dashoffset:0;stroke-opacity:1"
       d="M 570.3108,123.8304 L 527.814,123.8304" /><path
       id="path671"
       style="fill:none;stroke:#231f20;stroke-width:0.49973401;stroke-linecap:butt;stroke-linejoin:miter;stroke-miterlimit:4;stroke-dasharray:2.02392, 2.02392;stroke-dashoffset:0;stroke-opacity:1"
       d="M 512.5764,108.56484 L 512.5764,66.0684" /><path
       id="path673"
       style="fill:none;stroke:#231f20;stroke-width:0.49973401;stroke-linecap:butt;stroke-linejoin:miter;stroke-miterlimit:4;stroke-dasharray:2.02392, 2.02392;stroke-dashoffset:0;stroke-opacity:1"
       d="M 118.99176,85.06404 L 161.4888,85.06404" /><g
       id="g675"><text
   id="text677"
   transform="matrix(1,0,0,-1,169.988,81.4181)"><tspan
     id="tspan679"
     sodipodi:role="line"
     y="0"
     x="0 5.9967999 9.3310204 16.659111 19.993332 26.661774 29.995993 35.321152 38.655373 45.323814 50.648972 53.983192"
     style="font-size:11.99359989px;font-variant:normal;font-weight:normal;writing-mode:lr-tb;fill:#231f20;fill-opacity:1;fill-rule:nonzero;stroke:none;font-family:FrutigerPl;-inkscape-font-specification:FrutigerPl-Roman">Linie cicia</tspan></text>






</g><path
       id="path681"
       style="fill:none;stroke:#231f20;stroke-width:0.49973401;stroke-linecap:round;stroke-linejoin:round;stroke-miterlimit:4;stroke-dasharray:0, 0.9944712;stroke-dashoffset:0;stroke-opacity:1"
       d="M 297.48,789.81 L 297.48,816.15" /><path
       id="path683"
       style="fill:none;stroke:#231f20;stroke-width:0.49973401;stroke-linecap:round;stroke-linejoin:round;stroke-miterlimit:4;stroke-dasharray:none;stroke-opacity:1"
       d="M 297.48,788.8152 L 297.48,788.8152 M 297.48,816.6468 L 297.48,816.6468" /><path
       id="path685"
       style="fill:none;stroke:#231f20;stroke-width:0.49973401;stroke-linecap:round;stroke-linejoin:round;stroke-miterlimit:4;stroke-dasharray:0, 0.9944712;stroke-dashoffset:0;stroke-opacity:1"
       d="M 297.48,25.99548 L 297.48,52.33548" /><path
       id="path687"
       style="fill:none;stroke:#231f20;stroke-width:0.49973401;stroke-linecap:round;stroke-linejoin:round;stroke-miterlimit:4;stroke-dasharray:none;stroke-opacity:1"
       d="M 297.48,25.00128 L 297.48,25.00128 M 297.48,52.83324 L 297.48,52.83324" /><path
       id="path689"
       style="fill:none;stroke:#231f20;stroke-width:0.49973401;stroke-linecap:round;stroke-linejoin:round;stroke-miterlimit:4;stroke-dasharray:0, 0.9884748;stroke-dashoffset:0;stroke-opacity:1"
       d="M 119.73048,58.64808 L 160.7448,58.64808" /><path
       id="path691"
       style="fill:none;stroke:#231f20;stroke-width:0.49973401;stroke-linecap:round;stroke-linejoin:round;stroke-miterlimit:4;stroke-dasharray:none;stroke-opacity:1"
       d="M 118.74192,58.64808 L 118.74192,58.64808 M 161.2392,58.64808 L 161.2392,58.64808" /><g
       id="g693"><text
   id="text695"
   transform="matrix(1,0,0,-1,169.988,54.2677)"><tspan
     id="tspan697"
     sodipodi:role="line"
     y="0"
     x="0 8.659379 11.9936 18.662041 21.996262 28.664703 35.992794 42.661236 49.329678 56.657768 59.991985 68.651367 77.310745 81.976257 85.310478 89.97599 94.641495 99.307007"
     style="font-size:11.99359989px;font-variant:normal;font-weight:normal;writing-mode:lr-tb;fill:#ed1c24;fill-opacity:1;fill-rule:nonzero;stroke:none;font-family:FrutigerPl;-inkscape-font-specification:FrutigerPl-Roman">NIE PRZECINAJ !!!!</tspan></text>






</g><g
       id="g699"><text
   id="text701"
   transform="matrix(1,0,0,-1,24.6483,25.545)"><tspan
     id="tspan703"
     sodipodi:role="line"
     y="0"
     x="0 5.7729316 9.3230448 12.433392 14.65621 18.654085 22.65196 24.650898 28.648773 32.646648"
     style="font-size:7.99574995px;font-variant:normal;font-weight:normal;writing-mode:lr-tb;fill:#231f20;fill-opacity:1;fill-rule:nonzero;stroke:none;font-family:TimesNewRomanPSMT;-inkscape-font-specification:TimesNewRomanPSMT">Design by </tspan></text>






<text
   id="text705"
   transform="matrix(1,0,0,-1,59.2941,25.545)"><tspan
     id="tspan707"
     sodipodi:role="line"
     y="0"
     x="0 5.9887881 11.537839 16.735077 19.06184 24.227095 29.920067 37.324131 42.049591 46.767082 52.276154 57.577335 59.904099 64.861465 67.508057 72.657318 78.374283"
     style="font-size:7.99574995px;font-variant:normal;font-weight:500;writing-mode:lr-tb;fill:#231f20;fill-opacity:1;fill-rule:nonzero;stroke:none;font-family:BankGothicBT;-inkscape-font-specification:BankGothicBT-Medium">AdrianMatusik.com</tspan></text>






</g><g
       id="g5228"
       transform="matrix(0.8039371,0,0,0.8039371,163.90861,137.23051)"><g
         id="g5029"><path
   id="path50936"
   d="M -49.516491,675.59588 C -50.620925,675.30012 -51.799429,675.20502 -52.872035,674.83925 C -51.055368,676.3969 -51.159072,678.80707 -49.947028,680.64165 C -49.560934,681.16109 -49.241808,681.70555 -48.791749,682.19845 C -49.529001,680.71953 -49.209271,678.80076 -50.056244,677.36559 C -50.382278,676.79551 -50.848556,676.24244 -51.364187,675.79468 C -51.195711,675.80098 -51.048265,675.94683 -50.90011,676.04423 C -49.524401,677.41704 -47.727151,677.80094 -46.239029,678.91628 C -45.642911,679.39127 -45.096953,680.01371 -44.834885,680.6869 C -45.116475,678.40926 -47.382402,676.27447 -49.516491,675.59588 L -49.516491,675.59588 z"
   style="fill:#808000;stroke:#000000;stroke-width:0.1809707;stroke-miterlimit:4;stroke-dasharray:none;stroke-opacity:1" /><path
   id="path50938"
   d="M -44.560405,684.81764 C -45.233495,683.85986 -46.047728,682.96824 -46.669566,681.99484 C -46.600193,682.76553 -46.508901,683.7132 -46.809109,684.44325 C -47.329347,686.01537 -47.786411,687.61161 -47.933865,689.33697 L -47.913543,689.99676 C -47.522043,688.23474 -45.791164,687.0235 -45.90038,685.04707 C -45.86074,684.56808 -46.008887,684.16087 -46.09858,683.73963 L -46.068848,683.7085 L -45.990873,683.79589 C -45.734211,684.76538 -45.604674,685.78483 -45.205565,686.68936 C -44.63838,687.991 -43.930159,689.30464 -44.218755,690.87626 C -43.356067,689.02335 -43.617434,686.54771 -44.560405,684.81764 L -44.560405,684.81764 z"
   style="fill:#808000;stroke:#000000;stroke-width:0.1809707;stroke-miterlimit:4;stroke-dasharray:none;stroke-opacity:1" /><path
   id="path50940"
   d="M -45.622793,694.80038 C -44.487828,693.26225 -44.239076,690.81109 -45.06572,689.04678 C -45.373838,688.29911 -45.591463,687.50239 -45.712487,686.67484 C -45.770247,686.81759 -45.783458,687.00949 -45.835012,687.16855 C -46.286473,688.89553 -47.919749,690.12629 -48.591437,691.75451 C -48.804462,692.28695 -48.986043,692.83712 -49.086746,693.41511 C -48.369009,692.08765 -46.600193,691.40199 -46.118103,689.93909 C -45.920596,689.56911 -45.93171,689.10684 -45.809186,688.70903 C -45.783458,688.70903 -45.75773,688.72815 -45.75773,688.75428 C -45.969948,690.26122 -45.905183,691.8384 -45.700671,693.32662 C -45.712487,694.13275 -45.791164,694.9147 -46.239029,695.53869 C -45.951828,695.37137 -45.822502,695.04999 -45.622793,694.80038 L -45.622793,694.80038 z"
   style="fill:#808000;stroke:#000000;stroke-width:0.1809707;stroke-miterlimit:4;stroke-dasharray:none;stroke-opacity:1" /><path
   id="path50942"
   d="M -46.423016,695.09564 C -46.124912,693.7478 -46.560357,692.43515 -46.286473,691.07436 L -46.296683,691.06265 C -47.029939,692.50453 -48.586633,693.18502 -49.657731,694.33906 C -50.278468,695.02387 -50.548348,695.85847 -50.703606,696.74217 C -50.089874,695.26256 -48.433781,694.93652 -47.483006,693.6897 C -47.164875,693.40225 -47.061073,693.00404 -46.855958,692.67806 L -46.822425,692.71044 C -47.369183,693.87763 -47.552371,695.19119 -47.933865,696.43601 C -48.124864,696.97542 -48.503952,697.50541 -49.012571,697.84551 C -47.764491,697.59044 -46.682784,696.28746 -46.423016,695.09564 L -46.423016,695.09564 z"
   style="fill:#808000;stroke:#000000;stroke-width:0.1809707;stroke-miterlimit:4;stroke-dasharray:none;stroke-opacity:1" /><path
   id="path50944"
   d="M -49.759836,698.18676 C -48.819874,697.34549 -48.394737,696.25622 -48.120257,695.12762 L -47.964999,694.7692 C -49.329299,695.75041 -50.56867,697.06941 -51.439863,698.46244 L -52.503857,699.53885 C -51.568495,699.14224 -50.560059,698.9055 -49.759836,698.18676 L -49.759836,698.18676 z"
   style="fill:#808000;stroke:#000000;stroke-width:0.1809707;stroke-miterlimit:4;stroke-dasharray:none;stroke-opacity:1" /><path
   id="path50946"
   d="M -71.307053,699.36021 C -72.250121,698.53346 -72.904195,697.48789 -73.603812,696.51289 C -74.230951,695.73639 -75.033179,695.22437 -75.744108,694.55663 C -75.360314,695.35225 -75.346296,696.30263 -74.801936,697.03348 C -74.027344,698.38486 -72.590972,698.8603 -71.307053,699.36021 L -71.307053,699.36021 z"
   style="fill:#808000;stroke:#000000;stroke-width:0.1809707;stroke-miterlimit:4;stroke-dasharray:none;stroke-opacity:1" /><path
   id="path50948"
   d="M -76.464446,696.48126 C -76.005776,697.05145 -75.42428,697.4477 -74.769905,697.61502 C -76.040508,696.74217 -75.957827,695.17797 -76.360637,693.87763 C -76.489074,693.3968 -76.712097,692.95379 -76.823213,692.46088 L -76.79088,692.43515 C -76.579461,692.99238 -76.207883,693.51887 -75.744108,693.97353 C -74.841682,694.80659 -73.506707,695.32577 -73.064459,696.55809 C -73.084675,694.84563 -74.513243,693.49935 -75.880145,692.53691 C -76.443823,692.0424 -76.987384,691.47882 -77.297801,690.84313 C -77.328235,691.27516 -77.233934,691.70896 -77.264669,692.17178 C -77.413321,693.66667 -77.52133,695.37292 -76.464446,696.48126 L -76.464446,696.48126 z"
   style="fill:#808000;stroke:#000000;stroke-width:0.1809707;stroke-miterlimit:4;stroke-dasharray:none;stroke-opacity:1" /><path
   id="path50950"
   d="M -79.035286,691.36956 C -79.073524,692.88441 -78.444779,694.12099 -77.558769,695.24969 C -77.533041,695.26256 -77.514725,695.28829 -77.481592,695.28208 C -78.456889,693.80001 -77.650061,691.93319 -77.694504,690.24801 L -77.823137,688.52264 C -77.804022,688.51013 -77.804022,688.45827 -77.758772,688.47819 C -77.701117,688.67049 -77.6886,688.876 -77.650061,689.07381 C -77.420326,690.46553 -76.211683,691.45305 -75.156006,692.41483 C -74.930569,692.66639 -74.731267,692.92181 -74.615446,693.21701 C -74.701633,692.52405 -74.918859,691.82513 -75.206353,691.18427 C -76.027998,689.58193 -77.545852,688.26718 -77.823137,686.4327 C -77.957681,688.1907 -79.154606,689.50505 -79.035286,691.36956 L -79.035286,691.36956 z"
   style="fill:#808000;stroke:#000000;stroke-width:0.1809707;stroke-miterlimit:4;stroke-dasharray:none;stroke-opacity:1" /><path
   id="path50952"
   d="M -79.773141,689.21535 C -79.663926,689.68914 -79.580445,690.17944 -79.374229,690.61419 C -79.76493,688.61153 -78.41795,687.16855 -77.976095,685.43267 C -77.791211,684.7834 -77.74596,684.08609 -77.481592,683.47686 C -77.456965,683.46355 -77.435543,683.48928 -77.420326,683.5088 C -78.0782,685.35279 -77.128526,687.06634 -76.174245,688.51013 C -75.94221,688.90133 -75.808473,689.33697 -75.693051,689.78664 C -75.591647,688.95208 -75.802667,687.991 -75.923887,687.1245 C -76.155929,686.02198 -76.502284,684.9764 -76.803797,683.9066 C -77.002201,683.23812 -76.950044,682.48395 -76.848142,681.78352 L -76.94374,681.85991 C -77.643358,683.15002 -79.028681,684.15626 -79.440103,685.5657 C -79.778646,686.68936 -80.003675,687.991 -79.773141,689.21535 L -79.773141,689.21535 z"
   style="fill:#808000;stroke:#000000;stroke-width:0.1809707;stroke-miterlimit:4;stroke-dasharray:none;stroke-opacity:1" /><path
   id="path50954"
   d="M -79.836308,685.30394 C -79.682249,683.18126 -77.399605,682.05961 -76.341522,680.30231 C -76.091164,679.94273 -75.873939,679.54493 -75.5394,679.24391 C -75.591647,679.47005 -75.802667,679.66034 -75.880145,679.89198 C -76.250328,680.62904 -76.385264,681.50734 -76.296272,682.39816 C -76.193767,683.48237 -75.739003,684.4885 -75.912576,685.62887 C -74.982824,683.62421 -75.265214,681.12204 -74.745383,678.94981 C -74.60924,678.47473 -74.334255,678.0505 -74.154076,677.59642 C -76.064335,678.89746 -78.669107,680.13533 -79.516578,682.51978 C -79.873746,683.34192 -79.913582,684.35977 -79.836308,685.30394 L -79.836308,685.30394 z"
   style="fill:#808000;stroke:#000000;stroke-width:0.1809707;stroke-miterlimit:4;stroke-dasharray:none;stroke-opacity:1" /><path
   id="path50956"
   d="M -78.695235,680.42943 C -77.630139,678.01996 -74.962608,677.82036 -73.174067,676.35315 C -72.844934,676.06145 -72.50008,675.8134 -72.128494,675.64032 L -72.109379,675.65974 C -72.519994,676.03102 -72.994982,676.45385 -73.282476,676.93505 C -74.329256,678.39054 -73.961079,680.42943 -74.745383,681.99484 C -74.032751,681.14236 -73.384687,680.25626 -72.954444,679.28916 C -72.314487,677.71044 -72.069935,675.92732 -70.589119,674.73394 C -72.19166,675.26208 -74.069088,675.11453 -75.48354,676.10129 C -77.027921,677.05047 -78.40624,678.66042 -78.695235,680.42943 L -78.695235,680.42943 z"
   style="fill:#808000;stroke:#000000;stroke-width:0.1809707;stroke-miterlimit:4;stroke-dasharray:none;stroke-opacity:1" /><path
   id="path50958"
   d="M -75.957827,675.93442 C -74.250074,673.99218 -71.459611,674.64025 -69.184772,674.13192 C -68.863443,674.08807 -68.569343,673.95934 -68.228794,674.0116 C -68.499971,674.18317 -68.876254,674.16456 -69.172262,674.32052 C -70.955389,674.94696 -71.21696,676.87739 -72.184957,678.17913 C -70.948286,677.35788 -69.908617,676.25024 -68.767747,675.177 C -67.947701,674.45866 -66.960589,674.12712 -65.920528,673.9157 C -66.170478,673.82441 -66.498118,673.84943 -66.766392,673.77916 C -68.634907,673.31969 -70.710837,672.56872 -72.692376,673.24101 C -73.980593,673.64663 -75.309657,674.66527 -75.957827,675.93442 L -75.957827,675.93442 z"
   style="fill:#808000;stroke:#000000;stroke-width:0.1809707;stroke-miterlimit:4;stroke-dasharray:none;stroke-opacity:1" /><path
   id="path50960"
   d="M -52.779136,671.40713 C -54.703511,670.68899 -56.711871,671.43996 -58.214916,672.57973 C -58.823437,672.96652 -59.359895,673.5235 -60.146997,673.47424 C -60.432493,673.47965 -60.707772,673.46564 -60.950424,673.39557 C -59.490224,672.71607 -58.133833,671.77931 -56.893664,670.58128 C -57.102677,670.34264 -57.373357,670.1194 -57.628314,669.91359 C -58.823437,671.20131 -60.146997,672.44079 -61.628921,673.16473 C -61.919115,673.12709 -62.195201,672.95251 -62.456869,672.81197 C -63.66331,672.04918 -64.856231,671.06797 -65.753152,669.86674 L -66.523846,670.50319 C -65.293781,671.74747 -63.933183,672.71607 -62.444759,673.40798 C -63.907357,673.87126 -64.862038,672.64599 -65.972278,672.02275 C -67.266007,671.11943 -69.126612,670.6952 -70.690116,671.31843 C -71.530982,671.63736 -72.345621,672.10704 -72.954444,672.87043 C -71.723979,672.02275 -69.891402,671.93387 -68.492061,672.48443 C -66.614339,673.29887 -64.663136,674.33133 -62.399509,673.83762 C -62.046247,673.83141 -61.702998,673.47965 -61.36925,673.77916 C -59.686826,674.216 -57.782072,673.9157 -56.333582,673.14671 L -54.840657,672.5483 C -53.453026,672.03517 -51.658988,672.17711 -50.469566,673.02259 C -51.081096,672.2614 -51.916449,671.71605 -52.779136,671.40713 L -52.779136,671.40713 z"
   style="fill:#808000;stroke:#000000;stroke-width:0.1809707;stroke-miterlimit:4;stroke-dasharray:none;stroke-opacity:1" /><path
   id="path50962"
   d="M -50.716923,673.39557 C -52.877539,672.57973 -55.051171,673.58116 -57.121393,673.9157 L -57.520003,673.96635 L -57.520003,673.97896 C -56.530086,674.20359 -55.5692,674.4983 -54.781291,675.20962 C -53.620801,676.32512 -52.588145,677.4733 -51.299422,678.3523 C -52.255098,677.12695 -52.356404,675.38281 -53.935125,674.595 C -54.325825,674.33934 -54.818933,674.29409 -55.222143,674.10049 C -54.647154,674.08807 -54.120718,674.29409 -53.551331,674.35175 C -51.434358,674.68409 -49.012571,674.34314 -47.52745,676.14654 C -48.078815,674.8899 -49.459629,673.83762 -50.716923,673.39557 L -50.716923,673.39557 z"
   style="fill:#808000;stroke:#000000;stroke-width:0.1809707;stroke-miterlimit:4;stroke-dasharray:none;stroke-opacity:1" /><path
   id="path50964"
   d="M -46.791193,679.47476 C -47.64447,678.91628 -48.509359,678.39835 -49.329299,677.7634 L -49.329299,677.84138 C -48.073408,679.92862 -48.687336,682.79596 -47.913543,685.09302 L -47.624948,685.86251 C -47.786411,684.43154 -47.164875,683.2194 -47.208519,681.78352 C -47.252163,680.91614 -47.535254,680.14705 -47.99072,679.45444 L -47.913543,679.45444 C -47.298212,680.26256 -46.81772,681.12204 -46.09858,681.89183 C -44.982338,682.96824 -43.847471,684.07197 -43.700922,685.5657 C -43.321834,683.07205 -44.721069,680.8865 -46.791193,679.47476 L -46.791193,679.47476 z"
   style="fill:#808000;stroke:#000000;stroke-width:0.1809707;stroke-miterlimit:4;stroke-dasharray:none;stroke-opacity:1" /><text
   xml:space="preserve"
   style="font-size:30.14843369px;font-style:normal;font-weight:normal;fill:#000000;fill-opacity:1;stroke:none;stroke-width:1px;stroke-linecap:butt;stroke-linejoin:miter;stroke-opacity:1;font-family:Bitstream Vera Sans"
   x="-70.323814"
   y="-678.09436"
   id="text50991"
   transform="scale(1,-1)"><tspan
     sodipodi:role="line"
     id="tspan50993"
     x="-70.323814"
     y="-678.09436"
     style="font-weight:bold">1</tspan></text>





</g></g><g
       id="g5208"
       transform="matrix(0.8039374,0,0,0.8039374,168.34284,134.41728)"><g
         id="g5010"><path
   id="path51029"
   d="M -49.516491,567.01345 C -50.620925,566.71769 -51.799429,566.6226 -52.872035,566.25682 C -51.055368,567.81447 -51.159072,570.22464 -49.947028,572.05923 C -49.560934,572.57866 -49.241808,573.12312 -48.791749,573.61603 C -49.529001,572.13711 -49.209271,570.21834 -50.056244,568.78317 C -50.382278,568.21308 -50.848556,567.66001 -51.364187,567.21225 C -51.195711,567.21856 -51.048265,567.36441 -50.90011,567.46181 C -49.524401,568.83462 -47.727151,569.21851 -46.239029,570.33386 C -45.642911,570.80885 -45.096953,571.43128 -44.834885,572.10448 C -45.116475,569.82684 -47.382402,567.69205 -49.516491,567.01345 L -49.516491,567.01345 z"
   style="fill:#aca793;stroke:#000000;stroke-width:0.1809707;stroke-miterlimit:4;stroke-dasharray:none;stroke-opacity:1" /><path
   id="path51031"
   d="M -44.560405,576.23521 C -45.233495,575.27743 -46.047728,574.38581 -46.669566,573.41242 C -46.600193,574.18311 -46.508901,575.13078 -46.809109,575.86083 C -47.329347,577.43294 -47.786411,579.02918 -47.933865,580.75455 L -47.913543,581.41432 C -47.522043,579.65232 -45.791164,578.44107 -45.90038,576.46465 C -45.86074,575.98566 -46.008887,575.57844 -46.09858,575.15721 L -46.068848,575.12608 L -45.990873,575.21346 C -45.734211,576.18296 -45.604674,577.20241 -45.205565,578.10693 C -44.63838,579.40857 -43.930159,580.72222 -44.218755,582.29383 C -43.356067,580.44093 -43.617434,577.96529 -44.560405,576.23521 L -44.560405,576.23521 z"
   style="fill:#aca793;stroke:#000000;stroke-width:0.1809707;stroke-miterlimit:4;stroke-dasharray:none;stroke-opacity:1" /><path
   id="path51033"
   d="M -45.622793,586.21796 C -44.487828,584.67983 -44.239076,582.22866 -45.06572,580.46435 C -45.373838,579.71668 -45.591463,578.91997 -45.712487,578.09242 C -45.770247,578.23517 -45.783458,578.42706 -45.835012,578.58612 C -46.286473,580.3131 -47.919749,581.54386 -48.591437,583.17208 C -48.804462,583.70453 -48.986043,584.25469 -49.086746,584.83269 C -48.369009,583.50522 -46.600193,582.81957 -46.118103,581.35667 C -45.920596,580.98669 -45.93171,580.52442 -45.809186,580.12661 C -45.783458,580.12661 -45.75773,580.14573 -45.75773,580.17186 C -45.969948,581.6788 -45.905183,583.25597 -45.700671,584.74419 C -45.712487,585.55032 -45.791164,586.33227 -46.239029,586.95627 C -45.951828,586.78894 -45.822502,586.46756 -45.622793,586.21796 L -45.622793,586.21796 z"
   style="fill:#aca793;stroke:#000000;stroke-width:0.1809707;stroke-miterlimit:4;stroke-dasharray:none;stroke-opacity:1" /><path
   id="path51035"
   d="M -46.423016,586.51321 C -46.124912,585.16538 -46.560357,583.85273 -46.286473,582.49194 L -46.296683,582.48022 C -47.029939,583.9221 -48.586633,584.6026 -49.657731,585.75663 C -50.278468,586.44143 -50.548348,587.27604 -50.703606,588.15975 C -50.089874,586.68014 -48.433781,586.3541 -47.483006,585.10727 C -47.164875,584.81982 -47.061073,584.42161 -46.855958,584.09563 L -46.822425,584.12801 C -47.369183,585.29521 -47.552371,586.60876 -47.933865,587.85359 C -48.124864,588.39299 -48.503952,588.92299 -49.012571,589.26308 C -47.764491,589.00802 -46.682784,587.70503 -46.423016,586.51321 L -46.423016,586.51321 z"
   style="fill:#aca793;stroke:#000000;stroke-width:0.1809707;stroke-miterlimit:4;stroke-dasharray:none;stroke-opacity:1" /><path
   id="path51037"
   d="M -49.759836,589.60434 C -48.819874,588.76307 -48.394737,587.6738 -48.120257,586.54519 L -47.964999,586.18678 C -49.329299,587.16798 -50.56867,588.48698 -51.439863,589.88001 L -52.503857,590.95642 C -51.568495,590.55982 -50.560059,590.32307 -49.759836,589.60434 L -49.759836,589.60434 z"
   style="fill:#aca793;stroke:#000000;stroke-width:0.1809707;stroke-miterlimit:4;stroke-dasharray:none;stroke-opacity:1" /><path
   id="path51039"
   d="M -71.307053,590.77779 C -72.250121,589.95104 -72.904195,588.90546 -73.603812,587.93047 C -74.230951,587.15397 -75.033179,586.64194 -75.744108,585.97421 C -75.360314,586.76983 -75.346296,587.7202 -74.801936,588.45105 C -74.027344,589.80244 -72.590972,590.27788 -71.307053,590.77779 L -71.307053,590.77779 z"
   style="fill:#aca793;stroke:#000000;stroke-width:0.1809707;stroke-miterlimit:4;stroke-dasharray:none;stroke-opacity:1" /><path
   id="path51041"
   d="M -76.464446,587.89884 C -76.005776,588.46902 -75.42428,588.86527 -74.769905,589.0326 C -76.040508,588.15975 -75.957827,586.59555 -76.360637,585.29521 C -76.489074,584.81436 -76.712097,584.37136 -76.823213,583.87846 L -76.79088,583.85273 C -76.579461,584.40996 -76.207883,584.93644 -75.744108,585.39111 C -74.841682,586.22416 -73.506707,586.74335 -73.064459,587.97566 C -73.084675,586.2632 -74.513243,584.91692 -75.880145,583.95448 C -76.443823,583.45998 -76.987384,582.8964 -77.297801,582.26069 C -77.328235,582.69274 -77.233934,583.12653 -77.264669,583.58936 C -77.413321,585.08424 -77.52133,586.7905 -76.464446,587.89884 L -76.464446,587.89884 z"
   style="fill:#aca793;stroke:#000000;stroke-width:0.1809707;stroke-miterlimit:4;stroke-dasharray:none;stroke-opacity:1" /><path
   id="path51043"
   d="M -79.035286,582.78714 C -79.073524,584.30199 -78.444779,585.53856 -77.558769,586.66727 C -77.533041,586.68014 -77.514725,586.70586 -77.481592,586.69965 C -78.456889,585.21758 -77.650061,583.35076 -77.694504,581.66559 L -77.823137,579.94021 C -77.804022,579.9277 -77.804022,579.87585 -77.758772,579.89577 C -77.701117,580.08807 -77.6886,580.29358 -77.650061,580.49138 C -77.420326,581.88311 -76.211683,582.87062 -75.156006,583.83241 C -74.930569,584.08397 -74.731267,584.33938 -74.615446,584.63459 C -74.701633,583.94163 -74.918859,583.2427 -75.206353,582.60185 C -76.027998,580.9995 -77.545852,579.68475 -77.823137,577.85027 C -77.957681,579.60827 -79.154606,580.92263 -79.035286,582.78714 L -79.035286,582.78714 z"
   style="fill:#aca793;stroke:#000000;stroke-width:0.1809707;stroke-miterlimit:4;stroke-dasharray:none;stroke-opacity:1" /><path
   id="path51045"
   d="M -79.773141,580.63292 C -79.663926,581.10671 -79.580445,581.59701 -79.374229,582.03176 C -79.76493,580.02911 -78.41795,578.58612 -77.976095,576.85024 C -77.791211,576.20098 -77.74596,575.50366 -77.481592,574.89443 C -77.456965,574.88112 -77.435543,574.90685 -77.420326,574.92637 C -78.0782,576.77036 -77.128526,578.48392 -76.174245,579.9277 C -75.94221,580.3189 -75.808473,580.75455 -75.693051,581.20421 C -75.591647,580.36966 -75.802667,579.40857 -75.923887,578.54208 C -76.155929,577.43955 -76.502284,576.39398 -76.803797,575.32418 C -77.002201,574.65569 -76.950044,573.90151 -76.848142,573.2011 L -76.94374,573.27747 C -77.643358,574.5676 -79.028681,575.57383 -79.440103,576.98328 C -79.778646,578.10693 -80.003675,579.40857 -79.773141,580.63292 L -79.773141,580.63292 z"
   style="fill:#aca793;stroke:#000000;stroke-width:0.1809707;stroke-miterlimit:4;stroke-dasharray:none;stroke-opacity:1" /><path
   id="path51047"
   d="M -79.836308,576.72151 C -79.682249,574.59883 -77.399605,573.47718 -76.341522,571.71988 C -76.091164,571.36031 -75.873939,570.96251 -75.5394,570.66149 C -75.591647,570.88763 -75.802667,571.07792 -75.880145,571.30956 C -76.250328,572.04662 -76.385264,572.92491 -76.296272,573.81573 C -76.193767,574.89995 -75.739003,575.90607 -75.912576,577.04645 C -74.982824,575.04179 -75.265214,572.53962 -74.745383,570.36739 C -74.60924,569.8923 -74.334255,569.46806 -74.154076,569.014 C -76.064335,570.31504 -78.669107,571.55291 -79.516578,573.93735 C -79.873746,574.7595 -79.913582,575.77734 -79.836308,576.72151 L -79.836308,576.72151 z"
   style="fill:#aca793;stroke:#000000;stroke-width:0.1809707;stroke-miterlimit:4;stroke-dasharray:none;stroke-opacity:1" /><path
   id="path51049"
   d="M -78.695235,571.84701 C -77.630139,569.43753 -74.962608,569.23793 -73.174067,567.77072 C -72.844934,567.47903 -72.50008,567.23097 -72.128494,567.0579 L -72.109379,567.07731 C -72.519994,567.4486 -72.994982,567.87143 -73.282476,568.35262 C -74.329256,569.80812 -73.961079,571.84701 -74.745383,573.41242 C -74.032751,572.55994 -73.384687,571.67383 -72.954444,570.70674 C -72.314487,569.12802 -72.069935,567.34489 -70.589119,566.15151 C -72.19166,566.67966 -74.069088,566.5321 -75.48354,567.51887 C -77.027921,568.46804 -78.40624,570.078 -78.695235,571.84701 L -78.695235,571.84701 z"
   style="fill:#aca793;stroke:#000000;stroke-width:0.1809707;stroke-miterlimit:4;stroke-dasharray:none;stroke-opacity:1" /><path
   id="path51051"
   d="M -75.957827,567.352 C -74.250074,565.40975 -71.459611,566.05781 -69.184772,565.5495 C -68.863443,565.50565 -68.569343,565.37692 -68.228794,565.42918 C -68.499971,565.60075 -68.876254,565.58213 -69.172262,565.73809 C -70.955389,566.36453 -71.21696,568.29497 -72.184957,569.5967 C -70.948286,568.77546 -69.908617,567.66782 -68.767747,566.59457 C -67.947701,565.87623 -66.960589,565.54469 -65.920528,565.33328 C -66.170478,565.24198 -66.498118,565.26701 -66.766392,565.19673 C -68.634907,564.73726 -70.710837,563.9863 -72.692376,564.65858 C -73.980593,565.06419 -75.309657,566.08284 -75.957827,567.352 L -75.957827,567.352 z"
   style="fill:#aca793;stroke:#000000;stroke-width:0.1809707;stroke-miterlimit:4;stroke-dasharray:none;stroke-opacity:1" /><path
   id="path51053"
   d="M -52.779136,562.8247 C -54.703511,562.10656 -56.711871,562.85754 -58.214916,563.9973 C -58.823437,564.3841 -59.359895,564.94107 -60.146997,564.89182 C -60.432493,564.89723 -60.707772,564.88322 -60.950424,564.81314 C -59.490224,564.13364 -58.133833,563.19688 -56.893664,561.99885 C -57.102677,561.76021 -57.373357,561.53698 -57.628314,561.33117 C -58.823437,562.61889 -60.146997,563.85836 -61.628921,564.5823 C -61.919115,564.54467 -62.195201,564.37009 -62.456869,564.22954 C -63.66331,563.46676 -64.856231,562.48555 -65.753152,561.28432 L -66.523846,561.92077 C -65.293781,563.16505 -63.933183,564.13364 -62.444759,564.82555 C -63.907357,565.28883 -64.862038,564.06357 -65.972278,563.44033 C -67.266007,562.53701 -69.126612,562.11277 -70.690116,562.73601 C -71.530982,563.05494 -72.345621,563.52462 -72.954444,564.288 C -71.723979,563.44033 -69.891402,563.35144 -68.492061,563.90201 C -66.614339,564.71644 -64.663136,565.7489 -62.399509,565.25519 C -62.046247,565.24899 -61.702998,564.89723 -61.36925,565.19673 C -59.686826,565.63358 -57.782072,565.33328 -56.333582,564.56429 L -54.840657,563.96587 C -53.453026,563.45274 -51.658988,563.59469 -50.469566,564.44016 C -51.081096,563.67898 -51.916449,563.13361 -52.779136,562.8247 L -52.779136,562.8247 z"
   style="fill:#aca793;stroke:#000000;stroke-width:0.1809707;stroke-miterlimit:4;stroke-dasharray:none;stroke-opacity:1" /><path
   id="path51055"
   d="M -50.716923,564.81314 C -52.877539,563.9973 -55.051171,564.99873 -57.121393,565.33328 L -57.520003,565.38392 L -57.520003,565.39654 C -56.530086,565.62117 -55.5692,565.91587 -54.781291,566.6272 C -53.620801,567.7427 -52.588145,568.89087 -51.299422,569.76988 C -52.255098,568.54452 -52.356404,566.80038 -53.935125,566.01257 C -54.325825,565.75691 -54.818933,565.71166 -55.222143,565.51806 C -54.647154,565.50565 -54.120718,565.71166 -53.551331,565.76932 C -51.434358,566.10166 -49.012571,565.76071 -47.52745,567.56412 C -48.078815,566.30747 -49.459629,565.25519 -50.716923,564.81314 L -50.716923,564.81314 z"
   style="fill:#aca793;stroke:#000000;stroke-width:0.1809707;stroke-miterlimit:4;stroke-dasharray:none;stroke-opacity:1" /><path
   id="path51057"
   d="M -46.791193,570.89233 C -47.64447,570.33386 -48.509359,569.81593 -49.329299,569.18098 L -49.329299,569.25895 C -48.073408,571.34619 -48.687336,574.21354 -47.913543,576.5106 L -47.624948,577.28009 C -47.786411,575.84911 -47.164875,574.63697 -47.208519,573.2011 C -47.252163,572.33371 -47.535254,571.56462 -47.99072,570.872 L -47.913543,570.872 C -47.298212,571.68014 -46.81772,572.53962 -46.09858,573.30941 C -44.982338,574.38581 -43.847471,575.48955 -43.700922,576.98328 C -43.321834,574.48962 -44.721069,572.30408 -46.791193,570.89233 L -46.791193,570.89233 z"
   style="fill:#aca793;stroke:#000000;stroke-width:0.1809707;stroke-miterlimit:4;stroke-dasharray:none;stroke-opacity:1" /><text
   xml:space="preserve"
   style="font-size:30.14843369px;font-style:normal;font-weight:normal;fill:#000000;fill-opacity:1;stroke:none;stroke-width:1px;stroke-linecap:butt;stroke-linejoin:miter;stroke-opacity:1;font-family:Bitstream Vera Sans"
   x="-70.323814"
   y="-569.51196"
   id="text51059"
   transform="scale(1,-1)"><tspan
     sodipodi:role="line"
     id="tspan51061"
     x="-70.323814"
     y="-569.51196"
     style="font-weight:bold">2</tspan></text>





</g></g><g
       id="g5189"
       transform="matrix(0.8039377,0,0,0.8039377,18.64778,95.667283)"><path
   d="M 136.86301,505.07099 C 135.75858,504.77524 134.58007,504.68014 133.50746,504.31437 C 135.32413,505.87201 135.22043,508.28219 136.43247,510.11677 C 136.81857,510.63621 137.13769,511.18067 137.58775,511.67357 C 136.8505,510.19465 137.17023,508.27589 136.32326,506.84071 C 135.99722,506.27063 135.53094,505.71756 135.01531,505.26979 C 135.18379,505.27611 135.33123,505.42195 135.47939,505.51936 C 136.8551,506.89216 138.65235,507.27606 140.14047,508.3914 C 140.73659,508.8664 141.28255,509.48883 141.54462,510.16203 C 141.26302,507.88439 138.9971,505.74959 136.86301,505.07099 L 136.86301,505.07099 z"
   id="path51075"
   style="fill:#008000;stroke:#000000;stroke-width:0.1809707;stroke-miterlimit:4;stroke-dasharray:none;stroke-opacity:1" /><path
   d="M 141.8191,514.29275 C 141.14601,513.33497 140.33177,512.44335 139.70993,511.46997 C 139.77931,512.24064 139.8706,513.18832 139.57039,513.91837 C 139.05015,515.49049 138.59309,517.08672 138.44564,518.81209 L 138.46596,519.47186 C 138.85746,517.70987 140.58834,516.49861 140.47912,514.5222 C 140.51876,514.04321 140.37061,513.63599 140.28092,513.21475 L 140.31065,513.18363 L 140.38863,513.27101 C 140.64529,514.2405 140.77483,515.25995 141.17394,516.16447 C 141.74112,517.46611 142.44934,518.77976 142.16074,520.35137 C 143.02343,518.49847 142.76207,516.02283 141.8191,514.29275 L 141.8191,514.29275 z"
   id="path51077"
   style="fill:#008000;stroke:#000000;stroke-width:0.1809707;stroke-miterlimit:4;stroke-dasharray:none;stroke-opacity:1" /><path
   d="M 140.75671,524.2755 C 141.89167,522.73737 142.14042,520.2862 141.31378,518.52189 C 141.00566,517.77423 140.78804,516.97751 140.66701,516.14996 C 140.60925,516.29271 140.59604,516.4846 140.54449,516.64366 C 140.09303,518.37064 138.45975,519.6014 137.78806,521.22962 C 137.57504,521.76207 137.39346,522.31223 137.29275,522.89023 C 138.01049,521.56277 139.77931,520.87711 140.2614,519.41422 C 140.4589,519.04423 140.44779,518.58196 140.57031,518.18414 C 140.59604,518.18414 140.62177,518.20328 140.62177,518.2294 C 140.40955,519.73635 140.47432,521.31351 140.67883,522.80174 C 140.66701,523.60787 140.58834,524.38981 140.14047,525.01382 C 140.42767,524.84649 140.557,524.5251 140.75671,524.2755 L 140.75671,524.2755 z"
   id="path51079"
   style="fill:#008000;stroke:#000000;stroke-width:0.1809707;stroke-miterlimit:4;stroke-dasharray:none;stroke-opacity:1" /><path
   d="M 139.95648,524.57075 C 140.25459,523.22293 139.81914,521.91027 140.09303,520.54949 L 140.08282,520.53777 C 139.34956,521.97965 137.79287,522.66014 136.72177,523.81417 C 136.10103,524.49897 135.83115,525.33358 135.67589,526.2173 C 136.28963,524.73767 137.94572,524.41165 138.89649,523.16481 C 139.21463,522.87736 139.31843,522.47915 139.52354,522.15317 L 139.55707,522.18555 C 139.01032,523.35276 138.82713,524.6663 138.44564,525.91113 C 138.25464,526.45053 137.87555,526.98053 137.36693,527.32063 C 138.61501,527.06556 139.69672,525.76257 139.95648,524.57075 L 139.95648,524.57075 z"
   id="path51081"
   style="fill:#008000;stroke:#000000;stroke-width:0.1809707;stroke-miterlimit:4;stroke-dasharray:none;stroke-opacity:1" /><path
   d="M 136.61966,527.66188 C 137.55963,526.82061 137.98476,525.73135 138.25924,524.60273 L 138.4145,524.24433 C 137.0502,525.22552 135.81083,526.54452 134.93964,527.93755 L 133.87564,529.01396 C 134.811,528.61735 135.81944,528.38061 136.61966,527.66188 L 136.61966,527.66188 z"
   id="path51083"
   style="fill:#008000;stroke:#000000;stroke-width:0.1809707;stroke-miterlimit:4;stroke-dasharray:none;stroke-opacity:1" /><path
   d="M 115.07245,528.83533 C 114.12938,528.00859 113.4753,526.96301 112.77569,525.98802 C 112.14855,525.21151 111.34632,524.69948 110.63539,524.03175 C 111.01919,524.82737 111.0332,525.77774 111.57756,526.5086 C 112.35216,527.85998 113.78853,528.33542 115.07245,528.83533 L 115.07245,528.83533 z"
   id="path51085"
   style="fill:#008000;stroke:#000000;stroke-width:0.1809707;stroke-miterlimit:4;stroke-dasharray:none;stroke-opacity:1" /><path
   d="M 109.91505,525.95638 C 110.37372,526.52657 110.95522,526.92282 111.60959,527.09014 C 110.33899,526.2173 110.42167,524.6531 110.01886,523.35276 C 109.89043,522.8719 109.6674,522.4289 109.55629,521.93601 L 109.58862,521.91027 C 109.80004,522.4675 110.17162,522.99398 110.63539,523.44865 C 111.53782,524.2817 112.87279,524.8009 113.31504,526.03321 C 113.29483,524.32074 111.86626,522.97447 110.49936,522.01202 C 109.93568,521.51752 109.39212,520.95394 109.0817,520.31824 C 109.05127,520.75028 109.14557,521.18408 109.11483,521.6469 C 108.96618,523.14178 108.85817,524.84805 109.91505,525.95638 L 109.91505,525.95638 z"
   id="path51087"
   style="fill:#008000;stroke:#000000;stroke-width:0.1809707;stroke-miterlimit:4;stroke-dasharray:none;stroke-opacity:1" /><path
   d="M 107.34421,520.84469 C 107.30598,522.35953 107.93472,523.5961 108.82073,524.72481 C 108.84646,524.73767 108.86477,524.76341 108.89791,524.75719 C 107.92261,523.27513 108.72944,521.40831 108.685,519.72313 L 108.55636,517.99775 C 108.57548,517.98524 108.57548,517.9334 108.62073,517.95331 C 108.67838,518.14561 108.6909,518.35113 108.72944,518.54892 C 108.95917,519.94065 110.16782,520.92817 111.22349,521.88995 C 111.44893,522.14151 111.64823,522.39692 111.76405,522.69213 C 111.67787,521.99918 111.46064,521.30025 111.17315,520.6594 C 110.3515,519.05705 108.83365,517.7423 108.55636,515.90782 C 108.42182,517.66581 107.22489,518.98017 107.34421,520.84469 L 107.34421,520.84469 z"
   id="path51089"
   style="fill:#008000;stroke:#000000;stroke-width:0.1809707;stroke-miterlimit:4;stroke-dasharray:none;stroke-opacity:1" /><path
   d="M 106.60636,518.69047 C 106.71557,519.16426 106.79906,519.65455 107.00527,520.0893 C 106.61457,518.08665 107.96155,516.64366 108.40341,514.90778 C 108.58829,514.25852 108.63354,513.5612 108.89791,512.95197 C 108.92253,512.93867 108.94396,512.96439 108.95917,512.98391 C 108.3013,514.8279 109.25097,516.54147 110.20526,517.98524 C 110.43729,518.37644 110.57103,518.81209 110.68645,519.26175 C 110.78785,518.4272 110.57683,517.46611 110.45561,516.59962 C 110.22357,515.49709 109.87722,514.45152 109.5757,513.38172 C 109.3773,512.71324 109.42946,511.95906 109.53136,511.25865 L 109.43576,511.33501 C 108.73614,512.62514 107.35082,513.63137 106.9394,515.04083 C 106.60085,516.16447 106.37583,517.46611 106.60636,518.69047 L 106.60636,518.69047 z"
   id="path51091"
   style="fill:#008000;stroke:#000000;stroke-width:0.1809707;stroke-miterlimit:4;stroke-dasharray:none;stroke-opacity:1" /><path
   d="M 106.54319,514.77905 C 106.69725,512.65637 108.97989,511.53472 110.03798,509.77743 C 110.28834,509.41786 110.50556,509.02005 110.8401,508.71904 C 110.78785,508.94517 110.57683,509.13547 110.49936,509.3671 C 110.12917,510.10417 109.99424,510.98246 110.08323,511.87328 C 110.18573,512.95749 110.6405,513.96362 110.46692,515.10399 C 111.39668,513.09933 111.11429,510.59716 111.63412,508.42493 C 111.77026,507.94984 112.04524,507.52561 112.22542,507.07154 C 110.31517,508.37259 107.71039,509.61046 106.86292,511.99489 C 106.50575,512.81705 106.46592,513.83488 106.54319,514.77905 L 106.54319,514.77905 z"
   id="path51093"
   style="fill:#008000;stroke:#000000;stroke-width:0.1809707;stroke-miterlimit:4;stroke-dasharray:none;stroke-opacity:1" /><path
   d="M 107.68427,509.90455 C 108.74936,507.49507 111.41689,507.29548 113.20543,505.82827 C 113.53457,505.53657 113.87942,505.28851 114.25101,505.11545 L 114.27012,505.13485 C 113.85951,505.50615 113.38452,505.92897 113.09702,506.41017 C 112.05024,507.86567 112.41842,509.90455 111.63412,511.46997 C 112.34675,510.61749 112.99481,509.73138 113.42506,508.76429 C 114.06501,507.18556 114.30957,505.40244 115.79038,504.20906 C 114.18784,504.73721 112.31041,504.58964 110.89596,505.57641 C 109.35158,506.52559 107.97326,508.13554 107.68427,509.90455 L 107.68427,509.90455 z"
   id="path51095"
   style="fill:#008000;stroke:#000000;stroke-width:0.1809707;stroke-miterlimit:4;stroke-dasharray:none;stroke-opacity:1" /><path
   d="M 110.42167,505.40954 C 112.12943,503.4673 114.91989,504.11535 117.19473,503.60705 C 117.51606,503.5632 117.81016,503.43446 118.15071,503.48671 C 117.87953,503.6583 117.50325,503.63967 117.20724,503.79564 C 115.42411,504.42208 115.16254,506.35251 114.19454,507.65425 C 115.43121,506.83301 116.47088,505.72537 117.61175,504.65211 C 118.4318,503.93377 119.41891,503.60224 120.45897,503.39083 C 120.20902,503.29953 119.88138,503.32455 119.61311,503.25428 C 117.74459,502.7948 115.66866,502.04385 113.68712,502.71613 C 112.39891,503.12173 111.06984,504.14038 110.42167,505.40954 L 110.42167,505.40954 z"
   id="path51097"
   style="fill:#008000;stroke:#000000;stroke-width:0.1809707;stroke-miterlimit:4;stroke-dasharray:none;stroke-opacity:1" /><path
   d="M 133.60036,500.88225 C 131.67599,500.16411 129.66763,500.91509 128.16458,502.05485 C 127.55606,502.44164 127.01961,502.99862 126.2325,502.94937 C 125.94701,502.95477 125.67173,502.94076 125.42908,502.87069 C 126.88928,502.19119 128.24567,501.25442 129.48584,500.0564 C 129.27682,499.81775 129.00614,499.59452 128.75119,499.38871 C 127.55606,500.67643 126.2325,501.91591 124.75058,502.63984 C 124.46039,502.60222 124.1843,502.42764 123.92263,502.28709 C 122.71619,501.52431 121.52327,500.5431 120.62635,499.34187 L 119.85565,499.97832 C 121.08572,501.2226 122.44632,502.19119 123.93474,502.8831 C 122.47214,503.34638 121.51746,502.12111 120.40722,501.49788 C 119.11349,500.59455 117.25289,500.17031 115.68938,500.79355 C 114.84852,501.11249 114.03388,501.58216 113.42506,502.34555 C 114.65552,501.49788 116.4881,501.40899 117.88744,501.95955 C 119.76516,502.77399 121.71636,503.80645 123.97999,503.31274 C 124.33325,503.30653 124.6765,502.95477 125.01025,503.25428 C 126.69267,503.69112 128.59743,503.39083 130.04592,502.62183 L 131.53884,502.02341 C 132.92647,501.51029 134.72051,501.65223 135.90993,502.4977 C 135.2984,501.73652 134.46305,501.19115 133.60036,500.88225 L 133.60036,500.88225 z"
   id="path51099"
   style="fill:#008000;stroke:#000000;stroke-width:0.1809707;stroke-miterlimit:4;stroke-dasharray:none;stroke-opacity:1" /><path
   d="M 135.66258,502.87069 C 133.50196,502.05485 131.32833,503.05628 129.25811,503.39083 L 128.8595,503.44146 L 128.8595,503.45409 C 129.84941,503.67871 130.8103,503.97341 131.59821,504.68474 C 132.7587,505.80025 133.79136,506.94841 135.08008,507.82743 C 134.1244,506.60207 134.0231,504.85793 132.44438,504.07011 C 132.05367,503.81446 131.56057,503.76921 131.15736,503.5756 C 131.73235,503.5632 132.25878,503.76921 132.82817,503.82687 C 134.94514,504.15921 137.36693,503.81826 138.85205,505.62167 C 138.30068,504.36501 136.91987,503.31274 135.66258,502.87069 L 135.66258,502.87069 z"
   id="path51101"
   style="fill:#008000;stroke:#000000;stroke-width:0.1809707;stroke-miterlimit:4;stroke-dasharray:none;stroke-opacity:1" /><path
   d="M 139.58831,508.94987 C 138.73503,508.3914 137.87014,507.87347 137.0502,507.23852 L 137.0502,507.3165 C 138.30609,509.40373 137.69216,512.27109 138.46596,514.56814 L 138.75455,515.33763 C 138.59309,513.90666 139.21463,512.69451 139.17098,511.25865 C 139.12734,510.39126 138.84425,509.62216 138.38878,508.92954 L 138.46596,508.92954 C 139.08129,509.73769 139.56178,510.59716 140.28092,511.36695 C 141.39716,512.44335 142.53203,513.5471 142.67858,515.04083 C 143.05767,512.54716 141.65843,510.36163 139.58831,508.94987 L 139.58831,508.94987 z"
   id="path51103"
   style="fill:#008000;stroke:#000000;stroke-width:0.1809707;stroke-miterlimit:4;stroke-dasharray:none;stroke-opacity:1" /><text
   transform="scale(1,-1)"
   id="text51105"
   y="-507.56952"
   x="116.05569"
   style="font-size:30.14843369px;font-style:normal;font-weight:normal;fill:#000000;fill-opacity:1;stroke:none;stroke-width:1px;stroke-linecap:butt;stroke-linejoin:miter;stroke-opacity:1;font-family:Bitstream Vera Sans"
   xml:space="preserve"><tspan
     style="font-weight:bold"
     y="-507.56952"
     x="116.05569"
     id="tspan51107"
     sodipodi:role="line">3</tspan></text>





</g><g
       id="g51017"
       transform="matrix(0.8795983,0,0,0.8795983,113.50435,352.36567)"
       style="text-align:center;text-anchor:middle"><text
   id="text51019"
   transform="scale(1,-1)"
   x="97.68399"
   y="-387.017"
   style="text-align:center;text-anchor:middle"><tspan
     id="tspan51021"
     sodipodi:role="line"
     y="-387.017"
     x="97.68399"
     style="font-size:14px;font-style:normal;font-variant:normal;font-weight:normal;text-align:center;writing-mode:lr-tb;text-anchor:middle;fill:#231f20;fill-opacity:1;fill-rule:nonzero;stroke:none;font-family:Helvetica;-inkscape-font-specification:Helvetica-Oblique">First To Find</tspan><tspan
     sodipodi:role="line"
     y="-369.517"
     x="97.68399"
     style="font-size:14px;font-style:normal;font-variant:normal;font-weight:normal;text-align:center;writing-mode:lr-tb;text-anchor:middle;fill:#231f20;fill-opacity:1;fill-rule:nonzero;stroke:none;font-family:Helvetica;-inkscape-font-specification:Helvetica-Oblique"
     id="tspan51023">Pierwszy znalazca</tspan></text>











</g><g
       id="g5252"
       transform="matrix(0.8795983,0,0,0.8795983,113.50435,263.01703)"
       style="text-align:center;text-anchor:middle"><text
   id="text5254"
   transform="scale(1,-1)"
   x="97.68399"
   y="-387.017"
   style="text-align:center;text-anchor:middle"><tspan
     id="tspan5256"
     sodipodi:role="line"
     y="-387.017"
     x="97.68399"
     style="font-size:14px;font-style:normal;font-variant:normal;font-weight:normal;text-align:center;writing-mode:lr-tb;text-anchor:middle;fill:#231f20;fill-opacity:1;fill-rule:nonzero;stroke:none;font-family:Helvetica;-inkscape-font-specification:Helvetica-Oblique">Second To Find</tspan><tspan
     sodipodi:role="line"
     y="-369.517"
     x="97.68399"
     style="font-size:14px;font-style:normal;font-variant:normal;font-weight:normal;text-align:center;writing-mode:lr-tb;text-anchor:middle;fill:#231f20;fill-opacity:1;fill-rule:nonzero;stroke:none;font-family:Helvetica;-inkscape-font-specification:Helvetica-Oblique"
     id="tspan5258">Drugi znalazca</tspan></text>











</g><g
       id="g5260"
       transform="matrix(0.8795983,0,0,0.8795983,113.50435,173.15063)"
       style="text-align:center;text-anchor:middle"><text
   id="text5262"
   transform="scale(1,-1)"
   x="97.68399"
   y="-387.017"
   style="text-align:center;text-anchor:middle"><tspan
     id="tspan5264"
     sodipodi:role="line"
     y="-387.017"
     x="97.68399"
     style="font-size:14px;font-style:normal;font-variant:normal;font-weight:normal;text-align:center;writing-mode:lr-tb;text-anchor:middle;fill:#231f20;fill-opacity:1;fill-rule:nonzero;stroke:none;font-family:Helvetica;-inkscape-font-specification:Helvetica-Oblique">Third To Find</tspan><tspan
     sodipodi:role="line"
     y="-369.517"
     x="97.68399"
     style="font-size:14px;font-style:normal;font-variant:normal;font-weight:normal;text-align:center;writing-mode:lr-tb;text-anchor:middle;fill:#231f20;fill-opacity:1;fill-rule:nonzero;stroke:none;font-family:Helvetica;-inkscape-font-specification:Helvetica-Oblique"
     id="tspan5266">Trzeci znalazca</tspan></text>











</g></g></svg>