<?xml version="1.0" encoding="UTF-8" standalone="no"?>
<!-- Created with Inkscape (http://www.inkscape.org/) -->
<svg
   xmlns:dc="http://purl.org/dc/elements/1.1/"
   xmlns:cc="http://creativecommons.org/ns#"
   xmlns:rdf="http://www.w3.org/1999/02/22-rdf-syntax-ns#"
   xmlns:svg="http://www.w3.org/2000/svg"
   xmlns="http://www.w3.org/2000/svg"
   xmlns:xlink="http://www.w3.org/1999/xlink"
   xmlns:sodipodi="http://sodipodi.sourceforge.net/DTD/sodipodi-0.dtd"
   xmlns:inkscape="http://www.inkscape.org/namespaces/inkscape"
   id="svg2"
   sodipodi:version="0.32"
   inkscape:version="0.46"
   width="743.75"
   height="1052.5"
   xml:space="preserve"
   sodipodi:docname="Logbook-A6-_dwustronny_by_rushcore_page4.svg"
   inkscape:output_extension="org.inkscape.output.svg.inkscape"><metadata
     id="metadata7"><rdf:RDF><cc:Work
         rdf:about=""><dc:format>image/svg+xml</dc:format><dc:type
           rdf:resource="http://purl.org/dc/dcmitype/StillImage" /></cc:Work></rdf:RDF></metadata><defs
     id="defs5"><inkscape:perspective
   sodipodi:type="inkscape:persp3d"
   inkscape:vp_x="0 : 526.18109 : 1"
   inkscape:vp_y="0 : 1000 : 0"
   inkscape:vp_z="744.09448 : 526.18109 : 1"
   inkscape:persp3d-origin="372.04724 : 350.78739 : 1"
   id="perspective9" /><clipPath
   clipPathUnits="userSpaceOnUse"
   id="clipPath19"><path
     d="M 0,2.66016 L 4958,2.66016 L 4958,7014.68 L 0,7014.68 L 0,2.66016"
     id="path21" /></clipPath><clipPath
   clipPathUnits="userSpaceOnUse"
   id="clipPath355"><path
     d="M 2992.5,5003.15 L 3778.94,5003.15 L 3778.94,5853.09 L 2992.5,5853.09 L 2992.5,5003.15"
     id="path357" /></clipPath><clipPath
   clipPathUnits="userSpaceOnUse"
   id="clipPath399"><path
     d="M 0,2.66016 L 4958,2.66016 L 4958,7014.68 L 0,7014.68 L 0,2.66016"
     id="path401" /></clipPath><clipPath
   clipPathUnits="userSpaceOnUse"
   id="clipPath505"><path
     d="M 822.695,1464.98 L 2346.69,1464.98 L 2346.69,3112.03 L 822.695,3112.03 L 822.695,1464.98"
     id="path507" /></clipPath><clipPath
   clipPathUnits="userSpaceOnUse"
   id="clipPath549"><path
     d="M 0,2.66016 L 4958,2.66016 L 4958,7014.68 L 0,7014.68 L 0,2.66016"
     id="path551" /></clipPath>



























<inkscape:perspective
   id="perspective50971"
   inkscape:persp3d-origin="187.5 : 101.66667 : 1"
   inkscape:vp_z="375 : 152.5 : 1"
   inkscape:vp_y="0 : 1000 : 0"
   inkscape:vp_x="0 : 152.5 : 1"
   sodipodi:type="inkscape:persp3d" /><inkscape:perspective
   id="perspective3364"
   inkscape:persp3d-origin="372.04724 : 350.78739 : 1"
   inkscape:vp_z="744.09448 : 526.18109 : 1"
   inkscape:vp_y="0 : 1000 : 0"
   inkscape:vp_x="0 : 526.18109 : 1"
   sodipodi:type="inkscape:persp3d" /></defs><sodipodi:namedview
     inkscape:window-height="673"
     inkscape:window-width="907"
     inkscape:pageshadow="2"
     inkscape:pageopacity="1"
     guidetolerance="10.0"
     gridtolerance="10.0"
     objecttolerance="10.0"
     borderopacity="1.0"
     bordercolor="#666666"
     pagecolor="#ffffff"
     id="base"
     showgrid="false"
     inkscape:zoom="1.5635534"
     inkscape:cx="380.9685"
     inkscape:cy="751.16057"
     inkscape:window-x="348"
     inkscape:window-y="66"
     inkscape:current-layer="g11" /><g
     id="g11"
     inkscape:groupmode="layer"
     inkscape:label="Logbook-A7-_dwustronny_by_Maciuh"
     transform="matrix(1.25,0,0,-1.25,0,1052.5)"><path
   id="path23"
   style="fill:none;stroke:#231f20;stroke-width:0.49973401;stroke-linecap:butt;stroke-linejoin:miter;stroke-miterlimit:4;stroke-dasharray:2.02392, 2.02392;stroke-dashoffset:0;stroke-opacity:1"
   d="M 91.36824,85.28016 L 133.866,85.28016" /><g
   id="g25"><text
   id="text27"
   transform="matrix(1,0,0,-1,142.365,81.6352)"><tspan
     id="tspan29"
     sodipodi:role="line"
     y="0"
     x="0 5.9967999 9.3310204 16.659111 19.993332 26.661774 29.995993 35.321152 38.655373 45.323814 50.648972 53.983192"
     style="font-size:11.99359989px;font-variant:normal;font-weight:normal;writing-mode:lr-tb;fill:#231f20;fill-opacity:1;fill-rule:nonzero;stroke:none;font-family:FrutigerPl;-inkscape-font-specification:FrutigerPl-Roman">Linie cięcia</tspan></text>







</g><path
   id="path35"
   style="fill:none;stroke:#231f20;stroke-width:0.49973401;stroke-linecap:butt;stroke-linejoin:miter;stroke-miterlimit:4;stroke-dasharray:2.02392, 2.02392;stroke-dashoffset:0;stroke-opacity:1"
   d="M 24.64776,718.4868 L 67.14516,718.4868" /><path
   id="path37"
   style="fill:none;stroke:#231f20;stroke-width:0.49973401;stroke-linecap:butt;stroke-linejoin:miter;stroke-miterlimit:4;stroke-dasharray:2.02392, 2.02392;stroke-dashoffset:0;stroke-opacity:1"
   d="M 82.3824,733.752 L 82.3824,776.25" /><path
   id="path39"
   style="fill:none;stroke:#231f20;stroke-width:0.49973401;stroke-linecap:butt;stroke-linejoin:miter;stroke-miterlimit:4;stroke-dasharray:2.02392, 2.02392;stroke-dashoffset:0;stroke-opacity:1"
   d="M 512.5488,776.7204 L 512.5488,734.2224" /><path
   id="path41"
   style="fill:none;stroke:#231f20;stroke-width:0.49973401;stroke-linecap:butt;stroke-linejoin:miter;stroke-miterlimit:4;stroke-dasharray:2.02392, 2.02392;stroke-dashoffset:0;stroke-opacity:1"
   d="M 527.814,718.986 L 570.3108,718.986" /><path
   id="path43"
   style="fill:none;stroke:#231f20;stroke-width:0.49973401;stroke-linecap:butt;stroke-linejoin:miter;stroke-miterlimit:4;stroke-dasharray:2.02392, 2.02392;stroke-dashoffset:0;stroke-opacity:1"
   d="M 82.41144,66.33612 L 82.41144,108.8334" /><path
   id="path47"
   style="fill:none;stroke:#231f20;stroke-width:0.49973401;stroke-linecap:butt;stroke-linejoin:miter;stroke-miterlimit:4;stroke-dasharray:2.02392, 2.02392;stroke-dashoffset:0;stroke-opacity:1"
   d="M 570.3108,124.0464 L 527.814,124.0464" /><path
   id="path49"
   style="fill:none;stroke:#231f20;stroke-width:0.49973401;stroke-linecap:butt;stroke-linejoin:miter;stroke-miterlimit:4;stroke-dasharray:2.02392, 2.02392;stroke-dashoffset:0;stroke-opacity:1"
   d="M 512.5764,108.78144 L 512.5764,66.28404" /><path
   id="path53"
   style="fill:none;stroke:#231f20;stroke-width:0.49973401;stroke-linecap:round;stroke-linejoin:round;stroke-miterlimit:4;stroke-dasharray:none;stroke-opacity:1"
   d="M 297.48,789.0324 L 297.48,789.0324 M 297.48,816.8628 L 297.48,816.8628" /><path
   id="path57"
   style="fill:none;stroke:#231f20;stroke-width:0.49973401;stroke-linecap:round;stroke-linejoin:round;stroke-miterlimit:4;stroke-dasharray:none;stroke-opacity:1"
   d="M 297.48,25.21692 L 297.48,25.21692 M 297.48,53.04936 L 297.48,53.04936" /><path
   id="path59"
   style="fill:none;stroke:#231f20;stroke-width:0.49973401;stroke-linecap:round;stroke-linejoin:round;stroke-miterlimit:4;stroke-dasharray:0, 0.9884748;stroke-dashoffset:0;stroke-opacity:1"
   d="M 92.10708,58.86516 L 133.122,58.86516" /><path
   id="path61"
   style="fill:none;stroke:#231f20;stroke-width:0.49973401;stroke-linecap:round;stroke-linejoin:round;stroke-miterlimit:4;stroke-dasharray:none;stroke-opacity:1"
   d="M 91.1184,58.86516 L 91.1184,58.86516 M 133.6152,58.86516 L 133.6152,58.86516" /><g
   id="g63"><text
   id="text65"
   transform="matrix(1,0,0,-1,142.365,54.4833)"><tspan
     id="tspan67"
     sodipodi:role="line"
     y="0"
     x="0 8.659379 11.9936 18.662041 21.996262 28.664703 35.992794 42.661236 49.329678 56.657768 59.991985 68.651367 77.310745 81.976257 85.310478 89.97599 94.641495 99.307007"
     style="font-size:11.99359989px;font-variant:normal;font-weight:normal;writing-mode:lr-tb;fill:#ed1c24;fill-opacity:1;fill-rule:nonzero;stroke:none;font-family:FrutigerPl;-inkscape-font-specification:FrutigerPl-Roman">NIE PRZECINAJ !!!!</tspan></text>







</g><image
   y="170.56319"
   x="448.84003"
   id="image3366"
   height="253.8336"
   width="241.88"
   sodipodi:absref="/home/rush/logo2.png"
   xml:id="bglogo"
   xlink:href="logo2.png"
   transform="matrix(0,1,1,0,0,0)" /><path
   sodipodi:nodetypes="ccccc"
   id="path499"
   style="fill:none;stroke:#231f20;stroke-width:0.49973401;stroke-linecap:butt;stroke-linejoin:miter;stroke-miterlimit:4;stroke-dasharray:none;stroke-opacity:1"
   d="M 82.4112,123.81 L 512.2764,123.81 L 512.2764,420.7908 L 82.4112,420.7908 L 82.4112,123.81 z" /><image
   y="170.427"
   x="151.3604"
   id="image3370"
   height="253.8336"
   width="241.88"
   sodipodi:absref="/home/rush/logo2.png"
   xml:id="bglogo2"
   xlink:href="logo2.png"
   transform="matrix(0,1,1,0,0,0)" /><path
   sodipodi:nodetypes="ccccc"
   id="path423"
   style="fill:none;stroke:#231f20;stroke-width:0.49973401;stroke-linecap:butt;stroke-linejoin:miter;stroke-miterlimit:4;stroke-dasharray:none;stroke-opacity:1"
   d="M 82.4112,421.29 L 512.5488,421.29 L 512.5488,718.2696 L 82.4112,718.2696 L 82.4112,421.29 z" /><text
   transform="scale(1,-1)"
   id="text661"
   x="538.297"
   y="-34.8759"><tspan
     style="font-size:17.99040031px;font-variant:normal;font-weight:normal;writing-mode:lr-tb;fill:#231f20;fill-opacity:1;fill-rule:nonzero;stroke:none;font-family:TimesNewRomanPSMT;-inkscape-font-specification:TimesNewRomanPSMT"
     x="538.297"
     y="-34.8759"
     sodipodi:role="line"
     id="tspan663">N4</tspan></text>




<text
   transform="scale(1,-1)"
   id="text677"
   x="502.177"
   y="-74.929626"><tspan
     style="font-size:7.99574995px;font-variant:normal;font-weight:normal;writing-mode:lr-tb;fill:#231f20;fill-opacity:1;fill-rule:nonzero;stroke:none;font-family:Helvetica;-inkscape-font-specification:Helvetica"
     x="502.177"
     y="-74.929626"
     id="tspan679">-</tspan></text>




<text
   transform="scale(1,-1)"
   id="text693"
   x="24.649"
   y="-33.873444"><tspan
     style="font-size:7.99574995px;font-variant:normal;font-weight:normal;writing-mode:lr-tb;fill:#231f20;fill-opacity:1;fill-rule:nonzero;stroke:none;font-family:TimesNewRomanPSMT;-inkscape-font-specification:TimesNewRomanPSMT"
     sodipodi:role="line"
     id="tspan695"
     x="24.649"
     y="-33.873444">Original design by </tspan></text>




<text
   transform="scale(1,-1)"
   id="text697"
   x="107.2948"
   y="-33.873444"><tspan
     style="font-size:7.99574995px;font-variant:normal;font-weight:500;writing-mode:lr-tb;fill:#231f20;fill-opacity:1;fill-rule:nonzero;stroke:none;font-family:BankGothicBT;-inkscape-font-specification:BankGothicBT-Medium"
     x="107.2948 113.28358 118.83264 124.02988 126.35664 131.5219 137.21487 144.61893 149.34439 154.06189 159.57095 164.87213 167.1989 172.15628 174.80286 179.95212 185.66908"
     y="-33.873444"
     sodipodi:role="line"
     id="tspan699">AdrianMatusik.com</tspan></text>




<path
   id="path349"
   style="fill:none;stroke:#231f20;stroke-width:0.49973401;stroke-linecap:butt;stroke-linejoin:miter;stroke-miterlimit:4;stroke-dasharray:none;stroke-opacity:1"
   d="M 82.41144,421.29 L 297.23064,421.29 L 82.41144,421.29 z"
   sodipodi:nodetypes="ccc" /><path
   id="path45"
   style="fill:none;stroke:#231f20;stroke-width:0.49973401;stroke-linecap:butt;stroke-linejoin:miter;stroke-miterlimit:4;stroke-dasharray:2.02392, 2.02392;stroke-dashoffset:0;stroke-opacity:1"
   d="M 67.14516,124.0704 L 24.64776,124.0704" /><path
   id="path14072"
   style="fill:none;stroke:#231f20;stroke-width:0.49973401;stroke-linecap:round;stroke-linejoin:round;stroke-miterlimit:4;stroke-dasharray:0, 0.9884748;stroke-dashoffset:0;stroke-opacity:1"
   d="M 7.819985,421.50587 L 48.834904,421.50587" /><path
   id="path14074"
   style="fill:none;stroke:#231f20;stroke-width:0.49973401;stroke-linecap:round;stroke-linejoin:round;stroke-miterlimit:4;stroke-dasharray:0, 0.9884748;stroke-dashoffset:0;stroke-opacity:1"
   d="M 547.36424,421.50587 L 588.37916,421.50587" />








<g
   id="g47598"
   transform="matrix(-1,0,0,-1,595.19524,1138.3806)"><g
     transform="translate(0,2.1740574)"
     id="g42875"><path
       id="path553"
       style="fill:#231f20;fill-opacity:1;fill-rule:nonzero;stroke:none"
       d="M 494.65311,705.36863 L 494.65311,428.66379 L 495.78938,428.66379 L 495.78938,705.36863 L 494.65311,705.36863 z"
       sodipodi:nodetypes="ccccc" /><path
       id="path555"
       style="fill:#231f20;fill-opacity:1;fill-rule:nonzero;stroke:none"
       d="M 419.92136,705.36863 L 419.92136,428.66379 L 421.05763,428.66379 L 421.05763,705.36863 L 419.92136,705.36863 z"
       sodipodi:nodetypes="ccccc" /><path
       id="path557"
       style="fill:#231f20;fill-opacity:1;fill-rule:nonzero;stroke:none"
       d="M 420.02886,705.36863 L 420.02886,704.23299 L 495.78922,704.23299 L 495.78922,705.36863 L 420.02886,705.36863 z" /><path
       id="path559"
       style="fill:#231f20;fill-opacity:1;fill-rule:nonzero;stroke:none"
       d="M 420.02886,429.80022 L 420.02886,428.66395 L 495.78922,428.66395 L 495.78922,429.80022 L 420.02886,429.80022 z"
       sodipodi:nodetypes="ccccc" /><path
       id="path561"
       style="fill:#231f20;fill-opacity:1;fill-rule:nonzero;stroke:none"
       d="M 467.44817,705.36863 L 467.44817,428.66379 L 468.58381,428.66379 L 468.58381,705.36863 L 467.44817,705.36863 z"
       sodipodi:nodetypes="ccccc" /><g
       id="g563"
       transform="matrix(0,-1.3370358,1.3370358,0,-45.564458,837.17731)"><text
   id="text565"
   transform="matrix(1,0,0,-1,101.734,385.667)"><tspan
     id="tspan567"
     sodipodi:role="line"
     y="0"
     x="0 3.8899317 5.4431057 8.941246 12.439385 14.384352 16.329317 20.21925 22.549011 28.376911 32.266842 33.820019"
     style="font-size:6.99628019px;font-style:oblique;font-variant:normal;writing-mode:lr-tb;fill:#231f20;fill-opacity:1;fill-rule:nonzero;stroke:none;font-family:Helvetica;-inkscape-font-specification:Helvetica-Oblique">nick, e-mail</tspan></text>





</g><path
       id="path569"
       style="fill:#231f20;fill-opacity:1;fill-rule:nonzero;stroke:none"
       d="M 467.64392,530.47198 L 467.64392,529.33635 L 495.51983,529.33635 L 495.51983,530.47198 L 467.64392,530.47198 z" /><g
       id="g571"
       transform="matrix(0,-1.3370358,1.3370358,0,-45.564458,789.17731)"><text
   id="text573"
   transform="matrix(1,0,0,-1,230.84,385.491)"><tspan
     id="tspan575"
     sodipodi:role="line"
     y="0"
     x="0 3.8899317 7.7798634 9.7248297 13.614761 15.559727 17.504692 19.449659 23.33959 27.229523 29.174488"
     style="font-size:6.99628019px;font-style:oblique;font-variant:normal;writing-mode:lr-tb;fill:#231f20;fill-opacity:1;fill-rule:nonzero;stroke:none;font-family:Helvetica;-inkscape-font-specification:Helvetica-Oblique">data / date</tspan><tspan
     y="0"
     x="0"
     id="tspan577"
     sodipodi:role="line"
     style="font-size:6.99628019px;font-style:oblique;font-variant:normal;writing-mode:lr-tb;fill:#231f20;fill-opacity:1;fill-rule:nonzero;stroke:none;font-family:Helvetica;-inkscape-font-specification:Helvetica-Oblique" /></text>





</g><g
       id="g42869"
       transform="matrix(0,-1.3370358,1.3370358,0,-92.839772,837.17731)"><text
   id="text42871"
   transform="matrix(1,0,0,-1,101.734,385.667)"><tspan
     id="tspan42873"
     sodipodi:role="line"
     style="font-size:6.99628019px;font-style:oblique;font-variant:normal;writing-mode:lr-tb;fill:#231f20;fill-opacity:1;fill-rule:nonzero;stroke:none;font-family:Helvetica;-inkscape-font-specification:Helvetica-Oblique"
     x="0"
     y="0">uwagi / notes</tspan></text>





</g></g><g
     transform="translate(-80,2.17408)"
     id="g42893"><path
       id="path42895"
       style="fill:#231f20;fill-opacity:1;fill-rule:nonzero;stroke:none"
       d="M 494.65311,705.36863 L 494.65311,428.66379 L 495.78938,428.66379 L 495.78938,705.36863 L 494.65311,705.36863 z"
       sodipodi:nodetypes="ccccc" /><path
       id="path42897"
       style="fill:#231f20;fill-opacity:1;fill-rule:nonzero;stroke:none"
       d="M 419.92136,705.36863 L 419.92136,428.66379 L 421.05763,428.66379 L 421.05763,705.36863 L 419.92136,705.36863 z"
       sodipodi:nodetypes="ccccc" /><path
       id="path42899"
       style="fill:#231f20;fill-opacity:1;fill-rule:nonzero;stroke:none"
       d="M 420.02886,705.36863 L 420.02886,704.23299 L 495.78922,704.23299 L 495.78922,705.36863 L 420.02886,705.36863 z" /><path
       id="path42901"
       style="fill:#231f20;fill-opacity:1;fill-rule:nonzero;stroke:none"
       d="M 420.02886,429.80022 L 420.02886,428.66395 L 495.78922,428.66395 L 495.78922,429.80022 L 420.02886,429.80022 z"
       sodipodi:nodetypes="ccccc" /><path
       id="path42903"
       style="fill:#231f20;fill-opacity:1;fill-rule:nonzero;stroke:none"
       d="M 467.44817,705.36863 L 467.44817,428.66379 L 468.58381,428.66379 L 468.58381,705.36863 L 467.44817,705.36863 z"
       sodipodi:nodetypes="ccccc" /><g
       id="g42905"
       transform="matrix(0,-1.3370358,1.3370358,0,-45.564458,837.17731)"><text
   id="text42907"
   transform="matrix(1,0,0,-1,101.734,385.667)"><tspan
     id="tspan42909"
     sodipodi:role="line"
     y="0"
     x="0 3.8899317 5.4431057 8.941246 12.439385 14.384352 16.329317 20.21925 22.549011 28.376911 32.266842 33.820019"
     style="font-size:6.99628019px;font-style:oblique;font-variant:normal;writing-mode:lr-tb;fill:#231f20;fill-opacity:1;fill-rule:nonzero;stroke:none;font-family:Helvetica;-inkscape-font-specification:Helvetica-Oblique">nick, e-mail</tspan></text>





</g><path
       id="path42911"
       style="fill:#231f20;fill-opacity:1;fill-rule:nonzero;stroke:none"
       d="M 467.64392,530.47198 L 467.64392,529.33635 L 495.51983,529.33635 L 495.51983,530.47198 L 467.64392,530.47198 z" /><g
       id="g42913"
       transform="matrix(0,-1.3370358,1.3370358,0,-45.564458,789.17731)"><text
   id="text42915"
   transform="matrix(1,0,0,-1,230.84,385.491)"><tspan
     id="tspan42917"
     sodipodi:role="line"
     y="0"
     x="0 3.8899317 7.7798634 9.7248297 13.614761 15.559727 17.504692 19.449659 23.33959 27.229523 29.174488"
     style="font-size:6.99628019px;font-style:oblique;font-variant:normal;writing-mode:lr-tb;fill:#231f20;fill-opacity:1;fill-rule:nonzero;stroke:none;font-family:Helvetica;-inkscape-font-specification:Helvetica-Oblique">data / date</tspan><tspan
     y="0"
     x="0"
     id="tspan42919"
     sodipodi:role="line"
     style="font-size:6.99628019px;font-style:oblique;font-variant:normal;writing-mode:lr-tb;fill:#231f20;fill-opacity:1;fill-rule:nonzero;stroke:none;font-family:Helvetica;-inkscape-font-specification:Helvetica-Oblique" /></text>





</g><g
       id="g42921"
       transform="matrix(0,-1.3370358,1.3370358,0,-92.839772,837.17731)"><text
   id="text42923"
   transform="matrix(1,0,0,-1,101.734,385.667)"><tspan
     id="tspan42925"
     sodipodi:role="line"
     style="font-size:6.99628019px;font-style:oblique;font-variant:normal;writing-mode:lr-tb;fill:#231f20;fill-opacity:1;fill-rule:nonzero;stroke:none;font-family:Helvetica;-inkscape-font-specification:Helvetica-Oblique"
     x="0"
     y="0">uwagi / notes</tspan></text>





</g></g><g
     transform="translate(-160,2.17408)"
     id="g42927"><path
       id="path42929"
       style="fill:#231f20;fill-opacity:1;fill-rule:nonzero;stroke:none"
       d="M 494.65311,705.36863 L 494.65311,428.66379 L 495.78938,428.66379 L 495.78938,705.36863 L 494.65311,705.36863 z"
       sodipodi:nodetypes="ccccc" /><path
       id="path42931"
       style="fill:#231f20;fill-opacity:1;fill-rule:nonzero;stroke:none"
       d="M 419.92136,705.36863 L 419.92136,428.66379 L 421.05763,428.66379 L 421.05763,705.36863 L 419.92136,705.36863 z"
       sodipodi:nodetypes="ccccc" /><path
       id="path42933"
       style="fill:#231f20;fill-opacity:1;fill-rule:nonzero;stroke:none"
       d="M 420.02886,705.36863 L 420.02886,704.23299 L 495.78922,704.23299 L 495.78922,705.36863 L 420.02886,705.36863 z" /><path
       id="path42935"
       style="fill:#231f20;fill-opacity:1;fill-rule:nonzero;stroke:none"
       d="M 420.02886,429.80022 L 420.02886,428.66395 L 495.78922,428.66395 L 495.78922,429.80022 L 420.02886,429.80022 z"
       sodipodi:nodetypes="ccccc" /><path
       id="path42937"
       style="fill:#231f20;fill-opacity:1;fill-rule:nonzero;stroke:none"
       d="M 467.44817,705.36863 L 467.44817,428.66379 L 468.58381,428.66379 L 468.58381,705.36863 L 467.44817,705.36863 z"
       sodipodi:nodetypes="ccccc" /><g
       id="g42939"
       transform="matrix(0,-1.3370358,1.3370358,0,-45.564458,837.17731)"><text
   id="text42941"
   transform="matrix(1,0,0,-1,101.734,385.667)"><tspan
     id="tspan42943"
     sodipodi:role="line"
     y="0"
     x="0 3.8899317 5.4431057 8.941246 12.439385 14.384352 16.329317 20.21925 22.549011 28.376911 32.266842 33.820019"
     style="font-size:6.99628019px;font-style:oblique;font-variant:normal;writing-mode:lr-tb;fill:#231f20;fill-opacity:1;fill-rule:nonzero;stroke:none;font-family:Helvetica;-inkscape-font-specification:Helvetica-Oblique">nick, e-mail</tspan></text>





</g><path
       id="path42945"
       style="fill:#231f20;fill-opacity:1;fill-rule:nonzero;stroke:none"
       d="M 467.64392,530.47198 L 467.64392,529.33635 L 495.51983,529.33635 L 495.51983,530.47198 L 467.64392,530.47198 z" /><g
       id="g42947"
       transform="matrix(0,-1.3370358,1.3370358,0,-45.564458,789.17731)"><text
   id="text42949"
   transform="matrix(1,0,0,-1,230.84,385.491)"><tspan
     id="tspan42951"
     sodipodi:role="line"
     y="0"
     x="0 3.8899317 7.7798634 9.7248297 13.614761 15.559727 17.504692 19.449659 23.33959 27.229523 29.174488"
     style="font-size:6.99628019px;font-style:oblique;font-variant:normal;writing-mode:lr-tb;fill:#231f20;fill-opacity:1;fill-rule:nonzero;stroke:none;font-family:Helvetica;-inkscape-font-specification:Helvetica-Oblique">data / date</tspan><tspan
     y="0"
     x="0"
     id="tspan42953"
     sodipodi:role="line"
     style="font-size:6.99628019px;font-style:oblique;font-variant:normal;writing-mode:lr-tb;fill:#231f20;fill-opacity:1;fill-rule:nonzero;stroke:none;font-family:Helvetica;-inkscape-font-specification:Helvetica-Oblique" /></text>





</g><g
       id="g42955"
       transform="matrix(0,-1.3370358,1.3370358,0,-92.839772,837.17731)"><text
   id="text42957"
   transform="matrix(1,0,0,-1,101.734,385.667)"><tspan
     id="tspan42959"
     sodipodi:role="line"
     style="font-size:6.99628019px;font-style:oblique;font-variant:normal;writing-mode:lr-tb;fill:#231f20;fill-opacity:1;fill-rule:nonzero;stroke:none;font-family:Helvetica;-inkscape-font-specification:Helvetica-Oblique"
     x="0"
     y="0">uwagi / notes</tspan></text>





</g></g><g
     transform="translate(-240,2.17408)"
     id="g42961"><path
       id="path42963"
       style="fill:#231f20;fill-opacity:1;fill-rule:nonzero;stroke:none"
       d="M 494.65311,705.36863 L 494.65311,428.66379 L 495.78938,428.66379 L 495.78938,705.36863 L 494.65311,705.36863 z"
       sodipodi:nodetypes="ccccc" /><path
       id="path42965"
       style="fill:#231f20;fill-opacity:1;fill-rule:nonzero;stroke:none"
       d="M 419.92136,705.36863 L 419.92136,428.66379 L 421.05763,428.66379 L 421.05763,705.36863 L 419.92136,705.36863 z"
       sodipodi:nodetypes="ccccc" /><path
       id="path42967"
       style="fill:#231f20;fill-opacity:1;fill-rule:nonzero;stroke:none"
       d="M 420.02886,705.36863 L 420.02886,704.23299 L 495.78922,704.23299 L 495.78922,705.36863 L 420.02886,705.36863 z" /><path
       id="path42969"
       style="fill:#231f20;fill-opacity:1;fill-rule:nonzero;stroke:none"
       d="M 420.02886,429.80022 L 420.02886,428.66395 L 495.78922,428.66395 L 495.78922,429.80022 L 420.02886,429.80022 z"
       sodipodi:nodetypes="ccccc" /><path
       id="path42971"
       style="fill:#231f20;fill-opacity:1;fill-rule:nonzero;stroke:none"
       d="M 467.44817,705.36863 L 467.44817,428.66379 L 468.58381,428.66379 L 468.58381,705.36863 L 467.44817,705.36863 z"
       sodipodi:nodetypes="ccccc" /><g
       id="g42973"
       transform="matrix(0,-1.3370358,1.3370358,0,-45.564458,837.17731)"><text
   id="text42975"
   transform="matrix(1,0,0,-1,101.734,385.667)"><tspan
     id="tspan42977"
     sodipodi:role="line"
     y="0"
     x="0 3.8899317 5.4431057 8.941246 12.439385 14.384352 16.329317 20.21925 22.549011 28.376911 32.266842 33.820019"
     style="font-size:6.99628019px;font-style:oblique;font-variant:normal;writing-mode:lr-tb;fill:#231f20;fill-opacity:1;fill-rule:nonzero;stroke:none;font-family:Helvetica;-inkscape-font-specification:Helvetica-Oblique">nick, e-mail</tspan></text>





</g><path
       id="path42979"
       style="fill:#231f20;fill-opacity:1;fill-rule:nonzero;stroke:none"
       d="M 467.64392,530.47198 L 467.64392,529.33635 L 495.51983,529.33635 L 495.51983,530.47198 L 467.64392,530.47198 z" /><g
       id="g42981"
       transform="matrix(0,-1.3370358,1.3370358,0,-45.564458,789.17731)"><text
   id="text42983"
   transform="matrix(1,0,0,-1,230.84,385.491)"><tspan
     id="tspan42985"
     sodipodi:role="line"
     y="0"
     x="0 3.8899317 7.7798634 9.7248297 13.614761 15.559727 17.504692 19.449659 23.33959 27.229523 29.174488"
     style="font-size:6.99628019px;font-style:oblique;font-variant:normal;writing-mode:lr-tb;fill:#231f20;fill-opacity:1;fill-rule:nonzero;stroke:none;font-family:Helvetica;-inkscape-font-specification:Helvetica-Oblique">data / date</tspan><tspan
     y="0"
     x="0"
     id="tspan42987"
     sodipodi:role="line"
     style="font-size:6.99628019px;font-style:oblique;font-variant:normal;writing-mode:lr-tb;fill:#231f20;fill-opacity:1;fill-rule:nonzero;stroke:none;font-family:Helvetica;-inkscape-font-specification:Helvetica-Oblique" /></text>





</g><g
       id="g42989"
       transform="matrix(0,-1.3370358,1.3370358,0,-92.839772,837.17731)"><text
   id="text42991"
   transform="matrix(1,0,0,-1,101.734,385.667)"><tspan
     id="tspan42993"
     sodipodi:role="line"
     style="font-size:6.99628019px;font-style:oblique;font-variant:normal;writing-mode:lr-tb;fill:#231f20;fill-opacity:1;fill-rule:nonzero;stroke:none;font-family:Helvetica;-inkscape-font-specification:Helvetica-Oblique"
     x="0"
     y="0">uwagi / notes</tspan></text>





</g></g><g
     transform="translate(-320,2.17408)"
     id="g42995"><path
       id="path42997"
       style="fill:#231f20;fill-opacity:1;fill-rule:nonzero;stroke:none"
       d="M 494.65311,705.36863 L 494.65311,428.66379 L 495.78938,428.66379 L 495.78938,705.36863 L 494.65311,705.36863 z"
       sodipodi:nodetypes="ccccc" /><path
       id="path42999"
       style="fill:#231f20;fill-opacity:1;fill-rule:nonzero;stroke:none"
       d="M 419.92136,705.36863 L 419.92136,428.66379 L 421.05763,428.66379 L 421.05763,705.36863 L 419.92136,705.36863 z"
       sodipodi:nodetypes="ccccc" /><path
       id="path43001"
       style="fill:#231f20;fill-opacity:1;fill-rule:nonzero;stroke:none"
       d="M 420.02886,705.36863 L 420.02886,704.23299 L 495.78922,704.23299 L 495.78922,705.36863 L 420.02886,705.36863 z" /><path
       id="path43003"
       style="fill:#231f20;fill-opacity:1;fill-rule:nonzero;stroke:none"
       d="M 420.02886,429.80022 L 420.02886,428.66395 L 495.78922,428.66395 L 495.78922,429.80022 L 420.02886,429.80022 z"
       sodipodi:nodetypes="ccccc" /><path
       id="path43005"
       style="fill:#231f20;fill-opacity:1;fill-rule:nonzero;stroke:none"
       d="M 467.44817,705.36863 L 467.44817,428.66379 L 468.58381,428.66379 L 468.58381,705.36863 L 467.44817,705.36863 z"
       sodipodi:nodetypes="ccccc" /><g
       id="g43007"
       transform="matrix(0,-1.3370358,1.3370358,0,-45.564458,837.17731)"><text
   id="text43009"
   transform="matrix(1,0,0,-1,101.734,385.667)"><tspan
     id="tspan43011"
     sodipodi:role="line"
     y="0"
     x="0 3.8899317 5.4431057 8.941246 12.439385 14.384352 16.329317 20.21925 22.549011 28.376911 32.266842 33.820019"
     style="font-size:6.99628019px;font-style:oblique;font-variant:normal;writing-mode:lr-tb;fill:#231f20;fill-opacity:1;fill-rule:nonzero;stroke:none;font-family:Helvetica;-inkscape-font-specification:Helvetica-Oblique">nick, e-mail</tspan></text>





</g><path
       id="path43013"
       style="fill:#231f20;fill-opacity:1;fill-rule:nonzero;stroke:none"
       d="M 467.64392,530.47198 L 467.64392,529.33635 L 495.51983,529.33635 L 495.51983,530.47198 L 467.64392,530.47198 z" /><g
       id="g43015"
       transform="matrix(0,-1.3370358,1.3370358,0,-45.564458,789.17731)"><text
   id="text43017"
   transform="matrix(1,0,0,-1,230.84,385.491)"><tspan
     id="tspan43019"
     sodipodi:role="line"
     y="0"
     x="0 3.8899317 7.7798634 9.7248297 13.614761 15.559727 17.504692 19.449659 23.33959 27.229523 29.174488"
     style="font-size:6.99628019px;font-style:oblique;font-variant:normal;writing-mode:lr-tb;fill:#231f20;fill-opacity:1;fill-rule:nonzero;stroke:none;font-family:Helvetica;-inkscape-font-specification:Helvetica-Oblique">data / date</tspan><tspan
     y="0"
     x="0"
     id="tspan43021"
     sodipodi:role="line"
     style="font-size:6.99628019px;font-style:oblique;font-variant:normal;writing-mode:lr-tb;fill:#231f20;fill-opacity:1;fill-rule:nonzero;stroke:none;font-family:Helvetica;-inkscape-font-specification:Helvetica-Oblique" /></text>





</g><g
       id="g43023"
       transform="matrix(0,-1.3370358,1.3370358,0,-92.839772,837.17731)"><text
   id="text43025"
   transform="matrix(1,0,0,-1,101.734,385.667)"><tspan
     id="tspan43027"
     sodipodi:role="line"
     style="font-size:6.99628019px;font-style:oblique;font-variant:normal;writing-mode:lr-tb;fill:#231f20;fill-opacity:1;fill-rule:nonzero;stroke:none;font-family:Helvetica;-inkscape-font-specification:Helvetica-Oblique"
     x="0"
     y="0">uwagi / notes</tspan></text>





</g></g></g><path
   id="path45933"
   style="fill:#231f20;fill-opacity:1;fill-rule:nonzero;stroke:none"
   d="M 148.54213,134.96037 L 148.54213,411.66521 L 147.40586,411.66521 L 147.40586,134.96037 L 148.54213,134.96037 z"
   sodipodi:nodetypes="ccccc" /><path
   id="path45935"
   style="fill:#231f20;fill-opacity:1;fill-rule:nonzero;stroke:none"
   d="M 223.27388,134.96037 L 223.27388,411.66521 L 222.13761,411.66521 L 222.13761,134.96037 L 223.27388,134.96037 z"
   sodipodi:nodetypes="ccccc" /><path
   id="path45937"
   style="fill:#231f20;fill-opacity:1;fill-rule:nonzero;stroke:none"
   d="M 223.16638,134.96037 L 223.16638,136.09601 L 147.40602,136.09601 L 147.40602,134.96037 L 223.16638,134.96037 z" /><path
   id="path45939"
   style="fill:#231f20;fill-opacity:1;fill-rule:nonzero;stroke:none"
   d="M 223.16638,410.52878 L 223.16638,411.66505 L 147.40602,411.66505 L 147.40602,410.52878 L 223.16638,410.52878 z"
   sodipodi:nodetypes="ccccc" /><path
   id="path45941"
   style="fill:#231f20;fill-opacity:1;fill-rule:nonzero;stroke:none"
   d="M 175.74707,134.96037 L 175.74707,411.66521 L 174.61143,411.66521 L 174.61143,134.96037 L 175.74707,134.96037 z"
   sodipodi:nodetypes="ccccc" /><g
   id="g45943"
   transform="matrix(0,1.3370358,-1.3370358,0,688.7597,3.15169)"><text
   id="text45945"
   transform="matrix(1,0,0,-1,101.734,385.667)"><tspan
     id="tspan45947"
     sodipodi:role="line"
     y="0"
     x="0 3.8899317 5.4431057 8.941246 12.439385 14.384352 16.329317 20.21925 22.549011 28.376911 32.266842 33.820019"
     style="font-size:6.99628019px;font-style:oblique;font-variant:normal;writing-mode:lr-tb;fill:#231f20;fill-opacity:1;fill-rule:nonzero;stroke:none;font-family:Helvetica;-inkscape-font-specification:Helvetica-Oblique">nick, e-mail</tspan></text>





</g><path
   id="path45949"
   style="fill:#231f20;fill-opacity:1;fill-rule:nonzero;stroke:none"
   d="M 175.55132,309.85702 L 175.55132,310.99265 L 147.67541,310.99265 L 147.67541,309.85702 L 175.55132,309.85702 z" /><g
   id="g45951"
   transform="matrix(0,1.3370358,-1.3370358,0,688.7597,51.15169)"><text
   id="text45953"
   transform="matrix(1,0,0,-1,230.84,385.491)"><tspan
     id="tspan45955"
     sodipodi:role="line"
     y="0"
     x="0 3.8899317 7.7798634 9.7248297 13.614761 15.559727 17.504692 19.449659 23.33959 27.229523 29.174488"
     style="font-size:6.99628019px;font-style:oblique;font-variant:normal;writing-mode:lr-tb;fill:#231f20;fill-opacity:1;fill-rule:nonzero;stroke:none;font-family:Helvetica;-inkscape-font-specification:Helvetica-Oblique">data / date</tspan><tspan
     y="0"
     x="0"
     id="tspan45957"
     sodipodi:role="line"
     style="font-size:6.99628019px;font-style:oblique;font-variant:normal;writing-mode:lr-tb;fill:#231f20;fill-opacity:1;fill-rule:nonzero;stroke:none;font-family:Helvetica;-inkscape-font-specification:Helvetica-Oblique" /></text>





</g><g
   id="g45959"
   transform="matrix(0,1.3370358,-1.3370358,0,736.03501,3.15169)"><text
   id="text45961"
   transform="matrix(1,0,0,-1,101.734,385.667)"><tspan
     id="tspan45963"
     sodipodi:role="line"
     style="font-size:6.99628019px;font-style:oblique;font-variant:normal;writing-mode:lr-tb;fill:#231f20;fill-opacity:1;fill-rule:nonzero;stroke:none;font-family:Helvetica;-inkscape-font-specification:Helvetica-Oblique"
     x="0"
     y="0">uwagi / notes</tspan></text>





</g><g
   id="g45999"
   transform="matrix(-1,0,0,-1,787.19524,840.329)"><path
     sodipodi:nodetypes="ccccc"
     d="M 494.65311,705.36863 L 494.65311,428.66379 L 495.78938,428.66379 L 495.78938,705.36863 L 494.65311,705.36863 z"
     style="fill:#231f20;fill-opacity:1;fill-rule:nonzero;stroke:none"
     id="path46001" /><path
     sodipodi:nodetypes="ccccc"
     d="M 419.92136,705.36863 L 419.92136,428.66379 L 421.05763,428.66379 L 421.05763,705.36863 L 419.92136,705.36863 z"
     style="fill:#231f20;fill-opacity:1;fill-rule:nonzero;stroke:none"
     id="path46003" /><path
     d="M 420.02886,705.36863 L 420.02886,704.23299 L 495.78922,704.23299 L 495.78922,705.36863 L 420.02886,705.36863 z"
     style="fill:#231f20;fill-opacity:1;fill-rule:nonzero;stroke:none"
     id="path46005" /><path
     sodipodi:nodetypes="ccccc"
     d="M 420.02886,429.80022 L 420.02886,428.66395 L 495.78922,428.66395 L 495.78922,429.80022 L 420.02886,429.80022 z"
     style="fill:#231f20;fill-opacity:1;fill-rule:nonzero;stroke:none"
     id="path46007" /><path
     sodipodi:nodetypes="ccccc"
     d="M 467.44817,705.36863 L 467.44817,428.66379 L 468.58381,428.66379 L 468.58381,705.36863 L 467.44817,705.36863 z"
     style="fill:#231f20;fill-opacity:1;fill-rule:nonzero;stroke:none"
     id="path46009" /><g
     transform="matrix(0,-1.3370358,1.3370358,0,-45.564458,837.17731)"
     id="g46011"><text
   transform="matrix(1,0,0,-1,101.734,385.667)"
   id="text46013"><tspan
     style="font-size:6.99628019px;font-style:oblique;font-variant:normal;writing-mode:lr-tb;fill:#231f20;fill-opacity:1;fill-rule:nonzero;stroke:none;font-family:Helvetica;-inkscape-font-specification:Helvetica-Oblique"
     x="0 3.8899317 5.4431057 8.941246 12.439385 14.384352 16.329317 20.21925 22.549011 28.376911 32.266842 33.820019"
     y="0"
     sodipodi:role="line"
     id="tspan46015">nick, e-mail</tspan></text>





</g><path
     d="M 467.64392,530.47198 L 467.64392,529.33635 L 495.51983,529.33635 L 495.51983,530.47198 L 467.64392,530.47198 z"
     style="fill:#231f20;fill-opacity:1;fill-rule:nonzero;stroke:none"
     id="path46017" /><g
     transform="matrix(0,-1.3370358,1.3370358,0,-45.564458,789.17731)"
     id="g46019"><text
   transform="matrix(1,0,0,-1,230.84,385.491)"
   id="text46021"><tspan
     style="font-size:6.99628019px;font-style:oblique;font-variant:normal;writing-mode:lr-tb;fill:#231f20;fill-opacity:1;fill-rule:nonzero;stroke:none;font-family:Helvetica;-inkscape-font-specification:Helvetica-Oblique"
     x="0 3.8899317 7.7798634 9.7248297 13.614761 15.559727 17.504692 19.449659 23.33959 27.229523 29.174488"
     y="0"
     sodipodi:role="line"
     id="tspan46023">data / date</tspan><tspan
     style="font-size:6.99628019px;font-style:oblique;font-variant:normal;writing-mode:lr-tb;fill:#231f20;fill-opacity:1;fill-rule:nonzero;stroke:none;font-family:Helvetica;-inkscape-font-specification:Helvetica-Oblique"
     sodipodi:role="line"
     id="tspan46025"
     x="0"
     y="0" /></text>





</g><g
     transform="matrix(0,-1.3370358,1.3370358,0,-92.839772,837.17731)"
     id="g46027"><text
   transform="matrix(1,0,0,-1,101.734,385.667)"
   id="text46029"><tspan
     y="0"
     x="0"
     style="font-size:6.99628019px;font-style:oblique;font-variant:normal;writing-mode:lr-tb;fill:#231f20;fill-opacity:1;fill-rule:nonzero;stroke:none;font-family:Helvetica;-inkscape-font-specification:Helvetica-Oblique"
     sodipodi:role="line"
     id="tspan46031">uwagi / notes</tspan></text>





</g></g><g
   id="g46067"
   transform="matrix(-1,0,0,-1,915.19524,840.329)"><path
     sodipodi:nodetypes="ccccc"
     d="M 494.65311,705.36863 L 494.65311,428.66379 L 495.78938,428.66379 L 495.78938,705.36863 L 494.65311,705.36863 z"
     style="fill:#231f20;fill-opacity:1;fill-rule:nonzero;stroke:none"
     id="path46069" /><path
     sodipodi:nodetypes="ccccc"
     d="M 419.92136,705.36863 L 419.92136,428.66379 L 421.05763,428.66379 L 421.05763,705.36863 L 419.92136,705.36863 z"
     style="fill:#231f20;fill-opacity:1;fill-rule:nonzero;stroke:none"
     id="path46071" /><path
     d="M 420.02886,705.36863 L 420.02886,704.23299 L 495.78922,704.23299 L 495.78922,705.36863 L 420.02886,705.36863 z"
     style="fill:#231f20;fill-opacity:1;fill-rule:nonzero;stroke:none"
     id="path46073" /><path
     sodipodi:nodetypes="ccccc"
     d="M 420.02886,429.80022 L 420.02886,428.66395 L 495.78922,428.66395 L 495.78922,429.80022 L 420.02886,429.80022 z"
     style="fill:#231f20;fill-opacity:1;fill-rule:nonzero;stroke:none"
     id="path46075" /><path
     sodipodi:nodetypes="ccccc"
     d="M 467.44817,705.36863 L 467.44817,428.66379 L 468.58381,428.66379 L 468.58381,705.36863 L 467.44817,705.36863 z"
     style="fill:#231f20;fill-opacity:1;fill-rule:nonzero;stroke:none"
     id="path46077" /><g
     transform="matrix(0,-1.3370358,1.3370358,0,-45.564458,837.17731)"
     id="g46079"><text
   transform="matrix(1,0,0,-1,101.734,385.667)"
   id="text46081"><tspan
     style="font-size:6.99628019px;font-style:oblique;font-variant:normal;writing-mode:lr-tb;fill:#231f20;fill-opacity:1;fill-rule:nonzero;stroke:none;font-family:Helvetica;-inkscape-font-specification:Helvetica-Oblique"
     x="0 3.8899317 5.4431057 8.941246 12.439385 14.384352 16.329317 20.21925 22.549011 28.376911 32.266842 33.820019"
     y="0"
     sodipodi:role="line"
     id="tspan46083">nick, e-mail</tspan></text>





</g><path
     d="M 467.64392,530.47198 L 467.64392,529.33635 L 495.51983,529.33635 L 495.51983,530.47198 L 467.64392,530.47198 z"
     style="fill:#231f20;fill-opacity:1;fill-rule:nonzero;stroke:none"
     id="path46085" /><g
     transform="matrix(0,-1.3370358,1.3370358,0,-45.564458,789.17731)"
     id="g46087"><text
   transform="matrix(1,0,0,-1,230.84,385.491)"
   id="text46089"><tspan
     style="font-size:6.99628019px;font-style:oblique;font-variant:normal;writing-mode:lr-tb;fill:#231f20;fill-opacity:1;fill-rule:nonzero;stroke:none;font-family:Helvetica;-inkscape-font-specification:Helvetica-Oblique"
     x="0 3.8899317 7.7798634 9.7248297 13.614761 15.559727 17.504692 19.449659 23.33959 27.229523 29.174488"
     y="0"
     sodipodi:role="line"
     id="tspan46091">data / date</tspan><tspan
     style="font-size:6.99628019px;font-style:oblique;font-variant:normal;writing-mode:lr-tb;fill:#231f20;fill-opacity:1;fill-rule:nonzero;stroke:none;font-family:Helvetica;-inkscape-font-specification:Helvetica-Oblique"
     sodipodi:role="line"
     id="tspan46093"
     x="0"
     y="-0" /></text>





</g><g
     transform="matrix(0,-1.3370358,1.3370358,0,-92.839772,837.17731)"
     id="g46095"><text
   transform="matrix(1,0,0,-1,101.734,385.667)"
   id="text46097"><tspan
     y="0"
     x="0"
     style="font-size:6.99628019px;font-style:oblique;font-variant:normal;writing-mode:lr-tb;fill:#231f20;fill-opacity:1;fill-rule:nonzero;stroke:none;font-family:Helvetica;-inkscape-font-specification:Helvetica-Oblique"
     sodipodi:role="line"
     id="tspan46099">uwagi / notes</tspan></text>





</g></g><path
   id="path50936"
   d="M 131.11811,201.73248 C 131.51034,200.2678 131.63645,198.70489 132.12154,197.28242 C 130.05581,199.69165 126.85949,199.55412 124.4265,201.16151 C 123.73763,201.67354 123.01558,202.09676 122.3619,202.69362 C 124.32321,201.71589 126.86785,202.13991 128.77115,201.01667 C 129.52718,200.58429 130.26065,199.96592 130.85446,199.2821 C 130.8461,199.50553 130.65268,199.70107 130.52351,199.89755 C 128.70291,201.72199 128.1938,204.10547 126.71465,206.07899 C 126.08473,206.86955 125.25926,207.59359 124.36649,207.94114 C 127.38705,207.5677 130.21817,204.56267 131.11811,201.73248 L 131.11811,201.73248 z"
   style="fill:#808000;stroke:#000000;stroke-opacity:1;stroke-width:0.24;stroke-miterlimit:4;stroke-dasharray:none" /><path
   id="path50938"
   d="M 118.88838,208.30515 C 120.15857,207.41251 121.34102,206.33269 122.63192,205.50802 C 121.60985,205.60002 120.35306,205.72109 119.38488,205.32296 C 117.29997,204.63303 115.18307,204.02688 112.89492,203.83133 L 112.01993,203.85828 C 114.35668,204.37748 115.96301,206.67294 118.58411,206.5281 C 119.21934,206.58067 119.75938,206.3842 120.31801,206.26525 L 120.3593,206.30468 L 120.2434,206.40809 C 118.95768,206.74847 117.60571,206.92026 116.40614,207.44955 C 114.67993,208.20174 112.9378,209.14097 110.85355,208.75824 C 113.31084,209.90232 116.59399,209.5557 118.88838,208.30515 L 118.88838,208.30515 z"
   style="fill:#808000;stroke:#000000;stroke-opacity:1;stroke-width:0.24;stroke-miterlimit:4;stroke-dasharray:none" /><path
   id="path50940"
   d="M 105.64945,206.89623 C 107.68929,208.4014 110.93998,208.73129 113.27977,207.63501 C 114.27132,207.22639 115.32791,206.93778 116.42539,206.77728 C 116.23608,206.70068 115.98159,206.68316 115.77064,206.61479 C 113.48036,206.01607 111.84815,203.85005 109.68883,202.95927 C 108.98271,202.67676 108.25309,202.43595 107.48657,202.3024 C 109.24703,203.25425 110.15633,205.60002 112.0964,206.23936 C 112.58706,206.50129 113.20012,206.48655 113.72769,206.64904 C 113.72769,206.68316 113.70233,206.71728 113.66768,206.71728 C 111.6692,206.43584 109.57758,206.52173 107.60392,206.79295 C 106.53485,206.77728 105.49784,206.67294 104.67032,206.07899 C 104.89222,206.45987 105.31842,206.63138 105.64945,206.89623 L 105.64945,206.89623 z"
   style="fill:#808000;stroke:#000000;stroke-opacity:1;stroke-width:0.24;stroke-miterlimit:4;stroke-dasharray:none" /><path
   id="path50942"
   d="M 105.25789,205.83499 C 107.04536,206.23033 108.78617,205.65285 110.59083,206.01607 L 110.60636,206.00253 C 108.69417,205.0301 107.79171,202.96564 106.26125,201.54517 C 105.35307,200.72196 104.24623,200.36405 103.07428,200.15815 C 105.03652,200.97207 105.4689,203.16835 107.12242,204.42925 C 107.50363,204.85115 108.03173,204.98881 108.46404,205.26083 L 108.42109,205.3053 C 106.87318,204.5802 105.13117,204.33726 103.48031,203.83133 C 102.76496,203.57803 102.06209,203.07529 101.61106,202.40077 C 101.94932,204.05595 103.67732,205.49049 105.25789,205.83499 L 105.25789,205.83499 z"
   style="fill:#808000;stroke:#000000;stroke-opacity:1;stroke-width:0.24;stroke-miterlimit:4;stroke-dasharray:none" /><path
   id="path50944"
   d="M 101.1585,201.40976 C 102.27417,202.65632 103.71874,203.22013 105.21547,203.58414 L 105.6908,203.79004 C 104.38954,201.98073 102.6403,200.3371 100.79289,199.18174 L 99.365386,197.77069 C 99.891359,199.01115 100.20532,200.34852 101.1585,201.40976 L 101.1585,201.40976 z"
   style="fill:#808000;stroke:#000000;stroke-opacity:1;stroke-width:0.24;stroke-miterlimit:4;stroke-dasharray:none" /><path
   id="path50946"
   d="M 99.602287,172.83424 C 100.69871,171.58356 102.08532,170.71614 103.37835,169.78832 C 104.40813,168.95662 105.08717,167.89272 105.97271,166.9499 C 104.91757,167.45888 103.6572,167.47747 102.68796,168.19939 C 100.89578,169.22664 100.26526,171.13153 99.602287,172.83424 L 99.602287,172.83424 z"
   style="fill:#808000;stroke:#000000;stroke-opacity:1;stroke-width:0.24;stroke-miterlimit:4;stroke-dasharray:none" /><path
   id="path50948"
   d="M 103.4203,165.9946 C 102.66413,166.60288 102.13863,167.37405 101.91673,168.24187 C 103.07428,166.55682 105.1487,166.66647 106.87318,166.13227 C 107.51086,165.96194 108.09837,165.66617 108.75205,165.51881 L 108.78617,165.56169 C 108.04719,165.84207 107.34897,166.33485 106.746,166.9499 C 105.64122,168.14668 104.95269,169.9171 103.31841,170.5036 C 105.58944,170.47679 107.37486,168.58225 108.65123,166.76949 C 109.30703,166.02195 110.05444,165.30109 110.89749,164.88942 C 110.32453,164.84906 109.74924,164.97412 109.13545,164.93336 C 107.15296,164.73622 104.89016,164.59298 103.4203,165.9946 L 103.4203,165.9946 z"
   style="fill:#808000;stroke:#000000;stroke-opacity:1;stroke-width:0.24;stroke-miterlimit:4;stroke-dasharray:none" /><path
   id="path50950"
   d="M 110.19934,162.5852 C 108.19037,162.53449 106.55045,163.36832 105.05358,164.54333 C 105.03652,164.57745 105.0024,164.60174 105.01063,164.64568 C 106.97613,163.35226 109.45187,164.42226 111.68672,164.36332 L 113.97488,164.19273 C 113.99147,164.21808 114.06024,164.21808 114.03382,164.27809 C 113.7788,164.35455 113.50625,164.37115 113.24393,164.42226 C 111.39825,164.72693 110.08862,166.32981 108.81312,167.72983 C 108.47951,168.0288 108.14078,168.29311 107.74929,168.44671 C 108.66828,168.33241 109.59517,168.04433 110.44507,167.66306 C 112.57007,166.57341 114.31366,164.56046 116.74652,164.19273 C 114.41509,164.0143 112.67202,162.42696 110.19934,162.5852 L 110.19934,162.5852 z"
   style="fill:#808000;stroke:#000000;stroke-opacity:1;stroke-width:0.24;stroke-miterlimit:4;stroke-dasharray:none" /><path
   id="path50952"
   d="M 113.05621,161.60667 C 112.42789,161.75151 111.77766,161.86222 111.2011,162.1357 C 113.85699,161.61756 115.77064,163.4039 118.07274,163.98988 C 118.93378,164.23507 119.85855,164.29508 120.66649,164.64568 C 120.68415,164.67834 120.65003,164.70675 120.62414,164.72693 C 118.17867,163.85447 115.90619,165.11391 113.99147,166.37946 C 113.47266,166.68718 112.89492,166.86454 112.29858,167.01761 C 113.40536,167.15209 114.67993,166.87224 115.82906,166.71148 C 117.29121,166.40375 118.67783,165.94442 120.09658,165.54456 C 120.98311,165.28144 121.98328,165.35061 122.91217,165.48575 L 122.81087,165.35897 C 121.09994,164.43115 119.76549,162.59396 117.89631,162.04834 C 116.40614,161.59937 114.67993,161.30094 113.05621,161.60667 L 113.05621,161.60667 z"
   style="fill:#808000;stroke:#000000;stroke-opacity:1;stroke-width:0.24;stroke-miterlimit:4;stroke-dasharray:none" /><path
   id="path50954"
   d="M 118.24346,161.5229 C 121.05852,161.72721 122.54603,164.75441 124.87653,166.15762 C 125.35339,166.48964 125.88095,166.77772 126.28015,167.22138 C 125.98025,167.15209 125.72789,166.87224 125.42069,166.76949 C 124.44322,166.27856 123.27844,166.09961 122.09705,166.21763 C 120.65919,166.35357 119.32488,166.95667 117.81254,166.72648 C 120.47108,167.9595 123.78941,167.585 126.67018,168.27439 C 127.30023,168.45494 127.86284,168.81962 128.46502,169.05857 C 126.73961,166.52522 125.09797,163.07082 121.93576,161.94692 C 120.84545,161.47325 119.4956,161.42042 118.24346,161.5229 L 118.24346,161.5229 z"
   style="fill:#808000;stroke:#000000;stroke-opacity:1;stroke-width:0.24;stroke-miterlimit:4;stroke-dasharray:none" /><path
   id="path50956"
   d="M 124.70794,163.03617 C 127.90333,164.44868 128.16804,167.98631 130.11383,170.35824 C 130.50067,170.79473 130.82964,171.25207 131.05917,171.74486 L 131.03342,171.77021 C 130.54103,171.22566 129.98028,170.59574 129.34212,170.21447 C 127.41188,168.82625 124.70794,169.31452 122.63192,168.27439 C 123.76246,169.21947 124.9376,170.07892 126.22014,170.6495 C 128.31381,171.4982 130.67856,171.82252 132.2612,173.78635 C 131.56078,171.66109 131.75646,169.17128 130.44784,167.29546 C 129.18906,165.24733 127.05397,163.41943 124.70794,163.03617 L 124.70794,163.03617 z"
   style="fill:#808000;stroke:#000000;stroke-opacity:1;stroke-width:0.24;stroke-miterlimit:4;stroke-dasharray:none" /><path
   id="path50958"
   d="M 130.66914,166.66647 C 133.2449,168.93126 132.38545,172.63192 133.05958,175.64877 C 133.11773,176.07491 133.28845,176.46494 133.21915,176.91657 C 132.99161,176.55694 133.0163,176.05792 132.80947,175.66536 C 131.97869,173.30061 129.41859,172.95372 127.69225,171.66998 C 128.78137,173.31003 130.2503,174.68882 131.67362,176.20182 C 132.62627,177.28935 133.06595,178.59844 133.34633,179.97775 C 133.4674,179.64627 133.43421,179.21176 133.52741,178.85598 C 134.13675,176.37799 135.13267,173.62493 134.24109,170.99705 C 133.70317,169.28864 132.35226,167.52606 130.66914,166.66647 L 130.66914,166.66647 z"
   style="fill:#808000;stroke:#000000;stroke-opacity:1;stroke-width:0.24;stroke-miterlimit:4;stroke-dasharray:none" /><path
   id="path50960"
   d="M 136.67315,197.40562 C 137.62553,194.85355 136.62961,192.1901 135.11807,190.19679 C 134.60511,189.38978 133.86646,188.67834 133.93178,187.6345 C 133.92461,187.25588 133.94319,186.89081 134.03612,186.56901 C 134.93726,188.5055 136.17957,190.30432 137.76838,191.94901 C 138.08486,191.67182 138.38091,191.31285 138.65385,190.97473 C 136.9461,189.38978 135.30233,187.6345 134.34225,185.6692 C 134.39217,185.28435 134.62369,184.91821 134.81008,184.57119 C 135.82167,182.97123 137.12293,181.3892 138.71598,180.19972 L 137.87193,179.17764 C 136.22179,180.80893 134.93726,182.61333 134.01966,184.58725 C 133.40527,182.64758 135.03019,181.3815 135.85672,179.90912 C 137.05469,178.1934 137.6173,175.7259 136.79078,173.65241 C 136.36782,172.53727 135.74494,171.45691 134.73255,170.6495 C 135.85672,172.28132 135.9746,174.71165 135.24445,176.56743 C 134.16436,179.05763 132.79513,181.64528 133.44988,184.64726 C 133.45811,185.11575 133.92461,185.57096 133.52741,186.01357 C 132.94807,188.24477 133.34633,190.77082 134.36615,192.69178 L 135.15975,194.67167 C 135.84025,196.51192 135.65201,198.89114 134.53076,200.46853 C 135.54023,199.65753 136.26347,198.5497 136.67315,197.40562 L 136.67315,197.40562 z"
   style="fill:#808000;stroke:#000000;stroke-opacity:1;stroke-width:0.24;stroke-miterlimit:4;stroke-dasharray:none" /><path
   id="path50962"
   d="M 134.03612,200.14049 C 135.11807,197.27512 133.78999,194.39249 133.34633,191.647 L 133.27916,191.11837 L 133.26243,191.11837 C 132.96453,192.43118 132.5737,193.70549 131.63035,194.7504 C 130.151,196.28942 128.62831,197.65891 127.46259,199.36799 C 129.08763,198.10059 131.40068,197.96624 132.44546,195.87257 C 132.78451,195.35443 132.84452,194.70048 133.10126,194.16575 C 133.11773,194.92829 132.84452,195.62644 132.76805,196.38155 C 132.32731,199.18904 132.77947,202.40077 130.38783,204.37031 C 132.05436,203.6391 133.44988,201.80789 134.03612,200.14049 L 134.03612,200.14049 z"
   style="fill:#808000;stroke:#000000;stroke-opacity:1;stroke-width:0.24;stroke-miterlimit:4;stroke-dasharray:none" /><path
   id="path50964"
   d="M 125.97401,205.34672 C 126.71465,204.21512 127.40152,203.06812 128.24358,201.98073 L 128.14017,201.98073 C 125.3721,203.64627 121.56949,202.83209 118.52317,203.85828 L 117.50269,204.24101 C 119.40041,204.02688 121.00794,204.85115 122.91217,204.79327 C 124.06248,204.73539 125.08243,204.35996 126.00096,203.75593 L 126.00096,203.85828 C 124.92924,204.67432 123.78941,205.31154 122.76853,206.26525 C 121.34102,207.74559 119.87727,209.25063 117.89631,209.44498 C 121.20335,209.94772 124.10178,208.09208 125.97401,205.34672 L 125.97401,205.34672 z"
   style="fill:#808000;stroke:#000000;stroke-opacity:1;stroke-width:0.24;stroke-miterlimit:4;stroke-dasharray:none" /><text
   xml:space="preserve"
   style="font-size:39.98229599px;font-style:normal;font-weight:normal;fill:#000000;fill-opacity:1;stroke:none;stroke-width:1px;stroke-linecap:butt;stroke-linejoin:miter;stroke-opacity:1;font-family:Bitstream Vera Sans"
   x="174.1382"
   y="127.80466"
   id="text50991"
   transform="matrix(0,1,1,0,0,0)"><tspan
     sodipodi:role="line"
     id="tspan50993"
     x="174.1382"
     y="127.80466"
     style="font-weight:bold">1</tspan></text>


<g
   id="g51017"
   transform="matrix(0,1.3370358,-1.3370358,0,627.89804,176.81869)"
   style="text-align:center;text-anchor:middle"><text
   id="text51019"
   transform="scale(1,-1)"
   x="97.68399"
   y="-387.017"
   style="text-align:center;text-anchor:middle"><tspan
     id="tspan51021"
     sodipodi:role="line"
     y="-387.017"
     x="97.68399"
     style="font-size:14px;font-style:normal;font-variant:normal;font-weight:normal;text-align:center;writing-mode:lr-tb;text-anchor:middle;fill:#231f20;fill-opacity:1;fill-rule:nonzero;stroke:none;font-family:Helvetica;-inkscape-font-specification:Helvetica-Oblique">First To Find</tspan><tspan
     sodipodi:role="line"
     y="-369.517"
     x="97.68399"
     style="font-size:14px;font-style:normal;font-variant:normal;font-weight:normal;text-align:center;writing-mode:lr-tb;text-anchor:middle;fill:#231f20;fill-opacity:1;fill-rule:nonzero;stroke:none;font-family:Helvetica;-inkscape-font-specification:Helvetica-Oblique"
     id="tspan51023">Pierwszy znalazca</tspan></text>





</g><path
   id="path51029"
   d="M 275.11812,201.73248 C 275.51034,200.2678 275.63645,198.70489 276.12154,197.28242 C 274.05581,199.69165 270.85949,199.55412 268.4265,201.16151 C 267.73763,201.67354 267.01558,202.09676 266.3619,202.69362 C 268.32321,201.71589 270.86785,202.13991 272.77115,201.01667 C 273.52719,200.58429 274.26066,199.96592 274.85447,199.2821 C 274.8461,199.50553 274.65268,199.70107 274.52351,199.89755 C 272.70291,201.72199 272.1938,204.10547 270.71465,206.07899 C 270.08473,206.86955 269.25927,207.59359 268.36649,207.94114 C 271.38705,207.5677 274.21817,204.56267 275.11812,201.73248 L 275.11812,201.73248 z"
   style="fill:#aca793;stroke:#000000;stroke-opacity:1;stroke-width:0.24;stroke-miterlimit:4;stroke-dasharray:none" /><path
   id="path51031"
   d="M 262.88838,208.30515 C 264.15858,207.41251 265.34102,206.33269 266.63192,205.50802 C 265.60985,205.60002 264.35306,205.72109 263.38488,205.32296 C 261.29998,204.63303 259.18307,204.02688 256.89492,203.83133 L 256.01994,203.85828 C 258.35668,204.37748 259.96301,206.67294 262.58411,206.5281 C 263.21934,206.58067 263.75938,206.3842 264.31801,206.26525 L 264.3593,206.30468 L 264.24341,206.40809 C 262.95768,206.74847 261.60571,206.92026 260.40614,207.44955 C 258.67994,208.20174 256.9378,209.14097 254.85356,208.75824 C 257.31084,209.90232 260.59399,209.5557 262.88838,208.30515 L 262.88838,208.30515 z"
   style="fill:#aca793;stroke:#000000;stroke-opacity:1;stroke-width:0.24;stroke-miterlimit:4;stroke-dasharray:none" /><path
   id="path51033"
   d="M 249.64945,206.89623 C 251.68929,208.4014 254.93998,208.73129 257.27978,207.63501 C 258.27132,207.22639 259.32791,206.93778 260.42539,206.77728 C 260.23608,206.70068 259.98159,206.68316 259.77065,206.61479 C 257.48037,206.01607 255.84815,203.85005 253.68884,202.95927 C 252.98271,202.67676 252.2531,202.43595 251.48657,202.3024 C 253.24703,203.25425 254.15633,205.60002 256.0964,206.23936 C 256.58706,206.50129 257.20012,206.48655 257.72769,206.64904 C 257.72769,206.68316 257.70233,206.71728 257.66768,206.71728 C 255.6692,206.43584 253.57759,206.52173 251.60393,206.79295 C 250.53486,206.77728 249.49785,206.67294 248.67032,206.07899 C 248.89222,206.45987 249.31843,206.63138 249.64945,206.89623 L 249.64945,206.89623 z"
   style="fill:#aca793;stroke:#000000;stroke-opacity:1;stroke-width:0.24;stroke-miterlimit:4;stroke-dasharray:none" /><path
   id="path51035"
   d="M 249.25789,205.83499 C 251.04536,206.23033 252.78617,205.65285 254.59083,206.01607 L 254.60637,206.00253 C 252.69417,205.0301 251.79171,202.96564 250.26125,201.54517 C 249.35308,200.72196 248.24624,200.36405 247.07428,200.15815 C 249.03652,200.97207 249.4689,203.16835 251.12243,204.42925 C 251.50363,204.85115 252.03173,204.98881 252.46404,205.26083 L 252.4211,205.3053 C 250.87318,204.5802 249.13118,204.33726 247.48031,203.83133 C 246.76496,203.57803 246.06209,203.07529 245.61106,202.40077 C 245.94932,204.05595 247.67732,205.49049 249.25789,205.83499 L 249.25789,205.83499 z"
   style="fill:#aca793;stroke:#000000;stroke-opacity:1;stroke-width:0.24;stroke-miterlimit:4;stroke-dasharray:none" /><path
   id="path51037"
   d="M 245.1585,201.40976 C 246.27417,202.65632 247.71874,203.22013 249.21548,203.58414 L 249.6908,203.79004 C 248.38955,201.98073 246.64031,200.3371 244.7929,199.18174 L 243.36539,197.77069 C 243.89136,199.01115 244.20533,200.34852 245.1585,201.40976 L 245.1585,201.40976 z"
   style="fill:#aca793;stroke:#000000;stroke-opacity:1;stroke-width:0.24;stroke-miterlimit:4;stroke-dasharray:none" /><path
   id="path51039"
   d="M 243.60229,172.83424 C 244.69871,171.58356 246.08533,170.71614 247.37835,169.78832 C 248.40813,168.95662 249.08717,167.89272 249.97271,166.9499 C 248.91757,167.45888 247.65721,167.47747 246.68797,168.19939 C 244.89578,169.22664 244.26526,171.13153 243.60229,172.83424 L 243.60229,172.83424 z"
   style="fill:#aca793;stroke:#000000;stroke-opacity:1;stroke-width:0.24;stroke-miterlimit:4;stroke-dasharray:none" /><path
   id="path51041"
   d="M 247.4203,165.9946 C 246.66414,166.60288 246.13863,167.37405 245.91673,168.24187 C 247.07428,166.55682 249.1487,166.66647 250.87318,166.13227 C 251.51087,165.96194 252.09837,165.66617 252.75205,165.51881 L 252.78617,165.56169 C 252.04719,165.84207 251.34897,166.33485 250.746,166.9499 C 249.64122,168.14668 248.95269,169.9171 247.31842,170.5036 C 249.58945,170.47679 251.37486,168.58225 252.65123,166.76949 C 253.30703,166.02195 254.05444,165.30109 254.8975,164.88942 C 254.32453,164.84906 253.74924,164.97412 253.13545,164.93336 C 251.15296,164.73622 248.89016,164.59298 247.4203,165.9946 L 247.4203,165.9946 z"
   style="fill:#aca793;stroke:#000000;stroke-opacity:1;stroke-width:0.24;stroke-miterlimit:4;stroke-dasharray:none" /><path
   id="path51043"
   d="M 254.19934,162.5852 C 252.19037,162.53449 250.55045,163.36832 249.05358,164.54333 C 249.03652,164.57745 249.00241,164.60174 249.01064,164.64568 C 250.97613,163.35226 253.45187,164.42226 255.68672,164.36332 L 257.97488,164.19273 C 257.99147,164.21808 258.06024,164.21808 258.03382,164.27809 C 257.7788,164.35455 257.50625,164.37115 257.24393,164.42226 C 255.39825,164.72693 254.08863,166.32981 252.81312,167.72983 C 252.47951,168.0288 252.14079,168.29311 251.74929,168.44671 C 252.66828,168.33241 253.59518,168.04433 254.44507,167.66306 C 256.57007,166.57341 258.31367,164.56046 260.74652,164.19273 C 258.41509,164.0143 256.67202,162.42696 254.19934,162.5852 L 254.19934,162.5852 z"
   style="fill:#aca793;stroke:#000000;stroke-opacity:1;stroke-width:0.24;stroke-miterlimit:4;stroke-dasharray:none" /><path
   id="path51045"
   d="M 257.05622,161.60667 C 256.42789,161.75151 255.77766,161.86222 255.20111,162.1357 C 257.85699,161.61756 259.77065,163.4039 262.07274,163.98988 C 262.93378,164.23507 263.85855,164.29508 264.6665,164.64568 C 264.68415,164.67834 264.65003,164.70675 264.62415,164.72693 C 262.17868,163.85447 259.90619,165.11391 257.99147,166.37946 C 257.47267,166.68718 256.89492,166.86454 256.29859,167.01761 C 257.40536,167.15209 258.67994,166.87224 259.82906,166.71148 C 261.29121,166.40375 262.67783,165.94442 264.09658,165.54456 C 264.98311,165.28144 265.98329,165.35061 266.91217,165.48575 L 266.81088,165.35897 C 265.09994,164.43115 263.76549,162.59396 261.89631,162.04834 C 260.40614,161.59937 258.67994,161.30094 257.05622,161.60667 L 257.05622,161.60667 z"
   style="fill:#aca793;stroke:#000000;stroke-opacity:1;stroke-width:0.24;stroke-miterlimit:4;stroke-dasharray:none" /><path
   id="path51047"
   d="M 262.24346,161.5229 C 265.05852,161.72721 266.54603,164.75441 268.87653,166.15762 C 269.35339,166.48964 269.88095,166.77772 270.28015,167.22138 C 269.98025,167.15209 269.72789,166.87224 269.42069,166.76949 C 268.44322,166.27856 267.27844,166.09961 266.09706,166.21763 C 264.65919,166.35357 263.32488,166.95667 261.81254,166.72648 C 264.47108,167.9595 267.78941,167.585 270.67018,168.27439 C 271.30023,168.45494 271.86285,168.81962 272.46502,169.05857 C 270.73961,166.52522 269.09797,163.07082 265.93576,161.94692 C 264.84545,161.47325 263.4956,161.42042 262.24346,161.5229 L 262.24346,161.5229 z"
   style="fill:#aca793;stroke:#000000;stroke-opacity:1;stroke-width:0.24;stroke-miterlimit:4;stroke-dasharray:none" /><path
   id="path51049"
   d="M 268.70794,163.03617 C 271.90334,164.44868 272.16805,167.98631 274.11383,170.35824 C 274.50067,170.79473 274.82964,171.25207 275.05917,171.74486 L 275.03342,171.77021 C 274.54103,171.22566 273.98028,170.59574 273.34213,170.21447 C 271.41188,168.82625 268.70794,169.31452 266.63192,168.27439 C 267.76246,169.21947 268.9376,170.07892 270.22014,170.6495 C 272.31381,171.4982 274.67857,171.82252 276.2612,173.78635 C 275.56078,171.66109 275.75647,169.17128 274.44784,167.29546 C 273.18906,165.24733 271.05397,163.41943 268.70794,163.03617 L 268.70794,163.03617 z"
   style="fill:#aca793;stroke:#000000;stroke-opacity:1;stroke-width:0.24;stroke-miterlimit:4;stroke-dasharray:none" /><path
   id="path51051"
   d="M 274.66914,166.66647 C 277.24491,168.93126 276.38546,172.63192 277.05958,175.64877 C 277.11773,176.07491 277.28845,176.46494 277.21915,176.91657 C 276.99161,176.55694 277.0163,176.05792 276.80947,175.66536 C 275.9787,173.30061 273.41859,172.95372 271.69226,171.66998 C 272.78137,173.31003 274.2503,174.68882 275.67363,176.20182 C 276.62627,177.28935 277.06595,178.59844 277.34633,179.97775 C 277.4674,179.64627 277.43421,179.21176 277.52741,178.85598 C 278.13675,176.37799 279.13267,173.62493 278.2411,170.99705 C 277.70318,169.28864 276.35227,167.52606 274.66914,166.66647 L 274.66914,166.66647 z"
   style="fill:#aca793;stroke:#000000;stroke-opacity:1;stroke-width:0.24;stroke-miterlimit:4;stroke-dasharray:none" /><path
   id="path51053"
   d="M 280.67316,197.40562 C 281.62554,194.85355 280.62961,192.1901 279.11807,190.19679 C 278.60511,189.38978 277.86646,188.67834 277.93178,187.6345 C 277.92461,187.25588 277.94319,186.89081 278.03612,186.56901 C 278.93726,188.5055 280.17958,190.30432 281.76838,191.94901 C 282.08487,191.67182 282.38091,191.31285 282.65385,190.97473 C 280.9461,189.38978 279.30233,187.6345 278.34226,185.6692 C 278.39217,185.28435 278.62369,184.91821 278.81008,184.57119 C 279.82167,182.97123 281.12293,181.3892 282.71598,180.19972 L 281.87193,179.17764 C 280.22179,180.80893 278.93726,182.61333 278.01966,184.58725 C 277.40527,182.64758 279.03019,181.3815 279.85672,179.90912 C 281.05469,178.1934 281.61731,175.7259 280.79078,173.65241 C 280.36782,172.53727 279.74494,171.45691 278.73255,170.6495 C 279.85672,172.28132 279.9746,174.71165 279.24445,176.56743 C 278.16436,179.05763 276.79514,181.64528 277.44988,184.64726 C 277.45811,185.11575 277.92461,185.57096 277.52741,186.01357 C 276.94807,188.24477 277.34633,190.77082 278.36615,192.69178 L 279.15976,194.67167 C 279.84026,196.51192 279.65201,198.89114 278.53077,200.46853 C 279.54023,199.65753 280.26348,198.5497 280.67316,197.40562 L 280.67316,197.40562 z"
   style="fill:#aca793;stroke:#000000;stroke-opacity:1;stroke-width:0.24;stroke-miterlimit:4;stroke-dasharray:none" /><path
   id="path51055"
   d="M 278.03612,200.14049 C 279.11807,197.27512 277.79,194.39249 277.34633,191.647 L 277.27916,191.11837 L 277.26243,191.11837 C 276.96453,192.43118 276.5737,193.70549 275.63035,194.7504 C 274.151,196.28942 272.62831,197.65891 271.46259,199.36799 C 273.08764,198.10059 275.40068,197.96624 276.44546,195.87257 C 276.78452,195.35443 276.84452,194.70048 277.10127,194.16575 C 277.11773,194.92829 276.84452,195.62644 276.76805,196.38155 C 276.32731,199.18904 276.77947,202.40077 274.38783,204.37031 C 276.05437,203.6391 277.44988,201.80789 278.03612,200.14049 L 278.03612,200.14049 z"
   style="fill:#aca793;stroke:#000000;stroke-opacity:1;stroke-width:0.24;stroke-miterlimit:4;stroke-dasharray:none" /><path
   id="path51057"
   d="M 269.97401,205.34672 C 270.71465,204.21512 271.40152,203.06812 272.24358,201.98073 L 272.14017,201.98073 C 269.37211,203.64627 265.56949,202.83209 262.52317,203.85828 L 261.50269,204.24101 C 263.40042,204.02688 265.00794,204.85115 266.91217,204.79327 C 268.06248,204.73539 269.08244,204.35996 270.00097,203.75593 L 270.00097,203.85828 C 268.92924,204.67432 267.78941,205.31154 266.76853,206.26525 C 265.34102,207.74559 263.87727,209.25063 261.89631,209.44498 C 265.20335,209.94772 268.10178,208.09208 269.97401,205.34672 L 269.97401,205.34672 z"
   style="fill:#aca793;stroke:#000000;stroke-opacity:1;stroke-width:0.24;stroke-miterlimit:4;stroke-dasharray:none" /><text
   xml:space="preserve"
   style="font-size:39.98229599px;font-style:normal;font-weight:normal;fill:#000000;fill-opacity:1;stroke:none;stroke-width:1px;stroke-linecap:butt;stroke-linejoin:miter;stroke-opacity:1;font-family:Bitstream Vera Sans"
   x="174.1382"
   y="271.80466"
   id="text51059"
   transform="matrix(0,1,1,0,0,0)"><tspan
     sodipodi:role="line"
     id="tspan51061"
     x="174.1382"
     y="271.80466"
     style="font-weight:bold">2</tspan></text>


<g
   id="g51063"
   transform="matrix(0,1.3370358,-1.3370358,0,771.89804,176.81869)"
   style="text-align:center;text-anchor:middle"><text
   id="text51065"
   transform="scale(1,-1)"
   x="97.68399"
   y="-387.017"
   style="text-align:center;text-anchor:middle"><tspan
     id="tspan51067"
     sodipodi:role="line"
     y="-387.017"
     x="97.68399"
     style="font-size:14px;font-style:normal;font-variant:normal;font-weight:normal;text-align:center;writing-mode:lr-tb;text-anchor:middle;fill:#231f20;fill-opacity:1;fill-rule:nonzero;stroke:none;font-family:Helvetica;-inkscape-font-specification:Helvetica-Oblique">Second To Find</tspan><tspan
     sodipodi:role="line"
     y="-369.517"
     x="97.68399"
     style="font-size:14px;font-style:normal;font-variant:normal;font-weight:normal;text-align:center;writing-mode:lr-tb;text-anchor:middle;fill:#231f20;fill-opacity:1;fill-rule:nonzero;stroke:none;font-family:Helvetica;-inkscape-font-specification:Helvetica-Oblique"
     id="tspan51069">Drugi znalazca</tspan></text>





</g><path
   style="fill:#008000;stroke:#000000;stroke-opacity:1;stroke-width:0.24;stroke-miterlimit:4;stroke-dasharray:none"
   id="path51075"
   d="M 408.53312,201.73248 C 408.92534,200.2678 409.05145,198.70489 409.53654,197.28242 C 407.47081,199.69165 404.27449,199.55412 401.8415,201.16151 C 401.15263,201.67354 400.43058,202.09676 399.7769,202.69362 C 401.73821,201.71589 404.28285,202.13991 406.18615,201.01667 C 406.94219,200.58429 407.67566,199.96592 408.26947,199.2821 C 408.2611,199.50553 408.06768,199.70107 407.93851,199.89755 C 406.11791,201.72199 405.6088,204.10547 404.12965,206.07899 C 403.49973,206.86955 402.67427,207.59359 401.78149,207.94114 C 404.80205,207.5677 407.63317,204.56267 408.53312,201.73248 L 408.53312,201.73248 z" /><path
   style="fill:#008000;stroke:#000000;stroke-opacity:1;stroke-width:0.24;stroke-miterlimit:4;stroke-dasharray:none"
   id="path51077"
   d="M 396.30338,208.30515 C 397.57358,207.41251 398.75602,206.33269 400.04692,205.50802 C 399.02485,205.60002 397.76806,205.72109 396.79988,205.32296 C 394.71498,204.63303 392.59807,204.02688 390.30992,203.83133 L 389.43494,203.85828 C 391.77168,204.37748 393.37801,206.67294 395.99911,206.5281 C 396.63434,206.58067 397.17438,206.3842 397.73301,206.26525 L 397.7743,206.30468 L 397.65841,206.40809 C 396.37268,206.74847 395.02071,206.92026 393.82114,207.44955 C 392.09494,208.20174 390.3528,209.14097 388.26856,208.75824 C 390.72584,209.90232 394.00899,209.5557 396.30338,208.30515 L 396.30338,208.30515 z" /><path
   style="fill:#008000;stroke:#000000;stroke-opacity:1;stroke-width:0.24;stroke-miterlimit:4;stroke-dasharray:none"
   id="path51079"
   d="M 383.06445,206.89623 C 385.10429,208.4014 388.35498,208.73129 390.69478,207.63501 C 391.68632,207.22639 392.74291,206.93778 393.84039,206.77728 C 393.65108,206.70068 393.39659,206.68316 393.18565,206.61479 C 390.89537,206.01607 389.26315,203.85005 387.10384,202.95927 C 386.39771,202.67676 385.6681,202.43595 384.90157,202.3024 C 386.66203,203.25425 387.57133,205.60002 389.5114,206.23936 C 390.00206,206.50129 390.61512,206.48655 391.14269,206.64904 C 391.14269,206.68316 391.11733,206.71728 391.08268,206.71728 C 389.0842,206.43584 386.99259,206.52173 385.01893,206.79295 C 383.94986,206.77728 382.91285,206.67294 382.08532,206.07899 C 382.30722,206.45987 382.73343,206.63138 383.06445,206.89623 L 383.06445,206.89623 z" /><path
   style="fill:#008000;stroke:#000000;stroke-opacity:1;stroke-width:0.24;stroke-miterlimit:4;stroke-dasharray:none"
   id="path51081"
   d="M 382.67289,205.83499 C 384.46036,206.23033 386.20117,205.65285 388.00583,206.01607 L 388.02137,206.00253 C 386.10917,205.0301 385.20671,202.96564 383.67625,201.54517 C 382.76808,200.72196 381.66124,200.36405 380.48928,200.15815 C 382.45152,200.97207 382.8839,203.16835 384.53743,204.42925 C 384.91863,204.85115 385.44673,204.98881 385.87904,205.26083 L 385.8361,205.3053 C 384.28818,204.5802 382.54618,204.33726 380.89531,203.83133 C 380.17996,203.57803 379.47709,203.07529 379.02606,202.40077 C 379.36432,204.05595 381.09232,205.49049 382.67289,205.83499 L 382.67289,205.83499 z" /><path
   style="fill:#008000;stroke:#000000;stroke-opacity:1;stroke-width:0.24;stroke-miterlimit:4;stroke-dasharray:none"
   id="path51083"
   d="M 378.5735,201.40976 C 379.68917,202.65632 381.13374,203.22013 382.63048,203.58414 L 383.1058,203.79004 C 381.80455,201.98073 380.05531,200.3371 378.2079,199.18174 L 376.78039,197.77069 C 377.30636,199.01115 377.62033,200.34852 378.5735,201.40976 L 378.5735,201.40976 z" /><path
   style="fill:#008000;stroke:#000000;stroke-opacity:1;stroke-width:0.24;stroke-miterlimit:4;stroke-dasharray:none"
   id="path51085"
   d="M 377.01729,172.83424 C 378.11371,171.58356 379.50033,170.71614 380.79335,169.78832 C 381.82313,168.95662 382.50217,167.89272 383.38771,166.9499 C 382.33257,167.45888 381.07221,167.47747 380.10297,168.19939 C 378.31078,169.22664 377.68026,171.13153 377.01729,172.83424 L 377.01729,172.83424 z" /><path
   style="fill:#008000;stroke:#000000;stroke-opacity:1;stroke-width:0.24;stroke-miterlimit:4;stroke-dasharray:none"
   id="path51087"
   d="M 380.8353,165.9946 C 380.07914,166.60288 379.55363,167.37405 379.33173,168.24187 C 380.48928,166.55682 382.5637,166.66647 384.28818,166.13227 C 384.92587,165.96194 385.51337,165.66617 386.16705,165.51881 L 386.20117,165.56169 C 385.46219,165.84207 384.76397,166.33485 384.161,166.9499 C 383.05622,168.14668 382.36769,169.9171 380.73342,170.5036 C 383.00445,170.47679 384.78986,168.58225 386.06623,166.76949 C 386.72203,166.02195 387.46944,165.30109 388.3125,164.88942 C 387.73953,164.84906 387.16424,164.97412 386.55045,164.93336 C 384.56796,164.73622 382.30516,164.59298 380.8353,165.9946 L 380.8353,165.9946 z" /><path
   style="fill:#008000;stroke:#000000;stroke-opacity:1;stroke-width:0.24;stroke-miterlimit:4;stroke-dasharray:none"
   id="path51089"
   d="M 387.61434,162.5852 C 385.60537,162.53449 383.96545,163.36832 382.46858,164.54333 C 382.45152,164.57745 382.41741,164.60174 382.42564,164.64568 C 384.39113,163.35226 386.86687,164.42226 389.10172,164.36332 L 391.38988,164.19273 C 391.40647,164.21808 391.47524,164.21808 391.44882,164.27809 C 391.1938,164.35455 390.92125,164.37115 390.65893,164.42226 C 388.81325,164.72693 387.50363,166.32981 386.22812,167.72983 C 385.89451,168.0288 385.55579,168.29311 385.16429,168.44671 C 386.08328,168.33241 387.01018,168.04433 387.86007,167.66306 C 389.98507,166.57341 391.72867,164.56046 394.16152,164.19273 C 391.83009,164.0143 390.08702,162.42696 387.61434,162.5852 L 387.61434,162.5852 z" /><path
   style="fill:#008000;stroke:#000000;stroke-opacity:1;stroke-width:0.24;stroke-miterlimit:4;stroke-dasharray:none"
   id="path51091"
   d="M 390.47122,161.60667 C 389.84289,161.75151 389.19266,161.86222 388.61611,162.1357 C 391.27199,161.61756 393.18565,163.4039 395.48774,163.98988 C 396.34878,164.23507 397.27355,164.29508 398.0815,164.64568 C 398.09915,164.67834 398.06503,164.70675 398.03915,164.72693 C 395.59368,163.85447 393.32119,165.11391 391.40647,166.37946 C 390.88767,166.68718 390.30992,166.86454 389.71359,167.01761 C 390.82036,167.15209 392.09494,166.87224 393.24406,166.71148 C 394.70621,166.40375 396.09283,165.94442 397.51158,165.54456 C 398.39811,165.28144 399.39829,165.35061 400.32717,165.48575 L 400.22588,165.35897 C 398.51494,164.43115 397.18049,162.59396 395.31131,162.04834 C 393.82114,161.59937 392.09494,161.30094 390.47122,161.60667 L 390.47122,161.60667 z" /><path
   style="fill:#008000;stroke:#000000;stroke-opacity:1;stroke-width:0.24;stroke-miterlimit:4;stroke-dasharray:none"
   id="path51093"
   d="M 395.65846,161.5229 C 398.47352,161.72721 399.96103,164.75441 402.29153,166.15762 C 402.76839,166.48964 403.29595,166.77772 403.69515,167.22138 C 403.39525,167.15209 403.14289,166.87224 402.83569,166.76949 C 401.85822,166.27856 400.69344,166.09961 399.51206,166.21763 C 398.07419,166.35357 396.73988,166.95667 395.22754,166.72648 C 397.88608,167.9595 401.20441,167.585 404.08518,168.27439 C 404.71523,168.45494 405.27785,168.81962 405.88002,169.05857 C 404.15461,166.52522 402.51297,163.07082 399.35076,161.94692 C 398.26045,161.47325 396.9106,161.42042 395.65846,161.5229 L 395.65846,161.5229 z" /><path
   style="fill:#008000;stroke:#000000;stroke-opacity:1;stroke-width:0.24;stroke-miterlimit:4;stroke-dasharray:none"
   id="path51095"
   d="M 402.12294,163.03617 C 405.31834,164.44868 405.58305,167.98631 407.52883,170.35824 C 407.91567,170.79473 408.24464,171.25207 408.47417,171.74486 L 408.44842,171.77021 C 407.95603,171.22566 407.39528,170.59574 406.75713,170.21447 C 404.82688,168.82625 402.12294,169.31452 400.04692,168.27439 C 401.17746,169.21947 402.3526,170.07892 403.63514,170.6495 C 405.72881,171.4982 408.09357,171.82252 409.6762,173.78635 C 408.97578,171.66109 409.17147,169.17128 407.86284,167.29546 C 406.60406,165.24733 404.46897,163.41943 402.12294,163.03617 L 402.12294,163.03617 z" /><path
   style="fill:#008000;stroke:#000000;stroke-opacity:1;stroke-width:0.24;stroke-miterlimit:4;stroke-dasharray:none"
   id="path51097"
   d="M 408.08414,166.66647 C 410.65991,168.93126 409.80046,172.63192 410.47458,175.64877 C 410.53273,176.07491 410.70345,176.46494 410.63415,176.91657 C 410.40661,176.55694 410.4313,176.05792 410.22447,175.66536 C 409.3937,173.30061 406.83359,172.95372 405.10726,171.66998 C 406.19637,173.31003 407.6653,174.68882 409.08863,176.20182 C 410.04127,177.28935 410.48095,178.59844 410.76133,179.97775 C 410.8824,179.64627 410.84921,179.21176 410.94241,178.85598 C 411.55175,176.37799 412.54767,173.62493 411.6561,170.99705 C 411.11818,169.28864 409.76727,167.52606 408.08414,166.66647 L 408.08414,166.66647 z" /><path
   style="fill:#008000;stroke:#000000;stroke-opacity:1;stroke-width:0.24;stroke-miterlimit:4;stroke-dasharray:none"
   id="path51099"
   d="M 414.08816,197.40562 C 415.04054,194.85355 414.04461,192.1901 412.53307,190.19679 C 412.02011,189.38978 411.28146,188.67834 411.34678,187.6345 C 411.33961,187.25588 411.35819,186.89081 411.45112,186.56901 C 412.35226,188.5055 413.59458,190.30432 415.18338,191.94901 C 415.49987,191.67182 415.79591,191.31285 416.06885,190.97473 C 414.3611,189.38978 412.71733,187.6345 411.75726,185.6692 C 411.80717,185.28435 412.03869,184.91821 412.22508,184.57119 C 413.23667,182.97123 414.53793,181.3892 416.13098,180.19972 L 415.28693,179.17764 C 413.63679,180.80893 412.35226,182.61333 411.43466,184.58725 C 410.82027,182.64758 412.44519,181.3815 413.27172,179.90912 C 414.46969,178.1934 415.03231,175.7259 414.20578,173.65241 C 413.78282,172.53727 413.15994,171.45691 412.14755,170.6495 C 413.27172,172.28132 413.3896,174.71165 412.65945,176.56743 C 411.57936,179.05763 410.21014,181.64528 410.86488,184.64726 C 410.87311,185.11575 411.33961,185.57096 410.94241,186.01357 C 410.36307,188.24477 410.76133,190.77082 411.78115,192.69178 L 412.57476,194.67167 C 413.25526,196.51192 413.06701,198.89114 411.94577,200.46853 C 412.95523,199.65753 413.67848,198.5497 414.08816,197.40562 L 414.08816,197.40562 z" /><path
   style="fill:#008000;stroke:#000000;stroke-opacity:1;stroke-width:0.24;stroke-miterlimit:4;stroke-dasharray:none"
   id="path51101"
   d="M 411.45112,200.14049 C 412.53307,197.27512 411.205,194.39249 410.76133,191.647 L 410.69416,191.11837 L 410.67743,191.11837 C 410.37953,192.43118 409.9887,193.70549 409.04535,194.7504 C 407.566,196.28942 406.04331,197.65891 404.87759,199.36799 C 406.50264,198.10059 408.81568,197.96624 409.86046,195.87257 C 410.19952,195.35443 410.25952,194.70048 410.51627,194.16575 C 410.53273,194.92829 410.25952,195.62644 410.18305,196.38155 C 409.74231,199.18904 410.19447,202.40077 407.80283,204.37031 C 409.46937,203.6391 410.86488,201.80789 411.45112,200.14049 L 411.45112,200.14049 z" /><path
   style="fill:#008000;stroke:#000000;stroke-opacity:1;stroke-width:0.24;stroke-miterlimit:4;stroke-dasharray:none"
   id="path51103"
   d="M 403.38901,205.34672 C 404.12965,204.21512 404.81652,203.06812 405.65858,201.98073 L 405.55517,201.98073 C 402.78711,203.64627 398.98449,202.83209 395.93817,203.85828 L 394.91769,204.24101 C 396.81542,204.02688 398.42294,204.85115 400.32717,204.79327 C 401.47748,204.73539 402.49744,204.35996 403.41597,203.75593 L 403.41597,203.85828 C 402.34424,204.67432 401.20441,205.31154 400.18353,206.26525 C 398.75602,207.74559 397.29227,209.25063 395.31131,209.44498 C 398.61835,209.94772 401.51678,208.09208 403.38901,205.34672 L 403.38901,205.34672 z" /><text
   xml:space="preserve"
   style="font-size:39.98229599px;font-style:normal;font-weight:normal;fill:#000000;fill-opacity:1;stroke:none;stroke-width:1px;stroke-linecap:butt;stroke-linejoin:miter;stroke-opacity:1;font-family:Bitstream Vera Sans"
   x="174.1382"
   y="405.21964"
   id="text51105"
   transform="matrix(0,1,1,0,0,0)"><tspan
     sodipodi:role="line"
     id="tspan51107"
     x="174.1382"
     y="405.21964"
     style="font-weight:bold">3</tspan></text>


<g
   id="g51109"
   transform="matrix(0,1.3370358,-1.3370358,0,905.31304,176.81869)"
   style="text-align:center;text-anchor:middle"><text
   id="text51111"
   transform="scale(1,-1)"
   x="97.68399"
   y="-387.017"
   style="text-align:center;text-anchor:middle"><tspan
     id="tspan51113"
     sodipodi:role="line"
     y="-387.017"
     x="97.68399"
     style="font-size:14px;font-style:normal;font-variant:normal;font-weight:normal;text-align:center;writing-mode:lr-tb;text-anchor:middle;fill:#231f20;fill-opacity:1;fill-rule:nonzero;stroke:none;font-family:Helvetica;-inkscape-font-specification:Helvetica-Oblique">Third To Find</tspan><tspan
     sodipodi:role="line"
     y="-369.517"
     x="97.68399"
     style="font-size:14px;font-style:normal;font-variant:normal;font-weight:normal;text-align:center;writing-mode:lr-tb;text-anchor:middle;fill:#231f20;fill-opacity:1;fill-rule:nonzero;stroke:none;font-family:Helvetica;-inkscape-font-specification:Helvetica-Oblique"
     id="tspan51115">Trzeci znalazca</tspan></text>





</g><text
   transform="scale(1,-1)"
   id="text2889"
   x="24.649"
   y="-23.501656"><tspan
     style="font-size:7.99574995px;font-variant:normal;font-weight:normal;writing-mode:lr-tb;fill:#231f20;fill-opacity:1;fill-rule:nonzero;stroke:none;font-family:TimesNewRomanPSMT;-inkscape-font-specification:TimesNewRomanPSMT"
     sodipodi:role="line"
     id="tspan2891"
     x="24.649"
     y="-23.501656">Revised by</tspan></text>

<text
   transform="scale(1,-1)"
   id="text2893"
   x="107.2948"
   y="-23.501656"><tspan
     style="font-size:7.99574995px;font-variant:normal;font-weight:500;writing-mode:lr-tb;fill:#231f20;fill-opacity:1;fill-rule:nonzero;stroke:none;font-family:BankGothicBT;-inkscape-font-specification:BankGothicBT-Medium"
     sodipodi:role="line"
     id="tspan2895"
     x="107.2948"
     y="-23.501656">rush@rushbase.net / www.rushbase.net</tspan></text>

</g></svg>