<?xml version="1.0" encoding="UTF-8" standalone="no"?>
<!-- Created with Inkscape (http://www.inkscape.org/) -->
<svg
   xmlns:svg="http://www.w3.org/2000/svg"
   xmlns="http://www.w3.org/2000/svg"
   version="1.0"
   width="499.03311"
   height="538.92694"
   id="svg2753">
  <defs
     id="defs2755" />
  <g
     transform="translate(-104.76916,-57.18442)"
     id="layer1">
    <path
       d="M 302.21268,156.39295 L 291.70135,165.24358 L 287.02471,169.06125 L 282.25899,143.21563 L 306.08124,152.52437 L 305.90945,153.94964 L 302.21268,156.39295 z M 255.20443,116.56829 L 255.20443,120.99042 L 255.75163,125.96612 L 259.06664,160.26788 L 272.34577,158.60719 C 279.21122,157.50007 284.7532,209.31857 286.72566,217.79381 C 300.83195,201.56235 311.29873,190.0457 329.30541,177.40286 C 343.75529,167.26694 365.94867,155.47034 385.7242,150.85732 C 380.34765,146.18704 344.31522,131.85169 334.66923,128.35215 C 316.79618,121.86212 297.9496,114.90124 274.00645,114.90124 L 271.77948,114.72307"
       id="path359"
       style="fill:#ede815;fill-opacity:1;fill-rule:evenodd;stroke:none" />
    <path
       d="M 248.56805,220.01441 C 248.56805,206.88799 234.34086,203.17213 257.96588,201.19966 L 248.56805,220.01441 z M 195.47063,209.49673 L 233.87639,241.84509 L 231.41398,244.35202 L 175.54875,293.67632 L 182.75143,294.69436 L 202.66057,297.46217 L 252.43662,285.83737 C 252.96473,279.47458 259.96379,262.84227 262.5789,257.25575 C 267.00739,247.76884 271.67769,240.75705 276.22071,232.18002 C 276.06164,230.29026 266.51746,207.70879 264.97767,204.14563 C 263.41242,200.5443 260.77187,193.71067 259.8429,189.91846 C 258.77396,185.54085 257.31051,177.33923 255.75163,174.0942 L 189.54688,203.84023"
       id="path361"
       style="fill:#ede815;fill-opacity:1;fill-rule:evenodd;stroke:none" />
    <path
       d="M 150.67027,409.19901 C 153.47626,411.08239 160.07447,419.43036 163.25585,422.61812 C 167.72889,427.09115 172.13831,430.97245 176.52226,435.34369 C 183.43224,442.24093 198.00301,452.53592 207.27359,457.13622 C 219.50286,463.21903 270.48147,483.879 285.61854,483.879 L 306.08124,486.09324 L 341.47741,484.98612 C 349.58359,484.98612 360.86481,483.3127 368.46198,482.10377 C 374.34755,481.16845 388.77835,476.78449 392.91415,476.68905 L 418.35893,465.0706 C 422.22749,461.7047 427.91582,458.94324 432.05799,454.99196 C 436.33378,450.90705 440.0051,446.98121 444.21091,442.80723 C 450.45916,436.6226 461.3268,423.45801 466.03525,415.96265 C 472.27079,406.04307 478.61448,395.69719 482.45124,383.6906 C 485.71534,373.46561 490.52561,355.99342 490.80557,343.37601 L 491.48639,332.87106 L 491.35913,316.81775 C 491.35913,301.85249 489.66663,288.45884 487.16606,275.65055 C 484.63367,262.69592 480.75874,251.40835 478.08636,239.92352 C 477.02378,237.91288 474.83499,231.0729 472.55711,231.0729 L 469.23574,231.0729 C 455.6321,231.0729 438.21716,235.20234 425.60613,237.21934 C 411.60801,239.45904 397.77531,242.60225 384.29895,245.68821 C 371.27433,248.66599 356.55084,251.87284 344.79879,255.97047 C 338.59508,258.12745 331.94596,259.85176 325.9204,261.97057 C 322.54813,263.1604 310.4652,268.50514 308.2955,268.69603 C 307.35381,269.51047 307.32835,269.79679 305.52769,269.79679 C 303.51068,269.79679 291.63773,238.30738 290.59423,233.84071 L 286.72566,217.79381 C 284.7532,209.31857 279.21122,157.50007 272.34577,158.60719 L 259.06664,160.26788 L 252.6466,160.90416 L 255.75163,174.0942 C 257.31051,177.33923 258.77396,185.54085 259.8429,189.91846 C 260.77187,193.71067 263.41242,200.5443 264.97767,204.14563 C 266.51746,207.70879 276.06164,230.29026 276.22071,232.18002 L 280.64284,242.13776 C 283.14978,246.88441 284.94408,252.47729 286.89109,258.01291 C 288.53906,262.70865 292.53488,270.57305 293.36204,273.67172 C 289.73526,274.51161 283.84332,277.5403 278.7531,278.97193 C 274.82725,280.08541 267.31918,282.75141 263.49514,283.07591 L 252.43662,285.83737 L 202.66057,297.46217 L 186.06644,302.98507 C 178.60289,307.72535 165.2156,310.14956 159.5209,317.92487 C 164.20391,324.91758 167.608,337.24229 175.00156,341.16177 C 196.46958,341.16177 206.19192,328.18805 220.35547,320.6927 C 226.72461,315.15707 239.18931,306.28098 248.56805,304.09219 C 255.1917,300.5863 267.50369,296.57775 275.27902,293.75267 C 279.72023,292.13652 284.72139,289.87138 288.93355,288.60518 C 296.55616,286.31457 295.88807,286.30185 299.44486,293.02731 L 301.65911,298.00937 C 304.80233,300.31906 310.40794,318.9811 312.22133,324.504 C 315.29456,333.81275 316.81526,344.17136 319.23312,354.00186 C 321.87367,364.6977 331.38604,406.13851 338.71597,408.09824 C 341.9228,405.30499 350.87524,402.90622 350.87524,397.58056 L 350.87524,395.37267 C 350.87524,379.58661 341.78283,347.75361 337.37341,334.75444 C 334.68196,326.80096 329.52175,316.68413 325.80587,309.25878 C 321.5619,300.77081 317.61061,292.38467 313.2712,284.17668 C 316.85344,277.40667 367.80661,266.95898 381.28934,267.02262 C 395.48472,267.0926 409.69281,267.02898 423.88181,267.02898 C 437.73359,267.02898 450.90455,264.82109 464.26004,264.82109 L 467.02148,264.82109 C 469.49025,264.82109 469.7893,272.15102 469.7893,274.77885 C 469.7893,279.91362 470.89642,282.95502 470.89642,289.15874 C 470.89642,294.92978 471.44998,298.55021 471.44363,304.09219 C 471.44363,314.10085 470.41284,324.47854 469.7893,333.4119 C 468.72035,348.51078 463.08928,372.86752 457.61729,383.20067 C 454.28956,397.51058 434.37404,424.04339 424.58172,433.1358 C 417.24544,439.94398 410.6345,446.42765 401.58027,451.61332 C 394.84844,455.47553 381.25117,463.82986 373.5522,465.63053 L 366.92218,467.28485 L 364.15437,467.83842 L 330.41889,473.37404 L 318.24689,473.92124 C 301.13737,473.92124 294.21466,473.21497 280.64284,470.05266 C 271.23865,467.8575 247.54364,458.89235 241.92531,454.01208 L 227.54542,445.71503 L 223.67048,443.50077 L 181.6443,418.60957 C 169.40867,410.40794 164.61112,404.61145 156.10409,392.70668 C 151.6056,386.42025 140.3562,366.26295 138.50463,358.30947 C 134.40064,352.39845 126.88619,314.59078 126.88619,302.98507 L 126.88619,278.09386 C 126.88619,258.7001 135.49504,234.78239 140.27349,219.0091 C 145.79637,200.74154 155.35965,185.90354 165.82642,172.10902 C 175.52967,159.29438 188.96787,145.11173 203.02324,136.84012 C 214.22811,130.24827 238.58484,116.56829 255.20443,116.56829 L 271.77948,114.72307 L 274.00645,114.90124 C 297.9496,114.90124 316.79618,121.86212 334.66923,128.35215 C 344.31522,131.85169 380.34765,146.18704 385.7242,150.85732 L 392.91415,154.73226 C 395.56744,155.35582 409.99822,165.00816 412.13612,167.03789 C 416.73641,171.40275 423.6973,177.91824 426.64963,183.4984 L 441.02952,203.96748 L 443.79097,202.86671 C 449.31387,199.0236 468.68217,195.33318 468.68217,186.81977 L 468.68217,185.15908 C 468.68217,182.94484 467.52414,180.11976 467.02148,177.96914 C 465.86982,173.01254 458.80714,164.63275 455.4794,161.30501 C 452.26619,158.09181 442.14301,150.91459 440.47596,148.64945 C 436.81735,146.71515 432.87242,143.90916 429.30926,141.5613 C 425.6125,139.11163 421.45123,137.30459 417.69083,134.93128 C 411.86888,131.25995 400.11682,125.13259 393.53771,122.57475 C 379.10691,116.96277 356.21361,106.45146 338.15604,104.94348 L 314.37832,102.7356 L 268.4772,102.7356 C 209.55147,102.7356 183.24136,131.22177 158.9737,165.80351 C 148.79325,180.32337 133.6562,202.95579 127.52247,220.64433 C 123.83842,231.28922 119.29539,240.41982 116.60393,252.87178 C 114.33878,263.3322 110.29841,277.83298 110.29841,289.7123 L 110.29841,306.86001 C 110.29841,320.56544 118.77364,356.43881 123.46938,365.04765 C 128.00604,373.37653 130.25847,380.2738 135.62866,388.2909 C 137.54385,391.15415 150.46667,408.63271 150.67027,409.19901"
       id="path363"
       style="fill:#252122;fill-opacity:1;fill-rule:evenodd;stroke:none" />
    <path
       d="M 489.55846,396.91883 L 495.21498,407.15019 L 482.37489,405.76947 L 489.55846,396.91883 z M 422.22749,106.06333 L 428.95295,117.61814 L 406.49869,117.33181 L 422.22749,106.06333 z M 338.15604,104.94348 C 356.21361,106.45146 379.10691,116.96277 393.53771,122.57475 C 400.11682,125.13259 411.86888,131.25995 417.69083,134.93128 C 421.45123,137.30459 425.6125,139.11163 429.30926,141.5613 C 432.87242,143.90916 436.81735,146.71515 440.47596,148.64945 C 453.18879,148.9294 471.86992,159.83522 480.19244,165.35175 C 486.81611,169.74206 504.49832,187.41151 506.29263,195.11684 C 514.1443,204.152 520.11896,231.7728 520.11896,249.88128 L 520.11896,252.64909 C 520.11896,281.82882 508.42416,316.7414 496.8884,333.96545 L 490.80557,343.37601 C 490.52561,355.99342 485.71534,373.46561 482.45124,383.6906 C 478.61448,395.69719 472.27079,406.04307 466.03525,415.96265 C 461.3268,423.45801 450.45916,436.6226 444.21091,442.80723 C 440.0051,446.98121 436.33378,450.90705 432.05799,454.99196 C 427.91582,458.94324 422.22749,461.7047 418.35893,465.0706 L 456.40836,485.52696 L 463.15292,429.11452 L 467.58141,429.16542 L 537.54025,425.08052 L 513.9916,384.62594 L 568.24069,392.05131 L 570.00954,391.98131 L 539.47454,345.5839 L 532.92088,336.12244 L 594.77985,299.67006 L 597.54766,296.90225 L 561.04437,274.21892 L 552.92546,269.51683 L 598.10123,244.35202 L 603.80227,241.08791 L 573.21639,230.51933 L 569.34145,229.41221 L 560.53536,226.51713 L 590.35772,194.56329 L 593.67273,191.24827 L 595.3525,188.87496 L 545.55736,182.94484 L 542.79592,182.39127 L 532.80635,181.62138 L 565.47287,137.031 L 568.78788,132.60887 L 573.20366,125.93431 L 515.69046,143.11381 L 512.929,144.2273 L 505.22367,146.59426 L 516.25038,102.7356 L 517.9047,96.09285 L 519.37451,88.622939 L 468.68217,122.65111 L 465.41807,124.94171 L 434.39314,72.862319 L 430.22551,65.850531 L 430.02826,65.188802 L 387.37852,108.26485 L 382.53645,113.37417 L 365.8087,65.66601 L 362.68456,57.18442"
       id="path365"
       style="fill:#ede815;fill-opacity:1;fill-rule:evenodd;stroke:none" />
    <path
       d="M 299.79482,442.9663 C 304.26785,443.04265 308.72816,442.7945 305.94762,446.66944 C 304.64326,448.48283 302.33357,453.10857 301.09283,454.01208 L 299.79482,442.9663 z M 220.35547,320.6927 C 220.35547,325.90381 218.32574,331.43943 215.37977,333.41826 L 175.3515,395.23907 L 183.30498,394.26555 L 230.87315,387.09469 L 229.75966,394.81275 L 223.67048,443.50077 L 227.54542,445.71503 L 270.02335,435.31187 L 272.34577,443.50077 L 280.64284,470.05266 C 294.21466,473.21497 301.13737,473.92124 318.24689,473.92124 L 324.82601,466.78856 L 330.41889,473.37404 L 364.15437,467.83842 L 351.78512,453.63033 L 374.66569,453.96119 L 373.5522,465.0706 L 373.5522,465.63053 C 381.25117,463.82986 394.84844,455.47553 401.58027,451.61332 C 410.6345,446.42765 417.24544,439.94398 424.58172,433.1358 C 434.37404,424.04339 454.28956,397.51058 457.61729,383.20067 C 452.55251,386.5984 446.72421,392.17857 441.36039,396.2571 C 435.66569,400.59017 429.84374,404.03879 423.51277,407.72284 C 411.15624,414.90006 397.68624,421.23102 382.1865,425.02325 C 369.2255,428.19827 344.28339,431.75507 329.74444,428.12829 C 322.02638,426.20672 312.92124,425.02325 306.64118,421.91821 C 302.6708,419.95211 290.43517,414.21925 288.38634,411.41325 C 275.65443,404.67507 263.87055,387.81369 257.41232,374.35005 C 253.11108,369.39343 246.90099,342.26889 246.90099,331.75121 L 246.90099,317.37132 L 248.56805,304.09219 C 239.18931,306.28098 226.72461,315.15707 220.35547,320.6927"
       id="path367"
       style="fill:#ede815;fill-opacity:1;fill-rule:evenodd;stroke:none" />
    <path
       d="M 341.47741,484.98612 L 382.52372,529.64649 L 392.91415,476.68905 C 388.77835,476.78449 374.34755,481.16845 368.46198,482.10377 C 360.86481,483.3127 349.58359,484.98612 341.47741,484.98612"
       id="path369"
       style="fill:#ede815;fill-opacity:1;fill-rule:evenodd;stroke:none" />
    <path
       d="M 287.27922,489.96818 L 291.1478,502.13382 L 292.1722,502.10837 L 292.80849,501.0267 L 306.08124,486.09324 L 285.61854,483.879"
       id="path371"
       style="fill:#ede515;fill-opacity:1;fill-rule:evenodd;stroke:none" />
    <path
       d="M 460.93866,509.33012 C 460.93866,510.60905 460.55689,510.98444 459.27798,510.98444 C 455.59393,510.98444 452.0944,508.15938 452.0944,503.79451 C 454.80494,503.85813 460.93866,504.51351 460.93866,507.11588 L 460.93866,509.33012 z M 451.53447,489.41462 C 451.66809,495.20474 454.86858,492.48784 455.95024,496.71909 L 447.11234,496.051 C 441.30312,495.54197 440.60321,500.60675 441.45582,504.47533 C 442.76656,510.37999 445.17805,510.58996 447.66589,514.31218 C 450.56732,516.24647 454.72222,519.83508 459.27798,519.83508 L 462.04578,519.83508 C 467.04058,519.83508 470.89642,515.99197 470.89642,510.98444 L 470.89642,510.43726 C 470.89642,506.25054 470.03109,502.17836 468.68217,499.37238 L 460.3851,488.3075 C 459.04892,487.66485 457.96725,487.20036 455.96297,487.20036 L 454.30228,487.20036 C 452.72431,487.20036 452.37436,488.45383 451.53447,489.41462"
       id="path373"
       style="fill:#252122;fill-opacity:1;fill-rule:evenodd;stroke:none" />
    <path
       d="M 521.22608,510.43726 C 521.22608,504.67257 523.64394,500.92489 528.96958,500.4795 C 529.51042,502.49649 531.17747,503.53999 531.17747,504.90163 L 531.17747,508.77657 C 531.17747,515.31114 529.47224,518.05987 528.41603,522.60289 C 525.85818,522.01115 521.22608,516.8573 521.22608,514.85939 L 521.22608,510.43726 z M 513.48257,520.395 C 515.62046,522.85104 515.97042,524.46082 518.85912,526.6369 C 522.14868,529.11202 523.43397,529.1502 526.20177,530.89996 C 539.68452,530.89996 535.75232,520.4141 539.69723,512.34609 L 550.53942,520.94857 L 558.8365,529.79284 C 560.33174,532.63064 562.15151,536.00928 562.15151,540.31052 L 562.15151,543.62553 C 562.15151,549.84197 553.75262,555.79753 547.77162,555.79753 L 546.11093,555.79753 C 542.25508,555.79753 536.59856,555.61301 533.14993,554.9322 C 530.8148,554.46771 528.63872,554.52498 527.93245,552.95337 C 527.23891,551.39448 526.97168,548.60759 525.09465,548.60759 C 523.17945,548.60759 520.11896,553.02336 520.11896,555.24397 L 520.11896,556.90465 C 520.11896,560.86231 523.00129,560.61416 525.09465,562.43392 L 534.49885,563.54104 L 538.36742,563.54104 C 557.01673,563.54104 571.00213,559.15708 571.00213,540.85772 L 571.00213,540.31052 C 571.00213,531.10357 564.33394,521.62303 559.5364,516.92729 C 555.05064,512.53697 543.47673,504.80619 540.58166,500.4795 C 539.80541,499.31511 536.64947,495.5038 535.05241,495.5038 L 530.6239,495.5038 C 530.24215,493.84948 528.99504,491.62887 527.30889,491.62887 C 521.69056,491.62887 516.41581,497.55262 514.57698,501.5739 C 511.24287,508.85928 511.63101,512.42244 513.48257,520.395"
       id="path375"
       style="fill:#272324;fill-opacity:1;fill-rule:evenodd;stroke:none" />
    <path
       d="M 179.43005,534.2277 L 177.76937,534.2277 C 177.10127,533.22238 173.34722,529.6783 173.34722,529.24564 C 173.34722,524.20631 184.2594,510.98444 188.83425,510.98444 L 189.935,510.98444 C 192.54374,510.98444 192.80462,516.83184 191.59569,518.73431 C 191.59569,526.38239 187.33263,534.2277 179.43005,534.2277 M 125.23187,514.85939 L 119.14905,512.09794 C 116.03764,510.01095 113.61342,506.21872 113.61342,501.0267 L 113.61342,496.051 C 113.61342,487.71575 120.73975,473.78125 124.81193,469.07916 C 127.93605,465.47146 130.61479,462.29008 134.99874,459.90402 C 137.79836,458.38332 145.2619,455.11285 149.00959,455.11285 L 152.33096,455.11285 L 154.5452,460.64847 C 160.02356,464.3198 158.10836,461.96556 164.21027,463.7026 C 167.2644,464.5743 167.46166,470.7653 166.15728,472.82047 C 166.15728,483.21091 157.70114,494.82934 152.19097,500.33951 C 145.56732,506.96953 138.19285,514.85939 125.23187,514.85939 M 111.95274,518.73431 C 114.14153,519.31969 117.17658,522.53291 120.72702,523.79273 C 123.86387,524.90621 127.99968,525.3707 132.42182,525.3707 C 137.51203,525.3707 145.91726,520.79587 149.34045,518.51163 C 154.32886,515.19662 157.84113,510.27819 161.73515,507.66943 L 160.62802,524.81715 C 160.62802,529.25201 156.4095,545.50891 155.03513,549.65108 C 153.36173,554.70949 150.11671,568.7458 150.11671,575.15949 L 150.11671,575.71304 C 150.11671,579.69614 152.10189,582.92844 154.5452,584.56368 L 157.30666,585.11723 C 161.9833,581.05143 164.44569,541.77395 169.47229,538.0899 C 172.19556,539.91602 177.12672,545.28622 181.08438,545.28622 L 186.61999,545.28622 C 193.4918,545.28622 201.55345,528.69207 201.55345,519.83508 L 201.55345,517.62719 C 201.55345,513.70136 200.08364,511.41712 199.3392,508.223 C 197.76759,506.41598 193.49816,500.4795 190.49493,500.4795 L 186.61999,500.4795 C 184.10033,500.4795 181.14163,503.14551 178.32292,503.79451 L 172.0874,509.77553 L 171.68655,509.33012 L 171.68655,507.66943 C 171.68655,504.19536 168.8042,502.96098 165.60372,502.69375 C 166.15728,500.60675 170.8212,493.12411 172.24647,489.42098 C 173.6081,485.896 175.56148,478.1843 175.56148,473.37404 L 175.56148,465.63053 C 175.56148,455.52643 167.41712,454.21569 163.94303,449.03004 C 160.47532,446.48492 157.30666,442.39365 150.67027,442.39365 L 148.45602,442.39365 C 137.21935,442.39365 123.59027,454.18388 117.89558,460.50213 C 111.12558,468.01022 104.76916,482.56189 104.76916,496.60455 L 104.76916,499.92593 C 104.76916,509.51465 108.1987,513.12235 111.95274,518.73431"
       id="path377"
       style="fill:#252122;fill-opacity:1;fill-rule:evenodd;stroke:none" />
    <path
       d="M 212.06476,540.31052 C 212.74558,537.75267 215.3925,533.66777 218.69478,533.66777 L 219.80827,533.66777 C 222.41701,533.66777 222.01616,534.74308 224.23041,535.32846 L 224.23041,536.98915 C 224.23041,539.26702 219.4265,541.41764 217.04046,541.41764 C 215.65338,541.41764 213.40095,540.62229 212.06476,540.31052 M 207.63627,530.89996 L 200.44633,545.28622 L 199.89276,555.24397 C 202.2979,565.55169 204.14946,564.97902 208.74339,571.83811 C 212.35745,574.25597 216.64597,577.37373 222.56972,577.37373 L 226.99185,577.37373 C 231.21674,577.37373 234.13725,576.03755 235.84248,573.4988 L 235.84248,571.28454 C 231.98027,563.97371 224.26859,571.46271 218.14758,568.51674 C 212.15384,568.02044 207.0827,560.66507 207.0827,554.13685 C 207.0827,550.06466 207.69989,545.60435 210.95764,544.73265 C 211.50484,546.80056 213.68727,549.70835 216.48689,549.70835 L 220.90904,549.70835 C 225.98653,549.70835 231.41398,544.74538 231.41398,539.20339 L 231.41398,537.54271 C 231.41398,535.09941 230.59955,533.59779 229.75966,532.01345 C 227.59631,528.77479 222.49336,525.3707 217.04046,525.3707 L 216.48689,525.3707 C 212.51652,525.3707 210.00322,529.31563 207.63627,530.89996"
       id="path379"
       style="fill:#272324;fill-opacity:1;fill-rule:evenodd;stroke:none" />
    <path
       d="M 479.18713,510.43726 L 476.42567,514.31218 C 474.73954,521.56576 473.10431,520.05779 473.10431,531.45988 L 476.97924,545.83977 C 481.01325,550.48461 485.78533,561.88672 494.12694,561.88672 L 494.68051,561.88672 C 496.53844,561.88672 498.54907,560.90049 498.54907,559.11891 L 498.54907,557.45822 C 498.54907,555.68301 493.27433,552.83883 491.9127,550.81547 C 488.71222,549.96286 484.96453,543.86732 483.60926,540.86408 C 480.98143,535.0485 481.71316,532.61791 481.96767,525.93063 C 482.54032,510.69812 495.60312,511.22624 497.99552,521.50214 L 499.65621,523.71001 C 500.46431,527.1841 502.44314,531.07813 503.31484,535.53843 C 504.42834,541.26494 504.02111,542.91926 508.50687,545.28622 L 511.8028,545.96703 C 512.83994,544.31907 513.48257,542.87472 513.48257,540.31052 C 513.48257,531.95618 507.11343,520.03869 504.07838,514.31218 C 501.90231,511.80525 496.76114,506.00876 492.46625,506.00876 L 489.14488,506.00876 C 484.81183,506.00876 481.85313,508.65568 479.18713,510.43726"
       id="path381"
       style="fill:#272324;fill-opacity:1;fill-rule:evenodd;stroke:none" />
    <path
       d="M 472.00354,574.60592 L 475.85939,575.28038 C 477.50098,574.07145 479.18713,571.62814 479.18713,569.07667 L 479.18713,566.86241 C 479.18713,565.48805 477.34192,564.19004 476.73746,562.1285 C 476.2348,560.39783 476.13299,558.46991 475.65578,556.56742 C 474.70773,552.80066 473.44789,549.9374 473.10431,545.83977 C 471.83175,544.00094 470.56556,540.31052 467.58141,540.31052 C 465.27808,540.31052 461.49223,541.99029 461.49223,544.17909 C 461.49223,545.3053 464.74997,558.49535 465.35444,560.79231 C 466.98967,567.02785 466.86878,571.88902 472.00354,574.60592"
       id="path383"
       style="fill:#272324;fill-opacity:1;fill-rule:evenodd;stroke:none" />
    <path
       d="M 239.71742,569.62386 L 242.47886,579.58162 L 248.00813,585.66443 C 250.05057,585.66443 251.88306,586.16073 251.88306,584.01011 C 251.88306,577.74913 246.34744,570.54646 246.34744,561.88672 L 246.34744,561.3268 L 246.95827,554.69678 C 249.52883,550.76456 252.20121,540.31052 259.06664,540.31052 L 260.7337,540.31052 C 265.11765,540.31052 267.37007,546.34243 267.37007,550.81547 C 267.37007,563.42015 265.71575,566.18795 263.49514,575.71304 L 267.91727,582.90299 L 269.57796,582.90299 C 273.37018,577.23375 275.66078,568.4722 275.66078,559.11891 L 275.66078,555.79753 C 275.66078,549.81015 273.49108,545.21622 272.34577,540.31052 C 268.88442,537.77177 267.19829,531.45988 258.51944,531.45988 L 257.41232,531.45988 C 246.68467,531.45988 239.15749,546.08792 239.15749,557.45822 L 239.15749,561.3268"
       id="path385"
       style="fill:#272324;fill-opacity:1;fill-rule:evenodd;stroke:none" />
    <path
       d="M 415.5911,574.05235 L 418.90611,576.26661 L 421.12037,576.26661 C 423.76092,572.32804 423.6973,562.98747 429.96464,562.98747 C 433.66777,562.98747 437.92447,566.33431 439.36884,569.07667 L 442.13664,576.26661 C 443.32648,581.38229 442.51205,580.97506 446.01157,584.01011 C 447.9395,584.46187 447.8695,585.11723 449.88015,585.11723 C 452.00532,585.11723 453.75508,581.06414 453.75508,579.03441 L 453.75508,577.92729 C 453.75508,569.31209 448.0413,564.90267 444.90445,560.22603 C 439.37519,556.5229 436.56284,552.68613 427.20319,552.47616 C 426.49692,552.92791 422.76833,554.13685 421.67394,554.13685 C 418.67706,554.13685 417.28997,535.10576 416.4819,531.1163 C 415.73745,527.4386 414.92937,522.88285 414.0704,519.70783 C 413.12235,516.22102 411.42349,512.82329 410.61542,509.33012 C 409.15834,507.65035 406.75321,503.2473 403.97267,503.2473 C 401.11578,503.2473 399.45509,504.65348 398.4434,506.56231 C 401.12215,511.62073 405.86878,532.60519 407.51037,540.08782 C 408.78293,545.87795 409.34922,552.29164 410.72995,557.88453 C 411.32804,560.30874 411.79253,564.24731 412.20611,566.92603 C 413.17962,573.07249 413.10325,570.33649 415.5911,574.05235"
       id="path387"
       style="fill:#252122;fill-opacity:1;fill-rule:evenodd;stroke:none" />
    <path
       d="M 368.5765,569.07667 L 367.46938,574.05235 C 367.46938,587.06424 372.07604,587.24877 378.53426,592.86075 C 381.25117,593.08344 380.55763,593.96787 382.95639,593.96787 L 386.83134,593.96787 C 395.23657,593.96787 399.07332,587.60508 403.97267,584.01011 L 405.07979,581.2423 L 405.07979,579.03441 C 404.09993,577.56462 403.1137,576.26661 400.65766,576.26661 L 399.55054,576.26661 C 395.54198,576.26661 392.09971,583.30384 387.37852,584.56368 C 386.19505,585.38448 385.55877,585.66443 383.51633,585.66443 C 379.01147,585.66443 376.32001,579.70251 376.32001,574.60592 C 376.32001,571.57723 383.71357,560.84958 385.5715,558.41264 C 391.21529,551.01271 397.33628,553.5642 397.33628,545.28622 C 386.545,542.77291 385.69239,541.60852 378.74424,551.03181 C 376.08459,554.63951 369.60091,564.6927 368.5765,569.07667"
       id="path389"
       style="fill:#252122;fill-opacity:1;fill-rule:evenodd;stroke:none" />
    <path
       d="M 282.30353,564.64816 C 281.74361,566.73516 278.98215,570.55919 278.98215,572.94523 L 278.98215,576.81381 C 278.98215,580.16063 280.56012,581.84676 281.19641,584.56368 L 286.72566,591.20006 C 289.31532,592.57441 292.344,595.07499 296.12985,595.07499 L 298.33774,595.07499 C 305.89037,595.07499 315.48544,591.06644 315.48544,583.45656 C 314.53738,581.66225 312.6031,580.13518 309.95619,580.13518 C 306.20214,580.13518 303.19891,586.22437 295.56993,586.22437 C 290.84875,586.11619 288.29726,581.45864 287.92822,577.2592 C 287.54647,572.90706 291.31958,568.86033 293.50203,566.44883 C 296.95701,562.66297 298.03868,561.60039 301.7991,558.15176 C 306.79388,553.5642 308.30186,557.56002 312.72399,552.47616 L 312.72399,549.16115 C 302.72806,543.87368 303.36434,544.21726 294.80003,550.59278 C 289.5571,554.49952 286.43933,559.88243 282.30353,564.64816"
       id="path391"
       style="fill:#252122;fill-opacity:1;fill-rule:evenodd;stroke:none" />
    <path
       d="M 327.65109,577.92729 C 329.58537,578.37268 329.51538,579.03441 331.52602,579.03441 L 333.7339,579.03441 C 338.40418,579.03441 346.75853,570.29195 351.98236,569.07667 L 353.64305,580.68874 C 354.08845,586.0462 356.17544,593.24887 359.72588,595.62856 C 362.69729,597.04746 366.36861,595.21498 366.36861,591.75362 L 366.36861,591.20006 C 366.36861,589.03035 363.99531,589.03035 362.82455,586.99426 C 361.89558,585.39084 361.58381,583.11296 361.15113,580.93688 C 360.61666,578.26452 359.32501,569.21028 359.17868,567.41598 C 357.84249,564.62908 356.79262,561.3268 352.54229,561.3268 L 350.87524,561.3268 C 347.0512,561.3268 338.91321,568.31313 335.39459,570.18379 C 334.3829,571.05549 333.42849,571.83811 331.52602,571.83811 L 330.9661,571.83811 C 328.3828,571.83811 327.09752,567.46052 327.09752,564.64816 C 327.09752,559.79337 338.28329,550.26827 343.13173,550.26827 L 346.45947,550.26827 L 345.87409,550.55461 L 348.6419,556.08386 L 349.22092,555.79753 C 351.25064,554.4359 353.38218,553.40513 353.64305,550.26827 L 352.54229,546.94054 C 350.86887,544.45906 348.41285,543.07833 344.24522,543.07833 L 342.03098,543.07833 C 335.19098,543.07833 320.4675,556.04568 320.4675,564.09461 L 320.4675,565.20173 C 320.4675,571.41817 325.03598,574.35141 327.65109,577.92729"
       id="path393"
       style="fill:#272324;fill-opacity:1;fill-rule:evenodd;stroke:none" />
  </g>
</svg>
