<?xml version="1.0" encoding="UTF-8" standalone="no"?>
<!-- Created with Inkscape (http://www.inkscape.org/) -->

<svg
   xmlns:dc="http://purl.org/dc/elements/1.1/"
   xmlns:cc="http://creativecommons.org/ns#"
   xmlns:rdf="http://www.w3.org/1999/02/22-rdf-syntax-ns#"
   xmlns:svg="http://www.w3.org/2000/svg"
   xmlns="http://www.w3.org/2000/svg"
   xmlns:sodipodi="http://sodipodi.sourceforge.net/DTD/sodipodi-0.dtd"
   xmlns:inkscape="http://www.inkscape.org/namespaces/inkscape"
   version="1.0"
   width="512"
   height="512"
   id="svg2444"
   xml:space="preserve"
   sodipodi:docname="oc_icon-ro.svg"
   inkscape:export-filename="\\gate\maps\opencaching\_logo\opencaching_ro\apple-touch-icon-ro.png"
   inkscape:export-xdpi="44.450001"
   inkscape:export-ydpi="44.450001"
   inkscape:version="0.92.3 (2405546, 2018-03-11)"><metadata
     id="metadata14"><rdf:RDF><cc:Work
         rdf:about=""><dc:format>image/svg+xml</dc:format><dc:type
           rdf:resource="http://purl.org/dc/dcmitype/StillImage" /><dc:title></dc:title></cc:Work></rdf:RDF></metadata><sodipodi:namedview
     pagecolor="#ffffff"
     bordercolor="#666666"
     borderopacity="1"
     objecttolerance="10"
     gridtolerance="10"
     guidetolerance="10"
     inkscape:pageopacity="0"
     inkscape:pageshadow="2"
     inkscape:window-width="1600"
     inkscape:window-height="841"
     id="namedview12"
     showgrid="false"
     inkscape:zoom="0.60549588"
     inkscape:cx="-30.55347"
     inkscape:cy="194.88159"
     inkscape:window-x="-4"
     inkscape:window-y="-4"
     inkscape:window-maximized="1"
     inkscape:current-layer="svg2444" /><defs
     id="defs2447" /><g
     transform="matrix(1.6933319,0,0,-1.6933319,-6.2832998,-7.2023752)"
     id="g2453"><path
       d="m 297.6377,-127.9995 -17.334,6.0068 -2.1992,0.627 -4.9912,1.6474 16.9062,18.1543 1.875,1.8848 0.9532,1.3467 -28.2237,3.3691 -1.5644,0.3174 -5.6602,0.4336 18.5147,25.3398 1.8789,2.5122 2.5019,3.7955 -32.5967,-9.7642 -1.5644,-0.6313 -4.3672,-1.3453 6.248,24.9209 0.9366,3.7769 0.8359,4.2427 -28.7314,-19.3355 -1.8487,-1.3017 -17.5849,29.5927 -2.3633,3.9844 -0.1113,0.3765 -24.1729,-24.4781 -2.7441,-2.9043 -9.4785,27.1104 -1.7725,4.8213 -20.1904,-38.8814 c -8.8809,3.1626 -42.208,15.4468 -42.208,15.4468 l 4.4218,-41.874 -40.1513,-18.0264 3.3593,-3.2158 21.7657,-18.3818 -1.3955,-1.4229 -31.6602,-28.0278 4.082,-0.5781 c 0,0 5.9434,-0.7442 10.0313,-1.3985 4.0674,-0.6523 10.9961,-7.9453 11.4238,-13.2519 -0.0469,-0.0391 -0.0996,-0.0821 -0.1445,-0.1231 0,-2.9629 -1.1514,-6.1054 -2.8194,-7.2304 l -22.6865,-35.129 4.5069,0.5528 26.9599,4.0742 -0.6308,-4.3848 -3.712,-29.5898 26.5332,6.5762 1.3165,-4.6543 4.7001,-15.084 c 0.0147,-0.006 0.0274,-0.008 0.0391,-0.01 l 5.9141,-18.2246 0.582,0.0176 0.3604,0.6152 7.5224,8.4824 6.8145,6.92 c 0.0263,0 0.0537,0 0.08,0 l 3.7315,4.0527 3.1689,-3.7441 0.0342,-0.002 29.4961,-31.9727 8.6621,43.0411 33.2158,-17.9707 3.8194,32.0566 2.5107,-0.0293 39.6504,2.3203 -13.3467,22.9883 30.7442,-4.2207 1.0039,0.043 -17.3047,26.3613 -3.7168,5.375 35.0586,20.7148 1.5723,1.5743 -20.6915,12.8891 -4.6015,2.6699 25.6055,14.3008 3.2314,1.8555 m -102.9121,76.7266 3.8144,-6.5689 -12.7275,0.1631 8.9131,6.4058 m -65.8262,-26.4029 -8.1474,-7.228 -2.6524,-2.165 -2.7002,14.684 13.5,-5.291 m -27.2676,-27.6567 -5.3291,-10.6944 c 0,7.462 -8.0644,9.5743 5.3291,10.6944 m 27.1905,-139.4878 c -0.7383,-1.0293 -2.0469,-3.6582 -2.7491,-4.1699 l -0.7373,6.2793 c 2.5371,-0.0469 5.0635,0.0937 3.4864,-2.1094 m 37.4804,-17.3301 c -0.003,-0.0137 -11.5,13.375 -11.5,13.375 l 12.9678,-0.1855 -1.4678,-13.1895 m 62.5157,40.5723 4.0703,5.0293 3.2031,-5.8145 -7.2734,0.7852 m 21.3906,87.0102 c 0,-16.58 -7.0088,-34.8657 -13.167,-46.2094 -6.1582,-11.3457 -12.6602,-18.1739 -22.4941,-28.1446 -3.0108,-2.7539 -6.0186,-4.998 -8.9776,-7.248 -3.2256,-2.4649 -6.5264,-4.4258 -10.1133,-6.5156 -7.0029,-4.0801 -14.6386,-7.6797 -23.4248,-9.8321 -7.3437,-1.8066 -21.4785,-3.8262 -29.7197,-1.7637 -4.376,1.0899 -9.5352,1.7637 -13.0967,3.5274 -2.249,1.1172 -9.1855,4.373 -10.3437,5.9687 -7.2178,3.8301 -13.8946,13.4102 -17.5576,21.0586 -2.4366,2.8184 -5.9541,18.2305 -5.9541,24.2071 v 8.1738 l 0.8701,6.9531 c 0.0029,0.004 0.0127,0.0137 0.0127,0.0137 0.0263,0.3047 2.3281,11.6011 2.4013,11.9761 0.7998,4.1338 4.2412,12.3056 5.5977,15.2158 2.5107,5.3906 7.2656,14.5351 13.9463,22.7187 6.6816,8.1866 13.7812,15.5518 23.874,22.6543 8.1895,5.7618 24.0391,13.5752 31.9785,15.0845 7.9375,1.5122 23.0156,2.2168 31.0303,1.2564 8.0146,-0.96 17.79,-6.3555 22.5088,-9.4922 3.7539,-2.4932 13.7763,-12.5342 14.7929,-16.9131 4.4483,-5.1348 7.836,-20.8311 7.836,-31.1162 z"
       id="path2455"
       style="fill:#aaaaaa;fill-opacity:1;fill-rule:nonzero;stroke:none"
       inkscape:connector-curvature="0" /><path
       d="m 40.8203,-223.5254 c 1.5879,-1.0703 5.3301,-5.8144 7.1318,-7.625 2.5342,-2.543 5.0342,-4.7519 7.5186,-7.2305 3.916,-3.9218 12.1738,-9.7714 17.4287,-12.3847 6.9287,-3.4571 35.8233,-15.1934 44.4033,-15.1934 l 11.5967,-1.2637 20.0625,0.6309 c 4.5938,0 10.9863,0.9512 15.293,1.6387 3.3379,0.5312 11.5146,3.0234 13.8584,3.0761 l 14.4199,6.6036 c 2.1924,1.9121 5.417,3.4824 7.7656,5.7246 2.4229,2.3242 4.5039,4.5527 6.8897,6.9238 3.539,3.5156 9.6982,10.9961 12.3662,15.2539 3.5342,5.6406 7.1308,11.5176 9.3037,18.3398 1.8516,5.8106 4.5771,15.7383 4.7363,22.9083 l 0.3867,5.9667 -0.0712,9.127 c 0,8.5 -0.96,16.1128 -2.378,23.3882 -1.4375,7.3603 -3.6318,13.7764 -5.1474,20.3037 -0.6006,1.1436 -1.8438,5.0293 -3.1319,5.0293 h -1.8818 c -7.7119,0 -17.583,-2.3457 -24.7305,-3.4932 -7.9306,-1.2724 -15.7715,-3.0595 -23.4092,-4.8144 -7.3828,-1.6885 -15.7265,-3.5127 -22.3876,-5.8408 -3.5157,-1.2237 -7.2852,-2.2061 -10.6993,-3.4073 -1.9121,-0.6777 -8.7568,-3.7138 -9.9902,-3.8252 -0.5332,-0.4609 -0.5469,-0.625 -1.5684,-0.625 -1.1445,0 -7.872,17.8936 -8.4638,20.4327 l -2.1914,9.1162 c -1.1182,4.8173 -4.2588,34.2617 -8.1494,33.6357 l -7.5274,-0.9448 -3.6406,-0.3628 1.7597,-7.4942 c 0.8829,-1.8457 1.7159,-6.5039 2.3223,-8.9931 0.5235,-2.1543 2.0205,-6.0371 2.9102,-8.086 0.8711,-2.0224 6.2812,-14.8535 6.3711,-15.9267 l 2.5048,-5.6572 c 1.4219,-2.7002 2.4395,-5.878 3.543,-9.0215 0.9326,-2.667 3.1963,-7.1387 3.668,-8.8994 -2.0567,-0.4776 -5.3965,-2.1983 -8.2803,-3.0108 -2.2256,-0.6328 -6.4814,-2.1474 -8.6484,-2.3349 l -6.2696,-1.5655 -28.2099,-6.6089 -9.4033,-3.1367 c -4.2325,-2.6953 -11.8194,-4.0703 -15.0459,-8.4922 2.6533,-3.9726 4.583,-10.9746 8.7754,-13.2011 12.166,0 17.6757,7.3711 25.7031,11.6308 3.6094,3.1446 10.6738,8.1914 15.9892,9.4317 3.7569,1.9922 10.7334,4.2714 15.1387,5.8769 2.5186,0.9199 5.3525,2.2056 7.7412,2.9224 4.3194,1.3047 3.9414,1.3135 5.958,-2.5103 l 1.253,-2.8301 c 1.7822,-1.3125 4.958,-11.916 5.9853,-15.0566 1.7441,-5.2891 2.6045,-11.1738 3.9746,-16.7598 1.4971,-6.082 6.8897,-29.6269 11.041,-30.7382 1.8194,1.5839 6.8946,2.9492 6.8946,5.9765 v 1.252 c 0,8.9707 -5.1553,27.0586 -7.6543,34.4472 -1.5244,4.5176 -4.4512,10.2657 -6.5567,14.4864 -2.4043,4.8242 -4.6445,9.5859 -7.1035,14.2514 2.0303,3.8467 30.9082,9.7823 38.5488,9.7491 8.0479,-0.0411 16.0996,-0.004 24.1416,-0.004 7.8496,0 15.3164,1.2539 22.8848,1.2539 h 1.5635 c 1.4023,0 1.5683,-4.1621 1.5683,-5.6573 0,-2.9199 0.6289,-4.6474 0.6289,-8.1709 0,-3.2817 0.3145,-5.3403 0.3116,-8.4887 0,-5.6836 -0.586,-11.584 -0.9405,-16.6602 -0.6045,-8.5801 -3.7959,-22.418 -6.8994,-28.291 -1.8818,-8.1309 -13.1718,-23.207 -18.7197,-28.3731 -4.1592,-3.871 -7.9062,-7.5546 -13.0361,-10.5 -3.8174,-2.1953 -11.5225,-6.9433 -15.8858,-7.9687 l -3.7588,-0.9356 -1.5683,-0.3164 -19.1192,-3.1464 -6.9004,-0.3086 c -9.6953,0 -13.621,0.3984 -21.3125,2.1992 -5.3291,1.2461 -18.7587,6.3398 -21.9414,9.1133 l -8.1494,4.7148 -2.1972,1.2559 -23.8194,14.1465 c -6.9355,4.6582 -9.6523,7.9531 -14.4765,14.7187 -2.5489,3.5742 -8.9248,15.0254 -9.9737,19.5469 -2.3242,3.3574 -6.583,24.8398 -6.583,31.4355 v 14.1441 c 0,11.0224 4.8789,24.6103 7.584,33.5742 3.1309,10.3828 8.5527,18.8096 14.4863,26.6504 5.4991,7.2812 13.1143,15.3413 21.0782,20.0429 6.3505,3.7442 20.1552,11.5157 29.5752,11.5157 l 9.3955,1.0483 1.2627,-0.1011 c 13.5673,0 24.25,-3.9555 34.3818,-7.6411 5.4648,-1.9897 25.8848,-10.1372 28.9365,-12.791 l 4.0723,-2.1997 c 1.5039,-0.3525 9.6836,-5.8384 10.8945,-6.9922 2.6065,-2.4805 6.5508,-6.1826 8.2246,-9.3545 l 8.1494,-11.6308 1.5684,0.625 c 3.1289,2.1806 14.1055,4.2802 14.1055,9.1211 v 0.9414 c 0,1.2558 -0.6563,2.8642 -0.9424,4.0859 -0.6514,2.8164 -4.6543,7.5801 -6.541,9.4668 -1.8223,1.8271 -7.5577,5.9053 -8.501,7.1934 -2.0772,1.0996 -4.3106,2.6938 -6.3311,4.0297 -2.0947,1.3897 -4.4531,2.4165 -6.5839,3.7657 -3.3008,2.083 -9.962,5.5659 -13.6895,7.02 -8.1787,3.187 -21.1514,9.1636 -31.3867,10.0195 l -13.4785,1.2534 h -26.0147 c -33.3974,0 -48.3086,-16.1855 -62.0615,-35.8354 -5.7695,-8.2529 -14.3496,-21.1123 -17.8252,-31.1641 -2.0889,-6.0498 -4.6641,-11.2392 -6.1875,-18.3115 -1.2852,-5.9453 -3.5762,-14.1865 -3.5762,-20.9355 v -9.7398 c 0,-7.7871 4.8047,-28.1719 7.4678,-33.0664 2.5693,-4.7324 3.8457,-8.6523 6.8896,-13.2109 1.085,-1.627 8.4112,-11.5567 8.5264,-11.877"
       id="path2457"
       style="fill:#aaaaaa;fill-opacity:1;fill-rule:nonzero;stroke:none"
       inkscape:connector-curvature="0" /><path
       d="m 274.3418,-117.604 -4.9902,1.6445 16.9043,18.1573 1.875,1.8847 0.955,1.3477 -28.2226,3.3681 -1.5635,0.3174 -5.6631,0.4346 18.5156,25.3393 1.878,2.5123 2.5019,3.7939 -32.5957,-9.7612 -1.5644,-0.6338 -4.3682,-1.3452 6.2481,24.9214 0.9384,3.7758 0.833,4.2432 -28.7314,-19.3359 -1.8486,-1.3018 -0.1631,0.2764 v -18.3814 c 3.4326,-1.6782 6.4717,-3.4839 8.539,-4.8579 3.752,-2.4932 13.7754,-12.5351 14.7911,-16.9141 4.4492,-5.1328 7.8369,-20.8271 7.8369,-31.1152 v -1.5742 c 0,-16.5801 -7.0088,-34.8638 -13.168,-46.2075 -5.166,-9.5176 -10.582,-15.8614 -17.999,-23.5449 v -30.5333 l 1.3896,-0.0175 39.6514,2.3222 -13.3467,22.9883 30.7442,-4.2207 1.0029,0.041 -17.3047,26.3653 -3.7168,5.373 35.0605,20.7149 1.5694,1.5756 -20.6895,12.8868 -4.6025,2.6709 25.6064,14.2998 3.2315,1.8564 -17.336,6.0039 -2.1982,0.6299 m -49.2861,-100.2124 4.0703,5.0293 3.206,-5.8145 z"
       id="path2459"
       style="fill:#ff9999;fill-opacity:1;fill-rule:evenodd;stroke:none"
       inkscape:connector-curvature="0" /><path
       d="m 215.2549,-200.5879 c -1.4151,-1.4648 -2.8945,-2.9746 -4.4697,-4.5703 -3.0118,-2.7559 -6.0196,-5 -8.9756,-7.252 -3.2266,-2.4609 -6.5274,-4.4238 -10.1143,-6.5156 -7.0049,-4.0781 -14.6406,-7.6758 -23.4248,-9.8301 -7.3437,-1.8046 -21.4814,-3.8261 -29.7217,-1.7656 -0.9218,0.2324 -1.8818,0.4414 -2.8515,0.6465 v -22.6855 l 0.0654,0.0703 3.1689,-3.7422 0.0342,-0.004 29.4971,-31.9707 8.6611,43.0429 33.2149,-17.9746 3.8222,32.0586 1.0938,-0.0137 v 30.5059 m -52.7129,-57.8027 c -0.003,-0.01 -11.502,13.3789 -11.502,13.3789 l 12.9707,-0.1895 z"
       id="path2461"
       style="fill:#ecec0e;fill-opacity:1;fill-rule:evenodd;stroke:none"
       inkscape:connector-curvature="0" /><path
       d="m 135.6973,-89.9624 c 0.8535,0.6396 1.7031,1.2773 2.6035,1.9111 8.1885,5.7598 24.039,13.5733 31.9775,15.085 7.9375,1.5112 23.0156,2.2148 31.0303,1.2534 4.4971,-0.5381 9.5459,-2.4731 13.9463,-4.6216 v 18.4112 l -17.3936,29.2758 -2.3642,3.9829 -0.1123,0.3785 -24.1719,-24.4771 -2.7422,-2.9057 -9.4824,27.1108 -1.7305,4.7153 h -0.0937 l -20.1377,-38.7763 c -0.3916,0.1386 -0.8457,0.3022 -1.3291,0.4741 v -31.8174 m 55.2666,42.4502 3.8125,-6.5674 -12.7266,0.1641 z"
       id="path2463"
       style="fill:#ecec0e;fill-opacity:1;fill-rule:evenodd;stroke:none"
       inkscape:connector-curvature="0" /><path
       d="m 135.751,-229.8848 c -3.6465,0.7793 -7.4727,1.4942 -10.2969,2.8926 -2.25,1.1172 -9.1846,4.3731 -10.3437,5.9688 -7.2178,3.8281 -13.8965,13.4101 -17.5577,21.0586 -2.4384,2.8203 -5.957,18.2324 -5.957,24.2089 v 8.17 l 0.8721,6.955 c 0.0029,0.002 0.0166,0.0137 0.0166,0.0137 0.0224,0.3027 2.3252,11.5991 2.3984,11.979 0.7988,4.1309 4.2432,12.3028 5.5977,15.2119 2.5088,5.3897 7.2656,14.5342 13.9463,22.7217 6.0976,7.4697 12.5703,14.2529 21.3242,20.7832 v 31.7583 c -10.3926,3.7334 -40.9326,14.9907 -40.9326,14.9907 l 4.4218,-41.874 -40.1513,-18.0273 3.3603,-3.2139 21.7647,-18.3828 -1.3946,-1.4238 -31.6621,-28.0274 4.084,-0.5781 c 0,0 5.9434,-0.7441 10.0313,-1.3984 4.0673,-0.6514 10.997,-7.9449 11.4228,-13.2515 -0.0459,-0.0391 -0.0976,-0.082 -0.1445,-0.1231 0,-2.9628 -1.1514,-6.1054 -2.8194,-7.2324 l -22.6865,-35.1289 4.5078,0.5547 26.96,4.0742 -0.6318,-4.3847 -3.71,-29.5899 26.5312,6.5762 1.3174,-4.6524 4.7002,-15.0879 c 0.0147,-0.002 0.0274,-0.004 0.041,-0.008 l 5.9131,-18.2226 0.5811,0.0156 0.3594,0.6133 7.5234,8.4844 6.8144,6.9179 c 0.0264,0 0.0518,0 0.0801,0 l 3.7188,4.041 v 22.6172 m -10.6133,155.9693 -8.1484,-7.2276 -2.6514,-2.1655 -2.7002,14.6841 13.5,-5.291 M 97.8701,-101.571 92.542,-112.2653 c 0,7.4609 -8.0664,9.5732 5.3281,10.6943 m 27.1895,-139.4878 c -0.7383,-1.0273 -2.0479,-3.6562 -2.7491,-4.1699 l -0.7363,6.2773 c 2.5362,-0.0468 5.0645,0.0957 3.4854,-2.1074 z"
       id="path2465"
       style="fill:#b3b3ff;fill-opacity:1;fill-rule:evenodd;stroke:none"
       inkscape:connector-curvature="0" /><path
       d="m 37.0566,-219.7559 c 1.5879,-1.0664 5.3291,-5.8105 7.1319,-7.625 2.5332,-2.539 5.0342,-4.7461 7.5185,-7.2265 3.9151,-3.9199 12.1739,-9.7715 17.4278,-12.3867 6.9306,-3.4551 35.8242,-15.1934 44.4033,-15.1934 l 11.5986,-1.2598 20.0606,0.6289 c 4.5937,0 10.9863,0.9512 15.2939,1.6407 3.3369,0.5312 11.5147,3.0214 13.8584,3.0742 l 14.4209,6.6035 c 2.1914,1.9082 5.415,3.4824 7.7647,5.7266 2.4218,2.3222 4.5029,4.5527 6.8886,6.9218 3.5391,3.5157 9.6983,10.9981 12.3672,15.252 3.5332,5.6406 7.1328,11.5215 9.3037,18.3418 1.8506,5.8105 4.5791,15.7383 4.7344,22.9062 l 0.3877,5.9688 -0.0703,9.123 c 0,8.5059 -0.961,16.1158 -2.3799,23.3931 -1.4355,7.3594 -3.6299,13.7764 -5.1465,20.3027 -0.5996,1.1416 -1.8437,5.0303 -3.1328,5.0303 h -1.8789 c -7.7129,0 -17.584,-2.3476 -24.7314,-3.4932 -7.9307,-1.2753 -15.7715,-3.0595 -23.4092,-4.8154 -7.3838,-1.6875 -15.7266,-3.5127 -22.3897,-5.8408 -3.5136,-1.2236 -7.2832,-2.2041 -10.6972,-3.4072 -1.9131,-0.6768 -8.7579,-3.7129 -9.9913,-3.8252 -0.5341,-0.461 -0.5458,-0.6231 -1.5683,-0.6231 -1.1436,0 -7.8701,17.8916 -8.4619,20.4307 l -2.1934,9.1162 c -1.1181,4.8184 -4.2578,34.2622 -8.1484,33.6357 l -7.5283,-0.9438 -3.6387,-0.3652 1.7607,-7.4917 c 0.8809,-1.8457 1.711,-6.5049 2.3184,-8.9942 0.5254,-2.1562 2.0224,-6.0381 2.9111,-8.0859 0.8721,-2.0205 6.2822,-14.8545 6.3721,-15.9268 l 2.5039,-5.6562 c 1.4209,-2.7022 2.4404,-5.878 3.5449,-9.0235 0.9317,-2.667 3.1953,-7.1367 3.6651,-8.8994 -2.0547,-0.4765 -5.3946,-2.1972 -8.2784,-3.0107 -2.2265,-0.6309 -6.4824,-2.1465 -8.6504,-2.334 l -6.2675,-1.5645 -28.21,-6.6093 -9.4033,-3.1353 c -4.2315,-2.6973 -11.8193,-4.0742 -15.0469,-8.4922 2.6533,-3.9746 4.584,-10.9765 8.7764,-13.207 12.1631,0 17.6748,7.3769 25.7012,11.6348 3.6113,3.1445 10.6767,8.1914 15.9912,9.4316 3.7548,1.9922 10.7334,4.273 15.1386,5.8784 2.5186,0.917 5.3516,2.2051 7.7403,2.9229 4.3203,1.3037 3.9404,1.3125 5.959,-2.5137 l 1.2529,-2.8291 c 1.7822,-1.312 4.958,-11.9155 5.9844,-15.0542 1.7431,-5.291 2.6045,-11.1758 3.9755,-16.7598 1.4971,-6.082 6.8877,-29.6289 11.0411,-30.7422 1.8193,1.586 6.8935,2.9473 6.8935,5.9786 v 1.2539 c 0,8.9687 -5.1553,27.0547 -7.6533,34.4453 -1.5244,4.5195 -4.4502,10.2676 -6.5576,14.4844 -2.4043,4.8281 -4.6426,9.5893 -7.1026,14.2544 2.0303,3.8457 30.9082,9.7812 38.5498,9.747 8.0469,-0.04 16.0987,-0.003 24.1397,-0.003 7.8496,0 15.3164,1.2539 22.8848,1.2539 h 1.5634 c 1.4034,0 1.5703,-4.1631 1.5703,-5.6563 0,-2.9209 0.629,-4.6494 0.629,-8.1718 0,-3.2803 0.3125,-5.3389 0.3105,-8.4888 0,-5.6836 -0.585,-11.584 -0.9395,-16.6582 -0.6054,-8.5801 -3.7968,-22.4199 -6.9013,-28.291 -1.8819,-8.1328 -13.169,-23.209 -18.7188,-28.375 -4.1592,-3.8711 -7.9052,-7.5528 -13.0371,-10.5 -3.8164,-2.1953 -11.5215,-6.9434 -15.8857,-7.9668 l -3.7578,-0.9395 -1.5684,-0.3144 -19.1201,-3.1465 -6.8994,-0.3106 c -9.6963,0 -13.6201,0.4024 -21.3135,2.2012 -5.3291,1.2461 -18.7568,6.3399 -21.9404,9.1133 l -8.1494,4.7148 -2.1983,1.2559 -23.8183,14.1465 c -6.9366,4.6582 -9.6534,7.9531 -14.4776,14.7187 -2.5478,3.5743 -8.9248,15.0254 -9.9726,19.5469 -2.3243,3.3574 -6.5831,24.8418 -6.5831,31.4375 v 14.1421 c 0,11.0225 4.878,24.6104 7.584,33.5742 3.1299,10.3799 8.5518,18.8106 14.4864,26.6514 5.497,7.2808 13.1142,15.3403 21.0781,20.0425 6.3515,3.7441 20.1543,11.5156 29.5742,11.5156 l 9.3955,1.0483 1.2627,-0.0986 c 13.5684,0 24.25,-3.958 34.3818,-7.646 5.4659,-1.9868 25.8848,-10.1348 28.9366,-12.7886 l 4.0732,-2.2002 c 1.5029,-0.3515 9.6826,-5.8374 10.8965,-6.9921 2.6055,-2.481 6.5478,-6.1827 8.2227,-9.3536 l 8.1484,-11.6298 1.5683,0.622 c 3.1299,2.1826 14.1065,4.2813 14.1065,9.1221 v 0.9414 c 0,1.2568 -0.6572,2.8643 -0.9434,4.0859 -0.6523,2.8164 -4.6523,7.5791 -6.541,9.4678 -1.8213,1.8267 -7.5586,5.9043 -8.501,7.1929 -2.0761,1.0986 -4.3095,2.6933 -6.3291,4.0298 -2.0947,1.3891 -4.455,2.4135 -6.5859,3.7656 -3.3018,2.0854 -9.96,5.5659 -13.6885,7.0195 -8.1797,3.187 -21.1533,9.1636 -31.3877,10.0196 l -13.4775,1.2539 h -26.0156 c -33.3955,0 -48.3086,-16.1866 -62.0616,-35.8365 -5.7695,-8.2514 -14.3496,-21.1118 -17.8252,-31.1645 -2.0878,-6.0479 -4.663,-11.2373 -6.1865,-18.3106 -1.2861,-5.9443 -3.5761,-14.1865 -3.5761,-20.9355 v -9.7398 c 0,-7.789 4.8037,-28.1718 7.4677,-33.0664 2.5694,-4.7304 3.8457,-8.6504 6.8887,-13.2109 1.085,-1.625 8.4111,-11.5586 8.5273,-11.8809"
       id="path2467"
       style="fill:#000000;fill-opacity:1;fill-rule:evenodd;stroke:none"
       inkscape:connector-curvature="0" /></g></svg>