<?xml version="1.0" encoding="UTF-8"?>
<!DOCTYPE svg PUBLIC "-//W3C//DTD SVG 1.1//EN" "http://www.w3.org/Graphics/SVG/1.1/DTD/svg11.dtd">
<svg version="1.2" width="65.01mm" height="65.01mm" viewBox="0 0 6501 6501" preserveAspectRatio="xMidYMid" fill-rule="evenodd" stroke-width="28.222" stroke-linejoin="round" xmlns="http://www.w3.org/2000/svg" xmlns:ooo="http://xml.openoffice.org/svg/export" xmlns:xlink="http://www.w3.org/1999/xlink" xmlns:presentation="http://sun.com/xmlns/staroffice/presentation" xmlns:smil="http://www.w3.org/2001/SMIL20/" xmlns:anim="urn:oasis:names:tc:opendocument:xmlns:animation:1.0" xml:space="preserve">
 <defs class="ClipPathGroup">
  <clipPath id="presentation_clip_path" clipPathUnits="userSpaceOnUse">
   <rect x="0" y="0" width="6501" height="6501"/>
  </clipPath>
  <clipPath id="presentation_clip_path_shrink" clipPathUnits="userSpaceOnUse">
   <rect x="6" y="6" width="6488" height="6488"/>
  </clipPath>
 </defs>
 <defs class="TextShapeIndex">
  <g ooo:slide="id1" ooo:id-list="id3 id4 id5 id6"/>
 </defs>
 <defs class="EmbeddedBulletChars">
  <g id="bullet-char-template-57356" transform="scale(0.00048828125,-0.00048828125)">
   <path d="M 580,1141 L 1163,571 580,0 -4,571 580,1141 Z"/>
  </g>
  <g id="bullet-char-template-57354" transform="scale(0.00048828125,-0.00048828125)">
   <path d="M 8,1128 L 1137,1128 1137,0 8,0 8,1128 Z"/>
  </g>
  <g id="bullet-char-template-10146" transform="scale(0.00048828125,-0.00048828125)">
   <path d="M 174,0 L 602,739 174,1481 1456,739 174,0 Z M 1358,739 L 309,1346 659,739 1358,739 Z"/>
  </g>
  <g id="bullet-char-template-10132" transform="scale(0.00048828125,-0.00048828125)">
   <path d="M 2015,739 L 1276,0 717,0 1260,543 174,543 174,936 1260,936 717,1481 1274,1481 2015,739 Z"/>
  </g>
  <g id="bullet-char-template-10007" transform="scale(0.00048828125,-0.00048828125)">
   <path d="M 0,-2 C -7,14 -16,27 -25,37 L 356,567 C 262,823 215,952 215,954 215,979 228,992 255,992 264,992 276,990 289,987 310,991 331,999 354,1012 L 381,999 492,748 772,1049 836,1024 860,1049 C 881,1039 901,1025 922,1006 886,937 835,863 770,784 769,783 710,716 594,584 L 774,223 C 774,196 753,168 711,139 L 727,119 C 717,90 699,76 672,76 641,76 570,178 457,381 L 164,-76 C 142,-110 111,-127 72,-127 30,-127 9,-110 8,-76 1,-67 -2,-52 -2,-32 -2,-23 -1,-13 0,-2 Z"/>
  </g>
  <g id="bullet-char-template-10004" transform="scale(0.00048828125,-0.00048828125)">
   <path d="M 285,-33 C 182,-33 111,30 74,156 52,228 41,333 41,471 41,549 55,616 82,672 116,743 169,778 240,778 293,778 328,747 346,684 L 369,508 C 377,444 397,411 428,410 L 1163,1116 C 1174,1127 1196,1133 1229,1133 1271,1133 1292,1118 1292,1087 L 1292,965 C 1292,929 1282,901 1262,881 L 442,47 C 390,-6 338,-33 285,-33 Z"/>
  </g>
  <g id="bullet-char-template-9679" transform="scale(0.00048828125,-0.00048828125)">
   <path d="M 813,0 C 632,0 489,54 383,161 276,268 223,411 223,592 223,773 276,916 383,1023 489,1130 632,1184 813,1184 992,1184 1136,1130 1245,1023 1353,916 1407,772 1407,592 1407,412 1353,268 1245,161 1136,54 992,0 813,0 Z"/>
  </g>
  <g id="bullet-char-template-8226" transform="scale(0.00048828125,-0.00048828125)">
   <path d="M 346,457 C 273,457 209,483 155,535 101,586 74,649 74,723 74,796 101,859 155,911 209,963 273,989 346,989 419,989 480,963 531,910 582,859 608,796 608,723 608,648 583,586 532,535 482,483 420,457 346,457 Z"/>
  </g>
  <g id="bullet-char-template-8211" transform="scale(0.00048828125,-0.00048828125)">
   <path d="M -4,459 L 1135,459 1135,606 -4,606 -4,459 Z"/>
  </g>
  <g id="bullet-char-template-61548" transform="scale(0.00048828125,-0.00048828125)">
   <path d="M 173,740 C 173,903 231,1043 346,1159 462,1274 601,1332 765,1332 928,1332 1067,1274 1183,1159 1299,1043 1357,903 1357,740 1357,577 1299,437 1183,322 1067,206 928,148 765,148 601,148 462,206 346,322 231,437 173,577 173,740 Z"/>
  </g>
 </defs>
 <defs class="TextEmbeddedBitmaps"/>
 <g>
  <g id="id2" class="Master_Slide">
   <g id="bg-id2" class="Background"/>
   <g id="bo-id2" class="BackgroundObjects"/>
  </g>
 </g>
 <g class="SlideGroup">
  <g>
   <g id="container-id1">
    <g id="id1" class="Slide" clip-path="url(#presentation_clip_path)">
     <g class="Page">
      <g class="com.sun.star.drawing.PolyPolygonShape">
       <g id="id3">
        <rect class="BoundingBox" stroke="none" fill="none" x="0" y="0" width="6505" height="6504"/>
       </g>
      </g>
      <g class="com.sun.star.drawing.ClosedBezierShape">
       <g id="id4">
        <rect class="BoundingBox" stroke="none" fill="none" x="0" y="0" width="6503" height="6503"/>
        <path fill="none" stroke="rgb(128,128,128)" stroke-width="250" stroke-linejoin="round" d="M 1166,125 C 645,125 125,645 125,1166 L 125,5335 C 125,5856 645,6377 1166,6377 L 5335,6377 C 5856,6377 6377,5856 6377,5335 L 6377,1166 C 6377,645 5856,125 5335,125 L 1166,125 Z"/>
       </g>
      </g>
      <g class="com.sun.star.drawing.PolyPolygonShape">
       <g id="id5">
        <rect class="BoundingBox" stroke="none" fill="none" x="751" y="876" width="5006" height="5004"/>
       </g>
      </g>
      <g class="com.sun.star.drawing.CustomShape">
       <g id="id6">
        <rect class="BoundingBox" stroke="none" fill="none" x="1159" y="654" width="4183" height="5145"/>
        <path fill="rgb(128,128,128)" stroke="none" d="M 2984,2193 L 2933,2206 2882,2222 2833,2240 2784,2262 2737,2285 2691,2311 2647,2339 2603,2370 2562,2403 2522,2438 2484,2475 2447,2514 2414,2555 2382,2597 2352,2641 2325,2686 2299,2733 2277,2782 2256,2832 2238,2882 2223,2934 2210,2986 2200,3039 2192,3092 2188,3146 2185,3201 2185,3255 2188,3309 2195,3363 2203,3417 2213,3470 2228,3523 2243,3575 2262,3626 2283,3677 2307,3727 2333,3774 2361,3821 2391,3867 2424,3911 2458,3953 2495,3993 2534,4032 2574,4069 2617,4103 2660,4135 2705,4166 2752,4194 2799,4218 2848,4242 2898,4262 2949,4281 3000,4296 3052,4309 3105,4320 3158,4327 3212,4332 3265,4334 3318,4334 3371,4331 3424,4324 3476,4315 3527,4304 3579,4290 3629,4274 3679,4255 3727,4233 3774,4209 3819,4182 3864,4153 3907,4123 3948,4089 3987,4054 4025,4016 4061,3977 4094,3935 4125,3893 4154,3848 4182,3803 4206,3755 4229,3707 4248,3657 4265,3606 4280,3554 4293,3502 4302,3448 4309,3395 4313,3341 4315,3287 4314,3233 5339,3216 5341,3322 5338,3429 5329,3534 5316,3640 5297,3744 5274,3847 5244,3948 5211,4048 5171,4146 5127,4242 5079,4334 5026,4424 4968,4512 4907,4596 4841,4677 4771,4754 4697,4827 4620,4897 4539,4963 4456,5023 4368,5081 4279,5132 4187,5179 4091,5222 3995,5260 3896,5292 3796,5320 3694,5341 3591,5359 3487,5371 3384,5377 3279,5378 3175,5374 3070,5365 2965,5349 2862,5329 2760,5304 2659,5274 2559,5239 2461,5198 2365,5152 2272,5102 2181,5047 2092,4988 2007,4924 1924,4857 1845,4785 1769,4709 1696,4630 1628,4547 1564,4460 1505,4371 1450,4279 1398,4185 1352,4088 1311,3989 1274,3888 1242,3786 1215,3682 1194,3577 1177,3471 1166,3365 1160,3259 1159,3152 1163,3046 1173,2941 1188,2835 1208,2732 1233,2629 1263,2528 1299,2429 1338,2331 1384,2236 1433,2144 1487,2054 1545,1968 1609,1884 1675,1805 1746,1728 1820,1656 1899,1587 1981,1522 2065,1463 2153,1407 2243,1356 2337,1310 2431,1268 2528,1232 2628,1201 2728,1175 2598,655 3860,1450 3115,2712 2984,2193 Z M 1747,5797 L 1747,5797 Z M 4754,701 L 4754,701 Z"/>
       </g>
      </g>
     </g>
    </g>
   </g>
  </g>
 </g>
</svg>