<?xml version="1.0" encoding="UTF-8" standalone="no"?>
<!-- Created with Inkscape (http://www.inkscape.org/) -->

<svg
   xmlns:dc="http://purl.org/dc/elements/1.1/"
   xmlns:cc="http://creativecommons.org/ns#"
   xmlns:rdf="http://www.w3.org/1999/02/22-rdf-syntax-ns#"
   xmlns:svg="http://www.w3.org/2000/svg"
   xmlns="http://www.w3.org/2000/svg"
   xmlns:sodipodi="http://sodipodi.sourceforge.net/DTD/sodipodi-0.dtd"
   xmlns:inkscape="http://www.inkscape.org/namespaces/inkscape"
   version="1.0"
   width="1925"
   height="1925"
   id="svg2558"
   xml:space="preserve"
   sodipodi:docname="safari-pinned-tab-ro.svg"
   inkscape:export-filename="\\gate\maps\opencaching\_logo\opencaching_ro\android-chrome-ro-512x512.png"
   inkscape:export-xdpi="126.11"
   inkscape:export-ydpi="126.11"
   inkscape:version="0.92.3 (2405546, 2018-03-11)"><metadata
     id="metadata42"><rdf:RDF><cc:Work
         rdf:about=""><dc:format>image/svg+xml</dc:format><dc:type
           rdf:resource="http://purl.org/dc/dcmitype/StillImage" /><dc:title></dc:title></cc:Work></rdf:RDF></metadata><sodipodi:namedview
     pagecolor="#ffffff"
     bordercolor="#666666"
     borderopacity="1"
     objecttolerance="10"
     gridtolerance="10"
     guidetolerance="10"
     inkscape:pageopacity="0"
     inkscape:pageshadow="2"
     inkscape:window-width="1600"
     inkscape:window-height="841"
     id="namedview40"
     showgrid="false"
     units="px"
     inkscape:zoom="0.3225974"
     inkscape:cx="962.5"
     inkscape:cy="962.5"
     inkscape:window-x="-4"
     inkscape:window-y="-4"
     inkscape:window-maximized="1"
     inkscape:current-layer="svg2558" /><defs
     id="defs2561" /><rect
     style="opacity:1;fill:#ffffff;fill-opacity:1;stroke:none;stroke-width:4.90389347;stroke-linecap:round;stroke-linejoin:round;stroke-miterlimit:4;stroke-dasharray:none;stroke-opacity:1;paint-order:normal"
     id="rect849"
     width="1925"
     height="1925"
     x="0.49519488"
     y="-0.49514771"
     rx="396.11826"
     inkscape:export-xdpi="44.450001"
     inkscape:export-ydpi="44.450001" /><g
     transform="matrix(6.1893477,0,0,-6.1893477,-1.9567517,-2.947397)"
     id="g2567"><path
       d="m 284.7168,-113.1885 -16.0215,5.5 -2.0303,0.5742 -4.6132,1.5088 15.623,16.6221 1.7334,1.7256 0.8809,1.2353 -26.083,3.0821 -1.4444,0.291 -5.2344,0.3974 17.1114,23.1993 1.7383,2.3027 2.3105,3.4727 -30.124,-8.9405 -1.4483,-0.5771 -4.0351,-1.2305 5.7734,22.8145 0.8682,3.457 0.7705,3.8857 -26.5527,-17.7011 -1.709,-1.1934 -16.251,27.0957 -2.1846,3.6455 -0.1035,0.3457 -22.3398,-22.4092 -2.5352,-2.663 -8.7617,24.8242 -1.6367,4.414 -18.6612,-35.5996 c -8.2065,2.8965 -39.0092,14.1436 -39.0092,14.1436 l 4.0883,-38.3369 -37.1098,-16.5059 3.1059,-2.9453 20.1162,-16.8301 -1.2895,-1.3017 -29.2617,-25.6641 3.7724,-0.5283 c 0,0 5.4937,-0.6787 9.272,-1.2783 3.7593,-0.5977 10.1631,-7.2754 10.5581,-12.1329 -0.043,-0.0361 -0.0918,-0.0771 -0.1343,-0.1113 0,-2.7139 -1.0634,-5.5918 -2.6074,-6.623 l -20.9653,-32.1651 4.1655,0.5098 24.9175,3.7295 -0.5825,-4.0127 -3.4317,-27.0908 24.521,6.0205 1.2168,-4.2608 4.3457,-13.8125 c 0.0122,-0.004 0.0249,-0.006 0.0362,-0.0107 l 5.4658,-16.6826 0.5371,0.0146 0.332,0.5615 6.9546,7.7696 6.2959,6.333 c 0.0249,0 0.0483,0 0.0747,0 l 3.4483,3.7109 2.9282,-3.4277 0.0322,-0.002 27.2607,-29.2724 8.0049,39.4072 30.6963,-16.4521 3.5313,29.3496 2.3213,-0.0303 36.6435,2.1269 -12.3349,21.0489 28.415,-3.8682 0.9258,0.041 -15.9922,24.1367 -3.4336,4.9219 32.4014,18.9629 1.4521,1.4404 -19.1221,11.8018 -4.2529,2.4482 23.6621,13.0909 2.9883,1.6972 m -95.1104,70.249 3.5245,-6.0126 -11.7637,0.1484 8.2392,5.8642 m -60.8359,-24.1738 -7.5327,-6.6172 -2.4492,-1.9834 -2.4971,13.4444 12.479,-4.8438 m -25.2041,-25.3222 -4.9228,-9.7872 c 0,6.8291 -7.4546,8.7618 4.9228,9.7872 m 25.1314,-127.7071 c -0.6827,-0.9404 -1.8926,-3.3515 -2.5406,-3.8193 l -0.6821,5.7461 c 2.3437,-0.041 4.6812,0.0898 3.2227,-1.9268 m 34.6401,-15.8701 c -0.003,-0.008 -10.6279,12.25 -10.6279,12.25 l 11.9843,-0.1728 -1.3564,-12.0772 m 57.7754,37.1504 3.7617,4.6035 2.9619,-5.3223 -6.7236,0.7188 m 19.7695,79.6611 c 0,-15.1806 -6.4785,-31.9179 -12.1699,-42.3047 -5.6895,-10.3916 -11.6973,-16.6406 -20.7871,-25.7705 -2.7852,-2.5205 -5.5635,-4.5761 -8.2969,-6.6396 -2.9824,-2.252 -6.0332,-4.0488 -9.3467,-5.9629 -6.4736,-3.7363 -13.5302,-7.0293 -21.6494,-9.001 -6.7871,-1.6543 -19.8525,-3.5029 -27.4697,-1.6142 -4.042,0.997 -8.8096,1.6142 -12.1016,3.2304 -2.0801,1.0215 -8.4883,4.003 -9.56,5.4619 -6.67,3.5069 -12.8423,12.2813 -16.2261,19.2823 -2.2525,2.581 -5.5049,16.6924 -5.5049,22.166 v 7.4805 l 0.8057,6.3662 c 0.0024,0.003 0.0132,0.0117 0.0132,0.0117 0.0219,0.2783 2.1499,10.6191 2.2182,10.9668 0.7388,3.7822 3.9209,11.2666 5.1738,13.9277 2.3194,4.9365 6.7139,13.3086 12.8882,20.8027 6.1743,7.4971 12.7354,14.2374 22.064,20.7422 7.5693,5.2715 22.2168,12.4268 29.5547,13.8096 7.3359,1.3857 21.2695,2.0293 28.6777,1.1494 7.4082,-0.8789 16.4434,-5.8183 20.8047,-8.6885 3.4668,-2.2832 12.7314,-11.4794 13.6699,-15.4892 4.1114,-4.6973 7.2422,-19.0664 7.2422,-28.4863 z"
       id="path2569"
       style="fill:#aaaaaa;fill-opacity:1;fill-rule:nonzero;stroke:none"
       inkscape:connector-curvature="0" /><path
       d="m 47.3652,-200.6484 c 1.4678,-0.9786 4.9268,-5.3233 6.5923,-6.9815 2.3423,-2.3271 4.6529,-4.3486 6.9478,-6.6191 3.6196,-3.5899 11.2514,-8.9473 16.1089,-11.3399 6.4038,-3.1631 33.1084,-13.9111 41.0366,-13.9111 l 10.7197,-1.1533 18.5391,0.5762 c 4.2475,0 10.1552,0.872 14.1338,1.5019 3.0849,0.4854 10.6425,2.7666 12.8086,2.8135 l 13.3281,6.0478 c 2.0263,1.7481 5.0058,3.1875 7.1767,5.2422 2.2393,2.127 4.1612,4.168 6.3653,6.3389 3.2724,3.2178 8.9658,10.0664 11.4306,13.9658 3.2666,5.1602 6.5918,10.5449 8.5987,16.79 1.7099,5.3233 4.2314,14.4092 4.3759,20.9717 l 0.3575,5.4668 -0.0645,8.3506 c 0,7.7881 -0.8877,14.7568 -2.1992,21.419 -1.3262,6.7392 -3.3545,12.6103 -4.7568,18.5869 -0.5557,1.0468 -1.7041,4.6045 -2.8936,4.6045 h -1.7402 c -7.126,0 -16.25,-2.1475 -22.8555,-3.1993 -7.3281,-1.163 -14.5762,-2.8017 -21.6328,-4.4062 -6.8252,-1.5449 -14.5366,-3.2149 -20.6919,-5.3477 -3.2485,-1.1191 -6.7329,-2.0185 -9.8887,-3.1211 -1.7671,-0.6211 -8.0947,-3.3964 -9.2329,-3.498 -0.4941,-0.4219 -0.5063,-0.5742 -1.4512,-0.5742 -1.0556,0 -7.2729,16.3828 -7.8212,18.7051 l -2.024,8.3496 c -1.0342,4.4101 -3.9375,31.3681 -7.5332,30.7929 l -6.957,-0.8623 -3.3628,-0.334 1.6265,-6.8603 c 0.8159,-1.6885 1.5825,-5.958 2.144,-8.2344 0.4849,-1.9717 1.8691,-5.5273 2.6909,-7.4023 0.8042,-1.8516 5.8052,-13.6006 5.8867,-14.5821 l 2.3174,-5.1796 c 1.3125,-2.4737 2.2539,-5.3829 3.2735,-8.2608 0.8632,-2.4414 2.9546,-6.5351 3.3896,-8.1474 -1.9004,-0.4385 -4.9873,-2.0147 -7.6518,-2.7569 -2.0582,-0.5791 -5.9908,-1.9668 -7.9937,-2.1357 l -5.7935,-1.4346 -26.0722,-6.0508 -8.69,-2.872 c -3.9121,-2.4668 -10.9243,-3.7276 -13.9062,-7.7735 2.4521,-3.6387 4.2358,-10.0488 8.1099,-12.0918 11.2431,0 16.3359,6.7559 23.7548,10.6543 3.336,2.8789 9.8658,7.4961 14.7784,8.6328 3.4707,1.8242 9.9189,3.9112 13.9907,5.3819 2.3271,0.8418 4.9468,2.0214 7.1543,2.6767 3.9922,1.1914 3.6411,1.1992 5.5058,-2.2998 l 1.1582,-2.5918 c 1.6475,-1.2021 4.583,-10.9092 5.5323,-13.7842 1.6103,-4.8437 2.4072,-10.2343 3.6718,-15.3457 1.3853,-5.5644 6.3677,-27.125 10.2061,-28.1425 1.6802,1.4511 6.3711,2.7002 6.3711,5.4716 v 1.1485 c 0,8.2109 -4.7642,24.7695 -7.0742,31.5381 -1.4097,4.1337 -4.1133,9.3984 -6.0591,13.2587 -2.2222,4.42 -4.2925,8.7813 -6.565,13.0518 1.877,3.5205 28.565,8.9551 35.6285,8.9248 7.4365,-0.0351 14.8759,-0.005 22.3095,-0.005 7.2549,0 14.1553,1.1514 21.1494,1.1514 h 1.4473 c 1.293,0 1.4492,-3.8154 1.4492,-5.1816 0,-2.6739 0.5801,-4.2549 0.5801,-7.4815 0,-3.0019 0.2891,-4.8887 0.2871,-7.7715 0,-5.2031 -0.539,-10.6045 -0.8672,-15.2529 -0.5595,-7.8525 -3.5088,-20.5244 -6.3769,-25.9014 -1.7403,-7.4443 -12.1738,-21.249 -17.3008,-25.9795 -3.8447,-3.5439 -7.3076,-6.915 -12.0488,-9.6123 -3.5274,-2.0097 -10.6485,-6.3554 -14.6817,-7.292 l -3.4726,-0.8603 -1.4492,-0.2881 -17.6719,-2.8828 -6.3765,-0.2832 c -8.9624,0 -12.5879,0.3691 -19.6963,2.0146 -4.9272,1.1407 -17.3384,5.8018 -20.2783,8.3438 l -7.5342,4.3164 -2.0288,1.1523 -22.0151,12.9483 c -6.4087,4.2656 -8.9214,7.2832 -13.3794,13.4765 -2.3555,3.2745 -8.2486,13.7598 -9.2178,17.8995 -2.1474,3.0722 -6.084,22.7421 -6.084,28.7793 v 12.9521 c 0,10.0898 4.5093,22.5322 7.0093,30.7373 2.8945,9.5049 7.9053,17.2217 13.3887,24.4004 5.0815,6.6641 12.1201,14.0439 19.4829,18.3486 5.8677,3.4287 18.626,10.543 27.3325,10.543 l 8.6821,0.9609 1.167,-0.0918 c 12.5386,0 22.4112,-3.622 31.7749,-6.997 5.0518,-1.8203 23.9234,-9.2774 26.7437,-11.71 l 3.7637,-2.0146 c 1.3886,-0.3213 8.9492,-5.3457 10.0693,-6.4024 2.4092,-2.2715 6.0537,-5.6582 7.6006,-8.5635 l 7.5322,-10.6484 1.4482,0.5742 c 2.8936,1.9961 13.0372,3.916 13.0372,8.3467 v 0.8633 c 0,1.1504 -0.6065,2.624 -0.8692,3.7392 -0.6035,2.5801 -4.3027,6.9424 -6.0469,8.6709 -1.6836,1.6709 -6.9843,5.4053 -7.8574,6.584 -1.9189,1.0069 -3.9824,2.4688 -5.8496,3.6895 -1.9355,1.2744 -4.1172,2.2119 -6.0869,3.4482 -3.0498,1.9072 -9.2061,5.0977 -12.6504,6.4277 -7.5596,2.9161 -19.5498,8.3887 -29.0078,9.1719 l -12.4551,1.1485 h -24.0434 c -30.8667,0 -44.6485,-14.8194 -57.3589,-32.8106 -5.3321,-7.5537 -13.2622,-19.3271 -16.4742,-28.5332 -1.9306,-5.5371 -4.3095,-10.2871 -5.7187,-16.7646 -1.1865,-5.4385 -3.3037,-12.9864 -3.3037,-19.167 v -8.92 c 0,-7.1269 4.4399,-25.7919 6.8999,-30.2705 2.3765,-4.333 3.5552,-7.9248 6.3691,-12.0957 1.002,-1.4892 7.772,-10.583 7.8789,-10.8759"
       id="path2571"
       style="fill:#aaaaaa;fill-opacity:1;fill-rule:nonzero;stroke:none"
       inkscape:connector-curvature="0" /><path
       d="m 209.8848,-252.7402 c 0,-0.667 -0.2012,-0.8623 -0.8731,-0.8623 -1.9277,0 -3.7617,1.4687 -3.7617,3.7382 1.4199,-0.0302 4.6348,-0.372 4.6348,-1.7255 v -1.1504 m -4.9258,10.3603 c 0.0693,-3.0156 1.7441,-1.5986 2.3125,-3.8017 l -4.6289,0.3476 c -3.0449,0.2656 -3.4102,-2.3711 -2.9649,-4.3808 0.6875,-3.0723 1.9512,-3.1827 3.2539,-5.1172 1.5176,-1.0059 3.6954,-2.8741 6.0801,-2.8741 h 1.4512 c 2.6172,0 4.6367,1.9971 4.6367,4.6036 v 0.2861 c 0,2.1768 -0.4521,4.2949 -1.1601,5.7549 l -4.3457,5.7578 c -0.7012,0.334 -1.2676,0.5781 -2.3174,0.5781 h -0.8692 c -0.8252,0 -1.0088,-0.6562 -1.4482,-1.1543"
       id="path2573"
       style="fill:#aaaaaa;fill-opacity:1;fill-rule:nonzero;stroke:none"
       inkscape:connector-curvature="0" /><path
       d="m 241.4609,-253.3164 c 0,2.999 1.2705,4.9463 4.0567,5.1797 0.2832,-1.0508 1.1572,-1.5918 1.1572,-2.3008 v -2.0137 c 0,-3.3994 -0.8955,-4.832 -1.4463,-7.1953 -1.3398,0.3057 -3.7676,2.9883 -3.7676,4.0283 v 2.3018 m -4.0527,-5.1826 c 1.1172,-1.2783 1.3008,-2.1143 2.8154,-3.2471 1.7217,-1.2891 2.3975,-1.3086 3.8428,-2.2178 7.0645,0 5.0029,5.4571 7.0703,9.6534 l 5.6807,-4.4766 4.3447,-4.5996 c 0.7832,-1.4766 1.7393,-3.2324 1.7393,-5.4727 v -1.7236 c 0,-3.2354 -4.4004,-6.333 -7.5362,-6.333 h -0.8672 c -2.0205,0 -4.9824,0.0957 -6.791,0.4492 -1.2226,0.2412 -2.3632,0.2129 -2.7314,1.0313 -0.3633,0.8105 -0.5049,2.2617 -1.4854,2.2617 -1.0068,0 -2.6074,-2.2979 -2.6074,-3.458 v -0.8614 c 0,-2.0595 1.5078,-1.9277 2.6074,-2.8769 l 4.9239,-0.5742 h 2.0273 c 9.7676,0 17.0938,2.2802 17.0938,11.8007 v 0.2842 c 0,4.7901 -3.4922,9.7227 -6.0079,12.1651 -2.3476,2.2841 -8.4111,6.3066 -9.9287,8.5576 -0.4043,0.6064 -2.0586,2.5888 -2.8935,2.5888 h -2.3194 c -0.1992,0.8594 -0.8564,2.0157 -1.7382,2.0157 -2.9405,0 -5.7061,-3.0801 -6.667,-5.1739 -1.7481,-3.79 -1.545,-5.6455 -0.5723,-9.7929"
       id="path2575"
       style="fill:#aaaaaa;fill-opacity:1;fill-rule:nonzero;stroke:none"
       inkscape:connector-curvature="0" /><path
       d="m 62.4302,-265.6943 h -0.8736 c -0.3457,0.5205 -2.3129,2.3652 -2.3129,2.5918 0,2.622 5.7163,9.5 8.1123,9.5 h 0.5752 c 1.3657,0 1.5048,-3.042 0.8706,-4.0293 0,-3.9825 -2.2339,-8.0625 -6.3716,-8.0625 m -28.3897,10.0761 -3.1875,1.4366 c -1.6279,1.0859 -2.8999,3.0576 -2.8999,5.7587 v 2.5889 c 0,4.3379 3.7339,11.585 5.8687,14.0313 1.6362,1.8779 3.0376,3.5302 5.3345,4.7744 1.4653,0.792 5.3759,2.4912 7.3374,2.4912 h 1.7421 l 1.1592,-2.877 c 2.8682,-1.9101 1.8662,-0.6855 5.063,-1.5898 1.5982,-0.4502 1.7007,-3.6738 1.0181,-4.7422 0,-5.4062 -4.4307,-11.4531 -7.314,-14.3154 -3.4707,-3.4531 -7.3335,-7.5567 -14.1216,-7.5567 m -6.957,-2.0136 c 1.1465,-0.3067 2.7373,-1.9776 4.5967,-2.6348 1.6445,-0.5791 3.8105,-0.8223 6.1245,-0.8223 2.6684,0 7.0698,2.3809 8.8628,3.5703 2.6138,1.7256 4.4531,4.2823 6.4941,5.6426 l -0.5801,-8.9209 c 0,-2.3076 -2.2109,-10.7676 -2.9321,-12.9219 -0.874,-2.6308 -2.5757,-9.9355 -2.5757,-13.2705 v -0.288 c 0,-2.0704 1.0415,-3.752 2.3213,-4.6045 l 1.4458,-0.2891 c 2.4488,2.1162 3.7398,22.5508 6.3716,24.4678 1.4277,-0.9502 4.0112,-3.7442 6.083,-3.7442 h 2.8999 c 3.5991,0 7.8213,8.6338 7.8213,13.2412 v 1.1475 c 0,2.042 -0.77,3.2295 -1.1592,4.8916 -0.8232,0.9404 -3.0591,4.0303 -4.6313,4.0303 h -2.0308 c -1.3208,0 -2.8691,-1.3858 -4.3452,-1.7276 l -3.2671,-3.1113 -0.2095,0.2354 v 0.8642 c 0,1.8037 -1.5102,2.4473 -3.1865,2.5879 0.2891,1.083 2.7315,4.9785 3.478,6.9014 0.7134,1.8379 1.7364,5.8467 1.7364,8.3496 v 4.0312 c 0,5.2569 -4.2657,5.9375 -6.084,8.6348 -1.8164,1.3252 -3.4766,3.4531 -6.9522,3.4531 h -1.1606 c -5.8848,0 -13.0239,-6.1318 -16.0088,-9.4209 -3.5444,-3.9043 -6.8745,-11.4775 -6.8745,-18.7841 v -1.7247 c 0,-4.9892 1.7954,-6.8652 3.7622,-9.7841"
       id="path2577"
       style="fill:#aaaaaa;fill-opacity:1;fill-rule:nonzero;stroke:none"
       inkscape:connector-curvature="0" /><path
       d="m 79.5229,-268.8594 c 0.3584,1.3311 1.7457,3.4571 3.4737,3.4571 h 0.5825 c 1.3657,0 1.1563,-0.5606 2.3169,-0.8663 v -0.8623 c 0,-1.1884 -2.5151,-2.3046 -3.7666,-2.3046 -0.7266,0 -1.9053,0.415 -2.6065,0.5761 m -2.3198,4.8955 -3.7646,-7.4834 -0.2915,-5.1845 c 1.2597,-5.3623 2.23,-5.0606 4.6362,-8.6299 1.8926,-1.2578 4.1387,-2.8799 7.2446,-2.8799 h 2.3135 c 2.2124,0 3.7437,0.6953 4.6382,2.0156 v 1.1514 c -2.0234,3.8047 -6.0654,-0.0908 -9.27,1.4414 -3.1411,0.2578 -5.7954,4.082 -5.7954,7.4805 0,2.1172 0.3208,4.4384 2.0283,4.8916 0.2866,-1.0752 1.4282,-2.5889 2.8984,-2.5889 h 2.314 c 2.6601,0 5.5039,2.584 5.5039,5.4678 v 0.8642 c 0,1.2705 -0.4263,2.0537 -0.8657,2.876 -1.1348,1.6826 -3.8062,3.4531 -6.6636,3.4531 h -0.2886 c -2.0796,0 -3.396,-2.0488 -4.6377,-2.875"
       id="path2579"
       style="fill:#aaaaaa;fill-opacity:1;fill-rule:nonzero;stroke:none"
       inkscape:connector-curvature="0" /><path
       d="m 219.4443,-253.3164 -1.4492,-2.0156 c -0.8838,-3.7744 -1.7392,-2.9903 -1.7392,-8.9229 l 2.0312,-7.4814 c 2.1123,-2.418 4.6113,-8.3467 8.9795,-8.3467 h 0.29 c 0.9727,0 2.0274,0.5127 2.0274,1.4385 v 0.8652 c 0,0.9209 -2.7617,2.3994 -3.4746,3.4531 -1.6768,0.4444 -3.6406,3.6153 -4.3516,5.1778 -1.375,3.0263 -0.9922,4.292 -0.8594,7.7714 0.3018,7.9229 7.1436,7.6485 8.3965,2.3047 l 0.8701,-1.1513 c 0.42,-1.8077 1.46,-3.8291 1.9151,-6.1524 0.584,-2.9824 0.3711,-3.8408 2.7187,-5.0713 l 1.7256,-0.3545 c 0.5459,0.8584 0.8838,1.6094 0.8838,2.9424 0,4.3467 -3.3379,10.5469 -4.9277,13.5274 -1.1387,1.3047 -3.834,4.3164 -6.084,4.3164 h -1.7383 c -2.2695,0 -3.8184,-1.374 -5.2139,-2.3008"
       id="path2581"
       style="fill:#aaaaaa;fill-opacity:1;fill-rule:nonzero;stroke:none"
       inkscape:connector-curvature="0" /><path
       d="m 215.6807,-286.7031 2.0195,-0.3487 c 0.8584,0.6299 1.7441,1.8995 1.7441,3.2256 v 1.1504 c 0,0.7178 -0.9697,1.3926 -1.2871,2.4649 -0.2627,0.9013 -0.3174,1.9033 -0.5615,2.8925 -0.501,1.96 -1.1602,3.4493 -1.3398,5.5821 -0.668,0.956 -1.3291,2.8769 -2.8916,2.8769 -1.2061,0 -3.1885,-0.873 -3.1885,-2.0117 0,-0.5889 1.7041,-7.4473 2.0215,-8.6455 0.8574,-3.2422 0.7929,-5.7725 3.4834,-7.1865"
       id="path2583"
       style="fill:#aaaaaa;fill-opacity:1;fill-rule:nonzero;stroke:none"
       inkscape:connector-curvature="0" /><path
       d="m 94.0063,-284.1113 1.4483,-5.1797 2.8935,-3.1641 c 1.0733,0 2.0313,-0.2578 2.0313,0.8594 0,3.2588 -2.8989,7.0049 -2.8989,11.5127 v 0.291 l 0.3188,3.4473 c 1.3491,2.0478 2.7471,7.4853 6.3428,7.4853 h 0.8755 c 2.2934,0 3.4765,-3.1396 3.4765,-5.4668 0,-6.5566 -0.8681,-7.9951 -2.0317,-12.9511 l 2.3184,-3.7383 h 0.8691 c 1.9849,2.9472 3.1865,7.5029 3.1865,12.3711 v 1.7285 c 0,3.1133 -1.1382,5.5039 -1.7373,8.0566 -1.8125,1.3213 -2.6987,4.6045 -7.2431,4.6045 h -0.5806 c -5.6196,0 -9.5596,-7.6094 -9.5596,-13.5244 v -2.0127"
       id="path2585"
       style="fill:#aaaaaa;fill-opacity:1;fill-rule:nonzero;stroke:none"
       inkscape:connector-curvature="0" /><path
       d="m 186.1289,-286.415 1.7373,-1.1495 h 1.1621 c 1.3838,2.0489 1.3467,6.9102 4.6319,6.9102 1.9375,0 4.1679,-1.7432 4.9257,-3.1719 l 1.4502,-3.7383 c 0.6241,-2.663 0.1963,-2.4501 2.0264,-4.0312 1.0117,-0.2334 0.9766,-0.5752 2.0293,-0.5752 1.1133,0 2.0293,2.1084 2.0293,3.165 v 0.5752 c 0,4.4825 -2.9941,6.7764 -4.6348,9.211 -2.8984,1.9248 -4.3711,3.9199 -9.2744,4.0302 -0.3691,-0.2334 -2.3213,-0.8632 -2.8955,-0.8632 -1.5703,0 -2.2969,9.9023 -2.7187,11.9785 -0.3907,1.9111 -0.8145,4.2812 -1.2637,5.9336 -0.4961,1.8135 -1.3858,3.581 -1.8096,5.4004 -0.7627,0.874 -2.0224,3.1621 -3.4785,3.1621 -1.4971,0 -2.3662,-0.7305 -2.8975,-1.7246 1.4024,-2.6309 3.8897,-13.5469 4.7491,-17.4414 0.667,-3.0098 0.9638,-6.3487 1.6865,-9.2579 0.3135,-1.2607 0.5566,-3.3095 0.7734,-4.7031 0.5078,-3.1992 0.4707,-1.7773 1.7715,-3.7099"
       id="path2587"
       style="fill:#aaaaaa;fill-opacity:1;fill-rule:nonzero;stroke:none"
       inkscape:connector-curvature="0" /><path
       d="m 161.5039,-283.8262 -0.5801,-2.5888 c 0,-6.7676 2.4121,-6.8633 5.7969,-9.7832 1.4238,-0.1153 1.0576,-0.5762 2.3164,-0.5762 h 2.0283 c 4.4043,0 6.4131,3.3086 8.9805,5.1787 l 0.5791,1.4404 v 1.1494 c -0.5137,0.7647 -1.0303,1.4414 -2.3164,1.4414 h -0.5801 c -2.1006,0 -3.9023,-3.6591 -6.3769,-4.3173 -0.6192,-0.4268 -0.9512,-0.5733 -2.0235,-0.5733 -2.3564,0 -3.7656,3.1016 -3.7656,5.752 0,1.5752 3.8711,7.1572 4.8418,8.4248 2.958,3.8515 6.1641,2.5234 6.1641,6.831 -5.6504,1.3067 -6.0987,1.9131 -9.7383,-2.9882 -1.3946,-1.8809 -4.7881,-7.1104 -5.3262,-9.3907"
       id="path2589"
       style="fill:#aaaaaa;fill-opacity:1;fill-rule:nonzero;stroke:none"
       inkscape:connector-curvature="0" /><path
       d="m 116.314,-281.5225 c -0.2925,-1.0849 -1.7393,-3.0722 -1.7393,-4.3164 v -2.0117 c 0,-1.7392 0.8267,-2.6191 1.1592,-4.0312 l 2.8984,-3.4532 c 1.355,-0.7138 2.9405,-2.0146 4.9253,-2.0146 h 1.1558 c 3.957,0 8.9824,2.083 8.9824,6.042 -0.4971,0.9346 -1.5112,1.7314 -2.8989,1.7314 -1.9654,0 -3.5376,-3.1709 -7.5337,-3.1709 -2.4736,0.0576 -3.8076,2.4815 -4.0015,4.6651 -0.1997,2.2646 1.7774,4.3691 2.917,5.623 1.811,1.9697 2.3779,2.5244 4.3482,4.3184 2.6171,2.3857 3.4038,0.3076 5.7211,2.9511 v 1.7247 c -5.2353,2.7519 -4.9033,2.5752 -9.3891,-0.7432 -2.7442,-2.0342 -4.3779,-4.8359 -6.5449,-7.3145"
       id="path2591"
       style="fill:#aaaaaa;fill-opacity:1;fill-rule:nonzero;stroke:none"
       inkscape:connector-curvature="0" /><path
       d="m 140.0679,-288.4307 c 1.0132,-0.2285 0.9756,-0.5752 2.0298,-0.5752 h 1.1562 c 2.4453,0 6.8208,4.5489 9.5591,5.1797 l 0.8682,-6.042 c 0.2358,-2.7861 1.3281,-6.5332 3.187,-7.7695 1.5576,-0.7393 3.4804,0.2129 3.4804,2.0147 v 0.288 c 0,1.1299 -1.2422,1.1299 -1.8564,2.1885 -0.4883,0.833 -0.6504,2.0176 -0.877,3.1494 -0.2793,1.3926 -0.9565,6.1016 -1.0337,7.0371 -0.7011,1.4483 -1.2504,3.168 -3.4755,3.168 h -0.8721 c -2.0059,0 -6.2666,-3.6367 -8.1104,-4.6074 -0.5297,-0.4551 -1.0302,-0.8623 -2.0258,-0.8623 h -0.2945 c -1.3511,0 -2.0259,2.2773 -2.0259,3.7392 0,2.5284 5.8609,7.4834 8.399,7.4834 h 1.7426 l -0.3071,-0.1494 1.4512,-2.8779 0.3032,0.1504 c 1.062,0.706 2.1807,1.2441 2.315,2.8769 l -0.5752,1.7305 c -0.878,1.2891 -2.1641,2.0098 -4.3457,2.0098 h -1.1607 c -3.5835,0 -11.2944,-6.7481 -11.2944,-10.9336 v -0.5762 c 0,-3.2334 2.394,-4.7617 3.7627,-6.6221"
       id="path2593"
       style="fill:#aaaaaa;fill-opacity:1;fill-rule:nonzero;stroke:none"
       inkscape:connector-curvature="0" /><path
       d="m 266.6348,-246.8818 c 0.5566,-0.5498 0.9404,-1.1358 1.1543,-1.753 0.2578,-0.7529 0.1484,-1.3681 -0.3282,-1.8457 -0.3427,-0.3379 -0.8105,-0.5175 -1.4082,-0.5371 -0.5976,-0.0185 -1.1035,0.1807 -1.5205,0.5938 -0.3701,0.3662 -0.6474,0.9336 -0.8232,1.6972 -0.1807,0.7657 -0.1231,1.295 0.1728,1.5909 0.2745,0.2705 0.6856,0.4726 1.2344,0.6054 0.6416,0.1338 1.1475,0.0166 1.5186,-0.3515 z"
       id="path2595"
       style="fill:#aaaaaa;fill-opacity:1;fill-rule:nonzero;stroke:none"
       inkscape:connector-curvature="0" /><path
       d="m 267.6465,-216.4277 c 0.9551,-1.0381 1.3848,-1.8965 1.293,-2.5743 -0.0723,-0.4335 -0.461,-1.0009 -1.169,-1.707 -0.1162,-0.1142 -0.9326,-0.8301 -2.4463,-2.1455 -1.5137,-1.3174 -2.3183,-2.0195 -2.4092,-2.1113 -1.5107,-1.503 -2.413,-2.6983 -2.7109,-3.583 -0.4785,-1.4356 0.0381,-2.9014 1.5498,-4.4004 1.3047,-1.293 3.877,-2.9551 7.7168,-4.9805 3.8389,-2.0224 5.8057,-3.0791 5.8965,-3.1738 0.3437,-0.3389 0.5312,-0.8223 0.5693,-1.4463 0.0332,-0.624 -0.0527,-1.0391 -0.2558,-1.2451 -1.0293,-1.0205 -2.9981,-0.9531 -5.9073,0.2051 -2.2011,0.8632 -4.7324,2.2822 -7.5976,4.2627 -2.3164,1.5195 -3.8301,2.6337 -4.541,3.3398 -2.1319,2.1123 -3.2344,4.1367 -3.3067,6.0693 -0.0273,1.5733 0.6328,3.2061 1.9805,4.9141 0.3867,0.4736 1.6787,1.8066 3.873,3.9902 1.9649,1.9571 3.5166,3.2774 4.6582,3.9619 0.959,0.5489 1.8946,0.7569 2.8067,0.6241 z"
       id="path2597"
       style="fill:#aaaaaa;fill-opacity:1;fill-rule:nonzero;stroke:none"
       inkscape:connector-curvature="0" /><path
       d="m 289.6133,-215.7617 c 1.6963,-1.6807 2.4824,-4.2705 2.3555,-7.7666 -0.129,-3.1358 -0.7295,-5.2354 -1.7989,-6.3028 -1.7344,-1.7255 -4.2705,-2.0205 -7.6113,-0.8818 -2.6582,0.957 -4.9453,2.3848 -6.8731,4.2949 -2.1328,2.1143 -3.7773,4.7823 -4.9277,8.0088 -1.3613,3.9287 -1.084,6.8457 0.833,8.7559 2.4854,2.4746 4.8057,2.8017 6.96,0.9834 1.7656,-1.4756 3.873,-2.8408 6.3203,-4.0908 2.2685,-1.1143 3.8496,-2.1163 4.7422,-3.001 m -4.3692,-2.9043 c -0.8457,0.8389 -2.5273,1.8681 -5.0449,3.0908 -2.1933,1.083 -3.6689,1.7061 -4.4238,1.8633 -0.3203,-1.7744 -0.0117,-3.6709 0.9267,-5.6885 0.7754,-1.6777 1.8292,-3.1767 3.1573,-4.4892 0.9814,-0.9766 2.0215,-1.7569 3.1201,-2.3438 1.4629,-0.7246 2.5146,-0.7686 3.1562,-0.1328 0.6407,0.6396 0.8623,1.8721 0.6709,3.6982 -0.1953,1.8301 -0.7168,3.1641 -1.5625,4.002 z"
       id="path2599"
       style="fill:#aaaaaa;fill-opacity:1;fill-rule:nonzero;stroke:none"
       inkscape:connector-curvature="0" /><path
       d="m 263.1777,-103.6768 -4.6113,1.503 15.6231,16.623 1.7324,1.7266 0.8808,1.2344 -26.082,3.083 -1.4453,0.291 -5.2334,0.3974 17.1103,23.2012 1.7364,2.2988 2.3134,3.4727 -30.1259,-8.9365 -1.4473,-0.5801 -4.0361,-1.2315 5.7763,22.8174 0.8663,3.458 0.7705,3.8829 -26.5538,-17.7022 -1.708,-1.1914 -0.1523,0.2539 v -16.8301 c 3.1748,-1.5361 5.9814,-3.1904 7.8906,-4.4472 3.4697,-2.2832 12.7334,-11.4766 13.6709,-15.4864 4.1143,-4.7002 7.2451,-19.0693 7.2451,-28.4902 v -1.4395 c 0,-15.1816 -6.4785,-31.9189 -12.1699,-42.3046 -4.7764,-8.7149 -9.7812,-14.5235 -16.6367,-21.5596 v -27.9522 l 1.2852,-0.0175 36.6445,2.124 -12.334,21.0488 28.4141,-3.8642 0.9277,0.038 -15.9932,24.1358 -3.4355,4.9228 32.4023,18.9668 1.4502,1.4385 -19.1201,11.8018 -4.2549,2.4463 23.666,13.0927 2.9864,1.6983 -16.0215,5.498 -2.0313,0.5781 m -45.5507,-91.7519 3.7617,4.6025 2.9609,-5.3222 z"
       id="path2601"
       style="fill:#ff9999;fill-opacity:1;fill-rule:evenodd;stroke:none"
       inkscape:connector-curvature="0" /><path
       d="m 208.5684,-179.6553 c -1.3067,-1.3427 -2.6739,-2.7275 -4.1299,-4.1885 -2.7822,-2.5195 -5.5635,-4.5761 -8.2959,-6.6386 -2.9824,-2.251 -6.0332,-4.0498 -9.3496,-5.9639 -6.4727,-3.7334 -13.5293,-7.0293 -21.6465,-9.0019 -6.7881,-1.6524 -19.8526,-3.502 -27.4702,-1.6133 -0.8511,0.2099 -1.7383,0.4033 -2.6333,0.5908 v -20.7715 l 0.0595,0.0654 2.9288,-3.4267 0.0327,-0.003 27.2592,-29.2715 8.0049,39.4091 30.6983,-16.457 3.5302,29.3516 1.0118,-0.0108 v 27.9297 m -48.7168,-52.9248 c -0.004,-0.009 -10.6299,12.251 -10.6299,12.251 l 11.9853,-0.1748 z"
       id="path2603"
       style="fill:#ecec0e;fill-opacity:1;fill-rule:evenodd;stroke:none"
       inkscape:connector-curvature="0" /><path
       d="m 135.043,-78.3721 c 0.7885,0.584 1.5732,1.17 2.4052,1.7491 7.5674,5.2753 22.2159,12.4267 29.5538,13.8115 7.3359,1.3838 21.2695,2.0283 28.6777,1.1465 4.1562,-0.4893 8.8223,-2.2637 12.8887,-4.2286 v 16.8545 l -16.0752,26.8037 -2.1846,3.6475 -0.1025,0.3477 -22.3409,-22.4112 -2.5341,-2.6591 -8.7627,24.8193 -1.6016,4.3183 h -0.0859 L 136.27,-49.6748 c -0.3628,0.126 -0.7827,0.2764 -1.227,0.4336 v -29.1309 m 51.0761,38.8653 3.5245,-6.0137 -11.7618,0.1504 z"
       id="path2605"
       style="fill:#ecec0e;fill-opacity:1;fill-rule:evenodd;stroke:none"
       inkscape:connector-curvature="0" /><path
       d="m 135.0908,-206.4805 c -3.3691,0.7139 -6.9062,1.3692 -9.5156,2.6494 -2.0796,1.0235 -8.4898,4.002 -9.5601,5.462 -6.6709,3.5068 -12.8422,12.2802 -16.227,19.2832 -2.2525,2.581 -5.5025,16.6933 -5.5025,22.166 v 7.4804 l 0.8038,6.3663 c 0.0024,0.002 0.0127,0.0117 0.0127,0.0117 0.0239,0.2773 2.1494,10.622 2.2187,10.9668 0.7383,3.7822 3.9209,11.2636 5.1743,13.9287 2.3189,4.9365 6.7139,13.3066 12.8877,20.8017 5.6362,6.8389 11.6192,13.0508 19.708,19.0303 v 29.0762 c -9.6035,3.4189 -37.8286,13.7246 -37.8286,13.7246 l 4.0864,-38.3369 -37.1084,-16.5049 3.1055,-2.9453 20.1157,-16.8291 -1.2905,-1.3018 -29.2607,-25.6621 3.7734,-0.5322 c 0,0 5.4932,-0.6787 9.2715,-1.2783 3.7597,-0.5987 10.1645,-7.2715 10.5566,-12.1328 -0.0429,-0.0362 -0.0918,-0.0752 -0.1323,-0.1114 0,-2.7138 -1.0645,-5.5918 -2.6065,-6.624 l -20.9672,-32.1601 4.1655,0.5058 24.918,3.7285 -0.584,-4.0107 -3.4307,-27.0928 24.5205,6.0195 1.2183,-4.2587 4.3442,-13.8125 c 0.0132,-0.004 0.0239,-0.006 0.0381,-0.009 l 5.4644,-16.6827 0.5366,0.0137 0.333,0.5615 6.9536,7.7686 6.2964,6.333 c 0.0254,0 0.0483,0 0.0752,0 l 3.436,3.6992 v 20.708 m -9.8076,142.7998 -7.5317,-6.6162 -2.4502,-1.9834 -2.4966,13.4463 12.4785,-4.8467 m -25.2012,-25.3203 -4.9257,-9.79 c 0,6.8291 -7.4522,8.7646 4.9257,9.79 m 25.1294,-127.709 c -0.6836,-0.9414 -1.8926,-3.3486 -2.542,-3.8173 l -0.6797,5.7451 c 2.3433,-0.041 4.6788,0.0898 3.2217,-1.9278 z"
       id="path2607"
       style="fill:#b3b3ff;fill-opacity:1;fill-rule:evenodd;stroke:none"
       inkscape:connector-curvature="0" /><path
       d="m 43.8867,-197.1943 c 1.4673,-0.9786 4.9253,-5.3223 6.5908,-6.9815 2.3428,-2.3252 4.6519,-4.3457 6.9493,-6.6181 3.6201,-3.5899 11.2519,-8.9444 16.1088,-11.3379 6.4034,-3.1641 33.107,-13.9131 41.0367,-13.9131 l 10.7182,-1.1553 18.5415,0.5781 c 4.2451,0 10.1534,0.8711 14.1328,1.5 3.085,0.4864 10.6426,2.7676 12.8096,2.8164 l 13.3272,6.0459 c 2.0254,1.75 5.0048,3.1885 7.1757,5.2403 2.2383,2.1279 4.1622,4.1689 6.3672,6.3398 3.2715,3.2178 8.9629,10.0674 11.4307,13.9668 3.2646,5.165 6.5898,10.543 8.5967,16.793 1.7109,5.3183 4.2314,14.4062 4.376,20.9726 l 0.3603,5.4619 -0.0684,8.3545 c 0,7.7852 -0.8867,14.7539 -2.1972,21.4161 -1.3262,6.7392 -3.3555,12.6152 -4.7578,18.5888 -0.5528,1.0449 -1.7022,4.6055 -2.8926,4.6055 h -1.7402 c -7.127,0 -16.2491,-2.1494 -22.8555,-3.1983 -7.3301,-1.1679 -14.5762,-2.8007 -21.6348,-4.4101 -6.8232,-1.544 -14.5351,-3.2149 -20.6914,-5.3438 -3.2475,-1.124 -6.7319,-2.0234 -9.8872,-3.1211 -1.7681,-0.621 -8.0957,-3.4013 -9.2344,-3.5029 -0.4926,-0.4238 -0.5053,-0.5722 -1.4497,-0.5722 -1.0561,0 -7.2734,16.3818 -7.8203,18.7089 l -2.0264,8.3438 c -1.0332,4.4121 -3.935,31.3691 -7.5317,30.7959 l -6.9565,-0.8662 -3.3648,-0.3301 1.6275,-6.8604 c 0.8159,-1.6904 1.5835,-5.955 2.145,-8.2343 0.4844,-1.9737 1.8677,-5.5293 2.6899,-7.4043 0.8042,-1.8496 5.8052,-13.5996 5.8877,-14.583 l 2.3159,-5.1778 c 1.313,-2.4726 2.2544,-5.3828 3.2749,-8.2617 0.8614,-2.4414 2.9536,-6.5312 3.3882,-8.1484 -1.8999,-0.4356 -4.9868,-2.0098 -7.6518,-2.7569 -2.0567,-0.5781 -5.9912,-1.9658 -7.9932,-2.1357 l -5.7935,-1.4326 -26.0722,-6.0498 -8.69,-2.8731 c -3.9116,-2.4687 -10.9238,-3.7275 -13.9057,-7.7744 2.4516,-3.6377 4.2358,-10.0508 8.1098,-12.0889 11.2417,0 16.336,6.751 23.7549,10.6495 3.3369,2.8798 9.8662,7.5019 14.7793,8.6386 3.4693,1.8223 9.917,3.9082 13.9883,5.378 2.3291,0.8388 4.9473,2.0195 7.1548,2.6777 3.9941,1.1934 3.6421,1.2002 5.5063,-2.3027 l 1.1592,-2.5879 c 1.646,-1.2051 4.582,-10.9112 5.5313,-13.7862 1.6108,-4.8388 2.4077,-10.2304 3.6728,-15.3457 1.3838,-5.5644 6.3667,-27.123 10.2051,-28.1445 1.6802,1.4522 6.3706,2.6992 6.3706,5.4746 v 1.1475 c 0,8.2109 -4.7642,24.7724 -7.0737,31.5371 -1.4087,4.1387 -4.1138,9.3974 -6.0591,13.2646 -2.2227,4.4151 -4.293,8.7764 -6.565,13.0459 1.8765,3.5205 28.5664,8.959 35.628,8.9239 7.4365,-0.0342 14.8779,-0.002 22.3095,-0.002 7.2559,0 14.1563,1.1475 21.1514,1.1475 h 1.4453 c 1.294,0 1.4502,-3.8086 1.4502,-5.1778 0,-2.6728 0.5791,-4.2568 0.5791,-7.4824 0,-3.0029 0.2901,-4.8877 0.2881,-7.7676 0,-5.209 -0.54,-10.6093 -0.8672,-15.2529 -0.5596,-7.8594 -3.5097,-20.5283 -6.3769,-25.9033 -1.7403,-7.4483 -12.1739,-21.2529 -17.3018,-25.9795 -3.8447,-3.542 -7.3066,-6.916 -12.0488,-9.6133 -3.5274,-2.0098 -10.6485,-6.3555 -14.6807,-7.2939 l -3.4726,-0.8594 -1.4502,-0.2881 -17.6714,-2.8809 -6.3765,-0.2851 c -8.9619,0 -12.5879,0.3672 -19.6968,2.0146 -4.9253,1.1416 -17.3379,5.8047 -20.2788,8.3448 l -7.5317,4.3164 -2.0318,1.1513 -22.0126,12.9502 c -6.4092,4.2676 -8.9209,7.2832 -13.3794,13.4746 -2.355,3.2725 -8.2491,13.7588 -9.2188,17.8985 -2.1475,3.0713 -6.084,22.7422 -6.084,28.7812 v 12.9502 c 0,10.0908 4.5093,22.5323 7.0108,30.7373 2.8925,9.5059 7.9033,17.2227 13.3872,24.4004 5.0801,6.668 12.1201,14.0459 19.4819,18.3516 5.8687,3.4287 18.6255,10.543 27.3325,10.543 l 8.6831,0.9609 1.1665,-0.0908 c 12.5406,0 22.4117,-3.6241 31.7769,-7 5.0503,-1.8194 23.9233,-9.2793 26.7427,-11.708 l 3.7646,-2.0157 c 1.3877,-0.3242 8.9473,-5.3447 10.0684,-6.4033 2.4092,-2.2705 6.0537,-5.6592 7.6006,-8.5635 l 7.5332,-10.6474 1.4492,0.5703 c 2.8906,2 13.0351,3.9209 13.0351,8.3516 v 0.8642 c 0,1.1504 -0.6064,2.6211 -0.8701,3.7402 -0.6045,2.5762 -4.3017,6.9375 -6.0459,8.669 -1.6836,1.6709 -6.9853,5.4053 -7.8584,6.585 -1.917,1.0039 -3.9814,2.4638 -5.8486,3.6884 -1.9356,1.2705 -4.1172,2.2119 -6.0859,3.4463 -3.0499,1.9111 -9.2051,5.0977 -12.6504,6.4287 -7.5606,2.918 -19.5508,8.3877 -29.0098,9.1748 l -12.4546,1.1465 h -24.0449 c -30.8667,0 -44.6465,-14.8203 -57.3574,-32.8105 -5.3335,-7.5547 -13.2618,-19.3301 -16.4742,-28.5323 -1.9306,-5.54 -4.3086,-10.289 -5.7187,-16.7666 -1.186,-5.4404 -3.3042,-12.9853 -3.3042,-19.166 v -8.917 c 0,-7.1347 4.4394,-25.7959 6.9004,-30.2744 2.376,-4.334 3.5566,-7.9228 6.3691,-12.0928 1.0025,-1.4912 7.772,-10.5849 7.8794,-10.8798"
       id="path2609"
       style="fill:#000000;fill-opacity:1;fill-rule:evenodd;stroke:none"
       inkscape:connector-curvature="0" /><path
       d="m 206.4063,-249.2842 c 0,-0.667 -0.2012,-0.8603 -0.8721,-0.8603 -1.9287,0 -3.7627,1.4668 -3.7627,3.7382 1.4199,-0.0351 4.6348,-0.373 4.6348,-1.7275 v -1.1504 m -4.9278,10.3594 c 0.0723,-3.0147 1.7471,-1.6006 2.3135,-3.8018 l -4.6279,0.3477 c -3.045,0.2666 -3.4102,-2.3682 -2.9649,-4.3818 0.6875,-3.0694 1.9512,-3.1788 3.2539,-5.1163 1.5176,-1.0087 3.6953,-2.8769 6.0811,-2.8769 h 1.4502 c 2.6172,0 4.6357,2.001 4.6357,4.6094 v 0.2802 c 0,2.1797 -0.4502,4.2979 -1.1592,5.7579 l -4.3457,5.7548 c -0.7011,0.337 -1.2656,0.5782 -2.3164,0.5782 h -0.8711 c -0.8261,0 -1.0068,-0.6524 -1.4492,-1.1514"
       id="path2611"
       style="fill:#000000;fill-opacity:1;fill-rule:evenodd;stroke:none"
       inkscape:connector-curvature="0" /><path
       d="m 237.9834,-249.8643 c 0,2.9991 1.2686,4.9502 4.0557,5.1807 0.2851,-1.0488 1.1582,-1.5889 1.1582,-2.2978 v -2.0166 c 0,-3.3985 -0.8965,-4.8291 -1.4473,-7.1963 -1.3398,0.3076 -3.7666,2.9912 -3.7666,4.0302 v 2.2998 m -4.0547,-5.1796 c 1.1182,-1.2774 1.3018,-2.1143 2.8154,-3.2471 1.7227,-1.2891 2.3965,-1.3096 3.8457,-2.2168 7.0625,0 5,5.4531 7.0684,9.6523 l 5.6816,-4.4746 4.3448,-4.6015 c 0.7822,-1.4766 1.7373,-3.2344 1.7373,-5.4707 v -1.7256 c 0,-3.2364 -4.3994,-6.333 -7.5342,-6.333 h -0.8682 c -2.0205,0 -4.9824,0.0957 -6.791,0.4482 -1.2226,0.2441 -2.3633,0.2139 -2.7324,1.0313 -0.3633,0.8115 -0.5039,2.2626 -1.4834,2.2626 -1.0088,0 -2.6084,-2.2988 -2.6084,-3.456 v -0.8633 c 0,-2.0566 1.5098,-1.9277 2.6084,-2.875 l 4.9238,-0.5781 h 2.0264 c 9.7676,0 17.0947,2.2812 17.0947,11.8037 v 0.2852 c 0,4.7861 -3.4931,9.7177 -6.0068,12.164 -2.3477,2.2832 -8.4121,6.3037 -9.9297,8.5547 -0.4063,0.6084 -2.0606,2.5889 -2.8965,2.5889 h -2.3183 c -0.1993,0.8623 -0.8545,2.0176 -1.7364,2.0176 -2.9414,0 -5.706,-3.0792 -6.6679,-5.1749 -1.7471,-3.791 -1.544,-5.6464 -0.5733,-9.7919"
       id="path2613"
       style="fill:#000000;fill-opacity:1;fill-rule:evenodd;stroke:none"
       inkscape:connector-curvature="0" /><path
       d="m 58.9502,-262.2383 h -0.8721 c -0.3467,0.5205 -2.3144,2.3662 -2.3144,2.5918 0,2.6201 5.7173,9.502 8.1137,9.502 h 0.5752 c 1.3658,0 1.5044,-3.0459 0.8687,-4.0352 0,-3.9785 -2.231,-8.0586 -6.3711,-8.0586 m -28.3887,10.0742 -3.187,1.4385 c -1.6284,1.084 -2.9009,3.0586 -2.9009,5.7588 v 2.5879 c 0,4.3359 3.7344,11.5869 5.8677,14.0351 1.6362,1.875 3.0381,3.5303 5.3359,4.7715 1.4649,0.7891 5.376,2.4932 7.3379,2.4932 h 1.7403 l 1.1596,-2.8799 c 2.8706,-1.9092 1.8672,-0.6875 5.0655,-1.5908 1.5966,-0.4522 1.6987,-3.6738 1.0171,-4.7422 0,-5.4053 -4.4302,-11.4521 -7.315,-14.3154 -3.4707,-3.4512 -7.333,-7.5567 -14.1211,-7.5567 m -6.9565,-2.0156 c 1.146,-0.3027 2.7363,-1.9756 4.5962,-2.6299 1.6445,-0.58 3.8105,-0.8222 6.125,-0.8222 2.667,0 7.0683,2.3779 8.8618,3.5673 2.6133,1.7247 4.4541,4.2832 6.4941,5.6416 l -0.5791,-8.9218 c 0,-2.3057 -2.2099,-10.7627 -2.9316,-12.919 -0.875,-2.6318 -2.5767,-9.9345 -2.5767,-13.2695 v -0.291 c 0,-2.0703 1.042,-3.751 2.3203,-4.6035 l 1.4468,-0.2881 c 2.4497,2.1152 3.7398,22.5498 6.3726,24.4687 1.4272,-0.9511 4.0093,-3.7451 6.082,-3.7451 h 2.8999 c 3.5982,0 7.8203,8.6309 7.8203,13.2383 v 1.1494 c 0,2.043 -0.7685,3.2324 -1.1577,4.8936 -0.8247,0.9384 -3.0586,4.0273 -4.6323,4.0273 h -2.0303 c -1.3208,0 -2.8691,-1.3867 -4.3457,-1.7227 l -3.2671,-3.1123 -0.209,0.2344 v 0.8613 c 0,1.8086 -1.5097,2.4483 -3.1865,2.5889 0.2896,1.0869 2.7319,4.9805 3.478,6.9053 0.7139,1.834 1.7373,5.8457 1.7373,8.3476 v 4.0284 c 0,5.2607 -4.2661,5.9394 -6.0849,8.6377 -1.8164,1.3232 -3.4766,3.4511 -6.9517,3.4511 h -1.1611 c -5.8843,0 -13.0235,-6.1328 -16.0073,-9.4189 -3.5459,-3.9053 -6.876,-11.4766 -6.876,-18.7813 v -1.7285 c 0,-4.9892 1.7954,-6.8672 3.7627,-9.7871"
       id="path2615"
       style="fill:#000000;fill-opacity:1;fill-rule:evenodd;stroke:none"
       inkscape:connector-curvature="0" /><path
       d="m 76.0449,-265.4023 c 0.3574,1.33 1.7437,3.4541 3.4727,3.4541 h 0.582 c 1.3657,0 1.1563,-0.5606 2.3184,-0.8633 v -0.8643 c 0,-1.1875 -2.5171,-2.3037 -3.7681,-2.3037 -0.7251,0 -1.9053,0.4141 -2.605,0.5772 m -2.3208,4.8945 -3.7646,-7.4844 -0.2906,-5.1826 c 1.2598,-5.3633 2.2286,-5.0625 4.6353,-8.6309 1.8936,-1.2597 4.1401,-2.8818 7.2437,-2.8818 h 2.3144 c 2.2134,0 3.7446,0.6953 4.6362,2.0156 v 1.1533 c -2.0219,3.8047 -6.063,-0.0947 -9.2666,1.4385 -3.1425,0.2608 -5.7964,4.086 -5.7964,7.4815 0,2.1191 0.3218,4.4414 2.0274,4.8935 0.2876,-1.0752 1.4302,-2.5898 2.8979,-2.5898 h 2.315 c 2.6601,0 5.5049,2.584 5.5049,5.4668 v 0.8633 c 0,1.2714 -0.4292,2.0527 -0.8672,2.8759 -1.1343,1.6846 -3.8062,3.4571 -6.6636,3.4571 h -0.2891 c -2.0791,0 -3.3955,-2.0498 -4.6367,-2.876"
       id="path2617"
       style="fill:#000000;fill-opacity:1;fill-rule:evenodd;stroke:none"
       inkscape:connector-curvature="0" /><path
       d="m 215.9639,-249.8643 -1.4463,-2.0127 c -0.8828,-3.7734 -1.7412,-2.9902 -1.7412,-8.9228 l 2.0322,-7.4824 c 2.1133,-2.4141 4.6113,-8.3487 8.9785,-8.3487 h 0.293 c 0.9697,0 2.0234,0.5147 2.0234,1.4385 v 0.8662 c 0,0.9229 -2.7597,2.4033 -3.4736,3.4571 -1.6758,0.4423 -3.6406,3.6132 -4.3506,5.1748 -1.377,3.0273 -0.9922,4.291 -0.8604,7.7705 0.3028,7.9248 7.1426,7.6484 8.3965,2.3027 l 0.8721,-1.1455 c 0.4199,-1.8096 1.46,-3.8311 1.9141,-6.1563 0.582,-2.9785 0.3701,-3.8349 2.7177,-5.0693 l 1.7256,-0.3574 c 0.5469,0.8594 0.8838,1.6133 0.8838,2.9473 0,4.3447 -3.3379,10.5419 -4.9267,13.5253 -1.1387,1.3038 -3.8331,4.3174 -6.0831,4.3174 h -1.7402 c -2.2685,0 -3.8174,-1.375 -5.2148,-2.3047"
       id="path2619"
       style="fill:#000000;fill-opacity:1;fill-rule:evenodd;stroke:none"
       inkscape:connector-curvature="0" /><path
       d="m 212.2012,-283.248 2.0195,-0.3497 c 0.8594,0.6309 1.7432,1.9014 1.7432,3.2256 v 1.1533 c 0,0.7129 -0.9678,1.3907 -1.2842,2.462 -0.2617,0.9033 -0.3164,1.9072 -0.5645,2.8935 -0.499,1.9619 -1.1582,3.4483 -1.3388,5.5811 -0.667,0.958 -1.3291,2.8799 -2.8916,2.8799 -1.2061,0 -3.1885,-0.876 -3.1885,-2.0157 0,-0.5859 1.706,-7.4463 2.0225,-8.6416 0.8574,-3.2451 0.7929,-5.7763 3.4824,-7.1884"
       id="path2621"
       style="fill:#000000;fill-opacity:1;fill-rule:evenodd;stroke:none"
       inkscape:connector-curvature="0" /><path
       d="m 90.5278,-280.6553 1.4468,-5.1797 2.8955,-3.167 c 1.0718,0 2.0318,-0.2558 2.0318,0.8643 0,3.2549 -2.9009,7.002 -2.9009,11.5068 v 0.293 l 0.3193,3.4473 c 1.3486,2.0478 2.7471,7.4883 6.3438,7.4883 h 0.873 c 2.2949,0 3.4771,-3.1416 3.4771,-5.4668 0,-6.5596 -0.8677,-7.9981 -2.0308,-12.9551 l 2.3169,-3.7383 h 0.8706 c 1.9839,2.9521 3.186,7.5068 3.186,12.3701 v 1.7315 c 0,3.1132 -1.1381,5.5039 -1.7363,8.0586 -1.8135,1.3193 -2.6992,4.6025 -7.2436,4.6025 h -0.5806 c -5.6182,0 -9.5606,-7.6104 -9.5606,-13.5264 v -2.0117"
       id="path2623"
       style="fill:#000000;fill-opacity:1;fill-rule:evenodd;stroke:none"
       inkscape:connector-curvature="0" /><path
       d="m 182.6504,-282.96 1.7373,-1.1494 h 1.1611 c 1.3838,2.0479 1.3477,6.9082 4.6328,6.9082 1.9375,0 4.168,-1.7441 4.9258,-3.1709 l 1.4492,-3.7373 c 0.625,-2.664 0.1973,-2.4511 2.0284,-4.0283 1.0097,-0.2363 0.9755,-0.5781 2.0283,-0.5781 1.1133,0 2.0293,2.1074 2.0293,3.1631 v 0.5781 c 0,4.4814 -2.9942,6.7744 -4.6348,9.207 -2.8984,1.9268 -4.3711,3.9248 -9.2754,4.0342 -0.3691,-0.2334 -2.3222,-0.8652 -2.8935,-0.8652 -1.5713,0 -2.2979,9.9023 -2.7198,11.9785 -0.3916,1.9121 -0.8144,4.2832 -1.2636,5.9326 -0.4961,1.8135 -1.3867,3.5811 -1.8106,5.4033 -0.7627,0.8701 -2.0234,3.1592 -3.4785,3.1592 -1.4961,0 -2.3662,-0.7295 -2.8965,-1.7227 1.4033,-2.6328 3.8887,-13.5478 4.75,-17.4423 0.666,-3.0108 0.961,-6.3477 1.6856,-9.2579 0.3125,-1.2617 0.5547,-3.3085 0.7734,-4.7041 0.5078,-3.1982 0.4707,-1.7744 1.7715,-3.708"
       id="path2625"
       style="fill:#000000;fill-opacity:1;fill-rule:evenodd;stroke:none"
       inkscape:connector-curvature="0" /><path
       d="m 158.0264,-280.3721 -0.5811,-2.5879 c 0,-6.7685 2.4121,-6.8632 5.7959,-9.7861 1.4238,-0.1133 1.0596,-0.5723 2.3174,-0.5723 h 2.0273 c 4.4053,0 6.4121,3.3106 8.9805,5.1807 l 0.5801,1.4385 v 1.1465 c -0.5127,0.7675 -1.0313,1.4433 -2.3164,1.4433 H 174.25 c -2.0996,0 -3.9023,-3.6621 -6.377,-4.3183 -0.6191,-0.4258 -0.9511,-0.5743 -2.0234,-0.5743 -2.3584,0 -3.7676,3.1026 -3.7676,5.754 0,1.5761 3.8731,7.1582 4.8448,8.4257 2.957,3.8516 6.164,2.5205 6.164,6.8301 -5.6513,1.3037 -6.1006,1.9131 -9.7392,-2.9902 -1.3946,-1.8789 -4.7871,-7.1094 -5.3252,-9.3897"
       id="path2627"
       style="fill:#000000;fill-opacity:1;fill-rule:evenodd;stroke:none"
       inkscape:connector-curvature="0" /><path
       d="m 112.8354,-278.0664 c -0.2934,-1.0859 -1.7397,-3.0752 -1.7397,-4.3164 v -2.0117 c 0,-1.7432 0.8267,-2.6201 1.1606,-4.0332 l 2.896,-3.4512 c 1.3555,-0.7168 2.9419,-2.0176 4.9258,-2.0176 h 1.1568 c 3.956,0 8.9824,2.084 8.9824,6.043 -0.4971,0.9365 -1.5117,1.7305 -2.898,1.7305 -1.9668,0 -3.5395,-3.169 -7.5337,-3.169 -2.4751,0.0586 -3.8095,2.4795 -4.0048,4.666 -0.1983,2.2637 1.7788,4.3692 2.9189,5.624 1.8125,1.9688 2.3779,2.5235 4.3486,4.3165 2.6163,2.3837 3.4038,0.3066 5.7212,2.9521 v 1.7227 c -5.2358,2.7519 -4.9023,2.5752 -9.3896,-0.7442 -2.7437,-2.0312 -4.3779,-4.834 -6.5445,-7.3115"
       id="path2629"
       style="fill:#000000;fill-opacity:1;fill-rule:evenodd;stroke:none"
       inkscape:connector-curvature="0" /><path
       d="m 136.5894,-284.9746 c 1.0127,-0.2285 0.9755,-0.5781 2.0283,-0.5781 h 1.1572 c 2.4448,0 6.8213,4.5517 9.5591,5.1806 l 0.8691,-6.041 c 0.2339,-2.7851 1.3267,-6.5342 3.1865,-7.7676 1.5572,-0.7431 3.48,0.211 3.48,2.0118 v 0.29 c 0,1.1279 -1.2426,1.1279 -1.8559,2.1875 -0.4893,0.832 -0.6494,2.0185 -0.8775,3.1494 -0.2788,1.3916 -0.9565,6.1025 -1.0332,7.0361 -0.7011,1.4473 -1.2509,3.168 -3.4765,3.168 h -0.8721 c -2.0039,0 -6.2656,-3.6377 -8.1094,-4.6064 -0.5298,-0.4561 -1.0303,-0.8614 -2.0273,-0.8614 h -0.293 c -1.3525,0 -2.0254,2.2744 -2.0254,3.7393 0,2.5283 5.8594,7.4805 8.3989,7.4805 h 1.7422 l -0.3071,-0.1485 1.4517,-2.8769 0.3037,0.1504 c 1.062,0.708 2.1792,1.2451 2.3144,2.875 l -0.5766,1.7334 c -0.877,1.289 -2.1631,2.0078 -4.3448,2.0078 h -1.1611 c -3.583,0 -11.2939,-6.7451 -11.2939,-10.9317 v -0.5791 c 0,-3.2334 2.3925,-4.7588 3.7627,-6.6191"
       id="path2631"
       style="fill:#000000;fill-opacity:1;fill-rule:evenodd;stroke:none"
       inkscape:connector-curvature="0" /><path
       d="m 263.1543,-243.4287 c 0.5586,-0.5479 0.9414,-1.1338 1.1562,-1.751 0.2579,-0.7549 0.1485,-1.3711 -0.33,-1.8437 -0.3399,-0.3418 -0.8086,-0.5205 -1.4063,-0.5391 -0.5976,-0.0195 -1.1045,0.1787 -1.5215,0.5908 -0.3701,0.3692 -0.6464,0.9346 -0.8242,1.7022 -0.1797,0.7656 -0.1211,1.2929 0.1758,1.5879 0.2734,0.2705 0.6836,0.4736 1.2334,0.6074 0.6416,0.1328 1.1475,0.0156 1.5166,-0.3545 z"
       id="path2633"
       style="fill:#000000;fill-opacity:1;fill-rule:nonzero;stroke:none"
       inkscape:connector-curvature="0" /><path
       d="m 264.168,-212.9727 c 0.955,-1.038 1.3838,-1.8974 1.2929,-2.5761 -0.0722,-0.4317 -0.4609,-1 -1.1699,-1.7061 -0.1172,-0.1152 -0.9316,-0.831 -2.4453,-2.1455 -1.5137,-1.3154 -2.3184,-2.0215 -2.4102,-2.1084 -1.5097,-1.5039 -2.4121,-2.7002 -2.7109,-3.5859 -0.4785,-1.4336 0.0381,-2.8994 1.5508,-4.3994 1.3047,-1.293 3.8769,-2.9541 7.7158,-4.9786 3.8379,-2.0253 5.8057,-3.0839 5.8975,-3.1738 0.3437,-0.3408 0.5322,-0.8223 0.5683,-1.4492 0.0332,-0.6231 -0.0507,-1.0391 -0.2558,-1.2441 -1.0293,-1.0225 -2.9991,-0.9551 -5.9082,0.2041 -2.1992,0.8623 -4.7315,2.2841 -7.5957,4.2627 -2.3164,1.5224 -3.8301,2.6337 -4.542,3.3408 -2.1309,2.1142 -3.2344,4.1377 -3.3076,6.0703 -0.0254,1.5693 0.6347,3.206 1.9824,4.9121 0.3867,0.4785 1.6777,1.8076 3.8711,3.9941 1.9668,1.9522 3.5176,3.2744 4.6601,3.96 0.959,0.5478 1.8926,0.7559 2.8067,0.623 z"
       id="path2635"
       style="fill:#000000;fill-opacity:1;fill-rule:nonzero;stroke:none"
       inkscape:connector-curvature="0" /><path
       d="m 286.1348,-212.3076 c 1.6972,-1.6797 2.4824,-4.2686 2.3545,-7.7686 -0.1289,-3.1338 -0.7276,-5.2334 -1.7998,-6.2988 -1.7325,-1.7256 -4.2696,-2.0205 -7.6114,-0.8828 -2.6562,0.9541 -4.9453,2.3857 -6.8711,4.2969 -2.1347,2.1113 -3.7773,4.7822 -4.9297,8.0068 -1.3593,3.9287 -1.082,6.8477 0.834,8.7549 2.4844,2.4746 4.8047,2.8027 6.961,0.9844 1.7636,-1.4776 3.873,-2.8418 6.3203,-4.0909 2.2676,-1.1162 3.8476,-2.1152 4.7422,-3.0019 m -4.3692,-2.9024 c -0.8476,0.837 -2.5293,1.8682 -5.0459,3.0879 -2.1924,1.084 -3.6689,1.7041 -4.4228,1.8653 -0.3213,-1.7735 -0.0137,-3.67 0.9258,-5.6895 0.7753,-1.6797 1.8281,-3.1767 3.1562,-4.4902 0.9824,-0.9776 2.0234,-1.7578 3.1221,-2.3457 1.4619,-0.7227 2.5146,-0.7657 3.1572,-0.127 0.6387,0.6367 0.8594,1.8721 0.668,3.7002 -0.1924,1.8252 -0.7149,3.1592 -1.5606,3.999 z"
       id="path2637"
       style="fill:#000000;fill-opacity:1;fill-rule:nonzero;stroke:none"
       inkscape:connector-curvature="0" /></g></svg>