<?xml version="1.0" encoding="UTF-8" standalone="no"?>
<svg
   xmlns:dc="http://purl.org/dc/elements/1.1/"
   xmlns:cc="http://creativecommons.org/ns#"
   xmlns:rdf="http://www.w3.org/1999/02/22-rdf-syntax-ns#"
   xmlns:svg="http://www.w3.org/2000/svg"
   xmlns="http://www.w3.org/2000/svg"
   xmlns:sodipodi="http://sodipodi.sourceforge.net/DTD/sodipodi-0.dtd"
   xmlns:inkscape="http://www.inkscape.org/namespaces/inkscape"
   version="1.1"
   viewBox="0 0 500 500"
   id="svg16"
   sodipodi:docname="exit.svg"
   inkscape:version="0.92.2 (5c3e80d, 2017-08-06)">
  <metadata
     id="metadata22">
    <rdf:RDF>
      <cc:Work
         rdf:about="">
        <dc:format>image/svg+xml</dc:format>
        <dc:type
           rdf:resource="http://purl.org/dc/dcmitype/StillImage" />
      </cc:Work>
    </rdf:RDF>
  </metadata>
  <defs
     id="defs20" />
  <sodipodi:namedview
     pagecolor="#ffffff"
     bordercolor="#666666"
     borderopacity="1"
     objecttolerance="10"
     gridtolerance="10"
     guidetolerance="10"
     inkscape:pageopacity="0"
     inkscape:pageshadow="2"
     inkscape:window-width="1366"
     inkscape:window-height="706"
     id="namedview18"
     showgrid="false"
     inkscape:zoom="0.472"
     inkscape:cx="-60.381356"
     inkscape:cy="250"
     inkscape:window-x="-8"
     inkscape:window-y="-8"
     inkscape:window-maximized="1"
     inkscape:current-layer="svg16" />
  <g
     id="g843"
     transform="translate(-19.938619,-0.0278465)">
    <g
       id="g8"
       transform="matrix(0,-0.66138389,0.66138389,0,155.15657,417.06634)">
      <g
         id="g6"
         transform="translate(0,-552.36)">
        <path
           inkscape:connector-curvature="0"
           id="path4"
           d="m 233.02,587.81 c -8.31,2e-5 -15,6.69 -15,15 v 300.56 l -72.657,-72.683 c -2.9375,-2.9385 -6.7595,-4.4062 -10.594,-4.4062 -3.8345,0 -7.6557,1.4682 -10.594,4.4062 l -24,24 c -5.8761,5.8761 -5.8761,15.343 0,21.219 l 100.5,100.5 16.094,16.125 c 0.0314,0.031 0.0627,0.062 0.0937,0.094 0.0311,0.031 0.0619,0.063 0.0937,0.094 l 16.5,16.5 c 0,0 7.5805,7.7035 16.531,7.7035 8.8715,0 16.594,-7.7973 16.594,-7.7973 l 16.625,-16.594 116.62,-116.62 c 5.8761,-5.8761 5.8761,-15.343 0,-21.219 l -24,-24 c -5.8761,-5.8761 -15.311,-5.8761 -21.188,0 l -72.683,72.683 v -300.56 c 0,-8.31 -6.69,-15 -15,-15 z" />
      </g>
    </g>
    <path
       style="color:#000000;stroke-width:1.19739997"
       inkscape:connector-curvature="0"
       id="path10"
       d="m 286.34336,440.30309 c 18.27712,0 32.96562,-14.72563 32.96562,-33.00274 V 398.0205 H 136.63364 c -9.3566,0 -16.87616,-7.55667 -16.87616,-16.91328 V 118.94847 c 0,-9.35661 7.5192,-16.91328 16.87616,-16.91328 h 182.67534 v -9.279847 c 0,-18.27711 -14.6885,-33.00274 -32.96562,-33.00274 H 110.46925 c -18.277106,0 -33.002736,14.72563 -33.002736,33.00274 V 407.30035 c 0,18.27711 14.72563,33.00274 33.002736,33.00274 z" />
  </g>
</svg>
