<?xml version="1.0" encoding="UTF-8"?>
<svg enable-background="new 0 0 136.676 117.498" viewBox="0 0 136.676 117.498" xmlns="http://www.w3.org/2000/svg">
 <defs>
  <linearGradient id="h" x1="-240.44" x2="-239.56" gradientTransform="matrix(776.01 550.01 550.01 -776.01 -63461 4.8455e5)" gradientUnits="userSpaceOnUse">
   <stop stop-color="#fff" offset="0"/>
   <stop offset="1"/>
  </linearGradient>
  <linearGradient id="g" x1="-239.73" x2="-238.88" gradientTransform="matrix(0 -215 -215 0 1.0071e5 -51431)" gradientUnits="userSpaceOnUse">
   <stop stop-color="#fff" offset="0"/>
   <stop offset="1"/>
  </linearGradient>
  <linearGradient id="d" x1="-164.57" x2="501.24" y1="-181.79" y2="478.96" gradientUnits="userSpaceOnUse">
   <stop stop-color="#fff" offset="0"/>
   <stop offset="1"/>
  </linearGradient>
  <linearGradient id="c" x1="31.247" x2="187.64" y1="11.594" y2="166.79" gradientUnits="userSpaceOnUse">
   <stop stop-color="#fff" offset="0"/>
   <stop offset="1"/>
  </linearGradient>
  <radialGradient id="a" cx="37.127" cy="36.987" r="36.718" gradientUnits="userSpaceOnUse">
   <stop stop-color="#f8f8f8" offset="0"/>
   <stop stop-color="#7f7f7f" offset="1"/>
  </radialGradient>
  <radialGradient id="f" cx="36.604" cy="36.507" r="19.492" gradientUnits="userSpaceOnUse">
   <stop stop-color="#f3f3f3" offset="0"/>
   <stop stop-color="#f1f1f1" offset=".4367"/>
   <stop stop-color="#eaeaea" offset=".594"/>
   <stop stop-color="#dedede" offset=".7061"/>
   <stop stop-color="#cdcdcd" offset=".7968"/>
   <stop stop-color="#b7b7b7" offset=".8745"/>
   <stop stop-color="#9d9d9d" offset=".9419"/>
   <stop stop-color="#7f7f7f" offset="1"/>
  </radialGradient>
  <radialGradient id="e" cx="95.658" cy="76.268" r="40.846" gradientUnits="userSpaceOnUse">
   <stop stop-color="#f8f8f8" offset="0"/>
   <stop stop-color="#7f7f7f" offset="1"/>
  </radialGradient>
  <radialGradient id="b" cx="95.623" cy="75.478" r="21.683" gradientUnits="userSpaceOnUse">
   <stop stop-color="#f3f3f3" offset="0"/>
   <stop stop-color="#f1f1f1" offset=".4367"/>
   <stop stop-color="#eaeaea" offset=".594"/>
   <stop stop-color="#dedede" offset=".7061"/>
   <stop stop-color="#cdcdcd" offset=".7968"/>
   <stop stop-color="#b7b7b7" offset=".8745"/>
   <stop stop-color="#9d9d9d" offset=".9419"/>
   <stop stop-color="#7f7f7f" offset="1"/>
  </radialGradient>
 </defs>
 <path d="m69.797,31.428c-2.104,0-4.208.024-6.31.103-.5-2.485-1.384-4.889-2.597-7.115-.623-1.144-1.759-1.726-.657-2.729 .752-.685 1.491-1.384 2.221-2.092 1.417-1.372 4.173-3.386 2.82-5.641-1.344-2.234-5.327-6.916-8.151-4.896-1.817,1.301-3.36,3.238-4.881,4.868-1.026,1.1-5.618-1.865-7.336-2.388-1.277-.391-2.467-.004-2.389-1.524 .055-1.059.084-2.121.102-3.182 .026-1.63.486-4.283-.894-5.549-1.501-1.377-7.301-1.217-9.029-.329-1.62.829-1.397,3.083-1.39,4.584 .007,1.119.022,2.237.05,3.356 .043,1.614.563,1.746-1.198,2.15-2.46.565-4.842,1.466-7.06,2.674-1.51.82-1.223.433-2.27-.694-.997-1.07-2.019-2.114-3.052-3.148-3.314-3.314-6.409.799-8.631,3.433-1.368,1.622-.793,3.173.612,4.581 .866.864 1.74,1.725 2.623,2.574 1.674,1.616 1.38,1.43.244,3.397-1.174,2.034-2.064,4.232-2.636,6.512-.496,1.979-3.901,1.051-5.833,1.051-4.508,0-3.667,4.006-3.708,7.305-.056,4.673 3.73,4.065 7.451,3.998 1.683-.032 1.907-.562 2.45,1.193 .378,1.229.85,2.429 1.411,3.586 .557,1.15 1.2,2.259 1.92,3.316 1.091,1.602-.094,1.768-1.363,2.972-1.339,1.273-3.922,3.03-4.023,5.062-.086,1.697 1.82,2.993 2.872,4.045s2.349,2.963 4.049,2.877c2.228-.117 4.309-3.217 5.72-4.699 .622-.649 1.234-1.304 1.836-1.971 1.348.759 2.758,1.404 4.214,1.926 1.487.536 3.022.944 4.576,1.223-.11,1.273-.165,2.555-.2,3.832-.052,1.889-.733,5.346.867,6.813 1.339,1.23 3.947.664 5.584.699 1.421.029 3.431.254 4.303-1.172 1.313-2.146.526-6.092.439-8.5-.061-1.633-.568-1.674 1.216-2.137 1.697-.441 3.356-1.039 4.942-1.789 1.954-.921 1.964-1.533 3.434.096 .998,1.109 2.033,2.187 3.081,3.251 1.611,1.637 3.374,3.396 5.533,1.572 1.5-1.268 4.249-3.416 4.817-5.361 .682-2.34-2.762-4.652-4.17-6.005-1.25-1.199-2.644-1.551-1.598-3.146 .893-1.362 1.658-2.809 2.277-4.315 .466-1.141.85-2.315 1.149-3.51 1.344.086 2.69.13 4.037.152 1.942.035 5.384.586 6.062-1.928 .919-3.413 1.063-9.381-3.536-9.381m-33.192,15.856c-5.926,0-11.263-4.704-11.263-10.779 0-6.072 5.337-10.776 11.263-10.776s11.263,4.704 11.263,10.776c0,6.075-5.335,10.779-11.263,10.779" fill="url(#a)"/>
 <path d="m36.97,1.034c1.239-.02 2.645-.226 3.825.203 1.992.725 1.412,3.967 1.387,5.556-.016.854-.626,3.784-.18,4.479s5.155,1.509 6.166,1.97c3.843,1.753 3.048,2.409 5.915-.563 1.487-1.54 3.83-5.064 6.207-3.224 1.483,1.151 5.507,4.62 4.788,6.466-.725,1.866-2.986,3.445-4.417,4.779-1.63,1.519-1.878,1.044-.76,2.876 1.291,2.119 2.266,4.428 2.875,6.833 .337,1.334-.045,1.582 1.135,1.562 2.27-.038 5.752-.722 7.908.223 1.965.864 1.264,5.11 1.242,6.997-.054,4.715-6.75,3.147-9.983,2.946 .088.007-3.788,8.28-4.429,9.174-.306.426 4.104,4.214 4.673,4.762 2.757,2.655 1.575,4.089-.843,6.521-3.369,3.385-4.398,3.078-7.773-.41-1.198-1.237-2.375-2.498-3.482-3.818-.292-.351-3.354,1.548-3.901,1.774-.823.345-4.965,1.03-5.319,1.602-.558.904.173,4.471.184,5.568 .056,4.754-.499,5.846-5.216,5.846-1.245,0-2.626.229-3.816-.203-2.23-.813-1.407-5.029-1.36-6.791 .024-.836.656-3.572.241-4.268-.316-.533-4.68-1.182-5.481-1.491-.439-.168-3.771-1.955-3.932-1.787l-2.554,2.661c-1.104,1.152-3.197,4.119-4.98,4.064-1.566-.025-5.554-4.211-6.19-5.638-1.558-3.503 5.617-5.236 6.128-7.786 .025-.118-5.512-9.676-4.793-9.687-2.005.027-4.08.229-6.079.084-3.889,0-3.278-3.372-3.251-6.247-.089-4.125 2.016-4.222 5.478-4.151l3.577.071c.249.005 1.303-4.232 1.519-4.771 .747-1.854 1.73-3.583 2.871-5.22 .244-.353-1.078-1.31-1.337-1.562-1.876-1.826-5.813-4.392-3.265-7.136 1.17-1.261 3.649-4.454 5.356-4.454 2.088,0 4.67,3.768 5.952,5.108 1.693,1.774 3.542-.61 5.654-1.409 2.2-.831 5.182-.202 5.137-2.757-.031-1.815-.219-3.701-.096-5.513-.003-3.465 2.481-3.282 5.219-3.239m1.901-.91c-2.057,0-5.473-.613-7.011.884-1.738,1.723-.946,5.989-.909,8.187 .034,2.009-1.685,1.569-3.439,2.15-.819.271-5.278,2.577-5.594,2.246-1.613-1.697-3.74-4.872-6.114-5.526-2.324-.643-4.227,2.122-5.673,3.612-3.202,3.076-2.292,4.962.545,7.721 .881.854 1.758,1.713 2.643,2.563-1.412,2.068-2.529,4.333-3.291,6.717s-.383,2.418-2.755,2.373c-1.375-.027-2.817-.169-4.186.002-3.611.452-3.044,4.039-3.065,6.789-.035,4.538 1.767,5.404 5.901,5.338l3.748-.06c.623,2.333 1.579,4.575 2.825,6.643 .769,1.273 1.829,1.586.575,2.733-.892.818-1.768,1.654-2.632,2.501-1.279,1.253-3.2,2.928-2.399,4.953 .657,1.654 4.427,5.427 6.082,6.083 2.585,1.025 4.936-2.428 6.465-4.018 .76-.791 1.516-1.587 2.284-2.372 2.198,1.196 4.552,2.098 6.987,2.676 1.7.404 1.2.467 1.125,2.006-.05,1.045-.082,2.086-.097,3.129-.033,1.932-.516,5.109 1.625,6.188 1.726.867 5.33.545 7.303.395 4.595-.355 3.293-6.627 3.187-9.797-.051-1.543-.539-1.662 1.121-2.107 1.184-.32 2.347-.713 3.478-1.182s2.229-1.008 3.29-1.617c.584.686 1.188,1.352 1.802,2.01 2.414,2.594 5.336,6.855 8.854,3.469 1.522-1.469 4.513-3.689 4.556-5.842 0-2.301-3.116-4.448-4.613-5.886-1.159-1.115-2.074-1.263-1.152-2.703 1.236-1.937 2.216-4.036 2.903-6.228 1.062-3.392 9.775,1.873 10.625-3.728 .302-2 .59-7.022-.808-8.442-1.672-1.711-5.718-.957-7.862-.92-2.125.036-1.675-1.533-2.36-3.397-.626-1.704-3.194-4.84-1.912-6.016 3.534-3.244 7.237-5.832 2.896-9.974-1.449-1.497-3.346-4.25-5.678-3.615-2.209.599-4.229,3.527-5.745,5.093-1.375,1.42-2.271.018-3.948-.74-1.472-.666-5.549-1.219-5.477-2.725 .187-3.904 1.302-9.566-4.1-9.566" fill="url(#h)"/>
 <path d="m24.902,36.506c0,14.54 23.404,14.54 23.404,0s-23.404-14.537-23.404,0m.885,0c0-13.399 21.637-13.399 21.637,0s-21.637,13.401-21.637,0" fill="url(#g)"/>
 <path d="m36.605 17.789c-10.363 0-20.237 7.9-20.237 18.716s9.87 18.721 20.237 18.721 20.236-7.899 20.236-18.721-9.874-18.716-20.236-18.716m0 34.558c-8.771 0-17.129-6.681-17.129-15.842s8.357-15.84 17.129-15.84 17.129 6.682 17.129 15.84-8.356 15.842-17.129 15.842" fill="url(#f)"/>
 <path d="m13.398,26.637c.774-1.19 1.558-2.372 2.389-3.524-1.246-.258-2.028,2.621-2.389,3.524m46.831-15.889c-.839-3.328-5.762,2.348-6.603,3.248-.255.272-1.703,2.232-2.158,2.098-2.732-2.019-5.922-3.38-9.233-4.115-.602,2.024 4.622,2.59 6.166,3.361 1.193.597 2.364,2.42 3.517,1.359 1.912-1.76 3.656-3.77 5.727-5.342 .5-.378 2.845-.592 2.686.169-.035-.259-.07-.517-.102-.778m-37.533,5.425c1.841-1.179 3.885-2.006 6.021-2.476 1.445-.319 3.418.096 2.81-1.967-1.673.315-9.412,2.12-8.831,4.443" fill="#e8e8e8"/>
 <path d="m40.801 2.027c0 1.309-7.948 1.309-7.948 0s7.948-1.306 7.948 0" fill="#e8e8e8"/>
 <path d="m36.827,71.629c-.374,0-3.973-.07-3.973.717 0,1.078 7.948,1.078 7.948,0 0-.787-3.601-.717-3.975-.717" fill="#616161"/>
 <path d="m6.14,40.647c-.375,0-3.974-.072-3.974.715 0,1.068 7.949,1.067 7.949,0 0-.787-3.601-.715-3.975-.715" fill="#616161"/>
 <path d="m67.811,40.647c-.375,0-3.976-.072-3.976.715 0,1.068 7.95,1.068 7.95,0 0-.787-3.6-.715-3.974-.715" fill="#616161"/>
 <path d="m9.792,59.263c-.722,0 1.255,2.393 1.304,2.45 .806.908 2.653,3.262 4.047,3.262 .018.012-1.103-2.219-1.356-2.5-.8-.899-2.619-3.215-3.995-3.212" fill="#616161"/>
 <path d="m52.626,58.38c-.323,0 4.192,6.952 5.48,5.667 .831-.83-4.424-5.667-5.48-5.667" fill="#616161"/>
 <path d="m14.876,9.294c.585.587-5.19,6.364-5.776,5.777-.585-.586 5.19-6.36 5.776-5.777" fill="#e8e8e8"/>
 <path d="m64.251 15.6c-1.097 0-6.256 5.22-5.692 5.805 1.028 1.029 5.714-5.805 5.692-5.805" fill="#616161"/>
 <path d="m64.544 59.165c-1.094 0-6.242 5.253-5.693 5.806 1.09 1.035 5.685-5.806 5.693-5.806" fill="#616161"/>
 <path d="m20.83,59.165c-1.027,0-2.57,1.904-3.196,2.531-.261.256-2.573,3.281-2.49,3.279 1.272,1.019 5.544-5.81 5.686-5.81" fill="#616161"/>
 <path d="m15.252,64.514-.116.457c.383.381-.22-1.305.116-.457" fill="#937342"/>
 <path d="m9.724,32.605c0,.748-6.874-.294-7.207.697-.206.604-.272,6.191-.686,6.148-.956-.1-.125-5.601-.045-6.317 .197-1.764 7.938-1.077 7.938-.528" fill="#e8e8e8"/>
 <path d="m13.096,55.846c-.202.2-2.556,2.647-2.968,2.237-.544-.545 4.658-5.751 5.203-5.204 .411.411-2.038,2.767-2.235,2.967" fill="#e8e8e8"/>
 <path d="m71.71,32.717c0,.664-8.28.664-8.28,0s8.28-.664 8.28,0" fill="#e8e8e8"/>
 <path d="m56.397,41.417c-4.397,13.485-23.397,18.567-33.772,8.635 0,2.076 4.386,4.566 5.831,5.331 5.042,2.663 10.997,2.66 16.307.788 6.705-2.362 10.566-7.922 11.634-14.754m.258-1.107c-.172.344-.258.713-.258,1.107-.149.46.405-1.107.258-1.107" fill="#666"/>
 <path d="m50.267,50.315c-4.632,3.794-11.138,5.484-17.048,4.649 6.024.94 12.378-.693 17.048-4.649" fill="#7f7f7f"/>
 <path d="m19.974,33.857c0-5.145 4.561-10.122 8.929-12.107 4.752-2.158 10.031-2.196 14.745.06 .604.289 7.501,4.297 6.632,5.418 .23-.297-4.358-3.686-4.701-3.88-4.349-2.472-9.739-2.556-14.436-1.079-4.31,1.356-11.169,6.498-11.169,11.588" fill="#e8e8e8"/>
 <path d="m16.298,33.73c0-6.272 6.022-12.355 11.28-14.702 5.727-2.555 12.096-2.682 17.759.082 2.099,1.023 4.093,2.356 5.769,3.985 .09.087 1.803,2.16 1.494,2.172-.362.014-1.202-1.281-1.415-1.514-1.24-1.342-2.646-2.528-4.211-3.476-5.246-3.173-11.879-3.266-17.57-1.271-4.594,1.615-8.39,4.837-10.785,9.065-.797,1.405-2.321,4.229-2.321,5.659" fill="#e8e8e8"/>
 <path d="m53.723,36.873c.042,0-.991,3.65-1.078,3.864-1.133,2.814-2.986,5.319-5.422,7.141-7.91,5.91-18.783,4.461-25.069-2.863 8.495,12.314 31.065,7.669 31.571-8.142" fill="#e8e8e8"/>
 <path d="m48.96,47.479c-.483.462-.99.897-1.523,1.3 .537-.4 1.044-.832 1.523-1.3m-27.176-2.812c-.221,0 2.822,3.182 3.064,3.359-.525-.457-2.538-3.359-3.064-3.359" fill="#e8e8e8"/>
 <path d="m125.813,97.477c-1.662-1.65-3.341-3.279-5.064-4.865 1.552-2.354 2.737-4.941 3.524-7.652 .403-1.389-.036-2.74 1.618-2.67 1.132.049 2.264.078 3.396.092 2.193.025 5.949.596 6.645-2.246 .691-2.818 1.212-9.637-2.601-10.252-2.452-.396-5.189-.076-7.668.02-1.67.064-2.975-5.875-3.92-7.637-.704-1.306-1.946-1.935-.693-3.072 .875-.795 1.729-1.609 2.572-2.435 1.3-1.266 3.74-3 3.643-5.081-.105-2.266-4.811-6.68-6.871-7.336-1.93-.613-3.52,1.34-4.69,2.533-.871.887-1.737,1.784-2.589,2.688-1.234,1.31-.922,1.819-2.63.76-2.388-1.481-4.975-2.637-7.673-3.421-1.835-.534-1.305-.615-1.248-2.326 .052-1.624.063-3.251.057-4.875-.021-5.215-5.688-4.392-9.503-4.052-2.354.208-3.116,1.882-3.108,4.094 .006,1.362.022,2.725.053,4.088 .06,2.586-.028,2.209-2.467,2.873-2.522.687-4.947,1.724-7.188,3.077-1.939,1.174-3.9-2.227-5.428-3.74-3.56-3.532-6.034.288-8.65,2.863-3.707,3.647-.241,6.132 2.75,8.993 1.354,1.295 1.946,1.051.999,2.862-.664,1.268-1.231,2.584-1.693,3.94-.462,1.344-.824,2.723-1.083,4.119-.395,2.123-1.46,1.322-3.406,1.279-2.053-.045-5.47-.68-7.142.844-1.399,1.273-.908,3.791-.901,5.443 .005,1.656-.468,4.184.942,5.447 1.851,1.652 5.922.834 8.2.771 .997-.029 1.995-.063 2.99-.117 .471,1.654 1.08,3.268 1.819,4.82 .755,1.59 1.646,3.113 2.657,4.551-1.086.922-2.132,1.889-3.161,2.873-1.52,1.449-4.768,3.645-4.655,6.057 .093,2.02 2.597,3.617 3.863,4.926 1.098,1.137 2.509,2.889 4.316,2.449 2.719-.666 5.188-4.402 7.005-6.369 1.235-1.34.867-1.766 2.635-.734 1.688.98 3.465,1.809 5.307,2.461 2.265.805 2.751.328 2.635,2.766-.08,1.66-.107,3.32-.113,4.98-.011,2.557.003,5.324 3.139,5.578 2.176.174 6.028.633 8.002-.461 2.371-1.313 1.465-5.836 1.412-8.01-.047-1.924-.87-3.295 1.203-3.734 1.773-.373 3.511-.918 5.181-1.625 1.26-.531 2.485-1.158 3.655-1.869 .995,1.121 2.025,2.211 3.068,3.285 1.508,1.547 3.794,4.68 6.3,3.225 3.4-1.977 8.19-6.577 4.559-10.178m-38.633-13.489c-4.68-4.643-5.208-12.541-.448-17.336s12.658-4.328 17.338.316 5.208,12.539.449,17.334c-4.759,4.798-12.66,4.333-17.339-.314" fill="url(#e)"/>
 <path d="m123.708,47.753c.992.958 2.264,1.894 2.86,3.158 1.006,2.133-1.994,4.236-3.258,5.473-.682.663-3.46,2.5-3.652,3.396-.192.912 2.887,5.234 3.325,6.39 1.662,4.395.52,4.287 5.111,4.188 2.38-.051 6.993-.996 7.426,2.32 .271,2.066.73,7.959-1.285,8.854-2.036.906-5.058.381-7.231.313-2.477-.078-2.303-.645-2.854,1.678-.643,2.684-1.681,5.27-3.084,7.646-.778,1.32-1.276,1.215-.329,2.123 1.824,1.746 5.109,3.938 6.069,6.373 .875,2.221-3.004,5.025-4.5,6.498-3.737,3.682-7.797-2.805-10.19-5.496 .063.074-9.479,3.566-10.687,3.773-.576.094-.062,6.543-.04,7.422 .096,4.256-1.961,4.461-5.775,4.486-5.312.033-5.887-1.016-5.816-6.41 .021-1.918.08-3.836.24-5.746 .044-.504-3.859-1.406-4.47-1.654-.92-.375-4.728-3.08-5.456-2.902-1.149.273-3.364,3.662-4.217,4.539-3.683,3.797-4.974,4.227-8.698.529-.983-.973-2.255-1.875-2.854-3.152-1.126-2.389 2.827-5.07 4.245-6.426 .674-.645 3.319-2.307 3.536-3.184 .168-.668-2.771-4.596-3.162-5.469-.214-.479-1.445-4.5-1.703-4.494-1.366.037-2.734.068-4.102.102-1.775.045-5.753.746-7.119-.691-1.214-1.25-1.085-7.68-.47-9.305 1.516-3.986 8.54.268 10.942-1.346 .111-.074 3.228-11.96 3.805-11.403-1.604-1.55-3.402-3.019-4.868-4.696-3.069-3.048.056-5.235 2.329-7.482 3.159-3.325 4.9-1.752 7.578,1.014l2.769,2.86c.192.197 4.344-2.321 4.936-2.576 2.043-.879 4.173-1.474 6.358-1.876 .468-.084.175-1.876.169-2.279-.052-2.911-1.151-8.021 3.013-8.192 1.911-.079 6.371-.657 7.715.678 1.651,1.638.739,6.634.7,8.698-.054,2.728 3.275,2.295 5.568,3.318 2.391,1.067 4.252,3.901 6.221,1.849 1.396-1.459 2.724-3.096 4.243-4.428 2.715-2.739 4.53-.65 6.662,1.529m2.213.773c-1.625-1.612-3.842-4.772-6.23-4.797-2.719,0-5.439,3.986-7.133,5.754-1.547,1.61-2.559-.083-4.4-1.001-.858-.428-6.186-2.1-6.176-2.609 .058-2.604.862-6.778-.497-9.155-1.332-2.326-5.003-1.635-7.312-1.591-4.938-.079-5.699,2.123-5.616,6.525 .024,1.364.045,2.729.075,4.094-2.735.524-5.39,1.439-7.861,2.725-2.457,1.282-2.197,1.608-4.034-.285-1.064-1.098-2.092-2.341-3.307-3.279-3.204-2.471-5.567.805-7.741,2.96-3.582,3.556-2.837,5.651.48,8.837 1.002.964 2.006,1.923 3.004,2.89-1.338,2.33-2.338,4.849-2.972,7.458-.392,1.609.201,2.686-1.689,2.609-1.345-.053-2.691-.078-4.038-.088-1.992-.012-4.82-.193-5.773,2.033-.779,1.822-.759,7.754.034,9.568 1.238,2.838 5.798,1.953 8.253,1.895 1.221-.029 2.441-.068 3.661-.084 .796,2.668 1.952,5.223 3.421,7.588 1.023,1.652.581,1.309-.685,2.465-.856.783-1.696,1.584-2.527,2.395-1.541,1.5-4.413,3.631-3.565,6.162 .684,2.037 3.783,4.604 5.458,6.029 3.905,3.32 7.793-2.65 10.195-5.236 1.165-1.26.874-1.734 2.536-.787 1.18.676 2.41,1.275 3.668,1.793s2.551.949 3.865,1.301c-.074.998-.121,2-.152,2.998-.124,3.939-1.159,9.596 4.276,9.676 2.351.035 6.452.623 8.176-1.045 1.801-1.814 1.022-5.951.968-8.26-.042-1.789-.647-2.623 1.206-3.037 2.497-.559 4.913-1.449 7.175-2.643 3.495-1.848 6.25,9.139 11.309,5.383 1.806-1.342 5.969-5.084 5.977-7.299 .022-2.662-3.765-5.236-5.488-6.887-1.702-1.639-.119-2.523.801-4.533 .84-1.836 1.271-6.324 3.203-6.248 5.335.207 10.286,1.068 10.104-5.605 .029-2.316.687-5.977-1.65-7.305-2.215-1.258-6.102-.525-8.529-.477-2.195.041-1.804-1.768-2.534-3.682-.642-1.674-3.43-5.307-2.191-6.443 3.202-2.935 8.52-6.529 4.255-10.762" fill="url(#d)"/>
 <path d="m86.382,66.309c-11.391,11.48 7.089,29.818 18.481,18.338s-7.091-29.817-18.481-18.338m.7.695c10.498-10.582 27.583,6.371 17.082,16.951s-27.582-6.373-17.082-16.951" fill="url(#c)"/>
 <path d="m110.291,60.699c-8.184-8.121-22.171-9.618-30.646-1.077s-6.873,22.515 1.313,30.638 22.167,9.619 30.646,1.074c8.474-8.543 6.869-22.518-1.313-30.635m-27.078,27.287c-6.929-6.873-8.29-18.697-1.113-25.93 7.175-7.231 19.009-5.961 25.937.914 6.926,6.873 8.29,18.695 1.113,25.928s-19.011,5.963-25.937-.912" fill="url(#b)"/>
 <path d="m85.034,49.5c1.542-.333 3.089-.651 4.645-.909-.781-1.18-3.653.48-4.645.909m49.426,24.15c1.946-3.287-6.389-2.664-7.76-2.609-.413.016-3.091.428-3.345-.035-.578-3.734-2.028-7.311-4.067-10.483-2.061,1.125 1.62,5.665 2.235,7.483 .476,1.406-.029,3.766 1.712,3.83 2.889.107 5.839-.111 8.706.27 .691.094 2.712,1.762 1.989,2.236l.53-.692m-33.884-25.128c2.375.514 4.638,1.461 6.69,2.763 1.392.883 2.624,2.755 3.761.651-1.568-1.064-9.092-5.702-10.451-3.414" fill="#e8e8e8"/>
 <path d="m125.95 51.541c-1.024 1.031-7.301-5.198-6.278-6.229s7.302 5.197 6.278 6.229" fill="#e8e8e8"/>
 <path d="m68.277,103.385c-.294-.293-3.079-3.168-3.696-2.547-.845.85 5.431,7.078 6.274,6.227 .62-.62-2.28-3.385-2.578-3.68" fill="#616161"/>
 <path d="m68.321,54.877c-.295-.293-3.078-3.172-3.698-2.549-.836.844 5.442,7.07 6.276,6.227 .619-.621-2.281-3.383-2.578-3.678" fill="#616161"/>
 <path d="m117.02,103.199c-.296-.293-3.082-3.172-3.699-2.549-.837.842 5.44,7.07 6.276,6.227 .617-.623-2.284-3.385-2.577-3.678" fill="#616161"/>
 <path d="m56.622,72.438c-.57-.564-.886,2.873-.888,2.955-.078,1.35-.461,4.658.638,5.748 .006.025.867-2.611.889-3.035 .07-1.336.45-4.592-.639-5.668" fill="#616161"/>
 <path d="m91.136,105.303c-.257-.252-2.138,8.775-.114,8.768 1.306-.005.949-7.938.114-8.768" fill="#616161"/>
 <path d="m99.786,36.964c.004.923-9.081.958-9.087.035 0-.918 9.083-.954 9.087-.035" fill="#e8e8e8"/>
 <path d="m133.836,80.631c-.866-.857-9.031-.781-9.046.125 .009,1.619 9.063-.106 9.046-.125" fill="#616161"/>
 <path d="m99.934,115.262c-.866-.857-9.049-.744-9.046.123 .049,1.672 9.038-.131 9.046-.123" fill="#616161"/>
 <path d="m65.414,81.008c-.813-.805-3.523-.51-4.507-.506-.409,0-4.604.576-4.535.639 .206,1.802 8.929-.243 9.042-.133" fill="#616161"/>
 <path d="m56.818,80.863-.448.27c.002.599.848-1.203.448-.27" fill="#937342"/>
 <path d="m77.453,51.336c-.585.589-5.194-5.62-6.236-5.098-.634.317-5.068,4.676-5.358,4.318-.674-.829 4.29-4.521 4.914-5.023 1.54-1.239 7.113,5.369 6.68,5.803" fill="#e8e8e8"/>
 <path d="m61.907,72.328c-.314.002-4.093.088-4.095-.559-.005-.857 8.182-.891 8.188-.029 0,.645-3.782.586-4.093.588" fill="#e8e8e8"/>
 <path d="m126.313,99.99c-.521.527-7.058-5.961-6.537-6.486 .518-.525 7.057,5.963 6.537,6.486" fill="#e8e8e8"/>
 <path d="m107.405,94.865c-14.039,7.199-33.023-3.674-33.434-19.646-1.627,1.641-.114,7.043.427,8.777 1.895,6.057 6.598,10.719 12.26,13.402 7.147,3.389 14.551,2.022 20.747-2.533m1.069-.674c-.401.139-.759.363-1.068.674-.479.244 1.185-.558 1.068-.674" fill="#666"/>
 <path d="m95.592,97.086c-6.63-.633-13.091-4.398-17.104-9.686 4.02,5.459 10.318,9.153 17.104,9.686" fill="#7f7f7f"/>
 <path d="m84.567,60.355c4.032-4.063 11.532-4.42 16.535-2.563 5.446,2.021 9.643,6.126 11.599,11.601 .249.701 2.558,9.27.991,9.471 .416-.051-.554-6.32-.67-6.744-1.499-5.359-5.688-9.65-10.556-12.164-4.468-2.308-13.91-3.62-17.899.399" fill="#e8e8e8"/>
 <path d="m81.764,57.373c4.916-4.951 14.44-5.036 20.428-2.769 6.524,2.47 11.653,7.361 13.96,13.98 .854,2.451 1.384,5.064 1.433,7.666 .001.141-.271,3.117-.524,2.885-.296-.271.055-1.951.068-2.303 .073-2.029-.106-4.068-.601-6.043-1.655-6.617-6.82-11.888-12.879-14.77-4.892-2.329-10.415-2.753-15.618-1.294-1.728.486-5.145,1.519-6.267,2.648" fill="#e8e8e8"/>
 <path d="m108.852,89.18c.034.033-3.641,2.105-3.877,2.209-3.101,1.334-6.525,1.859-9.875,1.387-10.878-1.529-18.327-11.193-17.553-21.9-2.94,16.379 18.521,30.395 31.307,18.305" fill="#e8e8e8"/>
 <path d="m96.784,93.822c-.746-.012-1.486-.066-2.222-.168 .736.108 1.476.162 2.222.168m-19.256-23.513c-.175-.174-.267,4.723-.216,5.051-.054-.77.632-4.641.216-5.051" fill="#e8e8e8"/>
</svg>
