<?xml version="1.0" encoding="UTF-8" standalone="no"?>
<svg
   xmlns:dc="http://purl.org/dc/elements/1.1/"
   xmlns:cc="http://creativecommons.org/ns#"
   xmlns:rdf="http://www.w3.org/1999/02/22-rdf-syntax-ns#"
   xmlns:svg="http://www.w3.org/2000/svg"
   xmlns="http://www.w3.org/2000/svg"
   xmlns:xlink="http://www.w3.org/1999/xlink"
   xmlns:sodipodi="http://sodipodi.sourceforge.net/DTD/sodipodi-0.dtd"
   xmlns:inkscape="http://www.inkscape.org/namespaces/inkscape"
   width="91.796982mm"
   height="49.567699mm"
   viewBox="0 0 325.2649 175.63357"
   id="svg4383"
   version="1.1"
   sodipodi:docname="off.svg"
   inkscape:version="0.92.2 (5c3e80d, 2017-08-06)">
  <sodipodi:namedview
     pagecolor="#ffffff"
     bordercolor="#666666"
     borderopacity="1"
     objecttolerance="10"
     gridtolerance="10"
     guidetolerance="10"
     inkscape:pageopacity="0"
     inkscape:pageshadow="2"
     inkscape:window-width="640"
     inkscape:window-height="480"
     id="namedview89"
     showgrid="false"
     inkscape:zoom="0.40284946"
     inkscape:cx="-90.138342"
     inkscape:cy="-34.464199"
     inkscape:window-x="0"
     inkscape:window-y="0"
     inkscape:window-maximized="0"
     inkscape:current-layer="svg4383"
     fit-margin-top="5"
     fit-margin-left="5"
     fit-margin-right="5"
     fit-margin-bottom="5" />
  <defs
     id="defs4385">
    <linearGradient
       id="linearGradient5228">
      <stop
         style="stop-color:#ffffff;stop-opacity:1;"
         offset="0"
         id="stop5230" />
    </linearGradient>
    <linearGradient
       id="linearGradient5216">
      <stop
         style="stop-color:#880000;stop-opacity:1"
         offset="0"
         id="stop5218" />
      <stop
         style="stop-color:#ff9191;stop-opacity:1"
         offset="1"
         id="stop5220" />
    </linearGradient>
    <linearGradient
       id="linearGradient5178">
      <stop
         id="stop5180"
         offset="0"
         style="stop-color:#d5d5d5;stop-opacity:1" />
      <stop
         id="stop5182"
         offset="1"
         style="stop-color:#a4a4a4;stop-opacity:1" />
    </linearGradient>
    <filter
       style="color-interpolation-filters:sRGB"
       id="filter5027"
       x="-0.108"
       width="1.216"
       y="-0.108"
       height="1.216">
      <feGaussianBlur
         stdDeviation="15.44243"
         id="feGaussianBlur5029" />
    </filter>
    <filter
       style="color-interpolation-filters:sRGB"
       id="filter5168"
       x="-0.082692482"
       width="1.165385"
       y="-0.15562941"
       height="1.3112588">
      <feGaussianBlur
         stdDeviation="16.48927"
         id="feGaussianBlur5170" />
    </filter>
    <linearGradient
       xlink:href="#linearGradient5216"
       id="linearGradient5360"
       gradientUnits="userSpaceOnUse"
       gradientTransform="matrix(0.37065733,0,0,0.37065733,401.07246,-751.69814)"
       x1="276.72198"
       y1="82.208237"
       x2="276.72198"
       y2="425.37335" />
    <linearGradient
       xlink:href="#linearGradient5216"
       id="linearGradient5362"
       gradientUnits="userSpaceOnUse"
       gradientTransform="matrix(0.37065733,0,0,0.37065733,401.07246,-751.69814)"
       x1="276.72198"
       y1="406.30859"
       x2="276.72198"
       y2="101.27296" />
    <linearGradient
       xlink:href="#linearGradient5228"
       id="linearGradient5364"
       gradientUnits="userSpaceOnUse"
       gradientTransform="matrix(0.74131465,0,0,0.74131465,319.52785,494.90652)"
       x1="213.40952"
       y1="131.64185"
       x2="213.40952"
       y2="297.85263" />
    <clipPath
       clipPathUnits="userSpaceOnUse"
       id="clipPath5406">
      <path
         id="path5408"
         d="m 248.36109,124.94295 a 94.561045,94.561045 0 0 0 -94.56045,94.56046 94.561045,94.561045 0 0 0 94.56045,94.56368 h 201.8491 a 94.561045,94.561045 0 0 0 94.56046,-94.56368 94.561045,94.561045 0 0 0 -94.56046,-94.56046 z"
         style="opacity:1;fill:#000000;fill-opacity:0.2713568;stroke:none;stroke-width:1.89999998;stroke-miterlimit:4;stroke-dasharray:none;stroke-opacity:1"
         inkscape:connector-curvature="0" />
    </clipPath>
    <clipPath
       clipPathUnits="userSpaceOnUse"
       id="clipPath5542">
      <path
         id="path5544"
         d="M 276.72334,-64.667422 A 189.12209,189.12209 0 0 1 87.602437,-253.78833 189.12209,189.12209 0 0 1 276.72334,-442.91569 h 403.69819 a 189.12209,189.12209 0 0 1 189.12094,189.12736 189.12209,189.12209 0 0 1 -189.12094,189.120908 z"
         style="opacity:1;fill:#000000;fill-opacity:0.2713568;stroke:none;stroke-width:1.89999998;stroke-miterlimit:4;stroke-dasharray:none;stroke-opacity:1"
         inkscape:connector-curvature="0" />
    </clipPath>
    <linearGradient
       xlink:href="#linearGradient5178"
       id="linearGradient5633"
       x1="568.54297"
       y1="587.52991"
       x2="568.54297"
       y2="727.72925"
       gradientUnits="userSpaceOnUse" />
  </defs>
  <metadata
     id="metadata4388">
    <rdf:RDF>
      <cc:Work
         rdf:about="">
        <dc:format>image/svg+xml</dc:format>
        <dc:type
           rdf:resource="http://purl.org/dc/dcmitype/StillImage" />
        <dc:title></dc:title>
      </cc:Work>
    </rdf:RDF>
  </metadata>
  <g
     id="g5651"
     transform="translate(-415.82641,-569.81223)">
    <path
       inkscape:connector-curvature="0"
       style="opacity:1;fill:url(#linearGradient5633);fill-opacity:1;stroke:none;stroke-width:1.89999998;stroke-miterlimit:4;stroke-dasharray:none;stroke-opacity:1"
       d="m 503.642,587.52877 a 70.099488,70.099488 0 0 0 -70.09905,70.09905 70.099488,70.099488 0 0 0 70.09905,70.10144 h 149.63369 a 70.099488,70.099488 0 0 0 70.09906,-70.10144 70.099488,70.099488 0 0 0 -70.09906,-70.09905 z"
       id="path5326" />
    <path
       inkscape:connector-curvature="0"
       transform="matrix(0.74131465,0,0,0.74131465,319.52828,494.90673)"
       clip-path="url(#clipPath5406)"
       style="opacity:0.5;fill:#000000;fill-opacity:1;stroke:none;stroke-width:1.89999998;stroke-miterlimit:4;stroke-dasharray:none;stroke-opacity:1;filter:url(#filter5168)"
       d="M 110,92.362448 V 346.6476 H 215.71386 482.85742 588.57129 V 92.362448 H 482.85742 215.71386 Z m 138.36133,32.582032 h 201.84863 a 94.561045,94.561045 0 0 1 94.56152,94.56055 94.561045,94.561045 0 0 1 -94.56152,94.56152 H 248.36133 a 94.561045,94.561045 0 0 1 -94.56153,-94.56152 94.561045,94.561045 0 0 1 94.56153,-94.56055 z"
       id="path5328" />
    <g
       id="g5639">
      <circle
         clip-path="url(#clipPath5542)"
         transform="matrix(0.37065733,0,0,-0.37065733,401.07246,563.55932)"
         cx="276.72198"
         cy="-253.79079"
         r="171.58255"
         style="opacity:1;fill:#000000;fill-opacity:1;stroke:none;stroke-width:1.89999998;stroke-miterlimit:4;stroke-dasharray:none;stroke-opacity:1;filter:url(#filter5027)"
         id="circle5332" />
      <circle
         id="circle5334"
         style="opacity:1;fill:url(#linearGradient5360);fill-opacity:1;stroke:none;stroke-width:1.89999998;stroke-miterlimit:4;stroke-dasharray:none;stroke-opacity:1"
         cy="-657.62878"
         cx="503.64151"
         transform="scale(1,-1)"
         r="63.598331" />
      <circle
         style="opacity:1;fill:url(#linearGradient5362);fill-opacity:1;stroke:none;stroke-width:1.89999998;stroke-miterlimit:4;stroke-dasharray:none;stroke-opacity:1"
         id="circle5336"
         cx="503.64151"
         cy="-657.62878"
         transform="scale(1,-1)"
         r="56.531845" />
      <path
         inkscape:connector-curvature="0"
         style="opacity:0.47000002;fill:url(#linearGradient5364);fill-opacity:1;stroke:none;stroke-width:1.89999998;stroke-miterlimit:4;stroke-dasharray:none;stroke-opacity:1"
         d="m 503.64174,594.02985 a 63.598327,63.598327 0 0 0 -63.5243,61.53201 106.69636,53.215802 0 0 0 7.00485,2.34123 56.531849,56.531849 0 0 1 -0.0131,-0.27366 56.531849,56.531849 0 0 1 56.53248,-56.53248 56.531849,56.531849 0 0 1 56.53103,56.53248 56.531849,56.531849 0 0 1 -0.009,0.25193 106.69636,53.215802 0 0 0 6.973,-2.30357 63.598327,63.598327 0 0 0 -63.49533,-61.54794 z"
         id="path5338" />
    </g>
  </g>
</svg>
