<?xml version="1.0" encoding="UTF-8" standalone="no"?>
<svg
   xmlns:dc="http://purl.org/dc/elements/1.1/"
   xmlns:cc="http://creativecommons.org/ns#"
   xmlns:rdf="http://www.w3.org/1999/02/22-rdf-syntax-ns#"
   xmlns:svg="http://www.w3.org/2000/svg"
   xmlns="http://www.w3.org/2000/svg"
   xmlns:sodipodi="http://sodipodi.sourceforge.net/DTD/sodipodi-0.dtd"
   xmlns:inkscape="http://www.inkscape.org/namespaces/inkscape"
   width="91.44mm"
   height="91.44mm"
   version="1.1"
   style="shape-rendering:geometricPrecision; text-rendering:geometricPrecision; image-rendering:optimizeQuality; fill-rule:evenodd; clip-rule:evenodd"
   viewBox="0 0 9144 9144"
   id="svg47"
   sodipodi:docname="user.svg"
   inkscape:version="0.92.2 (5c3e80d, 2017-08-06)">
  <metadata
     id="metadata51">
    <rdf:RDF>
      <cc:Work
         rdf:about="">
        <dc:format>image/svg+xml</dc:format>
        <dc:type
           rdf:resource="http://purl.org/dc/dcmitype/StillImage" />
      </cc:Work>
    </rdf:RDF>
  </metadata>
  <sodipodi:namedview
     pagecolor="#ffffff"
     bordercolor="#666666"
     borderopacity="1"
     objecttolerance="10"
     gridtolerance="10"
     guidetolerance="10"
     inkscape:pageopacity="0"
     inkscape:pageshadow="2"
     inkscape:window-width="1366"
     inkscape:window-height="706"
     id="namedview49"
     showgrid="false"
     inkscape:zoom="0.68287035"
     inkscape:cx="147.17289"
     inkscape:cy="172.8"
     inkscape:window-x="-8"
     inkscape:window-y="-8"
     inkscape:window-maximized="1"
     inkscape:current-layer="svg47" />
  <defs
     id="defs4">
    <style
       type="text/css"
       id="style2">  .fil0 {fill:#011627} .fil2 {fill:#F0F0F0} .fil3 {fill:#011627;fill-rule:nonzero} .fil1 {fill:#011627;fill-opacity:0.501961}  </style>
  </defs>
  <rect
     class="fil0"
     x="8882"
     y="7755"
     width="16.93"
     height="16.940001"
     id="rect7"
     style="fill:#011627" />
  <polygon
     class="fil1"
     points="8882,7755 8873,7755 8873,7772 8882,7772 "
     id="polygon9"
     style="fill:#011627;fill-opacity:0.50196078" />
  <polygon
     class="fil1"
     points="8907,7755 8898,7755 8898,7772 8907,7772 "
     id="polygon11"
     style="fill:#011627;fill-opacity:0.50196078" />
  <polygon
     class="fil1"
     points="8882,7772 8882,7781 8898,7781 8898,7772 "
     id="polygon13"
     style="fill:#011627;fill-opacity:0.50196078" />
  <polygon
     class="fil1"
     points="8882,7747 8882,7755 8898,7755 8898,7747 "
     id="polygon15"
     style="fill:#011627;fill-opacity:0.50196078" />
  <rect
     class="fil0"
     x="8882"
     y="7696"
     width="16.93"
     height="16.940001"
     id="rect17"
     style="fill:#011627" />
  <rect
     class="fil0"
     x="8865"
     y="7705"
     width="16.93"
     height="16.940001"
     id="rect19"
     style="fill:#011627" />
  <rect
     class="fil0"
     x="8848"
     y="7713"
     width="16.93"
     height="16.940001"
     id="rect21"
     style="fill:#011627" />
  <rect
     class="fil0"
     x="8898"
     y="7705"
     width="16.93"
     height="16.940001"
     id="rect23"
     style="fill:#011627" />
  <rect
     class="fil0"
     x="8915"
     y="7713"
     width="16.93"
     height="16.940001"
     id="rect25"
     style="fill:#011627" />
  <rect
     class="fil0"
     x="8882"
     y="7645"
     width="16.93"
     height="16.940001"
     id="rect27"
     style="fill:#011627" />
  <rect
     class="fil0"
     x="8865"
     y="7654"
     width="16.93"
     height="16.940001"
     id="rect29"
     style="fill:#011627" />
  <rect
     class="fil0"
     x="8848"
     y="7662"
     width="16.93"
     height="16.940001"
     id="rect31"
     style="fill:#011627" />
  <rect
     class="fil0"
     x="8898"
     y="7654"
     width="16.93"
     height="16.940001"
     id="rect33"
     style="fill:#011627" />
  <rect
     class="fil0"
     x="8915"
     y="7662"
     width="16.93"
     height="16.940001"
     id="rect35"
     style="fill:#011627" />
  <rect
     class="fil0"
     x="8932"
     y="7671"
     width="16.93"
     height="16.940001"
     id="rect37"
     style="fill:#011627" />
  <rect
     class="fil0"
     x="8831"
     y="7671"
     width="16.93"
     height="16.940001"
     id="rect39"
     style="fill:#011627" />
  <path
     class="fil3"
     d="M 5689.8762,7939.3729 H 1339.0166 c -73.3034,0 -134.3895,-59.559 -134.3895,-134.3895 0,-859.7873 82.4663,-1375.9651 476.4718,-1769.9706 371.0983,-372.6254 1007.9212,-609.3341 2112.0529,-908.6562 v -241.2902 c -368.0439,-190.8941 -644.4586,-649.0401 -772.7395,-1178.9623 -79.412,-326.8108 -103.8464,-684.1646 -58.0318,-1021.6655 45.8146,-343.6095 164.9325,-668.8931 369.5711,-928.5092 C 3596.1491,1423.01 4000.8447,1204.6271 4572,1204.6271 c 571.1553,0 975.8509,218.3829 1240.0484,551.3023 204.6386,259.6161 323.7565,584.8997 369.5711,928.5092 45.8146,337.5009 21.3802,694.8547 -58.0318,1021.6655 -128.2809,529.9222 -404.6956,988.0682 -772.7395,1178.9623 v 241.2902 c 1104.1317,299.3221 1740.9546,536.0308 2112.0529,908.6562 394.0055,394.0055 476.4718,910.1833 476.4718,1769.9706 0,74.8305 -61.0861,134.3895 -134.3895,134.3895 z m -4214.943,-268.779 h 6194.1336 c -7.6358,-705.5448 -87.0478,-1137.7291 -397.0599,-1446.2141 -339.028,-340.5552 -968.2151,-565.0467 -2083.037,-864.3687 -61.0861,-12.2173 -106.9007,-65.6676 -106.9007,-131.3352 v -429.1301 c 0,-53.4503 32.0702,-105.3735 85.5206,-125.2265 323.7564,-126.7538 575.7367,-540.6123 694.8547,-1030.8285 71.7762,-296.2677 94.6835,-618.497 53.4504,-923.9277 -39.706,-297.7949 -140.4981,-577.2639 -314.5936,-795.6468 C 5385.9727,1652.083 5051.5261,1473.4061 4572,1473.4061 c -479.5261,0 -813.9727,178.6769 -1029.3013,450.5102 -174.0955,218.3829 -274.8876,497.8519 -314.5936,795.6468 -41.2331,305.4307 -18.3258,627.66 53.4504,923.9277 117.5908,487.1619 368.0439,897.9661 688.7461,1027.7742 53.4504,18.3258 91.6292,68.7219 91.6292,128.2808 v 429.1301 c 0,59.559 -39.706,114.5365 -99.2649,129.808 -1119.4034,300.8492 -1750.1177,525.3407 -2090.6728,865.8959 -310.0121,308.485 -389.4241,740.6693 -397.0599,1446.2141 z"
     id="path43"
     inkscape:connector-curvature="0"
     style="fill:#011627;fill-rule:nonzero;stroke-width:1.52715325" />
</svg>
