<?xml version="1.0" encoding="UTF-8" standalone="no"?>
<svg xmlns="http://www.w3.org/2000/svg" version="1.1" viewBox="0 0 15 15" width="16" height="16">
    <defs>
        <linearGradient id="linearGradient1" x1="3" y1="3" x2="11" y2="11" gradientUnits="userSpaceOnUse" >
            <stop style="stop-color:#e0696a;stop-opacity:1" offset="0"/>
            <stop style="stop-color:#c45034;stop-opacity:1" offset="1" />
        </linearGradient>
        <linearGradient id="linearGradient2" x1="6" y1="6" x2="8" y2="8" gradientUnits="userSpaceOnUse" >
            <stop style="stop-color:#fa9a87;stop-opacity:1" offset="0"/>
            <stop style="stop-color:#e65a52;stop-opacity:1" offset="1" />
        </linearGradient>
    </defs>
    <g>
        <path
            style="fill:url(#linearGradient1);fill-opacity:1;fill-rule:evenodd;stroke:url(#linearGradient1);stroke-width:1;stroke-linecap:round;stroke-linejoin:round;stroke-miterlimit:4;stroke-dasharray:none;stroke-opacity:1;paint-order:normal"
            d="m 1,7.5 a 6.5,6.5 0 1,0 13,0 a 6.5,6.5 0 1,0 -13,0"
        />
        <path
            style="fill:#fabaae;fill-opacity:1;fill-rule:evenodd;stroke:#fabaae;stroke-width:1;stroke-linecap:round;stroke-linejoin:round;stroke-miterlimit:4;stroke-dasharray:none;stroke-opacity:1;paint-order:normal"
            d="m 2.25,7.5 a 5.25,5.25 0 1,0 10.5,0 a 5.25,5.25 0 1,0 -10.5,0"
        />
        <path
            style="fill:url(#linearGradient2);fill-opacity:1;fill-rule:evenodd;stroke:url(#linearGradient2);stroke-width:1;stroke-linecap:round;stroke-linejoin:round;stroke-miterlimit:4;stroke-dasharray:none;stroke-opacity:1;paint-order:normal"
            d="m 3.5,7.5 a 4,4 0 1,0 8,0 a 4,4 0 1,0 -8,0"
        />
        <path
            style="fill:none;stroke:#ffffff;stroke-width:2;stroke-opacity:1;paint-order:normal"
            d="m 4.5,7.5 h 6"
        />
    </g>
</svg>
