<?xml version="1.0" encoding="UTF-8" standalone="no"?>
<svg xmlns="http://www.w3.org/2000/svg" version="1.1" viewBox="0 0 15 15" width="16" height="16">
    <defs>
        <linearGradient id="linearGradient1" x1="50%" y1="100%" x2="50%" y2="0%" gradientUnits="userSpaceOnUse" >
            <stop style="stop-color:#d6a256;stop-opacity:1" offset="0"/>
            <stop style="stop-color:#e4dbcd;stop-opacity:1" offset="1" />
        </linearGradient>
        <linearGradient id="linearGradient2" x1="0%" y1="50%" x2="100%" y2="50%" gradientUnits="userSpaceOnUse" >
            <stop style="stop-color:#3c7ba0;stop-opacity:1" offset="0"/>
            <stop style="stop-color:#70c777;stop-opacity:1" offset="1" />
        </linearGradient>
        <linearGradient id="linearGradient3" x1="10.5" y1="6" x2="11.5" y2="6" gradientUnits="userSpaceOnUse" >
            <stop style="stop-color:#90ab8d;stop-opacity:0" offset="0"/>
            <stop style="stop-color:#90ab8d;stop-opacity:1" offset="1" />
        </linearGradient>
        <radialGradient id="radialGradient1" cx="15%" cy="40%" r="30%" fx="0%" fy="0%" gradientUnits="userSpaceOnUse" >
            <stop style="stop-color:#77ce63;stop-opacity:1" offset="0"/>
            <stop style="stop-color:#cbedc9;stop-opacity:1" offset="1" />
        </radialGradient>
    </defs>
    <g>
        <path
            style="fill:url(#linearGradient1);fill-opacity:1;fill-rule:evenodd;stroke:#87581d;stroke-width:1;stroke-linecap:round;stroke-linejoin:round;stroke-miterlimit:1;stroke-dasharray:none;stroke-opacity:1;paint-order:normal"
            d="m 8.5,14.2 l 1.95,-13.2 h 3 l -1.95,13.2 a 4,4 0 0,1 -3,0 z"
        />
        <path
            style="fill:url(#linearGradient1);fill-opacity:1;fill-rule:evenodd;stroke:#87581d;stroke-width:1;stroke-linecap:round;stroke-linejoin:round;stroke-miterlimit:1;stroke-dasharray:none;stroke-opacity:1;paint-order:normal"
            d="m 10.5,0.8 a 4,4 0 0,1 3,0 4,4 0 0,1 -3,0z"
        />
        <path
            style="fill:url(#radialGradient1);fill-opacity:1;fill-rule:evenodd;stroke:url(#linearGradient2);stroke-width:1;stroke-linecap:round;stroke-linejoin:round;stroke-miterlimit:1;stroke-dasharray:none;stroke-opacity:1;paint-order:normal"
            d="m 0.5,10 l 1,-6.5 c 7,0.5 2,-4 10,-2 l -1,6.5 c -7,-1.5 -2,3 -10,2 z"
        />
        <path
            style="fill:none;stroke:url(#linearGradient3);stroke-width:1;stroke-linecap:square;stroke-linejoin:square;stroke-miterlimit:1;stroke-dasharray:none;stroke-opacity:1;paint-order:normal"
            d="m 10.5,8 l 1,-6.5"
        />
    </g>
</svg>
