<?xml version="1.0" encoding="UTF-8" standalone="no"?>
<svg xmlns="http://www.w3.org/2000/svg" version="1.1" viewBox="0 0 15 15" width="16" height="16">
    <defs>
        <linearGradient id="linearGradient1" x1="8" y1="13" x2="8" y2="7" gradientUnits="userSpaceOnUse" >
            <stop style="stop-color:#3b3b8f;stop-opacity:1" offset="0"/>
            <stop style="stop-color:#8185b7;stop-opacity:1" offset="1" />
        </linearGradient>
        <linearGradient id="linearGradient2" x1="5" y1="2" x2="8" y2="0" gradientUnits="userSpaceOnUse" >
            <stop style="stop-color:#744c20;stop-opacity:1" offset="0"/>
            <stop style="stop-color:#9a6609;stop-opacity:1" offset="1" />
        </linearGradient>
        <linearGradient id="linearGradient3" x1="7" y1="3" x2="9" y2="0" gradientUnits="userSpaceOnUse" >
            <stop style="stop-color:#744c20;stop-opacity:1" offset="0"/>
            <stop style="stop-color:#9a6609;stop-opacity:1" offset="1" />
        </linearGradient>
        <linearGradient id="linearGradient4" x1="3" y1="15" x2="6" y2="8" gradientUnits="userSpaceOnUse" >
            <stop style="stop-color:#165711;stop-opacity:1" offset="0"/>
            <stop style="stop-color:#4f7c5d;stop-opacity:1" offset="1" />
        </linearGradient>
        <linearGradient id="linearGradient5" x1="4" y1="14" x2="5" y2="9" gradientUnits="userSpaceOnUse" >
            <stop style="stop-color:#48bd06;stop-opacity:1" offset="0"/>
            <stop style="stop-color:#89ea37;stop-opacity:1" offset="1" />
        </linearGradient>
        <radialGradient id="radialGradient1" cx="80%" cy="40%" r="100%" fx="60%" fy="30%">
            <stop style="stop-color:#e3e0ee;stop-opacity:1" offset="0"/>
            <stop style="stop-color:#61639c;stop-opacity:1" offset="1"/>
        </radialGradient>
        <radialGradient id="radialGradient2" cx="50%" cy="80%" r="70%" fx="50%" fy="50%">
            <stop style="stop-color:#fed193;stop-opacity:1" offset="0"/>
            <stop style="stop-color:#f1dab7;stop-opacity:1" offset="1"/>
        </radialGradient>
    </defs>
    <g>
        <path
            style="fill:url(#radialGradient1);fill-opacity:1;fill-rule:evenodd;stroke:url(#linearGradient1);stroke-width:1;stroke-linecap:round;stroke-linejoin:round;stroke-miterlimit:1;stroke-dasharray:none;stroke-opacity:1;paint-order:normal"
            d="m 3.5,12.5 l -1,-1 v -1 a 10,10 0 0,1 4.5,-3.5 v -0.5 h 3 v 0.5 a 10,10 0 0,1 4.5,3.5 v 1 l -1,1 z"
        />
        <path
            style="fill:url(#linearGradient2);fill-opacity:1;fill-rule:evenodd;stroke:url(#linearGradient2);stroke-width:0.8;stroke-linecap:round;stroke-linejoin:round;stroke-miterlimit:1;stroke-dasharray:none;stroke-opacity:1;paint-order:normal"
            d="m 5.5,2 a 1,1 0 0,0 0,0.5 a 4,4 0 0,1 0.7,2 h 4.6 a 4,4 0 0,1 0.5,-2 a 1,1 0 0,0 0,-0.5 a 3,3 0 0,0 -3.8,-1.4 a 5,5 0 0,1 -2,1.4"
        />
        <path
            style="fill:url(#radialGradient2);fill-opacity:1;fill-rule:evenodd;stroke:none;paint-order:normal"
            d="m 6.5,2 a 3,3 0 0,1 4,0 a 6,6 0 0,1 -0.8,4.5 a 1.6,1.6 0 0,1 -2.4,0 a 6,6 0 0,1 -0.8,-4.5 z"
        />
        <path
            style="fill:url(#linearGradient3);fill-opacity:1;fill-rule:evenodd;stroke:url(#linearGradient3);stroke-width:0.8;stroke-linecap:round;stroke-linejoin:round;stroke-miterlimit:1;stroke-dasharray:none;stroke-opacity:1;paint-order:normal"
            d="m 7.4,0.8 a 3,3 0 0,0 4,2.2 a 1,1 0 0,0 0,-0.3 a 3,3 0 0,0 -3.6,-2.1"
        />
        <path
            style="fill:url(#linearGradient5);fill-opacity:1;fill-rule:evenodd;stroke:url(#linearGradient4);stroke-width:1;stroke-linecap:round;stroke-linejoin:round;stroke-miterlimit:1;stroke-dasharray:none;stroke-opacity:1;paint-order:normal"
            d="m 3,14.5 v -2 h -2 v -2.5 h 2 v -2 h 2.5 v 2 h 2 v 2.5 h -2 v 2 z"
        />
    </g>
</svg>
