<?xml version="1.0" encoding="UTF-8" standalone="no"?>
<!-- Created with Inkscape (http://www.inkscape.org/) -->
<svg
   xmlns:dc="http://purl.org/dc/elements/1.1/"
   xmlns:cc="http://creativecommons.org/ns#"
   xmlns:rdf="http://www.w3.org/1999/02/22-rdf-syntax-ns#"
   xmlns:svg="http://www.w3.org/2000/svg"
   xmlns="http://www.w3.org/2000/svg"
   xmlns:xlink="http://www.w3.org/1999/xlink"
   xmlns:sodipodi="http://sodipodi.sourceforge.net/DTD/sodipodi-0.dtd"
   xmlns:inkscape="http://www.inkscape.org/namespaces/inkscape"
   inkscape:export-ydpi="30"
   inkscape:export-xdpi="30"
   inkscape:export-filename="/home/garrett/edit-find-replace-16.png"
   sodipodi:docname="new-entry.svg"
   sodipodi:docbase="/home/jimmac/src/cvs/tango-icon-theme/scalable/actions"
   inkscape:version="0.46"
   sodipodi:version="0.32"
   id="svg249"
   height="48.000000px"
   width="48.000000px"
   inkscape:output_extension="org.inkscape.output.svg.inkscape">
  <defs
     id="defs3">
    <linearGradient
       id="linearGradient19200">
      <stop
         style="stop-color:#ffffff;stop-opacity:1;"
         offset="0"
         id="stop19202" />
      <stop
         id="stop19208"
         offset="0.5"
         style="stop-color:#898989;stop-opacity:1;" />
      <stop
         style="stop-color:#ffffff;stop-opacity:1;"
         offset="1"
         id="stop19204" />
    </linearGradient>
    <linearGradient
       id="linearGradient12512">
      <stop
         id="stop12513"
         offset="0.0000000"
         style="stop-color:#ffffff;stop-opacity:1.0000000;" />
      <stop
         id="stop12517"
         offset="0.50000000"
         style="stop-color:#fff520;stop-opacity:0.89108908;" />
      <stop
         id="stop12514"
         offset="1.0000000"
         style="stop-color:#fff300;stop-opacity:0.0000000;" />
    </linearGradient>
    <radialGradient
       inkscape:collect="always"
       xlink:href="#linearGradient12512"
       id="radialGradient1558"
       gradientUnits="userSpaceOnUse"
       cx="55.000000"
       cy="125.00000"
       fx="55.000000"
       fy="125.00000"
       r="14.375000" />
    <inkscape:perspective
       sodipodi:type="inkscape:persp3d"
       inkscape:vp_x="0 : 24 : 1"
       inkscape:vp_y="0 : 1000 : 0"
       inkscape:vp_z="48 : 24 : 1"
       inkscape:persp3d-origin="24 : 16 : 1"
       id="perspective144" />
    <radialGradient
       inkscape:collect="always"
       xlink:href="#linearGradient5060"
       id="radialGradient5031"
       gradientUnits="userSpaceOnUse"
       gradientTransform="matrix(-2.774389,0,0,1.969706,112.7623,-872.8854)"
       cx="605.71429"
       cy="486.64789"
       fx="605.71429"
       fy="486.64789"
       r="117.14286" />
    <linearGradient
       inkscape:collect="always"
       id="linearGradient5060">
      <stop
         style="stop-color:black;stop-opacity:1;"
         offset="0"
         id="stop5062" />
      <stop
         style="stop-color:black;stop-opacity:0;"
         offset="1"
         id="stop5064" />
    </linearGradient>
    <radialGradient
       inkscape:collect="always"
       xlink:href="#linearGradient5060"
       id="radialGradient5029"
       gradientUnits="userSpaceOnUse"
       gradientTransform="matrix(2.774389,0,0,1.969706,-1891.633,-872.8854)"
       cx="605.71429"
       cy="486.64789"
       fx="605.71429"
       fy="486.64789"
       r="117.14286" />
    <linearGradient
       id="linearGradient5048">
      <stop
         style="stop-color:black;stop-opacity:0;"
         offset="0"
         id="stop5050" />
      <stop
         id="stop5056"
         offset="0.5"
         style="stop-color:black;stop-opacity:1;" />
      <stop
         style="stop-color:black;stop-opacity:0;"
         offset="1"
         id="stop5052" />
    </linearGradient>
    <linearGradient
       inkscape:collect="always"
       xlink:href="#linearGradient5048"
       id="linearGradient5027"
       gradientUnits="userSpaceOnUse"
       gradientTransform="matrix(2.774389,0,0,1.969706,-1892.179,-872.8854)"
       x1="302.85715"
       y1="366.64789"
       x2="302.85715"
       y2="609.50507" />
    <linearGradient
       inkscape:collect="always"
       id="linearGradient4542">
      <stop
         style="stop-color:#000000;stop-opacity:1;"
         offset="0"
         id="stop4544" />
      <stop
         style="stop-color:#000000;stop-opacity:0;"
         offset="1"
         id="stop4546" />
    </linearGradient>
    <linearGradient
       id="linearGradient15662">
      <stop
         id="stop15664"
         offset="0.0000000"
         style="stop-color:#ffffff;stop-opacity:1.0000000;" />
      <stop
         id="stop15666"
         offset="1.0000000"
         style="stop-color:#f8f8f8;stop-opacity:1.0000000;" />
    </linearGradient>
    <radialGradient
       id="aigrd3"
       cx="20.8921"
       cy="64.5679"
       r="5.257"
       fx="20.8921"
       fy="64.5679"
       gradientUnits="userSpaceOnUse">
      <stop
         offset="0"
         style="stop-color:#F0F0F0"
         id="stop15573" />
      <stop
         offset="1.0000000"
         style="stop-color:#9a9a9a;stop-opacity:1.0000000;"
         id="stop15575" />
    </radialGradient>
    <radialGradient
       id="aigrd2"
       cx="20.8921"
       cy="114.5684"
       r="5.256"
       fx="20.8921"
       fy="114.5684"
       gradientUnits="userSpaceOnUse">
      <stop
         offset="0"
         style="stop-color:#F0F0F0"
         id="stop15566" />
      <stop
         offset="1.0000000"
         style="stop-color:#9a9a9a;stop-opacity:1.0000000;"
         id="stop15568" />
    </radialGradient>
    <linearGradient
       id="linearGradient269">
      <stop
         id="stop270"
         offset="0.0000000"
         style="stop-color:#a3a3a3;stop-opacity:1.0000000;" />
      <stop
         id="stop271"
         offset="1.0000000"
         style="stop-color:#4c4c4c;stop-opacity:1.0000000;" />
    </linearGradient>
    <linearGradient
       id="linearGradient259">
      <stop
         id="stop260"
         offset="0.0000000"
         style="stop-color:#fafafa;stop-opacity:1.0000000;" />
      <stop
         id="stop261"
         offset="1.0000000"
         style="stop-color:#bbbbbb;stop-opacity:1.0000000;" />
    </linearGradient>
    <radialGradient
       inkscape:collect="always"
       xlink:href="#linearGradient4542"
       id="radialGradient4548"
       cx="24.306795"
       cy="42.07798"
       fx="24.306795"
       fy="42.07798"
       r="15.821514"
       gradientTransform="matrix(1.000000,0.000000,0.000000,0.284916,0.000000,30.08928)"
       gradientUnits="userSpaceOnUse" />
    <linearGradient
       id="linearGradient4440">
      <stop
         id="stop4442"
         offset="0"
         style="stop-color:#7d7d7d;stop-opacity:1;" />
      <stop
         style="stop-color:#b1b1b1;stop-opacity:1.0000000;"
         offset="0.50000000"
         id="stop4448" />
      <stop
         id="stop4444"
         offset="1.0000000"
         style="stop-color:#686868;stop-opacity:1.0000000;" />
    </linearGradient>
    <linearGradient
       id="linearGradient4454">
      <stop
         id="stop4456"
         offset="0.0000000"
         style="stop-color:#729fcf;stop-opacity:0.20784314;" />
      <stop
         id="stop4458"
         offset="1.0000000"
         style="stop-color:#729fcf;stop-opacity:0.67619050;" />
    </linearGradient>
    <linearGradient
       id="linearGradient4467">
      <stop
         id="stop4469"
         offset="0"
         style="stop-color:#ffffff;stop-opacity:1;" />
      <stop
         id="stop4471"
         offset="1.0000000"
         style="stop-color:#ffffff;stop-opacity:0.24761905;" />
    </linearGradient>
    <linearGradient
       id="linearGradient2366">
      <stop
         style="stop-color:#ffffff;stop-opacity:1;"
         offset="0"
         id="stop2368" />
      <stop
         id="stop2374"
         offset="0.50000000"
         style="stop-color:#ffffff;stop-opacity:0.21904762;" />
      <stop
         style="stop-color:#ffffff;stop-opacity:1.0000000;"
         offset="1.0000000"
         id="stop2370" />
    </linearGradient>
    <linearGradient
       id="linearGradient2846">
      <stop
         style="stop-color:#8a8a8a;stop-opacity:1.0000000;"
         offset="0.0000000"
         id="stop2848" />
      <stop
         style="stop-color:#484848;stop-opacity:1.0000000;"
         offset="1.0000000"
         id="stop2850" />
    </linearGradient>
    <linearGradient
       id="linearGradient2865"
       inkscape:collect="always">
      <stop
         id="stop2867"
         offset="0"
         style="stop-color:#000000;stop-opacity:1;" />
      <stop
         id="stop2869"
         offset="1"
         style="stop-color:#000000;stop-opacity:0;" />
    </linearGradient>
    <linearGradient
       id="linearGradient2966">
      <stop
         id="stop2968"
         offset="0"
         style="stop-color:#ffd1d1;stop-opacity:1;" />
      <stop
         style="stop-color:#ff1d1d;stop-opacity:1;"
         offset="0.5"
         id="stop3006" />
      <stop
         id="stop2970"
         offset="1"
         style="stop-color:#6f0000;stop-opacity:1;" />
    </linearGradient>
    <linearGradient
       id="linearGradient2974">
      <stop
         id="stop2976"
         offset="0"
         style="stop-color:#c1c1c1;stop-opacity:1;" />
      <stop
         id="stop2978"
         offset="1"
         style="stop-color:#acacac;stop-opacity:1;" />
    </linearGradient>
    <linearGradient
       id="linearGradient2984"
       inkscape:collect="always">
      <stop
         id="stop2986"
         offset="0"
         style="stop-color:#e7e2b8;stop-opacity:1;" />
      <stop
         id="stop2988"
         offset="1"
         style="stop-color:#e7e2b8;stop-opacity:0;" />
    </linearGradient>
    <linearGradient
       id="linearGradient2994">
      <stop
         id="stop2996"
         offset="0"
         style="stop-color:#000000;stop-opacity:1;" />
      <stop
         id="stop2998"
         offset="1"
         style="stop-color:#c9c9c9;stop-opacity:1;" />
    </linearGradient>
    <radialGradient
       inkscape:collect="always"
       xlink:href="#linearGradient2865"
       id="radialGradient2552"
       gradientUnits="userSpaceOnUse"
       gradientTransform="matrix(1,0,0,0.348243,-2.396518e-14,26.35543)"
       cx="23.5625"
       cy="40.4375"
       fx="23.5625"
       fy="40.4375"
       r="19.5625" />
    <linearGradient
       inkscape:collect="always"
       xlink:href="#linearGradient2966"
       id="linearGradient2554"
       gradientUnits="userSpaceOnUse"
       gradientTransform="translate(-5.669292,0)"
       x1="48.90625"
       y1="17.376184"
       x2="50.988335"
       y2="22.250591" />
    <linearGradient
       inkscape:collect="always"
       xlink:href="#linearGradient2974"
       id="linearGradient2556"
       gradientUnits="userSpaceOnUse"
       gradientTransform="translate(-5.669292,0)"
       x1="46"
       y1="19.8125"
       x2="47.6875"
       y2="22.625" />
    <radialGradient
       inkscape:collect="always"
       xlink:href="#linearGradient2984"
       id="radialGradient2558"
       gradientUnits="userSpaceOnUse"
       gradientTransform="matrix(2.923565,0,0,2.029717,-61.55532,-27.88417)"
       cx="29.053354"
       cy="27.640751"
       fx="29.053354"
       fy="27.640751"
       r="3.2408544" />
    <linearGradient
       inkscape:collect="always"
       xlink:href="#linearGradient2994"
       id="linearGradient2560"
       gradientUnits="userSpaceOnUse"
       gradientTransform="translate(-5.825542,0.125)"
       x1="25.71875"
       y1="31.046875"
       x2="25.514589"
       y2="30.703125" />
    <radialGradient
       inkscape:collect="always"
       xlink:href="#linearGradient15662"
       id="radialGradient4672"
       gradientUnits="userSpaceOnUse"
       gradientTransform="matrix(0.9717433,0,0,1.0347737,3.2383521,0.494169)"
       cx="8.1435566"
       cy="7.2678967"
       fx="8.1435566"
       fy="7.2678967"
       r="38.158695" />
    <radialGradient
       inkscape:collect="always"
       xlink:href="#linearGradient259"
       id="radialGradient4675"
       gradientUnits="userSpaceOnUse"
       gradientTransform="matrix(0.9639354,0,0,1.0431549,-0.12722,-0.153534)"
       cx="33.966679"
       cy="35.736916"
       fx="33.966679"
       fy="35.736916"
       r="86.708450" />
    <radialGradient
       inkscape:collect="always"
       xlink:href="#linearGradient269"
       id="radialGradient4677"
       gradientUnits="userSpaceOnUse"
       gradientTransform="matrix(0.9717433,0,0,1.0347737,3.2383521,0.494169)"
       cx="8.8244190"
       cy="3.7561285"
       fx="8.8244190"
       fy="3.7561285"
       r="37.751713" />
    <linearGradient
       gradientUnits="userSpaceOnUse"
       xlink:href="#linearGradient3106"
       id="linearGradient3113"
       y2="171.84894"
       x2="201.72363"
       y1="171.84894"
       x1="49.308136" />
    <mask
       id="mask3114">
      <g
         id="g3073">
        <rect
           id="rect3039"
           style="opacity: 1; fill: url(#linearGradient3120) rgb(0, 0, 0); fill-opacity: 1; fill-rule: nonzero; stroke: none; stroke-width: 15; stroke-linecap: round; stroke-linejoin: round; stroke-miterlimit: 4; stroke-dasharray: none; stroke-dashoffset: 0pt; stroke-opacity: 1;"
           y="198.07254"
           x="24.04163"
           height="33.941124"
           width="316.78384" />
        <rect
           id="rect3053"
           style="opacity: 1; fill: url(#linearGradient3122) rgb(0, 0, 0); fill-opacity: 1; fill-rule: nonzero; stroke: none; stroke-width: 15; stroke-linecap: round; stroke-linejoin: round; stroke-miterlimit: 4; stroke-dasharray: none; stroke-dashoffset: 0pt; stroke-opacity: 1;"
           y="144.25"
           x="24"
           height="59.75"
           width="41" />
        <rect
           id="rect3063"
           style="opacity: 1; fill: url(#linearGradient3124) rgb(0, 0, 0); fill-opacity: 1; fill-rule: nonzero; stroke: none; stroke-width: 15; stroke-linecap: round; stroke-linejoin: round; stroke-miterlimit: 4; stroke-dasharray: none; stroke-dashoffset: 0pt; stroke-opacity: 1;"
           y="118"
           x="58"
           height="78"
           width="313.5" />
      </g>
    </mask>
    <linearGradient
       gradientUnits="userSpaceOnUse"
       xlink:href="#linearGradient3065"
       id="linearGradient3124"
       y2="157"
       x2="371.5"
       y1="157"
       x1="58" />
    <linearGradient
       gradientTransform="translate(-0.5, 6.75)"
       gradientUnits="userSpaceOnUse"
       xlink:href="#linearGradient3055"
       id="linearGradient3122"
       y2="137.49948"
       x2="51.5"
       y1="197.3537"
       x1="51.5" />
    <linearGradient
       gradientUnits="userSpaceOnUse"
       xlink:href="#linearGradient3041"
       id="linearGradient3120"
       y2="215.04311"
       x2="340.82547"
       y1="215.04311"
       x1="24.04163" />
    <linearGradient
       gradientUnits="userSpaceOnUse"
       xlink:href="#linearGradient3065"
       id="linearGradient3112"
       y2="157"
       x2="371.5"
       y1="157"
       x1="58" />
    <linearGradient
       gradientTransform="translate(-0.5, 6.75)"
       gradientUnits="userSpaceOnUse"
       xlink:href="#linearGradient3055"
       id="linearGradient3110"
       y2="137.49948"
       x2="51.5"
       y1="197.3537"
       x1="51.5" />
    <linearGradient
       gradientUnits="userSpaceOnUse"
       xlink:href="#linearGradient3041"
       id="linearGradient3108"
       y2="215.04311"
       x2="340.82547"
       y1="215.04311"
       x1="24.04163" />
    <linearGradient
       gradientUnits="userSpaceOnUse"
       xlink:href="#linearGradient3065"
       id="linearGradient3088"
       y2="157"
       x2="371.5"
       y1="157"
       x1="58" />
    <linearGradient
       gradientTransform="translate(-0.5, 6.75)"
       gradientUnits="userSpaceOnUse"
       xlink:href="#linearGradient3055"
       id="linearGradient3086"
       y2="137.49948"
       x2="51.5"
       y1="197.3537"
       x1="51.5" />
    <linearGradient
       gradientUnits="userSpaceOnUse"
       xlink:href="#linearGradient3041"
       id="linearGradient3084"
       y2="215.04311"
       x2="340.82547"
       y1="215.04311"
       x1="24.04163" />
    <linearGradient
       gradientUnits="userSpaceOnUse"
       xlink:href="#linearGradient3065"
       id="linearGradient3071"
       y2="157"
       x2="371.5"
       y1="157"
       x1="58" />
    <linearGradient
       gradientTransform="translate(-0.5, 6.75)"
       gradientUnits="userSpaceOnUse"
       xlink:href="#linearGradient3055"
       id="linearGradient3061"
       y2="137.49948"
       x2="51.5"
       y1="197.3537"
       x1="51.5" />
    <linearGradient
       gradientTransform="translate(-218.932, -174.208)"
       gradientUnits="userSpaceOnUse"
       xlink:href="#linearGradient3041"
       id="linearGradient3051"
       y2="215.04311"
       x2="340.82547"
       y1="215.04311"
       x1="24.04163" />
    <linearGradient
       gradientUnits="userSpaceOnUse"
       xlink:href="#linearGradient3041"
       id="linearGradient3047"
       y2="215.04311"
       x2="340.82547"
       y1="215.04311"
       x1="24.04163" />
    <linearGradient
       gradientUnits="userSpaceOnUse"
       xlink:href="#linearGradient2889"
       id="linearGradient2895"
       y2="26.290426"
       x2="263.82959"
       y1="304.50995"
       x1="92.604424" />
    <mask
       id="mask2858">
      <path
         id="use2848"
         style="fill: rgb(232, 231, 254); fill-opacity: 1; fill-rule: evenodd; stroke: black; stroke-width: 3.125; stroke-linecap: butt; stroke-linejoin: miter; stroke-miterlimit: 4; stroke-dasharray: none; stroke-opacity: 1;"
         d="M 100,24 C 100,24 88.5,66.5 134,76 C 179.5,85.5 217,67 217,67 C 217,67 211,163.46447 196,192.46447 C 181,221.46447 141.5,254 118,254 C 94.5,254 76,238.5 70,223.5 C 64,208.5 60.5,128 71,102 C 78.202941,84.164147 73,78.5 82,49.5 C 87.643273,31.316121 100.5,23 100,24 z " />
    </mask>
    <mask
       id="mask2799">
      <path
         id="use2796"
         style="fill: rgb(232, 231, 254); fill-opacity: 1; fill-rule: evenodd; stroke: black; stroke-width: 3.125; stroke-linecap: butt; stroke-linejoin: round; stroke-miterlimit: 4; stroke-dasharray: none; stroke-opacity: 1;"
         d="M 168.99397,144.76334 C 168.99397,144.76334 214.49314,156.63269 246.14473,148.71979 C 277.79633,140.80689 309.44793,103.22062 309.44793,103.22062 C 309.44793,103.22062 344.06686,191.25162 348.02331,221.91411 C 351.97976,252.57659 350.00153,289.17375 327.25195,311.92334 C 304.50236,334.67292 255.67246,325.40751 232.29716,302.03221 C 218.4143,288.14936 204.60201,261.4786 192.73266,233.78346 C 180.86331,206.08831 168.00485,143.77423 168.99397,144.76334 z " />
    </mask>
    <linearGradient
       id="linearGradient2812">
      <stop
         id="stop2814"
         offset="0"
         style="stop-color: black; stop-opacity: 1;" />
      <stop
         id="stop2816"
         offset="1"
         style="stop-color: white; stop-opacity: 0;" />
    </linearGradient>
    <linearGradient
       id="linearGradient2889">
      <stop
         id="stop2891"
         offset="0"
         style="stop-color: rgb(160, 163, 225); stop-opacity: 1;" />
      <stop
         id="stop2893"
         offset="1"
         style="stop-color: rgb(222, 220, 250); stop-opacity: 1;" />
    </linearGradient>
    <linearGradient
       id="linearGradient3041">
      <stop
         id="stop3043"
         offset="0"
         style="stop-color: rgb(215, 215, 215); stop-opacity: 1;" />
      <stop
         id="stop3045"
         offset="1"
         style="stop-color: white; stop-opacity: 1;" />
    </linearGradient>
    <linearGradient
       id="linearGradient3055">
      <stop
         id="stop3057"
         offset="0"
         style="stop-color: rgb(215, 215, 215); stop-opacity: 1;" />
      <stop
         id="stop3059"
         offset="1"
         style="stop-color: rgb(200, 200, 200); stop-opacity: 1;" />
    </linearGradient>
    <linearGradient
       id="linearGradient3065">
      <stop
         id="stop3067"
         offset="0"
         style="stop-color: rgb(200, 200, 200); stop-opacity: 1;" />
      <stop
         id="stop3069"
         offset="1"
         style="stop-color: rgb(100, 100, 100); stop-opacity: 1;" />
    </linearGradient>
    <linearGradient
       id="linearGradient3106">
      <stop
         id="stop3108"
         offset="0"
         style="stop-color: rgb(150, 150, 150); stop-opacity: 1;" />
      <stop
         id="stop3115"
         offset="0.73214287"
         style="stop-color: white; stop-opacity: 1;" />
      <stop
         id="stop3110"
         offset="1"
         style="stop-color: rgb(200, 200, 200); stop-opacity: 1;" />
    </linearGradient>
    <inkscape:perspective
       id="perspective19366"
       inkscape:persp3d-origin="200 : 120 : 1"
       inkscape:vp_z="400 : 180 : 1"
       inkscape:vp_y="0 : 1000 : 0"
       inkscape:vp_x="0 : 180 : 1"
       sodipodi:type="inkscape:persp3d" />
    <linearGradient
       inkscape:collect="always"
       xlink:href="#linearGradient3106"
       id="linearGradient19435"
       gradientUnits="userSpaceOnUse"
       x1="49.308136"
       y1="171.84894"
       x2="201.72363"
       y2="171.84894" />
    <linearGradient
       inkscape:collect="always"
       xlink:href="#linearGradient2889"
       id="linearGradient19446"
       gradientUnits="userSpaceOnUse"
       x1="92.604424"
       y1="304.50995"
       x2="263.82959"
       y2="26.290426"
       gradientTransform="matrix(0.17511,-0.1077683,0.1077683,0.17511,45.910239,12.072836)" />
    <linearGradient
       inkscape:collect="always"
       xlink:href="#linearGradient3106"
       id="linearGradient19578"
       gradientUnits="userSpaceOnUse"
       x1="49.308136"
       y1="171.84894"
       x2="201.72363"
       y2="171.84894" />
  </defs>
  <sodipodi:namedview
     inkscape:window-y="123"
     inkscape:window-x="295"
     inkscape:window-height="779"
     inkscape:window-width="1365"
     inkscape:document-units="px"
     inkscape:grid-bbox="true"
     showgrid="true"
     inkscape:current-layer="layer5"
     inkscape:cy="34.034751"
     inkscape:cx="25.073138"
     inkscape:zoom="8"
     inkscape:pageshadow="2"
     inkscape:pageopacity="0.0"
     borderopacity="0.59607843"
     bordercolor="#434343"
     pagecolor="#ffffff"
     id="base"
     inkscape:showpageshadow="false"
     borderlayer="true" />
  <metadata
     id="metadata4">
    <rdf:RDF>
      <cc:Work
         rdf:about="">
        <dc:format>image/svg+xml</dc:format>
        <dc:type
           rdf:resource="http://purl.org/dc/dcmitype/StillImage" />
        <dc:title>Edit Find Replace</dc:title>
        <dc:subject>
          <rdf:Bag>
            <rdf:li>edit</rdf:li>
            <rdf:li>find</rdf:li>
            <rdf:li>locate</rdf:li>
            <rdf:li>search</rdf:li>
          </rdf:Bag>
        </dc:subject>
        <cc:license
           rdf:resource="http://creativecommons.org/licenses/publicdomain/" />
        <dc:creator>
          <cc:Agent>
            <dc:title>Garrett LeSage</dc:title>
          </cc:Agent>
        </dc:creator>
        <dc:source />
        <dc:contributor>
          <cc:Agent>
            <dc:title>Jakub Steiner, Steven Garrity</dc:title>
          </cc:Agent>
        </dc:contributor>
      </cc:Work>
      <cc:License
         rdf:about="http://creativecommons.org/licenses/publicdomain/">
        <cc:permits
           rdf:resource="http://creativecommons.org/ns#Reproduction" />
        <cc:permits
           rdf:resource="http://creativecommons.org/ns#Distribution" />
        <cc:permits
           rdf:resource="http://creativecommons.org/ns#DerivativeWorks" />
      </cc:License>
    </rdf:RDF>
  </metadata>
  <g
     inkscape:groupmode="layer"
     id="layer6"
     inkscape:label="Shadow">
    <g
       style="display:inline"
       id="g5022"
       transform="matrix(2.3621542e-2,0,0,1.6209274e-2,45.134808,41.210569)">
      <rect
         y="-150.69685"
         x="-1559.2523"
         height="478.35718"
         width="1339.6335"
         id="rect4173"
         style="opacity:0.40206185;fill:url(#linearGradient5027);fill-opacity:1;fill-rule:nonzero;stroke:none;stroke-width:1;stroke-linecap:round;stroke-linejoin:miter;marker:none;marker-start:none;marker-mid:none;marker-end:none;stroke-miterlimit:4;stroke-dasharray:none;stroke-dashoffset:0;stroke-opacity:1;visibility:visible;display:inline;overflow:visible" />
      <path
         sodipodi:nodetypes="cccc"
         id="path5058"
         d="M -219.61876,-150.68038 C -219.61876,-150.68038 -219.61876,327.65041 -219.61876,327.65041 C -76.744594,328.55086 125.78146,220.48075 125.78138,88.454235 C 125.78138,-43.572302 -33.655436,-150.68036 -219.61876,-150.68038 z"
         style="opacity:0.40206185;fill:url(#radialGradient5029);fill-opacity:1;fill-rule:nonzero;stroke:none;stroke-width:1;stroke-linecap:round;stroke-linejoin:miter;marker:none;marker-start:none;marker-mid:none;marker-end:none;stroke-miterlimit:4;stroke-dasharray:none;stroke-dashoffset:0;stroke-opacity:1;visibility:visible;display:inline;overflow:visible" />
      <path
         style="opacity:0.40206185;fill:url(#radialGradient5031);fill-opacity:1;fill-rule:nonzero;stroke:none;stroke-width:1;stroke-linecap:round;stroke-linejoin:miter;marker:none;marker-start:none;marker-mid:none;marker-end:none;stroke-miterlimit:4;stroke-dasharray:none;stroke-dashoffset:0;stroke-opacity:1;visibility:visible;display:inline;overflow:visible"
         d="M -1559.2523,-150.68038 C -1559.2523,-150.68038 -1559.2523,327.65041 -1559.2523,327.65041 C -1702.1265,328.55086 -1904.6525,220.48075 -1904.6525,88.454235 C -1904.6525,-43.572302 -1745.2157,-150.68036 -1559.2523,-150.68038 z"
         id="path5018"
         sodipodi:nodetypes="cccc" />
    </g>
  </g>
  <g
     style="display:inline"
     inkscape:groupmode="layer"
     inkscape:label="Base"
     id="layer1">
    <path
       style="fill:none;fill-opacity:0.75000000;fill-rule:evenodd;stroke:#000000;stroke-width:0.98855311;stroke-linecap:butt;stroke-linejoin:miter;stroke-miterlimit:4.0000000;stroke-opacity:0.017543854"
       d="M 11.505723,5.4942766 L 11.505723,43.400869"
       id="path15672"
       sodipodi:nodetypes="cc" />
  </g>
  <g
     inkscape:groupmode="layer"
     id="layer5"
     inkscape:label="Magnifying Glass"
     style="display:inline">
    <g
       id="g3085"
       transform="matrix(0.1288956,0,0,0.1288956,-1.8250553,9.708631)">
      <path
         d="M 382.92188,253 L 323.07813,127.5 L 76.921875,127.5 L 17.078125,253 L 382.92188,253 z"
         style="fill:#000000;fill-opacity:1;fill-rule:evenodd;stroke:none;stroke-width:1px;stroke-linecap:butt;stroke-linejoin:miter;stroke-opacity:1"
         id="path3076" />
      <rect
         width="47.25"
         height="20.5"
         rx="10.25"
         ry="10.25"
         x="176.375"
         y="239.5"
         style="opacity:1;fill:#000000;fill-opacity:1;fill-rule:evenodd;stroke:none;stroke-width:15;stroke-linecap:round;stroke-linejoin:round;stroke-miterlimit:4;stroke-dasharray:none;stroke-dashoffset:0;stroke-opacity:1"
         id="rect3083" />
    </g>
    <rect
       width="39.570946"
       height="2.1912251"
       x="4.1685896"
       y="38.71014"
       style="fill:#353535;fill-opacity:1;fill-rule:evenodd;stroke:none;stroke-width:2.5;stroke-linecap:round;stroke-linejoin:round;stroke-miterlimit:4;stroke-dasharray:none;stroke-dashoffset:0;stroke-opacity:1"
       id="rect3104" />
    <path
       d="M 36.33477,26.170584 C 37.291774,26.444012 38.5222,26.535156 38.841205,27.218728 C 39.160199,27.9023 45.266785,39.819238 45.175644,40.115453 C 45.084492,40.411668 45.289564,40.799026 44.537634,40.799026 C 36.438403,40.799026 34.246434,39.096822 30.057336,39.096822 C 25.868229,39.096822 25.679706,42.125869 23.95406,42.125869 C 22.103218,42.125869 22.039893,39.096822 17.850786,39.096822 C 13.66168,39.096822 11.469716,40.799026 3.3704824,40.799026 C 2.6185529,40.799026 2.8236248,40.411668 2.7324815,40.115453 C 2.6413393,39.819238 8.747916,27.9023 9.066917,27.218728 C 9.385917,26.535156 10.616346,26.444012 11.573346,26.170584"
       style="fill:#b1b1b1;fill-opacity:1;fill-rule:evenodd;stroke:#4f4f4f;stroke-width:0.12889558px;stroke-linecap:butt;stroke-linejoin:miter;stroke-opacity:1"
       id="path3093" />
    <g
       transform="matrix(0.1288956,0,0,0.1288956,-1.8915521,9.708631)"
       id="g3100">
      <path
         d="M 200.46477,117.46237 L 200.46477,236.96342 C 200.46477,236.96342 180.31223,210.44692 152.73506,210.44692 C 126.80728,210.44692 122.81295,228.83169 50.558135,228.83169 L 98.994949,121.70501 C 137.00194,120.87918 158.03837,106.73445 174.30182,106.73445 C 190.56528,106.73445 200.81833,117.46237 200.46477,117.46237 z"
         style="fill:url(#linearGradient19578);fill-opacity:1;fill-rule:evenodd;stroke:#5e5e5e;stroke-width:2.5;stroke-linecap:butt;stroke-linejoin:round;stroke-miterlimit:4;stroke-dasharray:none;stroke-opacity:1"
         id="path3089" />
      <use
         transform="matrix(-1,0,0,1,401.032,0)"
         id="use3091"
         x="0"
         y="0"
         width="400"
         height="360"
         xlink:href="#path3089" />
    </g>
    <g
       id="layer4"
       inkscape:label="new"
       style="display:inline"
       transform="matrix(0.7701184,0,0,0.6682499,-14.66929,23.225627)">
      <path
         sodipodi:type="arc"
         style="fill:url(#radialGradient1558);fill-opacity:1;fill-rule:nonzero;stroke:none;stroke-width:1.25000024;stroke-linecap:butt;stroke-linejoin:round;marker:none;marker-start:none;marker-mid:none;marker-end:none;stroke-miterlimit:4;stroke-dashoffset:0;stroke-opacity:1;visibility:visible;display:block"
         id="path12511"
         sodipodi:cx="55"
         sodipodi:cy="125"
         sodipodi:rx="14.375"
         sodipodi:ry="14.375"
         d="M 69.375,125 A 14.375,14.375 0 1 1 40.625,125 A 14.375,14.375 0 1 1 69.375,125 z"
         transform="matrix(0.783292,0,0,0.783292,-6.340883,-86.65168)"
         inkscape:export-filename="/home/jimmac/ximian_art/icons/nautilus/suse93/stock_new-16.png"
         inkscape:export-xdpi="33.852203"
         inkscape:export-ydpi="33.852203" />
    </g>
    <path
       style="opacity:1;fill:#000000;fill-opacity:1;stroke:#000000;stroke-width:0.2;stroke-linejoin:miter;stroke-miterlimit:4;stroke-dasharray:none;stroke-dashoffset:0;stroke-opacity:1"
       id="path19548"
       d="M 11.291689,26.797144 C 11.410392,26.432463 11.798486,26.179114 12.184119,26.169222 C 12.428091,26.189846 12.666015,26.212241 12.903374,26.140467 C 13.076208,26.069394 13.26545,26.082576 13.448346,26.086628 L 13.050644,26.374574 C 12.868855,26.372604 12.685922,26.370738 12.513854,26.439247 C 12.27245,26.495018 12.033682,26.472742 11.788506,26.460366 C 11.546784,26.484201 11.669593,26.489092 12.001933,26.258635 C 12.031329,26.238251 11.937599,26.290829 11.90904,26.312368 C 11.818311,26.380795 11.771473,26.477424 11.738215,26.583239 L 11.291689,26.797144 z" />
    <path
       style="opacity:1;fill:#000000;fill-opacity:1;stroke:#000000;stroke-width:0.2;stroke-linejoin:miter;stroke-miterlimit:4;stroke-dasharray:none;stroke-dashoffset:0;stroke-opacity:1"
       id="path19550"
       d="M 14.631463,26.084674 C 14.873595,25.981533 15.130429,25.926871 15.389803,25.89008 C 15.584747,25.878241 15.756014,25.982659 15.945289,26.009415 L 15.542231,26.291846 C 15.360364,26.254874 15.188319,26.163529 14.998443,26.183354 C 14.737844,26.224002 14.483929,26.288348 14.238154,26.385421 L 14.631463,26.084674 z" />
    <path
       style="opacity:1;fill:#000000;fill-opacity:1;stroke:#000000;stroke-width:0.2;stroke-linejoin:miter;stroke-miterlimit:4;stroke-dasharray:none;stroke-dashoffset:0;stroke-opacity:1"
       id="path19552"
       d="M 16.691208,25.674853 C 16.888745,25.460274 17.11784,25.282941 17.356282,25.116954 C 17.600471,24.990499 17.827963,24.709577 18.115925,24.742726 C 18.206616,24.753166 18.306372,24.815964 18.389035,24.851406 C 18.620678,24.999869 18.875988,24.931563 19.123933,24.868155 C 19.392599,24.786267 19.639583,24.693231 19.924116,24.725826 C 20.148498,24.772845 20.37383,24.807418 20.602067,24.828143 L 20.205273,25.110881 C 19.976477,25.089375 19.751211,25.05162 19.525269,25.010195 C 19.246591,24.992471 19.000512,25.091052 18.735736,25.164843 C 18.476808,25.226783 18.219535,25.272393 17.979658,25.124379 C 17.901983,25.091593 17.808759,25.036309 17.721233,25.037459 C 17.568302,25.039468 17.393036,25.220304 17.939726,24.86221 C 17.981662,24.834742 17.853302,24.913035 17.81009,24.938447 C 17.573718,25.101529 17.340319,25.269157 17.148505,25.485434 L 16.691208,25.674853 z" />
    <path
       style="opacity:1;fill:#000000;fill-opacity:1;stroke:#000000;stroke-width:0.2;stroke-linejoin:miter;stroke-miterlimit:4;stroke-dasharray:none;stroke-dashoffset:0;stroke-opacity:1"
       id="path19554"
       d="M 11.377967,27.815587 C 11.660182,27.70364 11.943125,27.602798 12.24072,27.539917 C 12.505492,27.471668 12.748903,27.552851 12.998035,27.632663 C 13.105245,27.667175 13.216267,27.684242 13.327223,27.700893 L 12.925592,27.983169 C 12.813045,27.964441 12.700524,27.945055 12.591905,27.908846 C 12.347796,27.83002 12.109728,27.764854 11.852217,27.835167 C 11.55547,27.902294 11.270876,28.003913 10.99165,28.124604 L 11.377967,27.815587 z" />
    <path
       style="opacity:1;fill:#000000;fill-opacity:1;stroke:#000000;stroke-width:0.2;stroke-linejoin:miter;stroke-miterlimit:4;stroke-dasharray:none;stroke-dashoffset:0;stroke-opacity:1"
       id="path19556"
       d="M 15.131463,27.209674 C 15.383962,27.148131 15.63571,27.132718 15.893236,27.157648 C 16.189569,27.214274 16.47414,27.181957 16.758893,27.09147 C 17.121004,26.941982 17.481716,26.789454 17.846251,26.645723 C 18.062281,26.564221 18.272746,26.643467 18.488021,26.68261 C 18.677342,26.72849 18.863646,26.693723 19.052412,26.666873 L 18.659741,26.960569 C 18.467299,26.986906 18.276874,27.011205 18.084814,26.964411 C 17.874647,26.92471 17.672988,26.858759 17.464029,26.946072 C 17.099413,27.091074 16.73848,27.244824 16.373713,27.389021 C 16.083612,27.472787 15.794094,27.495785 15.49501,27.441662 C 15.23902,27.42135 14.987187,27.444747 14.738154,27.510421 L 15.131463,27.209674 z" />
    <path
       style="opacity:1;fill:#000000;fill-opacity:1;stroke:#000000;stroke-width:0.2;stroke-linejoin:miter;stroke-miterlimit:4;stroke-dasharray:none;stroke-dashoffset:0;stroke-opacity:1"
       id="path19558"
       d="M 20.89962,26.104794 C 21.189953,26.098863 21.464172,26.023007 21.754587,26.069185 C 22.025652,26.11166 22.276804,26.208706 22.52114,26.329014 C 22.682162,26.412837 22.820814,26.530019 22.958268,26.646855 L 22.544137,26.905534 C 22.408147,26.792119 22.270714,26.678906 22.111449,26.598909 C 21.871342,26.480422 21.621911,26.390469 21.355532,26.350734 C 21.066219,26.316076 20.789231,26.393557 20.499902,26.395206 L 20.89962,26.104794 z" />
    <path
       style="opacity:1;fill:#000000;fill-opacity:1;stroke:#000000;stroke-width:0.2;stroke-linejoin:miter;stroke-miterlimit:4;stroke-dasharray:none;stroke-dashoffset:0;stroke-opacity:1"
       id="path19560"
       d="M 11.256463,29.334674 C 11.506346,29.280594 11.761384,29.259257 12.016082,29.244067 C 12.27841,29.267595 12.537994,29.311579 12.800522,29.334324 C 13.011201,29.367026 13.216458,29.328428 13.423958,29.295739 L 13.032046,29.589827 C 12.822265,29.622054 12.613874,29.650935 12.401591,29.618708 C 12.141218,29.594225 11.883414,29.546787 11.622163,29.53406 C 11.367327,29.550893 11.111705,29.573669 10.863154,29.635421 L 11.256463,29.334674 z" />
    <path
       style="opacity:1;fill:#000000;fill-opacity:1;stroke:#000000;stroke-width:0.2;stroke-linejoin:miter;stroke-miterlimit:4;stroke-dasharray:none;stroke-dashoffset:0;stroke-opacity:1"
       id="path19562"
       d="M 14.566208,29.174853 C 14.879103,28.907515 15.250841,28.720123 15.653358,28.644383 C 15.852792,28.622104 15.749403,28.626391 15.963636,28.634592 L 15.569126,28.920091 C 15.358016,28.920323 15.459996,28.912857 15.263014,28.939997 C 15.156332,28.962867 15.114796,28.968333 15.011433,29.00425 C 14.970823,29.018362 14.857043,29.077607 14.891671,29.052128 C 15.46758,28.628381 15.166871,28.907034 15.023505,28.985434 L 14.566208,29.174853 z" />
    <path
       style="opacity:1;fill:#000000;fill-opacity:1;stroke:#000000;stroke-width:0.2;stroke-linejoin:miter;stroke-miterlimit:4;stroke-dasharray:none;stroke-dashoffset:0;stroke-opacity:1"
       id="path19564"
       d="M 19.381463,28.209674 C 19.637263,28.148834 19.893974,28.220676 20.144742,28.271539 C 20.355272,28.326836 20.570243,28.275023 20.783489,28.285774 L 20.3852,28.573013 C 20.170976,28.568863 19.954401,28.6089 19.743503,28.550969 C 19.494334,28.500484 19.240148,28.438184 18.988154,28.510421 L 19.381463,28.209674 z" />
    <path
       style="opacity:1;fill:#000000;fill-opacity:1;stroke:#000000;stroke-width:0.2;stroke-linejoin:miter;stroke-miterlimit:4;stroke-dasharray:none;stroke-dashoffset:0;stroke-opacity:1"
       id="path19566"
       d="M 16.789093,28.605142 C 17.252437,28.543531 17.720785,28.570332 18.186415,28.582501 C 18.603459,28.574863 18.885283,28.591568 19.257681,28.780987 L 18.848967,29.049643 C 18.496405,28.872457 18.189763,28.859253 17.797594,28.863396 C 17.328207,28.850317 16.857178,28.831174 16.390333,28.894858 L 16.789093,28.605142 z" />
    <path
       style="opacity:1;fill:#000000;fill-opacity:1;stroke:#000000;stroke-width:0.2;stroke-linejoin:miter;stroke-miterlimit:4;stroke-dasharray:none;stroke-dashoffset:0;stroke-opacity:1"
       id="path19568"
       d="M 21.27462,27.479794 C 21.558671,27.484336 21.841378,27.457255 22.116795,27.537069 C 22.157672,27.557096 22.19855,27.577122 22.239428,27.597149 L 21.831156,27.867152 C 21.791911,27.849441 21.752665,27.83173 21.71342,27.814019 C 21.438738,27.743817 21.156156,27.772202 20.874902,27.770206 L 21.27462,27.479794 z" />
    <g
       id="g1574"
       transform="matrix(1.1444527,-0.3066554,0.3066554,1.1444527,11.343447,-32.174027)"
       inkscape:r_cx="true"
       inkscape:r_cy="true">
      <path
         transform="translate(-29.75546,19)"
         sodipodi:nodetypes="cccccc"
         id="path2960"
         d="M 17.34116,32.5 L 22.96616,26.875 L 43.059909,17.125 C 46.309909,15.875 48.247409,20.5 45.372409,22.125 L 25.34116,31.5 L 17.34116,32.5 z"
         style="fill:#cb9022;fill-opacity:1;fill-rule:evenodd;stroke:#5c410c;stroke-width:0.84400636;stroke-linecap:butt;stroke-linejoin:miter;marker:none;marker-start:none;marker-mid:none;marker-end:none;stroke-miterlimit:4;stroke-dasharray:none;stroke-dashoffset:0;stroke-opacity:1;visibility:visible;display:inline;overflow:visible"
         inkscape:r_cx="true"
         inkscape:r_cy="true" />
      <path
         transform="translate(-29.75546,19)"
         style="fill:url(#linearGradient2554);fill-opacity:1;fill-rule:evenodd;stroke:none;stroke-width:1;stroke-linecap:butt;stroke-linejoin:miter;marker:none;marker-start:none;marker-mid:none;marker-end:none;stroke-miterlimit:4;stroke-dasharray:none;stroke-dashoffset:0;stroke-opacity:1;visibility:visible;display:inline;overflow:visible"
         d="M 38.330708,20 C 38.330708,20 39.768208,20.09375 40.330708,21.34375 C 40.910201,22.631511 40.330708,24 40.330708,24 L 45.361958,21.53125 C 45.361958,21.53125 46.81399,20.649883 46.018208,18.6875 C 45.233296,16.751923 43.330708,17.53125 43.330708,17.53125 L 38.330708,20 z"
         id="path2964"
         sodipodi:nodetypes="czcczcc"
         inkscape:r_cx="true"
         inkscape:r_cy="true" />
      <path
         transform="translate(-29.75546,19)"
         sodipodi:nodetypes="czcczcc"
         id="path2962"
         d="M 38.330708,20 C 38.330708,20 39.768208,20.09375 40.330708,21.34375 C 40.910201,22.631511 40.330708,24 40.330708,24 L 42.330708,23 C 42.330708,23 43.15774,21.681133 42.549458,20.3125 C 41.924458,18.90625 40.330708,19 40.330708,19 L 38.330708,20 z"
         style="fill:url(#linearGradient2556);fill-opacity:1;fill-rule:evenodd;stroke:none;stroke-width:1;stroke-linecap:butt;stroke-linejoin:miter;marker:none;marker-start:none;marker-mid:none;marker-end:none;stroke-miterlimit:4;stroke-dasharray:none;stroke-dashoffset:0;stroke-opacity:1;visibility:visible;display:inline;overflow:visible"
         inkscape:r_cx="true"
         inkscape:r_cy="true" />
      <path
         transform="translate(-29.75546,19)"
         sodipodi:nodetypes="cccc"
         id="path2982"
         d="M 18.768208,31.78125 L 23.268208,27.28125 C 24.768208,28.09375 25.549458,29.4375 25.143208,31 L 18.768208,31.78125 z"
         style="fill:url(#radialGradient2558);fill-opacity:1;fill-rule:evenodd;stroke:none;stroke-width:1;stroke-linecap:butt;stroke-linejoin:miter;marker:none;marker-start:none;marker-mid:none;marker-end:none;stroke-miterlimit:4;stroke-dasharray:none;stroke-dashoffset:0;stroke-opacity:1;visibility:visible;display:inline;overflow:visible"
         inkscape:r_cx="true"
         inkscape:r_cy="true" />
      <path
         transform="translate(-29.75546,19)"
         sodipodi:nodetypes="cccc"
         id="path2992"
         d="M 20.111958,30.375 L 18.486958,31.96875 L 20.830708,31.65625 C 21.049458,30.9375 20.643208,30.59375 20.111958,30.375 z"
         style="fill:url(#linearGradient2560);fill-opacity:1;fill-rule:evenodd;stroke:none;stroke-width:1;stroke-linecap:butt;stroke-linejoin:miter;marker:none;marker-start:none;marker-mid:none;marker-end:none;stroke-miterlimit:4;stroke-dasharray:none;stroke-dashoffset:0;stroke-opacity:1;visibility:visible;display:inline;overflow:visible"
         inkscape:r_cx="true"
         inkscape:r_cy="true" />
      <path
         transform="translate(-29.75546,19)"
         sodipodi:nodetypes="ccccc"
         id="path3002"
         d="M 23.268208,27.25 L 24.830708,28.5 L 40.218048,21.18133 C 39.773616,20.325286 38.976281,20.096733 38.314669,20.019068 L 23.268208,27.25 z"
         style="fill:#ffffff;fill-opacity:0.36363639;fill-rule:evenodd;stroke:none;stroke-width:1;stroke-linecap:butt;stroke-linejoin:miter;marker:none;marker-start:none;marker-mid:none;marker-end:none;stroke-miterlimit:4;stroke-dasharray:none;stroke-dashoffset:0;stroke-opacity:1;visibility:visible;display:inline;overflow:visible"
         inkscape:r_cx="true"
         inkscape:r_cy="true" />
      <path
         transform="translate(-29.75546,19)"
         sodipodi:nodetypes="ccccc"
         id="path3004"
         d="M 25.143208,31.0625 L 25.330708,30.3125 L 40.561798,23.1829 C 40.561798,23.1829 40.451638,23.796527 40.345919,23.93225 L 25.143208,31.0625 z"
         style="fill:#000000;fill-opacity:0.36363639;fill-rule:evenodd;stroke:none;stroke-width:1;stroke-linecap:butt;stroke-linejoin:miter;marker:none;marker-start:none;marker-mid:none;marker-end:none;stroke-miterlimit:4;stroke-dasharray:none;stroke-dashoffset:0;stroke-opacity:1;visibility:visible;display:inline;overflow:visible"
         inkscape:r_cx="true"
         inkscape:r_cy="true" />
    </g>
  </g>
</svg>
